%FSLAX45Y45*%
G04 Gerber Fmt 4.5, Leading zero omitted, Abs format (unit mm)*
G04 Created by KiCad (PCBNEW (6.0.4)) date 2023-03-26 23:07:18*
%MOMM*%
%LPD*%
G01*
G04 APERTURE LIST*
%TA.AperFunction,Profile*%
%ADD10C,0.100000*%
%TD*%
%ADD11C,0.200000*%
%ADD12C,0.040000*%
G04 APERTURE END LIST*
D10*
X24890562Y-14535859D02*
X24890562Y-14585859D01*
X24890916Y-13635504D02*
G75*
G03*
X24940917Y-13685504I50004J4D01*
G01*
X23541500Y-13252000D02*
X22111500Y-13252000D01*
X21709997Y-12150000D02*
G75*
G03*
X22011500Y-12152000I150753J-760D01*
G01*
X24042377Y-12050377D02*
G75*
G03*
X23942377Y-12150377I3J-100003D01*
G01*
X24889850Y-13586570D02*
G75*
G03*
X24789851Y-13486570I-100000J0D01*
G01*
X24790562Y-14685859D02*
X24040562Y-14685859D01*
X23541500Y-13252000D02*
G75*
G03*
X23641500Y-13152000I0J100000D01*
G01*
X25240562Y-14485152D02*
G75*
G03*
X25290562Y-14435149I-2J50002D01*
G01*
X24890955Y-12150377D02*
X24892732Y-12200022D01*
X24042377Y-12050377D02*
X24790955Y-12050377D01*
X24942377Y-13050377D02*
G75*
G03*
X24892377Y-13100377I3J-50003D01*
G01*
X24890953Y-12150377D02*
G75*
G03*
X24790955Y-12050377I-99993J7D01*
G01*
X23941664Y-13149666D02*
G75*
G03*
X24041666Y-13249666I100006J6D01*
G01*
X23941750Y-13148250D02*
G75*
G03*
X23641750Y-13148250I-150000J0D01*
G01*
X24892738Y-12200022D02*
G75*
G03*
X24942732Y-12250022I50002J2D01*
G01*
X25242022Y-13050022D02*
X24942377Y-13050377D01*
X24889851Y-13586570D02*
X24890917Y-13635504D01*
X24791666Y-13249666D02*
X24041666Y-13249666D01*
X23640750Y-13588250D02*
G75*
G03*
X23540750Y-13488250I-100000J0D01*
G01*
X25240562Y-14485149D02*
X24940562Y-14485859D01*
X22011500Y-13152000D02*
G75*
G03*
X22111500Y-13252000I100000J0D01*
G01*
X17584310Y-12185014D02*
X20910430Y-12184310D01*
X22010745Y-14588250D02*
G75*
G03*
X21710000Y-14585000I-150355J3250D01*
G01*
X24790562Y-14685862D02*
G75*
G03*
X24890562Y-14585859I-2J100002D01*
G01*
X16810000Y-12185000D02*
X16810711Y-14585289D01*
X24892377Y-13100377D02*
X24891666Y-13149666D01*
X25242022Y-13050022D02*
G75*
G03*
X25292022Y-13000022I-2J50002D01*
G01*
X24791666Y-13249666D02*
G75*
G03*
X24891666Y-13149666I4J99996D01*
G01*
X16810711Y-14585289D02*
G75*
G03*
X16910711Y-14685289I99999J-1D01*
G01*
X23641000Y-12144000D02*
G75*
G03*
X23941000Y-12144000I150000J0D01*
G01*
X21610000Y-14685000D02*
G75*
G03*
X21710000Y-14585000I0J100000D01*
G01*
X21710000Y-12185000D02*
X21710000Y-11930000D01*
X24041273Y-13486573D02*
G75*
G03*
X23941273Y-13586570I-3J-99997D01*
G01*
X18559998Y-14685102D02*
X19960000Y-14685000D01*
X22111500Y-12052000D02*
G75*
G03*
X22011500Y-12152000I0J-100000D01*
G01*
X24942732Y-12250022D02*
X25242022Y-12250732D01*
X23641500Y-12152000D02*
G75*
G03*
X23541500Y-12052000I-100000J0D01*
G01*
X23540750Y-14688250D02*
X22110750Y-14688250D01*
X20460000Y-14685000D02*
X21610000Y-14685000D01*
X24940917Y-13685504D02*
X25240562Y-13685859D01*
X25290562Y-13735859D02*
X25290562Y-14435149D01*
X25292028Y-12300732D02*
G75*
G03*
X25242022Y-12250732I-50008J-8D01*
G01*
X21710000Y-11930000D02*
G75*
G03*
X21190000Y-11930000I-260000J-5000D01*
G01*
X23640005Y-13584000D02*
G75*
G03*
X23941273Y-13586570I150645J0D01*
G01*
X21710000Y-13587000D02*
G75*
G03*
X22010000Y-13587000I150000J0D01*
G01*
X16910711Y-14685289D02*
X18060000Y-14685000D01*
X23940561Y-14585859D02*
G75*
G03*
X24040562Y-14685859I99999J-1D01*
G01*
X22110750Y-13488250D02*
X23540750Y-13488250D01*
X22110750Y-13488250D02*
G75*
G03*
X22010750Y-13588250I0J-100000D01*
G01*
X25292022Y-12300732D02*
X25292022Y-13000022D01*
X22111500Y-12052000D02*
X23541500Y-12052000D01*
X21710000Y-13155000D02*
X21710000Y-13587000D01*
X25290561Y-13735859D02*
G75*
G03*
X25240562Y-13685859I-50001J-1D01*
G01*
X19960000Y-14685000D02*
G75*
G03*
X20460000Y-14685000I250000J0D01*
G01*
X17330006Y-11905444D02*
G75*
G03*
X17584310Y-12185014I259304J-19576D01*
G01*
X17330000Y-11920000D02*
G75*
G03*
X16810000Y-11920000I-260000J-5000D01*
G01*
X24940562Y-14485862D02*
G75*
G03*
X24890562Y-14535859I-2J-49998D01*
G01*
X20910430Y-12184311D02*
G75*
G03*
X21190000Y-11930000I19570J259311D01*
G01*
X22010000Y-13155000D02*
G75*
G03*
X21710000Y-13155000I-150000J0D01*
G01*
X23940750Y-14588250D02*
G75*
G03*
X23640750Y-14588250I-150000J0D01*
G01*
X24041273Y-13486570D02*
X24789851Y-13486570D01*
X22010750Y-14588250D02*
G75*
G03*
X22110750Y-14688250I100000J0D01*
G01*
X23540750Y-14688250D02*
G75*
G03*
X23640750Y-14588250I0J100000D01*
G01*
X16810000Y-12185000D02*
X16810000Y-11920000D01*
X18060004Y-14685000D02*
G75*
G03*
X18559998Y-14685102I249996J-5100D01*
G01*
D11*
D12*
X18330000Y-12665000D02*
X18370000Y-12705000D01*
X18370000Y-12665000D02*
X18330000Y-12705000D01*
X19940000Y-12610000D02*
X19980000Y-12650000D01*
X19980000Y-12610000D02*
X19940000Y-12650000D01*
D11*
X17062619Y-15255624D02*
X17062619Y-15055624D01*
X17110238Y-15055624D01*
X17138810Y-15065148D01*
X17157857Y-15084195D01*
X17167381Y-15103243D01*
X17176905Y-15141338D01*
X17176905Y-15169910D01*
X17167381Y-15208005D01*
X17157857Y-15227052D01*
X17138810Y-15246100D01*
X17110238Y-15255624D01*
X17062619Y-15255624D01*
X17262619Y-15255624D02*
X17262619Y-15122290D01*
X17262619Y-15160386D02*
X17272143Y-15141338D01*
X17281667Y-15131814D01*
X17300714Y-15122290D01*
X17319762Y-15122290D01*
X17386429Y-15255624D02*
X17386429Y-15122290D01*
X17386429Y-15055624D02*
X17376905Y-15065148D01*
X17386429Y-15074671D01*
X17395952Y-15065148D01*
X17386429Y-15055624D01*
X17386429Y-15074671D01*
X17510238Y-15255624D02*
X17491190Y-15246100D01*
X17481667Y-15227052D01*
X17481667Y-15055624D01*
X17615000Y-15255624D02*
X17595952Y-15246100D01*
X17586429Y-15227052D01*
X17586429Y-15055624D01*
X17843571Y-15255624D02*
X17843571Y-15055624D01*
X17910238Y-15198481D01*
X17976905Y-15055624D01*
X17976905Y-15255624D01*
X18157857Y-15255624D02*
X18157857Y-15150862D01*
X18148333Y-15131814D01*
X18129286Y-15122290D01*
X18091190Y-15122290D01*
X18072143Y-15131814D01*
X18157857Y-15246100D02*
X18138810Y-15255624D01*
X18091190Y-15255624D01*
X18072143Y-15246100D01*
X18062619Y-15227052D01*
X18062619Y-15208005D01*
X18072143Y-15188957D01*
X18091190Y-15179433D01*
X18138810Y-15179433D01*
X18157857Y-15169910D01*
X18253095Y-15122290D02*
X18253095Y-15322290D01*
X18253095Y-15131814D02*
X18272143Y-15122290D01*
X18310238Y-15122290D01*
X18329286Y-15131814D01*
X18338810Y-15141338D01*
X18348333Y-15160386D01*
X18348333Y-15217529D01*
X18338810Y-15236576D01*
X18329286Y-15246100D01*
X18310238Y-15255624D01*
X18272143Y-15255624D01*
X18253095Y-15246100D01*
X18434048Y-15236576D02*
X18443571Y-15246100D01*
X18434048Y-15255624D01*
X18424524Y-15246100D01*
X18434048Y-15236576D01*
X18434048Y-15255624D01*
X18434048Y-15131814D02*
X18443571Y-15141338D01*
X18434048Y-15150862D01*
X18424524Y-15141338D01*
X18434048Y-15131814D01*
X18434048Y-15150862D01*
D12*
X16765000Y-15565148D02*
X16805000Y-15605148D01*
X16805000Y-15565148D02*
X16765000Y-15605148D01*
D11*
X17100714Y-15475624D02*
X17119762Y-15475624D01*
X17138810Y-15485148D01*
X17148333Y-15494671D01*
X17157857Y-15513719D01*
X17167381Y-15551814D01*
X17167381Y-15599433D01*
X17157857Y-15637529D01*
X17148333Y-15656576D01*
X17138810Y-15666100D01*
X17119762Y-15675624D01*
X17100714Y-15675624D01*
X17081667Y-15666100D01*
X17072143Y-15656576D01*
X17062619Y-15637529D01*
X17053095Y-15599433D01*
X17053095Y-15551814D01*
X17062619Y-15513719D01*
X17072143Y-15494671D01*
X17081667Y-15485148D01*
X17100714Y-15475624D01*
X17253095Y-15656576D02*
X17262619Y-15666100D01*
X17253095Y-15675624D01*
X17243571Y-15666100D01*
X17253095Y-15656576D01*
X17253095Y-15675624D01*
X17434048Y-15542290D02*
X17434048Y-15675624D01*
X17386429Y-15466100D02*
X17338810Y-15608957D01*
X17462619Y-15608957D01*
X17576905Y-15475624D02*
X17595952Y-15475624D01*
X17615000Y-15485148D01*
X17624524Y-15494671D01*
X17634048Y-15513719D01*
X17643571Y-15551814D01*
X17643571Y-15599433D01*
X17634048Y-15637529D01*
X17624524Y-15656576D01*
X17615000Y-15666100D01*
X17595952Y-15675624D01*
X17576905Y-15675624D01*
X17557857Y-15666100D01*
X17548333Y-15656576D01*
X17538810Y-15637529D01*
X17529286Y-15599433D01*
X17529286Y-15551814D01*
X17538810Y-15513719D01*
X17548333Y-15494671D01*
X17557857Y-15485148D01*
X17576905Y-15475624D01*
X17767381Y-15475624D02*
X17786429Y-15475624D01*
X17805476Y-15485148D01*
X17815000Y-15494671D01*
X17824524Y-15513719D01*
X17834048Y-15551814D01*
X17834048Y-15599433D01*
X17824524Y-15637529D01*
X17815000Y-15656576D01*
X17805476Y-15666100D01*
X17786429Y-15675624D01*
X17767381Y-15675624D01*
X17748333Y-15666100D01*
X17738810Y-15656576D01*
X17729286Y-15637529D01*
X17719762Y-15599433D01*
X17719762Y-15551814D01*
X17729286Y-15513719D01*
X17738810Y-15494671D01*
X17748333Y-15485148D01*
X17767381Y-15475624D01*
X17919762Y-15675624D02*
X17919762Y-15542290D01*
X17919762Y-15561338D02*
X17929286Y-15551814D01*
X17948333Y-15542290D01*
X17976905Y-15542290D01*
X17995952Y-15551814D01*
X18005476Y-15570862D01*
X18005476Y-15675624D01*
X18005476Y-15570862D02*
X18015000Y-15551814D01*
X18034048Y-15542290D01*
X18062619Y-15542290D01*
X18081667Y-15551814D01*
X18091190Y-15570862D01*
X18091190Y-15675624D01*
X18186429Y-15675624D02*
X18186429Y-15542290D01*
X18186429Y-15561338D02*
X18195952Y-15551814D01*
X18215000Y-15542290D01*
X18243571Y-15542290D01*
X18262619Y-15551814D01*
X18272143Y-15570862D01*
X18272143Y-15675624D01*
X18272143Y-15570862D02*
X18281667Y-15551814D01*
X18300714Y-15542290D01*
X18329286Y-15542290D01*
X18348333Y-15551814D01*
X18357857Y-15570862D01*
X18357857Y-15675624D01*
X18748333Y-15466100D02*
X18576905Y-15723243D01*
X19005476Y-15475624D02*
X19024524Y-15475624D01*
X19043571Y-15485148D01*
X19053095Y-15494671D01*
X19062619Y-15513719D01*
X19072143Y-15551814D01*
X19072143Y-15599433D01*
X19062619Y-15637529D01*
X19053095Y-15656576D01*
X19043571Y-15666100D01*
X19024524Y-15675624D01*
X19005476Y-15675624D01*
X18986429Y-15666100D01*
X18976905Y-15656576D01*
X18967381Y-15637529D01*
X18957857Y-15599433D01*
X18957857Y-15551814D01*
X18967381Y-15513719D01*
X18976905Y-15494671D01*
X18986429Y-15485148D01*
X19005476Y-15475624D01*
X19157857Y-15656576D02*
X19167381Y-15666100D01*
X19157857Y-15675624D01*
X19148333Y-15666100D01*
X19157857Y-15656576D01*
X19157857Y-15675624D01*
X19291190Y-15475624D02*
X19310238Y-15475624D01*
X19329286Y-15485148D01*
X19338810Y-15494671D01*
X19348333Y-15513719D01*
X19357857Y-15551814D01*
X19357857Y-15599433D01*
X19348333Y-15637529D01*
X19338810Y-15656576D01*
X19329286Y-15666100D01*
X19310238Y-15675624D01*
X19291190Y-15675624D01*
X19272143Y-15666100D01*
X19262619Y-15656576D01*
X19253095Y-15637529D01*
X19243571Y-15599433D01*
X19243571Y-15551814D01*
X19253095Y-15513719D01*
X19262619Y-15494671D01*
X19272143Y-15485148D01*
X19291190Y-15475624D01*
X19548333Y-15675624D02*
X19434048Y-15675624D01*
X19491190Y-15675624D02*
X19491190Y-15475624D01*
X19472143Y-15504195D01*
X19453095Y-15523243D01*
X19434048Y-15532767D01*
X19729286Y-15475624D02*
X19634048Y-15475624D01*
X19624524Y-15570862D01*
X19634048Y-15561338D01*
X19653095Y-15551814D01*
X19700714Y-15551814D01*
X19719762Y-15561338D01*
X19729286Y-15570862D01*
X19738810Y-15589910D01*
X19738810Y-15637529D01*
X19729286Y-15656576D01*
X19719762Y-15666100D01*
X19700714Y-15675624D01*
X19653095Y-15675624D01*
X19634048Y-15666100D01*
X19624524Y-15656576D01*
X19805476Y-15475624D02*
X19938810Y-15475624D01*
X19853095Y-15675624D01*
X20005476Y-15475624D02*
X20005476Y-15513719D01*
X20081667Y-15475624D02*
X20081667Y-15513719D01*
X20376905Y-15751814D02*
X20367381Y-15742290D01*
X20348333Y-15713719D01*
X20338810Y-15694671D01*
X20329286Y-15666100D01*
X20319762Y-15618481D01*
X20319762Y-15580386D01*
X20329286Y-15532767D01*
X20338810Y-15504195D01*
X20348333Y-15485148D01*
X20367381Y-15456576D01*
X20376905Y-15447052D01*
X20443571Y-15494671D02*
X20453095Y-15485148D01*
X20472143Y-15475624D01*
X20519762Y-15475624D01*
X20538810Y-15485148D01*
X20548333Y-15494671D01*
X20557857Y-15513719D01*
X20557857Y-15532767D01*
X20548333Y-15561338D01*
X20434048Y-15675624D01*
X20557857Y-15675624D01*
X20795952Y-15675624D02*
X20795952Y-15475624D01*
X20881667Y-15675624D02*
X20881667Y-15570862D01*
X20872143Y-15551814D01*
X20853095Y-15542290D01*
X20824524Y-15542290D01*
X20805476Y-15551814D01*
X20795952Y-15561338D01*
X21005476Y-15675624D02*
X20986429Y-15666100D01*
X20976905Y-15656576D01*
X20967381Y-15637529D01*
X20967381Y-15580386D01*
X20976905Y-15561338D01*
X20986429Y-15551814D01*
X21005476Y-15542290D01*
X21034048Y-15542290D01*
X21053095Y-15551814D01*
X21062619Y-15561338D01*
X21072143Y-15580386D01*
X21072143Y-15637529D01*
X21062619Y-15656576D01*
X21053095Y-15666100D01*
X21034048Y-15675624D01*
X21005476Y-15675624D01*
X21186429Y-15675624D02*
X21167381Y-15666100D01*
X21157857Y-15647052D01*
X21157857Y-15475624D01*
X21338810Y-15666100D02*
X21319762Y-15675624D01*
X21281667Y-15675624D01*
X21262619Y-15666100D01*
X21253095Y-15647052D01*
X21253095Y-15570862D01*
X21262619Y-15551814D01*
X21281667Y-15542290D01*
X21319762Y-15542290D01*
X21338810Y-15551814D01*
X21348333Y-15570862D01*
X21348333Y-15589910D01*
X21253095Y-15608957D01*
X21424524Y-15666100D02*
X21443571Y-15675624D01*
X21481667Y-15675624D01*
X21500714Y-15666100D01*
X21510238Y-15647052D01*
X21510238Y-15637529D01*
X21500714Y-15618481D01*
X21481667Y-15608957D01*
X21453095Y-15608957D01*
X21434048Y-15599433D01*
X21424524Y-15580386D01*
X21424524Y-15570862D01*
X21434048Y-15551814D01*
X21453095Y-15542290D01*
X21481667Y-15542290D01*
X21500714Y-15551814D01*
X21576905Y-15751814D02*
X21586429Y-15742290D01*
X21605476Y-15713719D01*
X21615000Y-15694671D01*
X21624524Y-15666100D01*
X21634048Y-15618481D01*
X21634048Y-15580386D01*
X21624524Y-15532767D01*
X21615000Y-15504195D01*
X21605476Y-15485148D01*
X21586429Y-15456576D01*
X21576905Y-15447052D01*
M02*
