%TF.GenerationSoftware,KiCad,Pcbnew,(6.0.4)*%
%TF.CreationDate,2023-04-22T21:53:26+09:00*%
%TF.ProjectId,kaguya-elec,6b616775-7961-42d6-956c-65632e6b6963,rev?*%
%TF.SameCoordinates,Original*%
%TF.FileFunction,Legend,Top*%
%TF.FilePolarity,Positive*%
%FSLAX46Y46*%
G04 Gerber Fmt 4.6, Leading zero omitted, Abs format (unit mm)*
G04 Created by KiCad (PCBNEW (6.0.4)) date 2023-04-22 21:53:26*
%MOMM*%
%LPD*%
G01*
G04 APERTURE LIST*
%ADD10C,0.150000*%
%ADD11C,0.100000*%
%ADD12C,0.200000*%
%ADD13C,0.300000*%
%ADD14C,0.250000*%
%ADD15C,0.254000*%
%ADD16C,0.120000*%
%ADD17C,0.201421*%
%ADD18C,0.310000*%
%ADD19C,0.063060*%
%ADD20C,0.218114*%
%ADD21C,0.235000*%
G04 APERTURE END LIST*
D10*
X175600000Y-128850000D02*
X175600000Y-122750000D01*
X240950000Y-135420000D02*
X240950000Y-145360000D01*
X173950000Y-128900000D02*
X173950000Y-122800000D01*
X237940000Y-135370000D02*
X237940000Y-145310000D01*
X240957989Y-122492500D02*
X240947989Y-132322500D01*
X173950000Y-145050000D02*
X173950000Y-137300000D01*
D11*
X217110000Y-121528554D02*
X217090000Y-146450000D01*
D10*
X221640000Y-135280000D02*
X221640000Y-145220000D01*
X175600000Y-145100000D02*
X175600000Y-137350000D01*
X221622989Y-122932500D02*
X221632989Y-132512500D01*
D11*
X177100000Y-121569277D02*
X177100000Y-146490723D01*
D10*
X207865000Y-139825000D02*
X216335000Y-139825000D01*
X216335000Y-139825000D02*
X216335000Y-146370000D01*
X216335000Y-146370000D02*
X207865000Y-146370000D01*
X207865000Y-146370000D02*
X207865000Y-139825000D01*
G36*
X207865000Y-139825000D02*
G01*
X216335000Y-139825000D01*
X216335000Y-146370000D01*
X207865000Y-146370000D01*
X207865000Y-139825000D01*
G37*
X237957989Y-122672500D02*
X237967989Y-132252500D01*
D11*
X218620000Y-122860000D02*
X218620000Y-145080000D01*
D12*
X198025714Y-130109523D02*
X198063809Y-130157142D01*
X198101904Y-130300000D01*
X198101904Y-130395238D01*
X198063809Y-130538095D01*
X197987619Y-130633333D01*
X197911428Y-130680952D01*
X197759047Y-130728571D01*
X197644761Y-130728571D01*
X197492380Y-130680952D01*
X197416190Y-130633333D01*
X197340000Y-130538095D01*
X197301904Y-130395238D01*
X197301904Y-130300000D01*
X197340000Y-130157142D01*
X197378095Y-130109523D01*
X198101904Y-129252380D02*
X197682857Y-129252380D01*
X197606666Y-129300000D01*
X197568571Y-129395238D01*
X197568571Y-129585714D01*
X197606666Y-129680952D01*
X198063809Y-129252380D02*
X198101904Y-129347619D01*
X198101904Y-129585714D01*
X198063809Y-129680952D01*
X197987619Y-129728571D01*
X197911428Y-129728571D01*
X197835238Y-129680952D01*
X197797142Y-129585714D01*
X197797142Y-129347619D01*
X197759047Y-129252380D01*
X197568571Y-128776190D02*
X198101904Y-128776190D01*
X197644761Y-128776190D02*
X197606666Y-128728571D01*
X197568571Y-128633333D01*
X197568571Y-128490476D01*
X197606666Y-128395238D01*
X197682857Y-128347619D01*
X198101904Y-128347619D01*
X198063809Y-127919047D02*
X198101904Y-127776190D01*
X198101904Y-127538095D01*
X198063809Y-127442857D01*
X198025714Y-127395238D01*
X197949523Y-127347619D01*
X197873333Y-127347619D01*
X197797142Y-127395238D01*
X197759047Y-127442857D01*
X197720952Y-127538095D01*
X197682857Y-127728571D01*
X197644761Y-127823809D01*
X197606666Y-127871428D01*
X197530476Y-127919047D01*
X197454285Y-127919047D01*
X197378095Y-127871428D01*
X197340000Y-127823809D01*
X197301904Y-127728571D01*
X197301904Y-127490476D01*
X197340000Y-127347619D01*
X198101904Y-126490476D02*
X197682857Y-126490476D01*
X197606666Y-126538095D01*
X197568571Y-126633333D01*
X197568571Y-126823809D01*
X197606666Y-126919047D01*
X198063809Y-126490476D02*
X198101904Y-126585714D01*
X198101904Y-126823809D01*
X198063809Y-126919047D01*
X197987619Y-126966666D01*
X197911428Y-126966666D01*
X197835238Y-126919047D01*
X197797142Y-126823809D01*
X197797142Y-126585714D01*
X197759047Y-126490476D01*
X197568571Y-126157142D02*
X197568571Y-125776190D01*
X197301904Y-126014285D02*
X197987619Y-126014285D01*
X198063809Y-125966666D01*
X198101904Y-125871428D01*
X198101904Y-125776190D01*
D13*
X187671428Y-112833571D02*
X188242857Y-112833571D01*
X187885714Y-112333571D02*
X187885714Y-113619285D01*
X187957142Y-113762142D01*
X188100000Y-113833571D01*
X188242857Y-113833571D01*
X188742857Y-113047857D02*
X189885714Y-113047857D01*
X189885714Y-113476428D02*
X188742857Y-113476428D01*
X191385714Y-113833571D02*
X190528571Y-113833571D01*
X190957142Y-113833571D02*
X190957142Y-112333571D01*
X190814285Y-112547857D01*
X190671428Y-112690714D01*
X190528571Y-112762142D01*
X192028571Y-113833571D02*
X192028571Y-112833571D01*
X192028571Y-112976428D02*
X192100000Y-112905000D01*
X192242857Y-112833571D01*
X192457142Y-112833571D01*
X192600000Y-112905000D01*
X192671428Y-113047857D01*
X192671428Y-113833571D01*
X192671428Y-113047857D02*
X192742857Y-112905000D01*
X192885714Y-112833571D01*
X193100000Y-112833571D01*
X193242857Y-112905000D01*
X193314285Y-113047857D01*
X193314285Y-113833571D01*
X194028571Y-113833571D02*
X194028571Y-112833571D01*
X194028571Y-112976428D02*
X194100000Y-112905000D01*
X194242857Y-112833571D01*
X194457142Y-112833571D01*
X194600000Y-112905000D01*
X194671428Y-113047857D01*
X194671428Y-113833571D01*
X194671428Y-113047857D02*
X194742857Y-112905000D01*
X194885714Y-112833571D01*
X195100000Y-112833571D01*
X195242857Y-112905000D01*
X195314285Y-113047857D01*
X195314285Y-113833571D01*
D14*
X202466666Y-144547380D02*
X202466666Y-143547380D01*
X202800000Y-144261666D01*
X203133333Y-143547380D01*
X203133333Y-144547380D01*
X203752380Y-144547380D02*
X203657142Y-144499761D01*
X203609523Y-144452142D01*
X203561904Y-144356904D01*
X203561904Y-144071190D01*
X203609523Y-143975952D01*
X203657142Y-143928333D01*
X203752380Y-143880714D01*
X203895238Y-143880714D01*
X203990476Y-143928333D01*
X204038095Y-143975952D01*
X204085714Y-144071190D01*
X204085714Y-144356904D01*
X204038095Y-144452142D01*
X203990476Y-144499761D01*
X203895238Y-144547380D01*
X203752380Y-144547380D01*
X204371428Y-143880714D02*
X204752380Y-143880714D01*
X204514285Y-143547380D02*
X204514285Y-144404523D01*
X204561904Y-144499761D01*
X204657142Y-144547380D01*
X204752380Y-144547380D01*
X205228571Y-144547380D02*
X205133333Y-144499761D01*
X205085714Y-144452142D01*
X205038095Y-144356904D01*
X205038095Y-144071190D01*
X205085714Y-143975952D01*
X205133333Y-143928333D01*
X205228571Y-143880714D01*
X205371428Y-143880714D01*
X205466666Y-143928333D01*
X205514285Y-143975952D01*
X205561904Y-144071190D01*
X205561904Y-144356904D01*
X205514285Y-144452142D01*
X205466666Y-144499761D01*
X205371428Y-144547380D01*
X205228571Y-144547380D01*
X205990476Y-144547380D02*
X205990476Y-143880714D01*
X205990476Y-144071190D02*
X206038095Y-143975952D01*
X206085714Y-143928333D01*
X206180952Y-143880714D01*
X206276190Y-143880714D01*
X204609523Y-146157380D02*
X204276190Y-145681190D01*
X204038095Y-146157380D02*
X204038095Y-145157380D01*
X204419047Y-145157380D01*
X204514285Y-145205000D01*
X204561904Y-145252619D01*
X204609523Y-145347857D01*
X204609523Y-145490714D01*
X204561904Y-145585952D01*
X204514285Y-145633571D01*
X204419047Y-145681190D01*
X204038095Y-145681190D01*
D13*
X222773703Y-131033928D02*
X223273703Y-131748214D01*
X223630846Y-131033928D02*
X223630846Y-132533928D01*
X223059417Y-132533928D01*
X222916560Y-132462500D01*
X222845131Y-132391071D01*
X222773703Y-132248214D01*
X222773703Y-132033928D01*
X222845131Y-131891071D01*
X222916560Y-131819642D01*
X223059417Y-131748214D01*
X223630846Y-131748214D01*
D10*
X210011904Y-123533333D02*
X210011904Y-123076190D01*
X210811904Y-123304761D02*
X210011904Y-123304761D01*
X210811904Y-122695238D02*
X210773809Y-122771428D01*
X210735714Y-122809523D01*
X210659523Y-122847619D01*
X210430952Y-122847619D01*
X210354761Y-122809523D01*
X210316666Y-122771428D01*
X210278571Y-122695238D01*
X210278571Y-122580952D01*
X210316666Y-122504761D01*
X210354761Y-122466666D01*
X210430952Y-122428571D01*
X210659523Y-122428571D01*
X210735714Y-122466666D01*
X210773809Y-122504761D01*
X210811904Y-122580952D01*
X210811904Y-122695238D01*
X210392857Y-121819047D02*
X210392857Y-122085714D01*
X210811904Y-122085714D02*
X210011904Y-122085714D01*
X210011904Y-121704761D01*
D13*
X241333186Y-128080554D02*
X242047472Y-127580554D01*
X241333186Y-127223411D02*
X242833186Y-127223411D01*
X242833186Y-127794840D01*
X242761758Y-127937697D01*
X242690329Y-128009126D01*
X242547472Y-128080554D01*
X242333186Y-128080554D01*
X242190329Y-128009126D01*
X242118900Y-127937697D01*
X242047472Y-127794840D01*
X242047472Y-127223411D01*
X223754285Y-136828571D02*
X223040000Y-136828571D01*
X223040000Y-135328571D01*
D14*
X197416666Y-144497380D02*
X197416666Y-143497380D01*
X197750000Y-144211666D01*
X198083333Y-143497380D01*
X198083333Y-144497380D01*
X198702380Y-144497380D02*
X198607142Y-144449761D01*
X198559523Y-144402142D01*
X198511904Y-144306904D01*
X198511904Y-144021190D01*
X198559523Y-143925952D01*
X198607142Y-143878333D01*
X198702380Y-143830714D01*
X198845238Y-143830714D01*
X198940476Y-143878333D01*
X198988095Y-143925952D01*
X199035714Y-144021190D01*
X199035714Y-144306904D01*
X198988095Y-144402142D01*
X198940476Y-144449761D01*
X198845238Y-144497380D01*
X198702380Y-144497380D01*
X199321428Y-143830714D02*
X199702380Y-143830714D01*
X199464285Y-143497380D02*
X199464285Y-144354523D01*
X199511904Y-144449761D01*
X199607142Y-144497380D01*
X199702380Y-144497380D01*
X200178571Y-144497380D02*
X200083333Y-144449761D01*
X200035714Y-144402142D01*
X199988095Y-144306904D01*
X199988095Y-144021190D01*
X200035714Y-143925952D01*
X200083333Y-143878333D01*
X200178571Y-143830714D01*
X200321428Y-143830714D01*
X200416666Y-143878333D01*
X200464285Y-143925952D01*
X200511904Y-144021190D01*
X200511904Y-144306904D01*
X200464285Y-144402142D01*
X200416666Y-144449761D01*
X200321428Y-144497380D01*
X200178571Y-144497380D01*
X200940476Y-144497380D02*
X200940476Y-143830714D01*
X200940476Y-144021190D02*
X200988095Y-143925952D01*
X201035714Y-143878333D01*
X201130952Y-143830714D01*
X201226190Y-143830714D01*
X199559523Y-146107380D02*
X199083333Y-146107380D01*
X199083333Y-145107380D01*
D13*
X187764285Y-116776071D02*
X187764285Y-115276071D01*
X188478571Y-115776071D02*
X188478571Y-116776071D01*
X188478571Y-115918928D02*
X188550000Y-115847500D01*
X188692857Y-115776071D01*
X188907142Y-115776071D01*
X189050000Y-115847500D01*
X189121428Y-115990357D01*
X189121428Y-116776071D01*
X190621428Y-116776071D02*
X189764285Y-116776071D01*
X190192857Y-116776071D02*
X190192857Y-115276071D01*
X190050000Y-115490357D01*
X189907142Y-115633214D01*
X189764285Y-115704642D01*
X191264285Y-116633214D02*
X191335714Y-116704642D01*
X191264285Y-116776071D01*
X191192857Y-116704642D01*
X191264285Y-116633214D01*
X191264285Y-116776071D01*
X192835714Y-116633214D02*
X192764285Y-116704642D01*
X192550000Y-116776071D01*
X192407142Y-116776071D01*
X192192857Y-116704642D01*
X192050000Y-116561785D01*
X191978571Y-116418928D01*
X191907142Y-116133214D01*
X191907142Y-115918928D01*
X191978571Y-115633214D01*
X192050000Y-115490357D01*
X192192857Y-115347500D01*
X192407142Y-115276071D01*
X192550000Y-115276071D01*
X192764285Y-115347500D01*
X192835714Y-115418928D01*
X194121428Y-115776071D02*
X194121428Y-116776071D01*
X193478571Y-115776071D02*
X193478571Y-116561785D01*
X193550000Y-116704642D01*
X193692857Y-116776071D01*
X193907142Y-116776071D01*
X194050000Y-116704642D01*
X194121428Y-116633214D01*
X195978571Y-115990357D02*
X197121428Y-115990357D01*
X197121428Y-116418928D02*
X195978571Y-116418928D01*
X199764285Y-115347500D02*
X199621428Y-115276071D01*
X199407142Y-115276071D01*
X199192857Y-115347500D01*
X199050000Y-115490357D01*
X198978571Y-115633214D01*
X198907142Y-115918928D01*
X198907142Y-116133214D01*
X198978571Y-116418928D01*
X199050000Y-116561785D01*
X199192857Y-116704642D01*
X199407142Y-116776071D01*
X199550000Y-116776071D01*
X199764285Y-116704642D01*
X199835714Y-116633214D01*
X199835714Y-116133214D01*
X199550000Y-116133214D01*
X200478571Y-116776071D02*
X200478571Y-115276071D01*
X201335714Y-116776071D01*
X201335714Y-115276071D01*
X202050000Y-116776071D02*
X202050000Y-115276071D01*
X202407142Y-115276071D01*
X202621428Y-115347500D01*
X202764285Y-115490357D01*
X202835714Y-115633214D01*
X202907142Y-115918928D01*
X202907142Y-116133214D01*
X202835714Y-116418928D01*
X202764285Y-116561785D01*
X202621428Y-116704642D01*
X202407142Y-116776071D01*
X202050000Y-116776071D01*
X187978571Y-119191071D02*
X187978571Y-117691071D01*
X188692857Y-118191071D02*
X188692857Y-119191071D01*
X188692857Y-118333928D02*
X188764285Y-118262500D01*
X188907142Y-118191071D01*
X189121428Y-118191071D01*
X189264285Y-118262500D01*
X189335714Y-118405357D01*
X189335714Y-119191071D01*
X189978571Y-117833928D02*
X190050000Y-117762500D01*
X190192857Y-117691071D01*
X190550000Y-117691071D01*
X190692857Y-117762500D01*
X190764285Y-117833928D01*
X190835714Y-117976785D01*
X190835714Y-118119642D01*
X190764285Y-118333928D01*
X189907142Y-119191071D01*
X190835714Y-119191071D01*
X191478571Y-119048214D02*
X191550000Y-119119642D01*
X191478571Y-119191071D01*
X191407142Y-119119642D01*
X191478571Y-119048214D01*
X191478571Y-119191071D01*
X193050000Y-119048214D02*
X192978571Y-119119642D01*
X192764285Y-119191071D01*
X192621428Y-119191071D01*
X192407142Y-119119642D01*
X192264285Y-118976785D01*
X192192857Y-118833928D01*
X192121428Y-118548214D01*
X192121428Y-118333928D01*
X192192857Y-118048214D01*
X192264285Y-117905357D01*
X192407142Y-117762500D01*
X192621428Y-117691071D01*
X192764285Y-117691071D01*
X192978571Y-117762500D01*
X193050000Y-117833928D01*
X194335714Y-118191071D02*
X194335714Y-119191071D01*
X193692857Y-118191071D02*
X193692857Y-118976785D01*
X193764285Y-119119642D01*
X193907142Y-119191071D01*
X194121428Y-119191071D01*
X194264285Y-119119642D01*
X194335714Y-119048214D01*
X196192857Y-118405357D02*
X197335714Y-118405357D01*
X197335714Y-118833928D02*
X196192857Y-118833928D01*
X199050000Y-117691071D02*
X199978571Y-117691071D01*
X199478571Y-118262500D01*
X199692857Y-118262500D01*
X199835714Y-118333928D01*
X199907142Y-118405357D01*
X199978571Y-118548214D01*
X199978571Y-118905357D01*
X199907142Y-119048214D01*
X199835714Y-119119642D01*
X199692857Y-119191071D01*
X199264285Y-119191071D01*
X199121428Y-119119642D01*
X199050000Y-119048214D01*
X200407142Y-117691071D02*
X200907142Y-119191071D01*
X201407142Y-117691071D01*
X201764285Y-117691071D02*
X202692857Y-117691071D01*
X202192857Y-118262500D01*
X202407142Y-118262500D01*
X202550000Y-118333928D01*
X202621428Y-118405357D01*
X202692857Y-118548214D01*
X202692857Y-118905357D01*
X202621428Y-119048214D01*
X202550000Y-119119642D01*
X202407142Y-119191071D01*
X201978571Y-119191071D01*
X201835714Y-119119642D01*
X201764285Y-119048214D01*
D10*
X199150000Y-124571428D02*
X199111904Y-124647619D01*
X199111904Y-124761904D01*
X199150000Y-124876190D01*
X199226190Y-124952380D01*
X199302380Y-124990476D01*
X199454761Y-125028571D01*
X199569047Y-125028571D01*
X199721428Y-124990476D01*
X199797619Y-124952380D01*
X199873809Y-124876190D01*
X199911904Y-124761904D01*
X199911904Y-124685714D01*
X199873809Y-124571428D01*
X199835714Y-124533333D01*
X199569047Y-124533333D01*
X199569047Y-124685714D01*
X199911904Y-124190476D02*
X199111904Y-124190476D01*
X199911904Y-123733333D01*
X199111904Y-123733333D01*
X199873809Y-123390476D02*
X199911904Y-123276190D01*
X199911904Y-123085714D01*
X199873809Y-123009523D01*
X199835714Y-122971428D01*
X199759523Y-122933333D01*
X199683333Y-122933333D01*
X199607142Y-122971428D01*
X199569047Y-123009523D01*
X199530952Y-123085714D01*
X199492857Y-123238095D01*
X199454761Y-123314285D01*
X199416666Y-123352380D01*
X199340476Y-123390476D01*
X199264285Y-123390476D01*
X199188095Y-123352380D01*
X199150000Y-123314285D01*
X199111904Y-123238095D01*
X199111904Y-123047619D01*
X199150000Y-122933333D01*
X199873809Y-122628571D02*
X199911904Y-122514285D01*
X199911904Y-122323809D01*
X199873809Y-122247619D01*
X199835714Y-122209523D01*
X199759523Y-122171428D01*
X199683333Y-122171428D01*
X199607142Y-122209523D01*
X199569047Y-122247619D01*
X199530952Y-122323809D01*
X199492857Y-122476190D01*
X199454761Y-122552380D01*
X199416666Y-122590476D01*
X199340476Y-122628571D01*
X199264285Y-122628571D01*
X199188095Y-122590476D01*
X199150000Y-122552380D01*
X199111904Y-122476190D01*
X199111904Y-122285714D01*
X199150000Y-122171428D01*
D13*
X241367048Y-140932879D02*
X241367048Y-140218594D01*
X242867048Y-140218594D01*
D10*
X196976190Y-139485714D02*
X196938095Y-139523809D01*
X196823809Y-139561904D01*
X196747619Y-139561904D01*
X196633333Y-139523809D01*
X196557142Y-139447619D01*
X196519047Y-139371428D01*
X196480952Y-139219047D01*
X196480952Y-139104761D01*
X196519047Y-138952380D01*
X196557142Y-138876190D01*
X196633333Y-138800000D01*
X196747619Y-138761904D01*
X196823809Y-138761904D01*
X196938095Y-138800000D01*
X196976190Y-138838095D01*
X197700000Y-139561904D02*
X197319047Y-139561904D01*
X197319047Y-138761904D01*
X197966666Y-139561904D02*
X197966666Y-138761904D01*
X198423809Y-139561904D02*
X198080952Y-139104761D01*
X198423809Y-138761904D02*
X197966666Y-139219047D01*
X199338095Y-138723809D02*
X198652380Y-139752380D01*
X200023809Y-138800000D02*
X199947619Y-138761904D01*
X199833333Y-138761904D01*
X199719047Y-138800000D01*
X199642857Y-138876190D01*
X199604761Y-138952380D01*
X199566666Y-139104761D01*
X199566666Y-139219047D01*
X199604761Y-139371428D01*
X199642857Y-139447619D01*
X199719047Y-139523809D01*
X199833333Y-139561904D01*
X199909523Y-139561904D01*
X200023809Y-139523809D01*
X200061904Y-139485714D01*
X200061904Y-139219047D01*
X199909523Y-139219047D01*
X200976190Y-138723809D02*
X200290476Y-139752380D01*
X201242857Y-139561904D02*
X201242857Y-138761904D01*
X201776190Y-138761904D02*
X201928571Y-138761904D01*
X202004761Y-138800000D01*
X202080952Y-138876190D01*
X202119047Y-139028571D01*
X202119047Y-139295238D01*
X202080952Y-139447619D01*
X202004761Y-139523809D01*
X201928571Y-139561904D01*
X201776190Y-139561904D01*
X201700000Y-139523809D01*
X201623809Y-139447619D01*
X201585714Y-139295238D01*
X201585714Y-139028571D01*
X201623809Y-138876190D01*
X201700000Y-138800000D01*
X201776190Y-138761904D01*
D12*
X196197619Y-132031904D02*
X196197619Y-131231904D01*
X196769047Y-132031904D02*
X196340476Y-131574761D01*
X196769047Y-131231904D02*
X196197619Y-131689047D01*
X197626190Y-132031904D02*
X197626190Y-131612857D01*
X197578571Y-131536666D01*
X197483333Y-131498571D01*
X197292857Y-131498571D01*
X197197619Y-131536666D01*
X197626190Y-131993809D02*
X197530952Y-132031904D01*
X197292857Y-132031904D01*
X197197619Y-131993809D01*
X197150000Y-131917619D01*
X197150000Y-131841428D01*
X197197619Y-131765238D01*
X197292857Y-131727142D01*
X197530952Y-131727142D01*
X197626190Y-131689047D01*
X198530952Y-131498571D02*
X198530952Y-132146190D01*
X198483333Y-132222380D01*
X198435714Y-132260476D01*
X198340476Y-132298571D01*
X198197619Y-132298571D01*
X198102380Y-132260476D01*
X198530952Y-131993809D02*
X198435714Y-132031904D01*
X198245238Y-132031904D01*
X198150000Y-131993809D01*
X198102380Y-131955714D01*
X198054761Y-131879523D01*
X198054761Y-131650952D01*
X198102380Y-131574761D01*
X198150000Y-131536666D01*
X198245238Y-131498571D01*
X198435714Y-131498571D01*
X198530952Y-131536666D01*
X199435714Y-131498571D02*
X199435714Y-132031904D01*
X199007142Y-131498571D02*
X199007142Y-131917619D01*
X199054761Y-131993809D01*
X199150000Y-132031904D01*
X199292857Y-132031904D01*
X199388095Y-131993809D01*
X199435714Y-131955714D01*
X199816666Y-131498571D02*
X200054761Y-132031904D01*
X200292857Y-131498571D02*
X200054761Y-132031904D01*
X199959523Y-132222380D01*
X199911904Y-132260476D01*
X199816666Y-132298571D01*
X201102380Y-132031904D02*
X201102380Y-131612857D01*
X201054761Y-131536666D01*
X200959523Y-131498571D01*
X200769047Y-131498571D01*
X200673809Y-131536666D01*
X201102380Y-131993809D02*
X201007142Y-132031904D01*
X200769047Y-132031904D01*
X200673809Y-131993809D01*
X200626190Y-131917619D01*
X200626190Y-131841428D01*
X200673809Y-131765238D01*
X200769047Y-131727142D01*
X201007142Y-131727142D01*
X201102380Y-131689047D01*
X196951904Y-130714285D02*
X196151904Y-130714285D01*
X196151904Y-130476190D01*
X196190000Y-130333333D01*
X196266190Y-130238095D01*
X196342380Y-130190476D01*
X196494761Y-130142857D01*
X196609047Y-130142857D01*
X196761428Y-130190476D01*
X196837619Y-130238095D01*
X196913809Y-130333333D01*
X196951904Y-130476190D01*
X196951904Y-130714285D01*
X196532857Y-129714285D02*
X196532857Y-129380952D01*
X196951904Y-129238095D02*
X196951904Y-129714285D01*
X196151904Y-129714285D01*
X196151904Y-129238095D01*
X196951904Y-128238095D02*
X196570952Y-128571428D01*
X196951904Y-128809523D02*
X196151904Y-128809523D01*
X196151904Y-128428571D01*
X196190000Y-128333333D01*
X196228095Y-128285714D01*
X196304285Y-128238095D01*
X196418571Y-128238095D01*
X196494761Y-128285714D01*
X196532857Y-128333333D01*
X196570952Y-128428571D01*
X196570952Y-128809523D01*
X196875714Y-127238095D02*
X196913809Y-127285714D01*
X196951904Y-127428571D01*
X196951904Y-127523809D01*
X196913809Y-127666666D01*
X196837619Y-127761904D01*
X196761428Y-127809523D01*
X196609047Y-127857142D01*
X196494761Y-127857142D01*
X196342380Y-127809523D01*
X196266190Y-127761904D01*
X196190000Y-127666666D01*
X196151904Y-127523809D01*
X196151904Y-127428571D01*
X196190000Y-127285714D01*
X196228095Y-127238095D01*
D10*
X162638095Y-137545238D02*
X162600000Y-137507142D01*
X162561904Y-137430952D01*
X162561904Y-137240476D01*
X162600000Y-137164285D01*
X162638095Y-137126190D01*
X162714285Y-137088095D01*
X162790476Y-137088095D01*
X162904761Y-137126190D01*
X163361904Y-137583333D01*
X163361904Y-137088095D01*
X162561904Y-136364285D02*
X162561904Y-136745238D01*
X162942857Y-136783333D01*
X162904761Y-136745238D01*
X162866666Y-136669047D01*
X162866666Y-136478571D01*
X162904761Y-136402380D01*
X162942857Y-136364285D01*
X163019047Y-136326190D01*
X163209523Y-136326190D01*
X163285714Y-136364285D01*
X163323809Y-136402380D01*
X163361904Y-136478571D01*
X163361904Y-136669047D01*
X163323809Y-136745238D01*
X163285714Y-136783333D01*
X163285714Y-135983333D02*
X163323809Y-135945238D01*
X163361904Y-135983333D01*
X163323809Y-136021428D01*
X163285714Y-135983333D01*
X163361904Y-135983333D01*
X162561904Y-135450000D02*
X162561904Y-135373809D01*
X162600000Y-135297619D01*
X162638095Y-135259523D01*
X162714285Y-135221428D01*
X162866666Y-135183333D01*
X163057142Y-135183333D01*
X163209523Y-135221428D01*
X163285714Y-135259523D01*
X163323809Y-135297619D01*
X163361904Y-135373809D01*
X163361904Y-135450000D01*
X163323809Y-135526190D01*
X163285714Y-135564285D01*
X163209523Y-135602380D01*
X163057142Y-135640476D01*
X162866666Y-135640476D01*
X162714285Y-135602380D01*
X162638095Y-135564285D01*
X162600000Y-135526190D01*
X162561904Y-135450000D01*
X162561904Y-134688095D02*
X162561904Y-134611904D01*
X162600000Y-134535714D01*
X162638095Y-134497619D01*
X162714285Y-134459523D01*
X162866666Y-134421428D01*
X163057142Y-134421428D01*
X163209523Y-134459523D01*
X163285714Y-134497619D01*
X163323809Y-134535714D01*
X163361904Y-134611904D01*
X163361904Y-134688095D01*
X163323809Y-134764285D01*
X163285714Y-134802380D01*
X163209523Y-134840476D01*
X163057142Y-134878571D01*
X162866666Y-134878571D01*
X162714285Y-134840476D01*
X162638095Y-134802380D01*
X162600000Y-134764285D01*
X162561904Y-134688095D01*
X162561904Y-133926190D02*
X162561904Y-133850000D01*
X162600000Y-133773809D01*
X162638095Y-133735714D01*
X162714285Y-133697619D01*
X162866666Y-133659523D01*
X163057142Y-133659523D01*
X163209523Y-133697619D01*
X163285714Y-133735714D01*
X163323809Y-133773809D01*
X163361904Y-133850000D01*
X163361904Y-133926190D01*
X163323809Y-134002380D01*
X163285714Y-134040476D01*
X163209523Y-134078571D01*
X163057142Y-134116666D01*
X162866666Y-134116666D01*
X162714285Y-134078571D01*
X162638095Y-134040476D01*
X162600000Y-134002380D01*
X162561904Y-133926190D01*
X162561904Y-133164285D02*
X162561904Y-133088095D01*
X162600000Y-133011904D01*
X162638095Y-132973809D01*
X162714285Y-132935714D01*
X162866666Y-132897619D01*
X163057142Y-132897619D01*
X163209523Y-132935714D01*
X163285714Y-132973809D01*
X163323809Y-133011904D01*
X163361904Y-133088095D01*
X163361904Y-133164285D01*
X163323809Y-133240476D01*
X163285714Y-133278571D01*
X163209523Y-133316666D01*
X163057142Y-133354761D01*
X162866666Y-133354761D01*
X162714285Y-133316666D01*
X162638095Y-133278571D01*
X162600000Y-133240476D01*
X162561904Y-133164285D01*
X163361904Y-131945238D02*
X162828571Y-131945238D01*
X162904761Y-131945238D02*
X162866666Y-131907142D01*
X162828571Y-131830952D01*
X162828571Y-131716666D01*
X162866666Y-131640476D01*
X162942857Y-131602380D01*
X163361904Y-131602380D01*
X162942857Y-131602380D02*
X162866666Y-131564285D01*
X162828571Y-131488095D01*
X162828571Y-131373809D01*
X162866666Y-131297619D01*
X162942857Y-131259523D01*
X163361904Y-131259523D01*
X163361904Y-130878571D02*
X162828571Y-130878571D01*
X162904761Y-130878571D02*
X162866666Y-130840476D01*
X162828571Y-130764285D01*
X162828571Y-130650000D01*
X162866666Y-130573809D01*
X162942857Y-130535714D01*
X163361904Y-130535714D01*
X162942857Y-130535714D02*
X162866666Y-130497619D01*
X162828571Y-130421428D01*
X162828571Y-130307142D01*
X162866666Y-130230952D01*
X162942857Y-130192857D01*
X163361904Y-130192857D01*
X164650000Y-146350000D02*
X163363580Y-146350000D01*
X164650000Y-121350000D02*
X163363580Y-121350000D01*
X163950000Y-146350000D02*
X163950000Y-121350000D01*
X163950000Y-146350000D02*
X163950000Y-121350000D01*
X163950000Y-146350000D02*
X164536421Y-145223496D01*
X163950000Y-146350000D02*
X163363579Y-145223496D01*
X163950000Y-121350000D02*
X163363579Y-122476504D01*
X163950000Y-121350000D02*
X164536421Y-122476504D01*
%TO.C,Y1*%
X199810952Y-133840952D02*
X200191904Y-133840952D01*
X199391904Y-134107619D02*
X199810952Y-133840952D01*
X199391904Y-133574285D01*
X200191904Y-132888571D02*
X200191904Y-133345714D01*
X200191904Y-133117142D02*
X199391904Y-133117142D01*
X199506190Y-133193333D01*
X199582380Y-133269523D01*
X199620476Y-133345714D01*
%TO.C,R15*%
X206756666Y-126228095D02*
X206794761Y-126190000D01*
X206870952Y-126151904D01*
X207061428Y-126151904D01*
X207137619Y-126190000D01*
X207175714Y-126228095D01*
X207213809Y-126304285D01*
X207213809Y-126380476D01*
X207175714Y-126494761D01*
X206718571Y-126951904D01*
X207213809Y-126951904D01*
X207556666Y-126951904D02*
X207556666Y-126151904D01*
X207632857Y-126647142D02*
X207861428Y-126951904D01*
X207861428Y-126418571D02*
X207556666Y-126723333D01*
X208166190Y-126228095D02*
X208204285Y-126190000D01*
X208280476Y-126151904D01*
X208470952Y-126151904D01*
X208547142Y-126190000D01*
X208585238Y-126228095D01*
X208623333Y-126304285D01*
X208623333Y-126380476D01*
X208585238Y-126494761D01*
X208128095Y-126951904D01*
X208623333Y-126951904D01*
%TO.C,Y2*%
X190619047Y-122735952D02*
X190619047Y-123116904D01*
X190352380Y-122316904D02*
X190619047Y-122735952D01*
X190885714Y-122316904D01*
X191114285Y-122393095D02*
X191152380Y-122355000D01*
X191228571Y-122316904D01*
X191419047Y-122316904D01*
X191495238Y-122355000D01*
X191533333Y-122393095D01*
X191571428Y-122469285D01*
X191571428Y-122545476D01*
X191533333Y-122659761D01*
X191076190Y-123116904D01*
X191571428Y-123116904D01*
%TO.C,C34*%
X221951084Y-123733448D02*
X221912989Y-123695353D01*
X221874893Y-123619162D01*
X221874893Y-123428686D01*
X221912989Y-123352496D01*
X221951084Y-123314400D01*
X222027274Y-123276305D01*
X222103465Y-123276305D01*
X222217750Y-123314400D01*
X222674893Y-123771543D01*
X222674893Y-123276305D01*
X221951084Y-122971543D02*
X221912989Y-122933448D01*
X221874893Y-122857258D01*
X221874893Y-122666781D01*
X221912989Y-122590591D01*
X221951084Y-122552496D01*
X222027274Y-122514400D01*
X222103465Y-122514400D01*
X222217750Y-122552496D01*
X222674893Y-123009639D01*
X222674893Y-122514400D01*
X222141560Y-121828686D02*
X222674893Y-121828686D01*
X222141560Y-122171543D02*
X222560608Y-122171543D01*
X222636798Y-122133448D01*
X222674893Y-122057258D01*
X222674893Y-121942972D01*
X222636798Y-121866781D01*
X222598703Y-121828686D01*
%TO.C,J3*%
X185820833Y-143302619D02*
X185820833Y-142588333D01*
X185868452Y-142445476D01*
X185963690Y-142350238D01*
X186106547Y-142302619D01*
X186201785Y-142302619D01*
X185439880Y-143302619D02*
X184820833Y-143302619D01*
X185154166Y-142921666D01*
X185011309Y-142921666D01*
X184916071Y-142874047D01*
X184868452Y-142826428D01*
X184820833Y-142731190D01*
X184820833Y-142493095D01*
X184868452Y-142397857D01*
X184916071Y-142350238D01*
X185011309Y-142302619D01*
X185297023Y-142302619D01*
X185392261Y-142350238D01*
X185439880Y-142397857D01*
%TO.C,R14*%
X186593809Y-125531904D02*
X186136666Y-125531904D01*
X186365238Y-125531904D02*
X186365238Y-124731904D01*
X186289047Y-124846190D01*
X186212857Y-124922380D01*
X186136666Y-124960476D01*
X187089047Y-124731904D02*
X187165238Y-124731904D01*
X187241428Y-124770000D01*
X187279523Y-124808095D01*
X187317619Y-124884285D01*
X187355714Y-125036666D01*
X187355714Y-125227142D01*
X187317619Y-125379523D01*
X187279523Y-125455714D01*
X187241428Y-125493809D01*
X187165238Y-125531904D01*
X187089047Y-125531904D01*
X187012857Y-125493809D01*
X186974761Y-125455714D01*
X186936666Y-125379523D01*
X186898571Y-125227142D01*
X186898571Y-125036666D01*
X186936666Y-124884285D01*
X186974761Y-124808095D01*
X187012857Y-124770000D01*
X187089047Y-124731904D01*
X187698571Y-125531904D02*
X187698571Y-124731904D01*
X187774761Y-125227142D02*
X188003333Y-125531904D01*
X188003333Y-124998571D02*
X187698571Y-125303333D01*
%TO.C,R26*%
X227363809Y-142061904D02*
X226906666Y-142061904D01*
X227135238Y-142061904D02*
X227135238Y-141261904D01*
X227059047Y-141376190D01*
X226982857Y-141452380D01*
X226906666Y-141490476D01*
X227859047Y-141261904D02*
X227935238Y-141261904D01*
X228011428Y-141300000D01*
X228049523Y-141338095D01*
X228087619Y-141414285D01*
X228125714Y-141566666D01*
X228125714Y-141757142D01*
X228087619Y-141909523D01*
X228049523Y-141985714D01*
X228011428Y-142023809D01*
X227935238Y-142061904D01*
X227859047Y-142061904D01*
X227782857Y-142023809D01*
X227744761Y-141985714D01*
X227706666Y-141909523D01*
X227668571Y-141757142D01*
X227668571Y-141566666D01*
X227706666Y-141414285D01*
X227744761Y-141338095D01*
X227782857Y-141300000D01*
X227859047Y-141261904D01*
X228468571Y-142061904D02*
X228468571Y-141261904D01*
X228544761Y-141757142D02*
X228773333Y-142061904D01*
X228773333Y-141528571D02*
X228468571Y-141833333D01*
D12*
%TO.C,Q2*%
X182686309Y-138588095D02*
X182610119Y-138550000D01*
X182533928Y-138473809D01*
X182419642Y-138359523D01*
X182343452Y-138321428D01*
X182267261Y-138321428D01*
X182305357Y-138511904D02*
X182229166Y-138473809D01*
X182152976Y-138397619D01*
X182114880Y-138245238D01*
X182114880Y-137978571D01*
X182152976Y-137826190D01*
X182229166Y-137750000D01*
X182305357Y-137711904D01*
X182457738Y-137711904D01*
X182533928Y-137750000D01*
X182610119Y-137826190D01*
X182648214Y-137978571D01*
X182648214Y-138245238D01*
X182610119Y-138397619D01*
X182533928Y-138473809D01*
X182457738Y-138511904D01*
X182305357Y-138511904D01*
X182952976Y-137788095D02*
X182991071Y-137750000D01*
X183067261Y-137711904D01*
X183257738Y-137711904D01*
X183333928Y-137750000D01*
X183372023Y-137788095D01*
X183410119Y-137864285D01*
X183410119Y-137940476D01*
X183372023Y-138054761D01*
X182914880Y-138511904D01*
X183410119Y-138511904D01*
D10*
%TO.C,C13*%
X215467142Y-131655714D02*
X215505238Y-131693809D01*
X215467142Y-131731904D01*
X215429047Y-131693809D01*
X215467142Y-131655714D01*
X215467142Y-131731904D01*
X216267142Y-131731904D02*
X215810000Y-131731904D01*
X216038571Y-131731904D02*
X216038571Y-130931904D01*
X215962380Y-131046190D01*
X215886190Y-131122380D01*
X215810000Y-131160476D01*
X216952857Y-131198571D02*
X216952857Y-131731904D01*
X216610000Y-131198571D02*
X216610000Y-131617619D01*
X216648095Y-131693809D01*
X216724285Y-131731904D01*
X216838571Y-131731904D01*
X216914761Y-131693809D01*
X216952857Y-131655714D01*
%TO.C,C28*%
X248781334Y-143211451D02*
X248819429Y-143173355D01*
X248857524Y-143211451D01*
X248819429Y-143249546D01*
X248781334Y-143211451D01*
X248857524Y-143211451D01*
X248857524Y-142411451D02*
X248857524Y-142868594D01*
X248857524Y-142640022D02*
X248057524Y-142640022D01*
X248171810Y-142716213D01*
X248248000Y-142792403D01*
X248286096Y-142868594D01*
X248324191Y-141725736D02*
X248857524Y-141725736D01*
X248324191Y-142068594D02*
X248743239Y-142068594D01*
X248819429Y-142030498D01*
X248857524Y-141954308D01*
X248857524Y-141840022D01*
X248819429Y-141763832D01*
X248781334Y-141725736D01*
%TO.C,C11*%
X203514285Y-139857142D02*
X203476190Y-139895238D01*
X203438095Y-139857142D01*
X203476190Y-139819047D01*
X203514285Y-139857142D01*
X203438095Y-139857142D01*
X203438095Y-140657142D02*
X203438095Y-140200000D01*
X203438095Y-140428571D02*
X204238095Y-140428571D01*
X204123809Y-140352380D01*
X204047619Y-140276190D01*
X204009523Y-140200000D01*
X203971428Y-141342857D02*
X203438095Y-141342857D01*
X203971428Y-141000000D02*
X203552380Y-141000000D01*
X203476190Y-141038095D01*
X203438095Y-141114285D01*
X203438095Y-141228571D01*
X203476190Y-141304761D01*
X203514285Y-141342857D01*
%TO.C,C20*%
X248747472Y-126179126D02*
X248785567Y-126141030D01*
X248823662Y-126179126D01*
X248785567Y-126217221D01*
X248747472Y-126179126D01*
X248823662Y-126179126D01*
X248823662Y-125379126D02*
X248823662Y-125836269D01*
X248823662Y-125607697D02*
X248023662Y-125607697D01*
X248137948Y-125683888D01*
X248214138Y-125760078D01*
X248252234Y-125836269D01*
X248290329Y-124693411D02*
X248823662Y-124693411D01*
X248290329Y-125036269D02*
X248709377Y-125036269D01*
X248785567Y-124998173D01*
X248823662Y-124921983D01*
X248823662Y-124807697D01*
X248785567Y-124731507D01*
X248747472Y-124693411D01*
%TO.C,C14*%
X192657142Y-131290714D02*
X192695238Y-131328809D01*
X192657142Y-131366904D01*
X192619047Y-131328809D01*
X192657142Y-131290714D01*
X192657142Y-131366904D01*
X193457142Y-131366904D02*
X193000000Y-131366904D01*
X193228571Y-131366904D02*
X193228571Y-130566904D01*
X193152380Y-130681190D01*
X193076190Y-130757380D01*
X193000000Y-130795476D01*
X194142857Y-130833571D02*
X194142857Y-131366904D01*
X193800000Y-130833571D02*
X193800000Y-131252619D01*
X193838095Y-131328809D01*
X193914285Y-131366904D01*
X194028571Y-131366904D01*
X194104761Y-131328809D01*
X194142857Y-131290714D01*
%TO.C,R13*%
X180392857Y-140061904D02*
X179935714Y-140061904D01*
X180164285Y-140061904D02*
X180164285Y-139261904D01*
X180088095Y-139376190D01*
X180011904Y-139452380D01*
X179935714Y-139490476D01*
X180888095Y-139261904D02*
X180964285Y-139261904D01*
X181040476Y-139300000D01*
X181078571Y-139338095D01*
X181116666Y-139414285D01*
X181154761Y-139566666D01*
X181154761Y-139757142D01*
X181116666Y-139909523D01*
X181078571Y-139985714D01*
X181040476Y-140023809D01*
X180964285Y-140061904D01*
X180888095Y-140061904D01*
X180811904Y-140023809D01*
X180773809Y-139985714D01*
X180735714Y-139909523D01*
X180697619Y-139757142D01*
X180697619Y-139566666D01*
X180735714Y-139414285D01*
X180773809Y-139338095D01*
X180811904Y-139300000D01*
X180888095Y-139261904D01*
X181650000Y-139261904D02*
X181726190Y-139261904D01*
X181802380Y-139300000D01*
X181840476Y-139338095D01*
X181878571Y-139414285D01*
X181916666Y-139566666D01*
X181916666Y-139757142D01*
X181878571Y-139909523D01*
X181840476Y-139985714D01*
X181802380Y-140023809D01*
X181726190Y-140061904D01*
X181650000Y-140061904D01*
X181573809Y-140023809D01*
X181535714Y-139985714D01*
X181497619Y-139909523D01*
X181459523Y-139757142D01*
X181459523Y-139566666D01*
X181497619Y-139414285D01*
X181535714Y-139338095D01*
X181573809Y-139300000D01*
X181650000Y-139261904D01*
X182259523Y-140061904D02*
X182259523Y-139261904D01*
X182335714Y-139757142D02*
X182564285Y-140061904D01*
X182564285Y-139528571D02*
X182259523Y-139833333D01*
%TO.C,F1*%
X188745833Y-137542857D02*
X188479166Y-137542857D01*
X188479166Y-137961904D02*
X188479166Y-137161904D01*
X188860119Y-137161904D01*
X189583928Y-137961904D02*
X189126785Y-137961904D01*
X189355357Y-137961904D02*
X189355357Y-137161904D01*
X189279166Y-137276190D01*
X189202976Y-137352380D01*
X189126785Y-137390476D01*
D14*
%TO.C,S2*%
X185788095Y-145159761D02*
X185930952Y-145207380D01*
X186169047Y-145207380D01*
X186264285Y-145159761D01*
X186311904Y-145112142D01*
X186359523Y-145016904D01*
X186359523Y-144921666D01*
X186311904Y-144826428D01*
X186264285Y-144778809D01*
X186169047Y-144731190D01*
X185978571Y-144683571D01*
X185883333Y-144635952D01*
X185835714Y-144588333D01*
X185788095Y-144493095D01*
X185788095Y-144397857D01*
X185835714Y-144302619D01*
X185883333Y-144255000D01*
X185978571Y-144207380D01*
X186216666Y-144207380D01*
X186359523Y-144255000D01*
X186740476Y-144302619D02*
X186788095Y-144255000D01*
X186883333Y-144207380D01*
X187121428Y-144207380D01*
X187216666Y-144255000D01*
X187264285Y-144302619D01*
X187311904Y-144397857D01*
X187311904Y-144493095D01*
X187264285Y-144635952D01*
X186692857Y-145207380D01*
X187311904Y-145207380D01*
D10*
%TO.C,R28*%
X246485567Y-133078173D02*
X246028424Y-133078173D01*
X246256996Y-133078173D02*
X246256996Y-132278173D01*
X246180805Y-132392459D01*
X246104615Y-132468649D01*
X246028424Y-132506745D01*
X246980805Y-132278173D02*
X247056996Y-132278173D01*
X247133186Y-132316269D01*
X247171281Y-132354364D01*
X247209377Y-132430554D01*
X247247472Y-132582935D01*
X247247472Y-132773411D01*
X247209377Y-132925792D01*
X247171281Y-133001983D01*
X247133186Y-133040078D01*
X247056996Y-133078173D01*
X246980805Y-133078173D01*
X246904615Y-133040078D01*
X246866519Y-133001983D01*
X246828424Y-132925792D01*
X246790329Y-132773411D01*
X246790329Y-132582935D01*
X246828424Y-132430554D01*
X246866519Y-132354364D01*
X246904615Y-132316269D01*
X246980805Y-132278173D01*
X247590329Y-133078173D02*
X247590329Y-132278173D01*
X247666519Y-132773411D02*
X247895091Y-133078173D01*
X247895091Y-132544840D02*
X247590329Y-132849602D01*
%TO.C,R25*%
X246485567Y-122878173D02*
X246028424Y-122878173D01*
X246256996Y-122878173D02*
X246256996Y-122078173D01*
X246180805Y-122192459D01*
X246104615Y-122268649D01*
X246028424Y-122306745D01*
X246980805Y-122078173D02*
X247056996Y-122078173D01*
X247133186Y-122116269D01*
X247171281Y-122154364D01*
X247209377Y-122230554D01*
X247247472Y-122382935D01*
X247247472Y-122573411D01*
X247209377Y-122725792D01*
X247171281Y-122801983D01*
X247133186Y-122840078D01*
X247056996Y-122878173D01*
X246980805Y-122878173D01*
X246904615Y-122840078D01*
X246866519Y-122801983D01*
X246828424Y-122725792D01*
X246790329Y-122573411D01*
X246790329Y-122382935D01*
X246828424Y-122230554D01*
X246866519Y-122154364D01*
X246904615Y-122116269D01*
X246980805Y-122078173D01*
X247590329Y-122878173D02*
X247590329Y-122078173D01*
X247666519Y-122573411D02*
X247895091Y-122878173D01*
X247895091Y-122344840D02*
X247590329Y-122649602D01*
%TO.C,R24*%
X230096798Y-129123924D02*
X229639655Y-129123924D01*
X229868227Y-129123924D02*
X229868227Y-128323924D01*
X229792036Y-128438210D01*
X229715846Y-128514400D01*
X229639655Y-128552496D01*
X230592036Y-128323924D02*
X230668227Y-128323924D01*
X230744417Y-128362020D01*
X230782512Y-128400115D01*
X230820608Y-128476305D01*
X230858703Y-128628686D01*
X230858703Y-128819162D01*
X230820608Y-128971543D01*
X230782512Y-129047734D01*
X230744417Y-129085829D01*
X230668227Y-129123924D01*
X230592036Y-129123924D01*
X230515846Y-129085829D01*
X230477750Y-129047734D01*
X230439655Y-128971543D01*
X230401560Y-128819162D01*
X230401560Y-128628686D01*
X230439655Y-128476305D01*
X230477750Y-128400115D01*
X230515846Y-128362020D01*
X230592036Y-128323924D01*
X231201560Y-129123924D02*
X231201560Y-128323924D01*
X231277750Y-128819162D02*
X231506322Y-129123924D01*
X231506322Y-128590591D02*
X231201560Y-128895353D01*
%TO.C,C9*%
X204788095Y-140666666D02*
X204788095Y-140209523D01*
X204788095Y-140438095D02*
X205588095Y-140438095D01*
X205473809Y-140361904D01*
X205397619Y-140285714D01*
X205359523Y-140209523D01*
X205321428Y-141352380D02*
X204788095Y-141352380D01*
X205321428Y-141009523D02*
X204902380Y-141009523D01*
X204826190Y-141047619D01*
X204788095Y-141123809D01*
X204788095Y-141238095D01*
X204826190Y-141314285D01*
X204864285Y-141352380D01*
%TO.C,R9*%
X199604761Y-140666904D02*
X199147619Y-140666904D01*
X199376190Y-140666904D02*
X199376190Y-139866904D01*
X199300000Y-139981190D01*
X199223809Y-140057380D01*
X199147619Y-140095476D01*
X199947619Y-140666904D02*
X199947619Y-139866904D01*
X200023809Y-140362142D02*
X200252380Y-140666904D01*
X200252380Y-140133571D02*
X199947619Y-140438333D01*
%TO.C,C16*%
X188941071Y-141588095D02*
X188979166Y-141550000D01*
X189055357Y-141511904D01*
X189245833Y-141511904D01*
X189322023Y-141550000D01*
X189360119Y-141588095D01*
X189398214Y-141664285D01*
X189398214Y-141740476D01*
X189360119Y-141854761D01*
X188902976Y-142311904D01*
X189398214Y-142311904D01*
X189702976Y-141588095D02*
X189741071Y-141550000D01*
X189817261Y-141511904D01*
X190007738Y-141511904D01*
X190083928Y-141550000D01*
X190122023Y-141588095D01*
X190160119Y-141664285D01*
X190160119Y-141740476D01*
X190122023Y-141854761D01*
X189664880Y-142311904D01*
X190160119Y-142311904D01*
X190845833Y-141778571D02*
X190845833Y-142311904D01*
X190502976Y-141778571D02*
X190502976Y-142197619D01*
X190541071Y-142273809D01*
X190617261Y-142311904D01*
X190731547Y-142311904D01*
X190807738Y-142273809D01*
X190845833Y-142235714D01*
%TO.C,R11*%
X194116666Y-125168095D02*
X194154761Y-125130000D01*
X194230952Y-125091904D01*
X194421428Y-125091904D01*
X194497619Y-125130000D01*
X194535714Y-125168095D01*
X194573809Y-125244285D01*
X194573809Y-125320476D01*
X194535714Y-125434761D01*
X194078571Y-125891904D01*
X194573809Y-125891904D01*
X194916666Y-125891904D02*
X194916666Y-125091904D01*
X194992857Y-125587142D02*
X195221428Y-125891904D01*
X195221428Y-125358571D02*
X194916666Y-125663333D01*
X195526190Y-125168095D02*
X195564285Y-125130000D01*
X195640476Y-125091904D01*
X195830952Y-125091904D01*
X195907142Y-125130000D01*
X195945238Y-125168095D01*
X195983333Y-125244285D01*
X195983333Y-125320476D01*
X195945238Y-125434761D01*
X195488095Y-125891904D01*
X195983333Y-125891904D01*
%TO.C,R19*%
X186593809Y-130121904D02*
X186136666Y-130121904D01*
X186365238Y-130121904D02*
X186365238Y-129321904D01*
X186289047Y-129436190D01*
X186212857Y-129512380D01*
X186136666Y-129550476D01*
X187089047Y-129321904D02*
X187165238Y-129321904D01*
X187241428Y-129360000D01*
X187279523Y-129398095D01*
X187317619Y-129474285D01*
X187355714Y-129626666D01*
X187355714Y-129817142D01*
X187317619Y-129969523D01*
X187279523Y-130045714D01*
X187241428Y-130083809D01*
X187165238Y-130121904D01*
X187089047Y-130121904D01*
X187012857Y-130083809D01*
X186974761Y-130045714D01*
X186936666Y-129969523D01*
X186898571Y-129817142D01*
X186898571Y-129626666D01*
X186936666Y-129474285D01*
X186974761Y-129398095D01*
X187012857Y-129360000D01*
X187089047Y-129321904D01*
X187698571Y-130121904D02*
X187698571Y-129321904D01*
X187774761Y-129817142D02*
X188003333Y-130121904D01*
X188003333Y-129588571D02*
X187698571Y-129893333D01*
%TO.C,C22*%
X192435714Y-132447857D02*
X192473809Y-132409761D01*
X192511904Y-132447857D01*
X192473809Y-132485952D01*
X192435714Y-132447857D01*
X192511904Y-132447857D01*
X192511904Y-131647857D02*
X192511904Y-132105000D01*
X192511904Y-131876428D02*
X191711904Y-131876428D01*
X191826190Y-131952619D01*
X191902380Y-132028809D01*
X191940476Y-132105000D01*
X191978571Y-130962142D02*
X192511904Y-130962142D01*
X191978571Y-131305000D02*
X192397619Y-131305000D01*
X192473809Y-131266904D01*
X192511904Y-131190714D01*
X192511904Y-131076428D01*
X192473809Y-131000238D01*
X192435714Y-130962142D01*
%TO.C,R2*%
X197654761Y-141966904D02*
X197197619Y-141966904D01*
X197426190Y-141966904D02*
X197426190Y-141166904D01*
X197350000Y-141281190D01*
X197273809Y-141357380D01*
X197197619Y-141395476D01*
X197997619Y-141966904D02*
X197997619Y-141166904D01*
X198073809Y-141662142D02*
X198302380Y-141966904D01*
X198302380Y-141433571D02*
X197997619Y-141738333D01*
%TO.C,C10*%
X214616666Y-133461904D02*
X214159523Y-133461904D01*
X214388095Y-133461904D02*
X214388095Y-132661904D01*
X214311904Y-132776190D01*
X214235714Y-132852380D01*
X214159523Y-132890476D01*
X215302380Y-132928571D02*
X215302380Y-133461904D01*
X214959523Y-132928571D02*
X214959523Y-133347619D01*
X214997619Y-133423809D01*
X215073809Y-133461904D01*
X215188095Y-133461904D01*
X215264285Y-133423809D01*
X215302380Y-133385714D01*
%TO.C,C18*%
X195707142Y-122440714D02*
X195745238Y-122478809D01*
X195707142Y-122516904D01*
X195669047Y-122478809D01*
X195707142Y-122440714D01*
X195707142Y-122516904D01*
X196507142Y-122516904D02*
X196050000Y-122516904D01*
X196278571Y-122516904D02*
X196278571Y-121716904D01*
X196202380Y-121831190D01*
X196126190Y-121907380D01*
X196050000Y-121945476D01*
X197192857Y-121983571D02*
X197192857Y-122516904D01*
X196850000Y-121983571D02*
X196850000Y-122402619D01*
X196888095Y-122478809D01*
X196964285Y-122516904D01*
X197078571Y-122516904D01*
X197154761Y-122478809D01*
X197192857Y-122440714D01*
%TO.C,R31*%
X214201904Y-129575238D02*
X214201904Y-130032380D01*
X214201904Y-129803809D02*
X213401904Y-129803809D01*
X213516190Y-129880000D01*
X213592380Y-129956190D01*
X213630476Y-130032380D01*
X214201904Y-129232380D02*
X213401904Y-129232380D01*
X213897142Y-129156190D02*
X214201904Y-128927619D01*
X213668571Y-128927619D02*
X213973333Y-129232380D01*
%TO.C,C5*%
X211132142Y-124915714D02*
X211170238Y-124953809D01*
X211132142Y-124991904D01*
X211094047Y-124953809D01*
X211132142Y-124915714D01*
X211132142Y-124991904D01*
X211932142Y-124991904D02*
X211475000Y-124991904D01*
X211703571Y-124991904D02*
X211703571Y-124191904D01*
X211627380Y-124306190D01*
X211551190Y-124382380D01*
X211475000Y-124420476D01*
X212617857Y-124458571D02*
X212617857Y-124991904D01*
X212275000Y-124458571D02*
X212275000Y-124877619D01*
X212313095Y-124953809D01*
X212389285Y-124991904D01*
X212503571Y-124991904D01*
X212579761Y-124953809D01*
X212617857Y-124915714D01*
%TO.C,R17*%
X182764285Y-135488095D02*
X182726190Y-135526190D01*
X182688095Y-135488095D01*
X182726190Y-135450000D01*
X182764285Y-135488095D01*
X182688095Y-135488095D01*
X183488095Y-136021428D02*
X183488095Y-136097619D01*
X183450000Y-136173809D01*
X183411904Y-136211904D01*
X183335714Y-136250000D01*
X183183333Y-136288095D01*
X182992857Y-136288095D01*
X182840476Y-136250000D01*
X182764285Y-136211904D01*
X182726190Y-136173809D01*
X182688095Y-136097619D01*
X182688095Y-136021428D01*
X182726190Y-135945238D01*
X182764285Y-135907142D01*
X182840476Y-135869047D01*
X182992857Y-135830952D01*
X183183333Y-135830952D01*
X183335714Y-135869047D01*
X183411904Y-135907142D01*
X183450000Y-135945238D01*
X183488095Y-136021428D01*
X182688095Y-137050000D02*
X182688095Y-136592857D01*
X182688095Y-136821428D02*
X183488095Y-136821428D01*
X183373809Y-136745238D01*
X183297619Y-136669047D01*
X183259523Y-136592857D01*
%TO.C,Q3*%
X179890476Y-136411904D02*
X179890476Y-135611904D01*
X180195238Y-135611904D01*
X180271428Y-135650000D01*
X180309523Y-135688095D01*
X180347619Y-135764285D01*
X180347619Y-135878571D01*
X180309523Y-135954761D01*
X180271428Y-135992857D01*
X180195238Y-136030952D01*
X179890476Y-136030952D01*
%TO.C,Q4*%
X185321428Y-130516904D02*
X185321428Y-129716904D01*
X185778571Y-130516904D01*
X185778571Y-129716904D01*
%TO.C,Q6*%
X199409523Y-128393095D02*
X199409523Y-129193095D01*
X199104761Y-129193095D01*
X199028571Y-129155000D01*
X198990476Y-129116904D01*
X198952380Y-129040714D01*
X198952380Y-128926428D01*
X198990476Y-128850238D01*
X199028571Y-128812142D01*
X199104761Y-128774047D01*
X199409523Y-128774047D01*
%TO.C,C7*%
X193614285Y-132907142D02*
X193576190Y-132945238D01*
X193538095Y-132907142D01*
X193576190Y-132869047D01*
X193614285Y-132907142D01*
X193538095Y-132907142D01*
X193538095Y-133707142D02*
X193538095Y-133250000D01*
X193538095Y-133478571D02*
X194338095Y-133478571D01*
X194223809Y-133402380D01*
X194147619Y-133326190D01*
X194109523Y-133250000D01*
X194071428Y-134392857D02*
X193538095Y-134392857D01*
X194071428Y-134050000D02*
X193652380Y-134050000D01*
X193576190Y-134088095D01*
X193538095Y-134164285D01*
X193538095Y-134278571D01*
X193576190Y-134354761D01*
X193614285Y-134392857D01*
%TO.C,R16*%
X210536666Y-126278095D02*
X210574761Y-126240000D01*
X210650952Y-126201904D01*
X210841428Y-126201904D01*
X210917619Y-126240000D01*
X210955714Y-126278095D01*
X210993809Y-126354285D01*
X210993809Y-126430476D01*
X210955714Y-126544761D01*
X210498571Y-127001904D01*
X210993809Y-127001904D01*
X211336666Y-127001904D02*
X211336666Y-126201904D01*
X211412857Y-126697142D02*
X211641428Y-127001904D01*
X211641428Y-126468571D02*
X211336666Y-126773333D01*
X211946190Y-126278095D02*
X211984285Y-126240000D01*
X212060476Y-126201904D01*
X212250952Y-126201904D01*
X212327142Y-126240000D01*
X212365238Y-126278095D01*
X212403333Y-126354285D01*
X212403333Y-126430476D01*
X212365238Y-126544761D01*
X211908095Y-127001904D01*
X212403333Y-127001904D01*
%TO.C,R21*%
X218188095Y-128538571D02*
X218188095Y-129033809D01*
X217883333Y-128767142D01*
X217883333Y-128881428D01*
X217845238Y-128957619D01*
X217807142Y-128995714D01*
X217730952Y-129033809D01*
X217540476Y-129033809D01*
X217464285Y-128995714D01*
X217426190Y-128957619D01*
X217388095Y-128881428D01*
X217388095Y-128652857D01*
X217426190Y-128576666D01*
X217464285Y-128538571D01*
X218188095Y-129529047D02*
X218188095Y-129605238D01*
X218150000Y-129681428D01*
X218111904Y-129719523D01*
X218035714Y-129757619D01*
X217883333Y-129795714D01*
X217692857Y-129795714D01*
X217540476Y-129757619D01*
X217464285Y-129719523D01*
X217426190Y-129681428D01*
X217388095Y-129605238D01*
X217388095Y-129529047D01*
X217426190Y-129452857D01*
X217464285Y-129414761D01*
X217540476Y-129376666D01*
X217692857Y-129338571D01*
X217883333Y-129338571D01*
X218035714Y-129376666D01*
X218111904Y-129414761D01*
X218150000Y-129452857D01*
X218188095Y-129529047D01*
X217388095Y-130138571D02*
X218188095Y-130138571D01*
X217692857Y-130214761D02*
X217388095Y-130443333D01*
X217921428Y-130443333D02*
X217616666Y-130138571D01*
%TO.C,R7*%
X212861904Y-137345476D02*
X212900000Y-137383571D01*
X212938095Y-137459761D01*
X212938095Y-137650238D01*
X212900000Y-137726428D01*
X212861904Y-137764523D01*
X212785714Y-137802619D01*
X212709523Y-137802619D01*
X212595238Y-137764523D01*
X212138095Y-137307380D01*
X212138095Y-137802619D01*
X212938095Y-138069285D02*
X212938095Y-138602619D01*
X212138095Y-138259761D01*
%TO.C,C2*%
X208157142Y-129035714D02*
X208195238Y-129073809D01*
X208157142Y-129111904D01*
X208119047Y-129073809D01*
X208157142Y-129035714D01*
X208157142Y-129111904D01*
X208957142Y-129111904D02*
X208500000Y-129111904D01*
X208728571Y-129111904D02*
X208728571Y-128311904D01*
X208652380Y-128426190D01*
X208576190Y-128502380D01*
X208500000Y-128540476D01*
X209642857Y-128578571D02*
X209642857Y-129111904D01*
X209300000Y-128578571D02*
X209300000Y-128997619D01*
X209338095Y-129073809D01*
X209414285Y-129111904D01*
X209528571Y-129111904D01*
X209604761Y-129073809D01*
X209642857Y-129035714D01*
%TO.C,C12*%
X213807142Y-134435714D02*
X213845238Y-134473809D01*
X213807142Y-134511904D01*
X213769047Y-134473809D01*
X213807142Y-134435714D01*
X213807142Y-134511904D01*
X214607142Y-134511904D02*
X214150000Y-134511904D01*
X214378571Y-134511904D02*
X214378571Y-133711904D01*
X214302380Y-133826190D01*
X214226190Y-133902380D01*
X214150000Y-133940476D01*
X215292857Y-133978571D02*
X215292857Y-134511904D01*
X214950000Y-133978571D02*
X214950000Y-134397619D01*
X214988095Y-134473809D01*
X215064285Y-134511904D01*
X215178571Y-134511904D01*
X215254761Y-134473809D01*
X215292857Y-134435714D01*
%TO.C,R8*%
X211761904Y-137345476D02*
X211800000Y-137383571D01*
X211838095Y-137459761D01*
X211838095Y-137650238D01*
X211800000Y-137726428D01*
X211761904Y-137764523D01*
X211685714Y-137802619D01*
X211609523Y-137802619D01*
X211495238Y-137764523D01*
X211038095Y-137307380D01*
X211038095Y-137802619D01*
X211838095Y-138069285D02*
X211838095Y-138602619D01*
X211038095Y-138259761D01*
%TO.C,R18*%
X180048571Y-128331904D02*
X180543809Y-128331904D01*
X180277142Y-128636666D01*
X180391428Y-128636666D01*
X180467619Y-128674761D01*
X180505714Y-128712857D01*
X180543809Y-128789047D01*
X180543809Y-128979523D01*
X180505714Y-129055714D01*
X180467619Y-129093809D01*
X180391428Y-129131904D01*
X180162857Y-129131904D01*
X180086666Y-129093809D01*
X180048571Y-129055714D01*
X181039047Y-128331904D02*
X181115238Y-128331904D01*
X181191428Y-128370000D01*
X181229523Y-128408095D01*
X181267619Y-128484285D01*
X181305714Y-128636666D01*
X181305714Y-128827142D01*
X181267619Y-128979523D01*
X181229523Y-129055714D01*
X181191428Y-129093809D01*
X181115238Y-129131904D01*
X181039047Y-129131904D01*
X180962857Y-129093809D01*
X180924761Y-129055714D01*
X180886666Y-128979523D01*
X180848571Y-128827142D01*
X180848571Y-128636666D01*
X180886666Y-128484285D01*
X180924761Y-128408095D01*
X180962857Y-128370000D01*
X181039047Y-128331904D01*
X181648571Y-129131904D02*
X181648571Y-128331904D01*
X181724761Y-128827142D02*
X181953333Y-129131904D01*
X181953333Y-128598571D02*
X181648571Y-128903333D01*
%TO.C,R3*%
X201231904Y-135865238D02*
X201231904Y-136322380D01*
X201231904Y-136093809D02*
X200431904Y-136093809D01*
X200546190Y-136170000D01*
X200622380Y-136246190D01*
X200660476Y-136322380D01*
X201231904Y-135522380D02*
X200431904Y-135522380D01*
X200927142Y-135446190D02*
X201231904Y-135217619D01*
X200698571Y-135217619D02*
X201003333Y-135522380D01*
%TO.C,R1*%
X181748095Y-127054761D02*
X181748095Y-126597619D01*
X181748095Y-126826190D02*
X182548095Y-126826190D01*
X182433809Y-126750000D01*
X182357619Y-126673809D01*
X182319523Y-126597619D01*
X181748095Y-127397619D02*
X182548095Y-127397619D01*
X182052857Y-127473809D02*
X181748095Y-127702380D01*
X182281428Y-127702380D02*
X181976666Y-127397619D01*
%TO.C,Q5*%
X214411904Y-125789523D02*
X213611904Y-125789523D01*
X213611904Y-125484761D01*
X213650000Y-125408571D01*
X213688095Y-125370476D01*
X213764285Y-125332380D01*
X213878571Y-125332380D01*
X213954761Y-125370476D01*
X213992857Y-125408571D01*
X214030952Y-125484761D01*
X214030952Y-125789523D01*
%TO.C,C26*%
X185438095Y-133476428D02*
X185400000Y-133438333D01*
X185361904Y-133362142D01*
X185361904Y-133171666D01*
X185400000Y-133095476D01*
X185438095Y-133057380D01*
X185514285Y-133019285D01*
X185590476Y-133019285D01*
X185704761Y-133057380D01*
X186161904Y-133514523D01*
X186161904Y-133019285D01*
X185438095Y-132714523D02*
X185400000Y-132676428D01*
X185361904Y-132600238D01*
X185361904Y-132409761D01*
X185400000Y-132333571D01*
X185438095Y-132295476D01*
X185514285Y-132257380D01*
X185590476Y-132257380D01*
X185704761Y-132295476D01*
X186161904Y-132752619D01*
X186161904Y-132257380D01*
X185628571Y-131571666D02*
X186161904Y-131571666D01*
X185628571Y-131914523D02*
X186047619Y-131914523D01*
X186123809Y-131876428D01*
X186161904Y-131800238D01*
X186161904Y-131685952D01*
X186123809Y-131609761D01*
X186085714Y-131571666D01*
%TO.C,C24*%
X177497142Y-129685714D02*
X177535238Y-129723809D01*
X177497142Y-129761904D01*
X177459047Y-129723809D01*
X177497142Y-129685714D01*
X177497142Y-129761904D01*
X178297142Y-129761904D02*
X177840000Y-129761904D01*
X178068571Y-129761904D02*
X178068571Y-128961904D01*
X177992380Y-129076190D01*
X177916190Y-129152380D01*
X177840000Y-129190476D01*
X178982857Y-129228571D02*
X178982857Y-129761904D01*
X178640000Y-129228571D02*
X178640000Y-129647619D01*
X178678095Y-129723809D01*
X178754285Y-129761904D01*
X178868571Y-129761904D01*
X178944761Y-129723809D01*
X178982857Y-129685714D01*
%TO.C,C4*%
X194390476Y-137211904D02*
X194885714Y-137211904D01*
X194619047Y-137516666D01*
X194733333Y-137516666D01*
X194809523Y-137554761D01*
X194847619Y-137592857D01*
X194885714Y-137669047D01*
X194885714Y-137859523D01*
X194847619Y-137935714D01*
X194809523Y-137973809D01*
X194733333Y-138011904D01*
X194504761Y-138011904D01*
X194428571Y-137973809D01*
X194390476Y-137935714D01*
X195380952Y-137211904D02*
X195457142Y-137211904D01*
X195533333Y-137250000D01*
X195571428Y-137288095D01*
X195609523Y-137364285D01*
X195647619Y-137516666D01*
X195647619Y-137707142D01*
X195609523Y-137859523D01*
X195571428Y-137935714D01*
X195533333Y-137973809D01*
X195457142Y-138011904D01*
X195380952Y-138011904D01*
X195304761Y-137973809D01*
X195266666Y-137935714D01*
X195228571Y-137859523D01*
X195190476Y-137707142D01*
X195190476Y-137516666D01*
X195228571Y-137364285D01*
X195266666Y-137288095D01*
X195304761Y-137250000D01*
X195380952Y-137211904D01*
X195990476Y-137478571D02*
X195990476Y-138278571D01*
X195990476Y-137516666D02*
X196066666Y-137478571D01*
X196219047Y-137478571D01*
X196295238Y-137516666D01*
X196333333Y-137554761D01*
X196371428Y-137630952D01*
X196371428Y-137859523D01*
X196333333Y-137935714D01*
X196295238Y-137973809D01*
X196219047Y-138011904D01*
X196066666Y-138011904D01*
X195990476Y-137973809D01*
%TO.C,C29*%
X188578571Y-130293095D02*
X188616666Y-130255000D01*
X188692857Y-130216904D01*
X188883333Y-130216904D01*
X188959523Y-130255000D01*
X188997619Y-130293095D01*
X189035714Y-130369285D01*
X189035714Y-130445476D01*
X188997619Y-130559761D01*
X188540476Y-131016904D01*
X189035714Y-131016904D01*
X189340476Y-130293095D02*
X189378571Y-130255000D01*
X189454761Y-130216904D01*
X189645238Y-130216904D01*
X189721428Y-130255000D01*
X189759523Y-130293095D01*
X189797619Y-130369285D01*
X189797619Y-130445476D01*
X189759523Y-130559761D01*
X189302380Y-131016904D01*
X189797619Y-131016904D01*
X190483333Y-130483571D02*
X190483333Y-131016904D01*
X190140476Y-130483571D02*
X190140476Y-130902619D01*
X190178571Y-130978809D01*
X190254761Y-131016904D01*
X190369047Y-131016904D01*
X190445238Y-130978809D01*
X190483333Y-130940714D01*
%TO.C,D1*%
X194811904Y-144474285D02*
X194811904Y-144855238D01*
X194011904Y-144855238D01*
X194392857Y-144207619D02*
X194392857Y-143940952D01*
X194811904Y-143826666D02*
X194811904Y-144207619D01*
X194011904Y-144207619D01*
X194011904Y-143826666D01*
X194811904Y-143483809D02*
X194011904Y-143483809D01*
X194011904Y-143293333D01*
X194050000Y-143179047D01*
X194126190Y-143102857D01*
X194202380Y-143064761D01*
X194354761Y-143026666D01*
X194469047Y-143026666D01*
X194621428Y-143064761D01*
X194697619Y-143102857D01*
X194773809Y-143179047D01*
X194811904Y-143293333D01*
X194811904Y-143483809D01*
%TO.C,C1*%
X194307142Y-131735714D02*
X194345238Y-131773809D01*
X194307142Y-131811904D01*
X194269047Y-131773809D01*
X194307142Y-131735714D01*
X194307142Y-131811904D01*
X195107142Y-131811904D02*
X194650000Y-131811904D01*
X194878571Y-131811904D02*
X194878571Y-131011904D01*
X194802380Y-131126190D01*
X194726190Y-131202380D01*
X194650000Y-131240476D01*
X195792857Y-131278571D02*
X195792857Y-131811904D01*
X195450000Y-131278571D02*
X195450000Y-131697619D01*
X195488095Y-131773809D01*
X195564285Y-131811904D01*
X195678571Y-131811904D01*
X195754761Y-131773809D01*
X195792857Y-131735714D01*
%TO.C,C21*%
X186698571Y-123343095D02*
X186736666Y-123305000D01*
X186812857Y-123266904D01*
X187003333Y-123266904D01*
X187079523Y-123305000D01*
X187117619Y-123343095D01*
X187155714Y-123419285D01*
X187155714Y-123495476D01*
X187117619Y-123609761D01*
X186660476Y-124066904D01*
X187155714Y-124066904D01*
X187460476Y-123343095D02*
X187498571Y-123305000D01*
X187574761Y-123266904D01*
X187765238Y-123266904D01*
X187841428Y-123305000D01*
X187879523Y-123343095D01*
X187917619Y-123419285D01*
X187917619Y-123495476D01*
X187879523Y-123609761D01*
X187422380Y-124066904D01*
X187917619Y-124066904D01*
X188260476Y-123533571D02*
X188260476Y-124333571D01*
X188260476Y-123571666D02*
X188336666Y-123533571D01*
X188489047Y-123533571D01*
X188565238Y-123571666D01*
X188603333Y-123609761D01*
X188641428Y-123685952D01*
X188641428Y-123914523D01*
X188603333Y-123990714D01*
X188565238Y-124028809D01*
X188489047Y-124066904D01*
X188336666Y-124066904D01*
X188260476Y-124028809D01*
%TO.C,D3*%
X186472023Y-140011904D02*
X186472023Y-139211904D01*
X186662500Y-139211904D01*
X186776785Y-139250000D01*
X186852976Y-139326190D01*
X186891071Y-139402380D01*
X186929166Y-139554761D01*
X186929166Y-139669047D01*
X186891071Y-139821428D01*
X186852976Y-139897619D01*
X186776785Y-139973809D01*
X186662500Y-140011904D01*
X186472023Y-140011904D01*
X187195833Y-139211904D02*
X187691071Y-139211904D01*
X187424404Y-139516666D01*
X187538690Y-139516666D01*
X187614880Y-139554761D01*
X187652976Y-139592857D01*
X187691071Y-139669047D01*
X187691071Y-139859523D01*
X187652976Y-139935714D01*
X187614880Y-139973809D01*
X187538690Y-140011904D01*
X187310119Y-140011904D01*
X187233928Y-139973809D01*
X187195833Y-139935714D01*
%TO.C,R20*%
X194188095Y-134828571D02*
X194188095Y-135323809D01*
X193883333Y-135057142D01*
X193883333Y-135171428D01*
X193845238Y-135247619D01*
X193807142Y-135285714D01*
X193730952Y-135323809D01*
X193540476Y-135323809D01*
X193464285Y-135285714D01*
X193426190Y-135247619D01*
X193388095Y-135171428D01*
X193388095Y-134942857D01*
X193426190Y-134866666D01*
X193464285Y-134828571D01*
X194188095Y-135590476D02*
X194188095Y-136085714D01*
X193883333Y-135819047D01*
X193883333Y-135933333D01*
X193845238Y-136009523D01*
X193807142Y-136047619D01*
X193730952Y-136085714D01*
X193540476Y-136085714D01*
X193464285Y-136047619D01*
X193426190Y-136009523D01*
X193388095Y-135933333D01*
X193388095Y-135704761D01*
X193426190Y-135628571D01*
X193464285Y-135590476D01*
X193388095Y-136428571D02*
X194188095Y-136428571D01*
X193692857Y-136504761D02*
X193388095Y-136733333D01*
X193921428Y-136733333D02*
X193616666Y-136428571D01*
%TO.C,C30*%
X231494761Y-145211904D02*
X231037619Y-145211904D01*
X231266190Y-145211904D02*
X231266190Y-144411904D01*
X231190000Y-144526190D01*
X231113809Y-144602380D01*
X231037619Y-144640476D01*
X231990000Y-144411904D02*
X232066190Y-144411904D01*
X232142380Y-144450000D01*
X232180476Y-144488095D01*
X232218571Y-144564285D01*
X232256666Y-144716666D01*
X232256666Y-144907142D01*
X232218571Y-145059523D01*
X232180476Y-145135714D01*
X232142380Y-145173809D01*
X232066190Y-145211904D01*
X231990000Y-145211904D01*
X231913809Y-145173809D01*
X231875714Y-145135714D01*
X231837619Y-145059523D01*
X231799523Y-144907142D01*
X231799523Y-144716666D01*
X231837619Y-144564285D01*
X231875714Y-144488095D01*
X231913809Y-144450000D01*
X231990000Y-144411904D01*
X232751904Y-144411904D02*
X232828095Y-144411904D01*
X232904285Y-144450000D01*
X232942380Y-144488095D01*
X232980476Y-144564285D01*
X233018571Y-144716666D01*
X233018571Y-144907142D01*
X232980476Y-145059523D01*
X232942380Y-145135714D01*
X232904285Y-145173809D01*
X232828095Y-145211904D01*
X232751904Y-145211904D01*
X232675714Y-145173809D01*
X232637619Y-145135714D01*
X232599523Y-145059523D01*
X232561428Y-144907142D01*
X232561428Y-144716666D01*
X232599523Y-144564285D01*
X232637619Y-144488095D01*
X232675714Y-144450000D01*
X232751904Y-144411904D01*
X233704285Y-144678571D02*
X233704285Y-145211904D01*
X233361428Y-144678571D02*
X233361428Y-145097619D01*
X233399523Y-145173809D01*
X233475714Y-145211904D01*
X233590000Y-145211904D01*
X233666190Y-145173809D01*
X233704285Y-145135714D01*
D14*
%TO.C,S1*%
X215604761Y-136311904D02*
X215652380Y-136169047D01*
X215652380Y-135930952D01*
X215604761Y-135835714D01*
X215557142Y-135788095D01*
X215461904Y-135740476D01*
X215366666Y-135740476D01*
X215271428Y-135788095D01*
X215223809Y-135835714D01*
X215176190Y-135930952D01*
X215128571Y-136121428D01*
X215080952Y-136216666D01*
X215033333Y-136264285D01*
X214938095Y-136311904D01*
X214842857Y-136311904D01*
X214747619Y-136264285D01*
X214700000Y-136216666D01*
X214652380Y-136121428D01*
X214652380Y-135883333D01*
X214700000Y-135740476D01*
X215652380Y-134788095D02*
X215652380Y-135359523D01*
X215652380Y-135073809D02*
X214652380Y-135073809D01*
X214795238Y-135169047D01*
X214890476Y-135264285D01*
X214938095Y-135359523D01*
D10*
%TO.C,R4*%
X184263809Y-128171904D02*
X183806666Y-128171904D01*
X184035238Y-128171904D02*
X184035238Y-127371904D01*
X183959047Y-127486190D01*
X183882857Y-127562380D01*
X183806666Y-127600476D01*
X184759047Y-127371904D02*
X184835238Y-127371904D01*
X184911428Y-127410000D01*
X184949523Y-127448095D01*
X184987619Y-127524285D01*
X185025714Y-127676666D01*
X185025714Y-127867142D01*
X184987619Y-128019523D01*
X184949523Y-128095714D01*
X184911428Y-128133809D01*
X184835238Y-128171904D01*
X184759047Y-128171904D01*
X184682857Y-128133809D01*
X184644761Y-128095714D01*
X184606666Y-128019523D01*
X184568571Y-127867142D01*
X184568571Y-127676666D01*
X184606666Y-127524285D01*
X184644761Y-127448095D01*
X184682857Y-127410000D01*
X184759047Y-127371904D01*
X185368571Y-128171904D02*
X185368571Y-127371904D01*
X185444761Y-127867142D02*
X185673333Y-128171904D01*
X185673333Y-127638571D02*
X185368571Y-127943333D01*
%TO.C,R23*%
X191538095Y-138278809D02*
X191538095Y-137821666D01*
X191538095Y-138050238D02*
X192338095Y-138050238D01*
X192223809Y-137974047D01*
X192147619Y-137897857D01*
X192109523Y-137821666D01*
X192338095Y-138774047D02*
X192338095Y-138850238D01*
X192300000Y-138926428D01*
X192261904Y-138964523D01*
X192185714Y-139002619D01*
X192033333Y-139040714D01*
X191842857Y-139040714D01*
X191690476Y-139002619D01*
X191614285Y-138964523D01*
X191576190Y-138926428D01*
X191538095Y-138850238D01*
X191538095Y-138774047D01*
X191576190Y-138697857D01*
X191614285Y-138659761D01*
X191690476Y-138621666D01*
X191842857Y-138583571D01*
X192033333Y-138583571D01*
X192185714Y-138621666D01*
X192261904Y-138659761D01*
X192300000Y-138697857D01*
X192338095Y-138774047D01*
X191538095Y-139383571D02*
X192338095Y-139383571D01*
X191842857Y-139459761D02*
X191538095Y-139688333D01*
X192071428Y-139688333D02*
X191766666Y-139383571D01*
%TO.C,R27*%
X246519429Y-145830498D02*
X246062286Y-145830498D01*
X246290858Y-145830498D02*
X246290858Y-145030498D01*
X246214667Y-145144784D01*
X246138477Y-145220974D01*
X246062286Y-145259070D01*
X247014667Y-145030498D02*
X247090858Y-145030498D01*
X247167048Y-145068594D01*
X247205143Y-145106689D01*
X247243239Y-145182879D01*
X247281334Y-145335260D01*
X247281334Y-145525736D01*
X247243239Y-145678117D01*
X247205143Y-145754308D01*
X247167048Y-145792403D01*
X247090858Y-145830498D01*
X247014667Y-145830498D01*
X246938477Y-145792403D01*
X246900381Y-145754308D01*
X246862286Y-145678117D01*
X246824191Y-145525736D01*
X246824191Y-145335260D01*
X246862286Y-145182879D01*
X246900381Y-145106689D01*
X246938477Y-145068594D01*
X247014667Y-145030498D01*
X247624191Y-145830498D02*
X247624191Y-145030498D01*
X247700381Y-145525736D02*
X247928953Y-145830498D01*
X247928953Y-145297165D02*
X247624191Y-145601927D01*
%TO.C,R12*%
X194566666Y-126088095D02*
X194604761Y-126050000D01*
X194680952Y-126011904D01*
X194871428Y-126011904D01*
X194947619Y-126050000D01*
X194985714Y-126088095D01*
X195023809Y-126164285D01*
X195023809Y-126240476D01*
X194985714Y-126354761D01*
X194528571Y-126811904D01*
X195023809Y-126811904D01*
X195366666Y-126811904D02*
X195366666Y-126011904D01*
X195442857Y-126507142D02*
X195671428Y-126811904D01*
X195671428Y-126278571D02*
X195366666Y-126583333D01*
X195976190Y-126088095D02*
X196014285Y-126050000D01*
X196090476Y-126011904D01*
X196280952Y-126011904D01*
X196357142Y-126050000D01*
X196395238Y-126088095D01*
X196433333Y-126164285D01*
X196433333Y-126240476D01*
X196395238Y-126354761D01*
X195938095Y-126811904D01*
X196433333Y-126811904D01*
%TO.C,Q1*%
X184771428Y-123361904D02*
X184771428Y-122561904D01*
X185228571Y-123361904D01*
X185228571Y-122561904D01*
%TO.C,C8*%
X200457142Y-138085714D02*
X200495238Y-138123809D01*
X200457142Y-138161904D01*
X200419047Y-138123809D01*
X200457142Y-138085714D01*
X200457142Y-138161904D01*
X201257142Y-138161904D02*
X200800000Y-138161904D01*
X201028571Y-138161904D02*
X201028571Y-137361904D01*
X200952380Y-137476190D01*
X200876190Y-137552380D01*
X200800000Y-137590476D01*
X201942857Y-137628571D02*
X201942857Y-138161904D01*
X201600000Y-137628571D02*
X201600000Y-138047619D01*
X201638095Y-138123809D01*
X201714285Y-138161904D01*
X201828571Y-138161904D01*
X201904761Y-138123809D01*
X201942857Y-138085714D01*
%TO.C,L1*%
X190666666Y-132616904D02*
X190285714Y-132616904D01*
X190285714Y-131816904D01*
X191352380Y-132616904D02*
X190895238Y-132616904D01*
X191123809Y-132616904D02*
X191123809Y-131816904D01*
X191047619Y-131931190D01*
X190971428Y-132007380D01*
X190895238Y-132045476D01*
%TO.C,C27*%
X222228095Y-145871428D02*
X222190000Y-145833333D01*
X222151904Y-145757142D01*
X222151904Y-145566666D01*
X222190000Y-145490476D01*
X222228095Y-145452380D01*
X222304285Y-145414285D01*
X222380476Y-145414285D01*
X222494761Y-145452380D01*
X222951904Y-145909523D01*
X222951904Y-145414285D01*
X222228095Y-145109523D02*
X222190000Y-145071428D01*
X222151904Y-144995238D01*
X222151904Y-144804761D01*
X222190000Y-144728571D01*
X222228095Y-144690476D01*
X222304285Y-144652380D01*
X222380476Y-144652380D01*
X222494761Y-144690476D01*
X222951904Y-145147619D01*
X222951904Y-144652380D01*
X222418571Y-143966666D02*
X222951904Y-143966666D01*
X222418571Y-144309523D02*
X222837619Y-144309523D01*
X222913809Y-144271428D01*
X222951904Y-144195238D01*
X222951904Y-144080952D01*
X222913809Y-144004761D01*
X222875714Y-143966666D01*
%TO.C,C25*%
X182787142Y-134040714D02*
X182825238Y-134078809D01*
X182787142Y-134116904D01*
X182749047Y-134078809D01*
X182787142Y-134040714D01*
X182787142Y-134116904D01*
X183587142Y-134116904D02*
X183130000Y-134116904D01*
X183358571Y-134116904D02*
X183358571Y-133316904D01*
X183282380Y-133431190D01*
X183206190Y-133507380D01*
X183130000Y-133545476D01*
X184272857Y-133583571D02*
X184272857Y-134116904D01*
X183930000Y-133583571D02*
X183930000Y-134002619D01*
X183968095Y-134078809D01*
X184044285Y-134116904D01*
X184158571Y-134116904D01*
X184234761Y-134078809D01*
X184272857Y-134040714D01*
%TO.C,C3*%
X194290476Y-132116904D02*
X194785714Y-132116904D01*
X194519047Y-132421666D01*
X194633333Y-132421666D01*
X194709523Y-132459761D01*
X194747619Y-132497857D01*
X194785714Y-132574047D01*
X194785714Y-132764523D01*
X194747619Y-132840714D01*
X194709523Y-132878809D01*
X194633333Y-132916904D01*
X194404761Y-132916904D01*
X194328571Y-132878809D01*
X194290476Y-132840714D01*
X195280952Y-132116904D02*
X195357142Y-132116904D01*
X195433333Y-132155000D01*
X195471428Y-132193095D01*
X195509523Y-132269285D01*
X195547619Y-132421666D01*
X195547619Y-132612142D01*
X195509523Y-132764523D01*
X195471428Y-132840714D01*
X195433333Y-132878809D01*
X195357142Y-132916904D01*
X195280952Y-132916904D01*
X195204761Y-132878809D01*
X195166666Y-132840714D01*
X195128571Y-132764523D01*
X195090476Y-132612142D01*
X195090476Y-132421666D01*
X195128571Y-132269285D01*
X195166666Y-132193095D01*
X195204761Y-132155000D01*
X195280952Y-132116904D01*
X195890476Y-132383571D02*
X195890476Y-133183571D01*
X195890476Y-132421666D02*
X195966666Y-132383571D01*
X196119047Y-132383571D01*
X196195238Y-132421666D01*
X196233333Y-132459761D01*
X196271428Y-132535952D01*
X196271428Y-132764523D01*
X196233333Y-132840714D01*
X196195238Y-132878809D01*
X196119047Y-132916904D01*
X195966666Y-132916904D01*
X195890476Y-132878809D01*
D15*
%TO.C,S3*%
X193889747Y-144389289D02*
X193950223Y-144207860D01*
X193950223Y-143905479D01*
X193889747Y-143784527D01*
X193829271Y-143724050D01*
X193708319Y-143663574D01*
X193587366Y-143663574D01*
X193466414Y-143724050D01*
X193405938Y-143784527D01*
X193345461Y-143905479D01*
X193284985Y-144147384D01*
X193224509Y-144268336D01*
X193164033Y-144328812D01*
X193043080Y-144389289D01*
X192922128Y-144389289D01*
X192801176Y-144328812D01*
X192740700Y-144268336D01*
X192680223Y-144147384D01*
X192680223Y-143845003D01*
X192740700Y-143663574D01*
X192680223Y-143240241D02*
X192680223Y-142454050D01*
X193164033Y-142877384D01*
X193164033Y-142695955D01*
X193224509Y-142575003D01*
X193284985Y-142514527D01*
X193405938Y-142454050D01*
X193708319Y-142454050D01*
X193829271Y-142514527D01*
X193889747Y-142575003D01*
X193950223Y-142695955D01*
X193950223Y-143058812D01*
X193889747Y-143179765D01*
X193829271Y-143240241D01*
%TO.C,AC1*%
X189520857Y-127429666D02*
X190125619Y-127429666D01*
X189399904Y-127792523D02*
X189823238Y-126522523D01*
X190246571Y-127792523D01*
X191395619Y-127671571D02*
X191335142Y-127732047D01*
X191153714Y-127792523D01*
X191032761Y-127792523D01*
X190851333Y-127732047D01*
X190730380Y-127611095D01*
X190669904Y-127490142D01*
X190609428Y-127248238D01*
X190609428Y-127066809D01*
X190669904Y-126824904D01*
X190730380Y-126703952D01*
X190851333Y-126583000D01*
X191032761Y-126522523D01*
X191153714Y-126522523D01*
X191335142Y-126583000D01*
X191395619Y-126643476D01*
X192605142Y-127792523D02*
X191879428Y-127792523D01*
X192242285Y-127792523D02*
X192242285Y-126522523D01*
X192121333Y-126703952D01*
X192000380Y-126824904D01*
X191879428Y-126885380D01*
D10*
%TO.C,C35*%
X248781334Y-139611451D02*
X248819429Y-139573355D01*
X248857524Y-139611451D01*
X248819429Y-139649546D01*
X248781334Y-139611451D01*
X248857524Y-139611451D01*
X248857524Y-138811451D02*
X248857524Y-139268594D01*
X248857524Y-139040022D02*
X248057524Y-139040022D01*
X248171810Y-139116213D01*
X248248000Y-139192403D01*
X248286096Y-139268594D01*
X248324191Y-138125736D02*
X248857524Y-138125736D01*
X248324191Y-138468594D02*
X248743239Y-138468594D01*
X248819429Y-138430498D01*
X248857524Y-138354308D01*
X248857524Y-138240022D01*
X248819429Y-138163832D01*
X248781334Y-138125736D01*
%TO.C,C15*%
X185138095Y-137276428D02*
X185100000Y-137238333D01*
X185061904Y-137162142D01*
X185061904Y-136971666D01*
X185100000Y-136895476D01*
X185138095Y-136857380D01*
X185214285Y-136819285D01*
X185290476Y-136819285D01*
X185404761Y-136857380D01*
X185861904Y-137314523D01*
X185861904Y-136819285D01*
X185138095Y-136514523D02*
X185100000Y-136476428D01*
X185061904Y-136400238D01*
X185061904Y-136209761D01*
X185100000Y-136133571D01*
X185138095Y-136095476D01*
X185214285Y-136057380D01*
X185290476Y-136057380D01*
X185404761Y-136095476D01*
X185861904Y-136552619D01*
X185861904Y-136057380D01*
X185328571Y-135371666D02*
X185861904Y-135371666D01*
X185328571Y-135714523D02*
X185747619Y-135714523D01*
X185823809Y-135676428D01*
X185861904Y-135600238D01*
X185861904Y-135485952D01*
X185823809Y-135409761D01*
X185785714Y-135371666D01*
%TO.C,C19*%
X231617750Y-123723924D02*
X231160608Y-123723924D01*
X231389179Y-123723924D02*
X231389179Y-122923924D01*
X231312989Y-123038210D01*
X231236798Y-123114400D01*
X231160608Y-123152496D01*
X232112989Y-122923924D02*
X232189179Y-122923924D01*
X232265369Y-122962020D01*
X232303465Y-123000115D01*
X232341560Y-123076305D01*
X232379655Y-123228686D01*
X232379655Y-123419162D01*
X232341560Y-123571543D01*
X232303465Y-123647734D01*
X232265369Y-123685829D01*
X232189179Y-123723924D01*
X232112989Y-123723924D01*
X232036798Y-123685829D01*
X231998703Y-123647734D01*
X231960608Y-123571543D01*
X231922512Y-123419162D01*
X231922512Y-123228686D01*
X231960608Y-123076305D01*
X231998703Y-123000115D01*
X232036798Y-122962020D01*
X232112989Y-122923924D01*
X232874893Y-122923924D02*
X232951084Y-122923924D01*
X233027274Y-122962020D01*
X233065369Y-123000115D01*
X233103465Y-123076305D01*
X233141560Y-123228686D01*
X233141560Y-123419162D01*
X233103465Y-123571543D01*
X233065369Y-123647734D01*
X233027274Y-123685829D01*
X232951084Y-123723924D01*
X232874893Y-123723924D01*
X232798703Y-123685829D01*
X232760608Y-123647734D01*
X232722512Y-123571543D01*
X232684417Y-123419162D01*
X232684417Y-123228686D01*
X232722512Y-123076305D01*
X232760608Y-123000115D01*
X232798703Y-122962020D01*
X232874893Y-122923924D01*
X233827274Y-123190591D02*
X233827274Y-123723924D01*
X233484417Y-123190591D02*
X233484417Y-123609639D01*
X233522512Y-123685829D01*
X233598703Y-123723924D01*
X233712989Y-123723924D01*
X233789179Y-123685829D01*
X233827274Y-123647734D01*
%TO.C,R29*%
X246519429Y-135780498D02*
X246062286Y-135780498D01*
X246290858Y-135780498D02*
X246290858Y-134980498D01*
X246214667Y-135094784D01*
X246138477Y-135170974D01*
X246062286Y-135209070D01*
X247014667Y-134980498D02*
X247090858Y-134980498D01*
X247167048Y-135018594D01*
X247205143Y-135056689D01*
X247243239Y-135132879D01*
X247281334Y-135285260D01*
X247281334Y-135475736D01*
X247243239Y-135628117D01*
X247205143Y-135704308D01*
X247167048Y-135742403D01*
X247090858Y-135780498D01*
X247014667Y-135780498D01*
X246938477Y-135742403D01*
X246900381Y-135704308D01*
X246862286Y-135628117D01*
X246824191Y-135475736D01*
X246824191Y-135285260D01*
X246862286Y-135132879D01*
X246900381Y-135056689D01*
X246938477Y-135018594D01*
X247014667Y-134980498D01*
X247624191Y-135780498D02*
X247624191Y-134980498D01*
X247700381Y-135475736D02*
X247928953Y-135780498D01*
X247928953Y-135247165D02*
X247624191Y-135551927D01*
%TO.C,C36*%
X248847472Y-129779126D02*
X248885567Y-129741030D01*
X248923662Y-129779126D01*
X248885567Y-129817221D01*
X248847472Y-129779126D01*
X248923662Y-129779126D01*
X248923662Y-128979126D02*
X248923662Y-129436269D01*
X248923662Y-129207697D02*
X248123662Y-129207697D01*
X248237948Y-129283888D01*
X248314138Y-129360078D01*
X248352234Y-129436269D01*
X248390329Y-128293411D02*
X248923662Y-128293411D01*
X248390329Y-128636269D02*
X248809377Y-128636269D01*
X248885567Y-128598173D01*
X248923662Y-128521983D01*
X248923662Y-128407697D01*
X248885567Y-128331507D01*
X248847472Y-128293411D01*
%TO.C,C23*%
X193528571Y-123393095D02*
X193566666Y-123355000D01*
X193642857Y-123316904D01*
X193833333Y-123316904D01*
X193909523Y-123355000D01*
X193947619Y-123393095D01*
X193985714Y-123469285D01*
X193985714Y-123545476D01*
X193947619Y-123659761D01*
X193490476Y-124116904D01*
X193985714Y-124116904D01*
X194290476Y-123393095D02*
X194328571Y-123355000D01*
X194404761Y-123316904D01*
X194595238Y-123316904D01*
X194671428Y-123355000D01*
X194709523Y-123393095D01*
X194747619Y-123469285D01*
X194747619Y-123545476D01*
X194709523Y-123659761D01*
X194252380Y-124116904D01*
X194747619Y-124116904D01*
X195090476Y-123583571D02*
X195090476Y-124383571D01*
X195090476Y-123621666D02*
X195166666Y-123583571D01*
X195319047Y-123583571D01*
X195395238Y-123621666D01*
X195433333Y-123659761D01*
X195471428Y-123735952D01*
X195471428Y-123964523D01*
X195433333Y-124040714D01*
X195395238Y-124078809D01*
X195319047Y-124116904D01*
X195166666Y-124116904D01*
X195090476Y-124078809D01*
D16*
%TO.C,J6*%
X201462500Y-144898211D02*
X201462500Y-142798211D01*
X197962500Y-142798211D02*
X198032500Y-142798211D01*
X197162500Y-142798211D02*
X197962500Y-142798211D01*
X201462500Y-142798211D02*
X200562500Y-142798211D01*
X197162500Y-144898211D02*
X197162500Y-142798211D01*
D17*
X198393210Y-142188211D02*
G75*
G03*
X198393210Y-142188211I-100710J0D01*
G01*
D16*
%TO.C,Y1*%
X195700000Y-137095000D02*
X199000000Y-137095000D01*
X199000000Y-137095000D02*
X199000000Y-133095000D01*
%TO.C,R15*%
X205746359Y-126170000D02*
X206053641Y-126170000D01*
X205746359Y-126930000D02*
X206053641Y-126930000D01*
%TO.C,Y2*%
X191725000Y-123580000D02*
X190375000Y-123580000D01*
X191725000Y-121830000D02*
X190375000Y-121830000D01*
%TO.C,C34*%
X224042409Y-123322500D02*
X224323569Y-123322500D01*
X224042409Y-122302500D02*
X224323569Y-122302500D01*
%TO.C,J3*%
X181387500Y-146055000D02*
X181387500Y-141855000D01*
X177487500Y-146055000D02*
X177487500Y-141855000D01*
X181687500Y-146455000D02*
X177187500Y-146455000D01*
X177187500Y-146455000D02*
X177187500Y-140455000D01*
X177187500Y-140455000D02*
X181687500Y-140455000D01*
X181687500Y-140455000D02*
X181687500Y-146455000D01*
%TO.C,R14*%
X186270000Y-126958641D02*
X186270000Y-126651359D01*
X187030000Y-126958641D02*
X187030000Y-126651359D01*
%TO.C,R26*%
X227686359Y-142980000D02*
X227993641Y-142980000D01*
X227686359Y-142220000D02*
X227993641Y-142220000D01*
D12*
%TO.C,IC6*%
X225892989Y-126467500D02*
X224692989Y-126467500D01*
%TO.C,Q2*%
X183925000Y-137840000D02*
X183925000Y-140760000D01*
X183775000Y-140760000D02*
X183775000Y-137840000D01*
X183775000Y-137840000D02*
X183925000Y-137840000D01*
X183925000Y-140760000D02*
X183775000Y-140760000D01*
X185525000Y-140800000D02*
X184275000Y-140800000D01*
D16*
%TO.C,C13*%
X214692164Y-131415000D02*
X214907836Y-131415000D01*
X214692164Y-130695000D02*
X214907836Y-130695000D01*
%TO.C,C28*%
X249235620Y-142626430D02*
X249235620Y-142410758D01*
X249955620Y-142626430D02*
X249955620Y-142410758D01*
%TO.C,C11*%
X202340000Y-140447164D02*
X202340000Y-140662836D01*
X203060000Y-140447164D02*
X203060000Y-140662836D01*
%TO.C,C20*%
X249201758Y-125328433D02*
X249201758Y-125544105D01*
X249921758Y-125328433D02*
X249921758Y-125544105D01*
%TO.C,J8*%
D18*
X237122989Y-130797500D02*
G75*
G03*
X237122989Y-130797500I-155000J0D01*
G01*
D16*
%TO.C,C14*%
X191892164Y-131265000D02*
X192107836Y-131265000D01*
X191892164Y-130545000D02*
X192107836Y-130545000D01*
D14*
%TO.C,IC14*%
X232765000Y-143687500D02*
G75*
G03*
X232765000Y-143687500I-125000J0D01*
G01*
D16*
%TO.C,R13*%
X179003641Y-139320000D02*
X178696359Y-139320000D01*
X179003641Y-140080000D02*
X178696359Y-140080000D01*
%TO.C,F1*%
X189737221Y-139310000D02*
X190062779Y-139310000D01*
X189737221Y-138290000D02*
X190062779Y-138290000D01*
D19*
%TO.C,S2*%
X184230000Y-141697000D02*
X184230000Y-141697000D01*
D12*
X183150000Y-144355000D02*
X183150000Y-145155000D01*
X183752000Y-146055000D02*
X189248000Y-146055000D01*
X189850000Y-144355000D02*
X189850000Y-145155000D01*
D19*
X184294000Y-141697000D02*
X184294000Y-141697000D01*
X184230000Y-141697000D02*
G75*
G03*
X184294000Y-141697000I32000J0D01*
G01*
X184294000Y-141697000D02*
G75*
G03*
X184230000Y-141697000I-32000J0D01*
G01*
D16*
%TO.C,R28*%
X248858117Y-132946269D02*
X249165399Y-132946269D01*
X248858117Y-132186269D02*
X249165399Y-132186269D01*
%TO.C,J14*%
X232375489Y-131975711D02*
X232375489Y-129875711D01*
X228075489Y-129875711D02*
X228875489Y-129875711D01*
X228875489Y-129875711D02*
X228945489Y-129875711D01*
X228075489Y-131975711D02*
X228075489Y-129875711D01*
X232375489Y-129875711D02*
X231475489Y-129875711D01*
D17*
X229306199Y-129265711D02*
G75*
G03*
X229306199Y-129265711I-100710J0D01*
G01*
D16*
%TO.C,R25*%
X248858117Y-122186269D02*
X249165399Y-122186269D01*
X248858117Y-122946269D02*
X249165399Y-122946269D01*
%TO.C,R24*%
X230726630Y-127362500D02*
X230419348Y-127362500D01*
X230726630Y-128122500D02*
X230419348Y-128122500D01*
%TO.C,J16*%
X169372500Y-130383210D02*
X170172500Y-130383210D01*
X170172500Y-130383210D02*
X170242500Y-130383210D01*
X173672500Y-130383210D02*
X172772500Y-130383210D01*
X173672500Y-132483210D02*
X173672500Y-130383210D01*
X169372500Y-132483210D02*
X169372500Y-130383210D01*
D17*
X170603210Y-129773210D02*
G75*
G03*
X170603210Y-129773210I-100710J0D01*
G01*
D16*
%TO.C,C9*%
X205740000Y-140447164D02*
X205740000Y-140662836D01*
X206460000Y-140447164D02*
X206460000Y-140662836D01*
D14*
%TO.C,IC12*%
X232727989Y-126972500D02*
G75*
G03*
X232727989Y-126972500I-125000J0D01*
G01*
D12*
%TO.C,IC7*%
X240800556Y-143592338D02*
X241684439Y-142708454D01*
X242066277Y-142383185D02*
X244131029Y-144447937D01*
X244131029Y-144447937D02*
X244024963Y-144554003D01*
X241960211Y-142489251D02*
X242066277Y-142383185D01*
X244024963Y-144554003D02*
X241960211Y-142489251D01*
D16*
%TO.C,R9*%
X198203641Y-140735000D02*
X197896359Y-140735000D01*
X198203641Y-139975000D02*
X197896359Y-139975000D01*
%TO.C,C16*%
X190040580Y-140090000D02*
X189759420Y-140090000D01*
X190040580Y-141110000D02*
X189759420Y-141110000D01*
%TO.C,R11*%
X194920000Y-124101359D02*
X194920000Y-124408641D01*
X195680000Y-124101359D02*
X195680000Y-124408641D01*
D12*
%TO.C,IC4*%
X179900000Y-131550000D02*
X179900000Y-134450000D01*
X177750000Y-131500000D02*
X178950000Y-131500000D01*
X179900000Y-134450000D02*
X179300000Y-134450000D01*
X179300000Y-134450000D02*
X179300000Y-131550000D01*
X179300000Y-131550000D02*
X179900000Y-131550000D01*
D16*
%TO.C,R19*%
X185356359Y-129190000D02*
X185663641Y-129190000D01*
X185356359Y-128430000D02*
X185663641Y-128430000D01*
D12*
%TO.C,IC8*%
X242921876Y-135123530D02*
X243805760Y-136007413D01*
X242066277Y-138454003D02*
X241960211Y-138347937D01*
X244131029Y-136389251D02*
X242066277Y-138454003D01*
X244024963Y-136283185D02*
X244131029Y-136389251D01*
X241960211Y-138347937D02*
X244024963Y-136283185D01*
D16*
%TO.C,J15*%
X226532500Y-134930000D02*
X226532500Y-139130000D01*
X222632500Y-134930000D02*
X222632500Y-139130000D01*
X222332500Y-134530000D02*
X226832500Y-134530000D01*
X226832500Y-134530000D02*
X226832500Y-140530000D01*
X226832500Y-140530000D02*
X222332500Y-140530000D01*
X222332500Y-140530000D02*
X222332500Y-134530000D01*
%TO.C,C22*%
X192060000Y-133047164D02*
X192060000Y-133262836D01*
X191340000Y-133047164D02*
X191340000Y-133262836D01*
%TO.C,R2*%
X195896359Y-141225000D02*
X196203641Y-141225000D01*
X195896359Y-141985000D02*
X196203641Y-141985000D01*
%TO.C,C10*%
X212392164Y-133415000D02*
X212607836Y-133415000D01*
X212392164Y-132695000D02*
X212607836Y-132695000D01*
%TO.C,C18*%
X198192164Y-122565000D02*
X198407836Y-122565000D01*
X198192164Y-121845000D02*
X198407836Y-121845000D01*
%TO.C,R31*%
X215220000Y-129256359D02*
X215220000Y-129563641D01*
X214460000Y-129256359D02*
X214460000Y-129563641D01*
%TO.C,C5*%
X211877836Y-125320000D02*
X211662164Y-125320000D01*
X211877836Y-126040000D02*
X211662164Y-126040000D01*
%TO.C,R17*%
X183877064Y-137160000D02*
X182422936Y-137160000D01*
X183877064Y-135340000D02*
X182422936Y-135340000D01*
D12*
%TO.C,Q3*%
X180460000Y-137125000D02*
X177540000Y-137125000D01*
X177540000Y-136975000D02*
X180460000Y-136975000D01*
X177500000Y-138725000D02*
X177500000Y-137475000D01*
X180460000Y-136975000D02*
X180460000Y-137125000D01*
X177540000Y-137125000D02*
X177540000Y-136975000D01*
%TO.C,Q4*%
X185910000Y-131380000D02*
X182990000Y-131380000D01*
X185910000Y-131230000D02*
X185910000Y-131380000D01*
X182950000Y-132980000D02*
X182950000Y-131730000D01*
X182990000Y-131230000D02*
X185910000Y-131230000D01*
X182990000Y-131380000D02*
X182990000Y-131230000D01*
%TO.C,Q6*%
X201700000Y-126130000D02*
X201700000Y-127380000D01*
X198740000Y-127730000D02*
X201660000Y-127730000D01*
X198740000Y-127880000D02*
X198740000Y-127730000D01*
X201660000Y-127730000D02*
X201660000Y-127880000D01*
X201660000Y-127880000D02*
X198740000Y-127880000D01*
D16*
%TO.C,C7*%
X192540000Y-133812836D02*
X192540000Y-133597164D01*
X193260000Y-133812836D02*
X193260000Y-133597164D01*
%TO.C,R16*%
X209643641Y-126220000D02*
X209336359Y-126220000D01*
X209643641Y-126980000D02*
X209336359Y-126980000D01*
%TO.C,J5*%
X203750000Y-125255000D02*
X203680000Y-125255000D01*
X200250000Y-125255000D02*
X201150000Y-125255000D01*
X200250000Y-123155000D02*
X200250000Y-125255000D01*
X204550000Y-125255000D02*
X203750000Y-125255000D01*
X204550000Y-123155000D02*
X204550000Y-125255000D01*
D17*
X203520710Y-125865000D02*
G75*
G03*
X203520710Y-125865000I-100710J0D01*
G01*
D16*
%TO.C,R21*%
X215800000Y-129553641D02*
X215800000Y-129246359D01*
X216560000Y-129553641D02*
X216560000Y-129246359D01*
%TO.C,J1*%
X193735000Y-139241529D02*
X193735000Y-138695000D01*
X193735000Y-140915000D02*
X193735000Y-140368471D01*
X193735000Y-138695000D02*
X196210000Y-138695000D01*
X196210000Y-139497470D02*
X196210000Y-138695000D01*
X192975000Y-140915000D02*
X192215000Y-140915000D01*
X192215000Y-140915000D02*
X192215000Y-139805000D01*
X193735000Y-140915000D02*
X196210000Y-140915000D01*
X196210000Y-140915000D02*
X196210000Y-140112530D01*
D12*
%TO.C,IC11*%
X222990000Y-141525000D02*
X224190000Y-141525000D01*
D16*
%TO.C,R7*%
X212170000Y-136051359D02*
X212170000Y-136358641D01*
X212930000Y-136051359D02*
X212930000Y-136358641D01*
%TO.C,C2*%
X208857836Y-127495000D02*
X208642164Y-127495000D01*
X208857836Y-128215000D02*
X208642164Y-128215000D01*
%TO.C,C12*%
X212392164Y-133895000D02*
X212607836Y-133895000D01*
X212392164Y-134615000D02*
X212607836Y-134615000D01*
%TO.C,R8*%
X211830000Y-136051359D02*
X211830000Y-136358641D01*
X211070000Y-136051359D02*
X211070000Y-136358641D01*
%TO.C,R18*%
X183116359Y-128430000D02*
X183423641Y-128430000D01*
X183116359Y-129190000D02*
X183423641Y-129190000D01*
%TO.C,R3*%
X199420000Y-135908641D02*
X199420000Y-135601359D01*
X200180000Y-135908641D02*
X200180000Y-135601359D01*
%TO.C,U3*%
X197585943Y-125350000D02*
X197710943Y-125350000D01*
X198410943Y-124150000D02*
X198310943Y-124150000D01*
X198910943Y-123350000D02*
X198910943Y-125350000D01*
X196935943Y-125350000D02*
X197085943Y-125350000D01*
X198710943Y-124150000D02*
X198410943Y-124150000D01*
X197735943Y-123350000D02*
X197610943Y-123350000D01*
X198385943Y-125350000D02*
X198235943Y-125350000D01*
X198510943Y-124350000D02*
X198510943Y-123950000D01*
X196410943Y-125350000D02*
X196410943Y-123350000D01*
X198385943Y-123350000D02*
X198260943Y-123350000D01*
X197085943Y-123350000D02*
X196960943Y-123350000D01*
D20*
X199240000Y-125150000D02*
G75*
G03*
X199240000Y-125150000I-109057J0D01*
G01*
D16*
%TO.C,R1*%
X183440000Y-127303641D02*
X183440000Y-126996359D01*
X182680000Y-127303641D02*
X182680000Y-126996359D01*
D12*
%TO.C,Q5*%
X215025000Y-125120000D02*
X215175000Y-125120000D01*
X215175000Y-125120000D02*
X215175000Y-128040000D01*
X216775000Y-128080000D02*
X215525000Y-128080000D01*
X215025000Y-128040000D02*
X215025000Y-125120000D01*
X215175000Y-128040000D02*
X215025000Y-128040000D01*
D16*
%TO.C,C26*%
X187510000Y-132795580D02*
X187510000Y-132514420D01*
X186490000Y-132795580D02*
X186490000Y-132514420D01*
%TO.C,J2*%
X177642500Y-122070000D02*
X177642500Y-126270000D01*
X181542500Y-122070000D02*
X181542500Y-126270000D01*
X177342500Y-121670000D02*
X181842500Y-121670000D01*
X181842500Y-121670000D02*
X181842500Y-127670000D01*
X181842500Y-127670000D02*
X177342500Y-127670000D01*
X177342500Y-127670000D02*
X177342500Y-121670000D01*
%TO.C,C24*%
X179657836Y-130860000D02*
X179442164Y-130860000D01*
X179657836Y-130140000D02*
X179442164Y-130140000D01*
%TO.C,C4*%
X194440000Y-136147164D02*
X194440000Y-136362836D01*
X195160000Y-136147164D02*
X195160000Y-136362836D01*
%TO.C,J7*%
X206462500Y-144898211D02*
X206462500Y-142798211D01*
X202962500Y-142798211D02*
X203032500Y-142798211D01*
X206462500Y-142798211D02*
X205562500Y-142798211D01*
X202162500Y-142798211D02*
X202962500Y-142798211D01*
X202162500Y-144898211D02*
X202162500Y-142798211D01*
D17*
X203393210Y-142188211D02*
G75*
G03*
X203393210Y-142188211I-100710J0D01*
G01*
D16*
%TO.C,C29*%
X189309420Y-131295000D02*
X189590580Y-131295000D01*
X189309420Y-132315000D02*
X189590580Y-132315000D01*
%TO.C,J10*%
X222670489Y-133102500D02*
X222670489Y-128902500D01*
X226570489Y-133102500D02*
X226570489Y-128902500D01*
X226870489Y-133502500D02*
X222370489Y-133502500D01*
X222370489Y-133502500D02*
X222370489Y-127502500D01*
X222370489Y-127502500D02*
X226870489Y-127502500D01*
X226870489Y-127502500D02*
X226870489Y-133502500D01*
%TO.C,J9*%
D18*
X234620000Y-137150000D02*
G75*
G03*
X234620000Y-137150000I-155000J0D01*
G01*
D16*
%TO.C,D1*%
X196685000Y-145990000D02*
X196685000Y-143705000D01*
X195215000Y-143705000D02*
X195215000Y-145990000D01*
X195215000Y-145990000D02*
X196685000Y-145990000D01*
%TO.C,C1*%
X194940000Y-129947164D02*
X194940000Y-130162836D01*
X195660000Y-129947164D02*
X195660000Y-130162836D01*
%TO.C,J11*%
D18*
X252516758Y-124366269D02*
G75*
G03*
X252516758Y-124366269I-155000J0D01*
G01*
D16*
%TO.C,C21*%
X187777836Y-123065000D02*
X187562164Y-123065000D01*
X187777836Y-122345000D02*
X187562164Y-122345000D01*
%TO.C,D3*%
X187900000Y-138150000D02*
X187900000Y-140700000D01*
X187900000Y-138150000D02*
X186200000Y-138150000D01*
X186200000Y-138150000D02*
X186200000Y-140700000D01*
%TO.C,J13*%
X231567500Y-138146790D02*
X231497500Y-138146790D01*
X228067500Y-136046790D02*
X228067500Y-138146790D01*
X232367500Y-136046790D02*
X232367500Y-138146790D01*
X232367500Y-138146790D02*
X231567500Y-138146790D01*
X228067500Y-138146790D02*
X228967500Y-138146790D01*
D17*
X231338210Y-138756790D02*
G75*
G03*
X231338210Y-138756790I-100710J0D01*
G01*
D16*
%TO.C,R20*%
X193280000Y-136008641D02*
X193280000Y-135701359D01*
X192520000Y-136008641D02*
X192520000Y-135701359D01*
D12*
%TO.C,IC1*%
X202104200Y-129955000D02*
X202104200Y-130455000D01*
X202104200Y-136455000D02*
X202104200Y-136955000D01*
D11*
X208204200Y-129055000D02*
X208204200Y-129055000D01*
D12*
X202104200Y-136955000D02*
X202604200Y-136955000D01*
X209104200Y-129955000D02*
X208604200Y-129955000D01*
X209104200Y-136955000D02*
X208604200Y-136955000D01*
X209104200Y-130455000D02*
X209104200Y-129955000D01*
X209104200Y-136455000D02*
X209104200Y-136955000D01*
X202604200Y-129955000D02*
X202104200Y-129955000D01*
D11*
X208204200Y-128955000D02*
X208204200Y-128955000D01*
X208204200Y-128955000D02*
G75*
G03*
X208204200Y-129055000I0J-50000D01*
G01*
X208204200Y-129055000D02*
G75*
G03*
X208204200Y-128955000I0J50000D01*
G01*
D16*
%TO.C,C30*%
X229451252Y-145760000D02*
X228028748Y-145760000D01*
X229451252Y-143940000D02*
X228028748Y-143940000D01*
D12*
%TO.C,S1*%
X214700000Y-132405000D02*
X215700000Y-132405000D01*
X214700000Y-136605000D02*
X215700000Y-136605000D01*
X213600000Y-136605000D02*
X213600000Y-132405000D01*
X216800000Y-132405000D02*
X216800000Y-136605000D01*
X214164370Y-137411000D02*
G75*
G03*
X214164370Y-137411000I-53370J0D01*
G01*
D16*
%TO.C,J4*%
X209787500Y-123111790D02*
X209787500Y-125211790D01*
X209787500Y-125211790D02*
X208987500Y-125211790D01*
X208987500Y-125211790D02*
X208917500Y-125211790D01*
X205487500Y-125211790D02*
X206387500Y-125211790D01*
X205487500Y-123111790D02*
X205487500Y-125211790D01*
D17*
X208758210Y-125821790D02*
G75*
G03*
X208758210Y-125821790I-100710J0D01*
G01*
D16*
%TO.C,R4*%
X184696359Y-126520000D02*
X185003641Y-126520000D01*
X184696359Y-127280000D02*
X185003641Y-127280000D01*
D10*
%TO.C,IC3*%
X215300000Y-122305000D02*
X212300000Y-122305000D01*
X213800000Y-124545000D02*
X212300000Y-124545000D01*
D21*
X215417500Y-124675000D02*
G75*
G03*
X215417500Y-124675000I-117500J0D01*
G01*
D16*
%TO.C,R23*%
X192520000Y-138158641D02*
X192520000Y-137851359D01*
X193280000Y-138158641D02*
X193280000Y-137851359D01*
%TO.C,R27*%
X249149261Y-145748594D02*
X248841979Y-145748594D01*
X249149261Y-144988594D02*
X248841979Y-144988594D01*
%TO.C,R12*%
X195680000Y-127908641D02*
X195680000Y-127601359D01*
X194920000Y-127908641D02*
X194920000Y-127601359D01*
D12*
%TO.C,IC5*%
X190225000Y-137405000D02*
X189475000Y-137405000D01*
X189475000Y-137405000D02*
X189475000Y-134505000D01*
X187975000Y-134355000D02*
X189125000Y-134355000D01*
X190225000Y-134505000D02*
X190225000Y-137405000D01*
X189475000Y-134505000D02*
X190225000Y-134505000D01*
%TO.C,Q1*%
X185310000Y-124175000D02*
X182390000Y-124175000D01*
X182390000Y-124175000D02*
X182390000Y-124025000D01*
X185310000Y-124025000D02*
X185310000Y-124175000D01*
X182390000Y-124025000D02*
X185310000Y-124025000D01*
X182350000Y-125775000D02*
X182350000Y-124525000D01*
%TO.C,IC9*%
X241976349Y-125495612D02*
X244041101Y-123430860D01*
X242082415Y-125601678D02*
X241976349Y-125495612D01*
X244147167Y-123536926D02*
X242082415Y-125601678D01*
X242938014Y-122271205D02*
X243821898Y-123155088D01*
X244041101Y-123430860D02*
X244147167Y-123536926D01*
D14*
%TO.C,IC2*%
X213759200Y-127776400D02*
G75*
G03*
X213759200Y-127776400I-125000J0D01*
G01*
D16*
%TO.C,C8*%
X199357836Y-137695000D02*
X199142164Y-137695000D01*
X199357836Y-138415000D02*
X199142164Y-138415000D01*
%TO.C,L1*%
X189600279Y-133965000D02*
X189274721Y-133965000D01*
X189600279Y-132945000D02*
X189274721Y-132945000D01*
%TO.C,C27*%
X224730580Y-144640000D02*
X224449420Y-144640000D01*
X224730580Y-145660000D02*
X224449420Y-145660000D01*
D12*
%TO.C,IC10*%
X241976349Y-129636926D02*
X242082415Y-129530860D01*
X242082415Y-129530860D02*
X244147167Y-131595612D01*
X244041101Y-131701678D02*
X241976349Y-129636926D01*
X244147167Y-131595612D02*
X244041101Y-131701678D01*
X240816694Y-130740013D02*
X241700577Y-129856129D01*
D16*
%TO.C,C25*%
X185407836Y-133695000D02*
X185192164Y-133695000D01*
X185407836Y-134415000D02*
X185192164Y-134415000D01*
%TO.C,J12*%
D18*
X252450620Y-143618594D02*
G75*
G03*
X252450620Y-143618594I-155000J0D01*
G01*
D16*
%TO.C,C3*%
X194440000Y-133992836D02*
X194440000Y-133777164D01*
X195160000Y-133992836D02*
X195160000Y-133777164D01*
D12*
%TO.C,S3*%
X193825000Y-145755000D02*
X192825000Y-145755000D01*
X191725000Y-145755000D02*
X191725000Y-141555000D01*
X193825000Y-141555000D02*
X192825000Y-141555000D01*
X194925000Y-141555000D02*
X194925000Y-145755000D01*
X194467370Y-140749000D02*
G75*
G03*
X194467370Y-140749000I-53370J0D01*
G01*
D16*
%TO.C,AC1*%
X193550000Y-126405000D02*
X193550000Y-125455000D01*
X193400000Y-129255000D02*
X193525000Y-129255000D01*
X193550000Y-125455000D02*
X193400000Y-125455000D01*
X193525000Y-129255000D02*
X193550000Y-129255000D01*
X188350000Y-125455000D02*
X188500000Y-125455000D01*
X193550000Y-129255000D02*
X193550000Y-128305000D01*
X188350000Y-128355000D02*
X188350000Y-129230000D01*
X188350000Y-129230000D02*
X188350000Y-129255000D01*
D12*
X188750000Y-124505000D02*
X188750000Y-124505000D01*
D16*
X188350000Y-129255000D02*
X188500000Y-129255000D01*
X188350000Y-126280000D02*
X188350000Y-125455000D01*
D12*
X188750000Y-124605000D02*
X188750000Y-124605000D01*
X188750000Y-124605000D02*
X188750000Y-124605000D01*
X188750000Y-124505000D02*
G75*
G03*
X188750000Y-124605000I0J-50000D01*
G01*
X188750000Y-124605000D02*
G75*
G03*
X188750000Y-124505000I0J50000D01*
G01*
X188750000Y-124605000D02*
G75*
G03*
X188750000Y-124505000I0J50000D01*
G01*
D16*
%TO.C,C35*%
X249185620Y-138790758D02*
X249185620Y-139006430D01*
X249905620Y-138790758D02*
X249905620Y-139006430D01*
%TO.C,C15*%
X187260000Y-136345580D02*
X187260000Y-136064420D01*
X186240000Y-136345580D02*
X186240000Y-136064420D01*
%TO.C,C19*%
X228131737Y-122112500D02*
X229554241Y-122112500D01*
X228131737Y-123932500D02*
X229554241Y-123932500D01*
%TO.C,J18*%
X170306790Y-141262500D02*
X170306790Y-142062500D01*
X170306790Y-142062500D02*
X170306790Y-142132500D01*
X170306790Y-145562500D02*
X170306790Y-144662500D01*
X168206790Y-145562500D02*
X170306790Y-145562500D01*
X168206790Y-141262500D02*
X170306790Y-141262500D01*
D17*
X171017500Y-142392500D02*
G75*
G03*
X171017500Y-142392500I-100710J0D01*
G01*
D16*
%TO.C,R29*%
X249099261Y-135038594D02*
X248791979Y-135038594D01*
X249099261Y-135798594D02*
X248791979Y-135798594D01*
%TO.C,C36*%
X249971758Y-129144105D02*
X249971758Y-128928433D01*
X249251758Y-129144105D02*
X249251758Y-128928433D01*
%TO.C,U1*%
X207730000Y-139075000D02*
X216370000Y-139075000D01*
X216370000Y-139075000D02*
X216370000Y-146425000D01*
X216370000Y-146425000D02*
X207730000Y-146425000D01*
X207730000Y-146425000D02*
X207730000Y-139075000D01*
%TO.C,C23*%
X194342164Y-123065000D02*
X194557836Y-123065000D01*
X194342164Y-122345000D02*
X194557836Y-122345000D01*
%TD*%
M02*
