%TF.GenerationSoftware,KiCad,Pcbnew,(6.0.4)*%
%TF.CreationDate,2023-04-22T21:53:27+09:00*%
%TF.ProjectId,kaguya-elec,6b616775-7961-42d6-956c-65632e6b6963,rev?*%
%TF.SameCoordinates,Original*%
%TF.FileFunction,Soldermask,Top*%
%TF.FilePolarity,Negative*%
%FSLAX46Y46*%
G04 Gerber Fmt 4.6, Leading zero omitted, Abs format (unit mm)*
G04 Created by KiCad (PCBNEW (6.0.4)) date 2023-04-22 21:53:27*
%MOMM*%
%LPD*%
G01*
G04 APERTURE LIST*
G04 Aperture macros list*
%AMRoundRect*
0 Rectangle with rounded corners*
0 $1 Rounding radius*
0 $2 $3 $4 $5 $6 $7 $8 $9 X,Y pos of 4 corners*
0 Add a 4 corners polygon primitive as box body*
4,1,4,$2,$3,$4,$5,$6,$7,$8,$9,$2,$3,0*
0 Add four circle primitives for the rounded corners*
1,1,$1+$1,$2,$3*
1,1,$1+$1,$4,$5*
1,1,$1+$1,$6,$7*
1,1,$1+$1,$8,$9*
0 Add four rect primitives between the rounded corners*
20,1,$1+$1,$2,$3,$4,$5,0*
20,1,$1+$1,$4,$5,$6,$7,0*
20,1,$1+$1,$6,$7,$8,$9,0*
20,1,$1+$1,$8,$9,$2,$3,0*%
%AMRotRect*
0 Rectangle, with rotation*
0 The origin of the aperture is its center*
0 $1 length*
0 $2 width*
0 $3 Rotation angle, in degrees counterclockwise*
0 Add horizontal line*
21,1,$1,$2,0,0,$3*%
G04 Aperture macros list end*
%ADD10R,0.300000X0.650000*%
%ADD11R,0.500000X1.150000*%
%ADD12R,1.200000X1.400000*%
%ADD13RoundRect,0.135000X-0.135000X-0.185000X0.135000X-0.185000X0.135000X0.185000X-0.135000X0.185000X0*%
%ADD14R,1.000000X1.800000*%
%ADD15RoundRect,0.225000X-0.225000X-0.250000X0.225000X-0.250000X0.225000X0.250000X-0.225000X0.250000X0*%
%ADD16O,1.030000X1.730000*%
%ADD17RoundRect,0.135000X0.185000X-0.135000X0.185000X0.135000X-0.185000X0.135000X-0.185000X-0.135000X0*%
%ADD18R,1.200000X0.450000*%
%ADD19R,1.250000X0.600000*%
%ADD20RoundRect,0.140000X-0.140000X-0.170000X0.140000X-0.170000X0.140000X0.170000X-0.140000X0.170000X0*%
%ADD21RoundRect,0.140000X0.170000X-0.140000X0.170000X0.140000X-0.170000X0.140000X-0.170000X-0.140000X0*%
%ADD22RoundRect,0.140000X-0.170000X0.140000X-0.170000X-0.140000X0.170000X-0.140000X0.170000X0.140000X0*%
%ADD23O,1.100000X8.400000*%
%ADD24R,1.500000X0.600000*%
%ADD25R,0.700000X0.300000*%
%ADD26R,1.000000X1.700000*%
%ADD27RoundRect,0.135000X0.135000X0.185000X-0.135000X0.185000X-0.135000X-0.185000X0.135000X-0.185000X0*%
%ADD28RoundRect,0.218750X-0.218750X-0.256250X0.218750X-0.256250X0.218750X0.256250X-0.218750X0.256250X0*%
%ADD29C,1.200000*%
%ADD30C,0.900000*%
%ADD31R,0.700000X1.500000*%
%ADD32R,1.000000X0.800000*%
%ADD33RotRect,0.600000X1.250000X135.000000*%
%ADD34RoundRect,0.225000X0.225000X0.250000X-0.225000X0.250000X-0.225000X-0.250000X0.225000X-0.250000X0*%
%ADD35RoundRect,0.135000X-0.185000X0.135000X-0.185000X-0.135000X0.185000X-0.135000X0.185000X0.135000X0*%
%ADD36R,1.200000X0.600000*%
%ADD37R,2.000000X1.500000*%
%ADD38RotRect,0.600000X1.250000X45.000000*%
%ADD39C,1.630000*%
%ADD40O,3.500000X2.000000*%
%ADD41R,1.500000X2.000000*%
%ADD42RoundRect,0.140000X0.140000X0.170000X-0.140000X0.170000X-0.140000X-0.170000X0.140000X-0.170000X0*%
%ADD43RoundRect,0.250000X0.312500X0.625000X-0.312500X0.625000X-0.312500X-0.625000X0.312500X-0.625000X0*%
%ADD44R,0.600000X1.250000*%
%ADD45R,1.000000X1.000000*%
%ADD46O,1.000000X1.000000*%
%ADD47R,0.350000X0.500000*%
%ADD48RoundRect,0.225000X0.250000X-0.225000X0.250000X0.225000X-0.250000X0.225000X-0.250000X-0.225000X0*%
%ADD49RoundRect,0.218750X0.256250X-0.218750X0.256250X0.218750X-0.256250X0.218750X-0.256250X-0.218750X0*%
%ADD50R,4.000000X0.600000*%
%ADD51R,0.450000X0.600000*%
%ADD52R,0.200000X0.875000*%
%ADD53R,0.875000X0.200000*%
%ADD54R,3.200000X3.200000*%
%ADD55RoundRect,0.250000X0.325000X0.650000X-0.325000X0.650000X-0.325000X-0.650000X0.325000X-0.650000X0*%
%ADD56R,0.650000X1.050000*%
%ADD57R,0.750000X0.300000*%
%ADD58R,1.360000X1.460000*%
%ADD59R,1.150000X0.600000*%
%ADD60R,0.300000X0.900000*%
%ADD61R,1.650000X0.250000*%
%ADD62RoundRect,0.218750X0.218750X0.256250X-0.218750X0.256250X-0.218750X-0.256250X0.218750X-0.256250X0*%
%ADD63R,0.250000X1.274500*%
%ADD64R,1.174500X0.250000*%
%ADD65RoundRect,0.250000X-0.325000X-0.650000X0.325000X-0.650000X0.325000X0.650000X-0.325000X0.650000X0*%
%ADD66R,0.650000X0.300000*%
%ADD67R,1.150000X0.500000*%
%ADD68C,0.650000*%
%ADD69R,0.600000X1.140000*%
%ADD70R,0.300000X1.140000*%
%ADD71O,1.000000X1.800000*%
%ADD72O,1.000000X2.100000*%
G04 APERTURE END LIST*
D10*
%TO.C,J6*%
X198297500Y-142798211D03*
X198797500Y-142798211D03*
X199297500Y-142798211D03*
X199797500Y-142798211D03*
X200297500Y-142798211D03*
D11*
X201282500Y-145608211D03*
X197312500Y-145608211D03*
%TD*%
D12*
%TO.C,Y1*%
X198200000Y-136195000D03*
X198200000Y-133995000D03*
X196500000Y-133995000D03*
X196500000Y-136195000D03*
%TD*%
D13*
%TO.C,R15*%
X205390000Y-126550000D03*
X206410000Y-126550000D03*
%TD*%
D14*
%TO.C,Y2*%
X189800000Y-122705000D03*
X192300000Y-122705000D03*
%TD*%
D15*
%TO.C,C34*%
X223407989Y-122812500D03*
X224957989Y-122812500D03*
%TD*%
D16*
%TO.C,J3*%
X180187500Y-141855000D03*
X178687500Y-141855000D03*
%TD*%
D17*
%TO.C,R14*%
X186650000Y-127315000D03*
X186650000Y-126295000D03*
%TD*%
D13*
%TO.C,R26*%
X227330000Y-142600000D03*
X228350000Y-142600000D03*
%TD*%
D18*
%TO.C,IC6*%
X225292989Y-125992500D03*
X225292989Y-125342500D03*
X225292989Y-124692500D03*
X223492989Y-124692500D03*
X223492989Y-125992500D03*
%TD*%
D19*
%TO.C,Q2*%
X184900000Y-140250000D03*
X184900000Y-138350000D03*
X182800000Y-139300000D03*
%TD*%
D20*
%TO.C,C13*%
X214320000Y-131055000D03*
X215280000Y-131055000D03*
%TD*%
D21*
%TO.C,C28*%
X249595620Y-142998594D03*
X249595620Y-142038594D03*
%TD*%
D22*
%TO.C,C11*%
X202700000Y-140075000D03*
X202700000Y-141035000D03*
%TD*%
%TO.C,C20*%
X249561758Y-124956269D03*
X249561758Y-125916269D03*
%TD*%
D23*
%TO.C,J8*%
X235692989Y-127547500D03*
D24*
X234392989Y-130072500D03*
X236992989Y-130072500D03*
X236992989Y-129072500D03*
X234392989Y-129072500D03*
X236992989Y-128072500D03*
X234392989Y-128072500D03*
X234392989Y-127072500D03*
X236992989Y-127072500D03*
X234392989Y-126072500D03*
X236992989Y-126072500D03*
X236992989Y-125072500D03*
X234392989Y-125072500D03*
%TD*%
D20*
%TO.C,C14*%
X191520000Y-130905000D03*
X192480000Y-130905000D03*
%TD*%
D25*
%TO.C,IC14*%
X232290000Y-143037500D03*
X232290000Y-142537500D03*
X232290000Y-142037500D03*
X232290000Y-141537500D03*
X230190000Y-141537500D03*
X230190000Y-142037500D03*
X230190000Y-142537500D03*
X230190000Y-143037500D03*
D26*
X231240000Y-142287500D03*
%TD*%
D27*
%TO.C,R13*%
X179360000Y-139700000D03*
X178340000Y-139700000D03*
%TD*%
D28*
%TO.C,F1*%
X189112500Y-138800000D03*
X190687500Y-138800000D03*
%TD*%
D29*
%TO.C,S2*%
X185000000Y-144755000D03*
D30*
X188000000Y-144755000D03*
D31*
X184250000Y-143005000D03*
X187250000Y-143005000D03*
X188750000Y-143005000D03*
D32*
X182850000Y-143655000D03*
X182850000Y-145855000D03*
X190150000Y-143655000D03*
X190150000Y-145855000D03*
%TD*%
D13*
%TO.C,R28*%
X248501758Y-132566269D03*
X249521758Y-132566269D03*
%TD*%
D10*
%TO.C,J14*%
X229210489Y-129875711D03*
X229710489Y-129875711D03*
X230210489Y-129875711D03*
X230710489Y-129875711D03*
X231210489Y-129875711D03*
D11*
X232195489Y-132685711D03*
X228225489Y-132685711D03*
%TD*%
D13*
%TO.C,R25*%
X248501758Y-122566269D03*
X249521758Y-122566269D03*
%TD*%
D27*
%TO.C,R24*%
X231082989Y-127742500D03*
X230062989Y-127742500D03*
%TD*%
D10*
%TO.C,J16*%
X170507500Y-130383210D03*
X171007500Y-130383210D03*
X171507500Y-130383210D03*
X172007500Y-130383210D03*
X172507500Y-130383210D03*
D11*
X173492500Y-133193210D03*
X169522500Y-133193210D03*
%TD*%
D22*
%TO.C,C9*%
X206100000Y-140075000D03*
X206100000Y-141035000D03*
%TD*%
D25*
%TO.C,IC12*%
X232252989Y-126322500D03*
X232252989Y-125822500D03*
X232252989Y-125322500D03*
X232252989Y-124822500D03*
X230152989Y-124822500D03*
X230152989Y-125322500D03*
X230152989Y-125822500D03*
X230152989Y-126322500D03*
D26*
X231202989Y-125572500D03*
%TD*%
D33*
%TO.C,IC7*%
X241631406Y-143539305D03*
X242974909Y-144882808D03*
X243788082Y-142726132D03*
%TD*%
D27*
%TO.C,R9*%
X198560000Y-140355000D03*
X197540000Y-140355000D03*
%TD*%
D34*
%TO.C,C16*%
X190675000Y-140600000D03*
X189125000Y-140600000D03*
%TD*%
D35*
%TO.C,R11*%
X195300000Y-123745000D03*
X195300000Y-124765000D03*
%TD*%
D36*
%TO.C,IC4*%
X178350000Y-132050000D03*
X178350000Y-133000000D03*
X178350000Y-133950000D03*
X180850000Y-133950000D03*
X180850000Y-132050000D03*
%TD*%
D37*
%TO.C,J19*%
X172730000Y-137486656D03*
X172730000Y-139486656D03*
X172730000Y-141486656D03*
X172730000Y-143486656D03*
X172730000Y-145486656D03*
%TD*%
D13*
%TO.C,R19*%
X185000000Y-128810000D03*
X186020000Y-128810000D03*
%TD*%
D38*
%TO.C,IC8*%
X242974909Y-135954380D03*
X241631406Y-137297883D03*
X243788082Y-138111056D03*
%TD*%
D16*
%TO.C,J15*%
X223832500Y-139130000D03*
X225332500Y-139130000D03*
%TD*%
D39*
%TO.C,M1*%
X245861758Y-127566269D03*
D40*
X245861758Y-124166269D03*
X245861758Y-130966269D03*
%TD*%
D22*
%TO.C,C22*%
X191700000Y-132675000D03*
X191700000Y-133635000D03*
%TD*%
D13*
%TO.C,R2*%
X195540000Y-141605000D03*
X196560000Y-141605000D03*
%TD*%
D20*
%TO.C,C10*%
X212020000Y-133055000D03*
X212980000Y-133055000D03*
%TD*%
%TO.C,C18*%
X197820000Y-122205000D03*
X198780000Y-122205000D03*
%TD*%
D41*
%TO.C,J17*%
X173000000Y-128000000D03*
X170500000Y-128000000D03*
X173000000Y-125460000D03*
X170500000Y-125460000D03*
X173000000Y-122920000D03*
X170500000Y-122920000D03*
%TD*%
D35*
%TO.C,R31*%
X214840000Y-128900000D03*
X214840000Y-129920000D03*
%TD*%
D42*
%TO.C,C5*%
X212250000Y-125680000D03*
X211290000Y-125680000D03*
%TD*%
D43*
%TO.C,R17*%
X184612500Y-136250000D03*
X181687500Y-136250000D03*
%TD*%
D44*
%TO.C,Q3*%
X178050000Y-138100000D03*
X179950000Y-138100000D03*
X179000000Y-136000000D03*
%TD*%
%TO.C,Q4*%
X183500000Y-132355000D03*
X185400000Y-132355000D03*
X184450000Y-130255000D03*
%TD*%
%TO.C,Q6*%
X201150000Y-126755000D03*
X199250000Y-126755000D03*
X200200000Y-128855000D03*
%TD*%
D21*
%TO.C,C7*%
X192900000Y-134185000D03*
X192900000Y-133225000D03*
%TD*%
D27*
%TO.C,R16*%
X210000000Y-126600000D03*
X208980000Y-126600000D03*
%TD*%
D10*
%TO.C,J5*%
X203415000Y-125255000D03*
X202915000Y-125255000D03*
X202415000Y-125255000D03*
X201915000Y-125255000D03*
X201415000Y-125255000D03*
D11*
X200430000Y-122445000D03*
X204400000Y-122445000D03*
%TD*%
D17*
%TO.C,R21*%
X216180000Y-129910000D03*
X216180000Y-128890000D03*
%TD*%
D45*
%TO.C,J1*%
X192975000Y-139805000D03*
D46*
X194245000Y-139805000D03*
X195515000Y-139805000D03*
%TD*%
D18*
%TO.C,IC11*%
X223590000Y-142000000D03*
X223590000Y-142650000D03*
X223590000Y-143300000D03*
X225390000Y-143300000D03*
X225390000Y-142000000D03*
%TD*%
D35*
%TO.C,R7*%
X212550000Y-135695000D03*
X212550000Y-136715000D03*
%TD*%
D42*
%TO.C,C2*%
X209230000Y-127855000D03*
X208270000Y-127855000D03*
%TD*%
D20*
%TO.C,C12*%
X212020000Y-134255000D03*
X212980000Y-134255000D03*
%TD*%
D35*
%TO.C,R8*%
X211450000Y-135695000D03*
X211450000Y-136715000D03*
%TD*%
D13*
%TO.C,R18*%
X182760000Y-128810000D03*
X183780000Y-128810000D03*
%TD*%
D17*
%TO.C,R3*%
X199800000Y-136265000D03*
X199800000Y-135245000D03*
%TD*%
D47*
%TO.C,U3*%
X198630943Y-125150000D03*
X197980943Y-125150000D03*
X197330943Y-125150000D03*
X196680943Y-125150000D03*
X196690943Y-123550000D03*
X197340943Y-123550000D03*
X197990943Y-123550000D03*
X198640943Y-123550000D03*
%TD*%
D17*
%TO.C,R1*%
X183060000Y-127660000D03*
X183060000Y-126640000D03*
%TD*%
D19*
%TO.C,Q5*%
X216150000Y-127530000D03*
X216150000Y-125630000D03*
X214050000Y-126580000D03*
%TD*%
D48*
%TO.C,C26*%
X187000000Y-133430000D03*
X187000000Y-131880000D03*
%TD*%
D16*
%TO.C,J2*%
X178842500Y-126270000D03*
X180342500Y-126270000D03*
%TD*%
D42*
%TO.C,C24*%
X180030000Y-130500000D03*
X179070000Y-130500000D03*
%TD*%
D22*
%TO.C,C4*%
X194800000Y-135775000D03*
X194800000Y-136735000D03*
%TD*%
D10*
%TO.C,J7*%
X203297500Y-142798211D03*
X203797500Y-142798211D03*
X204297500Y-142798211D03*
X204797500Y-142798211D03*
X205297500Y-142798211D03*
D11*
X202312500Y-145608211D03*
X206282500Y-145608211D03*
%TD*%
D15*
%TO.C,C29*%
X188675000Y-131805000D03*
X190225000Y-131805000D03*
%TD*%
D16*
%TO.C,J10*%
X225370489Y-128902500D03*
X223870489Y-128902500D03*
%TD*%
D23*
%TO.C,J9*%
X235740000Y-140400000D03*
D24*
X237040000Y-137875000D03*
X234440000Y-137875000D03*
X237040000Y-138875000D03*
X234440000Y-138875000D03*
X237040000Y-139875000D03*
X234440000Y-139875000D03*
X237040000Y-140875000D03*
X234440000Y-140875000D03*
X237040000Y-141875000D03*
X234440000Y-141875000D03*
X237040000Y-142875000D03*
X234440000Y-142875000D03*
%TD*%
D49*
%TO.C,D1*%
X195950000Y-145292500D03*
X195950000Y-143717500D03*
%TD*%
D22*
%TO.C,C1*%
X195300000Y-129575000D03*
X195300000Y-130535000D03*
%TD*%
D50*
%TO.C,J11*%
X252361758Y-125066269D03*
X252361758Y-125066269D03*
X252361758Y-126066269D03*
X252361758Y-126066269D03*
X252361758Y-127066269D03*
X252361758Y-127066269D03*
X252361758Y-128066269D03*
X252361758Y-128066269D03*
X252361758Y-129066269D03*
X252361758Y-129066269D03*
X252361758Y-130066269D03*
X252361758Y-130066269D03*
%TD*%
D42*
%TO.C,C21*%
X188150000Y-122705000D03*
X187190000Y-122705000D03*
%TD*%
D51*
%TO.C,D3*%
X187050000Y-138600000D03*
X187050000Y-140700000D03*
%TD*%
D39*
%TO.C,M2*%
X245845620Y-140418594D03*
D40*
X245845620Y-143818594D03*
X245845620Y-137018594D03*
%TD*%
D10*
%TO.C,J13*%
X231232500Y-138146790D03*
X230732500Y-138146790D03*
X230232500Y-138146790D03*
X229732500Y-138146790D03*
X229232500Y-138146790D03*
D11*
X228247500Y-135336790D03*
X232217500Y-135336790D03*
%TD*%
D17*
%TO.C,R20*%
X192900000Y-136365000D03*
X192900000Y-135345000D03*
%TD*%
D52*
%TO.C,IC1*%
X208204200Y-130017000D03*
X207804200Y-130017000D03*
X207404200Y-130017000D03*
X207004200Y-130017000D03*
X206604200Y-130017000D03*
X206204200Y-130017000D03*
X205804200Y-130017000D03*
X205404200Y-130017000D03*
X205004200Y-130017000D03*
X204604200Y-130017000D03*
X204204200Y-130017000D03*
X203804200Y-130017000D03*
X203404200Y-130017000D03*
X203004200Y-130017000D03*
D53*
X202166200Y-130855000D03*
X202166200Y-131255000D03*
X202166200Y-131655000D03*
X202166200Y-132055000D03*
X202166200Y-132455000D03*
X202166200Y-132855000D03*
X202166200Y-133255000D03*
X202166200Y-133655000D03*
X202166200Y-134055000D03*
X202166200Y-134455000D03*
X202166200Y-134855000D03*
X202166200Y-135255000D03*
X202166200Y-135655000D03*
X202166200Y-136055000D03*
D52*
X203004200Y-136893000D03*
X203404200Y-136893000D03*
X203804200Y-136893000D03*
X204204200Y-136893000D03*
X204604200Y-136893000D03*
X205004200Y-136893000D03*
X205404200Y-136893000D03*
X205804200Y-136893000D03*
X206204200Y-136893000D03*
X206604200Y-136893000D03*
X207004200Y-136893000D03*
X207404200Y-136893000D03*
X207804200Y-136893000D03*
X208204200Y-136893000D03*
D53*
X209042200Y-136055000D03*
X209042200Y-135655000D03*
X209042200Y-135255000D03*
X209042200Y-134855000D03*
X209042200Y-134455000D03*
X209042200Y-134055000D03*
X209042200Y-133655000D03*
X209042200Y-133255000D03*
X209042200Y-132855000D03*
X209042200Y-132455000D03*
X209042200Y-132055000D03*
X209042200Y-131655000D03*
X209042200Y-131255000D03*
X209042200Y-130855000D03*
D54*
X205604200Y-133455000D03*
%TD*%
D55*
%TO.C,C30*%
X230215000Y-144850000D03*
X227265000Y-144850000D03*
%TD*%
D56*
%TO.C,S1*%
X214125000Y-136580000D03*
X214125000Y-132430000D03*
X216275000Y-136580000D03*
X216275000Y-132430000D03*
%TD*%
D10*
%TO.C,J4*%
X208652500Y-125211790D03*
X208152500Y-125211790D03*
X207652500Y-125211790D03*
X207152500Y-125211790D03*
X206652500Y-125211790D03*
D11*
X209637500Y-122401790D03*
X205667500Y-122401790D03*
%TD*%
D13*
%TO.C,R4*%
X184340000Y-126900000D03*
X185360000Y-126900000D03*
%TD*%
D57*
%TO.C,IC3*%
X215300000Y-124175000D03*
X215300000Y-123675000D03*
X215300000Y-123175000D03*
X215300000Y-122675000D03*
X212300000Y-122675000D03*
X212300000Y-123175000D03*
X212300000Y-123675000D03*
X212300000Y-124175000D03*
D58*
X213800000Y-123425000D03*
%TD*%
D17*
%TO.C,R23*%
X192900000Y-138515000D03*
X192900000Y-137495000D03*
%TD*%
D27*
%TO.C,R27*%
X249505620Y-145368594D03*
X248485620Y-145368594D03*
%TD*%
D17*
%TO.C,R12*%
X195300000Y-128265000D03*
X195300000Y-127245000D03*
%TD*%
D59*
%TO.C,IC5*%
X188550000Y-135005000D03*
X188550000Y-135955000D03*
X188550000Y-136905000D03*
X191150000Y-136905000D03*
X191150000Y-135955000D03*
X191150000Y-135005000D03*
%TD*%
D44*
%TO.C,Q1*%
X182900000Y-125150000D03*
X184800000Y-125150000D03*
X183850000Y-123050000D03*
%TD*%
D38*
%TO.C,IC9*%
X242991047Y-123102055D03*
X241647544Y-124445558D03*
X243804220Y-125258731D03*
%TD*%
D60*
%TO.C,IC2*%
X212984200Y-128226400D03*
X212484200Y-128226400D03*
X211984200Y-128226400D03*
X211484200Y-128226400D03*
X211484200Y-131026400D03*
X211984200Y-131026400D03*
X212484200Y-131026400D03*
X212984200Y-131026400D03*
D61*
X212234200Y-129626400D03*
%TD*%
D42*
%TO.C,C8*%
X199730000Y-138055000D03*
X198770000Y-138055000D03*
%TD*%
D62*
%TO.C,L1*%
X190225000Y-133455000D03*
X188650000Y-133455000D03*
%TD*%
D34*
%TO.C,C27*%
X225365000Y-145150000D03*
X223815000Y-145150000D03*
%TD*%
D33*
%TO.C,IC10*%
X241647544Y-130686980D03*
X242991047Y-132030483D03*
X243804220Y-129873807D03*
%TD*%
D42*
%TO.C,C25*%
X185780000Y-134055000D03*
X184820000Y-134055000D03*
%TD*%
D50*
%TO.C,J12*%
X252295620Y-142918594D03*
X252295620Y-142918594D03*
X252295620Y-141918594D03*
X252295620Y-141918594D03*
X252295620Y-140918594D03*
X252295620Y-140918594D03*
X252295620Y-139918594D03*
X252295620Y-139918594D03*
X252295620Y-138918594D03*
X252295620Y-138918594D03*
X252295620Y-137918594D03*
X252295620Y-137918594D03*
%TD*%
D21*
%TO.C,C3*%
X194800000Y-134365000D03*
X194800000Y-133405000D03*
%TD*%
D56*
%TO.C,S3*%
X194400000Y-141580000D03*
X194400000Y-145730000D03*
X192250000Y-141580000D03*
X192250000Y-145730000D03*
%TD*%
D63*
%TO.C,AC1*%
X188700000Y-125492250D03*
D64*
X188337250Y-126605000D03*
X188337250Y-127105000D03*
X188337250Y-127605000D03*
X188337250Y-128105000D03*
D63*
X188700000Y-129217750D03*
X189200000Y-129217750D03*
X189700000Y-129217750D03*
X190200000Y-129217750D03*
X190700000Y-129217750D03*
X191200000Y-129217750D03*
X191700000Y-129217750D03*
X192200000Y-129217750D03*
X192700000Y-129217750D03*
X193200000Y-129217750D03*
D64*
X193562750Y-128105000D03*
X193562750Y-127605000D03*
X193562750Y-127105000D03*
X193562750Y-126605000D03*
D63*
X193200000Y-125492250D03*
X192700000Y-125492250D03*
X192200000Y-125492250D03*
X191700000Y-125492250D03*
X191200000Y-125492250D03*
X190700000Y-125492250D03*
X190200000Y-125492250D03*
X189700000Y-125492250D03*
X189200000Y-125492250D03*
%TD*%
D22*
%TO.C,C35*%
X249545620Y-138418594D03*
X249545620Y-139378594D03*
%TD*%
D48*
%TO.C,C15*%
X186750000Y-136980000D03*
X186750000Y-135430000D03*
%TD*%
D65*
%TO.C,C19*%
X227367989Y-123022500D03*
X230317989Y-123022500D03*
%TD*%
D66*
%TO.C,J18*%
X170306790Y-142397500D03*
X170306790Y-142897500D03*
X170306790Y-143397500D03*
X170306790Y-143897500D03*
X170306790Y-144397500D03*
D67*
X167496790Y-145382500D03*
X167496790Y-141412500D03*
%TD*%
D27*
%TO.C,R29*%
X249455620Y-135418594D03*
X248435620Y-135418594D03*
%TD*%
D21*
%TO.C,C36*%
X249611758Y-129516269D03*
X249611758Y-128556269D03*
%TD*%
D68*
%TO.C,U1*%
X209160000Y-140125000D03*
X214940000Y-140125000D03*
D69*
X208850000Y-139055000D03*
X209650000Y-139055000D03*
D70*
X210300000Y-139055000D03*
X210800000Y-139055000D03*
X211300000Y-139055000D03*
X211800000Y-139055000D03*
X212300000Y-139055000D03*
X212800000Y-139055000D03*
X213300000Y-139055000D03*
X213800000Y-139055000D03*
D69*
X214450000Y-139055000D03*
X215250000Y-139055000D03*
D71*
X207730000Y-143805000D03*
D72*
X207730000Y-139625000D03*
X216370000Y-139625000D03*
D71*
X216370000Y-143805000D03*
%TD*%
D20*
%TO.C,C23*%
X193970000Y-122705000D03*
X194930000Y-122705000D03*
%TD*%
M02*
