M48
; DRILL file {KiCad (6.0.4)} date Sat Apr 22 21:53:28 2023
; FORMAT={-:-/ absolute / metric / decimal}
; #@! TF.CreationDate,2023-04-22T21:53:28+09:00
; #@! TF.GenerationSoftware,Kicad,Pcbnew,(6.0.4)
; #@! TF.FileFunction,MixedPlating,1,4
FMAT,2
METRIC
; #@! TA.AperFunction,Plated,PTH,ViaDrill
T1C0.300
; #@! TA.AperFunction,Plated,PTH,ViaDrill
T2C0.350
; #@! TA.AperFunction,Plated,PTH,ViaDrill
T3C0.400
; #@! TA.AperFunction,Plated,PTH,ComponentDrill
T4C0.600
; #@! TA.AperFunction,Plated,PTH,ComponentDrill
T5C0.650
; #@! TA.AperFunction,Plated,PTH,ComponentDrill
T6C0.730
; #@! TA.AperFunction,Plated,PTH,ComponentDrill
T7C0.900
; #@! TA.AperFunction,Plated,PTH,ComponentDrill
T8C1.020
; #@! TA.AperFunction,NonPlated,NPTH,ComponentDrill
T9C0.650
; #@! TA.AperFunction,NonPlated,NPTH,ComponentDrill
T10C0.900
; #@! TA.AperFunction,NonPlated,NPTH,ComponentDrill
T11C1.100
; #@! TA.AperFunction,NonPlated,NPTH,ComponentDrill
T12C1.630
%
G90
G05
T1
X178.15Y-144.455
X187.2Y-122.655
X192.9Y-134.755
X195.0Y-122.755
X195.3Y-128.265
X196.745Y-132.774
X198.8Y-122.255
X198.85Y-129.355
X200.2Y-130.326
X201.15Y-126.505
X201.313Y-133.925
X201.75Y-136.705
X203.944Y-127.154
X203.95Y-126.455
X206.075Y-127.616
X207.535Y-128.84
X208.172Y-129.13
X208.85Y-137.95
X212.234Y-129.626
X213.45Y-131.055
X214.05Y-136.355
T2
X170.5Y-125.46
X170.5Y-128.0
X172.73Y-137.487
X172.73Y-139.487
X172.73Y-141.487
X172.73Y-143.487
X172.73Y-145.487
X173.0Y-125.46
X173.0Y-128.0
X177.45Y-145.88
X177.85Y-136.54
X178.35Y-132.05
X178.35Y-133.0
X179.05Y-130.55
X179.45Y-128.6
X180.85Y-132.05
X181.28Y-138.37
X183.5Y-132.805
X184.6Y-133.955
X184.8Y-125.15
X185.35Y-132.75
X185.6Y-122.7
X185.75Y-137.55
X185.99Y-128.81
X186.65Y-124.955
X186.7Y-140.8
X186.92Y-128.86
X187.0Y-131.3
X187.5Y-140.805
X187.9Y-134.955
X188.75Y-143.005
X189.125Y-140.6
X190.2Y-131.25
X192.26Y-143.65
X192.55Y-130.955
X192.9Y-133.255
X193.05Y-132.105
X193.761Y-137.755
X194.8Y-135.055
X195.95Y-145.292
X195.975Y-130.53
X196.25Y-136.555
X196.45Y-142.405
X197.3Y-122.705
X197.75Y-142.35
X198.05Y-141.055
X198.3Y-124.355
X198.45Y-133.655
X198.8Y-137.65
X199.25Y-126.755
X200.475Y-142.356
X200.95Y-125.255
X202.7Y-141.005
X202.708Y-140.013
X203.35Y-135.555
X203.505Y-134.105
X203.75Y-144.85
X204.784Y-129.08
X205.4Y-123.755
X205.41Y-126.495
X206.1Y-140.005
X206.125Y-141.055
X206.209Y-125.205
X206.5Y-143.0
X206.782Y-137.914
X207.494Y-124.425
X207.756Y-137.865
X208.01Y-135.075
X208.1Y-130.905
X208.339Y-127.725
X208.728Y-123.778
X209.0Y-136.805
X209.65Y-139.255
X210.03Y-125.92
X210.1Y-133.434
X211.28Y-123.254
X211.29Y-125.68
X212.98Y-133.775
X213.63Y-128.66
X213.87Y-123.425
X214.05Y-126.58
X214.45Y-139.255
X214.841Y-128.899
X216.15Y-125.63
X216.18Y-129.96
X216.32Y-132.47
X223.438Y-122.812
X225.723Y-122.782
X230.083Y-126.512
X231.513Y-130.138
X233.963Y-127.093
X237.113Y-127.062
X247.496Y-135.6
X248.132Y-122.196
X248.496Y-144.669
X249.095Y-126.933
X249.446Y-141.519
X249.846Y-135.619
X250.419Y-125.866
X250.996Y-137.919
X251.046Y-139.869
X251.196Y-142.919
X251.412Y-125.016
X251.562Y-129.066
X251.646Y-138.919
X251.696Y-141.919
X252.062Y-126.066
X252.062Y-128.066
X252.062Y-130.066
X252.246Y-140.919
X252.246Y-142.919
X252.296Y-137.919
X252.346Y-139.919
X252.662Y-125.066
X252.662Y-127.066
X252.662Y-129.066
X252.796Y-138.919
X253.162Y-128.066
X253.262Y-130.066
T3
X170.5Y-122.92
X171.526Y-131.356
X173.0Y-122.92
X173.09Y-130.37
X178.075Y-122.03
X182.7Y-142.13
X186.375Y-134.055
X187.5Y-133.45
X188.65Y-132.8
X190.8Y-127.355
X200.02Y-137.35
X202.35Y-123.055
X204.45Y-132.305
X204.45Y-133.455
X204.45Y-134.605
X205.6Y-132.305
X205.6Y-133.455
X205.6Y-134.605
X206.01Y-144.54
X206.75Y-132.305
X206.75Y-133.455
X206.75Y-134.605
X207.132Y-145.75
X207.5Y-122.605
X210.8Y-141.58
X213.8Y-141.58
X216.42Y-122.53
X222.29Y-142.7
X222.49Y-140.1
X222.49Y-145.3
X222.69Y-135.7
X222.913Y-132.162
X223.39Y-141.45
X224.49Y-144.1
X224.64Y-135.8
X225.14Y-141.475
X226.113Y-132.362
X226.89Y-145.5
X227.09Y-135.3
X227.253Y-123.012
X227.513Y-128.362
X227.89Y-138.3
X228.313Y-123.012
X229.09Y-139.3
X229.932Y-136.95
X230.113Y-132.062
X230.18Y-143.35
X230.215Y-144.85
X230.24Y-135.85
X230.433Y-122.542
X231.09Y-135.3
X231.14Y-144.85
X231.249Y-141.928
X231.29Y-140.7
X232.013Y-127.712
X232.03Y-139.59
X232.263Y-126.912
X232.303Y-124.282
X232.659Y-145.689
X232.713Y-122.762
X232.89Y-137.3
X233.39Y-139.787
X233.89Y-135.3
X233.913Y-132.162
X234.04Y-144.3
X234.39Y-137.85
X234.413Y-130.088
X234.491Y-140.877
X236.713Y-122.762
X236.89Y-145.5
X237.04Y-140.85
X237.09Y-135.3
X237.09Y-144.1
X237.113Y-123.962
X250.628Y-127.966
T5
X192.975Y-139.805
X194.245Y-139.805
X195.515Y-139.805
T6
X178.688Y-141.855
X178.843Y-126.27
X180.188Y-141.855
X180.343Y-126.27
X223.832Y-139.13
X223.87Y-128.903
X225.332Y-139.13
X225.37Y-128.903
T7
X185.0Y-144.755
T9
X209.16Y-140.125
X214.94Y-140.125
T10
X188.0Y-144.755
T12
X245.846Y-140.419
X245.862Y-127.566
T4
G00X207.73Y-140.175
M15
G01X207.73Y-139.075
M16
G05
G00X207.73Y-144.205
M15
G01X207.73Y-143.405
M16
G05
G00X216.37Y-140.175
M15
G01X216.37Y-139.075
M16
G05
G00X216.37Y-144.205
M15
G01X216.37Y-143.405
M16
G05
T8
G00X245.086Y-137.019
M15
G01X246.606Y-137.019
M16
G05
G00X245.086Y-143.819
M15
G01X246.606Y-143.819
M16
G05
G00X246.622Y-124.166
M15
G01X245.102Y-124.166
M16
G05
G00X246.622Y-130.966
M15
G01X245.102Y-130.966
M16
G05
T11
G00X235.693Y-131.197
M15
G01X235.693Y-123.897
M16
G05
G00X235.74Y-136.75
M15
G01X235.74Y-144.05
M16
G05
T0
M30
