%FSLAX45Y45*%
G04 Gerber Fmt 4.5, Leading zero omitted, Abs format (unit mm)*
G04 Created by KiCad (PCBNEW (6.0.4)) date 2023-03-26 23:07:18*
%MOMM*%
%LPD*%
G01*
G04 APERTURE LIST*
%TA.AperFunction,Profile*%
%ADD10C,0.100000*%
%TD*%
%ADD11C,0.200000*%
%ADD12C,0.035000*%
%ADD13C,0.040000*%
%ADD14C,0.060000*%
%ADD15C,0.065000*%
%ADD16C,0.073000*%
%ADD17C,0.075000*%
%ADD18C,0.102000*%
%ADD19C,0.070000*%
%ADD20C,0.090000*%
%ADD21C,0.110000*%
%ADD22C,0.163000*%
%ADD23C,0.220000*%
G04 APERTURE END LIST*
D10*
X24890562Y-14535859D02*
X24890562Y-14585859D01*
X24890916Y-13635504D02*
G75*
G03*
X24940917Y-13685504I50004J4D01*
G01*
X23541500Y-13252000D02*
X22111500Y-13252000D01*
X21709997Y-12150000D02*
G75*
G03*
X22011500Y-12152000I150753J-760D01*
G01*
X24042377Y-12050377D02*
G75*
G03*
X23942377Y-12150377I3J-100003D01*
G01*
X24889850Y-13586570D02*
G75*
G03*
X24789851Y-13486570I-100000J0D01*
G01*
X24790562Y-14685859D02*
X24040562Y-14685859D01*
X23541500Y-13252000D02*
G75*
G03*
X23641500Y-13152000I0J100000D01*
G01*
X25240562Y-14485152D02*
G75*
G03*
X25290562Y-14435149I-2J50002D01*
G01*
X24890955Y-12150377D02*
X24892732Y-12200022D01*
X24042377Y-12050377D02*
X24790955Y-12050377D01*
X24942377Y-13050377D02*
G75*
G03*
X24892377Y-13100377I3J-50003D01*
G01*
X24890953Y-12150377D02*
G75*
G03*
X24790955Y-12050377I-99993J7D01*
G01*
X23941664Y-13149666D02*
G75*
G03*
X24041666Y-13249666I100006J6D01*
G01*
X23941750Y-13148250D02*
G75*
G03*
X23641750Y-13148250I-150000J0D01*
G01*
X24892738Y-12200022D02*
G75*
G03*
X24942732Y-12250022I50002J2D01*
G01*
X25242022Y-13050022D02*
X24942377Y-13050377D01*
X24889851Y-13586570D02*
X24890917Y-13635504D01*
X24791666Y-13249666D02*
X24041666Y-13249666D01*
X23640750Y-13588250D02*
G75*
G03*
X23540750Y-13488250I-100000J0D01*
G01*
X25240562Y-14485149D02*
X24940562Y-14485859D01*
X22011500Y-13152000D02*
G75*
G03*
X22111500Y-13252000I100000J0D01*
G01*
X17584310Y-12185014D02*
X20910430Y-12184310D01*
X22010745Y-14588250D02*
G75*
G03*
X21710000Y-14585000I-150355J3250D01*
G01*
X24790562Y-14685862D02*
G75*
G03*
X24890562Y-14585859I-2J100002D01*
G01*
X16810000Y-12185000D02*
X16810711Y-14585289D01*
X24892377Y-13100377D02*
X24891666Y-13149666D01*
X25242022Y-13050022D02*
G75*
G03*
X25292022Y-13000022I-2J50002D01*
G01*
X24791666Y-13249666D02*
G75*
G03*
X24891666Y-13149666I4J99996D01*
G01*
X16810711Y-14585289D02*
G75*
G03*
X16910711Y-14685289I99999J-1D01*
G01*
X23641000Y-12144000D02*
G75*
G03*
X23941000Y-12144000I150000J0D01*
G01*
X21610000Y-14685000D02*
G75*
G03*
X21710000Y-14585000I0J100000D01*
G01*
X21710000Y-12185000D02*
X21710000Y-11930000D01*
X24041273Y-13486573D02*
G75*
G03*
X23941273Y-13586570I-3J-99997D01*
G01*
X18559998Y-14685102D02*
X19960000Y-14685000D01*
X22111500Y-12052000D02*
G75*
G03*
X22011500Y-12152000I0J-100000D01*
G01*
X24942732Y-12250022D02*
X25242022Y-12250732D01*
X23641500Y-12152000D02*
G75*
G03*
X23541500Y-12052000I-100000J0D01*
G01*
X23540750Y-14688250D02*
X22110750Y-14688250D01*
X20460000Y-14685000D02*
X21610000Y-14685000D01*
X24940917Y-13685504D02*
X25240562Y-13685859D01*
X25290562Y-13735859D02*
X25290562Y-14435149D01*
X25292028Y-12300732D02*
G75*
G03*
X25242022Y-12250732I-50008J-8D01*
G01*
X21710000Y-11930000D02*
G75*
G03*
X21190000Y-11930000I-260000J-5000D01*
G01*
X23640005Y-13584000D02*
G75*
G03*
X23941273Y-13586570I150645J0D01*
G01*
X21710000Y-13587000D02*
G75*
G03*
X22010000Y-13587000I150000J0D01*
G01*
X16910711Y-14685289D02*
X18060000Y-14685000D01*
X23940561Y-14585859D02*
G75*
G03*
X24040562Y-14685859I99999J-1D01*
G01*
X22110750Y-13488250D02*
X23540750Y-13488250D01*
X22110750Y-13488250D02*
G75*
G03*
X22010750Y-13588250I0J-100000D01*
G01*
X25292022Y-12300732D02*
X25292022Y-13000022D01*
X22111500Y-12052000D02*
X23541500Y-12052000D01*
X21710000Y-13155000D02*
X21710000Y-13587000D01*
X25290561Y-13735859D02*
G75*
G03*
X25240562Y-13685859I-50001J-1D01*
G01*
X19960000Y-14685000D02*
G75*
G03*
X20460000Y-14685000I250000J0D01*
G01*
X17330006Y-11905444D02*
G75*
G03*
X17584310Y-12185014I259304J-19576D01*
G01*
X17330000Y-11920000D02*
G75*
G03*
X16810000Y-11920000I-260000J-5000D01*
G01*
X24940562Y-14485862D02*
G75*
G03*
X24890562Y-14535859I-2J-49998D01*
G01*
X20910430Y-12184311D02*
G75*
G03*
X21190000Y-11930000I19570J259311D01*
G01*
X22010000Y-13155000D02*
G75*
G03*
X21710000Y-13155000I-150000J0D01*
G01*
X23940750Y-14588250D02*
G75*
G03*
X23640750Y-14588250I-150000J0D01*
G01*
X24041273Y-13486570D02*
X24789851Y-13486570D01*
X22010750Y-14588250D02*
G75*
G03*
X22110750Y-14688250I100000J0D01*
G01*
X23540750Y-14688250D02*
G75*
G03*
X23640750Y-14588250I0J100000D01*
G01*
X16810000Y-12185000D02*
X16810000Y-11920000D01*
X18060004Y-14685000D02*
G75*
G03*
X18559998Y-14685102I249996J-5100D01*
G01*
D11*
D12*
X17632500Y-12962500D02*
X17667500Y-12997500D01*
X17667500Y-12962500D02*
X17632500Y-12997500D01*
X17722500Y-13082500D02*
X17757500Y-13117500D01*
X17757500Y-13082500D02*
X17722500Y-13117500D01*
X17902500Y-13242500D02*
X17937500Y-13277500D01*
X17937500Y-13242500D02*
X17902500Y-13277500D01*
X18242500Y-13042500D02*
X18277500Y-13077500D01*
X18277500Y-13042500D02*
X18242500Y-13077500D01*
X18262500Y-12327500D02*
X18297500Y-12362500D01*
X18297500Y-12327500D02*
X18262500Y-12362500D01*
X18432500Y-13202500D02*
X18467500Y-13237500D01*
X18467500Y-13202500D02*
X18432500Y-13237500D01*
X18587500Y-13572500D02*
X18622500Y-13607500D01*
X18622500Y-13572500D02*
X18587500Y-13607500D01*
X18782500Y-13642500D02*
X18817500Y-13677500D01*
X18817500Y-13642500D02*
X18782500Y-13677500D01*
X18808981Y-13329065D02*
X18843981Y-13364065D01*
X18843981Y-13329065D02*
X18808981Y-13364065D01*
X18902500Y-13497500D02*
X18937500Y-13532500D01*
X18937500Y-13497500D02*
X18902500Y-13532500D01*
X19082500Y-12337500D02*
X19117500Y-12372500D01*
X19117500Y-12337500D02*
X19082500Y-12372500D01*
X19138309Y-13526550D02*
X19173309Y-13561550D01*
X19173309Y-13526550D02*
X19138309Y-13561550D01*
X19242500Y-12257500D02*
X19277500Y-12292500D01*
X19277500Y-12257500D02*
X19242500Y-12292500D01*
X19372500Y-12257500D02*
X19407500Y-12292500D01*
X19407500Y-12257500D02*
X19372500Y-12292500D01*
X19432500Y-12692500D02*
X19467500Y-12727500D01*
X19467500Y-12692500D02*
X19432500Y-12727500D01*
X19771402Y-12866160D02*
X19806402Y-12901160D01*
X19806402Y-12866160D02*
X19771402Y-12901160D01*
X19831723Y-13139457D02*
X19866723Y-13174457D01*
X19866723Y-13139457D02*
X19831723Y-13174457D01*
X19873500Y-13804500D02*
X19908500Y-13839500D01*
X19908500Y-13804500D02*
X19873500Y-13839500D01*
X19890663Y-13080515D02*
X19925663Y-13115515D01*
X19925663Y-13080515D02*
X19890663Y-13115515D01*
X19982500Y-13030500D02*
X20017500Y-13065500D01*
X20017500Y-13030500D02*
X19982500Y-13065500D01*
X20083500Y-13644450D02*
X20118500Y-13679450D01*
X20118500Y-13644450D02*
X20083500Y-13679450D01*
X20562500Y-12947500D02*
X20597500Y-12982500D01*
X20597500Y-12947500D02*
X20562500Y-12982500D01*
X20862500Y-14041450D02*
X20897500Y-14076450D01*
X20897500Y-14041450D02*
X20862500Y-14076450D01*
X20922500Y-14202500D02*
X20957500Y-14237500D01*
X20957500Y-14202500D02*
X20922500Y-14237500D01*
X21222500Y-14202500D02*
X21257500Y-14237500D01*
X21257500Y-14202500D02*
X21222500Y-14237500D01*
X21292500Y-14122500D02*
X21327500Y-14157500D01*
X21327500Y-14122500D02*
X21292500Y-14157500D01*
X21362500Y-12937500D02*
X21397500Y-12972500D01*
X21397500Y-12937500D02*
X21362500Y-12972500D01*
X22172500Y-12157500D02*
X22207500Y-12192500D01*
X22207500Y-12157500D02*
X22172500Y-12192500D01*
X22401000Y-12154500D02*
X22436000Y-12189500D01*
X22436000Y-12154500D02*
X22401000Y-12189500D01*
X22836998Y-12527500D02*
X22871998Y-12562500D01*
X22871998Y-12527500D02*
X22836998Y-12562500D01*
X22980000Y-12890050D02*
X23015000Y-12925050D01*
X23015000Y-12890050D02*
X22980000Y-12925050D01*
X23225000Y-12585500D02*
X23260000Y-12620500D01*
X23260000Y-12585500D02*
X23225000Y-12620500D01*
X23540000Y-12582452D02*
X23575000Y-12617452D01*
X23575000Y-12582452D02*
X23540000Y-12617452D01*
X24578062Y-13586529D02*
X24613062Y-13621529D01*
X24613062Y-13586529D02*
X24578062Y-13621529D01*
X24641877Y-12095877D02*
X24676877Y-12130877D01*
X24676877Y-12095877D02*
X24641877Y-12130877D01*
X24678062Y-14493359D02*
X24713062Y-14528359D01*
X24713062Y-14493359D02*
X24678062Y-14528359D01*
X24738230Y-12569524D02*
X24773230Y-12604524D01*
X24773230Y-12569524D02*
X24738230Y-12604524D01*
X24773062Y-14178359D02*
X24808062Y-14213359D01*
X24808062Y-14178359D02*
X24773062Y-14213359D01*
X24813062Y-13588359D02*
X24848062Y-13623359D01*
X24848062Y-13588359D02*
X24813062Y-13623359D01*
X24870632Y-12462827D02*
X24905632Y-12497827D01*
X24905632Y-12462827D02*
X24870632Y-12497827D01*
X24928062Y-13818359D02*
X24963062Y-13853359D01*
X24963062Y-13818359D02*
X24928062Y-13853359D01*
X24933062Y-14013359D02*
X24968062Y-14048359D01*
X24968062Y-14013359D02*
X24933062Y-14048359D01*
X24948062Y-14318359D02*
X24983062Y-14353359D01*
X24983062Y-14318359D02*
X24948062Y-14353359D01*
X24969877Y-12377877D02*
X25004877Y-12412877D01*
X25004877Y-12377877D02*
X24969877Y-12412877D01*
X24984877Y-12782877D02*
X25019877Y-12817877D01*
X25019877Y-12782877D02*
X24984877Y-12817877D01*
X24993062Y-13918359D02*
X25028062Y-13953359D01*
X25028062Y-13918359D02*
X24993062Y-13953359D01*
X24998062Y-14218359D02*
X25033062Y-14253359D01*
X25033062Y-14218359D02*
X24998062Y-14253359D01*
X25034877Y-12482877D02*
X25069877Y-12517877D01*
X25069877Y-12482877D02*
X25034877Y-12517877D01*
X25034877Y-12682877D02*
X25069877Y-12717877D01*
X25069877Y-12682877D02*
X25034877Y-12717877D01*
X25034877Y-12882877D02*
X25069877Y-12917877D01*
X25069877Y-12882877D02*
X25034877Y-12917877D01*
X25053062Y-14118359D02*
X25088062Y-14153359D01*
X25088062Y-14118359D02*
X25053062Y-14153359D01*
X25053062Y-14318359D02*
X25088062Y-14353359D01*
X25088062Y-14318359D02*
X25053062Y-14353359D01*
X25058062Y-13818359D02*
X25093062Y-13853359D01*
X25093062Y-13818359D02*
X25058062Y-13853359D01*
X25063062Y-14018359D02*
X25098062Y-14053359D01*
X25098062Y-14018359D02*
X25063062Y-14053359D01*
X25094877Y-12382877D02*
X25129877Y-12417877D01*
X25129877Y-12382877D02*
X25094877Y-12417877D01*
X25094877Y-12582877D02*
X25129877Y-12617877D01*
X25129877Y-12582877D02*
X25094877Y-12617877D01*
X25094877Y-12782877D02*
X25129877Y-12817877D01*
X25129877Y-12782877D02*
X25094877Y-12817877D01*
X25108062Y-13918359D02*
X25143062Y-13953359D01*
X25143062Y-13918359D02*
X25108062Y-13953359D01*
X25144877Y-12682877D02*
X25179877Y-12717877D01*
X25179877Y-12682877D02*
X25144877Y-12717877D01*
X25154877Y-12882877D02*
X25189877Y-12917877D01*
X25189877Y-12882877D02*
X25154877Y-12917877D01*
D13*
X16930000Y-12240000D02*
G75*
G03*
X16930000Y-12240000I-20000J0D01*
G01*
X16930000Y-13440000D02*
G75*
G03*
X16930000Y-13440000I-20000J0D01*
G01*
X16940000Y-14140000D02*
G75*
G03*
X16940000Y-14140000I-20000J0D01*
G01*
X16970000Y-12990050D02*
G75*
G03*
X16970000Y-12990050I-20000J0D01*
G01*
X16970000Y-14570000D02*
G75*
G03*
X16970000Y-14570000I-20000J0D01*
G01*
X17205000Y-13175000D02*
G75*
G03*
X17205000Y-13175000I-20000J0D01*
G01*
X17287500Y-13257500D02*
G75*
G03*
X17287500Y-13257500I-20000J0D01*
G01*
X17419000Y-13791000D02*
G75*
G03*
X17419000Y-13791000I-20000J0D01*
G01*
X17420000Y-13227550D02*
G75*
G03*
X17420000Y-13227550I-20000J0D01*
G01*
X17560000Y-13980000D02*
G75*
G03*
X17560000Y-13980000I-20000J0D01*
G01*
X17560871Y-13359129D02*
G75*
G03*
X17560871Y-13359129I-20000J0D01*
G01*
X17620000Y-13105000D02*
G75*
G03*
X17620000Y-13105000I-20000J0D01*
G01*
X17700000Y-13720000D02*
G75*
G03*
X17700000Y-13720000I-20000J0D01*
G01*
X17850000Y-12895000D02*
G75*
G03*
X17850000Y-12895000I-20000J0D01*
G01*
X18060000Y-12360000D02*
G75*
G03*
X18060000Y-12360000I-20000J0D01*
G01*
X18070000Y-12715000D02*
G75*
G03*
X18070000Y-12715000I-20000J0D01*
G01*
X18085000Y-13995000D02*
G75*
G03*
X18085000Y-13995000I-20000J0D01*
G01*
X18340000Y-14620000D02*
G75*
G03*
X18340000Y-14620000I-20000J0D01*
G01*
X18580000Y-13880000D02*
G75*
G03*
X18580000Y-13880000I-20000J0D01*
G01*
X18730000Y-12875000D02*
G75*
G03*
X18730000Y-12875000I-20000J0D01*
G01*
X18920000Y-14575000D02*
G75*
G03*
X18920000Y-14575000I-20000J0D01*
G01*
X19200000Y-13950000D02*
G75*
G03*
X19200000Y-13950000I-20000J0D01*
G01*
X19451050Y-13732441D02*
G75*
G03*
X19451050Y-13732441I-20000J0D01*
G01*
X19555000Y-13545000D02*
G75*
G03*
X19555000Y-13545000I-20000J0D01*
G01*
X19555000Y-13660000D02*
G75*
G03*
X19555000Y-13660000I-20000J0D01*
G01*
X19555000Y-13775000D02*
G75*
G03*
X19555000Y-13775000I-20000J0D01*
G01*
X19670000Y-13545000D02*
G75*
G03*
X19670000Y-13545000I-20000J0D01*
G01*
X19670000Y-13660000D02*
G75*
G03*
X19670000Y-13660000I-20000J0D01*
G01*
X19670000Y-13775000D02*
G75*
G03*
X19670000Y-13775000I-20000J0D01*
G01*
X19785000Y-13545000D02*
G75*
G03*
X19785000Y-13545000I-20000J0D01*
G01*
X19785000Y-13660000D02*
G75*
G03*
X19785000Y-13660000I-20000J0D01*
G01*
X19785000Y-13775000D02*
G75*
G03*
X19785000Y-13775000I-20000J0D01*
G01*
X19805688Y-14110262D02*
G75*
G03*
X19805688Y-14110262I-20000J0D01*
G01*
X19905000Y-14125000D02*
G75*
G03*
X19905000Y-14125000I-20000J0D01*
G01*
X20159950Y-14646000D02*
G75*
G03*
X20159950Y-14646000I-20000J0D01*
G01*
X20300000Y-14460000D02*
G75*
G03*
X20300000Y-14460000I-20000J0D01*
G01*
X20320000Y-12720000D02*
G75*
G03*
X20320000Y-12720000I-20000J0D01*
G01*
X20320000Y-14360000D02*
G75*
G03*
X20320000Y-14360000I-20000J0D01*
G01*
X20520000Y-13625000D02*
G75*
G03*
X20520000Y-13625000I-20000J0D01*
G01*
X20680000Y-12320000D02*
G75*
G03*
X20680000Y-12320000I-20000J0D01*
G01*
X20900000Y-13360000D02*
G75*
G03*
X20900000Y-13360000I-20000J0D01*
G01*
X20950000Y-13075000D02*
G75*
G03*
X20950000Y-13075000I-20000J0D01*
G01*
X21100000Y-14580000D02*
G75*
G03*
X21100000Y-14580000I-20000J0D01*
G01*
X21210000Y-13692518D02*
G75*
G03*
X21210000Y-13692518I-20000J0D01*
G01*
X21483624Y-13780001D02*
G75*
G03*
X21483624Y-13780001I-20000J0D01*
G01*
X21620000Y-14580000D02*
G75*
G03*
X21620000Y-14580000I-20000J0D01*
G01*
X21630000Y-12230000D02*
G75*
G03*
X21630000Y-12230000I-20000J0D01*
G01*
X21632500Y-13547500D02*
G75*
G03*
X21632500Y-13547500I-20000J0D01*
G01*
X22095000Y-14314000D02*
G75*
G03*
X22095000Y-14314000I-20000J0D01*
G01*
X22115000Y-14054000D02*
G75*
G03*
X22115000Y-14054000I-20000J0D01*
G01*
X22115000Y-14574000D02*
G75*
G03*
X22115000Y-14574000I-20000J0D01*
G01*
X22135000Y-13614000D02*
G75*
G03*
X22135000Y-13614000I-20000J0D01*
G01*
X22157500Y-13109952D02*
G75*
G03*
X22157500Y-13109952I-20000J0D01*
G01*
X22205000Y-14189000D02*
G75*
G03*
X22205000Y-14189000I-20000J0D01*
G01*
X22315000Y-14454000D02*
G75*
G03*
X22315000Y-14454000I-20000J0D01*
G01*
X22330000Y-13624000D02*
G75*
G03*
X22330000Y-13624000I-20000J0D01*
G01*
X22379951Y-14191549D02*
G75*
G03*
X22379951Y-14191549I-20000J0D01*
G01*
X22477500Y-13129952D02*
G75*
G03*
X22477500Y-13129952I-20000J0D01*
G01*
X22555000Y-14594000D02*
G75*
G03*
X22555000Y-14594000I-20000J0D01*
G01*
X22575000Y-13574000D02*
G75*
G03*
X22575000Y-13574000I-20000J0D01*
G01*
X22591500Y-12195000D02*
G75*
G03*
X22591500Y-12195000I-20000J0D01*
G01*
X22617500Y-12729952D02*
G75*
G03*
X22617500Y-12729952I-20000J0D01*
G01*
X22655000Y-13874000D02*
G75*
G03*
X22655000Y-13874000I-20000J0D01*
G01*
X22697500Y-12195000D02*
G75*
G03*
X22697500Y-12195000I-20000J0D01*
G01*
X22775000Y-13974000D02*
G75*
G03*
X22775000Y-13974000I-20000J0D01*
G01*
X22859200Y-13739000D02*
G75*
G03*
X22859200Y-13739000I-20000J0D01*
G01*
X22877500Y-13099952D02*
G75*
G03*
X22877500Y-13099952I-20000J0D01*
G01*
X22883961Y-14379050D02*
G75*
G03*
X22883961Y-14379050I-20000J0D01*
G01*
X22887500Y-14529000D02*
G75*
G03*
X22887500Y-14529000I-20000J0D01*
G01*
X22890000Y-13629000D02*
G75*
G03*
X22890000Y-13629000I-20000J0D01*
G01*
X22909500Y-12148000D02*
G75*
G03*
X22909500Y-12148000I-20000J0D01*
G01*
X22975000Y-13574000D02*
G75*
G03*
X22975000Y-13574000I-20000J0D01*
G01*
X22980000Y-14529000D02*
G75*
G03*
X22980000Y-14529000I-20000J0D01*
G01*
X22990893Y-14236843D02*
G75*
G03*
X22990893Y-14236843I-20000J0D01*
G01*
X22995000Y-14114000D02*
G75*
G03*
X22995000Y-14114000I-20000J0D01*
G01*
X23067500Y-12665000D02*
G75*
G03*
X23067500Y-12665000I-20000J0D01*
G01*
X23069000Y-14003000D02*
G75*
G03*
X23069000Y-14003000I-20000J0D01*
G01*
X23092500Y-12585000D02*
G75*
G03*
X23092500Y-12585000I-20000J0D01*
G01*
X23096500Y-12322000D02*
G75*
G03*
X23096500Y-12322000I-20000J0D01*
G01*
X23131906Y-14612942D02*
G75*
G03*
X23131906Y-14612942I-20000J0D01*
G01*
X23137500Y-12169952D02*
G75*
G03*
X23137500Y-12169952I-20000J0D01*
G01*
X23155000Y-13774000D02*
G75*
G03*
X23155000Y-13774000I-20000J0D01*
G01*
X23205014Y-14022722D02*
G75*
G03*
X23205014Y-14022722I-20000J0D01*
G01*
X23255000Y-13574000D02*
G75*
G03*
X23255000Y-13574000I-20000J0D01*
G01*
X23257500Y-13109952D02*
G75*
G03*
X23257500Y-13109952I-20000J0D01*
G01*
X23270000Y-14474000D02*
G75*
G03*
X23270000Y-14474000I-20000J0D01*
G01*
X23305000Y-13829000D02*
G75*
G03*
X23305000Y-13829000I-20000J0D01*
G01*
X23307500Y-12902500D02*
G75*
G03*
X23307500Y-12902500I-20000J0D01*
G01*
X23315119Y-14131681D02*
G75*
G03*
X23315119Y-14131681I-20000J0D01*
G01*
X23537500Y-12169952D02*
G75*
G03*
X23537500Y-12169952I-20000J0D01*
G01*
X23555000Y-14594000D02*
G75*
G03*
X23555000Y-14594000I-20000J0D01*
G01*
X23570000Y-14129000D02*
G75*
G03*
X23570000Y-14129000I-20000J0D01*
G01*
X23575000Y-13574000D02*
G75*
G03*
X23575000Y-13574000I-20000J0D01*
G01*
X23575000Y-14454000D02*
G75*
G03*
X23575000Y-14454000I-20000J0D01*
G01*
X23577500Y-12289952D02*
G75*
G03*
X23577500Y-12289952I-20000J0D01*
G01*
X24929043Y-12690327D02*
G75*
G03*
X24929043Y-12690327I-20000J0D01*
G01*
D14*
X20638000Y-13979000D02*
X20638000Y-14039000D01*
X20608000Y-14009000D02*
X20668000Y-14009000D01*
D11*
X20658000Y-14064000D02*
X20658000Y-13954000D01*
X20618000Y-14064000D02*
X20618000Y-13954000D01*
X20658000Y-13954000D02*
G75*
G03*
X20618000Y-13954000I-20000J0D01*
G01*
X20618000Y-14064000D02*
G75*
G03*
X20658000Y-14064000I20000J0D01*
G01*
D14*
X20638000Y-14397000D02*
X20638000Y-14457000D01*
X20608000Y-14427000D02*
X20668000Y-14427000D01*
D11*
X20658000Y-14467000D02*
X20658000Y-14387000D01*
X20618000Y-14467000D02*
X20618000Y-14387000D01*
X20658000Y-14387000D02*
G75*
G03*
X20618000Y-14387000I-20000J0D01*
G01*
X20618000Y-14467000D02*
G75*
G03*
X20658000Y-14467000I20000J0D01*
G01*
D14*
X21502000Y-13979000D02*
X21502000Y-14039000D01*
X21472000Y-14009000D02*
X21532000Y-14009000D01*
D11*
X21522000Y-14064000D02*
X21522000Y-13954000D01*
X21482000Y-14064000D02*
X21482000Y-13954000D01*
X21522000Y-13954000D02*
G75*
G03*
X21482000Y-13954000I-20000J0D01*
G01*
X21482000Y-14064000D02*
G75*
G03*
X21522000Y-14064000I20000J0D01*
G01*
D14*
X21502000Y-14397000D02*
X21502000Y-14457000D01*
X21472000Y-14427000D02*
X21532000Y-14427000D01*
D11*
X21522000Y-14467000D02*
X21522000Y-14387000D01*
X21482000Y-14467000D02*
X21482000Y-14387000D01*
X21522000Y-14387000D02*
G75*
G03*
X21482000Y-14387000I-20000J0D01*
G01*
X21482000Y-14467000D02*
G75*
G03*
X21522000Y-14467000I20000J0D01*
G01*
D15*
X18770481Y-14007981D02*
X18770481Y-13962019D01*
X18724519Y-13962019D01*
X18724519Y-14007981D01*
X18770481Y-14007981D01*
X18897481Y-14007981D02*
X18897481Y-13962019D01*
X18851519Y-13962019D01*
X18851519Y-14007981D01*
X18897481Y-14007981D01*
X19024481Y-14007981D02*
X19024481Y-13962019D01*
X18978519Y-13962019D01*
X18978519Y-14007981D01*
X19024481Y-14007981D01*
D16*
X17485000Y-12436500D02*
X17521500Y-12400000D01*
X17485000Y-12363500D01*
X17448500Y-12400000D01*
X17485000Y-12436500D01*
X17635000Y-12436500D02*
X17671500Y-12400000D01*
X17635000Y-12363500D01*
X17598500Y-12400000D01*
X17635000Y-12436500D01*
X19695000Y-12446500D02*
X19731500Y-12410000D01*
X19695000Y-12373500D01*
X19658500Y-12410000D01*
X19695000Y-12446500D01*
X19845000Y-12446500D02*
X19881500Y-12410000D01*
X19845000Y-12373500D01*
X19808500Y-12410000D01*
X19845000Y-12446500D01*
X19995000Y-12446500D02*
X20031500Y-12410000D01*
X19995000Y-12373500D01*
X19958500Y-12410000D01*
X19995000Y-12446500D01*
X20145000Y-12446500D02*
X20181500Y-12410000D01*
X20145000Y-12373500D01*
X20108500Y-12410000D01*
X20145000Y-12446500D01*
X20915000Y-12446500D02*
X20951500Y-12410000D01*
X20915000Y-12373500D01*
X20878500Y-12410000D01*
X20915000Y-12446500D01*
X21065000Y-12446500D02*
X21101500Y-12410000D01*
X21065000Y-12373500D01*
X21028500Y-12410000D01*
X21065000Y-12446500D01*
X21215000Y-12446500D02*
X21251500Y-12410000D01*
X21215000Y-12373500D01*
X21178500Y-12410000D01*
X21215000Y-12446500D01*
X21365000Y-12446500D02*
X21401500Y-12410000D01*
X21365000Y-12373500D01*
X21328500Y-12410000D01*
X21365000Y-12446500D01*
X22229250Y-13993500D02*
X22265750Y-13957000D01*
X22229250Y-13920500D01*
X22192750Y-13957000D01*
X22229250Y-13993500D01*
X22233250Y-12820500D02*
X22269750Y-12784000D01*
X22233250Y-12747500D01*
X22196750Y-12784000D01*
X22233250Y-12820500D01*
X22379250Y-13993500D02*
X22415750Y-13957000D01*
X22379250Y-13920500D01*
X22342750Y-13957000D01*
X22379250Y-13993500D01*
X22383250Y-12820500D02*
X22419750Y-12784000D01*
X22383250Y-12747500D01*
X22346750Y-12784000D01*
X22383250Y-12820500D01*
D17*
X17062500Y-13972500D02*
X17137500Y-14047500D01*
X17137500Y-13972500D02*
X17062500Y-14047500D01*
X17137500Y-14010000D02*
G75*
G03*
X17137500Y-14010000I-37500J0D01*
G01*
X17262500Y-13972500D02*
X17337500Y-14047500D01*
X17337500Y-13972500D02*
X17262500Y-14047500D01*
X17337500Y-14010000D02*
G75*
G03*
X17337500Y-14010000I-37500J0D01*
G01*
D18*
X24379562Y-13694859D02*
X24481562Y-13796859D01*
X24481562Y-13694859D02*
X24379562Y-13796859D01*
X24430562Y-13694859D02*
X24430562Y-13796859D01*
X24379562Y-13745859D02*
X24481562Y-13745859D01*
D11*
X24354562Y-13786859D02*
X24506562Y-13786859D01*
X24354562Y-13704859D02*
X24506562Y-13704859D01*
X24506562Y-13786859D02*
G75*
G03*
X24506562Y-13704859I0J41000D01*
G01*
X24354562Y-13704859D02*
G75*
G03*
X24354562Y-13786859I0J-41000D01*
G01*
D18*
X24379562Y-14374859D02*
X24481562Y-14476859D01*
X24481562Y-14374859D02*
X24379562Y-14476859D01*
X24430562Y-14374859D02*
X24430562Y-14476859D01*
X24379562Y-14425859D02*
X24481562Y-14425859D01*
D11*
X24354562Y-14466859D02*
X24506562Y-14466859D01*
X24354562Y-14384859D02*
X24506562Y-14384859D01*
X24506562Y-14466859D02*
G75*
G03*
X24506562Y-14384859I0J41000D01*
G01*
X24354562Y-14384859D02*
G75*
G03*
X24354562Y-14466859I0J-41000D01*
G01*
D18*
X24381377Y-12259377D02*
X24483377Y-12361377D01*
X24483377Y-12259377D02*
X24381377Y-12361377D01*
X24432377Y-12259377D02*
X24432377Y-12361377D01*
X24381377Y-12310377D02*
X24483377Y-12310377D01*
D11*
X24508377Y-12269377D02*
X24356377Y-12269377D01*
X24508377Y-12351377D02*
X24356377Y-12351377D01*
X24356377Y-12269377D02*
G75*
G03*
X24356377Y-12351377I0J-41000D01*
G01*
X24508377Y-12351377D02*
G75*
G03*
X24508377Y-12269377I0J41000D01*
G01*
D18*
X24381377Y-12939377D02*
X24483377Y-13041377D01*
X24483377Y-12939377D02*
X24381377Y-13041377D01*
X24432377Y-12939377D02*
X24432377Y-13041377D01*
X24381377Y-12990377D02*
X24483377Y-12990377D01*
D11*
X24508377Y-12949377D02*
X24356377Y-12949377D01*
X24508377Y-13031377D02*
X24356377Y-13031377D01*
X24356377Y-12949377D02*
G75*
G03*
X24356377Y-13031377I0J-41000D01*
G01*
X24508377Y-13031377D02*
G75*
G03*
X24508377Y-12949377I0J41000D01*
G01*
D15*
X20748500Y-14026500D02*
X20813500Y-14091500D01*
X20813500Y-14026500D02*
X20748500Y-14091500D01*
X20803981Y-14081981D02*
X20803981Y-14036019D01*
X20758019Y-14036019D01*
X20758019Y-14081981D01*
X20803981Y-14081981D01*
X21326500Y-14026500D02*
X21391500Y-14091500D01*
X21391500Y-14026500D02*
X21326500Y-14091500D01*
X21381981Y-14081981D02*
X21381981Y-14036019D01*
X21336019Y-14036019D01*
X21336019Y-14081981D01*
X21381981Y-14081981D01*
D19*
X20160000Y-14515000D02*
X20230000Y-14585000D01*
X20230000Y-14515000D02*
X20160000Y-14585000D01*
X20195000Y-14585000D02*
X20230000Y-14550000D01*
X20195000Y-14515000D01*
X20160000Y-14550000D01*
X20195000Y-14585000D01*
X20330000Y-14515000D02*
X20400000Y-14585000D01*
X20400000Y-14515000D02*
X20330000Y-14585000D01*
X20365000Y-14585000D02*
X20400000Y-14550000D01*
X20365000Y-14515000D01*
X20330000Y-14550000D01*
X20365000Y-14585000D01*
D20*
X18130000Y-14380000D02*
X18130000Y-14470000D01*
X18085000Y-14425000D02*
X18175000Y-14425000D01*
X18175000Y-14425000D02*
G75*
G03*
X18175000Y-14425000I-45000J0D01*
G01*
X18430000Y-14380000D02*
X18430000Y-14470000D01*
X18385000Y-14425000D02*
X18475000Y-14425000D01*
X18475000Y-14425000D02*
G75*
G03*
X18475000Y-14425000I-45000J0D01*
G01*
D21*
X23454391Y-12687391D02*
X23454391Y-12609609D01*
X23376609Y-12609609D01*
X23376609Y-12687391D01*
X23454391Y-12687391D01*
X23470500Y-12648500D02*
G75*
G03*
X23470500Y-12648500I-55000J0D01*
G01*
D11*
X23460500Y-13013500D02*
X23460500Y-12283500D01*
X23370500Y-13013500D02*
X23370500Y-12283500D01*
X23460500Y-12283500D02*
G75*
G03*
X23370500Y-12283500I-45000J0D01*
G01*
X23370500Y-13013500D02*
G75*
G03*
X23460500Y-13013500I45000J0D01*
G01*
D21*
X23458891Y-14122891D02*
X23458891Y-14045109D01*
X23381109Y-14045109D01*
X23381109Y-14122891D01*
X23458891Y-14122891D01*
X23475000Y-14084000D02*
G75*
G03*
X23475000Y-14084000I-55000J0D01*
G01*
D11*
X23375000Y-13719000D02*
X23375000Y-14449000D01*
X23465000Y-13719000D02*
X23465000Y-14449000D01*
X23375000Y-14449000D02*
G75*
G03*
X23465000Y-14449000I45000J0D01*
G01*
X23465000Y-13719000D02*
G75*
G03*
X23375000Y-13719000I-45000J0D01*
G01*
D22*
X24430562Y-14167359D02*
X24512062Y-14085859D01*
X24430562Y-14004359D01*
X24349062Y-14085859D01*
X24430562Y-14167359D01*
X24512062Y-14085859D02*
G75*
G03*
X24512062Y-14085859I-81500J0D01*
G01*
X24432377Y-12731877D02*
X24513877Y-12650377D01*
X24432377Y-12568877D01*
X24350877Y-12650377D01*
X24432377Y-12731877D01*
X24513877Y-12650377D02*
G75*
G03*
X24513877Y-12650377I-81500J0D01*
G01*
D23*
X17070000Y-11810000D02*
X17070000Y-12030000D01*
X16960000Y-11920000D02*
X17180000Y-11920000D01*
X17147783Y-11997782D02*
X17147783Y-11842217D01*
X16992218Y-11842217D01*
X16992218Y-11997782D01*
X17147783Y-11997782D01*
X21450000Y-11825000D02*
X21450000Y-12045000D01*
X21340000Y-11935000D02*
X21560000Y-11935000D01*
X21527783Y-12012782D02*
X21527783Y-11857217D01*
X21372218Y-11857217D01*
X21372218Y-12012782D01*
X21527783Y-12012782D01*
D11*
X17062619Y-15255624D02*
X17062619Y-15055624D01*
X17110238Y-15055624D01*
X17138810Y-15065148D01*
X17157857Y-15084195D01*
X17167381Y-15103243D01*
X17176905Y-15141338D01*
X17176905Y-15169910D01*
X17167381Y-15208005D01*
X17157857Y-15227052D01*
X17138810Y-15246100D01*
X17110238Y-15255624D01*
X17062619Y-15255624D01*
X17262619Y-15255624D02*
X17262619Y-15122290D01*
X17262619Y-15160386D02*
X17272143Y-15141338D01*
X17281667Y-15131814D01*
X17300714Y-15122290D01*
X17319762Y-15122290D01*
X17386429Y-15255624D02*
X17386429Y-15122290D01*
X17386429Y-15055624D02*
X17376905Y-15065148D01*
X17386429Y-15074671D01*
X17395952Y-15065148D01*
X17386429Y-15055624D01*
X17386429Y-15074671D01*
X17510238Y-15255624D02*
X17491190Y-15246100D01*
X17481667Y-15227052D01*
X17481667Y-15055624D01*
X17615000Y-15255624D02*
X17595952Y-15246100D01*
X17586429Y-15227052D01*
X17586429Y-15055624D01*
X17843571Y-15255624D02*
X17843571Y-15055624D01*
X17910238Y-15198481D01*
X17976905Y-15055624D01*
X17976905Y-15255624D01*
X18157857Y-15255624D02*
X18157857Y-15150862D01*
X18148333Y-15131814D01*
X18129286Y-15122290D01*
X18091190Y-15122290D01*
X18072143Y-15131814D01*
X18157857Y-15246100D02*
X18138810Y-15255624D01*
X18091190Y-15255624D01*
X18072143Y-15246100D01*
X18062619Y-15227052D01*
X18062619Y-15208005D01*
X18072143Y-15188957D01*
X18091190Y-15179433D01*
X18138810Y-15179433D01*
X18157857Y-15169910D01*
X18253095Y-15122290D02*
X18253095Y-15322290D01*
X18253095Y-15131814D02*
X18272143Y-15122290D01*
X18310238Y-15122290D01*
X18329286Y-15131814D01*
X18338810Y-15141338D01*
X18348333Y-15160386D01*
X18348333Y-15217529D01*
X18338810Y-15236576D01*
X18329286Y-15246100D01*
X18310238Y-15255624D01*
X18272143Y-15255624D01*
X18253095Y-15246100D01*
X18434048Y-15236576D02*
X18443571Y-15246100D01*
X18434048Y-15255624D01*
X18424524Y-15246100D01*
X18434048Y-15236576D01*
X18434048Y-15255624D01*
X18434048Y-15131814D02*
X18443571Y-15141338D01*
X18434048Y-15150862D01*
X18424524Y-15141338D01*
X18434048Y-15131814D01*
X18434048Y-15150862D01*
D12*
X16770000Y-15567648D02*
X16805000Y-15602648D01*
X16805000Y-15567648D02*
X16770000Y-15602648D01*
D11*
X17100714Y-15475624D02*
X17119762Y-15475624D01*
X17138810Y-15485148D01*
X17148333Y-15494671D01*
X17157857Y-15513719D01*
X17167381Y-15551814D01*
X17167381Y-15599433D01*
X17157857Y-15637529D01*
X17148333Y-15656576D01*
X17138810Y-15666100D01*
X17119762Y-15675624D01*
X17100714Y-15675624D01*
X17081667Y-15666100D01*
X17072143Y-15656576D01*
X17062619Y-15637529D01*
X17053095Y-15599433D01*
X17053095Y-15551814D01*
X17062619Y-15513719D01*
X17072143Y-15494671D01*
X17081667Y-15485148D01*
X17100714Y-15475624D01*
X17253095Y-15656576D02*
X17262619Y-15666100D01*
X17253095Y-15675624D01*
X17243571Y-15666100D01*
X17253095Y-15656576D01*
X17253095Y-15675624D01*
X17329286Y-15475624D02*
X17453095Y-15475624D01*
X17386429Y-15551814D01*
X17415000Y-15551814D01*
X17434048Y-15561338D01*
X17443571Y-15570862D01*
X17453095Y-15589910D01*
X17453095Y-15637529D01*
X17443571Y-15656576D01*
X17434048Y-15666100D01*
X17415000Y-15675624D01*
X17357857Y-15675624D01*
X17338810Y-15666100D01*
X17329286Y-15656576D01*
X17634048Y-15475624D02*
X17538810Y-15475624D01*
X17529286Y-15570862D01*
X17538810Y-15561338D01*
X17557857Y-15551814D01*
X17605476Y-15551814D01*
X17624524Y-15561338D01*
X17634048Y-15570862D01*
X17643571Y-15589910D01*
X17643571Y-15637529D01*
X17634048Y-15656576D01*
X17624524Y-15666100D01*
X17605476Y-15675624D01*
X17557857Y-15675624D01*
X17538810Y-15666100D01*
X17529286Y-15656576D01*
X17767381Y-15475624D02*
X17786429Y-15475624D01*
X17805476Y-15485148D01*
X17815000Y-15494671D01*
X17824524Y-15513719D01*
X17834048Y-15551814D01*
X17834048Y-15599433D01*
X17824524Y-15637529D01*
X17815000Y-15656576D01*
X17805476Y-15666100D01*
X17786429Y-15675624D01*
X17767381Y-15675624D01*
X17748333Y-15666100D01*
X17738810Y-15656576D01*
X17729286Y-15637529D01*
X17719762Y-15599433D01*
X17719762Y-15551814D01*
X17729286Y-15513719D01*
X17738810Y-15494671D01*
X17748333Y-15485148D01*
X17767381Y-15475624D01*
X17919762Y-15675624D02*
X17919762Y-15542290D01*
X17919762Y-15561338D02*
X17929286Y-15551814D01*
X17948333Y-15542290D01*
X17976905Y-15542290D01*
X17995952Y-15551814D01*
X18005476Y-15570862D01*
X18005476Y-15675624D01*
X18005476Y-15570862D02*
X18015000Y-15551814D01*
X18034048Y-15542290D01*
X18062619Y-15542290D01*
X18081667Y-15551814D01*
X18091190Y-15570862D01*
X18091190Y-15675624D01*
X18186429Y-15675624D02*
X18186429Y-15542290D01*
X18186429Y-15561338D02*
X18195952Y-15551814D01*
X18215000Y-15542290D01*
X18243571Y-15542290D01*
X18262619Y-15551814D01*
X18272143Y-15570862D01*
X18272143Y-15675624D01*
X18272143Y-15570862D02*
X18281667Y-15551814D01*
X18300714Y-15542290D01*
X18329286Y-15542290D01*
X18348333Y-15551814D01*
X18357857Y-15570862D01*
X18357857Y-15675624D01*
X18748333Y-15466100D02*
X18576905Y-15723243D01*
X19005476Y-15475624D02*
X19024524Y-15475624D01*
X19043571Y-15485148D01*
X19053095Y-15494671D01*
X19062619Y-15513719D01*
X19072143Y-15551814D01*
X19072143Y-15599433D01*
X19062619Y-15637529D01*
X19053095Y-15656576D01*
X19043571Y-15666100D01*
X19024524Y-15675624D01*
X19005476Y-15675624D01*
X18986429Y-15666100D01*
X18976905Y-15656576D01*
X18967381Y-15637529D01*
X18957857Y-15599433D01*
X18957857Y-15551814D01*
X18967381Y-15513719D01*
X18976905Y-15494671D01*
X18986429Y-15485148D01*
X19005476Y-15475624D01*
X19157857Y-15656576D02*
X19167381Y-15666100D01*
X19157857Y-15675624D01*
X19148333Y-15666100D01*
X19157857Y-15656576D01*
X19157857Y-15675624D01*
X19291190Y-15475624D02*
X19310238Y-15475624D01*
X19329286Y-15485148D01*
X19338810Y-15494671D01*
X19348333Y-15513719D01*
X19357857Y-15551814D01*
X19357857Y-15599433D01*
X19348333Y-15637529D01*
X19338810Y-15656576D01*
X19329286Y-15666100D01*
X19310238Y-15675624D01*
X19291190Y-15675624D01*
X19272143Y-15666100D01*
X19262619Y-15656576D01*
X19253095Y-15637529D01*
X19243571Y-15599433D01*
X19243571Y-15551814D01*
X19253095Y-15513719D01*
X19262619Y-15494671D01*
X19272143Y-15485148D01*
X19291190Y-15475624D01*
X19548333Y-15675624D02*
X19434048Y-15675624D01*
X19491190Y-15675624D02*
X19491190Y-15475624D01*
X19472143Y-15504195D01*
X19453095Y-15523243D01*
X19434048Y-15532767D01*
X19615000Y-15475624D02*
X19738810Y-15475624D01*
X19672143Y-15551814D01*
X19700714Y-15551814D01*
X19719762Y-15561338D01*
X19729286Y-15570862D01*
X19738810Y-15589910D01*
X19738810Y-15637529D01*
X19729286Y-15656576D01*
X19719762Y-15666100D01*
X19700714Y-15675624D01*
X19643571Y-15675624D01*
X19624524Y-15666100D01*
X19615000Y-15656576D01*
X19853095Y-15561338D02*
X19834048Y-15551814D01*
X19824524Y-15542290D01*
X19815000Y-15523243D01*
X19815000Y-15513719D01*
X19824524Y-15494671D01*
X19834048Y-15485148D01*
X19853095Y-15475624D01*
X19891190Y-15475624D01*
X19910238Y-15485148D01*
X19919762Y-15494671D01*
X19929286Y-15513719D01*
X19929286Y-15523243D01*
X19919762Y-15542290D01*
X19910238Y-15551814D01*
X19891190Y-15561338D01*
X19853095Y-15561338D01*
X19834048Y-15570862D01*
X19824524Y-15580386D01*
X19815000Y-15599433D01*
X19815000Y-15637529D01*
X19824524Y-15656576D01*
X19834048Y-15666100D01*
X19853095Y-15675624D01*
X19891190Y-15675624D01*
X19910238Y-15666100D01*
X19919762Y-15656576D01*
X19929286Y-15637529D01*
X19929286Y-15599433D01*
X19919762Y-15580386D01*
X19910238Y-15570862D01*
X19891190Y-15561338D01*
X20005476Y-15475624D02*
X20005476Y-15513719D01*
X20081667Y-15475624D02*
X20081667Y-15513719D01*
X20376905Y-15751814D02*
X20367381Y-15742290D01*
X20348333Y-15713719D01*
X20338810Y-15694671D01*
X20329286Y-15666100D01*
X20319762Y-15618481D01*
X20319762Y-15580386D01*
X20329286Y-15532767D01*
X20338810Y-15504195D01*
X20348333Y-15485148D01*
X20367381Y-15456576D01*
X20376905Y-15447052D01*
X20538810Y-15475624D02*
X20500714Y-15475624D01*
X20481667Y-15485148D01*
X20472143Y-15494671D01*
X20453095Y-15523243D01*
X20443571Y-15561338D01*
X20443571Y-15637529D01*
X20453095Y-15656576D01*
X20462619Y-15666100D01*
X20481667Y-15675624D01*
X20519762Y-15675624D01*
X20538810Y-15666100D01*
X20548333Y-15656576D01*
X20557857Y-15637529D01*
X20557857Y-15589910D01*
X20548333Y-15570862D01*
X20538810Y-15561338D01*
X20519762Y-15551814D01*
X20481667Y-15551814D01*
X20462619Y-15561338D01*
X20453095Y-15570862D01*
X20443571Y-15589910D01*
X20681667Y-15475624D02*
X20700714Y-15475624D01*
X20719762Y-15485148D01*
X20729286Y-15494671D01*
X20738810Y-15513719D01*
X20748333Y-15551814D01*
X20748333Y-15599433D01*
X20738810Y-15637529D01*
X20729286Y-15656576D01*
X20719762Y-15666100D01*
X20700714Y-15675624D01*
X20681667Y-15675624D01*
X20662619Y-15666100D01*
X20653095Y-15656576D01*
X20643571Y-15637529D01*
X20634048Y-15599433D01*
X20634048Y-15551814D01*
X20643571Y-15513719D01*
X20653095Y-15494671D01*
X20662619Y-15485148D01*
X20681667Y-15475624D01*
X20986429Y-15675624D02*
X20986429Y-15475624D01*
X21072143Y-15675624D02*
X21072143Y-15570862D01*
X21062619Y-15551814D01*
X21043571Y-15542290D01*
X21015000Y-15542290D01*
X20995952Y-15551814D01*
X20986429Y-15561338D01*
X21195952Y-15675624D02*
X21176905Y-15666100D01*
X21167381Y-15656576D01*
X21157857Y-15637529D01*
X21157857Y-15580386D01*
X21167381Y-15561338D01*
X21176905Y-15551814D01*
X21195952Y-15542290D01*
X21224524Y-15542290D01*
X21243571Y-15551814D01*
X21253095Y-15561338D01*
X21262619Y-15580386D01*
X21262619Y-15637529D01*
X21253095Y-15656576D01*
X21243571Y-15666100D01*
X21224524Y-15675624D01*
X21195952Y-15675624D01*
X21376905Y-15675624D02*
X21357857Y-15666100D01*
X21348333Y-15647052D01*
X21348333Y-15475624D01*
X21529286Y-15666100D02*
X21510238Y-15675624D01*
X21472143Y-15675624D01*
X21453095Y-15666100D01*
X21443571Y-15647052D01*
X21443571Y-15570862D01*
X21453095Y-15551814D01*
X21472143Y-15542290D01*
X21510238Y-15542290D01*
X21529286Y-15551814D01*
X21538810Y-15570862D01*
X21538810Y-15589910D01*
X21443571Y-15608957D01*
X21615000Y-15666100D02*
X21634048Y-15675624D01*
X21672143Y-15675624D01*
X21691190Y-15666100D01*
X21700714Y-15647052D01*
X21700714Y-15637529D01*
X21691190Y-15618481D01*
X21672143Y-15608957D01*
X21643571Y-15608957D01*
X21624524Y-15599433D01*
X21615000Y-15580386D01*
X21615000Y-15570862D01*
X21624524Y-15551814D01*
X21643571Y-15542290D01*
X21672143Y-15542290D01*
X21691190Y-15551814D01*
X21767381Y-15751814D02*
X21776905Y-15742290D01*
X21795952Y-15713719D01*
X21805476Y-15694671D01*
X21815000Y-15666100D01*
X21824524Y-15618481D01*
X21824524Y-15580386D01*
X21815000Y-15532767D01*
X21805476Y-15504195D01*
X21795952Y-15485148D01*
X21776905Y-15456576D01*
X21767381Y-15447052D01*
D13*
X16805000Y-15849148D02*
G75*
G03*
X16805000Y-15849148I-20000J0D01*
G01*
D11*
X17100714Y-15739624D02*
X17119762Y-15739624D01*
X17138810Y-15749148D01*
X17148333Y-15758671D01*
X17157857Y-15777719D01*
X17167381Y-15815814D01*
X17167381Y-15863433D01*
X17157857Y-15901529D01*
X17148333Y-15920576D01*
X17138810Y-15930100D01*
X17119762Y-15939624D01*
X17100714Y-15939624D01*
X17081667Y-15930100D01*
X17072143Y-15920576D01*
X17062619Y-15901529D01*
X17053095Y-15863433D01*
X17053095Y-15815814D01*
X17062619Y-15777719D01*
X17072143Y-15758671D01*
X17081667Y-15749148D01*
X17100714Y-15739624D01*
X17253095Y-15920576D02*
X17262619Y-15930100D01*
X17253095Y-15939624D01*
X17243571Y-15930100D01*
X17253095Y-15920576D01*
X17253095Y-15939624D01*
X17434048Y-15806290D02*
X17434048Y-15939624D01*
X17386429Y-15730100D02*
X17338810Y-15872957D01*
X17462619Y-15872957D01*
X17576905Y-15739624D02*
X17595952Y-15739624D01*
X17615000Y-15749148D01*
X17624524Y-15758671D01*
X17634048Y-15777719D01*
X17643571Y-15815814D01*
X17643571Y-15863433D01*
X17634048Y-15901529D01*
X17624524Y-15920576D01*
X17615000Y-15930100D01*
X17595952Y-15939624D01*
X17576905Y-15939624D01*
X17557857Y-15930100D01*
X17548333Y-15920576D01*
X17538810Y-15901529D01*
X17529286Y-15863433D01*
X17529286Y-15815814D01*
X17538810Y-15777719D01*
X17548333Y-15758671D01*
X17557857Y-15749148D01*
X17576905Y-15739624D01*
X17767381Y-15739624D02*
X17786429Y-15739624D01*
X17805476Y-15749148D01*
X17815000Y-15758671D01*
X17824524Y-15777719D01*
X17834048Y-15815814D01*
X17834048Y-15863433D01*
X17824524Y-15901529D01*
X17815000Y-15920576D01*
X17805476Y-15930100D01*
X17786429Y-15939624D01*
X17767381Y-15939624D01*
X17748333Y-15930100D01*
X17738810Y-15920576D01*
X17729286Y-15901529D01*
X17719762Y-15863433D01*
X17719762Y-15815814D01*
X17729286Y-15777719D01*
X17738810Y-15758671D01*
X17748333Y-15749148D01*
X17767381Y-15739624D01*
X17919762Y-15939624D02*
X17919762Y-15806290D01*
X17919762Y-15825338D02*
X17929286Y-15815814D01*
X17948333Y-15806290D01*
X17976905Y-15806290D01*
X17995952Y-15815814D01*
X18005476Y-15834862D01*
X18005476Y-15939624D01*
X18005476Y-15834862D02*
X18015000Y-15815814D01*
X18034048Y-15806290D01*
X18062619Y-15806290D01*
X18081667Y-15815814D01*
X18091190Y-15834862D01*
X18091190Y-15939624D01*
X18186429Y-15939624D02*
X18186429Y-15806290D01*
X18186429Y-15825338D02*
X18195952Y-15815814D01*
X18215000Y-15806290D01*
X18243571Y-15806290D01*
X18262619Y-15815814D01*
X18272143Y-15834862D01*
X18272143Y-15939624D01*
X18272143Y-15834862D02*
X18281667Y-15815814D01*
X18300714Y-15806290D01*
X18329286Y-15806290D01*
X18348333Y-15815814D01*
X18357857Y-15834862D01*
X18357857Y-15939624D01*
X18748333Y-15730100D02*
X18576905Y-15987243D01*
X19005476Y-15739624D02*
X19024524Y-15739624D01*
X19043571Y-15749148D01*
X19053095Y-15758671D01*
X19062619Y-15777719D01*
X19072143Y-15815814D01*
X19072143Y-15863433D01*
X19062619Y-15901529D01*
X19053095Y-15920576D01*
X19043571Y-15930100D01*
X19024524Y-15939624D01*
X19005476Y-15939624D01*
X18986429Y-15930100D01*
X18976905Y-15920576D01*
X18967381Y-15901529D01*
X18957857Y-15863433D01*
X18957857Y-15815814D01*
X18967381Y-15777719D01*
X18976905Y-15758671D01*
X18986429Y-15749148D01*
X19005476Y-15739624D01*
X19157857Y-15920576D02*
X19167381Y-15930100D01*
X19157857Y-15939624D01*
X19148333Y-15930100D01*
X19157857Y-15920576D01*
X19157857Y-15939624D01*
X19291190Y-15739624D02*
X19310238Y-15739624D01*
X19329286Y-15749148D01*
X19338810Y-15758671D01*
X19348333Y-15777719D01*
X19357857Y-15815814D01*
X19357857Y-15863433D01*
X19348333Y-15901529D01*
X19338810Y-15920576D01*
X19329286Y-15930100D01*
X19310238Y-15939624D01*
X19291190Y-15939624D01*
X19272143Y-15930100D01*
X19262619Y-15920576D01*
X19253095Y-15901529D01*
X19243571Y-15863433D01*
X19243571Y-15815814D01*
X19253095Y-15777719D01*
X19262619Y-15758671D01*
X19272143Y-15749148D01*
X19291190Y-15739624D01*
X19548333Y-15939624D02*
X19434048Y-15939624D01*
X19491190Y-15939624D02*
X19491190Y-15739624D01*
X19472143Y-15768195D01*
X19453095Y-15787243D01*
X19434048Y-15796767D01*
X19729286Y-15739624D02*
X19634048Y-15739624D01*
X19624524Y-15834862D01*
X19634048Y-15825338D01*
X19653095Y-15815814D01*
X19700714Y-15815814D01*
X19719762Y-15825338D01*
X19729286Y-15834862D01*
X19738810Y-15853910D01*
X19738810Y-15901529D01*
X19729286Y-15920576D01*
X19719762Y-15930100D01*
X19700714Y-15939624D01*
X19653095Y-15939624D01*
X19634048Y-15930100D01*
X19624524Y-15920576D01*
X19805476Y-15739624D02*
X19938810Y-15739624D01*
X19853095Y-15939624D01*
X20005476Y-15739624D02*
X20005476Y-15777719D01*
X20081667Y-15739624D02*
X20081667Y-15777719D01*
X20376905Y-16015814D02*
X20367381Y-16006290D01*
X20348333Y-15977719D01*
X20338810Y-15958671D01*
X20329286Y-15930100D01*
X20319762Y-15882481D01*
X20319762Y-15844386D01*
X20329286Y-15796767D01*
X20338810Y-15768195D01*
X20348333Y-15749148D01*
X20367381Y-15720576D01*
X20376905Y-15711052D01*
X20462619Y-15939624D02*
X20500714Y-15939624D01*
X20519762Y-15930100D01*
X20529286Y-15920576D01*
X20548333Y-15892005D01*
X20557857Y-15853910D01*
X20557857Y-15777719D01*
X20548333Y-15758671D01*
X20538810Y-15749148D01*
X20519762Y-15739624D01*
X20481667Y-15739624D01*
X20462619Y-15749148D01*
X20453095Y-15758671D01*
X20443571Y-15777719D01*
X20443571Y-15825338D01*
X20453095Y-15844386D01*
X20462619Y-15853910D01*
X20481667Y-15863433D01*
X20519762Y-15863433D01*
X20538810Y-15853910D01*
X20548333Y-15844386D01*
X20557857Y-15825338D01*
X20729286Y-15739624D02*
X20691190Y-15739624D01*
X20672143Y-15749148D01*
X20662619Y-15758671D01*
X20643571Y-15787243D01*
X20634048Y-15825338D01*
X20634048Y-15901529D01*
X20643571Y-15920576D01*
X20653095Y-15930100D01*
X20672143Y-15939624D01*
X20710238Y-15939624D01*
X20729286Y-15930100D01*
X20738810Y-15920576D01*
X20748333Y-15901529D01*
X20748333Y-15853910D01*
X20738810Y-15834862D01*
X20729286Y-15825338D01*
X20710238Y-15815814D01*
X20672143Y-15815814D01*
X20653095Y-15825338D01*
X20643571Y-15834862D01*
X20634048Y-15853910D01*
X20986429Y-15939624D02*
X20986429Y-15739624D01*
X21072143Y-15939624D02*
X21072143Y-15834862D01*
X21062619Y-15815814D01*
X21043571Y-15806290D01*
X21015000Y-15806290D01*
X20995952Y-15815814D01*
X20986429Y-15825338D01*
X21195952Y-15939624D02*
X21176905Y-15930100D01*
X21167381Y-15920576D01*
X21157857Y-15901529D01*
X21157857Y-15844386D01*
X21167381Y-15825338D01*
X21176905Y-15815814D01*
X21195952Y-15806290D01*
X21224524Y-15806290D01*
X21243571Y-15815814D01*
X21253095Y-15825338D01*
X21262619Y-15844386D01*
X21262619Y-15901529D01*
X21253095Y-15920576D01*
X21243571Y-15930100D01*
X21224524Y-15939624D01*
X21195952Y-15939624D01*
X21376905Y-15939624D02*
X21357857Y-15930100D01*
X21348333Y-15911052D01*
X21348333Y-15739624D01*
X21529286Y-15930100D02*
X21510238Y-15939624D01*
X21472143Y-15939624D01*
X21453095Y-15930100D01*
X21443571Y-15911052D01*
X21443571Y-15834862D01*
X21453095Y-15815814D01*
X21472143Y-15806290D01*
X21510238Y-15806290D01*
X21529286Y-15815814D01*
X21538810Y-15834862D01*
X21538810Y-15853910D01*
X21443571Y-15872957D01*
X21615000Y-15930100D02*
X21634048Y-15939624D01*
X21672143Y-15939624D01*
X21691190Y-15930100D01*
X21700714Y-15911052D01*
X21700714Y-15901529D01*
X21691190Y-15882481D01*
X21672143Y-15872957D01*
X21643571Y-15872957D01*
X21624524Y-15863433D01*
X21615000Y-15844386D01*
X21615000Y-15834862D01*
X21624524Y-15815814D01*
X21643571Y-15806290D01*
X21672143Y-15806290D01*
X21691190Y-15815814D01*
X21767381Y-16015814D02*
X21776905Y-16006290D01*
X21795952Y-15977719D01*
X21805476Y-15958671D01*
X21815000Y-15930100D01*
X21824524Y-15882481D01*
X21824524Y-15844386D01*
X21815000Y-15796767D01*
X21805476Y-15768195D01*
X21795952Y-15749148D01*
X21776905Y-15720576D01*
X21767381Y-15711052D01*
D14*
X16775000Y-16083148D02*
X16775000Y-16143148D01*
X16745000Y-16113148D02*
X16805000Y-16113148D01*
D11*
X17100714Y-16003624D02*
X17119762Y-16003624D01*
X17138810Y-16013148D01*
X17148333Y-16022671D01*
X17157857Y-16041719D01*
X17167381Y-16079814D01*
X17167381Y-16127433D01*
X17157857Y-16165529D01*
X17148333Y-16184576D01*
X17138810Y-16194100D01*
X17119762Y-16203624D01*
X17100714Y-16203624D01*
X17081667Y-16194100D01*
X17072143Y-16184576D01*
X17062619Y-16165529D01*
X17053095Y-16127433D01*
X17053095Y-16079814D01*
X17062619Y-16041719D01*
X17072143Y-16022671D01*
X17081667Y-16013148D01*
X17100714Y-16003624D01*
X17253095Y-16184576D02*
X17262619Y-16194100D01*
X17253095Y-16203624D01*
X17243571Y-16194100D01*
X17253095Y-16184576D01*
X17253095Y-16203624D01*
X17434048Y-16003624D02*
X17395952Y-16003624D01*
X17376905Y-16013148D01*
X17367381Y-16022671D01*
X17348333Y-16051243D01*
X17338810Y-16089338D01*
X17338810Y-16165529D01*
X17348333Y-16184576D01*
X17357857Y-16194100D01*
X17376905Y-16203624D01*
X17415000Y-16203624D01*
X17434048Y-16194100D01*
X17443571Y-16184576D01*
X17453095Y-16165529D01*
X17453095Y-16117910D01*
X17443571Y-16098862D01*
X17434048Y-16089338D01*
X17415000Y-16079814D01*
X17376905Y-16079814D01*
X17357857Y-16089338D01*
X17348333Y-16098862D01*
X17338810Y-16117910D01*
X17576905Y-16003624D02*
X17595952Y-16003624D01*
X17615000Y-16013148D01*
X17624524Y-16022671D01*
X17634048Y-16041719D01*
X17643571Y-16079814D01*
X17643571Y-16127433D01*
X17634048Y-16165529D01*
X17624524Y-16184576D01*
X17615000Y-16194100D01*
X17595952Y-16203624D01*
X17576905Y-16203624D01*
X17557857Y-16194100D01*
X17548333Y-16184576D01*
X17538810Y-16165529D01*
X17529286Y-16127433D01*
X17529286Y-16079814D01*
X17538810Y-16041719D01*
X17548333Y-16022671D01*
X17557857Y-16013148D01*
X17576905Y-16003624D01*
X17767381Y-16003624D02*
X17786429Y-16003624D01*
X17805476Y-16013148D01*
X17815000Y-16022671D01*
X17824524Y-16041719D01*
X17834048Y-16079814D01*
X17834048Y-16127433D01*
X17824524Y-16165529D01*
X17815000Y-16184576D01*
X17805476Y-16194100D01*
X17786429Y-16203624D01*
X17767381Y-16203624D01*
X17748333Y-16194100D01*
X17738810Y-16184576D01*
X17729286Y-16165529D01*
X17719762Y-16127433D01*
X17719762Y-16079814D01*
X17729286Y-16041719D01*
X17738810Y-16022671D01*
X17748333Y-16013148D01*
X17767381Y-16003624D01*
X17919762Y-16203624D02*
X17919762Y-16070290D01*
X17919762Y-16089338D02*
X17929286Y-16079814D01*
X17948333Y-16070290D01*
X17976905Y-16070290D01*
X17995952Y-16079814D01*
X18005476Y-16098862D01*
X18005476Y-16203624D01*
X18005476Y-16098862D02*
X18015000Y-16079814D01*
X18034048Y-16070290D01*
X18062619Y-16070290D01*
X18081667Y-16079814D01*
X18091190Y-16098862D01*
X18091190Y-16203624D01*
X18186429Y-16203624D02*
X18186429Y-16070290D01*
X18186429Y-16089338D02*
X18195952Y-16079814D01*
X18215000Y-16070290D01*
X18243571Y-16070290D01*
X18262619Y-16079814D01*
X18272143Y-16098862D01*
X18272143Y-16203624D01*
X18272143Y-16098862D02*
X18281667Y-16079814D01*
X18300714Y-16070290D01*
X18329286Y-16070290D01*
X18348333Y-16079814D01*
X18357857Y-16098862D01*
X18357857Y-16203624D01*
X18748333Y-15994100D02*
X18576905Y-16251243D01*
X19005476Y-16003624D02*
X19024524Y-16003624D01*
X19043571Y-16013148D01*
X19053095Y-16022671D01*
X19062619Y-16041719D01*
X19072143Y-16079814D01*
X19072143Y-16127433D01*
X19062619Y-16165529D01*
X19053095Y-16184576D01*
X19043571Y-16194100D01*
X19024524Y-16203624D01*
X19005476Y-16203624D01*
X18986429Y-16194100D01*
X18976905Y-16184576D01*
X18967381Y-16165529D01*
X18957857Y-16127433D01*
X18957857Y-16079814D01*
X18967381Y-16041719D01*
X18976905Y-16022671D01*
X18986429Y-16013148D01*
X19005476Y-16003624D01*
X19157857Y-16184576D02*
X19167381Y-16194100D01*
X19157857Y-16203624D01*
X19148333Y-16194100D01*
X19157857Y-16184576D01*
X19157857Y-16203624D01*
X19291190Y-16003624D02*
X19310238Y-16003624D01*
X19329286Y-16013148D01*
X19338810Y-16022671D01*
X19348333Y-16041719D01*
X19357857Y-16079814D01*
X19357857Y-16127433D01*
X19348333Y-16165529D01*
X19338810Y-16184576D01*
X19329286Y-16194100D01*
X19310238Y-16203624D01*
X19291190Y-16203624D01*
X19272143Y-16194100D01*
X19262619Y-16184576D01*
X19253095Y-16165529D01*
X19243571Y-16127433D01*
X19243571Y-16079814D01*
X19253095Y-16041719D01*
X19262619Y-16022671D01*
X19272143Y-16013148D01*
X19291190Y-16003624D01*
X19434048Y-16022671D02*
X19443571Y-16013148D01*
X19462619Y-16003624D01*
X19510238Y-16003624D01*
X19529286Y-16013148D01*
X19538810Y-16022671D01*
X19548333Y-16041719D01*
X19548333Y-16060767D01*
X19538810Y-16089338D01*
X19424524Y-16203624D01*
X19548333Y-16203624D01*
X19615000Y-16003624D02*
X19738810Y-16003624D01*
X19672143Y-16079814D01*
X19700714Y-16079814D01*
X19719762Y-16089338D01*
X19729286Y-16098862D01*
X19738810Y-16117910D01*
X19738810Y-16165529D01*
X19729286Y-16184576D01*
X19719762Y-16194100D01*
X19700714Y-16203624D01*
X19643571Y-16203624D01*
X19624524Y-16194100D01*
X19615000Y-16184576D01*
X19910238Y-16003624D02*
X19872143Y-16003624D01*
X19853095Y-16013148D01*
X19843571Y-16022671D01*
X19824524Y-16051243D01*
X19815000Y-16089338D01*
X19815000Y-16165529D01*
X19824524Y-16184576D01*
X19834048Y-16194100D01*
X19853095Y-16203624D01*
X19891190Y-16203624D01*
X19910238Y-16194100D01*
X19919762Y-16184576D01*
X19929286Y-16165529D01*
X19929286Y-16117910D01*
X19919762Y-16098862D01*
X19910238Y-16089338D01*
X19891190Y-16079814D01*
X19853095Y-16079814D01*
X19834048Y-16089338D01*
X19824524Y-16098862D01*
X19815000Y-16117910D01*
X20005476Y-16003624D02*
X20005476Y-16041719D01*
X20081667Y-16003624D02*
X20081667Y-16041719D01*
X20376905Y-16279814D02*
X20367381Y-16270290D01*
X20348333Y-16241719D01*
X20338810Y-16222671D01*
X20329286Y-16194100D01*
X20319762Y-16146481D01*
X20319762Y-16108386D01*
X20329286Y-16060767D01*
X20338810Y-16032195D01*
X20348333Y-16013148D01*
X20367381Y-15984576D01*
X20376905Y-15975052D01*
X20491190Y-16003624D02*
X20510238Y-16003624D01*
X20529286Y-16013148D01*
X20538810Y-16022671D01*
X20548333Y-16041719D01*
X20557857Y-16079814D01*
X20557857Y-16127433D01*
X20548333Y-16165529D01*
X20538810Y-16184576D01*
X20529286Y-16194100D01*
X20510238Y-16203624D01*
X20491190Y-16203624D01*
X20472143Y-16194100D01*
X20462619Y-16184576D01*
X20453095Y-16165529D01*
X20443571Y-16127433D01*
X20443571Y-16079814D01*
X20453095Y-16041719D01*
X20462619Y-16022671D01*
X20472143Y-16013148D01*
X20491190Y-16003624D01*
X20795952Y-16203624D02*
X20795952Y-16003624D01*
X20881667Y-16203624D02*
X20881667Y-16098862D01*
X20872143Y-16079814D01*
X20853095Y-16070290D01*
X20824524Y-16070290D01*
X20805476Y-16079814D01*
X20795952Y-16089338D01*
X21005476Y-16203624D02*
X20986429Y-16194100D01*
X20976905Y-16184576D01*
X20967381Y-16165529D01*
X20967381Y-16108386D01*
X20976905Y-16089338D01*
X20986429Y-16079814D01*
X21005476Y-16070290D01*
X21034048Y-16070290D01*
X21053095Y-16079814D01*
X21062619Y-16089338D01*
X21072143Y-16108386D01*
X21072143Y-16165529D01*
X21062619Y-16184576D01*
X21053095Y-16194100D01*
X21034048Y-16203624D01*
X21005476Y-16203624D01*
X21186429Y-16203624D02*
X21167381Y-16194100D01*
X21157857Y-16175052D01*
X21157857Y-16003624D01*
X21338810Y-16194100D02*
X21319762Y-16203624D01*
X21281667Y-16203624D01*
X21262619Y-16194100D01*
X21253095Y-16175052D01*
X21253095Y-16098862D01*
X21262619Y-16079814D01*
X21281667Y-16070290D01*
X21319762Y-16070290D01*
X21338810Y-16079814D01*
X21348333Y-16098862D01*
X21348333Y-16117910D01*
X21253095Y-16136957D01*
X21424524Y-16194100D02*
X21443571Y-16203624D01*
X21481667Y-16203624D01*
X21500714Y-16194100D01*
X21510238Y-16175052D01*
X21510238Y-16165529D01*
X21500714Y-16146481D01*
X21481667Y-16136957D01*
X21453095Y-16136957D01*
X21434048Y-16127433D01*
X21424524Y-16108386D01*
X21424524Y-16098862D01*
X21434048Y-16079814D01*
X21453095Y-16070290D01*
X21481667Y-16070290D01*
X21500714Y-16079814D01*
X21748333Y-16127433D02*
X21900714Y-16127433D01*
X21824524Y-16203624D02*
X21824524Y-16051243D01*
X22234048Y-16070290D02*
X22234048Y-16203624D01*
X22186429Y-15994100D02*
X22138810Y-16136957D01*
X22262619Y-16136957D01*
X22481667Y-16194100D02*
X22500714Y-16203624D01*
X22538809Y-16203624D01*
X22557857Y-16194100D01*
X22567381Y-16175052D01*
X22567381Y-16165529D01*
X22557857Y-16146481D01*
X22538809Y-16136957D01*
X22510238Y-16136957D01*
X22491190Y-16127433D01*
X22481667Y-16108386D01*
X22481667Y-16098862D01*
X22491190Y-16079814D01*
X22510238Y-16070290D01*
X22538809Y-16070290D01*
X22557857Y-16079814D01*
X22681667Y-16203624D02*
X22662619Y-16194100D01*
X22653095Y-16175052D01*
X22653095Y-16003624D01*
X22786428Y-16203624D02*
X22767381Y-16194100D01*
X22757857Y-16184576D01*
X22748333Y-16165529D01*
X22748333Y-16108386D01*
X22757857Y-16089338D01*
X22767381Y-16079814D01*
X22786428Y-16070290D01*
X22815000Y-16070290D01*
X22834048Y-16079814D01*
X22843571Y-16089338D01*
X22853095Y-16108386D01*
X22853095Y-16165529D01*
X22843571Y-16184576D01*
X22834048Y-16194100D01*
X22815000Y-16203624D01*
X22786428Y-16203624D01*
X22910238Y-16070290D02*
X22986428Y-16070290D01*
X22938809Y-16003624D02*
X22938809Y-16175052D01*
X22948333Y-16194100D01*
X22967381Y-16203624D01*
X22986428Y-16203624D01*
X23043571Y-16194100D02*
X23062619Y-16203624D01*
X23100714Y-16203624D01*
X23119762Y-16194100D01*
X23129286Y-16175052D01*
X23129286Y-16165529D01*
X23119762Y-16146481D01*
X23100714Y-16136957D01*
X23072143Y-16136957D01*
X23053095Y-16127433D01*
X23043571Y-16108386D01*
X23043571Y-16098862D01*
X23053095Y-16079814D01*
X23072143Y-16070290D01*
X23100714Y-16070290D01*
X23119762Y-16079814D01*
X23195952Y-16279814D02*
X23205476Y-16270290D01*
X23224524Y-16241719D01*
X23234048Y-16222671D01*
X23243571Y-16194100D01*
X23253095Y-16146481D01*
X23253095Y-16108386D01*
X23243571Y-16060767D01*
X23234048Y-16032195D01*
X23224524Y-16013148D01*
X23205476Y-15984576D01*
X23195952Y-15975052D01*
D15*
X16795481Y-16400129D02*
X16795481Y-16354166D01*
X16749519Y-16354166D01*
X16749519Y-16400129D01*
X16795481Y-16400129D01*
D11*
X17100714Y-16267624D02*
X17119762Y-16267624D01*
X17138810Y-16277148D01*
X17148333Y-16286671D01*
X17157857Y-16305719D01*
X17167381Y-16343814D01*
X17167381Y-16391433D01*
X17157857Y-16429529D01*
X17148333Y-16448576D01*
X17138810Y-16458100D01*
X17119762Y-16467624D01*
X17100714Y-16467624D01*
X17081667Y-16458100D01*
X17072143Y-16448576D01*
X17062619Y-16429529D01*
X17053095Y-16391433D01*
X17053095Y-16343814D01*
X17062619Y-16305719D01*
X17072143Y-16286671D01*
X17081667Y-16277148D01*
X17100714Y-16267624D01*
X17253095Y-16448576D02*
X17262619Y-16458100D01*
X17253095Y-16467624D01*
X17243571Y-16458100D01*
X17253095Y-16448576D01*
X17253095Y-16467624D01*
X17434048Y-16267624D02*
X17395952Y-16267624D01*
X17376905Y-16277148D01*
X17367381Y-16286671D01*
X17348333Y-16315243D01*
X17338810Y-16353338D01*
X17338810Y-16429529D01*
X17348333Y-16448576D01*
X17357857Y-16458100D01*
X17376905Y-16467624D01*
X17415000Y-16467624D01*
X17434048Y-16458100D01*
X17443571Y-16448576D01*
X17453095Y-16429529D01*
X17453095Y-16381910D01*
X17443571Y-16362862D01*
X17434048Y-16353338D01*
X17415000Y-16343814D01*
X17376905Y-16343814D01*
X17357857Y-16353338D01*
X17348333Y-16362862D01*
X17338810Y-16381910D01*
X17634048Y-16267624D02*
X17538810Y-16267624D01*
X17529286Y-16362862D01*
X17538810Y-16353338D01*
X17557857Y-16343814D01*
X17605476Y-16343814D01*
X17624524Y-16353338D01*
X17634048Y-16362862D01*
X17643571Y-16381910D01*
X17643571Y-16429529D01*
X17634048Y-16448576D01*
X17624524Y-16458100D01*
X17605476Y-16467624D01*
X17557857Y-16467624D01*
X17538810Y-16458100D01*
X17529286Y-16448576D01*
X17767381Y-16267624D02*
X17786429Y-16267624D01*
X17805476Y-16277148D01*
X17815000Y-16286671D01*
X17824524Y-16305719D01*
X17834048Y-16343814D01*
X17834048Y-16391433D01*
X17824524Y-16429529D01*
X17815000Y-16448576D01*
X17805476Y-16458100D01*
X17786429Y-16467624D01*
X17767381Y-16467624D01*
X17748333Y-16458100D01*
X17738810Y-16448576D01*
X17729286Y-16429529D01*
X17719762Y-16391433D01*
X17719762Y-16343814D01*
X17729286Y-16305719D01*
X17738810Y-16286671D01*
X17748333Y-16277148D01*
X17767381Y-16267624D01*
X17919762Y-16467624D02*
X17919762Y-16334290D01*
X17919762Y-16353338D02*
X17929286Y-16343814D01*
X17948333Y-16334290D01*
X17976905Y-16334290D01*
X17995952Y-16343814D01*
X18005476Y-16362862D01*
X18005476Y-16467624D01*
X18005476Y-16362862D02*
X18015000Y-16343814D01*
X18034048Y-16334290D01*
X18062619Y-16334290D01*
X18081667Y-16343814D01*
X18091190Y-16362862D01*
X18091190Y-16467624D01*
X18186429Y-16467624D02*
X18186429Y-16334290D01*
X18186429Y-16353338D02*
X18195952Y-16343814D01*
X18215000Y-16334290D01*
X18243571Y-16334290D01*
X18262619Y-16343814D01*
X18272143Y-16362862D01*
X18272143Y-16467624D01*
X18272143Y-16362862D02*
X18281667Y-16343814D01*
X18300714Y-16334290D01*
X18329286Y-16334290D01*
X18348333Y-16343814D01*
X18357857Y-16362862D01*
X18357857Y-16467624D01*
X18748333Y-16258100D02*
X18576905Y-16515243D01*
X19005476Y-16267624D02*
X19024524Y-16267624D01*
X19043571Y-16277148D01*
X19053095Y-16286671D01*
X19062619Y-16305719D01*
X19072143Y-16343814D01*
X19072143Y-16391433D01*
X19062619Y-16429529D01*
X19053095Y-16448576D01*
X19043571Y-16458100D01*
X19024524Y-16467624D01*
X19005476Y-16467624D01*
X18986429Y-16458100D01*
X18976905Y-16448576D01*
X18967381Y-16429529D01*
X18957857Y-16391433D01*
X18957857Y-16343814D01*
X18967381Y-16305719D01*
X18976905Y-16286671D01*
X18986429Y-16277148D01*
X19005476Y-16267624D01*
X19157857Y-16448576D02*
X19167381Y-16458100D01*
X19157857Y-16467624D01*
X19148333Y-16458100D01*
X19157857Y-16448576D01*
X19157857Y-16467624D01*
X19291190Y-16267624D02*
X19310238Y-16267624D01*
X19329286Y-16277148D01*
X19338810Y-16286671D01*
X19348333Y-16305719D01*
X19357857Y-16343814D01*
X19357857Y-16391433D01*
X19348333Y-16429529D01*
X19338810Y-16448576D01*
X19329286Y-16458100D01*
X19310238Y-16467624D01*
X19291190Y-16467624D01*
X19272143Y-16458100D01*
X19262619Y-16448576D01*
X19253095Y-16429529D01*
X19243571Y-16391433D01*
X19243571Y-16343814D01*
X19253095Y-16305719D01*
X19262619Y-16286671D01*
X19272143Y-16277148D01*
X19291190Y-16267624D01*
X19434048Y-16286671D02*
X19443571Y-16277148D01*
X19462619Y-16267624D01*
X19510238Y-16267624D01*
X19529286Y-16277148D01*
X19538810Y-16286671D01*
X19548333Y-16305719D01*
X19548333Y-16324767D01*
X19538810Y-16353338D01*
X19424524Y-16467624D01*
X19548333Y-16467624D01*
X19729286Y-16267624D02*
X19634048Y-16267624D01*
X19624524Y-16362862D01*
X19634048Y-16353338D01*
X19653095Y-16343814D01*
X19700714Y-16343814D01*
X19719762Y-16353338D01*
X19729286Y-16362862D01*
X19738810Y-16381910D01*
X19738810Y-16429529D01*
X19729286Y-16448576D01*
X19719762Y-16458100D01*
X19700714Y-16467624D01*
X19653095Y-16467624D01*
X19634048Y-16458100D01*
X19624524Y-16448576D01*
X19910238Y-16267624D02*
X19872143Y-16267624D01*
X19853095Y-16277148D01*
X19843571Y-16286671D01*
X19824524Y-16315243D01*
X19815000Y-16353338D01*
X19815000Y-16429529D01*
X19824524Y-16448576D01*
X19834048Y-16458100D01*
X19853095Y-16467624D01*
X19891190Y-16467624D01*
X19910238Y-16458100D01*
X19919762Y-16448576D01*
X19929286Y-16429529D01*
X19929286Y-16381910D01*
X19919762Y-16362862D01*
X19910238Y-16353338D01*
X19891190Y-16343814D01*
X19853095Y-16343814D01*
X19834048Y-16353338D01*
X19824524Y-16362862D01*
X19815000Y-16381910D01*
X20005476Y-16267624D02*
X20005476Y-16305719D01*
X20081667Y-16267624D02*
X20081667Y-16305719D01*
X20376905Y-16543814D02*
X20367381Y-16534290D01*
X20348333Y-16505719D01*
X20338810Y-16486671D01*
X20329286Y-16458100D01*
X20319762Y-16410481D01*
X20319762Y-16372386D01*
X20329286Y-16324767D01*
X20338810Y-16296195D01*
X20348333Y-16277148D01*
X20367381Y-16248576D01*
X20376905Y-16239052D01*
X20434048Y-16267624D02*
X20557857Y-16267624D01*
X20491190Y-16343814D01*
X20519762Y-16343814D01*
X20538810Y-16353338D01*
X20548333Y-16362862D01*
X20557857Y-16381910D01*
X20557857Y-16429529D01*
X20548333Y-16448576D01*
X20538810Y-16458100D01*
X20519762Y-16467624D01*
X20462619Y-16467624D01*
X20443571Y-16458100D01*
X20434048Y-16448576D01*
X20795952Y-16467624D02*
X20795952Y-16267624D01*
X20881667Y-16467624D02*
X20881667Y-16362862D01*
X20872143Y-16343814D01*
X20853095Y-16334290D01*
X20824524Y-16334290D01*
X20805476Y-16343814D01*
X20795952Y-16353338D01*
X21005476Y-16467624D02*
X20986429Y-16458100D01*
X20976905Y-16448576D01*
X20967381Y-16429529D01*
X20967381Y-16372386D01*
X20976905Y-16353338D01*
X20986429Y-16343814D01*
X21005476Y-16334290D01*
X21034048Y-16334290D01*
X21053095Y-16343814D01*
X21062619Y-16353338D01*
X21072143Y-16372386D01*
X21072143Y-16429529D01*
X21062619Y-16448576D01*
X21053095Y-16458100D01*
X21034048Y-16467624D01*
X21005476Y-16467624D01*
X21186429Y-16467624D02*
X21167381Y-16458100D01*
X21157857Y-16439052D01*
X21157857Y-16267624D01*
X21338810Y-16458100D02*
X21319762Y-16467624D01*
X21281667Y-16467624D01*
X21262619Y-16458100D01*
X21253095Y-16439052D01*
X21253095Y-16362862D01*
X21262619Y-16343814D01*
X21281667Y-16334290D01*
X21319762Y-16334290D01*
X21338810Y-16343814D01*
X21348333Y-16362862D01*
X21348333Y-16381910D01*
X21253095Y-16400957D01*
X21424524Y-16458100D02*
X21443571Y-16467624D01*
X21481667Y-16467624D01*
X21500714Y-16458100D01*
X21510238Y-16439052D01*
X21510238Y-16429529D01*
X21500714Y-16410481D01*
X21481667Y-16400957D01*
X21453095Y-16400957D01*
X21434048Y-16391433D01*
X21424524Y-16372386D01*
X21424524Y-16362862D01*
X21434048Y-16343814D01*
X21453095Y-16334290D01*
X21481667Y-16334290D01*
X21500714Y-16343814D01*
X21576905Y-16543814D02*
X21586429Y-16534290D01*
X21605476Y-16505719D01*
X21615000Y-16486671D01*
X21624524Y-16458100D01*
X21634048Y-16410481D01*
X21634048Y-16372386D01*
X21624524Y-16324767D01*
X21615000Y-16296195D01*
X21605476Y-16277148D01*
X21586429Y-16248576D01*
X21576905Y-16239052D01*
D16*
X16768500Y-16677648D02*
X16805000Y-16641148D01*
X16768500Y-16604648D01*
X16732000Y-16641148D01*
X16768500Y-16677648D01*
D11*
X17100714Y-16531624D02*
X17119762Y-16531624D01*
X17138810Y-16541148D01*
X17148333Y-16550671D01*
X17157857Y-16569719D01*
X17167381Y-16607814D01*
X17167381Y-16655433D01*
X17157857Y-16693529D01*
X17148333Y-16712576D01*
X17138810Y-16722100D01*
X17119762Y-16731624D01*
X17100714Y-16731624D01*
X17081667Y-16722100D01*
X17072143Y-16712576D01*
X17062619Y-16693529D01*
X17053095Y-16655433D01*
X17053095Y-16607814D01*
X17062619Y-16569719D01*
X17072143Y-16550671D01*
X17081667Y-16541148D01*
X17100714Y-16531624D01*
X17253095Y-16712576D02*
X17262619Y-16722100D01*
X17253095Y-16731624D01*
X17243571Y-16722100D01*
X17253095Y-16712576D01*
X17253095Y-16731624D01*
X17329286Y-16531624D02*
X17462619Y-16531624D01*
X17376905Y-16731624D01*
X17519762Y-16531624D02*
X17643571Y-16531624D01*
X17576905Y-16607814D01*
X17605476Y-16607814D01*
X17624524Y-16617338D01*
X17634048Y-16626862D01*
X17643571Y-16645910D01*
X17643571Y-16693529D01*
X17634048Y-16712576D01*
X17624524Y-16722100D01*
X17605476Y-16731624D01*
X17548333Y-16731624D01*
X17529286Y-16722100D01*
X17519762Y-16712576D01*
X17767381Y-16531624D02*
X17786429Y-16531624D01*
X17805476Y-16541148D01*
X17815000Y-16550671D01*
X17824524Y-16569719D01*
X17834048Y-16607814D01*
X17834048Y-16655433D01*
X17824524Y-16693529D01*
X17815000Y-16712576D01*
X17805476Y-16722100D01*
X17786429Y-16731624D01*
X17767381Y-16731624D01*
X17748333Y-16722100D01*
X17738810Y-16712576D01*
X17729286Y-16693529D01*
X17719762Y-16655433D01*
X17719762Y-16607814D01*
X17729286Y-16569719D01*
X17738810Y-16550671D01*
X17748333Y-16541148D01*
X17767381Y-16531624D01*
X17919762Y-16731624D02*
X17919762Y-16598290D01*
X17919762Y-16617338D02*
X17929286Y-16607814D01*
X17948333Y-16598290D01*
X17976905Y-16598290D01*
X17995952Y-16607814D01*
X18005476Y-16626862D01*
X18005476Y-16731624D01*
X18005476Y-16626862D02*
X18015000Y-16607814D01*
X18034048Y-16598290D01*
X18062619Y-16598290D01*
X18081667Y-16607814D01*
X18091190Y-16626862D01*
X18091190Y-16731624D01*
X18186429Y-16731624D02*
X18186429Y-16598290D01*
X18186429Y-16617338D02*
X18195952Y-16607814D01*
X18215000Y-16598290D01*
X18243571Y-16598290D01*
X18262619Y-16607814D01*
X18272143Y-16626862D01*
X18272143Y-16731624D01*
X18272143Y-16626862D02*
X18281667Y-16607814D01*
X18300714Y-16598290D01*
X18329286Y-16598290D01*
X18348333Y-16607814D01*
X18357857Y-16626862D01*
X18357857Y-16731624D01*
X18748333Y-16522100D02*
X18576905Y-16779243D01*
X19005476Y-16531624D02*
X19024524Y-16531624D01*
X19043571Y-16541148D01*
X19053095Y-16550671D01*
X19062619Y-16569719D01*
X19072143Y-16607814D01*
X19072143Y-16655433D01*
X19062619Y-16693529D01*
X19053095Y-16712576D01*
X19043571Y-16722100D01*
X19024524Y-16731624D01*
X19005476Y-16731624D01*
X18986429Y-16722100D01*
X18976905Y-16712576D01*
X18967381Y-16693529D01*
X18957857Y-16655433D01*
X18957857Y-16607814D01*
X18967381Y-16569719D01*
X18976905Y-16550671D01*
X18986429Y-16541148D01*
X19005476Y-16531624D01*
X19157857Y-16712576D02*
X19167381Y-16722100D01*
X19157857Y-16731624D01*
X19148333Y-16722100D01*
X19157857Y-16712576D01*
X19157857Y-16731624D01*
X19291190Y-16531624D02*
X19310238Y-16531624D01*
X19329286Y-16541148D01*
X19338810Y-16550671D01*
X19348333Y-16569719D01*
X19357857Y-16607814D01*
X19357857Y-16655433D01*
X19348333Y-16693529D01*
X19338810Y-16712576D01*
X19329286Y-16722100D01*
X19310238Y-16731624D01*
X19291190Y-16731624D01*
X19272143Y-16722100D01*
X19262619Y-16712576D01*
X19253095Y-16693529D01*
X19243571Y-16655433D01*
X19243571Y-16607814D01*
X19253095Y-16569719D01*
X19262619Y-16550671D01*
X19272143Y-16541148D01*
X19291190Y-16531624D01*
X19434048Y-16550671D02*
X19443571Y-16541148D01*
X19462619Y-16531624D01*
X19510238Y-16531624D01*
X19529286Y-16541148D01*
X19538810Y-16550671D01*
X19548333Y-16569719D01*
X19548333Y-16588767D01*
X19538810Y-16617338D01*
X19424524Y-16731624D01*
X19548333Y-16731624D01*
X19662619Y-16617338D02*
X19643571Y-16607814D01*
X19634048Y-16598290D01*
X19624524Y-16579243D01*
X19624524Y-16569719D01*
X19634048Y-16550671D01*
X19643571Y-16541148D01*
X19662619Y-16531624D01*
X19700714Y-16531624D01*
X19719762Y-16541148D01*
X19729286Y-16550671D01*
X19738810Y-16569719D01*
X19738810Y-16579243D01*
X19729286Y-16598290D01*
X19719762Y-16607814D01*
X19700714Y-16617338D01*
X19662619Y-16617338D01*
X19643571Y-16626862D01*
X19634048Y-16636386D01*
X19624524Y-16655433D01*
X19624524Y-16693529D01*
X19634048Y-16712576D01*
X19643571Y-16722100D01*
X19662619Y-16731624D01*
X19700714Y-16731624D01*
X19719762Y-16722100D01*
X19729286Y-16712576D01*
X19738810Y-16693529D01*
X19738810Y-16655433D01*
X19729286Y-16636386D01*
X19719762Y-16626862D01*
X19700714Y-16617338D01*
X19805476Y-16531624D02*
X19938810Y-16531624D01*
X19853095Y-16731624D01*
X20005476Y-16531624D02*
X20005476Y-16569719D01*
X20081667Y-16531624D02*
X20081667Y-16569719D01*
X20376905Y-16807814D02*
X20367381Y-16798291D01*
X20348333Y-16769719D01*
X20338810Y-16750671D01*
X20329286Y-16722100D01*
X20319762Y-16674481D01*
X20319762Y-16636386D01*
X20329286Y-16588767D01*
X20338810Y-16560195D01*
X20348333Y-16541148D01*
X20367381Y-16512576D01*
X20376905Y-16503052D01*
X20557857Y-16731624D02*
X20443571Y-16731624D01*
X20500714Y-16731624D02*
X20500714Y-16531624D01*
X20481667Y-16560195D01*
X20462619Y-16579243D01*
X20443571Y-16588767D01*
X20729286Y-16598290D02*
X20729286Y-16731624D01*
X20681667Y-16522100D02*
X20634048Y-16664957D01*
X20757857Y-16664957D01*
X20986429Y-16731624D02*
X20986429Y-16531624D01*
X21072143Y-16731624D02*
X21072143Y-16626862D01*
X21062619Y-16607814D01*
X21043571Y-16598290D01*
X21015000Y-16598290D01*
X20995952Y-16607814D01*
X20986429Y-16617338D01*
X21195952Y-16731624D02*
X21176905Y-16722100D01*
X21167381Y-16712576D01*
X21157857Y-16693529D01*
X21157857Y-16636386D01*
X21167381Y-16617338D01*
X21176905Y-16607814D01*
X21195952Y-16598290D01*
X21224524Y-16598290D01*
X21243571Y-16607814D01*
X21253095Y-16617338D01*
X21262619Y-16636386D01*
X21262619Y-16693529D01*
X21253095Y-16712576D01*
X21243571Y-16722100D01*
X21224524Y-16731624D01*
X21195952Y-16731624D01*
X21376905Y-16731624D02*
X21357857Y-16722100D01*
X21348333Y-16703052D01*
X21348333Y-16531624D01*
X21529286Y-16722100D02*
X21510238Y-16731624D01*
X21472143Y-16731624D01*
X21453095Y-16722100D01*
X21443571Y-16703052D01*
X21443571Y-16626862D01*
X21453095Y-16607814D01*
X21472143Y-16598290D01*
X21510238Y-16598290D01*
X21529286Y-16607814D01*
X21538810Y-16626862D01*
X21538810Y-16645910D01*
X21443571Y-16664957D01*
X21615000Y-16722100D02*
X21634048Y-16731624D01*
X21672143Y-16731624D01*
X21691190Y-16722100D01*
X21700714Y-16703052D01*
X21700714Y-16693529D01*
X21691190Y-16674481D01*
X21672143Y-16664957D01*
X21643571Y-16664957D01*
X21624524Y-16655433D01*
X21615000Y-16636386D01*
X21615000Y-16626862D01*
X21624524Y-16607814D01*
X21643571Y-16598290D01*
X21672143Y-16598290D01*
X21691190Y-16607814D01*
X21767381Y-16807814D02*
X21776905Y-16798291D01*
X21795952Y-16769719D01*
X21805476Y-16750671D01*
X21815000Y-16722100D01*
X21824524Y-16674481D01*
X21824524Y-16636386D01*
X21815000Y-16588767D01*
X21805476Y-16560195D01*
X21795952Y-16541148D01*
X21776905Y-16512576D01*
X21767381Y-16503052D01*
D17*
X16730000Y-16867648D02*
X16805000Y-16942648D01*
X16805000Y-16867648D02*
X16730000Y-16942648D01*
X16805000Y-16905148D02*
G75*
G03*
X16805000Y-16905148I-37500J0D01*
G01*
D11*
X17100714Y-16795624D02*
X17119762Y-16795624D01*
X17138810Y-16805148D01*
X17148333Y-16814672D01*
X17157857Y-16833719D01*
X17167381Y-16871814D01*
X17167381Y-16919433D01*
X17157857Y-16957529D01*
X17148333Y-16976576D01*
X17138810Y-16986100D01*
X17119762Y-16995624D01*
X17100714Y-16995624D01*
X17081667Y-16986100D01*
X17072143Y-16976576D01*
X17062619Y-16957529D01*
X17053095Y-16919433D01*
X17053095Y-16871814D01*
X17062619Y-16833719D01*
X17072143Y-16814672D01*
X17081667Y-16805148D01*
X17100714Y-16795624D01*
X17253095Y-16976576D02*
X17262619Y-16986100D01*
X17253095Y-16995624D01*
X17243571Y-16986100D01*
X17253095Y-16976576D01*
X17253095Y-16995624D01*
X17329286Y-16795624D02*
X17462619Y-16795624D01*
X17376905Y-16995624D01*
X17634048Y-16795624D02*
X17538810Y-16795624D01*
X17529286Y-16890862D01*
X17538810Y-16881338D01*
X17557857Y-16871814D01*
X17605476Y-16871814D01*
X17624524Y-16881338D01*
X17634048Y-16890862D01*
X17643571Y-16909910D01*
X17643571Y-16957529D01*
X17634048Y-16976576D01*
X17624524Y-16986100D01*
X17605476Y-16995624D01*
X17557857Y-16995624D01*
X17538810Y-16986100D01*
X17529286Y-16976576D01*
X17767381Y-16795624D02*
X17786429Y-16795624D01*
X17805476Y-16805148D01*
X17815000Y-16814672D01*
X17824524Y-16833719D01*
X17834048Y-16871814D01*
X17834048Y-16919433D01*
X17824524Y-16957529D01*
X17815000Y-16976576D01*
X17805476Y-16986100D01*
X17786429Y-16995624D01*
X17767381Y-16995624D01*
X17748333Y-16986100D01*
X17738810Y-16976576D01*
X17729286Y-16957529D01*
X17719762Y-16919433D01*
X17719762Y-16871814D01*
X17729286Y-16833719D01*
X17738810Y-16814672D01*
X17748333Y-16805148D01*
X17767381Y-16795624D01*
X17919762Y-16995624D02*
X17919762Y-16862291D01*
X17919762Y-16881338D02*
X17929286Y-16871814D01*
X17948333Y-16862291D01*
X17976905Y-16862291D01*
X17995952Y-16871814D01*
X18005476Y-16890862D01*
X18005476Y-16995624D01*
X18005476Y-16890862D02*
X18015000Y-16871814D01*
X18034048Y-16862291D01*
X18062619Y-16862291D01*
X18081667Y-16871814D01*
X18091190Y-16890862D01*
X18091190Y-16995624D01*
X18186429Y-16995624D02*
X18186429Y-16862291D01*
X18186429Y-16881338D02*
X18195952Y-16871814D01*
X18215000Y-16862291D01*
X18243571Y-16862291D01*
X18262619Y-16871814D01*
X18272143Y-16890862D01*
X18272143Y-16995624D01*
X18272143Y-16890862D02*
X18281667Y-16871814D01*
X18300714Y-16862291D01*
X18329286Y-16862291D01*
X18348333Y-16871814D01*
X18357857Y-16890862D01*
X18357857Y-16995624D01*
X18748333Y-16786100D02*
X18576905Y-17043243D01*
X19005476Y-16795624D02*
X19024524Y-16795624D01*
X19043571Y-16805148D01*
X19053095Y-16814672D01*
X19062619Y-16833719D01*
X19072143Y-16871814D01*
X19072143Y-16919433D01*
X19062619Y-16957529D01*
X19053095Y-16976576D01*
X19043571Y-16986100D01*
X19024524Y-16995624D01*
X19005476Y-16995624D01*
X18986429Y-16986100D01*
X18976905Y-16976576D01*
X18967381Y-16957529D01*
X18957857Y-16919433D01*
X18957857Y-16871814D01*
X18967381Y-16833719D01*
X18976905Y-16814672D01*
X18986429Y-16805148D01*
X19005476Y-16795624D01*
X19157857Y-16976576D02*
X19167381Y-16986100D01*
X19157857Y-16995624D01*
X19148333Y-16986100D01*
X19157857Y-16976576D01*
X19157857Y-16995624D01*
X19291190Y-16795624D02*
X19310238Y-16795624D01*
X19329286Y-16805148D01*
X19338810Y-16814672D01*
X19348333Y-16833719D01*
X19357857Y-16871814D01*
X19357857Y-16919433D01*
X19348333Y-16957529D01*
X19338810Y-16976576D01*
X19329286Y-16986100D01*
X19310238Y-16995624D01*
X19291190Y-16995624D01*
X19272143Y-16986100D01*
X19262619Y-16976576D01*
X19253095Y-16957529D01*
X19243571Y-16919433D01*
X19243571Y-16871814D01*
X19253095Y-16833719D01*
X19262619Y-16814672D01*
X19272143Y-16805148D01*
X19291190Y-16795624D01*
X19434048Y-16814672D02*
X19443571Y-16805148D01*
X19462619Y-16795624D01*
X19510238Y-16795624D01*
X19529286Y-16805148D01*
X19538810Y-16814672D01*
X19548333Y-16833719D01*
X19548333Y-16852767D01*
X19538810Y-16881338D01*
X19424524Y-16995624D01*
X19548333Y-16995624D01*
X19643571Y-16995624D02*
X19681667Y-16995624D01*
X19700714Y-16986100D01*
X19710238Y-16976576D01*
X19729286Y-16948005D01*
X19738810Y-16909910D01*
X19738810Y-16833719D01*
X19729286Y-16814672D01*
X19719762Y-16805148D01*
X19700714Y-16795624D01*
X19662619Y-16795624D01*
X19643571Y-16805148D01*
X19634048Y-16814672D01*
X19624524Y-16833719D01*
X19624524Y-16881338D01*
X19634048Y-16900386D01*
X19643571Y-16909910D01*
X19662619Y-16919433D01*
X19700714Y-16919433D01*
X19719762Y-16909910D01*
X19729286Y-16900386D01*
X19738810Y-16881338D01*
X19919762Y-16795624D02*
X19824524Y-16795624D01*
X19815000Y-16890862D01*
X19824524Y-16881338D01*
X19843571Y-16871814D01*
X19891190Y-16871814D01*
X19910238Y-16881338D01*
X19919762Y-16890862D01*
X19929286Y-16909910D01*
X19929286Y-16957529D01*
X19919762Y-16976576D01*
X19910238Y-16986100D01*
X19891190Y-16995624D01*
X19843571Y-16995624D01*
X19824524Y-16986100D01*
X19815000Y-16976576D01*
X20005476Y-16795624D02*
X20005476Y-16833719D01*
X20081667Y-16795624D02*
X20081667Y-16833719D01*
X20376905Y-17071814D02*
X20367381Y-17062291D01*
X20348333Y-17033719D01*
X20338810Y-17014672D01*
X20329286Y-16986100D01*
X20319762Y-16938481D01*
X20319762Y-16900386D01*
X20329286Y-16852767D01*
X20338810Y-16824195D01*
X20348333Y-16805148D01*
X20367381Y-16776576D01*
X20376905Y-16767052D01*
X20443571Y-16814672D02*
X20453095Y-16805148D01*
X20472143Y-16795624D01*
X20519762Y-16795624D01*
X20538810Y-16805148D01*
X20548333Y-16814672D01*
X20557857Y-16833719D01*
X20557857Y-16852767D01*
X20548333Y-16881338D01*
X20434048Y-16995624D01*
X20557857Y-16995624D01*
X20795952Y-16995624D02*
X20795952Y-16795624D01*
X20881667Y-16995624D02*
X20881667Y-16890862D01*
X20872143Y-16871814D01*
X20853095Y-16862291D01*
X20824524Y-16862291D01*
X20805476Y-16871814D01*
X20795952Y-16881338D01*
X21005476Y-16995624D02*
X20986429Y-16986100D01*
X20976905Y-16976576D01*
X20967381Y-16957529D01*
X20967381Y-16900386D01*
X20976905Y-16881338D01*
X20986429Y-16871814D01*
X21005476Y-16862291D01*
X21034048Y-16862291D01*
X21053095Y-16871814D01*
X21062619Y-16881338D01*
X21072143Y-16900386D01*
X21072143Y-16957529D01*
X21062619Y-16976576D01*
X21053095Y-16986100D01*
X21034048Y-16995624D01*
X21005476Y-16995624D01*
X21186429Y-16995624D02*
X21167381Y-16986100D01*
X21157857Y-16967052D01*
X21157857Y-16795624D01*
X21338810Y-16986100D02*
X21319762Y-16995624D01*
X21281667Y-16995624D01*
X21262619Y-16986100D01*
X21253095Y-16967052D01*
X21253095Y-16890862D01*
X21262619Y-16871814D01*
X21281667Y-16862291D01*
X21319762Y-16862291D01*
X21338810Y-16871814D01*
X21348333Y-16890862D01*
X21348333Y-16909910D01*
X21253095Y-16928957D01*
X21424524Y-16986100D02*
X21443571Y-16995624D01*
X21481667Y-16995624D01*
X21500714Y-16986100D01*
X21510238Y-16967052D01*
X21510238Y-16957529D01*
X21500714Y-16938481D01*
X21481667Y-16928957D01*
X21453095Y-16928957D01*
X21434048Y-16919433D01*
X21424524Y-16900386D01*
X21424524Y-16890862D01*
X21434048Y-16871814D01*
X21453095Y-16862291D01*
X21481667Y-16862291D01*
X21500714Y-16871814D01*
X21576905Y-17071814D02*
X21586429Y-17062291D01*
X21605476Y-17033719D01*
X21615000Y-17014672D01*
X21624524Y-16986100D01*
X21634048Y-16938481D01*
X21634048Y-16900386D01*
X21624524Y-16852767D01*
X21615000Y-16824195D01*
X21605476Y-16805148D01*
X21586429Y-16776576D01*
X21576905Y-16767052D01*
D18*
X16703000Y-17118148D02*
X16805000Y-17220148D01*
X16805000Y-17118148D02*
X16703000Y-17220148D01*
X16754000Y-17118148D02*
X16754000Y-17220148D01*
X16703000Y-17169148D02*
X16805000Y-17169148D01*
D11*
X17167381Y-17259624D02*
X17053095Y-17259624D01*
X17110238Y-17259624D02*
X17110238Y-17059624D01*
X17091190Y-17088195D01*
X17072143Y-17107243D01*
X17053095Y-17116767D01*
X17253095Y-17240576D02*
X17262619Y-17250100D01*
X17253095Y-17259624D01*
X17243571Y-17250100D01*
X17253095Y-17240576D01*
X17253095Y-17259624D01*
X17386429Y-17059624D02*
X17405476Y-17059624D01*
X17424524Y-17069148D01*
X17434048Y-17078672D01*
X17443571Y-17097719D01*
X17453095Y-17135814D01*
X17453095Y-17183433D01*
X17443571Y-17221529D01*
X17434048Y-17240576D01*
X17424524Y-17250100D01*
X17405476Y-17259624D01*
X17386429Y-17259624D01*
X17367381Y-17250100D01*
X17357857Y-17240576D01*
X17348333Y-17221529D01*
X17338810Y-17183433D01*
X17338810Y-17135814D01*
X17348333Y-17097719D01*
X17357857Y-17078672D01*
X17367381Y-17069148D01*
X17386429Y-17059624D01*
X17529286Y-17078672D02*
X17538810Y-17069148D01*
X17557857Y-17059624D01*
X17605476Y-17059624D01*
X17624524Y-17069148D01*
X17634048Y-17078672D01*
X17643571Y-17097719D01*
X17643571Y-17116767D01*
X17634048Y-17145338D01*
X17519762Y-17259624D01*
X17643571Y-17259624D01*
X17767381Y-17059624D02*
X17786429Y-17059624D01*
X17805476Y-17069148D01*
X17815000Y-17078672D01*
X17824524Y-17097719D01*
X17834048Y-17135814D01*
X17834048Y-17183433D01*
X17824524Y-17221529D01*
X17815000Y-17240576D01*
X17805476Y-17250100D01*
X17786429Y-17259624D01*
X17767381Y-17259624D01*
X17748333Y-17250100D01*
X17738810Y-17240576D01*
X17729286Y-17221529D01*
X17719762Y-17183433D01*
X17719762Y-17135814D01*
X17729286Y-17097719D01*
X17738810Y-17078672D01*
X17748333Y-17069148D01*
X17767381Y-17059624D01*
X17919762Y-17259624D02*
X17919762Y-17126291D01*
X17919762Y-17145338D02*
X17929286Y-17135814D01*
X17948333Y-17126291D01*
X17976905Y-17126291D01*
X17995952Y-17135814D01*
X18005476Y-17154862D01*
X18005476Y-17259624D01*
X18005476Y-17154862D02*
X18015000Y-17135814D01*
X18034048Y-17126291D01*
X18062619Y-17126291D01*
X18081667Y-17135814D01*
X18091190Y-17154862D01*
X18091190Y-17259624D01*
X18186429Y-17259624D02*
X18186429Y-17126291D01*
X18186429Y-17145338D02*
X18195952Y-17135814D01*
X18215000Y-17126291D01*
X18243571Y-17126291D01*
X18262619Y-17135814D01*
X18272143Y-17154862D01*
X18272143Y-17259624D01*
X18272143Y-17154862D02*
X18281667Y-17135814D01*
X18300714Y-17126291D01*
X18329286Y-17126291D01*
X18348333Y-17135814D01*
X18357857Y-17154862D01*
X18357857Y-17259624D01*
X18748333Y-17050100D02*
X18576905Y-17307243D01*
X19005476Y-17059624D02*
X19024524Y-17059624D01*
X19043571Y-17069148D01*
X19053095Y-17078672D01*
X19062619Y-17097719D01*
X19072143Y-17135814D01*
X19072143Y-17183433D01*
X19062619Y-17221529D01*
X19053095Y-17240576D01*
X19043571Y-17250100D01*
X19024524Y-17259624D01*
X19005476Y-17259624D01*
X18986429Y-17250100D01*
X18976905Y-17240576D01*
X18967381Y-17221529D01*
X18957857Y-17183433D01*
X18957857Y-17135814D01*
X18967381Y-17097719D01*
X18976905Y-17078672D01*
X18986429Y-17069148D01*
X19005476Y-17059624D01*
X19157857Y-17240576D02*
X19167381Y-17250100D01*
X19157857Y-17259624D01*
X19148333Y-17250100D01*
X19157857Y-17240576D01*
X19157857Y-17259624D01*
X19291190Y-17059624D02*
X19310238Y-17059624D01*
X19329286Y-17069148D01*
X19338810Y-17078672D01*
X19348333Y-17097719D01*
X19357857Y-17135814D01*
X19357857Y-17183433D01*
X19348333Y-17221529D01*
X19338810Y-17240576D01*
X19329286Y-17250100D01*
X19310238Y-17259624D01*
X19291190Y-17259624D01*
X19272143Y-17250100D01*
X19262619Y-17240576D01*
X19253095Y-17221529D01*
X19243571Y-17183433D01*
X19243571Y-17135814D01*
X19253095Y-17097719D01*
X19262619Y-17078672D01*
X19272143Y-17069148D01*
X19291190Y-17059624D01*
X19529286Y-17126291D02*
X19529286Y-17259624D01*
X19481667Y-17050100D02*
X19434048Y-17192957D01*
X19557857Y-17192957D01*
X19672143Y-17059624D02*
X19691190Y-17059624D01*
X19710238Y-17069148D01*
X19719762Y-17078672D01*
X19729286Y-17097719D01*
X19738810Y-17135814D01*
X19738810Y-17183433D01*
X19729286Y-17221529D01*
X19719762Y-17240576D01*
X19710238Y-17250100D01*
X19691190Y-17259624D01*
X19672143Y-17259624D01*
X19653095Y-17250100D01*
X19643571Y-17240576D01*
X19634048Y-17221529D01*
X19624524Y-17183433D01*
X19624524Y-17135814D01*
X19634048Y-17097719D01*
X19643571Y-17078672D01*
X19653095Y-17069148D01*
X19672143Y-17059624D01*
X19815000Y-17078672D02*
X19824524Y-17069148D01*
X19843571Y-17059624D01*
X19891190Y-17059624D01*
X19910238Y-17069148D01*
X19919762Y-17078672D01*
X19929286Y-17097719D01*
X19929286Y-17116767D01*
X19919762Y-17145338D01*
X19805476Y-17259624D01*
X19929286Y-17259624D01*
X20005476Y-17059624D02*
X20005476Y-17097719D01*
X20081667Y-17059624D02*
X20081667Y-17097719D01*
X20376905Y-17335814D02*
X20367381Y-17326291D01*
X20348333Y-17297719D01*
X20338810Y-17278672D01*
X20329286Y-17250100D01*
X20319762Y-17202481D01*
X20319762Y-17164386D01*
X20329286Y-17116767D01*
X20338810Y-17088195D01*
X20348333Y-17069148D01*
X20367381Y-17040576D01*
X20376905Y-17031052D01*
X20491190Y-17059624D02*
X20510238Y-17059624D01*
X20529286Y-17069148D01*
X20538810Y-17078672D01*
X20548333Y-17097719D01*
X20557857Y-17135814D01*
X20557857Y-17183433D01*
X20548333Y-17221529D01*
X20538810Y-17240576D01*
X20529286Y-17250100D01*
X20510238Y-17259624D01*
X20491190Y-17259624D01*
X20472143Y-17250100D01*
X20462619Y-17240576D01*
X20453095Y-17221529D01*
X20443571Y-17183433D01*
X20443571Y-17135814D01*
X20453095Y-17097719D01*
X20462619Y-17078672D01*
X20472143Y-17069148D01*
X20491190Y-17059624D01*
X20795952Y-17259624D02*
X20795952Y-17059624D01*
X20881667Y-17259624D02*
X20881667Y-17154862D01*
X20872143Y-17135814D01*
X20853095Y-17126291D01*
X20824524Y-17126291D01*
X20805476Y-17135814D01*
X20795952Y-17145338D01*
X21005476Y-17259624D02*
X20986429Y-17250100D01*
X20976905Y-17240576D01*
X20967381Y-17221529D01*
X20967381Y-17164386D01*
X20976905Y-17145338D01*
X20986429Y-17135814D01*
X21005476Y-17126291D01*
X21034048Y-17126291D01*
X21053095Y-17135814D01*
X21062619Y-17145338D01*
X21072143Y-17164386D01*
X21072143Y-17221529D01*
X21062619Y-17240576D01*
X21053095Y-17250100D01*
X21034048Y-17259624D01*
X21005476Y-17259624D01*
X21186429Y-17259624D02*
X21167381Y-17250100D01*
X21157857Y-17231052D01*
X21157857Y-17059624D01*
X21338810Y-17250100D02*
X21319762Y-17259624D01*
X21281667Y-17259624D01*
X21262619Y-17250100D01*
X21253095Y-17231052D01*
X21253095Y-17154862D01*
X21262619Y-17135814D01*
X21281667Y-17126291D01*
X21319762Y-17126291D01*
X21338810Y-17135814D01*
X21348333Y-17154862D01*
X21348333Y-17173910D01*
X21253095Y-17192957D01*
X21424524Y-17250100D02*
X21443571Y-17259624D01*
X21481667Y-17259624D01*
X21500714Y-17250100D01*
X21510238Y-17231052D01*
X21510238Y-17221529D01*
X21500714Y-17202481D01*
X21481667Y-17192957D01*
X21453095Y-17192957D01*
X21434048Y-17183433D01*
X21424524Y-17164386D01*
X21424524Y-17154862D01*
X21434048Y-17135814D01*
X21453095Y-17126291D01*
X21481667Y-17126291D01*
X21500714Y-17135814D01*
X21748333Y-17183433D02*
X21900714Y-17183433D01*
X21824524Y-17259624D02*
X21824524Y-17107243D01*
X22234048Y-17126291D02*
X22234048Y-17259624D01*
X22186429Y-17050100D02*
X22138810Y-17192957D01*
X22262619Y-17192957D01*
X22481667Y-17250100D02*
X22500714Y-17259624D01*
X22538809Y-17259624D01*
X22557857Y-17250100D01*
X22567381Y-17231052D01*
X22567381Y-17221529D01*
X22557857Y-17202481D01*
X22538809Y-17192957D01*
X22510238Y-17192957D01*
X22491190Y-17183433D01*
X22481667Y-17164386D01*
X22481667Y-17154862D01*
X22491190Y-17135814D01*
X22510238Y-17126291D01*
X22538809Y-17126291D01*
X22557857Y-17135814D01*
X22681667Y-17259624D02*
X22662619Y-17250100D01*
X22653095Y-17231052D01*
X22653095Y-17059624D01*
X22786428Y-17259624D02*
X22767381Y-17250100D01*
X22757857Y-17240576D01*
X22748333Y-17221529D01*
X22748333Y-17164386D01*
X22757857Y-17145338D01*
X22767381Y-17135814D01*
X22786428Y-17126291D01*
X22815000Y-17126291D01*
X22834048Y-17135814D01*
X22843571Y-17145338D01*
X22853095Y-17164386D01*
X22853095Y-17221529D01*
X22843571Y-17240576D01*
X22834048Y-17250100D01*
X22815000Y-17259624D01*
X22786428Y-17259624D01*
X22910238Y-17126291D02*
X22986428Y-17126291D01*
X22938809Y-17059624D02*
X22938809Y-17231052D01*
X22948333Y-17250100D01*
X22967381Y-17259624D01*
X22986428Y-17259624D01*
X23043571Y-17250100D02*
X23062619Y-17259624D01*
X23100714Y-17259624D01*
X23119762Y-17250100D01*
X23129286Y-17231052D01*
X23129286Y-17221529D01*
X23119762Y-17202481D01*
X23100714Y-17192957D01*
X23072143Y-17192957D01*
X23053095Y-17183433D01*
X23043571Y-17164386D01*
X23043571Y-17154862D01*
X23053095Y-17135814D01*
X23072143Y-17126291D01*
X23100714Y-17126291D01*
X23119762Y-17135814D01*
X23195952Y-17335814D02*
X23205476Y-17326291D01*
X23224524Y-17297719D01*
X23234048Y-17278672D01*
X23243571Y-17250100D01*
X23253095Y-17202481D01*
X23253095Y-17164386D01*
X23243571Y-17116767D01*
X23234048Y-17088195D01*
X23224524Y-17069148D01*
X23205476Y-17040576D01*
X23195952Y-17031052D01*
D15*
X16740000Y-17400648D02*
X16805000Y-17465648D01*
X16805000Y-17400648D02*
X16740000Y-17465648D01*
X16795481Y-17456129D02*
X16795481Y-17410167D01*
X16749519Y-17410167D01*
X16749519Y-17456129D01*
X16795481Y-17456129D01*
D11*
X17100714Y-17323624D02*
X17119762Y-17323624D01*
X17138810Y-17333148D01*
X17148333Y-17342672D01*
X17157857Y-17361719D01*
X17167381Y-17399814D01*
X17167381Y-17447433D01*
X17157857Y-17485529D01*
X17148333Y-17504576D01*
X17138810Y-17514100D01*
X17119762Y-17523624D01*
X17100714Y-17523624D01*
X17081667Y-17514100D01*
X17072143Y-17504576D01*
X17062619Y-17485529D01*
X17053095Y-17447433D01*
X17053095Y-17399814D01*
X17062619Y-17361719D01*
X17072143Y-17342672D01*
X17081667Y-17333148D01*
X17100714Y-17323624D01*
X17253095Y-17504576D02*
X17262619Y-17514100D01*
X17253095Y-17523624D01*
X17243571Y-17514100D01*
X17253095Y-17504576D01*
X17253095Y-17523624D01*
X17434048Y-17323624D02*
X17395952Y-17323624D01*
X17376905Y-17333148D01*
X17367381Y-17342672D01*
X17348333Y-17371243D01*
X17338810Y-17409338D01*
X17338810Y-17485529D01*
X17348333Y-17504576D01*
X17357857Y-17514100D01*
X17376905Y-17523624D01*
X17415000Y-17523624D01*
X17434048Y-17514100D01*
X17443571Y-17504576D01*
X17453095Y-17485529D01*
X17453095Y-17437910D01*
X17443571Y-17418862D01*
X17434048Y-17409338D01*
X17415000Y-17399814D01*
X17376905Y-17399814D01*
X17357857Y-17409338D01*
X17348333Y-17418862D01*
X17338810Y-17437910D01*
X17634048Y-17323624D02*
X17538810Y-17323624D01*
X17529286Y-17418862D01*
X17538810Y-17409338D01*
X17557857Y-17399814D01*
X17605476Y-17399814D01*
X17624524Y-17409338D01*
X17634048Y-17418862D01*
X17643571Y-17437910D01*
X17643571Y-17485529D01*
X17634048Y-17504576D01*
X17624524Y-17514100D01*
X17605476Y-17523624D01*
X17557857Y-17523624D01*
X17538810Y-17514100D01*
X17529286Y-17504576D01*
X17767381Y-17323624D02*
X17786429Y-17323624D01*
X17805476Y-17333148D01*
X17815000Y-17342672D01*
X17824524Y-17361719D01*
X17834048Y-17399814D01*
X17834048Y-17447433D01*
X17824524Y-17485529D01*
X17815000Y-17504576D01*
X17805476Y-17514100D01*
X17786429Y-17523624D01*
X17767381Y-17523624D01*
X17748333Y-17514100D01*
X17738810Y-17504576D01*
X17729286Y-17485529D01*
X17719762Y-17447433D01*
X17719762Y-17399814D01*
X17729286Y-17361719D01*
X17738810Y-17342672D01*
X17748333Y-17333148D01*
X17767381Y-17323624D01*
X17919762Y-17523624D02*
X17919762Y-17390291D01*
X17919762Y-17409338D02*
X17929286Y-17399814D01*
X17948333Y-17390291D01*
X17976905Y-17390291D01*
X17995952Y-17399814D01*
X18005476Y-17418862D01*
X18005476Y-17523624D01*
X18005476Y-17418862D02*
X18015000Y-17399814D01*
X18034048Y-17390291D01*
X18062619Y-17390291D01*
X18081667Y-17399814D01*
X18091190Y-17418862D01*
X18091190Y-17523624D01*
X18186429Y-17523624D02*
X18186429Y-17390291D01*
X18186429Y-17409338D02*
X18195952Y-17399814D01*
X18215000Y-17390291D01*
X18243571Y-17390291D01*
X18262619Y-17399814D01*
X18272143Y-17418862D01*
X18272143Y-17523624D01*
X18272143Y-17418862D02*
X18281667Y-17399814D01*
X18300714Y-17390291D01*
X18329286Y-17390291D01*
X18348333Y-17399814D01*
X18357857Y-17418862D01*
X18357857Y-17523624D01*
X18748333Y-17314100D02*
X18576905Y-17571243D01*
X19005476Y-17323624D02*
X19024524Y-17323624D01*
X19043571Y-17333148D01*
X19053095Y-17342672D01*
X19062619Y-17361719D01*
X19072143Y-17399814D01*
X19072143Y-17447433D01*
X19062619Y-17485529D01*
X19053095Y-17504576D01*
X19043571Y-17514100D01*
X19024524Y-17523624D01*
X19005476Y-17523624D01*
X18986429Y-17514100D01*
X18976905Y-17504576D01*
X18967381Y-17485529D01*
X18957857Y-17447433D01*
X18957857Y-17399814D01*
X18967381Y-17361719D01*
X18976905Y-17342672D01*
X18986429Y-17333148D01*
X19005476Y-17323624D01*
X19157857Y-17504576D02*
X19167381Y-17514100D01*
X19157857Y-17523624D01*
X19148333Y-17514100D01*
X19157857Y-17504576D01*
X19157857Y-17523624D01*
X19291190Y-17323624D02*
X19310238Y-17323624D01*
X19329286Y-17333148D01*
X19338810Y-17342672D01*
X19348333Y-17361719D01*
X19357857Y-17399814D01*
X19357857Y-17447433D01*
X19348333Y-17485529D01*
X19338810Y-17504576D01*
X19329286Y-17514100D01*
X19310238Y-17523624D01*
X19291190Y-17523624D01*
X19272143Y-17514100D01*
X19262619Y-17504576D01*
X19253095Y-17485529D01*
X19243571Y-17447433D01*
X19243571Y-17399814D01*
X19253095Y-17361719D01*
X19262619Y-17342672D01*
X19272143Y-17333148D01*
X19291190Y-17323624D01*
X19434048Y-17342672D02*
X19443571Y-17333148D01*
X19462619Y-17323624D01*
X19510238Y-17323624D01*
X19529286Y-17333148D01*
X19538810Y-17342672D01*
X19548333Y-17361719D01*
X19548333Y-17380767D01*
X19538810Y-17409338D01*
X19424524Y-17523624D01*
X19548333Y-17523624D01*
X19729286Y-17323624D02*
X19634048Y-17323624D01*
X19624524Y-17418862D01*
X19634048Y-17409338D01*
X19653095Y-17399814D01*
X19700714Y-17399814D01*
X19719762Y-17409338D01*
X19729286Y-17418862D01*
X19738810Y-17437910D01*
X19738810Y-17485529D01*
X19729286Y-17504576D01*
X19719762Y-17514100D01*
X19700714Y-17523624D01*
X19653095Y-17523624D01*
X19634048Y-17514100D01*
X19624524Y-17504576D01*
X19910238Y-17323624D02*
X19872143Y-17323624D01*
X19853095Y-17333148D01*
X19843571Y-17342672D01*
X19824524Y-17371243D01*
X19815000Y-17409338D01*
X19815000Y-17485529D01*
X19824524Y-17504576D01*
X19834048Y-17514100D01*
X19853095Y-17523624D01*
X19891190Y-17523624D01*
X19910238Y-17514100D01*
X19919762Y-17504576D01*
X19929286Y-17485529D01*
X19929286Y-17437910D01*
X19919762Y-17418862D01*
X19910238Y-17409338D01*
X19891190Y-17399814D01*
X19853095Y-17399814D01*
X19834048Y-17409338D01*
X19824524Y-17418862D01*
X19815000Y-17437910D01*
X20005476Y-17323624D02*
X20005476Y-17361719D01*
X20081667Y-17323624D02*
X20081667Y-17361719D01*
X20376905Y-17599814D02*
X20367381Y-17590291D01*
X20348333Y-17561719D01*
X20338810Y-17542672D01*
X20329286Y-17514100D01*
X20319762Y-17466481D01*
X20319762Y-17428386D01*
X20329286Y-17380767D01*
X20338810Y-17352195D01*
X20348333Y-17333148D01*
X20367381Y-17304576D01*
X20376905Y-17295052D01*
X20443571Y-17342672D02*
X20453095Y-17333148D01*
X20472143Y-17323624D01*
X20519762Y-17323624D01*
X20538810Y-17333148D01*
X20548333Y-17342672D01*
X20557857Y-17361719D01*
X20557857Y-17380767D01*
X20548333Y-17409338D01*
X20434048Y-17523624D01*
X20557857Y-17523624D01*
X20795952Y-17523624D02*
X20795952Y-17323624D01*
X20881667Y-17523624D02*
X20881667Y-17418862D01*
X20872143Y-17399814D01*
X20853095Y-17390291D01*
X20824524Y-17390291D01*
X20805476Y-17399814D01*
X20795952Y-17409338D01*
X21005476Y-17523624D02*
X20986429Y-17514100D01*
X20976905Y-17504576D01*
X20967381Y-17485529D01*
X20967381Y-17428386D01*
X20976905Y-17409338D01*
X20986429Y-17399814D01*
X21005476Y-17390291D01*
X21034048Y-17390291D01*
X21053095Y-17399814D01*
X21062619Y-17409338D01*
X21072143Y-17428386D01*
X21072143Y-17485529D01*
X21062619Y-17504576D01*
X21053095Y-17514100D01*
X21034048Y-17523624D01*
X21005476Y-17523624D01*
X21186429Y-17523624D02*
X21167381Y-17514100D01*
X21157857Y-17495052D01*
X21157857Y-17323624D01*
X21338810Y-17514100D02*
X21319762Y-17523624D01*
X21281667Y-17523624D01*
X21262619Y-17514100D01*
X21253095Y-17495052D01*
X21253095Y-17418862D01*
X21262619Y-17399814D01*
X21281667Y-17390291D01*
X21319762Y-17390291D01*
X21338810Y-17399814D01*
X21348333Y-17418862D01*
X21348333Y-17437910D01*
X21253095Y-17456957D01*
X21424524Y-17514100D02*
X21443571Y-17523624D01*
X21481667Y-17523624D01*
X21500714Y-17514100D01*
X21510238Y-17495052D01*
X21510238Y-17485529D01*
X21500714Y-17466481D01*
X21481667Y-17456957D01*
X21453095Y-17456957D01*
X21434048Y-17447433D01*
X21424524Y-17428386D01*
X21424524Y-17418862D01*
X21434048Y-17399814D01*
X21453095Y-17390291D01*
X21481667Y-17390291D01*
X21500714Y-17399814D01*
X21576905Y-17599814D02*
X21586429Y-17590291D01*
X21605476Y-17561719D01*
X21615000Y-17542672D01*
X21624524Y-17514100D01*
X21634048Y-17466481D01*
X21634048Y-17428386D01*
X21624524Y-17380767D01*
X21615000Y-17352195D01*
X21605476Y-17333148D01*
X21586429Y-17304576D01*
X21576905Y-17295052D01*
X21938810Y-17599814D02*
X21929286Y-17590291D01*
X21910238Y-17561719D01*
X21900714Y-17542672D01*
X21891190Y-17514100D01*
X21881667Y-17466481D01*
X21881667Y-17428386D01*
X21891190Y-17380767D01*
X21900714Y-17352195D01*
X21910238Y-17333148D01*
X21929286Y-17304576D01*
X21938810Y-17295052D01*
X22015000Y-17390291D02*
X22015000Y-17523624D01*
X22015000Y-17409338D02*
X22024524Y-17399814D01*
X22043571Y-17390291D01*
X22072143Y-17390291D01*
X22091190Y-17399814D01*
X22100714Y-17418862D01*
X22100714Y-17523624D01*
X22224524Y-17523624D02*
X22205476Y-17514100D01*
X22195952Y-17504576D01*
X22186429Y-17485529D01*
X22186429Y-17428386D01*
X22195952Y-17409338D01*
X22205476Y-17399814D01*
X22224524Y-17390291D01*
X22253095Y-17390291D01*
X22272143Y-17399814D01*
X22281667Y-17409338D01*
X22291190Y-17428386D01*
X22291190Y-17485529D01*
X22281667Y-17504576D01*
X22272143Y-17514100D01*
X22253095Y-17523624D01*
X22224524Y-17523624D01*
X22348333Y-17390291D02*
X22424524Y-17390291D01*
X22376905Y-17323624D02*
X22376905Y-17495052D01*
X22386428Y-17514100D01*
X22405476Y-17523624D01*
X22424524Y-17523624D01*
X22643571Y-17390291D02*
X22643571Y-17590291D01*
X22643571Y-17399814D02*
X22662619Y-17390291D01*
X22700714Y-17390291D01*
X22719762Y-17399814D01*
X22729286Y-17409338D01*
X22738809Y-17428386D01*
X22738809Y-17485529D01*
X22729286Y-17504576D01*
X22719762Y-17514100D01*
X22700714Y-17523624D01*
X22662619Y-17523624D01*
X22643571Y-17514100D01*
X22853095Y-17523624D02*
X22834048Y-17514100D01*
X22824524Y-17495052D01*
X22824524Y-17323624D01*
X23015000Y-17523624D02*
X23015000Y-17418862D01*
X23005476Y-17399814D01*
X22986428Y-17390291D01*
X22948333Y-17390291D01*
X22929286Y-17399814D01*
X23015000Y-17514100D02*
X22995952Y-17523624D01*
X22948333Y-17523624D01*
X22929286Y-17514100D01*
X22919762Y-17495052D01*
X22919762Y-17476005D01*
X22929286Y-17456957D01*
X22948333Y-17447433D01*
X22995952Y-17447433D01*
X23015000Y-17437910D01*
X23081667Y-17390291D02*
X23157857Y-17390291D01*
X23110238Y-17323624D02*
X23110238Y-17495052D01*
X23119762Y-17514100D01*
X23138809Y-17523624D01*
X23157857Y-17523624D01*
X23300714Y-17514100D02*
X23281667Y-17523624D01*
X23243571Y-17523624D01*
X23224524Y-17514100D01*
X23215000Y-17495052D01*
X23215000Y-17418862D01*
X23224524Y-17399814D01*
X23243571Y-17390291D01*
X23281667Y-17390291D01*
X23300714Y-17399814D01*
X23310238Y-17418862D01*
X23310238Y-17437910D01*
X23215000Y-17456957D01*
X23481667Y-17523624D02*
X23481667Y-17323624D01*
X23481667Y-17514100D02*
X23462619Y-17523624D01*
X23424524Y-17523624D01*
X23405476Y-17514100D01*
X23395952Y-17504576D01*
X23386428Y-17485529D01*
X23386428Y-17428386D01*
X23395952Y-17409338D01*
X23405476Y-17399814D01*
X23424524Y-17390291D01*
X23462619Y-17390291D01*
X23481667Y-17399814D01*
X23557857Y-17599814D02*
X23567381Y-17590291D01*
X23586428Y-17561719D01*
X23595952Y-17542672D01*
X23605476Y-17514100D01*
X23615000Y-17466481D01*
X23615000Y-17428386D01*
X23605476Y-17380767D01*
X23595952Y-17352195D01*
X23586428Y-17333148D01*
X23567381Y-17304576D01*
X23557857Y-17295052D01*
D19*
X16735000Y-17662148D02*
X16805000Y-17732148D01*
X16805000Y-17662148D02*
X16735000Y-17732148D01*
X16770000Y-17732148D02*
X16805000Y-17697148D01*
X16770000Y-17662148D01*
X16735000Y-17697148D01*
X16770000Y-17732148D01*
D11*
X17100714Y-17587624D02*
X17119762Y-17587624D01*
X17138810Y-17597148D01*
X17148333Y-17606672D01*
X17157857Y-17625719D01*
X17167381Y-17663814D01*
X17167381Y-17711433D01*
X17157857Y-17749529D01*
X17148333Y-17768576D01*
X17138810Y-17778100D01*
X17119762Y-17787624D01*
X17100714Y-17787624D01*
X17081667Y-17778100D01*
X17072143Y-17768576D01*
X17062619Y-17749529D01*
X17053095Y-17711433D01*
X17053095Y-17663814D01*
X17062619Y-17625719D01*
X17072143Y-17606672D01*
X17081667Y-17597148D01*
X17100714Y-17587624D01*
X17253095Y-17768576D02*
X17262619Y-17778100D01*
X17253095Y-17787624D01*
X17243571Y-17778100D01*
X17253095Y-17768576D01*
X17253095Y-17787624D01*
X17329286Y-17587624D02*
X17462619Y-17587624D01*
X17376905Y-17787624D01*
X17576905Y-17587624D02*
X17595952Y-17587624D01*
X17615000Y-17597148D01*
X17624524Y-17606672D01*
X17634048Y-17625719D01*
X17643571Y-17663814D01*
X17643571Y-17711433D01*
X17634048Y-17749529D01*
X17624524Y-17768576D01*
X17615000Y-17778100D01*
X17595952Y-17787624D01*
X17576905Y-17787624D01*
X17557857Y-17778100D01*
X17548333Y-17768576D01*
X17538810Y-17749529D01*
X17529286Y-17711433D01*
X17529286Y-17663814D01*
X17538810Y-17625719D01*
X17548333Y-17606672D01*
X17557857Y-17597148D01*
X17576905Y-17587624D01*
X17767381Y-17587624D02*
X17786429Y-17587624D01*
X17805476Y-17597148D01*
X17815000Y-17606672D01*
X17824524Y-17625719D01*
X17834048Y-17663814D01*
X17834048Y-17711433D01*
X17824524Y-17749529D01*
X17815000Y-17768576D01*
X17805476Y-17778100D01*
X17786429Y-17787624D01*
X17767381Y-17787624D01*
X17748333Y-17778100D01*
X17738810Y-17768576D01*
X17729286Y-17749529D01*
X17719762Y-17711433D01*
X17719762Y-17663814D01*
X17729286Y-17625719D01*
X17738810Y-17606672D01*
X17748333Y-17597148D01*
X17767381Y-17587624D01*
X17919762Y-17787624D02*
X17919762Y-17654291D01*
X17919762Y-17673338D02*
X17929286Y-17663814D01*
X17948333Y-17654291D01*
X17976905Y-17654291D01*
X17995952Y-17663814D01*
X18005476Y-17682862D01*
X18005476Y-17787624D01*
X18005476Y-17682862D02*
X18015000Y-17663814D01*
X18034048Y-17654291D01*
X18062619Y-17654291D01*
X18081667Y-17663814D01*
X18091190Y-17682862D01*
X18091190Y-17787624D01*
X18186429Y-17787624D02*
X18186429Y-17654291D01*
X18186429Y-17673338D02*
X18195952Y-17663814D01*
X18215000Y-17654291D01*
X18243571Y-17654291D01*
X18262619Y-17663814D01*
X18272143Y-17682862D01*
X18272143Y-17787624D01*
X18272143Y-17682862D02*
X18281667Y-17663814D01*
X18300714Y-17654291D01*
X18329286Y-17654291D01*
X18348333Y-17663814D01*
X18357857Y-17682862D01*
X18357857Y-17787624D01*
X18748333Y-17578100D02*
X18576905Y-17835243D01*
X19005476Y-17587624D02*
X19024524Y-17587624D01*
X19043571Y-17597148D01*
X19053095Y-17606672D01*
X19062619Y-17625719D01*
X19072143Y-17663814D01*
X19072143Y-17711433D01*
X19062619Y-17749529D01*
X19053095Y-17768576D01*
X19043571Y-17778100D01*
X19024524Y-17787624D01*
X19005476Y-17787624D01*
X18986429Y-17778100D01*
X18976905Y-17768576D01*
X18967381Y-17749529D01*
X18957857Y-17711433D01*
X18957857Y-17663814D01*
X18967381Y-17625719D01*
X18976905Y-17606672D01*
X18986429Y-17597148D01*
X19005476Y-17587624D01*
X19157857Y-17768576D02*
X19167381Y-17778100D01*
X19157857Y-17787624D01*
X19148333Y-17778100D01*
X19157857Y-17768576D01*
X19157857Y-17787624D01*
X19291190Y-17587624D02*
X19310238Y-17587624D01*
X19329286Y-17597148D01*
X19338810Y-17606672D01*
X19348333Y-17625719D01*
X19357857Y-17663814D01*
X19357857Y-17711433D01*
X19348333Y-17749529D01*
X19338810Y-17768576D01*
X19329286Y-17778100D01*
X19310238Y-17787624D01*
X19291190Y-17787624D01*
X19272143Y-17778100D01*
X19262619Y-17768576D01*
X19253095Y-17749529D01*
X19243571Y-17711433D01*
X19243571Y-17663814D01*
X19253095Y-17625719D01*
X19262619Y-17606672D01*
X19272143Y-17597148D01*
X19291190Y-17587624D01*
X19434048Y-17606672D02*
X19443571Y-17597148D01*
X19462619Y-17587624D01*
X19510238Y-17587624D01*
X19529286Y-17597148D01*
X19538810Y-17606672D01*
X19548333Y-17625719D01*
X19548333Y-17644767D01*
X19538810Y-17673338D01*
X19424524Y-17787624D01*
X19548333Y-17787624D01*
X19615000Y-17587624D02*
X19748333Y-17587624D01*
X19662619Y-17787624D01*
X19910238Y-17587624D02*
X19872143Y-17587624D01*
X19853095Y-17597148D01*
X19843571Y-17606672D01*
X19824524Y-17635243D01*
X19815000Y-17673338D01*
X19815000Y-17749529D01*
X19824524Y-17768576D01*
X19834048Y-17778100D01*
X19853095Y-17787624D01*
X19891190Y-17787624D01*
X19910238Y-17778100D01*
X19919762Y-17768576D01*
X19929286Y-17749529D01*
X19929286Y-17701910D01*
X19919762Y-17682862D01*
X19910238Y-17673338D01*
X19891190Y-17663814D01*
X19853095Y-17663814D01*
X19834048Y-17673338D01*
X19824524Y-17682862D01*
X19815000Y-17701910D01*
X20005476Y-17587624D02*
X20005476Y-17625719D01*
X20081667Y-17587624D02*
X20081667Y-17625719D01*
X20376905Y-17863814D02*
X20367381Y-17854291D01*
X20348333Y-17825719D01*
X20338810Y-17806672D01*
X20329286Y-17778100D01*
X20319762Y-17730481D01*
X20319762Y-17692386D01*
X20329286Y-17644767D01*
X20338810Y-17616195D01*
X20348333Y-17597148D01*
X20367381Y-17568576D01*
X20376905Y-17559052D01*
X20443571Y-17606672D02*
X20453095Y-17597148D01*
X20472143Y-17587624D01*
X20519762Y-17587624D01*
X20538810Y-17597148D01*
X20548333Y-17606672D01*
X20557857Y-17625719D01*
X20557857Y-17644767D01*
X20548333Y-17673338D01*
X20434048Y-17787624D01*
X20557857Y-17787624D01*
X20795952Y-17787624D02*
X20795952Y-17587624D01*
X20881667Y-17787624D02*
X20881667Y-17682862D01*
X20872143Y-17663814D01*
X20853095Y-17654291D01*
X20824524Y-17654291D01*
X20805476Y-17663814D01*
X20795952Y-17673338D01*
X21005476Y-17787624D02*
X20986429Y-17778100D01*
X20976905Y-17768576D01*
X20967381Y-17749529D01*
X20967381Y-17692386D01*
X20976905Y-17673338D01*
X20986429Y-17663814D01*
X21005476Y-17654291D01*
X21034048Y-17654291D01*
X21053095Y-17663814D01*
X21062619Y-17673338D01*
X21072143Y-17692386D01*
X21072143Y-17749529D01*
X21062619Y-17768576D01*
X21053095Y-17778100D01*
X21034048Y-17787624D01*
X21005476Y-17787624D01*
X21186429Y-17787624D02*
X21167381Y-17778100D01*
X21157857Y-17759052D01*
X21157857Y-17587624D01*
X21338810Y-17778100D02*
X21319762Y-17787624D01*
X21281667Y-17787624D01*
X21262619Y-17778100D01*
X21253095Y-17759052D01*
X21253095Y-17682862D01*
X21262619Y-17663814D01*
X21281667Y-17654291D01*
X21319762Y-17654291D01*
X21338810Y-17663814D01*
X21348333Y-17682862D01*
X21348333Y-17701910D01*
X21253095Y-17720957D01*
X21424524Y-17778100D02*
X21443571Y-17787624D01*
X21481667Y-17787624D01*
X21500714Y-17778100D01*
X21510238Y-17759052D01*
X21510238Y-17749529D01*
X21500714Y-17730481D01*
X21481667Y-17720957D01*
X21453095Y-17720957D01*
X21434048Y-17711433D01*
X21424524Y-17692386D01*
X21424524Y-17682862D01*
X21434048Y-17663814D01*
X21453095Y-17654291D01*
X21481667Y-17654291D01*
X21500714Y-17663814D01*
X21576905Y-17863814D02*
X21586429Y-17854291D01*
X21605476Y-17825719D01*
X21615000Y-17806672D01*
X21624524Y-17778100D01*
X21634048Y-17730481D01*
X21634048Y-17692386D01*
X21624524Y-17644767D01*
X21615000Y-17616195D01*
X21605476Y-17597148D01*
X21586429Y-17568576D01*
X21576905Y-17559052D01*
X21938810Y-17863814D02*
X21929286Y-17854291D01*
X21910238Y-17825719D01*
X21900714Y-17806672D01*
X21891190Y-17778100D01*
X21881667Y-17730481D01*
X21881667Y-17692386D01*
X21891190Y-17644767D01*
X21900714Y-17616195D01*
X21910238Y-17597148D01*
X21929286Y-17568576D01*
X21938810Y-17559052D01*
X22015000Y-17654291D02*
X22015000Y-17787624D01*
X22015000Y-17673338D02*
X22024524Y-17663814D01*
X22043571Y-17654291D01*
X22072143Y-17654291D01*
X22091190Y-17663814D01*
X22100714Y-17682862D01*
X22100714Y-17787624D01*
X22224524Y-17787624D02*
X22205476Y-17778100D01*
X22195952Y-17768576D01*
X22186429Y-17749529D01*
X22186429Y-17692386D01*
X22195952Y-17673338D01*
X22205476Y-17663814D01*
X22224524Y-17654291D01*
X22253095Y-17654291D01*
X22272143Y-17663814D01*
X22281667Y-17673338D01*
X22291190Y-17692386D01*
X22291190Y-17749529D01*
X22281667Y-17768576D01*
X22272143Y-17778100D01*
X22253095Y-17787624D01*
X22224524Y-17787624D01*
X22348333Y-17654291D02*
X22424524Y-17654291D01*
X22376905Y-17587624D02*
X22376905Y-17759052D01*
X22386428Y-17778100D01*
X22405476Y-17787624D01*
X22424524Y-17787624D01*
X22643571Y-17654291D02*
X22643571Y-17854291D01*
X22643571Y-17663814D02*
X22662619Y-17654291D01*
X22700714Y-17654291D01*
X22719762Y-17663814D01*
X22729286Y-17673338D01*
X22738809Y-17692386D01*
X22738809Y-17749529D01*
X22729286Y-17768576D01*
X22719762Y-17778100D01*
X22700714Y-17787624D01*
X22662619Y-17787624D01*
X22643571Y-17778100D01*
X22853095Y-17787624D02*
X22834048Y-17778100D01*
X22824524Y-17759052D01*
X22824524Y-17587624D01*
X23015000Y-17787624D02*
X23015000Y-17682862D01*
X23005476Y-17663814D01*
X22986428Y-17654291D01*
X22948333Y-17654291D01*
X22929286Y-17663814D01*
X23015000Y-17778100D02*
X22995952Y-17787624D01*
X22948333Y-17787624D01*
X22929286Y-17778100D01*
X22919762Y-17759052D01*
X22919762Y-17740005D01*
X22929286Y-17720957D01*
X22948333Y-17711433D01*
X22995952Y-17711433D01*
X23015000Y-17701910D01*
X23081667Y-17654291D02*
X23157857Y-17654291D01*
X23110238Y-17587624D02*
X23110238Y-17759052D01*
X23119762Y-17778100D01*
X23138809Y-17787624D01*
X23157857Y-17787624D01*
X23300714Y-17778100D02*
X23281667Y-17787624D01*
X23243571Y-17787624D01*
X23224524Y-17778100D01*
X23215000Y-17759052D01*
X23215000Y-17682862D01*
X23224524Y-17663814D01*
X23243571Y-17654291D01*
X23281667Y-17654291D01*
X23300714Y-17663814D01*
X23310238Y-17682862D01*
X23310238Y-17701910D01*
X23215000Y-17720957D01*
X23481667Y-17787624D02*
X23481667Y-17587624D01*
X23481667Y-17778100D02*
X23462619Y-17787624D01*
X23424524Y-17787624D01*
X23405476Y-17778100D01*
X23395952Y-17768576D01*
X23386428Y-17749529D01*
X23386428Y-17692386D01*
X23395952Y-17673338D01*
X23405476Y-17663814D01*
X23424524Y-17654291D01*
X23462619Y-17654291D01*
X23481667Y-17663814D01*
X23557857Y-17863814D02*
X23567381Y-17854291D01*
X23586428Y-17825719D01*
X23595952Y-17806672D01*
X23605476Y-17778100D01*
X23615000Y-17730481D01*
X23615000Y-17692386D01*
X23605476Y-17644767D01*
X23595952Y-17616195D01*
X23586428Y-17597148D01*
X23567381Y-17568576D01*
X23557857Y-17559052D01*
D20*
X16760000Y-17916148D02*
X16760000Y-18006148D01*
X16715000Y-17961148D02*
X16805000Y-17961148D01*
X16805000Y-17961148D02*
G75*
G03*
X16805000Y-17961148I-45000J0D01*
G01*
D11*
X17100714Y-17851624D02*
X17119762Y-17851624D01*
X17138810Y-17861148D01*
X17148333Y-17870672D01*
X17157857Y-17889719D01*
X17167381Y-17927814D01*
X17167381Y-17975433D01*
X17157857Y-18013529D01*
X17148333Y-18032576D01*
X17138810Y-18042100D01*
X17119762Y-18051624D01*
X17100714Y-18051624D01*
X17081667Y-18042100D01*
X17072143Y-18032576D01*
X17062619Y-18013529D01*
X17053095Y-17975433D01*
X17053095Y-17927814D01*
X17062619Y-17889719D01*
X17072143Y-17870672D01*
X17081667Y-17861148D01*
X17100714Y-17851624D01*
X17253095Y-18032576D02*
X17262619Y-18042100D01*
X17253095Y-18051624D01*
X17243571Y-18042100D01*
X17253095Y-18032576D01*
X17253095Y-18051624D01*
X17357857Y-18051624D02*
X17395952Y-18051624D01*
X17415000Y-18042100D01*
X17424524Y-18032576D01*
X17443571Y-18004005D01*
X17453095Y-17965910D01*
X17453095Y-17889719D01*
X17443571Y-17870672D01*
X17434048Y-17861148D01*
X17415000Y-17851624D01*
X17376905Y-17851624D01*
X17357857Y-17861148D01*
X17348333Y-17870672D01*
X17338810Y-17889719D01*
X17338810Y-17937338D01*
X17348333Y-17956386D01*
X17357857Y-17965910D01*
X17376905Y-17975433D01*
X17415000Y-17975433D01*
X17434048Y-17965910D01*
X17443571Y-17956386D01*
X17453095Y-17937338D01*
X17576905Y-17851624D02*
X17595952Y-17851624D01*
X17615000Y-17861148D01*
X17624524Y-17870672D01*
X17634048Y-17889719D01*
X17643571Y-17927814D01*
X17643571Y-17975433D01*
X17634048Y-18013529D01*
X17624524Y-18032576D01*
X17615000Y-18042100D01*
X17595952Y-18051624D01*
X17576905Y-18051624D01*
X17557857Y-18042100D01*
X17548333Y-18032576D01*
X17538810Y-18013529D01*
X17529286Y-17975433D01*
X17529286Y-17927814D01*
X17538810Y-17889719D01*
X17548333Y-17870672D01*
X17557857Y-17861148D01*
X17576905Y-17851624D01*
X17767381Y-17851624D02*
X17786429Y-17851624D01*
X17805476Y-17861148D01*
X17815000Y-17870672D01*
X17824524Y-17889719D01*
X17834048Y-17927814D01*
X17834048Y-17975433D01*
X17824524Y-18013529D01*
X17815000Y-18032576D01*
X17805476Y-18042100D01*
X17786429Y-18051624D01*
X17767381Y-18051624D01*
X17748333Y-18042100D01*
X17738810Y-18032576D01*
X17729286Y-18013529D01*
X17719762Y-17975433D01*
X17719762Y-17927814D01*
X17729286Y-17889719D01*
X17738810Y-17870672D01*
X17748333Y-17861148D01*
X17767381Y-17851624D01*
X17919762Y-18051624D02*
X17919762Y-17918291D01*
X17919762Y-17937338D02*
X17929286Y-17927814D01*
X17948333Y-17918291D01*
X17976905Y-17918291D01*
X17995952Y-17927814D01*
X18005476Y-17946862D01*
X18005476Y-18051624D01*
X18005476Y-17946862D02*
X18015000Y-17927814D01*
X18034048Y-17918291D01*
X18062619Y-17918291D01*
X18081667Y-17927814D01*
X18091190Y-17946862D01*
X18091190Y-18051624D01*
X18186429Y-18051624D02*
X18186429Y-17918291D01*
X18186429Y-17937338D02*
X18195952Y-17927814D01*
X18215000Y-17918291D01*
X18243571Y-17918291D01*
X18262619Y-17927814D01*
X18272143Y-17946862D01*
X18272143Y-18051624D01*
X18272143Y-17946862D02*
X18281667Y-17927814D01*
X18300714Y-17918291D01*
X18329286Y-17918291D01*
X18348333Y-17927814D01*
X18357857Y-17946862D01*
X18357857Y-18051624D01*
X18748333Y-17842100D02*
X18576905Y-18099243D01*
X19005476Y-17851624D02*
X19024524Y-17851624D01*
X19043571Y-17861148D01*
X19053095Y-17870672D01*
X19062619Y-17889719D01*
X19072143Y-17927814D01*
X19072143Y-17975433D01*
X19062619Y-18013529D01*
X19053095Y-18032576D01*
X19043571Y-18042100D01*
X19024524Y-18051624D01*
X19005476Y-18051624D01*
X18986429Y-18042100D01*
X18976905Y-18032576D01*
X18967381Y-18013529D01*
X18957857Y-17975433D01*
X18957857Y-17927814D01*
X18967381Y-17889719D01*
X18976905Y-17870672D01*
X18986429Y-17861148D01*
X19005476Y-17851624D01*
X19157857Y-18032576D02*
X19167381Y-18042100D01*
X19157857Y-18051624D01*
X19148333Y-18042100D01*
X19157857Y-18032576D01*
X19157857Y-18051624D01*
X19291190Y-17851624D02*
X19310238Y-17851624D01*
X19329286Y-17861148D01*
X19338810Y-17870672D01*
X19348333Y-17889719D01*
X19357857Y-17927814D01*
X19357857Y-17975433D01*
X19348333Y-18013529D01*
X19338810Y-18032576D01*
X19329286Y-18042100D01*
X19310238Y-18051624D01*
X19291190Y-18051624D01*
X19272143Y-18042100D01*
X19262619Y-18032576D01*
X19253095Y-18013529D01*
X19243571Y-17975433D01*
X19243571Y-17927814D01*
X19253095Y-17889719D01*
X19262619Y-17870672D01*
X19272143Y-17861148D01*
X19291190Y-17851624D01*
X19424524Y-17851624D02*
X19548333Y-17851624D01*
X19481667Y-17927814D01*
X19510238Y-17927814D01*
X19529286Y-17937338D01*
X19538810Y-17946862D01*
X19548333Y-17965910D01*
X19548333Y-18013529D01*
X19538810Y-18032576D01*
X19529286Y-18042100D01*
X19510238Y-18051624D01*
X19453095Y-18051624D01*
X19434048Y-18042100D01*
X19424524Y-18032576D01*
X19729286Y-17851624D02*
X19634048Y-17851624D01*
X19624524Y-17946862D01*
X19634048Y-17937338D01*
X19653095Y-17927814D01*
X19700714Y-17927814D01*
X19719762Y-17937338D01*
X19729286Y-17946862D01*
X19738810Y-17965910D01*
X19738810Y-18013529D01*
X19729286Y-18032576D01*
X19719762Y-18042100D01*
X19700714Y-18051624D01*
X19653095Y-18051624D01*
X19634048Y-18042100D01*
X19624524Y-18032576D01*
X19910238Y-17918291D02*
X19910238Y-18051624D01*
X19862619Y-17842100D02*
X19815000Y-17984957D01*
X19938810Y-17984957D01*
X20005476Y-17851624D02*
X20005476Y-17889719D01*
X20081667Y-17851624D02*
X20081667Y-17889719D01*
X20376905Y-18127814D02*
X20367381Y-18118291D01*
X20348333Y-18089719D01*
X20338810Y-18070672D01*
X20329286Y-18042100D01*
X20319762Y-17994481D01*
X20319762Y-17956386D01*
X20329286Y-17908767D01*
X20338810Y-17880195D01*
X20348333Y-17861148D01*
X20367381Y-17832576D01*
X20376905Y-17823052D01*
X20443571Y-17870672D02*
X20453095Y-17861148D01*
X20472143Y-17851624D01*
X20519762Y-17851624D01*
X20538810Y-17861148D01*
X20548333Y-17870672D01*
X20557857Y-17889719D01*
X20557857Y-17908767D01*
X20548333Y-17937338D01*
X20434048Y-18051624D01*
X20557857Y-18051624D01*
X20795952Y-18051624D02*
X20795952Y-17851624D01*
X20881667Y-18051624D02*
X20881667Y-17946862D01*
X20872143Y-17927814D01*
X20853095Y-17918291D01*
X20824524Y-17918291D01*
X20805476Y-17927814D01*
X20795952Y-17937338D01*
X21005476Y-18051624D02*
X20986429Y-18042100D01*
X20976905Y-18032576D01*
X20967381Y-18013529D01*
X20967381Y-17956386D01*
X20976905Y-17937338D01*
X20986429Y-17927814D01*
X21005476Y-17918291D01*
X21034048Y-17918291D01*
X21053095Y-17927814D01*
X21062619Y-17937338D01*
X21072143Y-17956386D01*
X21072143Y-18013529D01*
X21062619Y-18032576D01*
X21053095Y-18042100D01*
X21034048Y-18051624D01*
X21005476Y-18051624D01*
X21186429Y-18051624D02*
X21167381Y-18042100D01*
X21157857Y-18023052D01*
X21157857Y-17851624D01*
X21338810Y-18042100D02*
X21319762Y-18051624D01*
X21281667Y-18051624D01*
X21262619Y-18042100D01*
X21253095Y-18023052D01*
X21253095Y-17946862D01*
X21262619Y-17927814D01*
X21281667Y-17918291D01*
X21319762Y-17918291D01*
X21338810Y-17927814D01*
X21348333Y-17946862D01*
X21348333Y-17965910D01*
X21253095Y-17984957D01*
X21424524Y-18042100D02*
X21443571Y-18051624D01*
X21481667Y-18051624D01*
X21500714Y-18042100D01*
X21510238Y-18023052D01*
X21510238Y-18013529D01*
X21500714Y-17994481D01*
X21481667Y-17984957D01*
X21453095Y-17984957D01*
X21434048Y-17975433D01*
X21424524Y-17956386D01*
X21424524Y-17946862D01*
X21434048Y-17927814D01*
X21453095Y-17918291D01*
X21481667Y-17918291D01*
X21500714Y-17927814D01*
X21576905Y-18127814D02*
X21586429Y-18118291D01*
X21605476Y-18089719D01*
X21615000Y-18070672D01*
X21624524Y-18042100D01*
X21634048Y-17994481D01*
X21634048Y-17956386D01*
X21624524Y-17908767D01*
X21615000Y-17880195D01*
X21605476Y-17861148D01*
X21586429Y-17832576D01*
X21576905Y-17823052D01*
X21938810Y-18127814D02*
X21929286Y-18118291D01*
X21910238Y-18089719D01*
X21900714Y-18070672D01*
X21891190Y-18042100D01*
X21881667Y-17994481D01*
X21881667Y-17956386D01*
X21891190Y-17908767D01*
X21900714Y-17880195D01*
X21910238Y-17861148D01*
X21929286Y-17832576D01*
X21938810Y-17823052D01*
X22015000Y-17918291D02*
X22015000Y-18051624D01*
X22015000Y-17937338D02*
X22024524Y-17927814D01*
X22043571Y-17918291D01*
X22072143Y-17918291D01*
X22091190Y-17927814D01*
X22100714Y-17946862D01*
X22100714Y-18051624D01*
X22224524Y-18051624D02*
X22205476Y-18042100D01*
X22195952Y-18032576D01*
X22186429Y-18013529D01*
X22186429Y-17956386D01*
X22195952Y-17937338D01*
X22205476Y-17927814D01*
X22224524Y-17918291D01*
X22253095Y-17918291D01*
X22272143Y-17927814D01*
X22281667Y-17937338D01*
X22291190Y-17956386D01*
X22291190Y-18013529D01*
X22281667Y-18032576D01*
X22272143Y-18042100D01*
X22253095Y-18051624D01*
X22224524Y-18051624D01*
X22348333Y-17918291D02*
X22424524Y-17918291D01*
X22376905Y-17851624D02*
X22376905Y-18023052D01*
X22386428Y-18042100D01*
X22405476Y-18051624D01*
X22424524Y-18051624D01*
X22643571Y-17918291D02*
X22643571Y-18118291D01*
X22643571Y-17927814D02*
X22662619Y-17918291D01*
X22700714Y-17918291D01*
X22719762Y-17927814D01*
X22729286Y-17937338D01*
X22738809Y-17956386D01*
X22738809Y-18013529D01*
X22729286Y-18032576D01*
X22719762Y-18042100D01*
X22700714Y-18051624D01*
X22662619Y-18051624D01*
X22643571Y-18042100D01*
X22853095Y-18051624D02*
X22834048Y-18042100D01*
X22824524Y-18023052D01*
X22824524Y-17851624D01*
X23015000Y-18051624D02*
X23015000Y-17946862D01*
X23005476Y-17927814D01*
X22986428Y-17918291D01*
X22948333Y-17918291D01*
X22929286Y-17927814D01*
X23015000Y-18042100D02*
X22995952Y-18051624D01*
X22948333Y-18051624D01*
X22929286Y-18042100D01*
X22919762Y-18023052D01*
X22919762Y-18004005D01*
X22929286Y-17984957D01*
X22948333Y-17975433D01*
X22995952Y-17975433D01*
X23015000Y-17965910D01*
X23081667Y-17918291D02*
X23157857Y-17918291D01*
X23110238Y-17851624D02*
X23110238Y-18023052D01*
X23119762Y-18042100D01*
X23138809Y-18051624D01*
X23157857Y-18051624D01*
X23300714Y-18042100D02*
X23281667Y-18051624D01*
X23243571Y-18051624D01*
X23224524Y-18042100D01*
X23215000Y-18023052D01*
X23215000Y-17946862D01*
X23224524Y-17927814D01*
X23243571Y-17918291D01*
X23281667Y-17918291D01*
X23300714Y-17927814D01*
X23310238Y-17946862D01*
X23310238Y-17965910D01*
X23215000Y-17984957D01*
X23481667Y-18051624D02*
X23481667Y-17851624D01*
X23481667Y-18042100D02*
X23462619Y-18051624D01*
X23424524Y-18051624D01*
X23405476Y-18042100D01*
X23395952Y-18032576D01*
X23386428Y-18013529D01*
X23386428Y-17956386D01*
X23395952Y-17937338D01*
X23405476Y-17927814D01*
X23424524Y-17918291D01*
X23462619Y-17918291D01*
X23481667Y-17927814D01*
X23557857Y-18127814D02*
X23567381Y-18118291D01*
X23586428Y-18089719D01*
X23595952Y-18070672D01*
X23605476Y-18042100D01*
X23615000Y-17994481D01*
X23615000Y-17956386D01*
X23605476Y-17908767D01*
X23595952Y-17880195D01*
X23586428Y-17861148D01*
X23567381Y-17832576D01*
X23557857Y-17823052D01*
D21*
X16788891Y-18264039D02*
X16788891Y-18186257D01*
X16711109Y-18186257D01*
X16711109Y-18264039D01*
X16788891Y-18264039D01*
X16805000Y-18225148D02*
G75*
G03*
X16805000Y-18225148I-55000J0D01*
G01*
D11*
X17167381Y-18315624D02*
X17053095Y-18315624D01*
X17110238Y-18315624D02*
X17110238Y-18115624D01*
X17091190Y-18144195D01*
X17072143Y-18163243D01*
X17053095Y-18172767D01*
X17253095Y-18296576D02*
X17262619Y-18306100D01*
X17253095Y-18315624D01*
X17243571Y-18306100D01*
X17253095Y-18296576D01*
X17253095Y-18315624D01*
X17453095Y-18315624D02*
X17338810Y-18315624D01*
X17395952Y-18315624D02*
X17395952Y-18115624D01*
X17376905Y-18144195D01*
X17357857Y-18163243D01*
X17338810Y-18172767D01*
X17576905Y-18115624D02*
X17595952Y-18115624D01*
X17615000Y-18125148D01*
X17624524Y-18134672D01*
X17634048Y-18153719D01*
X17643571Y-18191814D01*
X17643571Y-18239433D01*
X17634048Y-18277529D01*
X17624524Y-18296576D01*
X17615000Y-18306100D01*
X17595952Y-18315624D01*
X17576905Y-18315624D01*
X17557857Y-18306100D01*
X17548333Y-18296576D01*
X17538810Y-18277529D01*
X17529286Y-18239433D01*
X17529286Y-18191814D01*
X17538810Y-18153719D01*
X17548333Y-18134672D01*
X17557857Y-18125148D01*
X17576905Y-18115624D01*
X17767381Y-18115624D02*
X17786429Y-18115624D01*
X17805476Y-18125148D01*
X17815000Y-18134672D01*
X17824524Y-18153719D01*
X17834048Y-18191814D01*
X17834048Y-18239433D01*
X17824524Y-18277529D01*
X17815000Y-18296576D01*
X17805476Y-18306100D01*
X17786429Y-18315624D01*
X17767381Y-18315624D01*
X17748333Y-18306100D01*
X17738810Y-18296576D01*
X17729286Y-18277529D01*
X17719762Y-18239433D01*
X17719762Y-18191814D01*
X17729286Y-18153719D01*
X17738810Y-18134672D01*
X17748333Y-18125148D01*
X17767381Y-18115624D01*
X17919762Y-18315624D02*
X17919762Y-18182291D01*
X17919762Y-18201338D02*
X17929286Y-18191814D01*
X17948333Y-18182291D01*
X17976905Y-18182291D01*
X17995952Y-18191814D01*
X18005476Y-18210862D01*
X18005476Y-18315624D01*
X18005476Y-18210862D02*
X18015000Y-18191814D01*
X18034048Y-18182291D01*
X18062619Y-18182291D01*
X18081667Y-18191814D01*
X18091190Y-18210862D01*
X18091190Y-18315624D01*
X18186429Y-18315624D02*
X18186429Y-18182291D01*
X18186429Y-18201338D02*
X18195952Y-18191814D01*
X18215000Y-18182291D01*
X18243571Y-18182291D01*
X18262619Y-18191814D01*
X18272143Y-18210862D01*
X18272143Y-18315624D01*
X18272143Y-18210862D02*
X18281667Y-18191814D01*
X18300714Y-18182291D01*
X18329286Y-18182291D01*
X18348333Y-18191814D01*
X18357857Y-18210862D01*
X18357857Y-18315624D01*
X18748333Y-18106100D02*
X18576905Y-18363243D01*
X19005476Y-18115624D02*
X19024524Y-18115624D01*
X19043571Y-18125148D01*
X19053095Y-18134672D01*
X19062619Y-18153719D01*
X19072143Y-18191814D01*
X19072143Y-18239433D01*
X19062619Y-18277529D01*
X19053095Y-18296576D01*
X19043571Y-18306100D01*
X19024524Y-18315624D01*
X19005476Y-18315624D01*
X18986429Y-18306100D01*
X18976905Y-18296576D01*
X18967381Y-18277529D01*
X18957857Y-18239433D01*
X18957857Y-18191814D01*
X18967381Y-18153719D01*
X18976905Y-18134672D01*
X18986429Y-18125148D01*
X19005476Y-18115624D01*
X19157857Y-18296576D02*
X19167381Y-18306100D01*
X19157857Y-18315624D01*
X19148333Y-18306100D01*
X19157857Y-18296576D01*
X19157857Y-18315624D01*
X19291190Y-18115624D02*
X19310238Y-18115624D01*
X19329286Y-18125148D01*
X19338810Y-18134672D01*
X19348333Y-18153719D01*
X19357857Y-18191814D01*
X19357857Y-18239433D01*
X19348333Y-18277529D01*
X19338810Y-18296576D01*
X19329286Y-18306100D01*
X19310238Y-18315624D01*
X19291190Y-18315624D01*
X19272143Y-18306100D01*
X19262619Y-18296576D01*
X19253095Y-18277529D01*
X19243571Y-18239433D01*
X19243571Y-18191814D01*
X19253095Y-18153719D01*
X19262619Y-18134672D01*
X19272143Y-18125148D01*
X19291190Y-18115624D01*
X19529286Y-18182291D02*
X19529286Y-18315624D01*
X19481667Y-18106100D02*
X19434048Y-18248957D01*
X19557857Y-18248957D01*
X19615000Y-18115624D02*
X19738810Y-18115624D01*
X19672143Y-18191814D01*
X19700714Y-18191814D01*
X19719762Y-18201338D01*
X19729286Y-18210862D01*
X19738810Y-18229910D01*
X19738810Y-18277529D01*
X19729286Y-18296576D01*
X19719762Y-18306100D01*
X19700714Y-18315624D01*
X19643571Y-18315624D01*
X19624524Y-18306100D01*
X19615000Y-18296576D01*
X19805476Y-18115624D02*
X19929286Y-18115624D01*
X19862619Y-18191814D01*
X19891190Y-18191814D01*
X19910238Y-18201338D01*
X19919762Y-18210862D01*
X19929286Y-18229910D01*
X19929286Y-18277529D01*
X19919762Y-18296576D01*
X19910238Y-18306100D01*
X19891190Y-18315624D01*
X19834048Y-18315624D01*
X19815000Y-18306100D01*
X19805476Y-18296576D01*
X20005476Y-18115624D02*
X20005476Y-18153719D01*
X20081667Y-18115624D02*
X20081667Y-18153719D01*
X20376905Y-18391814D02*
X20367381Y-18382291D01*
X20348333Y-18353719D01*
X20338810Y-18334672D01*
X20329286Y-18306100D01*
X20319762Y-18258481D01*
X20319762Y-18220386D01*
X20329286Y-18172767D01*
X20338810Y-18144195D01*
X20348333Y-18125148D01*
X20367381Y-18096576D01*
X20376905Y-18087052D01*
X20491190Y-18115624D02*
X20510238Y-18115624D01*
X20529286Y-18125148D01*
X20538810Y-18134672D01*
X20548333Y-18153719D01*
X20557857Y-18191814D01*
X20557857Y-18239433D01*
X20548333Y-18277529D01*
X20538810Y-18296576D01*
X20529286Y-18306100D01*
X20510238Y-18315624D01*
X20491190Y-18315624D01*
X20472143Y-18306100D01*
X20462619Y-18296576D01*
X20453095Y-18277529D01*
X20443571Y-18239433D01*
X20443571Y-18191814D01*
X20453095Y-18153719D01*
X20462619Y-18134672D01*
X20472143Y-18125148D01*
X20491190Y-18115624D01*
X20795952Y-18315624D02*
X20795952Y-18115624D01*
X20881667Y-18315624D02*
X20881667Y-18210862D01*
X20872143Y-18191814D01*
X20853095Y-18182291D01*
X20824524Y-18182291D01*
X20805476Y-18191814D01*
X20795952Y-18201338D01*
X21005476Y-18315624D02*
X20986429Y-18306100D01*
X20976905Y-18296576D01*
X20967381Y-18277529D01*
X20967381Y-18220386D01*
X20976905Y-18201338D01*
X20986429Y-18191814D01*
X21005476Y-18182291D01*
X21034048Y-18182291D01*
X21053095Y-18191814D01*
X21062619Y-18201338D01*
X21072143Y-18220386D01*
X21072143Y-18277529D01*
X21062619Y-18296576D01*
X21053095Y-18306100D01*
X21034048Y-18315624D01*
X21005476Y-18315624D01*
X21186429Y-18315624D02*
X21167381Y-18306100D01*
X21157857Y-18287052D01*
X21157857Y-18115624D01*
X21338810Y-18306100D02*
X21319762Y-18315624D01*
X21281667Y-18315624D01*
X21262619Y-18306100D01*
X21253095Y-18287052D01*
X21253095Y-18210862D01*
X21262619Y-18191814D01*
X21281667Y-18182291D01*
X21319762Y-18182291D01*
X21338810Y-18191814D01*
X21348333Y-18210862D01*
X21348333Y-18229910D01*
X21253095Y-18248957D01*
X21424524Y-18306100D02*
X21443571Y-18315624D01*
X21481667Y-18315624D01*
X21500714Y-18306100D01*
X21510238Y-18287052D01*
X21510238Y-18277529D01*
X21500714Y-18258481D01*
X21481667Y-18248957D01*
X21453095Y-18248957D01*
X21434048Y-18239433D01*
X21424524Y-18220386D01*
X21424524Y-18210862D01*
X21434048Y-18191814D01*
X21453095Y-18182291D01*
X21481667Y-18182291D01*
X21500714Y-18191814D01*
X21748333Y-18239433D02*
X21900714Y-18239433D01*
X21824524Y-18315624D02*
X21824524Y-18163243D01*
X22138810Y-18134672D02*
X22148333Y-18125148D01*
X22167381Y-18115624D01*
X22215000Y-18115624D01*
X22234048Y-18125148D01*
X22243571Y-18134672D01*
X22253095Y-18153719D01*
X22253095Y-18172767D01*
X22243571Y-18201338D01*
X22129286Y-18315624D01*
X22253095Y-18315624D01*
X22481667Y-18306100D02*
X22500714Y-18315624D01*
X22538809Y-18315624D01*
X22557857Y-18306100D01*
X22567381Y-18287052D01*
X22567381Y-18277529D01*
X22557857Y-18258481D01*
X22538809Y-18248957D01*
X22510238Y-18248957D01*
X22491190Y-18239433D01*
X22481667Y-18220386D01*
X22481667Y-18210862D01*
X22491190Y-18191814D01*
X22510238Y-18182291D01*
X22538809Y-18182291D01*
X22557857Y-18191814D01*
X22681667Y-18315624D02*
X22662619Y-18306100D01*
X22653095Y-18287052D01*
X22653095Y-18115624D01*
X22786428Y-18315624D02*
X22767381Y-18306100D01*
X22757857Y-18296576D01*
X22748333Y-18277529D01*
X22748333Y-18220386D01*
X22757857Y-18201338D01*
X22767381Y-18191814D01*
X22786428Y-18182291D01*
X22815000Y-18182291D01*
X22834048Y-18191814D01*
X22843571Y-18201338D01*
X22853095Y-18220386D01*
X22853095Y-18277529D01*
X22843571Y-18296576D01*
X22834048Y-18306100D01*
X22815000Y-18315624D01*
X22786428Y-18315624D01*
X22910238Y-18182291D02*
X22986428Y-18182291D01*
X22938809Y-18115624D02*
X22938809Y-18287052D01*
X22948333Y-18306100D01*
X22967381Y-18315624D01*
X22986428Y-18315624D01*
X23043571Y-18306100D02*
X23062619Y-18315624D01*
X23100714Y-18315624D01*
X23119762Y-18306100D01*
X23129286Y-18287052D01*
X23129286Y-18277529D01*
X23119762Y-18258481D01*
X23100714Y-18248957D01*
X23072143Y-18248957D01*
X23053095Y-18239433D01*
X23043571Y-18220386D01*
X23043571Y-18210862D01*
X23053095Y-18191814D01*
X23072143Y-18182291D01*
X23100714Y-18182291D01*
X23119762Y-18191814D01*
X23195952Y-18391814D02*
X23205476Y-18382291D01*
X23224524Y-18353719D01*
X23234048Y-18334672D01*
X23243571Y-18306100D01*
X23253095Y-18258481D01*
X23253095Y-18220386D01*
X23243571Y-18172767D01*
X23234048Y-18144195D01*
X23224524Y-18125148D01*
X23205476Y-18096576D01*
X23195952Y-18087052D01*
X23557857Y-18391814D02*
X23548333Y-18382291D01*
X23529286Y-18353719D01*
X23519762Y-18334672D01*
X23510238Y-18306100D01*
X23500714Y-18258481D01*
X23500714Y-18220386D01*
X23510238Y-18172767D01*
X23519762Y-18144195D01*
X23529286Y-18125148D01*
X23548333Y-18096576D01*
X23557857Y-18087052D01*
X23634048Y-18182291D02*
X23634048Y-18315624D01*
X23634048Y-18201338D02*
X23643571Y-18191814D01*
X23662619Y-18182291D01*
X23691190Y-18182291D01*
X23710238Y-18191814D01*
X23719762Y-18210862D01*
X23719762Y-18315624D01*
X23843571Y-18315624D02*
X23824524Y-18306100D01*
X23815000Y-18296576D01*
X23805476Y-18277529D01*
X23805476Y-18220386D01*
X23815000Y-18201338D01*
X23824524Y-18191814D01*
X23843571Y-18182291D01*
X23872143Y-18182291D01*
X23891190Y-18191814D01*
X23900714Y-18201338D01*
X23910238Y-18220386D01*
X23910238Y-18277529D01*
X23900714Y-18296576D01*
X23891190Y-18306100D01*
X23872143Y-18315624D01*
X23843571Y-18315624D01*
X23967381Y-18182291D02*
X24043571Y-18182291D01*
X23995952Y-18115624D02*
X23995952Y-18287052D01*
X24005476Y-18306100D01*
X24024524Y-18315624D01*
X24043571Y-18315624D01*
X24262619Y-18182291D02*
X24262619Y-18382291D01*
X24262619Y-18191814D02*
X24281667Y-18182291D01*
X24319762Y-18182291D01*
X24338809Y-18191814D01*
X24348333Y-18201338D01*
X24357857Y-18220386D01*
X24357857Y-18277529D01*
X24348333Y-18296576D01*
X24338809Y-18306100D01*
X24319762Y-18315624D01*
X24281667Y-18315624D01*
X24262619Y-18306100D01*
X24472143Y-18315624D02*
X24453095Y-18306100D01*
X24443571Y-18287052D01*
X24443571Y-18115624D01*
X24634048Y-18315624D02*
X24634048Y-18210862D01*
X24624524Y-18191814D01*
X24605476Y-18182291D01*
X24567381Y-18182291D01*
X24548333Y-18191814D01*
X24634048Y-18306100D02*
X24615000Y-18315624D01*
X24567381Y-18315624D01*
X24548333Y-18306100D01*
X24538809Y-18287052D01*
X24538809Y-18268005D01*
X24548333Y-18248957D01*
X24567381Y-18239433D01*
X24615000Y-18239433D01*
X24634048Y-18229910D01*
X24700714Y-18182291D02*
X24776905Y-18182291D01*
X24729286Y-18115624D02*
X24729286Y-18287052D01*
X24738809Y-18306100D01*
X24757857Y-18315624D01*
X24776905Y-18315624D01*
X24919762Y-18306100D02*
X24900714Y-18315624D01*
X24862619Y-18315624D01*
X24843571Y-18306100D01*
X24834048Y-18287052D01*
X24834048Y-18210862D01*
X24843571Y-18191814D01*
X24862619Y-18182291D01*
X24900714Y-18182291D01*
X24919762Y-18191814D01*
X24929286Y-18210862D01*
X24929286Y-18229910D01*
X24834048Y-18248957D01*
X25100714Y-18315624D02*
X25100714Y-18115624D01*
X25100714Y-18306100D02*
X25081667Y-18315624D01*
X25043571Y-18315624D01*
X25024524Y-18306100D01*
X25015000Y-18296576D01*
X25005476Y-18277529D01*
X25005476Y-18220386D01*
X25015000Y-18201338D01*
X25024524Y-18191814D01*
X25043571Y-18182291D01*
X25081667Y-18182291D01*
X25100714Y-18191814D01*
X25176905Y-18391814D02*
X25186428Y-18382291D01*
X25205476Y-18353719D01*
X25215000Y-18334672D01*
X25224524Y-18306100D01*
X25234048Y-18258481D01*
X25234048Y-18220386D01*
X25224524Y-18172767D01*
X25215000Y-18144195D01*
X25205476Y-18125148D01*
X25186428Y-18096576D01*
X25176905Y-18087052D01*
D22*
X16723500Y-18570648D02*
X16805000Y-18489148D01*
X16723500Y-18407648D01*
X16642000Y-18489148D01*
X16723500Y-18570648D01*
X16805000Y-18489148D02*
G75*
G03*
X16805000Y-18489148I-81500J0D01*
G01*
D11*
X17167381Y-18579624D02*
X17053095Y-18579624D01*
X17110238Y-18579624D02*
X17110238Y-18379624D01*
X17091190Y-18408195D01*
X17072143Y-18427243D01*
X17053095Y-18436767D01*
X17253095Y-18560576D02*
X17262619Y-18570100D01*
X17253095Y-18579624D01*
X17243571Y-18570100D01*
X17253095Y-18560576D01*
X17253095Y-18579624D01*
X17434048Y-18379624D02*
X17395952Y-18379624D01*
X17376905Y-18389148D01*
X17367381Y-18398672D01*
X17348333Y-18427243D01*
X17338810Y-18465338D01*
X17338810Y-18541529D01*
X17348333Y-18560576D01*
X17357857Y-18570100D01*
X17376905Y-18579624D01*
X17415000Y-18579624D01*
X17434048Y-18570100D01*
X17443571Y-18560576D01*
X17453095Y-18541529D01*
X17453095Y-18493910D01*
X17443571Y-18474862D01*
X17434048Y-18465338D01*
X17415000Y-18455814D01*
X17376905Y-18455814D01*
X17357857Y-18465338D01*
X17348333Y-18474862D01*
X17338810Y-18493910D01*
X17519762Y-18379624D02*
X17643571Y-18379624D01*
X17576905Y-18455814D01*
X17605476Y-18455814D01*
X17624524Y-18465338D01*
X17634048Y-18474862D01*
X17643571Y-18493910D01*
X17643571Y-18541529D01*
X17634048Y-18560576D01*
X17624524Y-18570100D01*
X17605476Y-18579624D01*
X17548333Y-18579624D01*
X17529286Y-18570100D01*
X17519762Y-18560576D01*
X17767381Y-18379624D02*
X17786429Y-18379624D01*
X17805476Y-18389148D01*
X17815000Y-18398672D01*
X17824524Y-18417719D01*
X17834048Y-18455814D01*
X17834048Y-18503433D01*
X17824524Y-18541529D01*
X17815000Y-18560576D01*
X17805476Y-18570100D01*
X17786429Y-18579624D01*
X17767381Y-18579624D01*
X17748333Y-18570100D01*
X17738810Y-18560576D01*
X17729286Y-18541529D01*
X17719762Y-18503433D01*
X17719762Y-18455814D01*
X17729286Y-18417719D01*
X17738810Y-18398672D01*
X17748333Y-18389148D01*
X17767381Y-18379624D01*
X17919762Y-18579624D02*
X17919762Y-18446291D01*
X17919762Y-18465338D02*
X17929286Y-18455814D01*
X17948333Y-18446291D01*
X17976905Y-18446291D01*
X17995952Y-18455814D01*
X18005476Y-18474862D01*
X18005476Y-18579624D01*
X18005476Y-18474862D02*
X18015000Y-18455814D01*
X18034048Y-18446291D01*
X18062619Y-18446291D01*
X18081667Y-18455814D01*
X18091190Y-18474862D01*
X18091190Y-18579624D01*
X18186429Y-18579624D02*
X18186429Y-18446291D01*
X18186429Y-18465338D02*
X18195952Y-18455814D01*
X18215000Y-18446291D01*
X18243571Y-18446291D01*
X18262619Y-18455814D01*
X18272143Y-18474862D01*
X18272143Y-18579624D01*
X18272143Y-18474862D02*
X18281667Y-18455814D01*
X18300714Y-18446291D01*
X18329286Y-18446291D01*
X18348333Y-18455814D01*
X18357857Y-18474862D01*
X18357857Y-18579624D01*
X18748333Y-18370100D02*
X18576905Y-18627243D01*
X19005476Y-18379624D02*
X19024524Y-18379624D01*
X19043571Y-18389148D01*
X19053095Y-18398672D01*
X19062619Y-18417719D01*
X19072143Y-18455814D01*
X19072143Y-18503433D01*
X19062619Y-18541529D01*
X19053095Y-18560576D01*
X19043571Y-18570100D01*
X19024524Y-18579624D01*
X19005476Y-18579624D01*
X18986429Y-18570100D01*
X18976905Y-18560576D01*
X18967381Y-18541529D01*
X18957857Y-18503433D01*
X18957857Y-18455814D01*
X18967381Y-18417719D01*
X18976905Y-18398672D01*
X18986429Y-18389148D01*
X19005476Y-18379624D01*
X19157857Y-18560576D02*
X19167381Y-18570100D01*
X19157857Y-18579624D01*
X19148333Y-18570100D01*
X19157857Y-18560576D01*
X19157857Y-18579624D01*
X19291190Y-18379624D02*
X19310238Y-18379624D01*
X19329286Y-18389148D01*
X19338810Y-18398672D01*
X19348333Y-18417719D01*
X19357857Y-18455814D01*
X19357857Y-18503433D01*
X19348333Y-18541529D01*
X19338810Y-18560576D01*
X19329286Y-18570100D01*
X19310238Y-18579624D01*
X19291190Y-18579624D01*
X19272143Y-18570100D01*
X19262619Y-18560576D01*
X19253095Y-18541529D01*
X19243571Y-18503433D01*
X19243571Y-18455814D01*
X19253095Y-18417719D01*
X19262619Y-18398672D01*
X19272143Y-18389148D01*
X19291190Y-18379624D01*
X19529286Y-18379624D02*
X19491190Y-18379624D01*
X19472143Y-18389148D01*
X19462619Y-18398672D01*
X19443571Y-18427243D01*
X19434048Y-18465338D01*
X19434048Y-18541529D01*
X19443571Y-18560576D01*
X19453095Y-18570100D01*
X19472143Y-18579624D01*
X19510238Y-18579624D01*
X19529286Y-18570100D01*
X19538810Y-18560576D01*
X19548333Y-18541529D01*
X19548333Y-18493910D01*
X19538810Y-18474862D01*
X19529286Y-18465338D01*
X19510238Y-18455814D01*
X19472143Y-18455814D01*
X19453095Y-18465338D01*
X19443571Y-18474862D01*
X19434048Y-18493910D01*
X19719762Y-18446291D02*
X19719762Y-18579624D01*
X19672143Y-18370100D02*
X19624524Y-18512957D01*
X19748333Y-18512957D01*
X19815000Y-18398672D02*
X19824524Y-18389148D01*
X19843571Y-18379624D01*
X19891190Y-18379624D01*
X19910238Y-18389148D01*
X19919762Y-18398672D01*
X19929286Y-18417719D01*
X19929286Y-18436767D01*
X19919762Y-18465338D01*
X19805476Y-18579624D01*
X19929286Y-18579624D01*
X20005476Y-18379624D02*
X20005476Y-18417719D01*
X20081667Y-18379624D02*
X20081667Y-18417719D01*
X20376905Y-18655814D02*
X20367381Y-18646291D01*
X20348333Y-18617719D01*
X20338810Y-18598672D01*
X20329286Y-18570100D01*
X20319762Y-18522481D01*
X20319762Y-18484386D01*
X20329286Y-18436767D01*
X20338810Y-18408195D01*
X20348333Y-18389148D01*
X20367381Y-18360576D01*
X20376905Y-18351052D01*
X20443571Y-18398672D02*
X20453095Y-18389148D01*
X20472143Y-18379624D01*
X20519762Y-18379624D01*
X20538810Y-18389148D01*
X20548333Y-18398672D01*
X20557857Y-18417719D01*
X20557857Y-18436767D01*
X20548333Y-18465338D01*
X20434048Y-18579624D01*
X20557857Y-18579624D01*
X20795952Y-18579624D02*
X20795952Y-18379624D01*
X20881667Y-18579624D02*
X20881667Y-18474862D01*
X20872143Y-18455814D01*
X20853095Y-18446291D01*
X20824524Y-18446291D01*
X20805476Y-18455814D01*
X20795952Y-18465338D01*
X21005476Y-18579624D02*
X20986429Y-18570100D01*
X20976905Y-18560576D01*
X20967381Y-18541529D01*
X20967381Y-18484386D01*
X20976905Y-18465338D01*
X20986429Y-18455814D01*
X21005476Y-18446291D01*
X21034048Y-18446291D01*
X21053095Y-18455814D01*
X21062619Y-18465338D01*
X21072143Y-18484386D01*
X21072143Y-18541529D01*
X21062619Y-18560576D01*
X21053095Y-18570100D01*
X21034048Y-18579624D01*
X21005476Y-18579624D01*
X21186429Y-18579624D02*
X21167381Y-18570100D01*
X21157857Y-18551052D01*
X21157857Y-18379624D01*
X21338810Y-18570100D02*
X21319762Y-18579624D01*
X21281667Y-18579624D01*
X21262619Y-18570100D01*
X21253095Y-18551052D01*
X21253095Y-18474862D01*
X21262619Y-18455814D01*
X21281667Y-18446291D01*
X21319762Y-18446291D01*
X21338810Y-18455814D01*
X21348333Y-18474862D01*
X21348333Y-18493910D01*
X21253095Y-18512957D01*
X21424524Y-18570100D02*
X21443571Y-18579624D01*
X21481667Y-18579624D01*
X21500714Y-18570100D01*
X21510238Y-18551052D01*
X21510238Y-18541529D01*
X21500714Y-18522481D01*
X21481667Y-18512957D01*
X21453095Y-18512957D01*
X21434048Y-18503433D01*
X21424524Y-18484386D01*
X21424524Y-18474862D01*
X21434048Y-18455814D01*
X21453095Y-18446291D01*
X21481667Y-18446291D01*
X21500714Y-18455814D01*
X21576905Y-18655814D02*
X21586429Y-18646291D01*
X21605476Y-18617719D01*
X21615000Y-18598672D01*
X21624524Y-18570100D01*
X21634048Y-18522481D01*
X21634048Y-18484386D01*
X21624524Y-18436767D01*
X21615000Y-18408195D01*
X21605476Y-18389148D01*
X21586429Y-18360576D01*
X21576905Y-18351052D01*
X21938810Y-18655814D02*
X21929286Y-18646291D01*
X21910238Y-18617719D01*
X21900714Y-18598672D01*
X21891190Y-18570100D01*
X21881667Y-18522481D01*
X21881667Y-18484386D01*
X21891190Y-18436767D01*
X21900714Y-18408195D01*
X21910238Y-18389148D01*
X21929286Y-18360576D01*
X21938810Y-18351052D01*
X22015000Y-18446291D02*
X22015000Y-18579624D01*
X22015000Y-18465338D02*
X22024524Y-18455814D01*
X22043571Y-18446291D01*
X22072143Y-18446291D01*
X22091190Y-18455814D01*
X22100714Y-18474862D01*
X22100714Y-18579624D01*
X22224524Y-18579624D02*
X22205476Y-18570100D01*
X22195952Y-18560576D01*
X22186429Y-18541529D01*
X22186429Y-18484386D01*
X22195952Y-18465338D01*
X22205476Y-18455814D01*
X22224524Y-18446291D01*
X22253095Y-18446291D01*
X22272143Y-18455814D01*
X22281667Y-18465338D01*
X22291190Y-18484386D01*
X22291190Y-18541529D01*
X22281667Y-18560576D01*
X22272143Y-18570100D01*
X22253095Y-18579624D01*
X22224524Y-18579624D01*
X22348333Y-18446291D02*
X22424524Y-18446291D01*
X22376905Y-18379624D02*
X22376905Y-18551052D01*
X22386428Y-18570100D01*
X22405476Y-18579624D01*
X22424524Y-18579624D01*
X22643571Y-18446291D02*
X22643571Y-18646291D01*
X22643571Y-18455814D02*
X22662619Y-18446291D01*
X22700714Y-18446291D01*
X22719762Y-18455814D01*
X22729286Y-18465338D01*
X22738809Y-18484386D01*
X22738809Y-18541529D01*
X22729286Y-18560576D01*
X22719762Y-18570100D01*
X22700714Y-18579624D01*
X22662619Y-18579624D01*
X22643571Y-18570100D01*
X22853095Y-18579624D02*
X22834048Y-18570100D01*
X22824524Y-18551052D01*
X22824524Y-18379624D01*
X23015000Y-18579624D02*
X23015000Y-18474862D01*
X23005476Y-18455814D01*
X22986428Y-18446291D01*
X22948333Y-18446291D01*
X22929286Y-18455814D01*
X23015000Y-18570100D02*
X22995952Y-18579624D01*
X22948333Y-18579624D01*
X22929286Y-18570100D01*
X22919762Y-18551052D01*
X22919762Y-18532005D01*
X22929286Y-18512957D01*
X22948333Y-18503433D01*
X22995952Y-18503433D01*
X23015000Y-18493910D01*
X23081667Y-18446291D02*
X23157857Y-18446291D01*
X23110238Y-18379624D02*
X23110238Y-18551052D01*
X23119762Y-18570100D01*
X23138809Y-18579624D01*
X23157857Y-18579624D01*
X23300714Y-18570100D02*
X23281667Y-18579624D01*
X23243571Y-18579624D01*
X23224524Y-18570100D01*
X23215000Y-18551052D01*
X23215000Y-18474862D01*
X23224524Y-18455814D01*
X23243571Y-18446291D01*
X23281667Y-18446291D01*
X23300714Y-18455814D01*
X23310238Y-18474862D01*
X23310238Y-18493910D01*
X23215000Y-18512957D01*
X23481667Y-18579624D02*
X23481667Y-18379624D01*
X23481667Y-18570100D02*
X23462619Y-18579624D01*
X23424524Y-18579624D01*
X23405476Y-18570100D01*
X23395952Y-18560576D01*
X23386428Y-18541529D01*
X23386428Y-18484386D01*
X23395952Y-18465338D01*
X23405476Y-18455814D01*
X23424524Y-18446291D01*
X23462619Y-18446291D01*
X23481667Y-18455814D01*
X23557857Y-18655814D02*
X23567381Y-18646291D01*
X23586428Y-18617719D01*
X23595952Y-18598672D01*
X23605476Y-18570100D01*
X23615000Y-18522481D01*
X23615000Y-18484386D01*
X23605476Y-18436767D01*
X23595952Y-18408195D01*
X23586428Y-18389148D01*
X23567381Y-18360576D01*
X23557857Y-18351052D01*
X16705000Y-18672148D02*
X16705000Y-18872148D01*
X16605000Y-18772148D02*
X16805000Y-18772148D01*
X16775711Y-18842859D02*
X16775711Y-18701436D01*
X16634289Y-18701436D01*
X16634289Y-18842859D01*
X16775711Y-18842859D01*
X17053095Y-18681672D02*
X17062619Y-18672148D01*
X17081667Y-18662624D01*
X17129286Y-18662624D01*
X17148333Y-18672148D01*
X17157857Y-18681672D01*
X17167381Y-18700719D01*
X17167381Y-18719767D01*
X17157857Y-18748338D01*
X17043571Y-18862624D01*
X17167381Y-18862624D01*
X17253095Y-18843576D02*
X17262619Y-18853100D01*
X17253095Y-18862624D01*
X17243571Y-18853100D01*
X17253095Y-18843576D01*
X17253095Y-18862624D01*
X17338810Y-18681672D02*
X17348333Y-18672148D01*
X17367381Y-18662624D01*
X17415000Y-18662624D01*
X17434048Y-18672148D01*
X17443571Y-18681672D01*
X17453095Y-18700719D01*
X17453095Y-18719767D01*
X17443571Y-18748338D01*
X17329286Y-18862624D01*
X17453095Y-18862624D01*
X17576905Y-18662624D02*
X17595952Y-18662624D01*
X17615000Y-18672148D01*
X17624524Y-18681672D01*
X17634048Y-18700719D01*
X17643571Y-18738814D01*
X17643571Y-18786433D01*
X17634048Y-18824529D01*
X17624524Y-18843576D01*
X17615000Y-18853100D01*
X17595952Y-18862624D01*
X17576905Y-18862624D01*
X17557857Y-18853100D01*
X17548333Y-18843576D01*
X17538810Y-18824529D01*
X17529286Y-18786433D01*
X17529286Y-18738814D01*
X17538810Y-18700719D01*
X17548333Y-18681672D01*
X17557857Y-18672148D01*
X17576905Y-18662624D01*
X17767381Y-18662624D02*
X17786429Y-18662624D01*
X17805476Y-18672148D01*
X17815000Y-18681672D01*
X17824524Y-18700719D01*
X17834048Y-18738814D01*
X17834048Y-18786433D01*
X17824524Y-18824529D01*
X17815000Y-18843576D01*
X17805476Y-18853100D01*
X17786429Y-18862624D01*
X17767381Y-18862624D01*
X17748333Y-18853100D01*
X17738810Y-18843576D01*
X17729286Y-18824529D01*
X17719762Y-18786433D01*
X17719762Y-18738814D01*
X17729286Y-18700719D01*
X17738810Y-18681672D01*
X17748333Y-18672148D01*
X17767381Y-18662624D01*
X17919762Y-18862624D02*
X17919762Y-18729291D01*
X17919762Y-18748338D02*
X17929286Y-18738814D01*
X17948333Y-18729291D01*
X17976905Y-18729291D01*
X17995952Y-18738814D01*
X18005476Y-18757862D01*
X18005476Y-18862624D01*
X18005476Y-18757862D02*
X18015000Y-18738814D01*
X18034048Y-18729291D01*
X18062619Y-18729291D01*
X18081667Y-18738814D01*
X18091190Y-18757862D01*
X18091190Y-18862624D01*
X18186429Y-18862624D02*
X18186429Y-18729291D01*
X18186429Y-18748338D02*
X18195952Y-18738814D01*
X18215000Y-18729291D01*
X18243571Y-18729291D01*
X18262619Y-18738814D01*
X18272143Y-18757862D01*
X18272143Y-18862624D01*
X18272143Y-18757862D02*
X18281667Y-18738814D01*
X18300714Y-18729291D01*
X18329286Y-18729291D01*
X18348333Y-18738814D01*
X18357857Y-18757862D01*
X18357857Y-18862624D01*
X18748333Y-18653100D02*
X18576905Y-18910243D01*
X19005476Y-18662624D02*
X19024524Y-18662624D01*
X19043571Y-18672148D01*
X19053095Y-18681672D01*
X19062619Y-18700719D01*
X19072143Y-18738814D01*
X19072143Y-18786433D01*
X19062619Y-18824529D01*
X19053095Y-18843576D01*
X19043571Y-18853100D01*
X19024524Y-18862624D01*
X19005476Y-18862624D01*
X18986429Y-18853100D01*
X18976905Y-18843576D01*
X18967381Y-18824529D01*
X18957857Y-18786433D01*
X18957857Y-18738814D01*
X18967381Y-18700719D01*
X18976905Y-18681672D01*
X18986429Y-18672148D01*
X19005476Y-18662624D01*
X19157857Y-18843576D02*
X19167381Y-18853100D01*
X19157857Y-18862624D01*
X19148333Y-18853100D01*
X19157857Y-18843576D01*
X19157857Y-18862624D01*
X19291190Y-18662624D02*
X19310238Y-18662624D01*
X19329286Y-18672148D01*
X19338810Y-18681672D01*
X19348333Y-18700719D01*
X19357857Y-18738814D01*
X19357857Y-18786433D01*
X19348333Y-18824529D01*
X19338810Y-18843576D01*
X19329286Y-18853100D01*
X19310238Y-18862624D01*
X19291190Y-18862624D01*
X19272143Y-18853100D01*
X19262619Y-18843576D01*
X19253095Y-18824529D01*
X19243571Y-18786433D01*
X19243571Y-18738814D01*
X19253095Y-18700719D01*
X19262619Y-18681672D01*
X19272143Y-18672148D01*
X19291190Y-18662624D01*
X19472143Y-18748338D02*
X19453095Y-18738814D01*
X19443571Y-18729291D01*
X19434048Y-18710243D01*
X19434048Y-18700719D01*
X19443571Y-18681672D01*
X19453095Y-18672148D01*
X19472143Y-18662624D01*
X19510238Y-18662624D01*
X19529286Y-18672148D01*
X19538810Y-18681672D01*
X19548333Y-18700719D01*
X19548333Y-18710243D01*
X19538810Y-18729291D01*
X19529286Y-18738814D01*
X19510238Y-18748338D01*
X19472143Y-18748338D01*
X19453095Y-18757862D01*
X19443571Y-18767386D01*
X19434048Y-18786433D01*
X19434048Y-18824529D01*
X19443571Y-18843576D01*
X19453095Y-18853100D01*
X19472143Y-18862624D01*
X19510238Y-18862624D01*
X19529286Y-18853100D01*
X19538810Y-18843576D01*
X19548333Y-18824529D01*
X19548333Y-18786433D01*
X19538810Y-18767386D01*
X19529286Y-18757862D01*
X19510238Y-18748338D01*
X19719762Y-18662624D02*
X19681667Y-18662624D01*
X19662619Y-18672148D01*
X19653095Y-18681672D01*
X19634048Y-18710243D01*
X19624524Y-18748338D01*
X19624524Y-18824529D01*
X19634048Y-18843576D01*
X19643571Y-18853100D01*
X19662619Y-18862624D01*
X19700714Y-18862624D01*
X19719762Y-18853100D01*
X19729286Y-18843576D01*
X19738810Y-18824529D01*
X19738810Y-18776910D01*
X19729286Y-18757862D01*
X19719762Y-18748338D01*
X19700714Y-18738814D01*
X19662619Y-18738814D01*
X19643571Y-18748338D01*
X19634048Y-18757862D01*
X19624524Y-18776910D01*
X19910238Y-18662624D02*
X19872143Y-18662624D01*
X19853095Y-18672148D01*
X19843571Y-18681672D01*
X19824524Y-18710243D01*
X19815000Y-18748338D01*
X19815000Y-18824529D01*
X19824524Y-18843576D01*
X19834048Y-18853100D01*
X19853095Y-18862624D01*
X19891190Y-18862624D01*
X19910238Y-18853100D01*
X19919762Y-18843576D01*
X19929286Y-18824529D01*
X19929286Y-18776910D01*
X19919762Y-18757862D01*
X19910238Y-18748338D01*
X19891190Y-18738814D01*
X19853095Y-18738814D01*
X19834048Y-18748338D01*
X19824524Y-18757862D01*
X19815000Y-18776910D01*
X20005476Y-18662624D02*
X20005476Y-18700719D01*
X20081667Y-18662624D02*
X20081667Y-18700719D01*
X20376905Y-18938814D02*
X20367381Y-18929291D01*
X20348333Y-18900719D01*
X20338810Y-18881672D01*
X20329286Y-18853100D01*
X20319762Y-18805481D01*
X20319762Y-18767386D01*
X20329286Y-18719767D01*
X20338810Y-18691195D01*
X20348333Y-18672148D01*
X20367381Y-18643576D01*
X20376905Y-18634052D01*
X20443571Y-18681672D02*
X20453095Y-18672148D01*
X20472143Y-18662624D01*
X20519762Y-18662624D01*
X20538810Y-18672148D01*
X20548333Y-18681672D01*
X20557857Y-18700719D01*
X20557857Y-18719767D01*
X20548333Y-18748338D01*
X20434048Y-18862624D01*
X20557857Y-18862624D01*
X20795952Y-18862624D02*
X20795952Y-18662624D01*
X20881667Y-18862624D02*
X20881667Y-18757862D01*
X20872143Y-18738814D01*
X20853095Y-18729291D01*
X20824524Y-18729291D01*
X20805476Y-18738814D01*
X20795952Y-18748338D01*
X21005476Y-18862624D02*
X20986429Y-18853100D01*
X20976905Y-18843576D01*
X20967381Y-18824529D01*
X20967381Y-18767386D01*
X20976905Y-18748338D01*
X20986429Y-18738814D01*
X21005476Y-18729291D01*
X21034048Y-18729291D01*
X21053095Y-18738814D01*
X21062619Y-18748338D01*
X21072143Y-18767386D01*
X21072143Y-18824529D01*
X21062619Y-18843576D01*
X21053095Y-18853100D01*
X21034048Y-18862624D01*
X21005476Y-18862624D01*
X21186429Y-18862624D02*
X21167381Y-18853100D01*
X21157857Y-18834052D01*
X21157857Y-18662624D01*
X21338810Y-18853100D02*
X21319762Y-18862624D01*
X21281667Y-18862624D01*
X21262619Y-18853100D01*
X21253095Y-18834052D01*
X21253095Y-18757862D01*
X21262619Y-18738814D01*
X21281667Y-18729291D01*
X21319762Y-18729291D01*
X21338810Y-18738814D01*
X21348333Y-18757862D01*
X21348333Y-18776910D01*
X21253095Y-18795957D01*
X21424524Y-18853100D02*
X21443571Y-18862624D01*
X21481667Y-18862624D01*
X21500714Y-18853100D01*
X21510238Y-18834052D01*
X21510238Y-18824529D01*
X21500714Y-18805481D01*
X21481667Y-18795957D01*
X21453095Y-18795957D01*
X21434048Y-18786433D01*
X21424524Y-18767386D01*
X21424524Y-18757862D01*
X21434048Y-18738814D01*
X21453095Y-18729291D01*
X21481667Y-18729291D01*
X21500714Y-18738814D01*
X21576905Y-18938814D02*
X21586429Y-18929291D01*
X21605476Y-18900719D01*
X21615000Y-18881672D01*
X21624524Y-18853100D01*
X21634048Y-18805481D01*
X21634048Y-18767386D01*
X21624524Y-18719767D01*
X21615000Y-18691195D01*
X21605476Y-18672148D01*
X21586429Y-18643576D01*
X21576905Y-18634052D01*
X21938810Y-18938814D02*
X21929286Y-18929291D01*
X21910238Y-18900719D01*
X21900714Y-18881672D01*
X21891190Y-18853100D01*
X21881667Y-18805481D01*
X21881667Y-18767386D01*
X21891190Y-18719767D01*
X21900714Y-18691195D01*
X21910238Y-18672148D01*
X21929286Y-18643576D01*
X21938810Y-18634052D01*
X22015000Y-18729291D02*
X22015000Y-18862624D01*
X22015000Y-18748338D02*
X22024524Y-18738814D01*
X22043571Y-18729291D01*
X22072143Y-18729291D01*
X22091190Y-18738814D01*
X22100714Y-18757862D01*
X22100714Y-18862624D01*
X22224524Y-18862624D02*
X22205476Y-18853100D01*
X22195952Y-18843576D01*
X22186429Y-18824529D01*
X22186429Y-18767386D01*
X22195952Y-18748338D01*
X22205476Y-18738814D01*
X22224524Y-18729291D01*
X22253095Y-18729291D01*
X22272143Y-18738814D01*
X22281667Y-18748338D01*
X22291190Y-18767386D01*
X22291190Y-18824529D01*
X22281667Y-18843576D01*
X22272143Y-18853100D01*
X22253095Y-18862624D01*
X22224524Y-18862624D01*
X22348333Y-18729291D02*
X22424524Y-18729291D01*
X22376905Y-18662624D02*
X22376905Y-18834052D01*
X22386428Y-18853100D01*
X22405476Y-18862624D01*
X22424524Y-18862624D01*
X22643571Y-18729291D02*
X22643571Y-18929291D01*
X22643571Y-18738814D02*
X22662619Y-18729291D01*
X22700714Y-18729291D01*
X22719762Y-18738814D01*
X22729286Y-18748338D01*
X22738809Y-18767386D01*
X22738809Y-18824529D01*
X22729286Y-18843576D01*
X22719762Y-18853100D01*
X22700714Y-18862624D01*
X22662619Y-18862624D01*
X22643571Y-18853100D01*
X22853095Y-18862624D02*
X22834048Y-18853100D01*
X22824524Y-18834052D01*
X22824524Y-18662624D01*
X23015000Y-18862624D02*
X23015000Y-18757862D01*
X23005476Y-18738814D01*
X22986428Y-18729291D01*
X22948333Y-18729291D01*
X22929286Y-18738814D01*
X23015000Y-18853100D02*
X22995952Y-18862624D01*
X22948333Y-18862624D01*
X22929286Y-18853100D01*
X22919762Y-18834052D01*
X22919762Y-18815005D01*
X22929286Y-18795957D01*
X22948333Y-18786433D01*
X22995952Y-18786433D01*
X23015000Y-18776910D01*
X23081667Y-18729291D02*
X23157857Y-18729291D01*
X23110238Y-18662624D02*
X23110238Y-18834052D01*
X23119762Y-18853100D01*
X23138809Y-18862624D01*
X23157857Y-18862624D01*
X23300714Y-18853100D02*
X23281667Y-18862624D01*
X23243571Y-18862624D01*
X23224524Y-18853100D01*
X23215000Y-18834052D01*
X23215000Y-18757862D01*
X23224524Y-18738814D01*
X23243571Y-18729291D01*
X23281667Y-18729291D01*
X23300714Y-18738814D01*
X23310238Y-18757862D01*
X23310238Y-18776910D01*
X23215000Y-18795957D01*
X23481667Y-18862624D02*
X23481667Y-18662624D01*
X23481667Y-18853100D02*
X23462619Y-18862624D01*
X23424524Y-18862624D01*
X23405476Y-18853100D01*
X23395952Y-18843576D01*
X23386428Y-18824529D01*
X23386428Y-18767386D01*
X23395952Y-18748338D01*
X23405476Y-18738814D01*
X23424524Y-18729291D01*
X23462619Y-18729291D01*
X23481667Y-18738814D01*
X23557857Y-18938814D02*
X23567381Y-18929291D01*
X23586428Y-18900719D01*
X23595952Y-18881672D01*
X23605476Y-18853100D01*
X23615000Y-18805481D01*
X23615000Y-18767386D01*
X23605476Y-18719767D01*
X23595952Y-18691195D01*
X23586428Y-18672148D01*
X23567381Y-18643576D01*
X23557857Y-18634052D01*
M02*
