%TF.GenerationSoftware,KiCad,Pcbnew,(6.0.4)*%
%TF.CreationDate,2023-03-27T13:04:32+09:00*%
%TF.ProjectId,kaguya-elec,6b616775-7961-42d6-956c-65632e6b6963,rev?*%
%TF.SameCoordinates,Original*%
%TF.FileFunction,Copper,L4,Bot*%
%TF.FilePolarity,Positive*%
%FSLAX46Y46*%
G04 Gerber Fmt 4.6, Leading zero omitted, Abs format (unit mm)*
G04 Created by KiCad (PCBNEW (6.0.4)) date 2023-03-27 13:04:32*
%MOMM*%
%LPD*%
G01*
G04 APERTURE LIST*
G04 Aperture macros list*
%AMRoundRect*
0 Rectangle with rounded corners*
0 $1 Rounding radius*
0 $2 $3 $4 $5 $6 $7 $8 $9 X,Y pos of 4 corners*
0 Add a 4 corners polygon primitive as box body*
4,1,4,$2,$3,$4,$5,$6,$7,$8,$9,$2,$3,0*
0 Add four circle primitives for the rounded corners*
1,1,$1+$1,$2,$3*
1,1,$1+$1,$4,$5*
1,1,$1+$1,$6,$7*
1,1,$1+$1,$8,$9*
0 Add four rect primitives between the rounded corners*
20,1,$1+$1,$2,$3,$4,$5,0*
20,1,$1+$1,$4,$5,$6,$7,0*
20,1,$1+$1,$6,$7,$8,$9,0*
20,1,$1+$1,$8,$9,$2,$3,0*%
G04 Aperture macros list end*
%TA.AperFunction,ComponentPad*%
%ADD10RoundRect,0.250000X-0.265000X-0.615000X0.265000X-0.615000X0.265000X0.615000X-0.265000X0.615000X0*%
%TD*%
%TA.AperFunction,ComponentPad*%
%ADD11O,1.030000X1.730000*%
%TD*%
%TA.AperFunction,ComponentPad*%
%ADD12RoundRect,0.250000X-0.350000X-0.625000X0.350000X-0.625000X0.350000X0.625000X-0.350000X0.625000X0*%
%TD*%
%TA.AperFunction,ComponentPad*%
%ADD13O,1.200000X1.750000*%
%TD*%
%TA.AperFunction,ComponentPad*%
%ADD14O,3.500000X2.000000*%
%TD*%
%TA.AperFunction,ComponentPad*%
%ADD15R,1.000000X1.000000*%
%TD*%
%TA.AperFunction,ComponentPad*%
%ADD16O,1.000000X1.000000*%
%TD*%
%TA.AperFunction,SMDPad,CuDef*%
%ADD17R,4.000000X0.600000*%
%TD*%
%TA.AperFunction,ComponentPad*%
%ADD18O,1.000000X1.800000*%
%TD*%
%TA.AperFunction,ComponentPad*%
%ADD19O,1.000000X2.100000*%
%TD*%
%TA.AperFunction,SMDPad,CuDef*%
%ADD20RoundRect,0.140000X-0.140000X-0.170000X0.140000X-0.170000X0.140000X0.170000X-0.140000X0.170000X0*%
%TD*%
%TA.AperFunction,SMDPad,CuDef*%
%ADD21RoundRect,0.200000X-0.275000X0.200000X-0.275000X-0.200000X0.275000X-0.200000X0.275000X0.200000X0*%
%TD*%
%TA.AperFunction,SMDPad,CuDef*%
%ADD22R,0.700000X1.800000*%
%TD*%
%TA.AperFunction,ViaPad*%
%ADD23C,0.800000*%
%TD*%
%TA.AperFunction,ViaPad*%
%ADD24C,0.600000*%
%TD*%
%TA.AperFunction,Conductor*%
%ADD25C,0.350000*%
%TD*%
%TA.AperFunction,Conductor*%
%ADD26C,0.500000*%
%TD*%
%TA.AperFunction,Conductor*%
%ADD27C,0.250000*%
%TD*%
%TA.AperFunction,Conductor*%
%ADD28C,1.500000*%
%TD*%
%TA.AperFunction,Conductor*%
%ADD29C,1.000000*%
%TD*%
%TA.AperFunction,Conductor*%
%ADD30C,0.200000*%
%TD*%
%TA.AperFunction,Conductor*%
%ADD31C,0.800000*%
%TD*%
%TA.AperFunction,Conductor*%
%ADD32C,0.160000*%
%TD*%
G04 APERTURE END LIST*
D10*
%TO.P,J2,1,Pin_1*%
%TO.N,Net-(J2-Pad1)*%
X174850000Y-124000000D03*
D11*
%TO.P,J2,2,Pin_2*%
%TO.N,+BATT*%
X176350000Y-124000000D03*
%TD*%
D12*
%TO.P,J3,1,Pin_1*%
%TO.N,GND*%
X171000000Y-140100000D03*
D13*
%TO.P,J3,2,Pin_2*%
%TO.N,Net-(J3-Pad2)*%
X173000000Y-140100000D03*
%TD*%
D11*
%TO.P,J15,1,Pin_1*%
%TO.N,GND*%
X222292500Y-139570000D03*
%TO.P,J15,2,Pin_2*%
%TO.N,+BATT*%
X223792500Y-139570000D03*
%TD*%
D14*
%TO.P,M1,1,+*%
%TO.N,/motor_R1*%
X244323769Y-123103769D03*
%TO.P,M1,2,-*%
%TO.N,/motor_R2*%
X244323769Y-129903769D03*
%TD*%
D15*
%TO.P,J1,1,Pin_1*%
%TO.N,SWCLK*%
X187475000Y-139850000D03*
D16*
%TO.P,J1,2,Pin_2*%
%TO.N,GND*%
X188745000Y-139850000D03*
%TO.P,J1,3,Pin_3*%
%TO.N,SWDIO*%
X190015000Y-139850000D03*
%TD*%
D11*
%TO.P,J10,1,Pin_1*%
%TO.N,GND*%
X223832500Y-127840000D03*
%TO.P,J10,2,Pin_2*%
%TO.N,+BATT*%
X222332500Y-127840000D03*
%TD*%
D17*
%TO.P,Je,1,Pin_1*%
%TO.N,/3V3A*%
X250823769Y-124003769D03*
%TO.P,Je,2,Pin_2*%
%TO.N,MOE_RA*%
X250823769Y-125003769D03*
%TO.P,Je,3,Pin_3*%
%TO.N,MOE_RB*%
X250823769Y-126003769D03*
%TO.P,Je,4,Pin_4*%
%TO.N,GND*%
X250823769Y-127003769D03*
%TO.P,Je,5,Pin_5*%
%TO.N,/motor_R1*%
X250823769Y-128003769D03*
%TO.P,Je,6,Pin_6*%
%TO.N,/motor_R2*%
X250823769Y-129003769D03*
%TD*%
D14*
%TO.P,M2,1,+*%
%TO.N,/motor_L1*%
X244305620Y-144258594D03*
%TO.P,M2,2,-*%
%TO.N,/motor_L2*%
X244305620Y-137458594D03*
%TD*%
D10*
%TO.P,J5,1,Pin_1*%
%TO.N,GNSS_RX*%
X196950000Y-124100000D03*
D11*
%TO.P,J5,2,Pin_2*%
%TO.N,GNSS_TX*%
X198450000Y-124100000D03*
%TO.P,J5,3,Pin_3*%
%TO.N,Net-(J5-Pad3)*%
X199950000Y-124100000D03*
%TO.P,J5,4,Pin_4*%
%TO.N,GND*%
X201450000Y-124100000D03*
%TD*%
D10*
%TO.P,J4,1,Pin_1*%
%TO.N,I2C1_SCL*%
X209150000Y-124100000D03*
D11*
%TO.P,J4,2,Pin_2*%
%TO.N,I2C1_SDA*%
X210650000Y-124100000D03*
%TO.P,J4,3,Pin_3*%
%TO.N,Net-(J4-Pad3)*%
X212150000Y-124100000D03*
%TO.P,J4,4,Pin_4*%
%TO.N,GND*%
X213650000Y-124100000D03*
%TD*%
D17*
%TO.P,J12,1,Pin_1*%
%TO.N,/3V3A*%
X250755620Y-143358594D03*
%TO.P,J12,2,Pin_2*%
%TO.N,MOE_LA*%
X250755620Y-142358594D03*
%TO.P,J12,3,Pin_3*%
%TO.N,MOE_LB*%
X250755620Y-141358594D03*
%TO.P,J12,4,Pin_4*%
%TO.N,GND*%
X250755620Y-140358594D03*
%TO.P,J12,5,Pin_5*%
%TO.N,/motor_L1*%
X250755620Y-139358594D03*
%TO.P,J12,6,Pin_6*%
%TO.N,/motor_L2*%
X250755620Y-138358594D03*
%TD*%
D18*
%TO.P,U1,SHIELD,SHIELD*%
%TO.N,GND*%
X206380000Y-144270000D03*
D19*
X206380000Y-140090000D03*
X215020000Y-140090000D03*
D18*
X215020000Y-144270000D03*
%TD*%
D20*
%TO.P,C18,1*%
%TO.N,+3V3*%
X200420000Y-126250000D03*
%TO.P,C18,2*%
%TO.N,GND*%
X201380000Y-126250000D03*
%TD*%
D21*
%TO.P,R5,1*%
%TO.N,Net-(R5-Pad1)*%
X209470000Y-142275000D03*
%TO.P,R5,2*%
%TO.N,GND*%
X209470000Y-143925000D03*
%TD*%
D22*
%TO.P,U2,1,GND*%
%TO.N,GND*%
X177750000Y-128500000D03*
%TO.P,U2,2,GND*%
X179020000Y-128500000D03*
%TO.P,U2,3,GND*%
X180290000Y-128500000D03*
%TO.P,U2,4,GND*%
X191490000Y-128500000D03*
%TO.P,U2,5,M0*%
X192760000Y-128500000D03*
%TO.P,U2,6,M1*%
X194030000Y-128500000D03*
%TO.P,U2,7,RXD*%
%TO.N,LORA_RX*%
X195300000Y-128500000D03*
%TO.P,U2,8,TXD*%
%TO.N,LORA_TX*%
X196570000Y-128500000D03*
%TO.P,U2,9,AUX*%
%TO.N,LORA_AUX*%
X197840000Y-128500000D03*
%TO.P,U2,10,VCC*%
%TO.N,+3V3*%
X199110000Y-128500000D03*
%TO.P,U2,11,GND*%
%TO.N,GND*%
X200380000Y-128500000D03*
%TO.P,U2,12,NC*%
%TO.N,unconnected-(U2-Pad12)*%
X200350000Y-144500000D03*
%TO.P,U2,13,GND*%
%TO.N,GND*%
X199080000Y-144500000D03*
%TO.P,U2,14,NC*%
%TO.N,unconnected-(U2-Pad14)*%
X197810000Y-144500000D03*
%TO.P,U2,15,NC*%
%TO.N,unconnected-(U2-Pad15)*%
X196540000Y-144500000D03*
%TO.P,U2,16,NC*%
%TO.N,unconnected-(U2-Pad16)*%
X195270000Y-144500000D03*
%TO.P,U2,17,NC*%
%TO.N,unconnected-(U2-Pad17)*%
X194000000Y-144500000D03*
%TO.P,U2,18,NC*%
%TO.N,unconnected-(U2-Pad18)*%
X192730000Y-144500000D03*
%TO.P,U2,19,GND*%
%TO.N,GND*%
X191460000Y-144500000D03*
%TO.P,U2,20,GND*%
X180260000Y-144500000D03*
%TO.P,U2,21,ANT*%
%TO.N,unconnected-(U2-Pad21)*%
X178990000Y-144500000D03*
%TO.P,U2,22,GND*%
%TO.N,GND*%
X177720000Y-144500000D03*
%TD*%
D21*
%TO.P,R6,1*%
%TO.N,Net-(R6-Pad1)*%
X212400000Y-142250000D03*
%TO.P,R6,2*%
%TO.N,GND*%
X212400000Y-143900000D03*
%TD*%
D23*
%TO.N,GND*%
X191278000Y-129000000D03*
X174000000Y-145400000D03*
X195350000Y-135450000D03*
X229708932Y-142368434D03*
X172100000Y-126050000D03*
X169100000Y-134400000D03*
X231119057Y-146129425D03*
D24*
X191000000Y-123550000D03*
D23*
X176800000Y-137200000D03*
X175400000Y-139800000D03*
X169100000Y-128450000D03*
X216125000Y-135475000D03*
D24*
X250523769Y-127003769D03*
D23*
X203000000Y-127200000D03*
X169200000Y-141400000D03*
X208200000Y-142900000D03*
X207600000Y-126200000D03*
D24*
X192600000Y-122750000D03*
X235575000Y-125999520D03*
X200400000Y-129900000D03*
X184500000Y-132200000D03*
D23*
X231175000Y-121699520D03*
X174000000Y-132275500D03*
X211400000Y-122200000D03*
X232350000Y-135740000D03*
X208200000Y-145600000D03*
X230490000Y-140030000D03*
X174000000Y-125800000D03*
X176900000Y-134000000D03*
X193600000Y-131800000D03*
X206600000Y-123200000D03*
X187100000Y-128750000D03*
X184000000Y-130409011D03*
X232500000Y-144740000D03*
D24*
X182800000Y-123450000D03*
D23*
X174000000Y-142600000D03*
X232951189Y-141316811D03*
X212970000Y-131920000D03*
X173990000Y-137910000D03*
X169100000Y-122400000D03*
X211000000Y-141600000D03*
X175408714Y-133591286D03*
X216200000Y-124600000D03*
X221375000Y-131099520D03*
X229750000Y-141140000D03*
X211800000Y-133600000D03*
X180400000Y-123600000D03*
X215000000Y-126200000D03*
X183500000Y-127000000D03*
X201500000Y-144050000D03*
X228575000Y-130999520D03*
X189000000Y-145750000D03*
X190800000Y-130600000D03*
X196500000Y-137750000D03*
X205480378Y-132669622D03*
X216000000Y-145800000D03*
X222950000Y-144540000D03*
X191500000Y-144500000D03*
X249090433Y-126903270D03*
X196500000Y-136600000D03*
D24*
X229975000Y-129075500D03*
D23*
X216100000Y-122300000D03*
X183200000Y-146200000D03*
X170400000Y-143800000D03*
X235350000Y-145940000D03*
X208800000Y-133600000D03*
D24*
X191558085Y-135440500D03*
D23*
X197650000Y-136600000D03*
X224575000Y-131299520D03*
X205000000Y-136250000D03*
X202800000Y-144600000D03*
X220950000Y-140540000D03*
X203000000Y-143600000D03*
X235575000Y-122899520D03*
X184700000Y-136000000D03*
X177800000Y-129000000D03*
X196500000Y-135450000D03*
X235500000Y-141290000D03*
X220750000Y-143140000D03*
X228895000Y-121480000D03*
D24*
X182600000Y-130600000D03*
D23*
X210800000Y-145800000D03*
X195700000Y-125900000D03*
X227550000Y-139740000D03*
X207500000Y-128700000D03*
X202800000Y-146300000D03*
D24*
X250805620Y-140358594D03*
X194500000Y-127100000D03*
D23*
X177250000Y-146200000D03*
X197650000Y-135450000D03*
D24*
X188000000Y-136600000D03*
D23*
X172200000Y-122400000D03*
X223100000Y-136240000D03*
X185300000Y-141150000D03*
D24*
X186050000Y-135900000D03*
D23*
X180500000Y-127150000D03*
X211900000Y-136925185D03*
X235175000Y-121699520D03*
X169500000Y-145700000D03*
X170400000Y-130800000D03*
X195350000Y-137750000D03*
D24*
X193900000Y-122750000D03*
D23*
X178800000Y-123400000D03*
X197650000Y-137750000D03*
X199100000Y-144600000D03*
D24*
X249505620Y-140308594D03*
X247905620Y-141958594D03*
X251623769Y-127003769D03*
X232425000Y-126030000D03*
X189200000Y-135150000D03*
D23*
X229550000Y-135740000D03*
X228700000Y-136290000D03*
X212200000Y-126800000D03*
X195350000Y-136600000D03*
X220950000Y-145740000D03*
X225550000Y-135740000D03*
X209300000Y-130750000D03*
X231350000Y-137740000D03*
X226350000Y-138740000D03*
X225975000Y-127299520D03*
D24*
X193243000Y-125150000D03*
D23*
X225350000Y-145940000D03*
X232375000Y-131099520D03*
X235550000Y-135740000D03*
X221150000Y-136140000D03*
D24*
X224185000Y-121720000D03*
D23*
X230765000Y-123220000D03*
D24*
X179200000Y-132600000D03*
D23*
X235550000Y-144540000D03*
%TO.N,+3V3*%
X208045000Y-130305000D03*
D24*
X199000000Y-134050000D03*
X189700000Y-131900000D03*
D23*
X199600000Y-126300000D03*
X175750000Y-141600000D03*
X178300000Y-131700000D03*
X193917500Y-124097500D03*
D24*
X194600000Y-138750000D03*
X194700000Y-130300000D03*
D23*
X174100000Y-131100000D03*
X216050000Y-128950000D03*
X176775008Y-132624992D03*
X205900000Y-134800000D03*
X179850000Y-130600000D03*
X183050000Y-128000000D03*
D24*
X209900000Y-127800000D03*
D23*
X206400000Y-127850000D03*
D24*
X208881089Y-128918911D03*
D23*
X184150000Y-134050000D03*
D24*
%TO.N,+1V1*%
X201010000Y-136619500D03*
D23*
X194310498Y-137324415D03*
D24*
X198910000Y-138220000D03*
D23*
X185600000Y-138800000D03*
%TO.N,+BATT*%
X221850000Y-141890000D03*
X228675000Y-145290000D03*
X225715000Y-121950000D03*
X172675000Y-132575000D03*
X223599511Y-141915489D03*
X230725000Y-125850000D03*
X226775000Y-121950000D03*
X171850000Y-131750000D03*
X230475000Y-126650000D03*
X229600000Y-145290000D03*
D24*
%TO.N,VBUS*%
X208800000Y-140589502D03*
X213100000Y-141400000D03*
D23*
X180650000Y-139950000D03*
D24*
%TO.N,MOE_RA*%
X248881321Y-124803271D03*
X250523769Y-125003769D03*
X246593769Y-121133769D03*
%TO.N,MOE_RB*%
X251123769Y-126003769D03*
X247557299Y-125870239D03*
%TO.N,MOE_LA*%
X250155620Y-142358594D03*
X246955620Y-145108594D03*
D23*
%TO.N,MOE_LB*%
X231850141Y-140227224D03*
D24*
X250705620Y-141358594D03*
D23*
X228392000Y-137390000D03*
%TO.N,Imonitor_Main*%
X169500000Y-129900498D03*
X198850000Y-141250000D03*
D24*
%TO.N,/3V3A*%
X228544980Y-125450000D03*
X250705620Y-143358594D03*
X221900000Y-121750000D03*
D23*
X228639614Y-143790500D03*
D24*
X245955620Y-136040286D03*
D23*
X232875000Y-129025000D03*
D24*
X249873769Y-123953769D03*
X248305620Y-136058594D03*
D23*
X232850000Y-138290000D03*
D24*
X249655620Y-143358594D03*
X251123769Y-124003769D03*
%TO.N,/motor_R1*%
X251123769Y-128003769D03*
X250023769Y-128003769D03*
%TO.N,/motor_R2*%
X251723769Y-129003769D03*
X250523769Y-129003769D03*
%TO.N,/motor_L1*%
X251255620Y-139358594D03*
X250105620Y-139358594D03*
%TO.N,/motor_L2*%
X250755620Y-138358594D03*
X249455620Y-138358594D03*
%TO.N,ToF_VCC*%
X205800000Y-129650000D03*
X213800000Y-129550000D03*
D23*
%TO.N,Vmonitor*%
X197873506Y-141033986D03*
X176000000Y-131050000D03*
D24*
%TO.N,Nichrome*%
X176500000Y-129800000D03*
X188264813Y-133465649D03*
D23*
%TO.N,RUN*%
X191800000Y-139500000D03*
X214636238Y-137800011D03*
D24*
%TO.N,LORA_RX*%
X198492228Y-131569569D03*
%TO.N,LORA_TX*%
X199081634Y-130980147D03*
%TO.N,LORA_AUX*%
X197889020Y-128836596D03*
%TO.N,Net-(R5-Pad1)*%
X209400000Y-142200000D03*
%TO.N,Net-(R6-Pad1)*%
X212400000Y-142200000D03*
%TD*%
D25*
%TO.N,GND*%
X197950000Y-138950000D02*
X199950000Y-138950000D01*
X247905620Y-141159572D02*
X247905620Y-141958594D01*
X197650000Y-138650000D02*
X197950000Y-138950000D01*
X249505620Y-140308594D02*
X248756598Y-140308594D01*
D26*
X250523769Y-127003769D02*
X249190932Y-127003769D01*
D25*
X197650000Y-137750000D02*
X197650000Y-138650000D01*
D26*
X249190932Y-127003769D02*
X249090433Y-126903270D01*
D25*
X248756598Y-140308594D02*
X247905620Y-141159572D01*
X200420000Y-128510000D02*
X200460000Y-128550000D01*
%TO.N,+3V3*%
X199600000Y-126300000D02*
X199650000Y-126250000D01*
D27*
X199654011Y-127955989D02*
X199110000Y-128500000D01*
X199654011Y-126354011D02*
X199654011Y-127955989D01*
X199600000Y-126300000D02*
X199654011Y-126354011D01*
D25*
X199650000Y-126250000D02*
X200420000Y-126250000D01*
%TO.N,+1V1*%
X201010000Y-136619500D02*
X200510500Y-136619500D01*
X194314913Y-137320000D02*
X194310498Y-137324415D01*
X191450000Y-138650000D02*
X186200000Y-138650000D01*
X194410498Y-137320000D02*
X194314913Y-137320000D01*
X192000000Y-138100000D02*
X191450000Y-138650000D01*
X192775585Y-137324415D02*
X192000000Y-138100000D01*
X185750000Y-138650000D02*
X185600000Y-138800000D01*
X186200000Y-138650000D02*
X185750000Y-138650000D01*
X194240498Y-137150000D02*
X194410498Y-137320000D01*
X194310498Y-137324415D02*
X192775585Y-137324415D01*
X200510500Y-136619500D02*
X198910000Y-138220000D01*
D28*
%TO.N,+BATT*%
X223599511Y-141989511D02*
X226900000Y-145290000D01*
X228675000Y-145290000D02*
X229600000Y-145290000D01*
X226900000Y-145290000D02*
X228675000Y-145290000D01*
X223599511Y-141915489D02*
X223599511Y-141989511D01*
D29*
X172675000Y-132575000D02*
X171850000Y-131750000D01*
X171850000Y-131750000D02*
X176350000Y-127250000D01*
D28*
X225715000Y-121950000D02*
X225774999Y-121950000D01*
X223574022Y-141890000D02*
X223599511Y-141915489D01*
X230475000Y-125612944D02*
X230475000Y-126650000D01*
X225774999Y-121950000D02*
X225970580Y-121754419D01*
D29*
X176350000Y-127250000D02*
X176350000Y-124000000D01*
D28*
X226616475Y-121754419D02*
X230475000Y-125612944D01*
X225970580Y-121754419D02*
X226616475Y-121754419D01*
X221850000Y-141890000D02*
X223574022Y-141890000D01*
D25*
%TO.N,VBUS*%
X213100000Y-141400000D02*
X212289502Y-140589502D01*
X212289502Y-140589502D02*
X208800000Y-140589502D01*
X181199500Y-139950000D02*
X183599500Y-142350000D01*
X183599500Y-142350000D02*
X207109984Y-142350000D01*
X180650000Y-139950000D02*
X181199500Y-139950000D01*
X208800000Y-140659984D02*
X208800000Y-140589502D01*
X207109984Y-142350000D02*
X208800000Y-140659984D01*
D27*
%TO.N,MOE_RA*%
X246593769Y-122722791D02*
X246593769Y-121133769D01*
X248881321Y-124803271D02*
X248674249Y-124803271D01*
X248674249Y-124803271D02*
X246593769Y-122722791D01*
%TO.N,MOE_RB*%
X251123769Y-126003769D02*
X247690829Y-126003769D01*
X247690829Y-126003769D02*
X247557299Y-125870239D01*
%TO.N,MOE_LA*%
X246955620Y-145108594D02*
X246955620Y-144209572D01*
X246955620Y-144209572D02*
X248806598Y-142358594D01*
X248806598Y-142358594D02*
X250155620Y-142358594D01*
D30*
%TO.N,MOE_LB*%
X231850141Y-140050882D02*
X231850141Y-140227224D01*
X229189259Y-137390000D02*
X231850141Y-140050882D01*
X228392000Y-137390000D02*
X229189259Y-137390000D01*
%TO.N,Imonitor_Main*%
X169450000Y-131250000D02*
X169500000Y-131200000D01*
X185637123Y-141802136D02*
X185589748Y-141849511D01*
X184999511Y-141849511D02*
X181600000Y-138450000D01*
X185589748Y-141849511D02*
X184999511Y-141849511D01*
X198297864Y-141802136D02*
X185637123Y-141802136D01*
X181600000Y-138450000D02*
X176650000Y-138450000D01*
X198850000Y-141250000D02*
X198297864Y-141802136D01*
X169500000Y-131200000D02*
X169500000Y-129900498D01*
X176650000Y-138450000D02*
X169450000Y-131250000D01*
D25*
%TO.N,/3V3A*%
X229382175Y-143790500D02*
X228639614Y-143790500D01*
X232850000Y-138290000D02*
X232850000Y-140390000D01*
X221900000Y-121750000D02*
X225600000Y-125450000D01*
X230900000Y-129025000D02*
X232875000Y-129025000D01*
X225600000Y-125450000D02*
X228544980Y-125450000D01*
X228544980Y-125450000D02*
X228544980Y-126669980D01*
X232850000Y-140390000D02*
X232697700Y-140542300D01*
X246387312Y-136040286D02*
X245955620Y-136040286D01*
X245955620Y-136040286D02*
X248287312Y-136040286D01*
X228544980Y-126669980D02*
X230900000Y-129025000D01*
D27*
X248287312Y-136040286D02*
X246387312Y-136040286D01*
D25*
X232630375Y-140542300D02*
X229382175Y-143790500D01*
X232697700Y-140542300D02*
X232630375Y-140542300D01*
X248287312Y-136040286D02*
X248305620Y-136058594D01*
D28*
%TO.N,/motor_R1*%
X244323769Y-123103769D02*
X246138290Y-124918290D01*
X246138290Y-126218306D02*
X247623753Y-127703769D01*
D26*
X248523769Y-128003769D02*
X248423769Y-127903769D01*
D28*
X246138290Y-124918290D02*
X246138290Y-126218306D01*
D26*
X251123769Y-128003769D02*
X248523769Y-128003769D01*
D28*
X247623753Y-127703769D02*
X247874258Y-127703769D01*
%TO.N,/motor_R2*%
X247923769Y-129903769D02*
X248423769Y-129403769D01*
X244323769Y-129903769D02*
X247923769Y-129903769D01*
D26*
X248523769Y-129003769D02*
X248423769Y-129103769D01*
X250523769Y-129003769D02*
X248523769Y-129003769D01*
D28*
%TO.N,/motor_L1*%
X244305620Y-144258594D02*
X246120141Y-142444073D01*
X246120141Y-142444073D02*
X246120141Y-141244073D01*
D31*
X248005620Y-139358594D02*
X247905620Y-139458594D01*
X247905620Y-139458594D02*
X248705620Y-139458594D01*
D28*
X246120141Y-141244073D02*
X247905620Y-139458594D01*
%TO.N,/motor_L2*%
X248555620Y-137458594D02*
X249055620Y-137958594D01*
D25*
X249455620Y-138358594D02*
X249055620Y-137958594D01*
D28*
X244305620Y-137458594D02*
X248555620Y-137458594D01*
D25*
X250755620Y-138358594D02*
X249455620Y-138358594D01*
D32*
%TO.N,ToF_VCC*%
X205800000Y-129650000D02*
X205850000Y-129600000D01*
X205850000Y-129600000D02*
X213750000Y-129600000D01*
X213750000Y-129600000D02*
X213800000Y-129550000D01*
D27*
%TO.N,Vmonitor*%
X186208600Y-141033986D02*
X176224614Y-131050000D01*
X176224614Y-131050000D02*
X176000000Y-131050000D01*
X197873506Y-141033986D02*
X186208600Y-141033986D01*
D32*
%TO.N,Nichrome*%
X176500000Y-129800000D02*
X176570489Y-129729511D01*
X184528675Y-129729511D02*
X188264813Y-133465649D01*
X176570489Y-129729511D02*
X184528675Y-129729511D01*
%TO.N,RUN*%
X192050000Y-139750000D02*
X204850000Y-139750000D01*
X206995315Y-137604685D02*
X214440912Y-137604685D01*
X191800000Y-139500000D02*
X192050000Y-139750000D01*
X204850000Y-139750000D02*
X206995315Y-137604685D01*
X214440912Y-137604685D02*
X214636238Y-137800011D01*
D30*
%TO.N,LORA_RX*%
X197790547Y-131569569D02*
X195300000Y-129079022D01*
X198492228Y-131569569D02*
X197790547Y-131569569D01*
X195300000Y-129079022D02*
X195300000Y-128500000D01*
%TO.N,LORA_TX*%
X199071545Y-130970058D02*
X198270058Y-130970058D01*
X196570000Y-129270000D02*
X196570000Y-128500000D01*
X199081634Y-130980147D02*
X199071545Y-130970058D01*
X198270058Y-130970058D02*
X196570000Y-129270000D01*
D32*
X199081634Y-130980147D02*
X199071739Y-130970252D01*
X196650000Y-129000000D02*
X196650000Y-128550000D01*
D27*
%TO.N,LORA_AUX*%
X197889020Y-128836596D02*
X197840000Y-128787576D01*
X197840000Y-128787576D02*
X197840000Y-128500000D01*
%TD*%
%TA.AperFunction,Conductor*%
%TO.N,GND*%
G36*
X235377518Y-135392500D02*
G01*
X235392352Y-135394810D01*
X235392355Y-135394810D01*
X235401224Y-135396191D01*
X235410126Y-135395027D01*
X235410250Y-135395011D01*
X235440692Y-135394740D01*
X235448121Y-135395577D01*
X235502764Y-135401734D01*
X235530271Y-135408013D01*
X235607353Y-135434985D01*
X235632774Y-135447227D01*
X235701926Y-135490678D01*
X235723985Y-135508270D01*
X235781730Y-135566015D01*
X235799322Y-135588074D01*
X235842773Y-135657226D01*
X235855015Y-135682647D01*
X235881987Y-135759728D01*
X235888267Y-135787243D01*
X235888592Y-135790129D01*
X235887883Y-135823610D01*
X235887691Y-135824846D01*
X235886309Y-135833724D01*
X235887130Y-135840000D01*
X235886846Y-135840000D01*
X235887405Y-135848218D01*
X235887405Y-135848224D01*
X235890591Y-135895052D01*
X235905454Y-136113525D01*
X235906318Y-136117707D01*
X235906319Y-136117713D01*
X235945685Y-136308217D01*
X235960934Y-136382010D01*
X235979582Y-136434790D01*
X236036759Y-136596622D01*
X236052264Y-136640508D01*
X236054222Y-136644310D01*
X236054222Y-136644311D01*
X236164643Y-136858774D01*
X236177762Y-136884255D01*
X236180220Y-136887762D01*
X236276219Y-137024729D01*
X236335115Y-137108760D01*
X236416437Y-137196550D01*
X236448054Y-137260115D01*
X236450000Y-137282173D01*
X236450000Y-144450785D01*
X236429998Y-144518906D01*
X236416085Y-144536787D01*
X236407422Y-144546063D01*
X236345843Y-144611998D01*
X236187389Y-144836477D01*
X236060977Y-145080442D01*
X235968962Y-145339347D01*
X235968088Y-145343555D01*
X235968087Y-145343557D01*
X235928234Y-145535341D01*
X235913058Y-145608370D01*
X235912765Y-145612656D01*
X235912764Y-145612662D01*
X235895834Y-145860183D01*
X235895211Y-145865752D01*
X235895191Y-145867347D01*
X235893809Y-145876224D01*
X235894418Y-145880880D01*
X235894307Y-145882500D01*
X235894630Y-145882500D01*
X235894974Y-145885132D01*
X235894974Y-145885133D01*
X235894991Y-145885266D01*
X235895063Y-145893370D01*
X235896550Y-145898685D01*
X235895763Y-145911226D01*
X235895575Y-145912890D01*
X235895242Y-145913681D01*
X235895260Y-145915689D01*
X235888266Y-145977763D01*
X235881987Y-146005271D01*
X235855015Y-146082353D01*
X235842773Y-146107774D01*
X235799322Y-146176926D01*
X235781730Y-146198985D01*
X235723985Y-146256730D01*
X235701926Y-146274322D01*
X235632774Y-146317773D01*
X235607353Y-146330015D01*
X235530272Y-146356987D01*
X235502764Y-146363266D01*
X235447274Y-146369518D01*
X235431632Y-146369423D01*
X235431621Y-146370300D01*
X235422649Y-146370190D01*
X235413776Y-146368809D01*
X235404874Y-146369973D01*
X235404872Y-146369973D01*
X235393885Y-146371410D01*
X235382214Y-146372936D01*
X235365879Y-146374000D01*
X230599685Y-146374000D01*
X230531564Y-146353998D01*
X230485071Y-146300342D01*
X230474967Y-146230068D01*
X230509201Y-146160315D01*
X230523760Y-146145292D01*
X230569851Y-146097730D01*
X230578089Y-146089229D01*
X230578091Y-146089226D01*
X230581992Y-146085201D01*
X230707290Y-145898738D01*
X230709647Y-145893370D01*
X230795333Y-145698170D01*
X230797588Y-145693033D01*
X230799029Y-145687034D01*
X230848722Y-145480046D01*
X230848722Y-145480045D01*
X230850032Y-145474589D01*
X230857303Y-145348485D01*
X230862640Y-145255917D01*
X230862640Y-145255914D01*
X230862963Y-145250310D01*
X230835975Y-145027285D01*
X230769918Y-144812565D01*
X230666882Y-144612936D01*
X230530123Y-144434708D01*
X230363964Y-144283515D01*
X230359209Y-144280532D01*
X230359206Y-144280530D01*
X230185621Y-144171640D01*
X230138543Y-144118497D01*
X230127671Y-144048338D01*
X230156455Y-143983438D01*
X230163482Y-143975808D01*
X232926405Y-141212885D01*
X232988717Y-141178859D01*
X233059532Y-141183924D01*
X233116368Y-141226471D01*
X233141179Y-141292991D01*
X233141500Y-141301980D01*
X233141500Y-144542237D01*
X233141800Y-144545293D01*
X233141800Y-144545300D01*
X233148340Y-144611998D01*
X233156635Y-144696592D01*
X233216632Y-144895315D01*
X233219527Y-144900760D01*
X233219528Y-144900762D01*
X233286803Y-145027285D01*
X233314087Y-145078599D01*
X233362917Y-145138471D01*
X233441390Y-145234689D01*
X233441393Y-145234692D01*
X233445285Y-145239464D01*
X233450033Y-145243392D01*
X233450034Y-145243393D01*
X233465173Y-145255917D01*
X233605230Y-145371783D01*
X233610647Y-145374712D01*
X233610650Y-145374714D01*
X233782410Y-145467584D01*
X233782415Y-145467586D01*
X233787830Y-145470514D01*
X233986129Y-145531898D01*
X233992254Y-145532542D01*
X233992255Y-145532542D01*
X234186446Y-145552952D01*
X234186448Y-145552952D01*
X234192575Y-145553596D01*
X234278485Y-145545777D01*
X234393164Y-145535341D01*
X234393167Y-145535340D01*
X234399303Y-145534782D01*
X234405209Y-145533044D01*
X234405213Y-145533043D01*
X234558048Y-145488061D01*
X234598440Y-145476173D01*
X234782400Y-145380001D01*
X234944177Y-145249929D01*
X234949662Y-145243393D01*
X235073650Y-145095629D01*
X235077609Y-145090911D01*
X235080573Y-145085519D01*
X235080576Y-145085515D01*
X235174646Y-144914402D01*
X235177613Y-144909005D01*
X235240379Y-144711139D01*
X235241350Y-144702489D01*
X235251893Y-144608488D01*
X235258500Y-144549587D01*
X235258500Y-137137763D01*
X235257780Y-137130413D01*
X235243966Y-136989534D01*
X235243965Y-136989531D01*
X235243365Y-136983408D01*
X235183368Y-136784685D01*
X235144260Y-136711134D01*
X235088809Y-136606847D01*
X235088808Y-136606845D01*
X235085913Y-136601401D01*
X235010835Y-136509346D01*
X234958610Y-136445311D01*
X234958607Y-136445308D01*
X234954715Y-136440536D01*
X234947770Y-136434790D01*
X234799518Y-136312145D01*
X234799519Y-136312145D01*
X234794770Y-136308217D01*
X234789353Y-136305288D01*
X234789350Y-136305286D01*
X234617590Y-136212416D01*
X234617585Y-136212414D01*
X234612170Y-136209486D01*
X234413871Y-136148102D01*
X234407746Y-136147458D01*
X234407745Y-136147458D01*
X234213554Y-136127048D01*
X234213552Y-136127048D01*
X234207425Y-136126404D01*
X234121515Y-136134223D01*
X234006836Y-136144659D01*
X234006833Y-136144660D01*
X234000697Y-136145218D01*
X233994791Y-136146956D01*
X233994787Y-136146957D01*
X233846932Y-136190473D01*
X233801560Y-136203827D01*
X233617600Y-136299999D01*
X233455823Y-136430071D01*
X233451865Y-136434788D01*
X233451863Y-136434790D01*
X233447042Y-136440536D01*
X233322391Y-136589089D01*
X233319427Y-136594481D01*
X233319424Y-136594485D01*
X233229776Y-136757554D01*
X233222387Y-136770995D01*
X233159621Y-136968861D01*
X233158935Y-136974978D01*
X233158934Y-136974982D01*
X233157302Y-136989534D01*
X233141500Y-137130413D01*
X233141500Y-137267566D01*
X233121498Y-137335687D01*
X233067842Y-137382180D01*
X232997568Y-137392284D01*
X232989304Y-137390813D01*
X232951946Y-137382873D01*
X232951947Y-137382873D01*
X232945487Y-137381500D01*
X232754513Y-137381500D01*
X232748061Y-137382872D01*
X232748056Y-137382872D01*
X232683638Y-137396565D01*
X232567712Y-137421206D01*
X232561682Y-137423891D01*
X232561681Y-137423891D01*
X232399278Y-137496197D01*
X232399276Y-137496198D01*
X232393248Y-137498882D01*
X232238747Y-137611134D01*
X232234326Y-137616044D01*
X232234325Y-137616045D01*
X232124082Y-137738483D01*
X232110960Y-137753056D01*
X232015473Y-137918444D01*
X231956458Y-138100072D01*
X231936496Y-138290000D01*
X231937186Y-138296565D01*
X231952974Y-138446775D01*
X231956458Y-138479928D01*
X232015473Y-138661556D01*
X232110960Y-138826944D01*
X232115380Y-138831853D01*
X232115383Y-138831857D01*
X232134135Y-138852683D01*
X232164853Y-138916690D01*
X232166500Y-138936994D01*
X232166500Y-139202502D01*
X232146498Y-139270623D01*
X232092842Y-139317116D01*
X232022568Y-139327220D01*
X231957988Y-139297726D01*
X231951405Y-139291597D01*
X229653574Y-136993766D01*
X229642707Y-136981375D01*
X229628272Y-136962563D01*
X229623246Y-136956013D01*
X229591334Y-136931526D01*
X229591331Y-136931523D01*
X229496135Y-136858476D01*
X229348110Y-136797162D01*
X229339923Y-136796084D01*
X229339922Y-136796084D01*
X229328717Y-136794609D01*
X229297521Y-136790502D01*
X229229144Y-136781500D01*
X229229141Y-136781500D01*
X229229133Y-136781499D01*
X229197448Y-136777328D01*
X229189259Y-136776250D01*
X229157566Y-136780422D01*
X229141123Y-136781500D01*
X229122710Y-136781500D01*
X229054589Y-136761498D01*
X229029074Y-136739811D01*
X229007668Y-136716037D01*
X229007666Y-136716036D01*
X229003253Y-136711134D01*
X228934572Y-136661234D01*
X228854094Y-136602763D01*
X228854093Y-136602762D01*
X228848752Y-136598882D01*
X228842724Y-136596198D01*
X228842722Y-136596197D01*
X228680319Y-136523891D01*
X228680318Y-136523891D01*
X228674288Y-136521206D01*
X228580888Y-136501353D01*
X228493944Y-136482872D01*
X228493939Y-136482872D01*
X228487487Y-136481500D01*
X228296513Y-136481500D01*
X228290061Y-136482872D01*
X228290056Y-136482872D01*
X228203112Y-136501353D01*
X228109712Y-136521206D01*
X228103682Y-136523891D01*
X228103681Y-136523891D01*
X227941278Y-136596197D01*
X227941276Y-136596198D01*
X227935248Y-136598882D01*
X227780747Y-136711134D01*
X227652960Y-136853056D01*
X227557473Y-137018444D01*
X227498458Y-137200072D01*
X227478496Y-137390000D01*
X227498458Y-137579928D01*
X227557473Y-137761556D01*
X227652960Y-137926944D01*
X227780747Y-138068866D01*
X227935248Y-138181118D01*
X227941276Y-138183802D01*
X227941278Y-138183803D01*
X228103681Y-138256109D01*
X228109712Y-138258794D01*
X228185193Y-138274838D01*
X228290056Y-138297128D01*
X228290061Y-138297128D01*
X228296513Y-138298500D01*
X228487487Y-138298500D01*
X228493939Y-138297128D01*
X228493944Y-138297128D01*
X228598807Y-138274838D01*
X228674288Y-138258794D01*
X228680319Y-138256109D01*
X228842722Y-138183803D01*
X228842724Y-138183802D01*
X228848752Y-138181118D01*
X228854094Y-138177237D01*
X228918696Y-138130301D01*
X228985564Y-138106442D01*
X229054716Y-138122523D01*
X229081852Y-138143142D01*
X230915948Y-139977238D01*
X230949974Y-140039550D01*
X230952163Y-140079503D01*
X230936637Y-140227224D01*
X230937327Y-140233789D01*
X230947497Y-140330547D01*
X230956599Y-140417152D01*
X231015614Y-140598780D01*
X231111101Y-140764168D01*
X231171656Y-140831421D01*
X231187822Y-140849375D01*
X231218539Y-140913383D01*
X231209774Y-140983836D01*
X231183280Y-141022780D01*
X229233928Y-142972132D01*
X229171616Y-143006158D01*
X229100801Y-143001093D01*
X229093601Y-142998151D01*
X228921902Y-142921706D01*
X228817267Y-142899465D01*
X228741558Y-142883372D01*
X228741553Y-142883372D01*
X228735101Y-142882000D01*
X228544127Y-142882000D01*
X228537675Y-142883372D01*
X228537670Y-142883372D01*
X228461961Y-142899465D01*
X228357326Y-142921706D01*
X228351296Y-142924391D01*
X228351295Y-142924391D01*
X228188892Y-142996697D01*
X228188890Y-142996698D01*
X228182862Y-142999382D01*
X228177521Y-143003262D01*
X228177520Y-143003263D01*
X228157296Y-143017957D01*
X228028361Y-143111634D01*
X227900574Y-143253556D01*
X227805087Y-143418944D01*
X227746072Y-143600572D01*
X227726110Y-143790500D01*
X227734605Y-143871319D01*
X227736813Y-143892329D01*
X227724041Y-143962168D01*
X227675539Y-144014014D01*
X227611503Y-144031500D01*
X227473478Y-144031500D01*
X227405357Y-144011498D01*
X227384383Y-143994595D01*
X224730767Y-141340979D01*
X224713699Y-141317998D01*
X224713114Y-141318382D01*
X224713114Y-141318381D01*
X224703267Y-141303391D01*
X224694854Y-141288460D01*
X224689548Y-141277335D01*
X224687133Y-141272271D01*
X224683861Y-141267718D01*
X224683859Y-141267714D01*
X224638501Y-141204592D01*
X224635512Y-141200242D01*
X224597395Y-141142214D01*
X224589776Y-141130615D01*
X224571254Y-141109827D01*
X224563017Y-141099545D01*
X224559310Y-141094386D01*
X224556040Y-141089835D01*
X224525263Y-141060010D01*
X224512988Y-141046232D01*
X224507563Y-141039162D01*
X224507562Y-141039160D01*
X224504145Y-141034708D01*
X224443857Y-140979850D01*
X224439562Y-140975752D01*
X224423612Y-140959802D01*
X224414352Y-140952060D01*
X224407499Y-140945889D01*
X224394710Y-140933495D01*
X224396184Y-140931974D01*
X224361094Y-140881186D01*
X224358723Y-140810229D01*
X224395090Y-140749254D01*
X224401785Y-140743472D01*
X224448810Y-140705663D01*
X224512070Y-140654801D01*
X224641090Y-140501041D01*
X224644054Y-140495649D01*
X224644057Y-140495645D01*
X224734820Y-140330547D01*
X224737787Y-140325150D01*
X224798478Y-140133827D01*
X224816000Y-139977615D01*
X224816000Y-139169496D01*
X224801365Y-139020239D01*
X224795378Y-139000407D01*
X224745132Y-138833987D01*
X224743351Y-138828087D01*
X224649120Y-138650863D01*
X224522259Y-138495318D01*
X224367603Y-138367375D01*
X224191041Y-138271908D01*
X224095170Y-138242231D01*
X224005186Y-138214376D01*
X224005183Y-138214375D01*
X223999299Y-138212554D01*
X223993174Y-138211910D01*
X223993173Y-138211910D01*
X223805808Y-138192217D01*
X223805807Y-138192217D01*
X223799680Y-138191573D01*
X223716662Y-138199128D01*
X223605926Y-138209206D01*
X223605923Y-138209207D01*
X223599787Y-138209765D01*
X223593881Y-138211503D01*
X223593877Y-138211504D01*
X223451621Y-138253373D01*
X223407235Y-138266436D01*
X223229358Y-138359428D01*
X223224558Y-138363288D01*
X223224557Y-138363288D01*
X223120720Y-138446775D01*
X223055097Y-138473871D01*
X222985243Y-138461188D01*
X222961453Y-138445663D01*
X222872072Y-138371720D01*
X222861901Y-138364860D01*
X222696265Y-138275301D01*
X222684960Y-138270549D01*
X222563808Y-138233046D01*
X222549705Y-138232840D01*
X222546500Y-138239595D01*
X222546500Y-139698000D01*
X222526498Y-139766121D01*
X222472842Y-139812614D01*
X222420500Y-139824000D01*
X221287615Y-139824000D01*
X221272376Y-139828475D01*
X221271171Y-139829865D01*
X221269500Y-139837548D01*
X221269500Y-139967401D01*
X221269801Y-139973549D01*
X221283526Y-140113530D01*
X221285909Y-140125565D01*
X221340332Y-140305821D01*
X221345007Y-140317163D01*
X221433405Y-140483417D01*
X221440192Y-140493633D01*
X221454843Y-140511596D01*
X221482397Y-140577027D01*
X221470202Y-140646969D01*
X221422130Y-140699214D01*
X221409397Y-140705345D01*
X221409549Y-140705663D01*
X221206782Y-140802378D01*
X221024346Y-140933471D01*
X220996896Y-140961797D01*
X220876599Y-141085934D01*
X220868008Y-141094799D01*
X220742710Y-141281262D01*
X220652412Y-141486967D01*
X220599968Y-141705411D01*
X220587037Y-141929690D01*
X220614025Y-142152715D01*
X220680082Y-142367435D01*
X220783118Y-142567064D01*
X220919877Y-142745292D01*
X221086036Y-142896485D01*
X221090783Y-142899463D01*
X221090786Y-142899465D01*
X221245789Y-142996697D01*
X221276344Y-143015864D01*
X221484783Y-143099656D01*
X221704767Y-143145213D01*
X221709378Y-143145479D01*
X221709379Y-143145479D01*
X221759952Y-143148395D01*
X221759956Y-143148395D01*
X221761775Y-143148500D01*
X222926523Y-143148500D01*
X222994644Y-143168502D01*
X223015618Y-143185405D01*
X225945475Y-146115263D01*
X225956342Y-146127653D01*
X225969877Y-146145292D01*
X225974021Y-146149063D01*
X225974024Y-146149066D01*
X225980331Y-146154805D01*
X226017255Y-146215445D01*
X226015532Y-146286421D01*
X225975711Y-146345198D01*
X225910434Y-146373116D01*
X225895533Y-146374000D01*
X221156867Y-146374000D01*
X221137482Y-146372500D01*
X221122648Y-146370190D01*
X221122645Y-146370190D01*
X221113776Y-146368809D01*
X221104874Y-146369973D01*
X221104750Y-146369989D01*
X221074308Y-146370260D01*
X221053630Y-146367930D01*
X221012236Y-146363266D01*
X220984729Y-146356987D01*
X220907647Y-146330015D01*
X220882226Y-146317773D01*
X220813074Y-146274322D01*
X220791015Y-146256730D01*
X220733270Y-146198985D01*
X220715678Y-146176926D01*
X220672227Y-146107774D01*
X220659985Y-146082353D01*
X220633013Y-146005272D01*
X220626734Y-145977765D01*
X220621071Y-145927507D01*
X220621059Y-145906160D01*
X220620685Y-145906147D01*
X220621056Y-145895171D01*
X220621304Y-145895179D01*
X220621307Y-145895055D01*
X220621076Y-145895052D01*
X220621085Y-145894311D01*
X220621109Y-145893602D01*
X220621340Y-145893610D01*
X220621342Y-145893490D01*
X220621095Y-145893487D01*
X220621170Y-145887359D01*
X220621170Y-145887356D01*
X220621229Y-145882500D01*
X220620257Y-145875717D01*
X220619125Y-145863799D01*
X220619067Y-145862552D01*
X220607465Y-145616702D01*
X220556562Y-145344222D01*
X220500291Y-145175671D01*
X220470152Y-145085392D01*
X220470151Y-145085389D01*
X220468783Y-145081292D01*
X220439388Y-145021923D01*
X220347711Y-144836768D01*
X220345786Y-144832880D01*
X220189894Y-144603676D01*
X220182514Y-144595509D01*
X220151683Y-144531558D01*
X220150000Y-144511033D01*
X220150000Y-139297885D01*
X221269500Y-139297885D01*
X221273975Y-139313124D01*
X221275365Y-139314329D01*
X221283048Y-139316000D01*
X222020385Y-139316000D01*
X222035624Y-139311525D01*
X222036829Y-139310135D01*
X222038500Y-139302452D01*
X222038500Y-138246438D01*
X222034527Y-138232907D01*
X222026732Y-138231787D01*
X221913332Y-138265162D01*
X221901964Y-138269755D01*
X221735091Y-138356994D01*
X221724829Y-138363710D01*
X221578086Y-138481695D01*
X221569320Y-138490278D01*
X221448284Y-138634524D01*
X221441358Y-138644638D01*
X221350641Y-138809652D01*
X221345813Y-138820916D01*
X221288875Y-139000407D01*
X221286327Y-139012396D01*
X221269893Y-139158909D01*
X221269500Y-139165933D01*
X221269500Y-139297885D01*
X220150000Y-139297885D01*
X220150000Y-137197007D01*
X220173062Y-137124346D01*
X220317620Y-136919553D01*
X220317625Y-136919545D01*
X220320111Y-136916023D01*
X220426276Y-136711134D01*
X220444547Y-136675872D01*
X220444548Y-136675869D01*
X220446523Y-136672058D01*
X220538538Y-136413153D01*
X220580861Y-136209486D01*
X220593568Y-136148338D01*
X220593569Y-136148332D01*
X220594442Y-136144130D01*
X220595611Y-136127048D01*
X220601626Y-136039100D01*
X220604482Y-135997356D01*
X220605932Y-135985069D01*
X220621076Y-135895052D01*
X220621229Y-135882500D01*
X220620540Y-135877688D01*
X220620223Y-135872827D01*
X220620508Y-135872808D01*
X220620107Y-135846049D01*
X220626734Y-135787236D01*
X220633013Y-135759729D01*
X220659985Y-135682647D01*
X220672227Y-135657226D01*
X220715678Y-135588074D01*
X220733270Y-135566015D01*
X220791015Y-135508270D01*
X220813074Y-135490678D01*
X220882226Y-135447227D01*
X220907647Y-135434985D01*
X220984728Y-135408013D01*
X221012236Y-135401734D01*
X221067726Y-135395482D01*
X221083368Y-135395577D01*
X221083379Y-135394700D01*
X221092351Y-135394810D01*
X221101224Y-135396191D01*
X221110126Y-135395027D01*
X221110128Y-135395027D01*
X221125451Y-135393023D01*
X221132786Y-135392064D01*
X221149121Y-135391000D01*
X235358133Y-135391000D01*
X235377518Y-135392500D01*
G37*
%TD.AperFunction*%
%TD*%
%TA.AperFunction,Conductor*%
%TO.N,GND*%
G36*
X221242317Y-121048503D02*
G01*
X221288810Y-121102159D01*
X221298914Y-121172433D01*
X221272352Y-121232972D01*
X221269493Y-121235771D01*
X221171235Y-121388238D01*
X221168826Y-121394858D01*
X221168824Y-121394861D01*
X221115430Y-121541559D01*
X221109197Y-121558685D01*
X221086463Y-121738640D01*
X221104163Y-121919160D01*
X221161418Y-122091273D01*
X221165065Y-122097295D01*
X221165066Y-122097297D01*
X221251178Y-122239485D01*
X221255380Y-122246424D01*
X221260269Y-122251487D01*
X221260270Y-122251488D01*
X221329418Y-122323092D01*
X221381382Y-122376902D01*
X221533159Y-122476222D01*
X221539763Y-122478678D01*
X221539765Y-122478679D01*
X221703168Y-122539448D01*
X221702563Y-122541076D01*
X221752995Y-122569610D01*
X225096844Y-125913459D01*
X225102698Y-125919724D01*
X225139290Y-125961670D01*
X225189655Y-125997066D01*
X225194920Y-126000978D01*
X225243328Y-126038935D01*
X225250252Y-126042061D01*
X225254561Y-126044671D01*
X225263976Y-126050042D01*
X225268424Y-126052427D01*
X225274639Y-126056795D01*
X225281716Y-126059554D01*
X225331957Y-126079142D01*
X225338029Y-126081694D01*
X225394105Y-126107014D01*
X225401582Y-126108400D01*
X225406402Y-126109910D01*
X225416835Y-126112882D01*
X225421696Y-126114130D01*
X225428772Y-126116889D01*
X225489019Y-126124820D01*
X225489762Y-126124918D01*
X225496278Y-126125950D01*
X225532916Y-126132740D01*
X225556767Y-126137161D01*
X225564347Y-126136724D01*
X225564348Y-126136724D01*
X225616642Y-126133709D01*
X225623894Y-126133500D01*
X227735480Y-126133500D01*
X227803601Y-126153502D01*
X227850094Y-126207158D01*
X227861480Y-126259500D01*
X227861480Y-126641935D01*
X227861188Y-126650503D01*
X227857404Y-126706014D01*
X227858709Y-126713491D01*
X227858709Y-126713494D01*
X227867982Y-126766627D01*
X227868945Y-126773151D01*
X227876335Y-126834215D01*
X227879022Y-126841325D01*
X227880226Y-126846228D01*
X227883094Y-126856714D01*
X227884541Y-126861506D01*
X227885846Y-126868984D01*
X227888898Y-126875936D01*
X227888898Y-126875937D01*
X227910575Y-126925321D01*
X227913066Y-126931426D01*
X227932125Y-126981862D01*
X227934811Y-126988969D01*
X227939111Y-126995226D01*
X227941447Y-126999694D01*
X227946705Y-127009140D01*
X227949287Y-127013506D01*
X227952342Y-127020465D01*
X227989803Y-127069284D01*
X227993666Y-127074603D01*
X228009807Y-127098087D01*
X228028514Y-127125306D01*
X228034183Y-127130357D01*
X228073303Y-127165212D01*
X228078578Y-127170193D01*
X230396844Y-129488459D01*
X230402698Y-129494724D01*
X230439290Y-129536670D01*
X230489655Y-129572066D01*
X230494920Y-129575978D01*
X230543328Y-129613935D01*
X230550252Y-129617061D01*
X230554561Y-129619671D01*
X230563976Y-129625042D01*
X230568424Y-129627427D01*
X230574639Y-129631795D01*
X230631952Y-129654140D01*
X230638034Y-129656697D01*
X230662368Y-129667684D01*
X230694104Y-129682014D01*
X230701576Y-129683399D01*
X230706427Y-129684919D01*
X230716765Y-129687864D01*
X230721696Y-129689130D01*
X230728772Y-129691889D01*
X230736301Y-129692880D01*
X230736304Y-129692881D01*
X230789766Y-129699919D01*
X230796281Y-129700951D01*
X230838141Y-129708709D01*
X230856767Y-129712161D01*
X230864347Y-129711724D01*
X230864348Y-129711724D01*
X230916642Y-129708709D01*
X230923894Y-129708500D01*
X232229185Y-129708500D01*
X232297306Y-129728502D01*
X232303246Y-129732564D01*
X232418248Y-129816118D01*
X232424276Y-129818802D01*
X232424278Y-129818803D01*
X232466906Y-129837782D01*
X232592712Y-129893794D01*
X232686112Y-129913647D01*
X232773056Y-129932128D01*
X232773061Y-129932128D01*
X232779513Y-129933500D01*
X232970487Y-129933500D01*
X232970487Y-129935915D01*
X233030290Y-129948589D01*
X233080762Y-129998520D01*
X233096500Y-130059499D01*
X233096500Y-130187237D01*
X233096800Y-130190293D01*
X233096800Y-130190300D01*
X233097564Y-130198087D01*
X233111635Y-130341592D01*
X233139219Y-130432955D01*
X233168171Y-130528850D01*
X233171632Y-130540315D01*
X233174527Y-130545760D01*
X233174528Y-130545762D01*
X233248293Y-130684491D01*
X233269087Y-130723599D01*
X233317917Y-130783471D01*
X233396390Y-130879689D01*
X233396393Y-130879692D01*
X233400285Y-130884464D01*
X233405033Y-130888392D01*
X233405034Y-130888393D01*
X233461726Y-130935293D01*
X233560230Y-131016783D01*
X233565647Y-131019712D01*
X233565650Y-131019714D01*
X233737410Y-131112584D01*
X233737415Y-131112586D01*
X233742830Y-131115514D01*
X233941129Y-131176898D01*
X233947254Y-131177542D01*
X233947255Y-131177542D01*
X234141446Y-131197952D01*
X234141448Y-131197952D01*
X234147575Y-131198596D01*
X234233485Y-131190777D01*
X234348164Y-131180341D01*
X234348167Y-131180340D01*
X234354303Y-131179782D01*
X234360209Y-131178044D01*
X234360213Y-131178043D01*
X234508068Y-131134527D01*
X234553440Y-131121173D01*
X234737400Y-131025001D01*
X234899177Y-130894929D01*
X234904662Y-130888393D01*
X235028650Y-130740629D01*
X235032609Y-130735911D01*
X235035573Y-130730519D01*
X235035576Y-130730515D01*
X235129646Y-130559402D01*
X235132613Y-130554005D01*
X235195379Y-130356139D01*
X235196350Y-130347489D01*
X235210310Y-130223025D01*
X235213500Y-130194587D01*
X235213500Y-122782763D01*
X235212780Y-122775413D01*
X235198966Y-122634534D01*
X235198965Y-122634531D01*
X235198365Y-122628408D01*
X235158526Y-122496454D01*
X235140152Y-122435593D01*
X235140151Y-122435590D01*
X235138368Y-122429685D01*
X235112354Y-122380760D01*
X235043809Y-122251847D01*
X235043808Y-122251845D01*
X235040913Y-122246401D01*
X234928011Y-122107969D01*
X234913610Y-122090311D01*
X234913607Y-122090308D01*
X234909715Y-122085536D01*
X234902770Y-122079790D01*
X234754518Y-121957145D01*
X234754519Y-121957145D01*
X234749770Y-121953217D01*
X234744353Y-121950288D01*
X234744350Y-121950286D01*
X234572590Y-121857416D01*
X234572585Y-121857414D01*
X234567170Y-121854486D01*
X234368871Y-121793102D01*
X234362746Y-121792458D01*
X234362745Y-121792458D01*
X234168554Y-121772048D01*
X234168552Y-121772048D01*
X234162425Y-121771404D01*
X234076515Y-121779223D01*
X233961836Y-121789659D01*
X233961833Y-121789660D01*
X233955697Y-121790218D01*
X233949791Y-121791956D01*
X233949787Y-121791957D01*
X233801932Y-121835473D01*
X233756560Y-121848827D01*
X233572600Y-121944999D01*
X233410823Y-122075071D01*
X233406865Y-122079788D01*
X233406863Y-122079790D01*
X233402042Y-122085536D01*
X233277391Y-122234089D01*
X233274427Y-122239481D01*
X233274424Y-122239485D01*
X233196758Y-122380760D01*
X233177387Y-122415995D01*
X233114621Y-122613861D01*
X233113935Y-122619978D01*
X233113934Y-122619982D01*
X233113140Y-122627064D01*
X233096500Y-122775413D01*
X233096500Y-127990501D01*
X233076498Y-128058622D01*
X233022842Y-128105115D01*
X232970487Y-128114416D01*
X232970487Y-128116500D01*
X232779513Y-128116500D01*
X232773061Y-128117872D01*
X232773056Y-128117872D01*
X232686112Y-128136353D01*
X232592712Y-128156206D01*
X232586682Y-128158891D01*
X232586681Y-128158891D01*
X232424278Y-128231197D01*
X232424276Y-128231198D01*
X232418248Y-128233882D01*
X232412907Y-128237762D01*
X232412906Y-128237763D01*
X232303246Y-128317436D01*
X232236378Y-128341295D01*
X232229185Y-128341500D01*
X231235305Y-128341500D01*
X231167184Y-128321498D01*
X231146210Y-128304595D01*
X230877959Y-128036344D01*
X230843933Y-127974032D01*
X230848998Y-127903217D01*
X230891545Y-127846381D01*
X230930002Y-127826820D01*
X230943167Y-127822769D01*
X230952435Y-127819918D01*
X230957415Y-127817348D01*
X230957419Y-127817346D01*
X231147081Y-127719454D01*
X231147082Y-127719454D01*
X231152064Y-127716882D01*
X231330292Y-127580123D01*
X231481485Y-127413964D01*
X231567921Y-127276173D01*
X231597885Y-127228405D01*
X231600864Y-127223656D01*
X231684656Y-127015217D01*
X231730213Y-126795233D01*
X231731642Y-126770446D01*
X231733395Y-126740048D01*
X231733395Y-126740044D01*
X231733500Y-126738225D01*
X231733500Y-125704339D01*
X231734578Y-125687892D01*
X231736746Y-125671427D01*
X231736746Y-125671423D01*
X231737479Y-125665857D01*
X231733640Y-125584454D01*
X231733500Y-125578519D01*
X231733500Y-125555945D01*
X231731181Y-125529957D01*
X231730822Y-125524694D01*
X231727160Y-125447056D01*
X231726896Y-125441455D01*
X231725645Y-125435992D01*
X231725644Y-125435986D01*
X231722893Y-125423976D01*
X231720211Y-125407043D01*
X231719116Y-125394776D01*
X231718617Y-125389182D01*
X231696624Y-125308792D01*
X231695341Y-125303683D01*
X231677994Y-125227942D01*
X231676742Y-125222474D01*
X231669706Y-125205977D01*
X231664073Y-125189802D01*
X231660818Y-125177905D01*
X231660817Y-125177901D01*
X231659337Y-125172493D01*
X231623461Y-125097277D01*
X231621290Y-125092468D01*
X231590804Y-125020995D01*
X231590804Y-125020994D01*
X231588603Y-125015835D01*
X231578749Y-125000834D01*
X231570343Y-124985914D01*
X231565035Y-124974785D01*
X231562622Y-124969726D01*
X231559354Y-124965178D01*
X231559351Y-124965173D01*
X231513998Y-124902058D01*
X231511009Y-124897709D01*
X231465265Y-124828069D01*
X231446747Y-124807285D01*
X231438498Y-124796989D01*
X231434804Y-124791848D01*
X231431529Y-124787290D01*
X231354777Y-124712912D01*
X231353367Y-124711523D01*
X227885440Y-121243596D01*
X227851414Y-121181284D01*
X227856479Y-121110469D01*
X227899026Y-121053633D01*
X227965546Y-121028822D01*
X227974535Y-121028501D01*
X235365633Y-121028501D01*
X235385018Y-121030001D01*
X235399851Y-121032311D01*
X235399855Y-121032311D01*
X235408724Y-121033692D01*
X235417626Y-121032528D01*
X235417631Y-121032528D01*
X235417750Y-121032512D01*
X235448187Y-121032241D01*
X235510262Y-121039235D01*
X235537767Y-121045513D01*
X235614858Y-121072488D01*
X235640270Y-121084726D01*
X235709420Y-121128175D01*
X235709426Y-121128179D01*
X235731485Y-121145771D01*
X235789229Y-121203515D01*
X235806821Y-121225574D01*
X235822545Y-121250598D01*
X235850272Y-121294726D01*
X235862514Y-121320147D01*
X235889486Y-121397229D01*
X235895764Y-121424734D01*
X235896580Y-121431975D01*
X235893361Y-121432338D01*
X235895416Y-121440095D01*
X235896807Y-121440000D01*
X235897965Y-121456924D01*
X235901684Y-121511306D01*
X235900023Y-121511420D01*
X235900613Y-121513813D01*
X235901307Y-121513722D01*
X235901940Y-121518563D01*
X235902044Y-121519612D01*
X235902116Y-121519903D01*
X235902444Y-121522413D01*
X235902469Y-121522779D01*
X235902457Y-121523761D01*
X235902708Y-121526276D01*
X235915558Y-121714130D01*
X235916431Y-121718332D01*
X235916432Y-121718338D01*
X235964632Y-121950286D01*
X235971462Y-121983153D01*
X236063477Y-122242058D01*
X236189889Y-122486023D01*
X236192374Y-122489544D01*
X236192375Y-122489545D01*
X236229738Y-122542476D01*
X236346910Y-122708472D01*
X236346911Y-122708474D01*
X236348343Y-122710502D01*
X236347895Y-122710818D01*
X236374214Y-122773533D01*
X236375000Y-122787583D01*
X236375000Y-130144868D01*
X236351938Y-130217530D01*
X236249952Y-130362012D01*
X236197389Y-130436477D01*
X236070977Y-130680442D01*
X235978962Y-130939347D01*
X235978088Y-130943555D01*
X235978087Y-130943557D01*
X235928883Y-131180341D01*
X235923058Y-131208370D01*
X235922765Y-131212656D01*
X235922764Y-131212662D01*
X235905834Y-131460183D01*
X235905211Y-131465752D01*
X235905191Y-131467347D01*
X235903809Y-131476224D01*
X235904418Y-131480880D01*
X235904307Y-131482500D01*
X235904630Y-131482500D01*
X235904821Y-131483964D01*
X235903525Y-131499479D01*
X235902689Y-131504847D01*
X235902689Y-131504856D01*
X235901308Y-131513724D01*
X235902472Y-131522626D01*
X235902488Y-131522750D01*
X235902759Y-131553193D01*
X235895765Y-131615264D01*
X235889486Y-131642771D01*
X235862514Y-131719853D01*
X235850272Y-131745274D01*
X235806821Y-131814426D01*
X235789229Y-131836485D01*
X235731484Y-131894230D01*
X235709425Y-131911822D01*
X235640276Y-131955271D01*
X235614855Y-131967513D01*
X235537768Y-131994487D01*
X235510262Y-132000765D01*
X235471434Y-132005140D01*
X235454766Y-132007018D01*
X235439122Y-132007801D01*
X235430148Y-132007691D01*
X235421276Y-132006310D01*
X235412374Y-132007474D01*
X235412371Y-132007474D01*
X235389715Y-132010437D01*
X235373378Y-132011501D01*
X221164367Y-132011501D01*
X221144982Y-132010001D01*
X221130148Y-132007691D01*
X221130145Y-132007691D01*
X221121276Y-132006310D01*
X221112374Y-132007474D01*
X221112250Y-132007490D01*
X221081808Y-132007761D01*
X221067538Y-132006153D01*
X221019736Y-132000767D01*
X220992229Y-131994488D01*
X220915145Y-131967515D01*
X220889730Y-131955277D01*
X220820567Y-131911819D01*
X220798514Y-131894231D01*
X220740769Y-131836486D01*
X220723181Y-131814433D01*
X220679723Y-131745270D01*
X220667485Y-131719855D01*
X220640512Y-131642771D01*
X220634233Y-131615263D01*
X220627981Y-131559774D01*
X220628076Y-131544132D01*
X220627199Y-131544121D01*
X220627309Y-131535149D01*
X220628690Y-131526276D01*
X220623669Y-131487875D01*
X220610968Y-131390752D01*
X220609804Y-131381849D01*
X220606188Y-131373632D01*
X220603774Y-131364984D01*
X220605232Y-131364577D01*
X220598694Y-131338035D01*
X220594736Y-131280164D01*
X220594735Y-131280160D01*
X220594442Y-131275870D01*
X220581308Y-131212662D01*
X220539413Y-131011057D01*
X220539412Y-131011055D01*
X220538538Y-131006847D01*
X220446523Y-130747942D01*
X220413646Y-130684491D01*
X220402001Y-130662019D01*
X220320111Y-130503977D01*
X220161657Y-130279498D01*
X220108915Y-130223025D01*
X220077037Y-130159587D01*
X220075000Y-130137023D01*
X220075000Y-128240504D01*
X221309000Y-128240504D01*
X221323635Y-128389761D01*
X221325417Y-128395662D01*
X221325417Y-128395664D01*
X221347793Y-128469776D01*
X221381649Y-128581913D01*
X221475880Y-128759137D01*
X221602741Y-128914682D01*
X221757397Y-129042625D01*
X221933959Y-129138092D01*
X222029830Y-129167769D01*
X222119814Y-129195624D01*
X222119817Y-129195625D01*
X222125701Y-129197446D01*
X222131826Y-129198090D01*
X222131827Y-129198090D01*
X222319192Y-129217783D01*
X222319193Y-129217783D01*
X222325320Y-129218427D01*
X222408338Y-129210872D01*
X222519074Y-129200794D01*
X222519077Y-129200793D01*
X222525213Y-129200235D01*
X222531119Y-129198497D01*
X222531123Y-129198496D01*
X222711856Y-129145303D01*
X222711855Y-129145303D01*
X222717765Y-129143564D01*
X222895642Y-129050572D01*
X223004280Y-128963225D01*
X223069903Y-128936129D01*
X223139757Y-128948812D01*
X223163547Y-128964337D01*
X223252928Y-129038280D01*
X223263099Y-129045140D01*
X223428735Y-129134699D01*
X223440040Y-129139451D01*
X223561192Y-129176954D01*
X223575295Y-129177160D01*
X223578500Y-129170405D01*
X223578500Y-129163562D01*
X224086500Y-129163562D01*
X224090473Y-129177093D01*
X224098268Y-129178213D01*
X224211668Y-129144838D01*
X224223036Y-129140245D01*
X224389909Y-129053006D01*
X224400171Y-129046290D01*
X224546914Y-128928305D01*
X224555680Y-128919722D01*
X224676716Y-128775476D01*
X224683642Y-128765362D01*
X224774359Y-128600348D01*
X224779187Y-128589084D01*
X224836125Y-128409593D01*
X224838673Y-128397604D01*
X224855107Y-128251091D01*
X224855500Y-128244067D01*
X224855500Y-128112115D01*
X224851025Y-128096876D01*
X224849635Y-128095671D01*
X224841952Y-128094000D01*
X224104615Y-128094000D01*
X224089376Y-128098475D01*
X224088171Y-128099865D01*
X224086500Y-128107548D01*
X224086500Y-129163562D01*
X223578500Y-129163562D01*
X223578500Y-127567885D01*
X224086500Y-127567885D01*
X224090975Y-127583124D01*
X224092365Y-127584329D01*
X224100048Y-127586000D01*
X224837385Y-127586000D01*
X224852624Y-127581525D01*
X224853829Y-127580135D01*
X224855500Y-127572452D01*
X224855500Y-127442599D01*
X224855199Y-127436451D01*
X224841474Y-127296470D01*
X224839091Y-127284435D01*
X224784668Y-127104179D01*
X224779993Y-127092837D01*
X224691595Y-126926583D01*
X224684808Y-126916367D01*
X224565798Y-126770446D01*
X224557154Y-126761742D01*
X224412072Y-126641720D01*
X224401901Y-126634860D01*
X224236265Y-126545301D01*
X224224960Y-126540549D01*
X224103808Y-126503046D01*
X224089705Y-126502840D01*
X224086500Y-126509595D01*
X224086500Y-127567885D01*
X223578500Y-127567885D01*
X223578500Y-126516438D01*
X223574527Y-126502907D01*
X223566732Y-126501787D01*
X223453332Y-126535162D01*
X223441964Y-126539755D01*
X223275091Y-126626994D01*
X223264829Y-126633710D01*
X223161511Y-126716780D01*
X223095889Y-126743877D01*
X223026034Y-126731194D01*
X223002243Y-126715668D01*
X222912353Y-126641304D01*
X222912349Y-126641302D01*
X222907603Y-126637375D01*
X222731041Y-126541908D01*
X222635170Y-126512231D01*
X222545186Y-126484376D01*
X222545183Y-126484375D01*
X222539299Y-126482554D01*
X222533174Y-126481910D01*
X222533173Y-126481910D01*
X222345808Y-126462217D01*
X222345807Y-126462217D01*
X222339680Y-126461573D01*
X222256662Y-126469128D01*
X222145926Y-126479206D01*
X222145923Y-126479207D01*
X222139787Y-126479765D01*
X222133881Y-126481503D01*
X222133877Y-126481504D01*
X221991621Y-126523373D01*
X221947235Y-126536436D01*
X221769358Y-126629428D01*
X221612930Y-126755199D01*
X221608972Y-126759916D01*
X221608970Y-126759918D01*
X221600620Y-126769869D01*
X221483910Y-126908959D01*
X221480946Y-126914351D01*
X221480943Y-126914355D01*
X221422609Y-127020465D01*
X221387213Y-127084850D01*
X221326522Y-127276173D01*
X221309000Y-127432385D01*
X221309000Y-128240504D01*
X220075000Y-128240504D01*
X220075000Y-122940215D01*
X220095002Y-122872094D01*
X220109559Y-122853528D01*
X220162424Y-122797764D01*
X220162425Y-122797763D01*
X220165375Y-122794651D01*
X220289165Y-122622081D01*
X220323462Y-122574269D01*
X220323463Y-122574267D01*
X220325971Y-122570771D01*
X220454620Y-122327125D01*
X220548930Y-122068245D01*
X220607149Y-121798942D01*
X220609259Y-121771404D01*
X220612554Y-121728390D01*
X220625823Y-121555167D01*
X220627374Y-121542887D01*
X220628454Y-121536777D01*
X220628666Y-121526431D01*
X220628690Y-121526276D01*
X220628672Y-121526137D01*
X220628711Y-121524227D01*
X220628060Y-121519396D01*
X220627696Y-121516696D01*
X220627358Y-121485752D01*
X220634233Y-121424735D01*
X220640512Y-121397228D01*
X220667484Y-121320147D01*
X220679726Y-121294726D01*
X220723175Y-121225577D01*
X220740766Y-121203518D01*
X220798516Y-121145767D01*
X220820576Y-121128175D01*
X220889725Y-121084726D01*
X220915146Y-121072484D01*
X220992228Y-121045512D01*
X221019734Y-121039233D01*
X221041960Y-121036728D01*
X221075217Y-121032981D01*
X221090862Y-121033395D01*
X221090877Y-121032200D01*
X221099847Y-121032310D01*
X221108724Y-121033692D01*
X221140286Y-121029565D01*
X221156621Y-121028501D01*
X221174196Y-121028501D01*
X221242317Y-121048503D01*
G37*
%TD.AperFunction*%
%TA.AperFunction,Conductor*%
G36*
X224649524Y-121048503D02*
G01*
X224696017Y-121102159D01*
X224706121Y-121172433D01*
X224685984Y-121224777D01*
X224610841Y-121336601D01*
X224610836Y-121336610D01*
X224607710Y-121341262D01*
X224517412Y-121546967D01*
X224516103Y-121552418D01*
X224516102Y-121552422D01*
X224476269Y-121718338D01*
X224464968Y-121765411D01*
X224463079Y-121798171D01*
X224452657Y-121978943D01*
X224452037Y-121989690D01*
X224479025Y-122212715D01*
X224545082Y-122427435D01*
X224547652Y-122432415D01*
X224547654Y-122432419D01*
X224638272Y-122607988D01*
X224648118Y-122627064D01*
X224784877Y-122805292D01*
X224951036Y-122956485D01*
X224955783Y-122959463D01*
X224955786Y-122959465D01*
X225011803Y-122994604D01*
X225141344Y-123075864D01*
X225349783Y-123159656D01*
X225569767Y-123205213D01*
X225574378Y-123205479D01*
X225574379Y-123205479D01*
X225624952Y-123208395D01*
X225624956Y-123208395D01*
X225626775Y-123208500D01*
X225683603Y-123208500D01*
X225700050Y-123209578D01*
X225716515Y-123211746D01*
X225716519Y-123211746D01*
X225722085Y-123212479D01*
X225803488Y-123208640D01*
X225809423Y-123208500D01*
X225831998Y-123208500D01*
X225857988Y-123206181D01*
X225863247Y-123205822D01*
X225946487Y-123201896D01*
X225951946Y-123200646D01*
X225951951Y-123200645D01*
X225963969Y-123197892D01*
X225980898Y-123195211D01*
X225998761Y-123193617D01*
X226004177Y-123192135D01*
X226004179Y-123192135D01*
X226079132Y-123171630D01*
X226084239Y-123170346D01*
X226153300Y-123154529D01*
X226224164Y-123158818D01*
X226270523Y-123188254D01*
X227633673Y-124551405D01*
X227667699Y-124613717D01*
X227662634Y-124684533D01*
X227620087Y-124741368D01*
X227553567Y-124766179D01*
X227544578Y-124766500D01*
X225935305Y-124766500D01*
X225867184Y-124746498D01*
X225846210Y-124729595D01*
X222717563Y-121600948D01*
X222687667Y-121553290D01*
X222636064Y-121405106D01*
X222636062Y-121405103D01*
X222633745Y-121398448D01*
X222537626Y-121244624D01*
X222532664Y-121239628D01*
X222528285Y-121234102D01*
X222530413Y-121232415D01*
X222502492Y-121180869D01*
X222507795Y-121110071D01*
X222550534Y-121053379D01*
X222617137Y-121028792D01*
X222625702Y-121028501D01*
X224581403Y-121028501D01*
X224649524Y-121048503D01*
G37*
%TD.AperFunction*%
%TD*%
%TA.AperFunction,Conductor*%
%TO.N,GND*%
G36*
X216533188Y-121772316D02*
G01*
X216579899Y-121825781D01*
X216591500Y-121878591D01*
X216591500Y-121886513D01*
X216606920Y-121994187D01*
X216610637Y-122002363D01*
X216610638Y-122002365D01*
X216642958Y-122073448D01*
X216667208Y-122126782D01*
X216687019Y-122149773D01*
X216710513Y-122190461D01*
X216749670Y-122302547D01*
X216751627Y-122306376D01*
X216751629Y-122306380D01*
X216873116Y-122544046D01*
X216875075Y-122547878D01*
X217032687Y-122773869D01*
X217066583Y-122810587D01*
X217098092Y-122874208D01*
X217100000Y-122896053D01*
X217100000Y-128481416D01*
X217079998Y-128549537D01*
X217026342Y-128596030D01*
X216956068Y-128606134D01*
X216891488Y-128576640D01*
X216864881Y-128544416D01*
X216809255Y-128448069D01*
X216789040Y-128413056D01*
X216748354Y-128367869D01*
X216665675Y-128276045D01*
X216665674Y-128276044D01*
X216661253Y-128271134D01*
X216540450Y-128183365D01*
X216512094Y-128162763D01*
X216512093Y-128162762D01*
X216506752Y-128158882D01*
X216500724Y-128156198D01*
X216500722Y-128156197D01*
X216338319Y-128083891D01*
X216338318Y-128083891D01*
X216332288Y-128081206D01*
X216238888Y-128061353D01*
X216151944Y-128042872D01*
X216151939Y-128042872D01*
X216145487Y-128041500D01*
X215954513Y-128041500D01*
X215948061Y-128042872D01*
X215948056Y-128042872D01*
X215861112Y-128061353D01*
X215767712Y-128081206D01*
X215761682Y-128083891D01*
X215761681Y-128083891D01*
X215599278Y-128156197D01*
X215599276Y-128156198D01*
X215593248Y-128158882D01*
X215587907Y-128162762D01*
X215587906Y-128162763D01*
X215559550Y-128183365D01*
X215438747Y-128271134D01*
X215434326Y-128276044D01*
X215434325Y-128276045D01*
X215351647Y-128367869D01*
X215310960Y-128413056D01*
X215215473Y-128578444D01*
X215156458Y-128760072D01*
X215155768Y-128766633D01*
X215155768Y-128766635D01*
X215140475Y-128912143D01*
X215136496Y-128950000D01*
X215137186Y-128956565D01*
X215154470Y-129121009D01*
X215156458Y-129139928D01*
X215215473Y-129321556D01*
X215310960Y-129486944D01*
X215315378Y-129491851D01*
X215315379Y-129491852D01*
X215384625Y-129568757D01*
X215438747Y-129628866D01*
X215472858Y-129653649D01*
X215560236Y-129717133D01*
X215593248Y-129741118D01*
X215599276Y-129743802D01*
X215599278Y-129743803D01*
X215761681Y-129816109D01*
X215767712Y-129818794D01*
X215861113Y-129838647D01*
X215948056Y-129857128D01*
X215948061Y-129857128D01*
X215954513Y-129858500D01*
X216145487Y-129858500D01*
X216151939Y-129857128D01*
X216151944Y-129857128D01*
X216238887Y-129838647D01*
X216332288Y-129818794D01*
X216338319Y-129816109D01*
X216500722Y-129743803D01*
X216500724Y-129743802D01*
X216506752Y-129741118D01*
X216539765Y-129717133D01*
X216627142Y-129653649D01*
X216661253Y-129628866D01*
X216715375Y-129568757D01*
X216784621Y-129491852D01*
X216784622Y-129491851D01*
X216789040Y-129486944D01*
X216864881Y-129355584D01*
X216916264Y-129306591D01*
X216985977Y-129293155D01*
X217051888Y-129319541D01*
X217093070Y-129377374D01*
X217100000Y-129418584D01*
X217100000Y-130163792D01*
X217079998Y-130231913D01*
X217066086Y-130249792D01*
X217051165Y-130265769D01*
X217041403Y-130276222D01*
X217038343Y-130279498D01*
X216879889Y-130503977D01*
X216814181Y-130630788D01*
X216789836Y-130677773D01*
X216753477Y-130747942D01*
X216661462Y-131006847D01*
X216660588Y-131011055D01*
X216660587Y-131011057D01*
X216606588Y-131270915D01*
X216605558Y-131275870D01*
X216605265Y-131280156D01*
X216605264Y-131280162D01*
X216597491Y-131393803D01*
X216589539Y-131510072D01*
X216588334Y-131527683D01*
X216587711Y-131533252D01*
X216587709Y-131533436D01*
X216587855Y-131533794D01*
X216586309Y-131543724D01*
X216586918Y-131548380D01*
X216586807Y-131550000D01*
X216587130Y-131550000D01*
X216588187Y-131558084D01*
X216590436Y-131575283D01*
X216591500Y-131591620D01*
X216591500Y-135820633D01*
X216590000Y-135840018D01*
X216586309Y-135863724D01*
X216587130Y-135870000D01*
X216586807Y-135870000D01*
X216596791Y-136015967D01*
X216603506Y-136114124D01*
X216605558Y-136144130D01*
X216606431Y-136148332D01*
X216606432Y-136148338D01*
X216623022Y-136228171D01*
X216661462Y-136413153D01*
X216753477Y-136672058D01*
X216755452Y-136675869D01*
X216755453Y-136675872D01*
X216773945Y-136711560D01*
X216879889Y-136916023D01*
X217038343Y-137140502D01*
X217041281Y-137143648D01*
X217041282Y-137143649D01*
X217066085Y-137170206D01*
X217097963Y-137233643D01*
X217100000Y-137256208D01*
X217100000Y-144461567D01*
X217079998Y-144529688D01*
X217065640Y-144548043D01*
X217045209Y-144569694D01*
X216884400Y-144795476D01*
X216756064Y-145041172D01*
X216662624Y-145302143D01*
X216605844Y-145573460D01*
X216588709Y-145822262D01*
X216588333Y-145827716D01*
X216587709Y-145833281D01*
X216587690Y-145834857D01*
X216586309Y-145843724D01*
X216586912Y-145848339D01*
X216586798Y-145850000D01*
X216587130Y-145850000D01*
X216587472Y-145852616D01*
X216587472Y-145852619D01*
X216587491Y-145852766D01*
X216587562Y-145860771D01*
X216589056Y-145866107D01*
X216588275Y-145878619D01*
X216588081Y-145880342D01*
X216587742Y-145881149D01*
X216587760Y-145883189D01*
X216580766Y-145945263D01*
X216574487Y-145972771D01*
X216547515Y-146049853D01*
X216535273Y-146075274D01*
X216491822Y-146144426D01*
X216474230Y-146166485D01*
X216416485Y-146224230D01*
X216394426Y-146241822D01*
X216325274Y-146285273D01*
X216299853Y-146297515D01*
X216222772Y-146324487D01*
X216195264Y-146330766D01*
X216139774Y-146337018D01*
X216124132Y-146336923D01*
X216124121Y-146337800D01*
X216115149Y-146337690D01*
X216106276Y-146336309D01*
X216097374Y-146337473D01*
X216097372Y-146337473D01*
X216084152Y-146339202D01*
X216074714Y-146340436D01*
X216058379Y-146341500D01*
X204608623Y-146341500D01*
X204607853Y-146341498D01*
X204606543Y-146341490D01*
X204530279Y-146341024D01*
X204507918Y-146347415D01*
X204501847Y-146349150D01*
X204485085Y-146352728D01*
X204455813Y-146356920D01*
X204447645Y-146360634D01*
X204447644Y-146360634D01*
X204432438Y-146367548D01*
X204414914Y-146373996D01*
X204390229Y-146381051D01*
X204382635Y-146385843D01*
X204382632Y-146385844D01*
X204365220Y-146396830D01*
X204350137Y-146404969D01*
X204323218Y-146417208D01*
X204316416Y-146423069D01*
X204303765Y-146433970D01*
X204288761Y-146445073D01*
X204267042Y-146458776D01*
X204261103Y-146465501D01*
X204261099Y-146465504D01*
X204247468Y-146480938D01*
X204235276Y-146492982D01*
X204219673Y-146506427D01*
X204219671Y-146506430D01*
X204212873Y-146512287D01*
X204207993Y-146519816D01*
X204207992Y-146519817D01*
X204198906Y-146533835D01*
X204187615Y-146548709D01*
X204183237Y-146553667D01*
X204170622Y-146567951D01*
X204164736Y-146580488D01*
X204158058Y-146594711D01*
X204149737Y-146609691D01*
X204138529Y-146626983D01*
X204138527Y-146626988D01*
X204133648Y-146634515D01*
X204131078Y-146643108D01*
X204131076Y-146643113D01*
X204126289Y-146659120D01*
X204119628Y-146676564D01*
X204108719Y-146699800D01*
X204107338Y-146708667D01*
X204107338Y-146708668D01*
X204104170Y-146729015D01*
X204100386Y-146745736D01*
X204096088Y-146760106D01*
X204057405Y-146819638D01*
X203992676Y-146848806D01*
X203975372Y-146850000D01*
X200223941Y-146850000D01*
X200155820Y-146829998D01*
X200109327Y-146776342D01*
X200102794Y-146758634D01*
X200100850Y-146751834D01*
X200097270Y-146735063D01*
X200094354Y-146714704D01*
X200094353Y-146714699D01*
X200093080Y-146705813D01*
X200082442Y-146682416D01*
X200075997Y-146664899D01*
X200071403Y-146648829D01*
X200071401Y-146648824D01*
X200068934Y-146640195D01*
X200061263Y-146628038D01*
X200053165Y-146615206D01*
X200045024Y-146600119D01*
X200036508Y-146581391D01*
X200032792Y-146573218D01*
X200016017Y-146553749D01*
X200004918Y-146538752D01*
X199991200Y-146517013D01*
X199979212Y-146506427D01*
X199969050Y-146497453D01*
X199957000Y-146485256D01*
X199943571Y-146469671D01*
X199943569Y-146469669D01*
X199937713Y-146462873D01*
X199924009Y-146453990D01*
X199916146Y-146448893D01*
X199901279Y-146437609D01*
X199888747Y-146426543D01*
X199888748Y-146426543D01*
X199882018Y-146420601D01*
X199855275Y-146408048D01*
X199840284Y-146399722D01*
X199823020Y-146388532D01*
X199815485Y-146383648D01*
X199790854Y-146376282D01*
X199773421Y-146369625D01*
X199768997Y-146367548D01*
X199750164Y-146358708D01*
X199741296Y-146357328D01*
X199741293Y-146357327D01*
X199724147Y-146354659D01*
X199720971Y-146354165D01*
X199704251Y-146350383D01*
X199675934Y-146341914D01*
X199666958Y-146341859D01*
X199666957Y-146341859D01*
X199655146Y-146341787D01*
X199641492Y-146341704D01*
X199640688Y-146341670D01*
X199639577Y-146341497D01*
X199636553Y-146341497D01*
X199612107Y-146341499D01*
X199608499Y-146341499D01*
X199607741Y-146341497D01*
X199601048Y-146341456D01*
X199534254Y-146341048D01*
X199534250Y-146341048D01*
X199530279Y-146341024D01*
X199528921Y-146341412D01*
X199527560Y-146341505D01*
X195220708Y-146341819D01*
X185671629Y-146342515D01*
X185668643Y-146342323D01*
X185665740Y-146341518D01*
X185650760Y-146341726D01*
X185594331Y-146342509D01*
X185592592Y-146342521D01*
X185588550Y-146342521D01*
X185563427Y-146342523D01*
X185560805Y-146342898D01*
X185558172Y-146343010D01*
X185520096Y-146343539D01*
X185511521Y-146346176D01*
X185511517Y-146346177D01*
X185497900Y-146350365D01*
X185478731Y-146354659D01*
X185475225Y-146355161D01*
X185464643Y-146356677D01*
X185464641Y-146356678D01*
X185455754Y-146357951D01*
X185426595Y-146371212D01*
X185411490Y-146376942D01*
X185380874Y-146386358D01*
X185361485Y-146399140D01*
X185344309Y-146408631D01*
X185323163Y-146418248D01*
X185316364Y-146424107D01*
X185316358Y-146424111D01*
X185298898Y-146439158D01*
X185286007Y-146448899D01*
X185259266Y-146466529D01*
X185253460Y-146473374D01*
X185253458Y-146473376D01*
X185244252Y-146484230D01*
X185230413Y-146498178D01*
X185219623Y-146507476D01*
X185219621Y-146507479D01*
X185212825Y-146513335D01*
X185207945Y-146520865D01*
X185195402Y-146540218D01*
X185185757Y-146553193D01*
X185170851Y-146570767D01*
X185165047Y-146577610D01*
X185161398Y-146585805D01*
X185161397Y-146585806D01*
X185155604Y-146598815D01*
X185146238Y-146616082D01*
X185133609Y-146635569D01*
X185131038Y-146644168D01*
X185124432Y-146666262D01*
X185118818Y-146681419D01*
X185105792Y-146710670D01*
X185103310Y-146729015D01*
X185102680Y-146733671D01*
X185098540Y-146752862D01*
X185096381Y-146760085D01*
X185057708Y-146819624D01*
X184992985Y-146848803D01*
X184975659Y-146850000D01*
X181224505Y-146850000D01*
X181156384Y-146829998D01*
X181109891Y-146776342D01*
X181099261Y-146737786D01*
X181098502Y-146730892D01*
X181097520Y-146721969D01*
X181083634Y-146688579D01*
X181078837Y-146674860D01*
X181078562Y-146673899D01*
X181068896Y-146640111D01*
X181058710Y-146623976D01*
X181048915Y-146605099D01*
X181045032Y-146595762D01*
X181041587Y-146587478D01*
X181035956Y-146580494D01*
X181035952Y-146580488D01*
X181018892Y-146559331D01*
X181010433Y-146547504D01*
X181009902Y-146546662D01*
X180991140Y-146516944D01*
X180976830Y-146504312D01*
X180962134Y-146488944D01*
X180960871Y-146487377D01*
X180950157Y-146474091D01*
X180942788Y-146468966D01*
X180942785Y-146468963D01*
X180920478Y-146453449D01*
X180909035Y-146444468D01*
X180888668Y-146426489D01*
X180888667Y-146426489D01*
X180881941Y-146420551D01*
X180864661Y-146412443D01*
X180846254Y-146401826D01*
X180830577Y-146390923D01*
X180815415Y-146385844D01*
X180796302Y-146379442D01*
X180782803Y-146374036D01*
X180777234Y-146371423D01*
X180750076Y-146358681D01*
X180731227Y-146355751D01*
X180710560Y-146350722D01*
X180692462Y-146344660D01*
X180656342Y-146343261D01*
X180649157Y-146342565D01*
X180649153Y-146342613D01*
X180644300Y-146342239D01*
X180639486Y-146341490D01*
X180634614Y-146341491D01*
X180634612Y-146341491D01*
X180613292Y-146341496D01*
X180608386Y-146341402D01*
X180555882Y-146339368D01*
X180555879Y-146339368D01*
X180546913Y-146339021D01*
X180539117Y-146340977D01*
X180528699Y-146341518D01*
X178819218Y-146341948D01*
X169156415Y-146344381D01*
X169137001Y-146342880D01*
X169122254Y-146340583D01*
X169122248Y-146340583D01*
X169113379Y-146339202D01*
X169104354Y-146340382D01*
X169073919Y-146340654D01*
X169011842Y-146333660D01*
X168984336Y-146327382D01*
X168907248Y-146300408D01*
X168881832Y-146288169D01*
X168812675Y-146244714D01*
X168790620Y-146227125D01*
X168732875Y-146169380D01*
X168715286Y-146147325D01*
X168671831Y-146078168D01*
X168659592Y-146052752D01*
X168632618Y-145975664D01*
X168626339Y-145948156D01*
X168625550Y-145941147D01*
X168620088Y-145892673D01*
X168620755Y-145877040D01*
X168619306Y-145877022D01*
X168619416Y-145868049D01*
X168620798Y-145859173D01*
X168616658Y-145827511D01*
X168615595Y-145811217D01*
X168615486Y-145444669D01*
X176862001Y-145444669D01*
X176862371Y-145451490D01*
X176867895Y-145502352D01*
X176871521Y-145517604D01*
X176916676Y-145638054D01*
X176925214Y-145653649D01*
X177001715Y-145755724D01*
X177014276Y-145768285D01*
X177116351Y-145844786D01*
X177131946Y-145853324D01*
X177252394Y-145898478D01*
X177267649Y-145902105D01*
X177318514Y-145907631D01*
X177325328Y-145908000D01*
X177447885Y-145908000D01*
X177463124Y-145903525D01*
X177464329Y-145902135D01*
X177466000Y-145894452D01*
X177466000Y-145889884D01*
X177974000Y-145889884D01*
X177978475Y-145905123D01*
X177979865Y-145906328D01*
X177987548Y-145907999D01*
X178114669Y-145907999D01*
X178121490Y-145907629D01*
X178172352Y-145902105D01*
X178187604Y-145898479D01*
X178310058Y-145852573D01*
X178380866Y-145847390D01*
X178398518Y-145852573D01*
X178529684Y-145901745D01*
X178591866Y-145908500D01*
X179388134Y-145908500D01*
X179450316Y-145901745D01*
X179581482Y-145852573D01*
X179652290Y-145847390D01*
X179669942Y-145852573D01*
X179792394Y-145898478D01*
X179807649Y-145902105D01*
X179858514Y-145907631D01*
X179865328Y-145908000D01*
X179987885Y-145908000D01*
X180003124Y-145903525D01*
X180004329Y-145902135D01*
X180006000Y-145894452D01*
X180006000Y-144297064D01*
X180337707Y-144297064D01*
X180366825Y-144489599D01*
X180369028Y-144495585D01*
X180369029Y-144495591D01*
X180388328Y-144548043D01*
X180434063Y-144672346D01*
X180437431Y-144677778D01*
X180495086Y-144770766D01*
X180514000Y-144837162D01*
X180514000Y-145889884D01*
X180518475Y-145905123D01*
X180519865Y-145906328D01*
X180527548Y-145907999D01*
X180654669Y-145907999D01*
X180661490Y-145907629D01*
X180712352Y-145902105D01*
X180727604Y-145898479D01*
X180848054Y-145853324D01*
X180863649Y-145844786D01*
X180965724Y-145768285D01*
X180978285Y-145755724D01*
X181054786Y-145653649D01*
X181063324Y-145638054D01*
X181108478Y-145517606D01*
X181112105Y-145502351D01*
X181117631Y-145451486D01*
X181118000Y-145444672D01*
X181118000Y-145444669D01*
X190602001Y-145444669D01*
X190602371Y-145451490D01*
X190607895Y-145502352D01*
X190611521Y-145517604D01*
X190656676Y-145638054D01*
X190665214Y-145653649D01*
X190741715Y-145755724D01*
X190754276Y-145768285D01*
X190856351Y-145844786D01*
X190871946Y-145853324D01*
X190992394Y-145898478D01*
X191007649Y-145902105D01*
X191058514Y-145907631D01*
X191065328Y-145908000D01*
X191187885Y-145908000D01*
X191203124Y-145903525D01*
X191204329Y-145902135D01*
X191206000Y-145894452D01*
X191206000Y-144772115D01*
X191201525Y-144756876D01*
X191200135Y-144755671D01*
X191192452Y-144754000D01*
X190620116Y-144754000D01*
X190604877Y-144758475D01*
X190603672Y-144759865D01*
X190602001Y-144767548D01*
X190602001Y-145444669D01*
X181118000Y-145444669D01*
X181118000Y-145334500D01*
X181138002Y-145266379D01*
X181191658Y-145219886D01*
X181244000Y-145208500D01*
X181348663Y-145208500D01*
X181417951Y-145201462D01*
X181487378Y-145194410D01*
X181487379Y-145194410D01*
X181493727Y-145193765D01*
X181574843Y-145168345D01*
X181673451Y-145137444D01*
X181673456Y-145137442D01*
X181679541Y-145135535D01*
X181806974Y-145064897D01*
X181844271Y-145044223D01*
X181844274Y-145044221D01*
X181849850Y-145041130D01*
X181854691Y-145036981D01*
X181854695Y-145036978D01*
X181992855Y-144918560D01*
X181997698Y-144914409D01*
X182016467Y-144890213D01*
X182108073Y-144772115D01*
X182117046Y-144760547D01*
X182121112Y-144752285D01*
X182200200Y-144591556D01*
X182203018Y-144585829D01*
X182204628Y-144579649D01*
X182250492Y-144403575D01*
X182250492Y-144403572D01*
X182252102Y-144397393D01*
X182257360Y-144297064D01*
X183337707Y-144297064D01*
X183366825Y-144489599D01*
X183369028Y-144495585D01*
X183369029Y-144495591D01*
X183431860Y-144666360D01*
X183431862Y-144666365D01*
X183434063Y-144672346D01*
X183437425Y-144677768D01*
X183530037Y-144827135D01*
X183536674Y-144837840D01*
X183541055Y-144842473D01*
X183541056Y-144842474D01*
X183638909Y-144945951D01*
X183670466Y-144979322D01*
X183675696Y-144982984D01*
X183675697Y-144982985D01*
X183752808Y-145036978D01*
X183829975Y-145091011D01*
X183835838Y-145093548D01*
X184002825Y-145165810D01*
X184002829Y-145165811D01*
X184008684Y-145168345D01*
X184014931Y-145169650D01*
X184014934Y-145169651D01*
X184194557Y-145207176D01*
X184194562Y-145207177D01*
X184199293Y-145208165D01*
X184205685Y-145208500D01*
X184348663Y-145208500D01*
X184417951Y-145201462D01*
X184487378Y-145194410D01*
X184487379Y-145194410D01*
X184493727Y-145193765D01*
X184574843Y-145168345D01*
X184673451Y-145137444D01*
X184673456Y-145137442D01*
X184679541Y-145135535D01*
X184806974Y-145064897D01*
X184844271Y-145044223D01*
X184844274Y-145044221D01*
X184849850Y-145041130D01*
X184854691Y-145036981D01*
X184854695Y-145036978D01*
X184992855Y-144918560D01*
X184997698Y-144914409D01*
X185016467Y-144890213D01*
X185108073Y-144772115D01*
X185117046Y-144760547D01*
X185121112Y-144752285D01*
X185200200Y-144591556D01*
X185203018Y-144585829D01*
X185204628Y-144579649D01*
X185250492Y-144403575D01*
X185250492Y-144403572D01*
X185252102Y-144397393D01*
X185258988Y-144266002D01*
X185261959Y-144209317D01*
X185261959Y-144209313D01*
X185262293Y-144202936D01*
X185233175Y-144010401D01*
X185230972Y-144004415D01*
X185230971Y-144004409D01*
X185168140Y-143833640D01*
X185168138Y-143833635D01*
X185165937Y-143827654D01*
X185101923Y-143724410D01*
X185066688Y-143667582D01*
X185066687Y-143667581D01*
X185063326Y-143662160D01*
X184955815Y-143548469D01*
X184933919Y-143525315D01*
X184929534Y-143520678D01*
X184896490Y-143497540D01*
X184775259Y-143412654D01*
X184770025Y-143408989D01*
X184722013Y-143388212D01*
X184597175Y-143334190D01*
X184597171Y-143334189D01*
X184591316Y-143331655D01*
X184585069Y-143330350D01*
X184585066Y-143330349D01*
X184405443Y-143292824D01*
X184405438Y-143292823D01*
X184400707Y-143291835D01*
X184394315Y-143291500D01*
X184251337Y-143291500D01*
X184236186Y-143293039D01*
X184112622Y-143305590D01*
X184112621Y-143305590D01*
X184106273Y-143306235D01*
X184049939Y-143323889D01*
X183926549Y-143362556D01*
X183926544Y-143362558D01*
X183920459Y-143364465D01*
X183844713Y-143406452D01*
X183755729Y-143455777D01*
X183755726Y-143455779D01*
X183750150Y-143458870D01*
X183745309Y-143463019D01*
X183745305Y-143463022D01*
X183637663Y-143555283D01*
X183602302Y-143585591D01*
X183598391Y-143590633D01*
X183598390Y-143590634D01*
X183563429Y-143635706D01*
X183482954Y-143739453D01*
X183480138Y-143745176D01*
X183480136Y-143745179D01*
X183433833Y-143839280D01*
X183396982Y-143914171D01*
X183395373Y-143920349D01*
X183395372Y-143920351D01*
X183370893Y-144014329D01*
X183347898Y-144102607D01*
X183347564Y-144108986D01*
X183339579Y-144261351D01*
X183337707Y-144297064D01*
X182257360Y-144297064D01*
X182258988Y-144266002D01*
X182261959Y-144209317D01*
X182261959Y-144209313D01*
X182262293Y-144202936D01*
X182233175Y-144010401D01*
X182230972Y-144004415D01*
X182230971Y-144004409D01*
X182168140Y-143833640D01*
X182168138Y-143833635D01*
X182165937Y-143827654D01*
X182101923Y-143724410D01*
X182066688Y-143667582D01*
X182066687Y-143667581D01*
X182063326Y-143662160D01*
X181955815Y-143548469D01*
X181933919Y-143525315D01*
X181929534Y-143520678D01*
X181896490Y-143497540D01*
X181775259Y-143412654D01*
X181770025Y-143408989D01*
X181722013Y-143388212D01*
X181597175Y-143334190D01*
X181597171Y-143334189D01*
X181591316Y-143331655D01*
X181585069Y-143330350D01*
X181585066Y-143330349D01*
X181405443Y-143292824D01*
X181405438Y-143292823D01*
X181400707Y-143291835D01*
X181394315Y-143291500D01*
X181251337Y-143291500D01*
X181106273Y-143306235D01*
X181106104Y-143304571D01*
X181043518Y-143299352D01*
X180988114Y-143257390D01*
X180978288Y-143244279D01*
X180965721Y-143231712D01*
X180863649Y-143155214D01*
X180848054Y-143146676D01*
X180727606Y-143101522D01*
X180712351Y-143097895D01*
X180661486Y-143092369D01*
X180654672Y-143092000D01*
X180532115Y-143092000D01*
X180516876Y-143096475D01*
X180515671Y-143097865D01*
X180514000Y-143105548D01*
X180514000Y-143656289D01*
X180493998Y-143724410D01*
X180487561Y-143733513D01*
X180486869Y-143734405D01*
X180486866Y-143734409D01*
X180482954Y-143739453D01*
X180480138Y-143745176D01*
X180480136Y-143745179D01*
X180433833Y-143839280D01*
X180396982Y-143914171D01*
X180395373Y-143920349D01*
X180395372Y-143920351D01*
X180370893Y-144014329D01*
X180347898Y-144102607D01*
X180347564Y-144108986D01*
X180339579Y-144261351D01*
X180337707Y-144297064D01*
X180006000Y-144297064D01*
X180006000Y-143110116D01*
X180001525Y-143094877D01*
X180000135Y-143093672D01*
X179992452Y-143092001D01*
X179865331Y-143092001D01*
X179858510Y-143092371D01*
X179807648Y-143097895D01*
X179792396Y-143101521D01*
X179669942Y-143147427D01*
X179599134Y-143152610D01*
X179581482Y-143147427D01*
X179568254Y-143142468D01*
X179450316Y-143098255D01*
X179388134Y-143091500D01*
X178591866Y-143091500D01*
X178529684Y-143098255D01*
X178411746Y-143142468D01*
X178398518Y-143147427D01*
X178327710Y-143152610D01*
X178310058Y-143147427D01*
X178187606Y-143101522D01*
X178172351Y-143097895D01*
X178121486Y-143092369D01*
X178114672Y-143092000D01*
X177992115Y-143092000D01*
X177976876Y-143096475D01*
X177975671Y-143097865D01*
X177974000Y-143105548D01*
X177974000Y-145889884D01*
X177466000Y-145889884D01*
X177466000Y-144772115D01*
X177461525Y-144756876D01*
X177460135Y-144755671D01*
X177452452Y-144754000D01*
X176880116Y-144754000D01*
X176864877Y-144758475D01*
X176863672Y-144759865D01*
X176862001Y-144767548D01*
X176862001Y-145444669D01*
X168615486Y-145444669D01*
X168615126Y-144227885D01*
X176862000Y-144227885D01*
X176866475Y-144243124D01*
X176867865Y-144244329D01*
X176875548Y-144246000D01*
X177447885Y-144246000D01*
X177463124Y-144241525D01*
X177464329Y-144240135D01*
X177466000Y-144232452D01*
X177466000Y-143110116D01*
X177461525Y-143094877D01*
X177460135Y-143093672D01*
X177452452Y-143092001D01*
X177325331Y-143092001D01*
X177318510Y-143092371D01*
X177267648Y-143097895D01*
X177252396Y-143101521D01*
X177131946Y-143146676D01*
X177116351Y-143155214D01*
X177014276Y-143231715D01*
X177001715Y-143244276D01*
X176925214Y-143346351D01*
X176916676Y-143361946D01*
X176871522Y-143482394D01*
X176867895Y-143497649D01*
X176862369Y-143548514D01*
X176862000Y-143555328D01*
X176862000Y-144227885D01*
X168615126Y-144227885D01*
X168614348Y-141600000D01*
X174836496Y-141600000D01*
X174837186Y-141606565D01*
X174853686Y-141763550D01*
X174856458Y-141789928D01*
X174915473Y-141971556D01*
X174918776Y-141977278D01*
X174918777Y-141977279D01*
X174942498Y-142018365D01*
X175010960Y-142136944D01*
X175138747Y-142278866D01*
X175293248Y-142391118D01*
X175299276Y-142393802D01*
X175299278Y-142393803D01*
X175461681Y-142466109D01*
X175467712Y-142468794D01*
X175561113Y-142488647D01*
X175648056Y-142507128D01*
X175648061Y-142507128D01*
X175654513Y-142508500D01*
X175845487Y-142508500D01*
X175851939Y-142507128D01*
X175851944Y-142507128D01*
X175938887Y-142488647D01*
X176032288Y-142468794D01*
X176038319Y-142466109D01*
X176200722Y-142393803D01*
X176200724Y-142393802D01*
X176206752Y-142391118D01*
X176361253Y-142278866D01*
X176489040Y-142136944D01*
X176557502Y-142018365D01*
X176581223Y-141977279D01*
X176581224Y-141977278D01*
X176584527Y-141971556D01*
X176643542Y-141789928D01*
X176646315Y-141763550D01*
X176662814Y-141606565D01*
X176663504Y-141600000D01*
X176651984Y-141490393D01*
X176644232Y-141416635D01*
X176644232Y-141416633D01*
X176643542Y-141410072D01*
X176584527Y-141228444D01*
X176572055Y-141206841D01*
X176535150Y-141142920D01*
X176489040Y-141063056D01*
X176480701Y-141053794D01*
X176365675Y-140926045D01*
X176365674Y-140926044D01*
X176361253Y-140921134D01*
X176206752Y-140808882D01*
X176200724Y-140806198D01*
X176200722Y-140806197D01*
X176038319Y-140733891D01*
X176038318Y-140733891D01*
X176032288Y-140731206D01*
X175938888Y-140711353D01*
X175851944Y-140692872D01*
X175851939Y-140692872D01*
X175845487Y-140691500D01*
X175654513Y-140691500D01*
X175648061Y-140692872D01*
X175648056Y-140692872D01*
X175561112Y-140711353D01*
X175467712Y-140731206D01*
X175461682Y-140733891D01*
X175461681Y-140733891D01*
X175299278Y-140806197D01*
X175299276Y-140806198D01*
X175293248Y-140808882D01*
X175138747Y-140921134D01*
X175134326Y-140926044D01*
X175134325Y-140926045D01*
X175019300Y-141053794D01*
X175010960Y-141063056D01*
X174964850Y-141142920D01*
X174927946Y-141206841D01*
X174915473Y-141228444D01*
X174856458Y-141410072D01*
X174855768Y-141416633D01*
X174855768Y-141416635D01*
X174848016Y-141490393D01*
X174836496Y-141600000D01*
X168614348Y-141600000D01*
X168614103Y-140772095D01*
X169892001Y-140772095D01*
X169892338Y-140778614D01*
X169902257Y-140874206D01*
X169905149Y-140887600D01*
X169956588Y-141041784D01*
X169962761Y-141054962D01*
X170048063Y-141192807D01*
X170057099Y-141204208D01*
X170171829Y-141318739D01*
X170183240Y-141327751D01*
X170321243Y-141412816D01*
X170334424Y-141418963D01*
X170488710Y-141470138D01*
X170502086Y-141473005D01*
X170596438Y-141482672D01*
X170602854Y-141483000D01*
X170727885Y-141483000D01*
X170743124Y-141478525D01*
X170744329Y-141477135D01*
X170746000Y-141469452D01*
X170746000Y-141464884D01*
X171254000Y-141464884D01*
X171258475Y-141480123D01*
X171259865Y-141481328D01*
X171267548Y-141482999D01*
X171397095Y-141482999D01*
X171403614Y-141482662D01*
X171499206Y-141472743D01*
X171512600Y-141469851D01*
X171666784Y-141418412D01*
X171679962Y-141412239D01*
X171817807Y-141326937D01*
X171829208Y-141317901D01*
X171943739Y-141203171D01*
X171952751Y-141191760D01*
X171980745Y-141146345D01*
X172033517Y-141098852D01*
X172103589Y-141087428D01*
X172168713Y-141115702D01*
X172187088Y-141134625D01*
X172193604Y-141142920D01*
X172198135Y-141146852D01*
X172198138Y-141146855D01*
X172299404Y-141234729D01*
X172353363Y-141281552D01*
X172358549Y-141284552D01*
X172358553Y-141284555D01*
X172501985Y-141367532D01*
X172536454Y-141387473D01*
X172736271Y-141456861D01*
X172742206Y-141457722D01*
X172742208Y-141457722D01*
X172939664Y-141486352D01*
X172939667Y-141486352D01*
X172945604Y-141487213D01*
X173156899Y-141477433D01*
X173312522Y-141439928D01*
X173356701Y-141429281D01*
X173356703Y-141429280D01*
X173362534Y-141427875D01*
X173367992Y-141425393D01*
X173367996Y-141425392D01*
X173497518Y-141366501D01*
X173555087Y-141340326D01*
X173717582Y-141225060D01*
X173722725Y-141221412D01*
X173722726Y-141221411D01*
X173727611Y-141217946D01*
X173873881Y-141065150D01*
X173988620Y-140887452D01*
X174035110Y-140772095D01*
X174065442Y-140696832D01*
X174065443Y-140696829D01*
X174067686Y-140691263D01*
X174108228Y-140483663D01*
X174108500Y-140478101D01*
X174108500Y-139772154D01*
X174093452Y-139614434D01*
X174033908Y-139411466D01*
X174004113Y-139353616D01*
X173939804Y-139228751D01*
X173939802Y-139228748D01*
X173937058Y-139223420D01*
X173806396Y-139057080D01*
X173801865Y-139053148D01*
X173801862Y-139053145D01*
X173651167Y-138922379D01*
X173646637Y-138918448D01*
X173641451Y-138915448D01*
X173641447Y-138915445D01*
X173468742Y-138815533D01*
X173463546Y-138812527D01*
X173263729Y-138743139D01*
X173257794Y-138742278D01*
X173257792Y-138742278D01*
X173060336Y-138713648D01*
X173060333Y-138713648D01*
X173054396Y-138712787D01*
X172843101Y-138722567D01*
X172712831Y-138753962D01*
X172643299Y-138770719D01*
X172643297Y-138770720D01*
X172637466Y-138772125D01*
X172632008Y-138774607D01*
X172632004Y-138774608D01*
X172529677Y-138821134D01*
X172444913Y-138859674D01*
X172272389Y-138982054D01*
X172268251Y-138986377D01*
X172268246Y-138986381D01*
X172180836Y-139077691D01*
X172119280Y-139113067D01*
X172048371Y-139109548D01*
X171990621Y-139068251D01*
X171982674Y-139056863D01*
X171951937Y-139007193D01*
X171942901Y-138995792D01*
X171828171Y-138881261D01*
X171816760Y-138872249D01*
X171678757Y-138787184D01*
X171665576Y-138781037D01*
X171511290Y-138729862D01*
X171497914Y-138726995D01*
X171403562Y-138717328D01*
X171397145Y-138717000D01*
X171272115Y-138717000D01*
X171256876Y-138721475D01*
X171255671Y-138722865D01*
X171254000Y-138730548D01*
X171254000Y-141464884D01*
X170746000Y-141464884D01*
X170746000Y-140372115D01*
X170741525Y-140356876D01*
X170740135Y-140355671D01*
X170732452Y-140354000D01*
X169910116Y-140354000D01*
X169894877Y-140358475D01*
X169893672Y-140359865D01*
X169892001Y-140367548D01*
X169892001Y-140772095D01*
X168614103Y-140772095D01*
X168613823Y-139827885D01*
X169892000Y-139827885D01*
X169896475Y-139843124D01*
X169897865Y-139844329D01*
X169905548Y-139846000D01*
X170727885Y-139846000D01*
X170743124Y-139841525D01*
X170744329Y-139840135D01*
X170746000Y-139832452D01*
X170746000Y-138735116D01*
X170741525Y-138719877D01*
X170740135Y-138718672D01*
X170732452Y-138717001D01*
X170602905Y-138717001D01*
X170596386Y-138717338D01*
X170500794Y-138727257D01*
X170487400Y-138730149D01*
X170333216Y-138781588D01*
X170320038Y-138787761D01*
X170182193Y-138873063D01*
X170170792Y-138882099D01*
X170056261Y-138996829D01*
X170047249Y-139008240D01*
X169962184Y-139146243D01*
X169956037Y-139159424D01*
X169904862Y-139313710D01*
X169901995Y-139327086D01*
X169892328Y-139421438D01*
X169892000Y-139427855D01*
X169892000Y-139827885D01*
X168613823Y-139827885D01*
X168613496Y-138722567D01*
X168612075Y-133926036D01*
X168632057Y-133857911D01*
X168685699Y-133811402D01*
X168738075Y-133800000D01*
X171087261Y-133800000D01*
X171155382Y-133820002D01*
X171176356Y-133836905D01*
X176185685Y-138846234D01*
X176196552Y-138858625D01*
X176216013Y-138883987D01*
X176222563Y-138889013D01*
X176247921Y-138908471D01*
X176247937Y-138908485D01*
X176296002Y-138945366D01*
X176343124Y-138981524D01*
X176491149Y-139042838D01*
X176650000Y-139063751D01*
X176681699Y-139059578D01*
X176698144Y-139058500D01*
X179947692Y-139058500D01*
X180015813Y-139078502D01*
X180062306Y-139132158D01*
X180072410Y-139202432D01*
X180042916Y-139267012D01*
X180039184Y-139270817D01*
X180038747Y-139271134D01*
X179910960Y-139413056D01*
X179815473Y-139578444D01*
X179756458Y-139760072D01*
X179755768Y-139766633D01*
X179755768Y-139766635D01*
X179740327Y-139913552D01*
X179736496Y-139950000D01*
X179737186Y-139956565D01*
X179754679Y-140122998D01*
X179756458Y-140139928D01*
X179815473Y-140321556D01*
X179818776Y-140327278D01*
X179818777Y-140327279D01*
X179842746Y-140368794D01*
X179910960Y-140486944D01*
X179915378Y-140491851D01*
X179915379Y-140491852D01*
X180034325Y-140623955D01*
X180038747Y-140628866D01*
X180193248Y-140741118D01*
X180199276Y-140743802D01*
X180199278Y-140743803D01*
X180345449Y-140808882D01*
X180367712Y-140818794D01*
X180461113Y-140838647D01*
X180548056Y-140857128D01*
X180548061Y-140857128D01*
X180554513Y-140858500D01*
X180745487Y-140858500D01*
X180751939Y-140857128D01*
X180751944Y-140857128D01*
X180838887Y-140838647D01*
X180932288Y-140818794D01*
X180970385Y-140801832D01*
X181040752Y-140792398D01*
X181105049Y-140822504D01*
X181110729Y-140827844D01*
X183096344Y-142813459D01*
X183102198Y-142819724D01*
X183138790Y-142861670D01*
X183189152Y-142897066D01*
X183194412Y-142900972D01*
X183242829Y-142938935D01*
X183249754Y-142942062D01*
X183254082Y-142944683D01*
X183263483Y-142950046D01*
X183267925Y-142952428D01*
X183274139Y-142956795D01*
X183281214Y-142959554D01*
X183281217Y-142959555D01*
X183331456Y-142979142D01*
X183337537Y-142981698D01*
X183340598Y-142983080D01*
X183393605Y-143007014D01*
X183401077Y-143008399D01*
X183405878Y-143009903D01*
X183416318Y-143012878D01*
X183421198Y-143014131D01*
X183428272Y-143016889D01*
X183435803Y-143017881D01*
X183435805Y-143017881D01*
X183489277Y-143024921D01*
X183495790Y-143025953D01*
X183548799Y-143035777D01*
X183548801Y-143035777D01*
X183556268Y-143037161D01*
X183563849Y-143036724D01*
X183563850Y-143036724D01*
X183616143Y-143033709D01*
X183623395Y-143033500D01*
X190648301Y-143033500D01*
X190716422Y-143053502D01*
X190762915Y-143107158D01*
X190773019Y-143177432D01*
X190746108Y-143236356D01*
X190747096Y-143237096D01*
X190743702Y-143241625D01*
X190743525Y-143242012D01*
X190742944Y-143242636D01*
X190665214Y-143346351D01*
X190656676Y-143361946D01*
X190611522Y-143482394D01*
X190607895Y-143497649D01*
X190602369Y-143548514D01*
X190602000Y-143555328D01*
X190602000Y-144227885D01*
X190606475Y-144243124D01*
X190607865Y-144244329D01*
X190615548Y-144246000D01*
X191588000Y-144246000D01*
X191656121Y-144266002D01*
X191702614Y-144319658D01*
X191714000Y-144372000D01*
X191714000Y-145889884D01*
X191718475Y-145905123D01*
X191719865Y-145906328D01*
X191727548Y-145907999D01*
X191854669Y-145907999D01*
X191861490Y-145907629D01*
X191912352Y-145902105D01*
X191927604Y-145898479D01*
X192050058Y-145852573D01*
X192120866Y-145847390D01*
X192138518Y-145852573D01*
X192269684Y-145901745D01*
X192331866Y-145908500D01*
X193128134Y-145908500D01*
X193190316Y-145901745D01*
X193197712Y-145898973D01*
X193197718Y-145898971D01*
X193320771Y-145852840D01*
X193391578Y-145847657D01*
X193409229Y-145852840D01*
X193532282Y-145898971D01*
X193532288Y-145898973D01*
X193539684Y-145901745D01*
X193601866Y-145908500D01*
X194398134Y-145908500D01*
X194460316Y-145901745D01*
X194467712Y-145898973D01*
X194467718Y-145898971D01*
X194590771Y-145852840D01*
X194661578Y-145847657D01*
X194679229Y-145852840D01*
X194802282Y-145898971D01*
X194802288Y-145898973D01*
X194809684Y-145901745D01*
X194871866Y-145908500D01*
X195668134Y-145908500D01*
X195730316Y-145901745D01*
X195737712Y-145898973D01*
X195737718Y-145898971D01*
X195860771Y-145852840D01*
X195931578Y-145847657D01*
X195949229Y-145852840D01*
X196072282Y-145898971D01*
X196072288Y-145898973D01*
X196079684Y-145901745D01*
X196141866Y-145908500D01*
X196938134Y-145908500D01*
X197000316Y-145901745D01*
X197007712Y-145898973D01*
X197007718Y-145898971D01*
X197130771Y-145852840D01*
X197201578Y-145847657D01*
X197219229Y-145852840D01*
X197342282Y-145898971D01*
X197342288Y-145898973D01*
X197349684Y-145901745D01*
X197411866Y-145908500D01*
X198208134Y-145908500D01*
X198270316Y-145901745D01*
X198401482Y-145852573D01*
X198472290Y-145847390D01*
X198489942Y-145852573D01*
X198612394Y-145898478D01*
X198627649Y-145902105D01*
X198678514Y-145907631D01*
X198685328Y-145908000D01*
X198807885Y-145908000D01*
X198823124Y-145903525D01*
X198824329Y-145902135D01*
X198826000Y-145894452D01*
X198826000Y-144372000D01*
X198846002Y-144303879D01*
X198899658Y-144257386D01*
X198952000Y-144246000D01*
X199208000Y-144246000D01*
X199276121Y-144266002D01*
X199322614Y-144319658D01*
X199334000Y-144372000D01*
X199334000Y-145889884D01*
X199338475Y-145905123D01*
X199339865Y-145906328D01*
X199347548Y-145907999D01*
X199474669Y-145907999D01*
X199481490Y-145907629D01*
X199532352Y-145902105D01*
X199547604Y-145898479D01*
X199670058Y-145852573D01*
X199740866Y-145847390D01*
X199758518Y-145852573D01*
X199889684Y-145901745D01*
X199951866Y-145908500D01*
X200748134Y-145908500D01*
X200810316Y-145901745D01*
X200946705Y-145850615D01*
X200977526Y-145827516D01*
X200984537Y-145822262D01*
X201051044Y-145797415D01*
X201120426Y-145812469D01*
X201171557Y-145864323D01*
X201234075Y-145982898D01*
X201238480Y-145988111D01*
X201238483Y-145988115D01*
X201350064Y-146120153D01*
X201350068Y-146120157D01*
X201354471Y-146125367D01*
X201359895Y-146129514D01*
X201359896Y-146129515D01*
X201497231Y-146234516D01*
X201497235Y-146234519D01*
X201502652Y-146238660D01*
X201671704Y-146317490D01*
X201853740Y-146358180D01*
X201859463Y-146358500D01*
X201996596Y-146358500D01*
X202135437Y-146343417D01*
X202312223Y-146283922D01*
X202472109Y-146187853D01*
X202607636Y-146059692D01*
X202641456Y-146009927D01*
X202696393Y-145929090D01*
X202751226Y-145883991D01*
X202821736Y-145875697D01*
X202885538Y-145906840D01*
X202912062Y-145941147D01*
X202934075Y-145982898D01*
X202938480Y-145988111D01*
X202938483Y-145988115D01*
X203050064Y-146120153D01*
X203050068Y-146120157D01*
X203054471Y-146125367D01*
X203059895Y-146129514D01*
X203059896Y-146129515D01*
X203197231Y-146234516D01*
X203197235Y-146234519D01*
X203202652Y-146238660D01*
X203371704Y-146317490D01*
X203553740Y-146358180D01*
X203559463Y-146358500D01*
X203696596Y-146358500D01*
X203835437Y-146343417D01*
X204012223Y-146283922D01*
X204172109Y-146187853D01*
X204307636Y-146059692D01*
X204341456Y-146009927D01*
X204408646Y-145911060D01*
X204408647Y-145911058D01*
X204412480Y-145905418D01*
X204415256Y-145898479D01*
X204479215Y-145738570D01*
X204479216Y-145738568D01*
X204481751Y-145732229D01*
X204503508Y-145600804D01*
X204511101Y-145554942D01*
X204511101Y-145554939D01*
X204512216Y-145548205D01*
X204510759Y-145520393D01*
X204502810Y-145368746D01*
X204502453Y-145361933D01*
X204456310Y-145194410D01*
X204454733Y-145188684D01*
X204452920Y-145182102D01*
X204365925Y-145017102D01*
X204361520Y-145011889D01*
X204361517Y-145011885D01*
X204249936Y-144879847D01*
X204249932Y-144879843D01*
X204245529Y-144874633D01*
X204227179Y-144860603D01*
X204102769Y-144765484D01*
X204102765Y-144765481D01*
X204097348Y-144761340D01*
X204001525Y-144716657D01*
X205372000Y-144716657D01*
X205372301Y-144722805D01*
X205385812Y-144860603D01*
X205388195Y-144872638D01*
X205441767Y-145050076D01*
X205446441Y-145061416D01*
X205533460Y-145225077D01*
X205540249Y-145235294D01*
X205657397Y-145378933D01*
X205666041Y-145387637D01*
X205808856Y-145505784D01*
X205819027Y-145512644D01*
X205982076Y-145600804D01*
X205993381Y-145605556D01*
X206108692Y-145641250D01*
X206122795Y-145641456D01*
X206126000Y-145634701D01*
X206126000Y-145627924D01*
X206634000Y-145627924D01*
X206637973Y-145641455D01*
X206645768Y-145642575D01*
X206753521Y-145610862D01*
X206764889Y-145606269D01*
X206929154Y-145520393D01*
X206939415Y-145513679D01*
X207083873Y-145397532D01*
X207092632Y-145388954D01*
X207211778Y-145246961D01*
X207218708Y-145236841D01*
X207308002Y-145074415D01*
X207312834Y-145063142D01*
X207368880Y-144886462D01*
X207371430Y-144874468D01*
X207387607Y-144730239D01*
X207388000Y-144723215D01*
X207388000Y-144542115D01*
X207383525Y-144526876D01*
X207382135Y-144525671D01*
X207374452Y-144524000D01*
X206652115Y-144524000D01*
X206636876Y-144528475D01*
X206635671Y-144529865D01*
X206634000Y-144537548D01*
X206634000Y-145627924D01*
X206126000Y-145627924D01*
X206126000Y-144542115D01*
X206121525Y-144526876D01*
X206120135Y-144525671D01*
X206112452Y-144524000D01*
X205390115Y-144524000D01*
X205374876Y-144528475D01*
X205373671Y-144529865D01*
X205372000Y-144537548D01*
X205372000Y-144716657D01*
X204001525Y-144716657D01*
X203928296Y-144682510D01*
X203746260Y-144641820D01*
X203740537Y-144641500D01*
X203603404Y-144641500D01*
X203464563Y-144656583D01*
X203287777Y-144716078D01*
X203127891Y-144812147D01*
X202992364Y-144940308D01*
X202988529Y-144945951D01*
X202903607Y-145070910D01*
X202848774Y-145116009D01*
X202778264Y-145124303D01*
X202714462Y-145093160D01*
X202687938Y-145058853D01*
X202683310Y-145050076D01*
X202665925Y-145017102D01*
X202661520Y-145011889D01*
X202661517Y-145011885D01*
X202549936Y-144879847D01*
X202549932Y-144879843D01*
X202545529Y-144874633D01*
X202527179Y-144860603D01*
X202402769Y-144765484D01*
X202402765Y-144765481D01*
X202397348Y-144761340D01*
X202228296Y-144682510D01*
X202046260Y-144641820D01*
X202040537Y-144641500D01*
X201903404Y-144641500D01*
X201764563Y-144656583D01*
X201587777Y-144716078D01*
X201427891Y-144812147D01*
X201422935Y-144816834D01*
X201422934Y-144816835D01*
X201421070Y-144818597D01*
X201419672Y-144819310D01*
X201417496Y-144820962D01*
X201417200Y-144820572D01*
X201357831Y-144850866D01*
X201287184Y-144843823D01*
X201231560Y-144799704D01*
X201208500Y-144727045D01*
X201208500Y-144189294D01*
X208487709Y-144189294D01*
X208493132Y-144248315D01*
X208495743Y-144261351D01*
X208542715Y-144411243D01*
X208548921Y-144424988D01*
X208629824Y-144558574D01*
X208639131Y-144570443D01*
X208749557Y-144680869D01*
X208761426Y-144690176D01*
X208895012Y-144771079D01*
X208908757Y-144777285D01*
X209058644Y-144824256D01*
X209071694Y-144826869D01*
X209135521Y-144832734D01*
X209141309Y-144833000D01*
X209197885Y-144833000D01*
X209213124Y-144828525D01*
X209214329Y-144827135D01*
X209216000Y-144819452D01*
X209216000Y-144814884D01*
X209724000Y-144814884D01*
X209728475Y-144830123D01*
X209729865Y-144831328D01*
X209737548Y-144832999D01*
X209798705Y-144832999D01*
X209804454Y-144832736D01*
X209868315Y-144826868D01*
X209881351Y-144824257D01*
X210031243Y-144777285D01*
X210044988Y-144771079D01*
X210178574Y-144690176D01*
X210190443Y-144680869D01*
X210300869Y-144570443D01*
X210310176Y-144558574D01*
X210391079Y-144424988D01*
X210397285Y-144411243D01*
X210444256Y-144261356D01*
X210446869Y-144248306D01*
X210451913Y-144193414D01*
X210448525Y-144181876D01*
X210447135Y-144180671D01*
X210439452Y-144179000D01*
X209742115Y-144179000D01*
X209726876Y-144183475D01*
X209725671Y-144184865D01*
X209724000Y-144192548D01*
X209724000Y-144814884D01*
X209216000Y-144814884D01*
X209216000Y-144197115D01*
X209211525Y-144181876D01*
X209210135Y-144180671D01*
X209202452Y-144179000D01*
X208505116Y-144179000D01*
X208489877Y-144183475D01*
X208488672Y-144184865D01*
X208487709Y-144189294D01*
X201208500Y-144189294D01*
X201208500Y-144164294D01*
X211417709Y-144164294D01*
X211423132Y-144223315D01*
X211425743Y-144236351D01*
X211472715Y-144386243D01*
X211478921Y-144399988D01*
X211559824Y-144533574D01*
X211569131Y-144545443D01*
X211679557Y-144655869D01*
X211691426Y-144665176D01*
X211825012Y-144746079D01*
X211838757Y-144752285D01*
X211988644Y-144799256D01*
X212001694Y-144801869D01*
X212065521Y-144807734D01*
X212071309Y-144808000D01*
X212127885Y-144808000D01*
X212143124Y-144803525D01*
X212144329Y-144802135D01*
X212146000Y-144794452D01*
X212146000Y-144789884D01*
X212654000Y-144789884D01*
X212658475Y-144805123D01*
X212659865Y-144806328D01*
X212667548Y-144807999D01*
X212728705Y-144807999D01*
X212734454Y-144807736D01*
X212798315Y-144801868D01*
X212811351Y-144799257D01*
X212961243Y-144752285D01*
X212974988Y-144746079D01*
X213023569Y-144716657D01*
X214012000Y-144716657D01*
X214012301Y-144722805D01*
X214025812Y-144860603D01*
X214028195Y-144872638D01*
X214081767Y-145050076D01*
X214086441Y-145061416D01*
X214173460Y-145225077D01*
X214180249Y-145235294D01*
X214297397Y-145378933D01*
X214306041Y-145387637D01*
X214448856Y-145505784D01*
X214459027Y-145512644D01*
X214622076Y-145600804D01*
X214633381Y-145605556D01*
X214748692Y-145641250D01*
X214762795Y-145641456D01*
X214766000Y-145634701D01*
X214766000Y-145627924D01*
X215274000Y-145627924D01*
X215277973Y-145641455D01*
X215285768Y-145642575D01*
X215393521Y-145610862D01*
X215404889Y-145606269D01*
X215569154Y-145520393D01*
X215579415Y-145513679D01*
X215723873Y-145397532D01*
X215732632Y-145388954D01*
X215851778Y-145246961D01*
X215858708Y-145236841D01*
X215948002Y-145074415D01*
X215952834Y-145063142D01*
X216008880Y-144886462D01*
X216011430Y-144874468D01*
X216027607Y-144730239D01*
X216028000Y-144723215D01*
X216028000Y-144542115D01*
X216023525Y-144526876D01*
X216022135Y-144525671D01*
X216014452Y-144524000D01*
X215292115Y-144524000D01*
X215276876Y-144528475D01*
X215275671Y-144529865D01*
X215274000Y-144537548D01*
X215274000Y-145627924D01*
X214766000Y-145627924D01*
X214766000Y-144542115D01*
X214761525Y-144526876D01*
X214760135Y-144525671D01*
X214752452Y-144524000D01*
X214030115Y-144524000D01*
X214014876Y-144528475D01*
X214013671Y-144529865D01*
X214012000Y-144537548D01*
X214012000Y-144716657D01*
X213023569Y-144716657D01*
X213108574Y-144665176D01*
X213120443Y-144655869D01*
X213230869Y-144545443D01*
X213240176Y-144533574D01*
X213321079Y-144399988D01*
X213327285Y-144386243D01*
X213374256Y-144236356D01*
X213376869Y-144223306D01*
X213381913Y-144168414D01*
X213378525Y-144156876D01*
X213377135Y-144155671D01*
X213369452Y-144154000D01*
X212672115Y-144154000D01*
X212656876Y-144158475D01*
X212655671Y-144159865D01*
X212654000Y-144167548D01*
X212654000Y-144789884D01*
X212146000Y-144789884D01*
X212146000Y-144172115D01*
X212141525Y-144156876D01*
X212140135Y-144155671D01*
X212132452Y-144154000D01*
X211435116Y-144154000D01*
X211419877Y-144158475D01*
X211418672Y-144159865D01*
X211417709Y-144164294D01*
X201208500Y-144164294D01*
X201208500Y-143551866D01*
X201201745Y-143489684D01*
X201150615Y-143353295D01*
X201063261Y-143236739D01*
X201065803Y-143234834D01*
X201039292Y-143186283D01*
X201044357Y-143115468D01*
X201086904Y-143058632D01*
X201153424Y-143033821D01*
X201162413Y-143033500D01*
X205495792Y-143033500D01*
X205563913Y-143053502D01*
X205610406Y-143107158D01*
X205620510Y-143177432D01*
X205592314Y-143240491D01*
X205548222Y-143293039D01*
X205541292Y-143303159D01*
X205451998Y-143465585D01*
X205447166Y-143476858D01*
X205391120Y-143653538D01*
X205388570Y-143665532D01*
X205372393Y-143809761D01*
X205372000Y-143816785D01*
X205372000Y-143997885D01*
X205376475Y-144013124D01*
X205377865Y-144014329D01*
X205385548Y-144016000D01*
X207369885Y-144016000D01*
X207385124Y-144011525D01*
X207386329Y-144010135D01*
X207388000Y-144002452D01*
X207388000Y-143997885D01*
X214012000Y-143997885D01*
X214016475Y-144013124D01*
X214017865Y-144014329D01*
X214025548Y-144016000D01*
X214747885Y-144016000D01*
X214763124Y-144011525D01*
X214764329Y-144010135D01*
X214766000Y-144002452D01*
X214766000Y-143997885D01*
X215274000Y-143997885D01*
X215278475Y-144013124D01*
X215279865Y-144014329D01*
X215287548Y-144016000D01*
X216009885Y-144016000D01*
X216025124Y-144011525D01*
X216026329Y-144010135D01*
X216028000Y-144002452D01*
X216028000Y-143823343D01*
X216027699Y-143817195D01*
X216014188Y-143679397D01*
X216011805Y-143667362D01*
X215958232Y-143489923D01*
X215953559Y-143478584D01*
X215866540Y-143314923D01*
X215859751Y-143304706D01*
X215742603Y-143161067D01*
X215733959Y-143152363D01*
X215591144Y-143034216D01*
X215580973Y-143027356D01*
X215417924Y-142939196D01*
X215406619Y-142934444D01*
X215291308Y-142898750D01*
X215277205Y-142898544D01*
X215274000Y-142905299D01*
X215274000Y-143997885D01*
X214766000Y-143997885D01*
X214766000Y-142912076D01*
X214762027Y-142898545D01*
X214754232Y-142897425D01*
X214646479Y-142929138D01*
X214635111Y-142933731D01*
X214470846Y-143019607D01*
X214460585Y-143026321D01*
X214316127Y-143142468D01*
X214307368Y-143151046D01*
X214188222Y-143293039D01*
X214181292Y-143303159D01*
X214091998Y-143465585D01*
X214087166Y-143476858D01*
X214031120Y-143653538D01*
X214028570Y-143665532D01*
X214012393Y-143809761D01*
X214012000Y-143816785D01*
X214012000Y-143997885D01*
X207388000Y-143997885D01*
X207388000Y-143823343D01*
X207387699Y-143817195D01*
X207374188Y-143679397D01*
X207371805Y-143667362D01*
X207318232Y-143489923D01*
X207313559Y-143478584D01*
X207226540Y-143314923D01*
X207219751Y-143304706D01*
X207156855Y-143227587D01*
X207129301Y-143162155D01*
X207141496Y-143092214D01*
X207189569Y-143039969D01*
X207239359Y-143022864D01*
X207266676Y-143019558D01*
X207266677Y-143019558D01*
X207274219Y-143018645D01*
X207281329Y-143015959D01*
X207286232Y-143014754D01*
X207296718Y-143011886D01*
X207301510Y-143010439D01*
X207308988Y-143009134D01*
X207320937Y-143003889D01*
X207365325Y-142984405D01*
X207371430Y-142981914D01*
X207421866Y-142962855D01*
X207421869Y-142962853D01*
X207428973Y-142960169D01*
X207435230Y-142955869D01*
X207439698Y-142953533D01*
X207449144Y-142948275D01*
X207453510Y-142945693D01*
X207460469Y-142942638D01*
X207509288Y-142905177D01*
X207514607Y-142901314D01*
X207559049Y-142870769D01*
X207565310Y-142866466D01*
X207605217Y-142821676D01*
X207610197Y-142816402D01*
X208271405Y-142155194D01*
X208333717Y-142121168D01*
X208404532Y-142126233D01*
X208461368Y-142168780D01*
X208486179Y-142235300D01*
X208486500Y-142244289D01*
X208486501Y-142387237D01*
X208486501Y-142531634D01*
X208486764Y-142534492D01*
X208486764Y-142534501D01*
X208490026Y-142570004D01*
X208493247Y-142605062D01*
X208495246Y-142611440D01*
X208495246Y-142611441D01*
X208534422Y-142736450D01*
X208544528Y-142768699D01*
X208633361Y-142915381D01*
X208729239Y-143011259D01*
X208763265Y-143073571D01*
X208758200Y-143144386D01*
X208729239Y-143189449D01*
X208639131Y-143279557D01*
X208629824Y-143291426D01*
X208548921Y-143425012D01*
X208542715Y-143438757D01*
X208495744Y-143588644D01*
X208493131Y-143601694D01*
X208488087Y-143656586D01*
X208491475Y-143668124D01*
X208492865Y-143669329D01*
X208500548Y-143671000D01*
X210434884Y-143671000D01*
X210450123Y-143666525D01*
X210451328Y-143665135D01*
X210452291Y-143660706D01*
X210446868Y-143601685D01*
X210444257Y-143588649D01*
X210397285Y-143438757D01*
X210391079Y-143425012D01*
X210310176Y-143291426D01*
X210300869Y-143279557D01*
X210210761Y-143189449D01*
X210176735Y-143127137D01*
X210181800Y-143056322D01*
X210210761Y-143011259D01*
X210306639Y-142915381D01*
X210395472Y-142768699D01*
X210446753Y-142605062D01*
X210453500Y-142531635D01*
X210453499Y-142018366D01*
X210451469Y-141996263D01*
X210447364Y-141951592D01*
X210446753Y-141944938D01*
X210439872Y-141922982D01*
X210397744Y-141788550D01*
X210397743Y-141788548D01*
X210395472Y-141781301D01*
X210306639Y-141634619D01*
X210185381Y-141513361D01*
X210174511Y-141506778D01*
X210126605Y-141454381D01*
X210114631Y-141384402D01*
X210142392Y-141319058D01*
X210201073Y-141279095D01*
X210239782Y-141273002D01*
X211595861Y-141273002D01*
X211663982Y-141293004D01*
X211710475Y-141346660D01*
X211720579Y-141416934D01*
X211691085Y-141481514D01*
X211684264Y-141488006D01*
X211684619Y-141488361D01*
X211563361Y-141609619D01*
X211474528Y-141756301D01*
X211472257Y-141763548D01*
X211472256Y-141763550D01*
X211464422Y-141788550D01*
X211423247Y-141919938D01*
X211416500Y-141993365D01*
X211416501Y-142506634D01*
X211416764Y-142509492D01*
X211416764Y-142509501D01*
X211420026Y-142545004D01*
X211423247Y-142580062D01*
X211425246Y-142586440D01*
X211425246Y-142586441D01*
X211431082Y-142605062D01*
X211474528Y-142743699D01*
X211563361Y-142890381D01*
X211659239Y-142986259D01*
X211693265Y-143048571D01*
X211688200Y-143119386D01*
X211659239Y-143164449D01*
X211569131Y-143254557D01*
X211559824Y-143266426D01*
X211478921Y-143400012D01*
X211472715Y-143413757D01*
X211425744Y-143563644D01*
X211423131Y-143576694D01*
X211418087Y-143631586D01*
X211421475Y-143643124D01*
X211422865Y-143644329D01*
X211430548Y-143646000D01*
X213364884Y-143646000D01*
X213380123Y-143641525D01*
X213381328Y-143640135D01*
X213382291Y-143635706D01*
X213376868Y-143576685D01*
X213374257Y-143563649D01*
X213327285Y-143413757D01*
X213321079Y-143400012D01*
X213240176Y-143266426D01*
X213230869Y-143254557D01*
X213140761Y-143164449D01*
X213106735Y-143102137D01*
X213111800Y-143031322D01*
X213140761Y-142986259D01*
X213236639Y-142890381D01*
X213325472Y-142743699D01*
X213376753Y-142580062D01*
X213383500Y-142506635D01*
X213383499Y-142243885D01*
X213403501Y-142175766D01*
X213444982Y-142135657D01*
X213585860Y-142051677D01*
X213585862Y-142051676D01*
X213591912Y-142048069D01*
X213723266Y-141922982D01*
X213823643Y-141771902D01*
X213873323Y-141641120D01*
X213885555Y-141608920D01*
X213885556Y-141608918D01*
X213888055Y-141602338D01*
X213913299Y-141422717D01*
X213915271Y-141422994D01*
X213937684Y-141364028D01*
X213973182Y-141332163D01*
X214088038Y-141263151D01*
X214156727Y-141245212D01*
X214224214Y-141267259D01*
X214250572Y-141291519D01*
X214297397Y-141348933D01*
X214306041Y-141357637D01*
X214448856Y-141475784D01*
X214459027Y-141482644D01*
X214622076Y-141570804D01*
X214633381Y-141575556D01*
X214748692Y-141611250D01*
X214762795Y-141611456D01*
X214766000Y-141604701D01*
X214766000Y-141597924D01*
X215274000Y-141597924D01*
X215277973Y-141611455D01*
X215285768Y-141612575D01*
X215393521Y-141580862D01*
X215404889Y-141576269D01*
X215569154Y-141490393D01*
X215579415Y-141483679D01*
X215723873Y-141367532D01*
X215732632Y-141358954D01*
X215851778Y-141216961D01*
X215858708Y-141206841D01*
X215948002Y-141044415D01*
X215952834Y-141033142D01*
X216008880Y-140856462D01*
X216011430Y-140844468D01*
X216027607Y-140700239D01*
X216028000Y-140693215D01*
X216028000Y-140362115D01*
X216023525Y-140346876D01*
X216022135Y-140345671D01*
X216014452Y-140344000D01*
X215292115Y-140344000D01*
X215276876Y-140348475D01*
X215275671Y-140349865D01*
X215274000Y-140357548D01*
X215274000Y-141597924D01*
X214766000Y-141597924D01*
X214766000Y-139962000D01*
X214786002Y-139893879D01*
X214839658Y-139847386D01*
X214892000Y-139836000D01*
X216009885Y-139836000D01*
X216025124Y-139831525D01*
X216026329Y-139830135D01*
X216028000Y-139822452D01*
X216028000Y-139493343D01*
X216027699Y-139487195D01*
X216014188Y-139349397D01*
X216011805Y-139337362D01*
X215958233Y-139159924D01*
X215953559Y-139148584D01*
X215866540Y-138984923D01*
X215859751Y-138974706D01*
X215742603Y-138831067D01*
X215733959Y-138822363D01*
X215591144Y-138704216D01*
X215580973Y-138697356D01*
X215417924Y-138609196D01*
X215406619Y-138604444D01*
X215381968Y-138596813D01*
X215322809Y-138557562D01*
X215294261Y-138492558D01*
X215305389Y-138422439D01*
X215325591Y-138392138D01*
X215370859Y-138341863D01*
X215370860Y-138341862D01*
X215375278Y-138336955D01*
X215470765Y-138171567D01*
X215529780Y-137989939D01*
X215533389Y-137955607D01*
X215549052Y-137806576D01*
X215549742Y-137800011D01*
X215529780Y-137610083D01*
X215470765Y-137428455D01*
X215458084Y-137406490D01*
X215378579Y-137268785D01*
X215375278Y-137263067D01*
X215261753Y-137136984D01*
X215251913Y-137126056D01*
X215251912Y-137126055D01*
X215247491Y-137121145D01*
X215092990Y-137008893D01*
X215086962Y-137006209D01*
X215086960Y-137006208D01*
X214924557Y-136933902D01*
X214924556Y-136933902D01*
X214918526Y-136931217D01*
X214825125Y-136911364D01*
X214738182Y-136892883D01*
X214738177Y-136892883D01*
X214731725Y-136891511D01*
X214540751Y-136891511D01*
X214534299Y-136892883D01*
X214534294Y-136892883D01*
X214447351Y-136911364D01*
X214353950Y-136931217D01*
X214347920Y-136933902D01*
X214347919Y-136933902D01*
X214187574Y-137005292D01*
X214136325Y-137016185D01*
X207042145Y-137016185D01*
X207025699Y-137015107D01*
X206995315Y-137011107D01*
X206841686Y-137031332D01*
X206770106Y-137060982D01*
X206698526Y-137090631D01*
X206575592Y-137184962D01*
X206570566Y-137191512D01*
X206556932Y-137209280D01*
X206546065Y-137221671D01*
X204643140Y-139124595D01*
X204580828Y-139158621D01*
X204554045Y-139161500D01*
X199367117Y-139161500D01*
X199298996Y-139141498D01*
X199252503Y-139087842D01*
X199242399Y-139017568D01*
X199271893Y-138952988D01*
X199302597Y-138927273D01*
X199401912Y-138868069D01*
X199533266Y-138742982D01*
X199633643Y-138591902D01*
X199698055Y-138422338D01*
X199698065Y-138422265D01*
X199729553Y-138367062D01*
X200664489Y-137432126D01*
X200726801Y-137398100D01*
X200797501Y-137403123D01*
X200806556Y-137406490D01*
X200806564Y-137406492D01*
X200813168Y-137408948D01*
X200820149Y-137409879D01*
X200820151Y-137409880D01*
X200985980Y-137432007D01*
X200985984Y-137432007D01*
X200992961Y-137432938D01*
X200999972Y-137432300D01*
X200999976Y-137432300D01*
X201142459Y-137419332D01*
X201173600Y-137416498D01*
X201180302Y-137414320D01*
X201180304Y-137414320D01*
X201339409Y-137362624D01*
X201339412Y-137362623D01*
X201346108Y-137360447D01*
X201501912Y-137267569D01*
X201633266Y-137142482D01*
X201733643Y-136991402D01*
X201798055Y-136821838D01*
X201804905Y-136773101D01*
X201822748Y-136646139D01*
X201822748Y-136646136D01*
X201823299Y-136642217D01*
X201823616Y-136619500D01*
X201803397Y-136439245D01*
X201801080Y-136432591D01*
X201746064Y-136274606D01*
X201746062Y-136274603D01*
X201743745Y-136267948D01*
X201647626Y-136114124D01*
X201632340Y-136098731D01*
X201524778Y-135990415D01*
X201524774Y-135990412D01*
X201519815Y-135985418D01*
X201485149Y-135963418D01*
X201453083Y-135943069D01*
X201366666Y-135888227D01*
X201337463Y-135877828D01*
X201202425Y-135829743D01*
X201202420Y-135829742D01*
X201195790Y-135827381D01*
X201188802Y-135826548D01*
X201188799Y-135826547D01*
X201065698Y-135811868D01*
X201015680Y-135805904D01*
X201008677Y-135806640D01*
X201008676Y-135806640D01*
X200842288Y-135824128D01*
X200842286Y-135824129D01*
X200835288Y-135824864D01*
X200663579Y-135883318D01*
X200608314Y-135917318D01*
X200542293Y-135936000D01*
X200538556Y-135936000D01*
X200529986Y-135935708D01*
X200528943Y-135935637D01*
X200474466Y-135931923D01*
X200466989Y-135933228D01*
X200466986Y-135933228D01*
X200413842Y-135942503D01*
X200407319Y-135943466D01*
X200353808Y-135949942D01*
X200353807Y-135949942D01*
X200346265Y-135950855D01*
X200339155Y-135953541D01*
X200334252Y-135954746D01*
X200323766Y-135957614D01*
X200318974Y-135959061D01*
X200311496Y-135960366D01*
X200304544Y-135963418D01*
X200304543Y-135963418D01*
X200255159Y-135985095D01*
X200249054Y-135987586D01*
X200198618Y-136006645D01*
X200198615Y-136006647D01*
X200191511Y-136009331D01*
X200185254Y-136013631D01*
X200180786Y-136015967D01*
X200171340Y-136021225D01*
X200166974Y-136023807D01*
X200160015Y-136026862D01*
X200111196Y-136064323D01*
X200105877Y-136068186D01*
X200067179Y-136094783D01*
X200055174Y-136103034D01*
X200050123Y-136108703D01*
X200015268Y-136147823D01*
X200010287Y-136153098D01*
X198760166Y-137403219D01*
X198711676Y-137433402D01*
X198563579Y-137483818D01*
X198557575Y-137487512D01*
X198415095Y-137575166D01*
X198415092Y-137575168D01*
X198409088Y-137578862D01*
X198404053Y-137583793D01*
X198404050Y-137583795D01*
X198295918Y-137689686D01*
X198279493Y-137705771D01*
X198181235Y-137858238D01*
X198178826Y-137864858D01*
X198178824Y-137864861D01*
X198135688Y-137983376D01*
X198119197Y-138028685D01*
X198096463Y-138208640D01*
X198114163Y-138389160D01*
X198171418Y-138561273D01*
X198175065Y-138567295D01*
X198175066Y-138567297D01*
X198260588Y-138708511D01*
X198265380Y-138716424D01*
X198270269Y-138721487D01*
X198270270Y-138721488D01*
X198293078Y-138745106D01*
X198391382Y-138846902D01*
X198485469Y-138908471D01*
X198518473Y-138930068D01*
X198564522Y-138984105D01*
X198574045Y-139054460D01*
X198544020Y-139118795D01*
X198483980Y-139156685D01*
X198449480Y-139161500D01*
X195491249Y-139161500D01*
X195423128Y-139141498D01*
X195376635Y-139087842D01*
X195366531Y-139017568D01*
X195373461Y-138990756D01*
X195385555Y-138958920D01*
X195385556Y-138958918D01*
X195388055Y-138952338D01*
X195391778Y-138925845D01*
X195412748Y-138776639D01*
X195412748Y-138776636D01*
X195413299Y-138772717D01*
X195413616Y-138750000D01*
X195393397Y-138569745D01*
X195390447Y-138561273D01*
X195336064Y-138405106D01*
X195336062Y-138405103D01*
X195333745Y-138398448D01*
X195275949Y-138305954D01*
X195241359Y-138250598D01*
X195237626Y-138244624D01*
X195232664Y-138239627D01*
X195114778Y-138120915D01*
X195114774Y-138120912D01*
X195109815Y-138115918D01*
X195051485Y-138078901D01*
X195004688Y-138025514D01*
X194994182Y-137955299D01*
X195025364Y-137888207D01*
X195045119Y-137866267D01*
X195045120Y-137866266D01*
X195049538Y-137861359D01*
X195145025Y-137695971D01*
X195204040Y-137514343D01*
X195215720Y-137403219D01*
X195223312Y-137330980D01*
X195224002Y-137324415D01*
X195213203Y-137221671D01*
X195204730Y-137141050D01*
X195204730Y-137141048D01*
X195204040Y-137134487D01*
X195145025Y-136952859D01*
X195049538Y-136787471D01*
X194994316Y-136726140D01*
X194926173Y-136650460D01*
X194926172Y-136650459D01*
X194921751Y-136645549D01*
X194822655Y-136573551D01*
X194772592Y-136537178D01*
X194772591Y-136537177D01*
X194767250Y-136533297D01*
X194761222Y-136530613D01*
X194761220Y-136530612D01*
X194598817Y-136458306D01*
X194598816Y-136458306D01*
X194592786Y-136455621D01*
X194484439Y-136432591D01*
X194412442Y-136417287D01*
X194412437Y-136417287D01*
X194405985Y-136415915D01*
X194215011Y-136415915D01*
X194208559Y-136417287D01*
X194208554Y-136417287D01*
X194136557Y-136432591D01*
X194028210Y-136455621D01*
X194022180Y-136458306D01*
X194022179Y-136458306D01*
X193859776Y-136530612D01*
X193859774Y-136530613D01*
X193853746Y-136533297D01*
X193848405Y-136537177D01*
X193848404Y-136537178D01*
X193738744Y-136616851D01*
X193671876Y-136640710D01*
X193664683Y-136640915D01*
X192803641Y-136640915D01*
X192795071Y-136640623D01*
X192794028Y-136640552D01*
X192739551Y-136636838D01*
X192732074Y-136638143D01*
X192732071Y-136638143D01*
X192678927Y-136647418D01*
X192672404Y-136648381D01*
X192618893Y-136654857D01*
X192618892Y-136654857D01*
X192611350Y-136655770D01*
X192604240Y-136658456D01*
X192599337Y-136659661D01*
X192588851Y-136662529D01*
X192584059Y-136663976D01*
X192576581Y-136665281D01*
X192569629Y-136668333D01*
X192569628Y-136668333D01*
X192520244Y-136690010D01*
X192514139Y-136692501D01*
X192463703Y-136711560D01*
X192463700Y-136711562D01*
X192456596Y-136714246D01*
X192450339Y-136718546D01*
X192445871Y-136720882D01*
X192436425Y-136726140D01*
X192432059Y-136728722D01*
X192425100Y-136731777D01*
X192376281Y-136769238D01*
X192370962Y-136773101D01*
X192341735Y-136793189D01*
X192320259Y-136807949D01*
X192315208Y-136813618D01*
X192280353Y-136852738D01*
X192275372Y-136858013D01*
X191203790Y-137929595D01*
X191141478Y-137963621D01*
X191114695Y-137966500D01*
X185988343Y-137966500D01*
X185937095Y-137955607D01*
X185888323Y-137933892D01*
X185888315Y-137933889D01*
X185882288Y-137931206D01*
X185788887Y-137911353D01*
X185701944Y-137892872D01*
X185701939Y-137892872D01*
X185695487Y-137891500D01*
X185504513Y-137891500D01*
X185498061Y-137892872D01*
X185498056Y-137892872D01*
X185411113Y-137911353D01*
X185317712Y-137931206D01*
X185311682Y-137933891D01*
X185311681Y-137933891D01*
X185149278Y-138006197D01*
X185149276Y-138006198D01*
X185143248Y-138008882D01*
X185137907Y-138012762D01*
X185137906Y-138012763D01*
X185111458Y-138031979D01*
X184988747Y-138121134D01*
X184984326Y-138126044D01*
X184984325Y-138126045D01*
X184867147Y-138256185D01*
X184860960Y-138263056D01*
X184765473Y-138428444D01*
X184763431Y-138434728D01*
X184760747Y-138440757D01*
X184759455Y-138440182D01*
X184723588Y-138492646D01*
X184658194Y-138520288D01*
X184588236Y-138508188D01*
X184554725Y-138484206D01*
X180120519Y-134050000D01*
X183236496Y-134050000D01*
X183237186Y-134056565D01*
X183253539Y-134212151D01*
X183256458Y-134239928D01*
X183315473Y-134421556D01*
X183410960Y-134586944D01*
X183415378Y-134591851D01*
X183415379Y-134591852D01*
X183437694Y-134616635D01*
X183538747Y-134728866D01*
X183693248Y-134841118D01*
X183699276Y-134843802D01*
X183699278Y-134843803D01*
X183861681Y-134916109D01*
X183867712Y-134918794D01*
X183961112Y-134938647D01*
X184048056Y-134957128D01*
X184048061Y-134957128D01*
X184054513Y-134958500D01*
X184245487Y-134958500D01*
X184251939Y-134957128D01*
X184251944Y-134957128D01*
X184338888Y-134938647D01*
X184432288Y-134918794D01*
X184438319Y-134916109D01*
X184600722Y-134843803D01*
X184600724Y-134843802D01*
X184606752Y-134841118D01*
X184761253Y-134728866D01*
X184862306Y-134616635D01*
X184884621Y-134591852D01*
X184884622Y-134591851D01*
X184889040Y-134586944D01*
X184984527Y-134421556D01*
X185043542Y-134239928D01*
X185046462Y-134212151D01*
X185062814Y-134056565D01*
X185063504Y-134050000D01*
X185051301Y-133933891D01*
X185044232Y-133866635D01*
X185044232Y-133866633D01*
X185043542Y-133860072D01*
X184984527Y-133678444D01*
X184889040Y-133513056D01*
X184870341Y-133492288D01*
X184765675Y-133376045D01*
X184765674Y-133376044D01*
X184761253Y-133371134D01*
X184652084Y-133291818D01*
X184612094Y-133262763D01*
X184612093Y-133262762D01*
X184606752Y-133258882D01*
X184600724Y-133256198D01*
X184600722Y-133256197D01*
X184438319Y-133183891D01*
X184438318Y-133183891D01*
X184432288Y-133181206D01*
X184338887Y-133161353D01*
X184251944Y-133142872D01*
X184251939Y-133142872D01*
X184245487Y-133141500D01*
X184054513Y-133141500D01*
X184048061Y-133142872D01*
X184048056Y-133142872D01*
X183961113Y-133161353D01*
X183867712Y-133181206D01*
X183861682Y-133183891D01*
X183861681Y-133183891D01*
X183699278Y-133256197D01*
X183699276Y-133256198D01*
X183693248Y-133258882D01*
X183687907Y-133262762D01*
X183687906Y-133262763D01*
X183647916Y-133291818D01*
X183538747Y-133371134D01*
X183534326Y-133376044D01*
X183534325Y-133376045D01*
X183429660Y-133492288D01*
X183410960Y-133513056D01*
X183315473Y-133678444D01*
X183256458Y-133860072D01*
X183255768Y-133866633D01*
X183255768Y-133866635D01*
X183248699Y-133933891D01*
X183236496Y-134050000D01*
X180120519Y-134050000D01*
X178748060Y-132677541D01*
X178714034Y-132615229D01*
X178719099Y-132544414D01*
X178763094Y-132486510D01*
X178905909Y-132382749D01*
X178905911Y-132382747D01*
X178911253Y-132378866D01*
X178931338Y-132356559D01*
X179034621Y-132241852D01*
X179034622Y-132241851D01*
X179039040Y-132236944D01*
X179134527Y-132071556D01*
X179193542Y-131889928D01*
X179194413Y-131881646D01*
X179212814Y-131706565D01*
X179213504Y-131700000D01*
X179193542Y-131510072D01*
X179195217Y-131509896D01*
X179199974Y-131447479D01*
X179242786Y-131390843D01*
X179309422Y-131366343D01*
X179378725Y-131381759D01*
X179382178Y-131383955D01*
X179382189Y-131383936D01*
X179387907Y-131387237D01*
X179393248Y-131391118D01*
X179399276Y-131393802D01*
X179399278Y-131393803D01*
X179559808Y-131465275D01*
X179567712Y-131468794D01*
X179661113Y-131488647D01*
X179748056Y-131507128D01*
X179748061Y-131507128D01*
X179754513Y-131508500D01*
X179945487Y-131508500D01*
X179951939Y-131507128D01*
X179951944Y-131507128D01*
X180038887Y-131488647D01*
X180132288Y-131468794D01*
X180140192Y-131465275D01*
X180300722Y-131393803D01*
X180300724Y-131393802D01*
X180306752Y-131391118D01*
X180314112Y-131385771D01*
X180393015Y-131328444D01*
X180461253Y-131278866D01*
X180469335Y-131269890D01*
X180584621Y-131141852D01*
X180584622Y-131141851D01*
X180589040Y-131136944D01*
X180684527Y-130971556D01*
X180743542Y-130789928D01*
X180759869Y-130634590D01*
X180762814Y-130606565D01*
X180763504Y-130600000D01*
X180748493Y-130457181D01*
X180761265Y-130387343D01*
X180809767Y-130335497D01*
X180873803Y-130318011D01*
X184232720Y-130318011D01*
X184300841Y-130338013D01*
X184321815Y-130354916D01*
X187422645Y-133455746D01*
X187456671Y-133518058D01*
X187458949Y-133532546D01*
X187468976Y-133634809D01*
X187526231Y-133806922D01*
X187529878Y-133812944D01*
X187529879Y-133812946D01*
X187603126Y-133933891D01*
X187620193Y-133962073D01*
X187746195Y-134092551D01*
X187897972Y-134191871D01*
X187904576Y-134194327D01*
X187904578Y-134194328D01*
X188061371Y-134252639D01*
X188061373Y-134252639D01*
X188067981Y-134255097D01*
X188151808Y-134266282D01*
X188240793Y-134278156D01*
X188240797Y-134278156D01*
X188247774Y-134279087D01*
X188254785Y-134278449D01*
X188254789Y-134278449D01*
X188397272Y-134265481D01*
X188428413Y-134262647D01*
X188435115Y-134260469D01*
X188435117Y-134260469D01*
X188594222Y-134208773D01*
X188594225Y-134208772D01*
X188600921Y-134206596D01*
X188697326Y-134149127D01*
X188750673Y-134117326D01*
X188750675Y-134117325D01*
X188756725Y-134113718D01*
X188835564Y-134038640D01*
X198186463Y-134038640D01*
X198204163Y-134219160D01*
X198261418Y-134391273D01*
X198265065Y-134397295D01*
X198265066Y-134397297D01*
X198287736Y-134434729D01*
X198355380Y-134546424D01*
X198360269Y-134551487D01*
X198360270Y-134551488D01*
X198410782Y-134603794D01*
X198481382Y-134676902D01*
X198633159Y-134776222D01*
X198639763Y-134778678D01*
X198639765Y-134778679D01*
X198796558Y-134836990D01*
X198796560Y-134836990D01*
X198803168Y-134839448D01*
X198886995Y-134850633D01*
X198975980Y-134862507D01*
X198975984Y-134862507D01*
X198982961Y-134863438D01*
X198989972Y-134862800D01*
X198989976Y-134862800D01*
X199132459Y-134849832D01*
X199163600Y-134846998D01*
X199170302Y-134844820D01*
X199170304Y-134844820D01*
X199308247Y-134800000D01*
X204986496Y-134800000D01*
X204987186Y-134806565D01*
X205003011Y-134957128D01*
X205006458Y-134989928D01*
X205065473Y-135171556D01*
X205160960Y-135336944D01*
X205165378Y-135341851D01*
X205165379Y-135341852D01*
X205284325Y-135473955D01*
X205288747Y-135478866D01*
X205443248Y-135591118D01*
X205449276Y-135593802D01*
X205449278Y-135593803D01*
X205611681Y-135666109D01*
X205617712Y-135668794D01*
X205711113Y-135688647D01*
X205798056Y-135707128D01*
X205798061Y-135707128D01*
X205804513Y-135708500D01*
X205995487Y-135708500D01*
X206001939Y-135707128D01*
X206001944Y-135707128D01*
X206088887Y-135688647D01*
X206182288Y-135668794D01*
X206188319Y-135666109D01*
X206350722Y-135593803D01*
X206350724Y-135593802D01*
X206356752Y-135591118D01*
X206511253Y-135478866D01*
X206515675Y-135473955D01*
X206634621Y-135341852D01*
X206634622Y-135341851D01*
X206639040Y-135336944D01*
X206734527Y-135171556D01*
X206793542Y-134989928D01*
X206796990Y-134957128D01*
X206812814Y-134806565D01*
X206813504Y-134800000D01*
X206806028Y-134728866D01*
X206794232Y-134616635D01*
X206794232Y-134616633D01*
X206793542Y-134610072D01*
X206734527Y-134428444D01*
X206726947Y-134415314D01*
X206697314Y-134363990D01*
X206639040Y-134263056D01*
X206629390Y-134252338D01*
X206515675Y-134126045D01*
X206515674Y-134126044D01*
X206511253Y-134121134D01*
X206356752Y-134008882D01*
X206350724Y-134006198D01*
X206350722Y-134006197D01*
X206188319Y-133933891D01*
X206188318Y-133933891D01*
X206182288Y-133931206D01*
X206088887Y-133911353D01*
X206001944Y-133892872D01*
X206001939Y-133892872D01*
X205995487Y-133891500D01*
X205804513Y-133891500D01*
X205798061Y-133892872D01*
X205798056Y-133892872D01*
X205711113Y-133911353D01*
X205617712Y-133931206D01*
X205611682Y-133933891D01*
X205611681Y-133933891D01*
X205449278Y-134006197D01*
X205449276Y-134006198D01*
X205443248Y-134008882D01*
X205288747Y-134121134D01*
X205284326Y-134126044D01*
X205284325Y-134126045D01*
X205170611Y-134252338D01*
X205160960Y-134263056D01*
X205102686Y-134363990D01*
X205073054Y-134415314D01*
X205065473Y-134428444D01*
X205006458Y-134610072D01*
X205005768Y-134616633D01*
X205005768Y-134616635D01*
X204993972Y-134728866D01*
X204986496Y-134800000D01*
X199308247Y-134800000D01*
X199329409Y-134793124D01*
X199329412Y-134793123D01*
X199336108Y-134790947D01*
X199491912Y-134698069D01*
X199623266Y-134572982D01*
X199723643Y-134421902D01*
X199778248Y-134278156D01*
X199785555Y-134258920D01*
X199785556Y-134258918D01*
X199788055Y-134252338D01*
X199789799Y-134239928D01*
X199812748Y-134076639D01*
X199812748Y-134076636D01*
X199813299Y-134072717D01*
X199813452Y-134061738D01*
X199813561Y-134053962D01*
X199813561Y-134053957D01*
X199813616Y-134050000D01*
X199793397Y-133869745D01*
X199790029Y-133860072D01*
X199736064Y-133705106D01*
X199736062Y-133705103D01*
X199733745Y-133698448D01*
X199727365Y-133688238D01*
X199641359Y-133550598D01*
X199637626Y-133544624D01*
X199628835Y-133535771D01*
X199514778Y-133420915D01*
X199514774Y-133420912D01*
X199509815Y-133415918D01*
X199498697Y-133408862D01*
X199433128Y-133367251D01*
X199356666Y-133318727D01*
X199314909Y-133303858D01*
X199192425Y-133260243D01*
X199192420Y-133260242D01*
X199185790Y-133257881D01*
X199178802Y-133257048D01*
X199178799Y-133257047D01*
X199055698Y-133242368D01*
X199005680Y-133236404D01*
X198998677Y-133237140D01*
X198998676Y-133237140D01*
X198832288Y-133254628D01*
X198832286Y-133254629D01*
X198825288Y-133255364D01*
X198653579Y-133313818D01*
X198647575Y-133317512D01*
X198505095Y-133405166D01*
X198505092Y-133405168D01*
X198499088Y-133408862D01*
X198494053Y-133413793D01*
X198494050Y-133413795D01*
X198374525Y-133530843D01*
X198369493Y-133535771D01*
X198271235Y-133688238D01*
X198268826Y-133694858D01*
X198268824Y-133694861D01*
X198219287Y-133830963D01*
X198209197Y-133858685D01*
X198186463Y-134038640D01*
X188835564Y-134038640D01*
X188888079Y-133988631D01*
X188988456Y-133837551D01*
X189041297Y-133698448D01*
X189050368Y-133674569D01*
X189050369Y-133674567D01*
X189052868Y-133667987D01*
X189053848Y-133661015D01*
X189077561Y-133492288D01*
X189077561Y-133492285D01*
X189078112Y-133488366D01*
X189078429Y-133465649D01*
X189058210Y-133285394D01*
X189055893Y-133278740D01*
X189000877Y-133120755D01*
X189000875Y-133120752D01*
X188998558Y-133114097D01*
X188902439Y-132960273D01*
X188897477Y-132955276D01*
X188779591Y-132836564D01*
X188779587Y-132836561D01*
X188774628Y-132831567D01*
X188748397Y-132814920D01*
X188696888Y-132782232D01*
X188621479Y-132734376D01*
X188562678Y-132713438D01*
X188457238Y-132675892D01*
X188457233Y-132675891D01*
X188450603Y-132673530D01*
X188443617Y-132672697D01*
X188443613Y-132672696D01*
X188348275Y-132661328D01*
X188328564Y-132658978D01*
X188263291Y-132631051D01*
X188254388Y-132622959D01*
X187520069Y-131888640D01*
X188886463Y-131888640D01*
X188904163Y-132069160D01*
X188961418Y-132241273D01*
X188965065Y-132247295D01*
X188965066Y-132247297D01*
X189050634Y-132388587D01*
X189055380Y-132396424D01*
X189181382Y-132526902D01*
X189333159Y-132626222D01*
X189339763Y-132628678D01*
X189339765Y-132628679D01*
X189496558Y-132686990D01*
X189496560Y-132686990D01*
X189503168Y-132689448D01*
X189586995Y-132700633D01*
X189675980Y-132712507D01*
X189675984Y-132712507D01*
X189682961Y-132713438D01*
X189689972Y-132712800D01*
X189689976Y-132712800D01*
X189832459Y-132699832D01*
X189863600Y-132696998D01*
X189870302Y-132694820D01*
X189870304Y-132694820D01*
X190029409Y-132643124D01*
X190029412Y-132643123D01*
X190036108Y-132640947D01*
X190191912Y-132548069D01*
X190323266Y-132422982D01*
X190423643Y-132271902D01*
X190488055Y-132102338D01*
X190489035Y-132095366D01*
X190512748Y-131926639D01*
X190512748Y-131926636D01*
X190513299Y-131922717D01*
X190513616Y-131900000D01*
X190493397Y-131719745D01*
X190491080Y-131713091D01*
X190436064Y-131555106D01*
X190436062Y-131555103D01*
X190433745Y-131548448D01*
X190424250Y-131533252D01*
X190341359Y-131400598D01*
X190337626Y-131394624D01*
X190332664Y-131389627D01*
X190214778Y-131270915D01*
X190214774Y-131270912D01*
X190209815Y-131265918D01*
X190198697Y-131258862D01*
X190093069Y-131191829D01*
X190056666Y-131168727D01*
X190026957Y-131158148D01*
X189892425Y-131110243D01*
X189892420Y-131110242D01*
X189885790Y-131107881D01*
X189878802Y-131107048D01*
X189878799Y-131107047D01*
X189739023Y-131090380D01*
X189705680Y-131086404D01*
X189698677Y-131087140D01*
X189698676Y-131087140D01*
X189532288Y-131104628D01*
X189532286Y-131104629D01*
X189525288Y-131105364D01*
X189353579Y-131163818D01*
X189317099Y-131186261D01*
X189205095Y-131255166D01*
X189205092Y-131255168D01*
X189199088Y-131258862D01*
X189194053Y-131263793D01*
X189194050Y-131263795D01*
X189087832Y-131367812D01*
X189069493Y-131385771D01*
X188971235Y-131538238D01*
X188968826Y-131544858D01*
X188968824Y-131544861D01*
X188912358Y-131700000D01*
X188909197Y-131708685D01*
X188886463Y-131888640D01*
X187520069Y-131888640D01*
X185076098Y-129444669D01*
X190632001Y-129444669D01*
X190632371Y-129451490D01*
X190637895Y-129502352D01*
X190641521Y-129517604D01*
X190686676Y-129638054D01*
X190695214Y-129653649D01*
X190771715Y-129755724D01*
X190784276Y-129768285D01*
X190886351Y-129844786D01*
X190901946Y-129853324D01*
X191022394Y-129898478D01*
X191037649Y-129902105D01*
X191088514Y-129907631D01*
X191095328Y-129908000D01*
X191217885Y-129908000D01*
X191233124Y-129903525D01*
X191234329Y-129902135D01*
X191236000Y-129894452D01*
X191236000Y-129889884D01*
X191744000Y-129889884D01*
X191748475Y-129905123D01*
X191749865Y-129906328D01*
X191757548Y-129907999D01*
X191884669Y-129907999D01*
X191891490Y-129907629D01*
X191942352Y-129902105D01*
X191957604Y-129898479D01*
X192080770Y-129852306D01*
X192151578Y-129847123D01*
X192169230Y-129852306D01*
X192292394Y-129898478D01*
X192307649Y-129902105D01*
X192358514Y-129907631D01*
X192365328Y-129908000D01*
X192487885Y-129908000D01*
X192503124Y-129903525D01*
X192504329Y-129902135D01*
X192506000Y-129894452D01*
X192506000Y-129889884D01*
X193014000Y-129889884D01*
X193018475Y-129905123D01*
X193019865Y-129906328D01*
X193027548Y-129907999D01*
X193154669Y-129907999D01*
X193161490Y-129907629D01*
X193212352Y-129902105D01*
X193227604Y-129898479D01*
X193350770Y-129852306D01*
X193421578Y-129847123D01*
X193439230Y-129852306D01*
X193562394Y-129898478D01*
X193577649Y-129902105D01*
X193628514Y-129907631D01*
X193635328Y-129908000D01*
X193802294Y-129908000D01*
X193870415Y-129928002D01*
X193916908Y-129981658D01*
X193927012Y-130051932D01*
X193920695Y-130077094D01*
X193909197Y-130108685D01*
X193886463Y-130288640D01*
X193904163Y-130469160D01*
X193961418Y-130641273D01*
X193965065Y-130647295D01*
X193965066Y-130647297D01*
X194051553Y-130790104D01*
X194055380Y-130796424D01*
X194060269Y-130801487D01*
X194060270Y-130801488D01*
X194099338Y-130841944D01*
X194181382Y-130926902D01*
X194187278Y-130930760D01*
X194325384Y-131021134D01*
X194333159Y-131026222D01*
X194339763Y-131028678D01*
X194339765Y-131028679D01*
X194496558Y-131086990D01*
X194496560Y-131086990D01*
X194503168Y-131089448D01*
X194582250Y-131100000D01*
X194675980Y-131112507D01*
X194675984Y-131112507D01*
X194682961Y-131113438D01*
X194689972Y-131112800D01*
X194689976Y-131112800D01*
X194843767Y-131098803D01*
X194863600Y-131096998D01*
X194870302Y-131094820D01*
X194870304Y-131094820D01*
X195029409Y-131043124D01*
X195029412Y-131043123D01*
X195036108Y-131040947D01*
X195152512Y-130971556D01*
X195185860Y-130951677D01*
X195185862Y-130951676D01*
X195191912Y-130948069D01*
X195323266Y-130822982D01*
X195423643Y-130671902D01*
X195474349Y-130538419D01*
X195485555Y-130508920D01*
X195485556Y-130508918D01*
X195488055Y-130502338D01*
X195489035Y-130495366D01*
X195499057Y-130424056D01*
X195528345Y-130359382D01*
X195587950Y-130320809D01*
X195658946Y-130320584D01*
X195712926Y-130352497D01*
X197326232Y-131965803D01*
X197337099Y-131978194D01*
X197356560Y-132003556D01*
X197388472Y-132028043D01*
X197388475Y-132028046D01*
X197421846Y-132053652D01*
X197483672Y-132101093D01*
X197631697Y-132162407D01*
X197750662Y-132178069D01*
X197750667Y-132178069D01*
X197750676Y-132178070D01*
X197782359Y-132182241D01*
X197790547Y-132183319D01*
X197822240Y-132179147D01*
X197838683Y-132178069D01*
X197907927Y-132178069D01*
X197976920Y-132198637D01*
X198097853Y-132277773D01*
X198125387Y-132295791D01*
X198131991Y-132298247D01*
X198131993Y-132298248D01*
X198288786Y-132356559D01*
X198288788Y-132356559D01*
X198295396Y-132359017D01*
X198379223Y-132370202D01*
X198468208Y-132382076D01*
X198468212Y-132382076D01*
X198475189Y-132383007D01*
X198482200Y-132382369D01*
X198482204Y-132382369D01*
X198624687Y-132369401D01*
X198655828Y-132366567D01*
X198662530Y-132364389D01*
X198662532Y-132364389D01*
X198821637Y-132312693D01*
X198821640Y-132312692D01*
X198828336Y-132310516D01*
X198984140Y-132217638D01*
X199115494Y-132092551D01*
X199215871Y-131941471D01*
X199219100Y-131932973D01*
X199261511Y-131821325D01*
X199304400Y-131764747D01*
X199340363Y-131746236D01*
X199350557Y-131742924D01*
X199381872Y-131732749D01*
X199411043Y-131723271D01*
X199411046Y-131723270D01*
X199417742Y-131721094D01*
X199533896Y-131651852D01*
X199567494Y-131631824D01*
X199567496Y-131631823D01*
X199573546Y-131628216D01*
X199704900Y-131503129D01*
X199805277Y-131352049D01*
X199852246Y-131228403D01*
X199867189Y-131189067D01*
X199867190Y-131189065D01*
X199869689Y-131182485D01*
X199870718Y-131175166D01*
X199894382Y-131006786D01*
X199894382Y-131006783D01*
X199894933Y-131002864D01*
X199895250Y-130980147D01*
X199875031Y-130799892D01*
X199872714Y-130793238D01*
X199817698Y-130635253D01*
X199817696Y-130635250D01*
X199815379Y-130628595D01*
X199743183Y-130513056D01*
X199722993Y-130480745D01*
X199719260Y-130474771D01*
X199708006Y-130463438D01*
X199596412Y-130351062D01*
X199596408Y-130351059D01*
X199591449Y-130346065D01*
X199581023Y-130339448D01*
X199518862Y-130300000D01*
X199438300Y-130248874D01*
X199390668Y-130231913D01*
X199274059Y-130190390D01*
X199274054Y-130190389D01*
X199267424Y-130188028D01*
X199260436Y-130187195D01*
X199260433Y-130187194D01*
X199137332Y-130172515D01*
X199087314Y-130166551D01*
X199080311Y-130167287D01*
X199080310Y-130167287D01*
X198913922Y-130184775D01*
X198913920Y-130184776D01*
X198906922Y-130185511D01*
X198735213Y-130243965D01*
X198615225Y-130317783D01*
X198546726Y-130336441D01*
X198479011Y-130315102D01*
X198460109Y-130299560D01*
X198265575Y-130105026D01*
X198231549Y-130042714D01*
X198236614Y-129971899D01*
X198279161Y-129915063D01*
X198310439Y-129897950D01*
X198359515Y-129879552D01*
X198430771Y-129852840D01*
X198501578Y-129847657D01*
X198519229Y-129852840D01*
X198642282Y-129898971D01*
X198642288Y-129898973D01*
X198649684Y-129901745D01*
X198711866Y-129908500D01*
X199508134Y-129908500D01*
X199570316Y-129901745D01*
X199701482Y-129852573D01*
X199772290Y-129847390D01*
X199789942Y-129852573D01*
X199912394Y-129898478D01*
X199927649Y-129902105D01*
X199978514Y-129907631D01*
X199985328Y-129908000D01*
X200107885Y-129908000D01*
X200123124Y-129903525D01*
X200124329Y-129902135D01*
X200126000Y-129894452D01*
X200126000Y-129889884D01*
X200634000Y-129889884D01*
X200638475Y-129905123D01*
X200639865Y-129906328D01*
X200647548Y-129907999D01*
X200774669Y-129907999D01*
X200781490Y-129907629D01*
X200832352Y-129902105D01*
X200847604Y-129898479D01*
X200968054Y-129853324D01*
X200983649Y-129844786D01*
X201085724Y-129768285D01*
X201098285Y-129755724D01*
X201174786Y-129653649D01*
X201183003Y-129638640D01*
X204986463Y-129638640D01*
X205004163Y-129819160D01*
X205061418Y-129991273D01*
X205065065Y-129997295D01*
X205065066Y-129997297D01*
X205148243Y-130134639D01*
X205155380Y-130146424D01*
X205160269Y-130151487D01*
X205160270Y-130151488D01*
X205212502Y-130205575D01*
X205281382Y-130276902D01*
X205347660Y-130320273D01*
X205425384Y-130371134D01*
X205433159Y-130376222D01*
X205439763Y-130378678D01*
X205439765Y-130378679D01*
X205596558Y-130436990D01*
X205596560Y-130436990D01*
X205603168Y-130439448D01*
X205686995Y-130450633D01*
X205775980Y-130462507D01*
X205775984Y-130462507D01*
X205782961Y-130463438D01*
X205789972Y-130462800D01*
X205789976Y-130462800D01*
X205932459Y-130449832D01*
X205963600Y-130446998D01*
X205970302Y-130444820D01*
X205970304Y-130444820D01*
X206129409Y-130393124D01*
X206129412Y-130393123D01*
X206136108Y-130390947D01*
X206250565Y-130322717D01*
X206285860Y-130301677D01*
X206285862Y-130301676D01*
X206291912Y-130298069D01*
X206344850Y-130247657D01*
X206370476Y-130223254D01*
X206433601Y-130190762D01*
X206457368Y-130188500D01*
X207006186Y-130188500D01*
X207074307Y-130208502D01*
X207120800Y-130262158D01*
X207130150Y-130305141D01*
X207131496Y-130305000D01*
X207146488Y-130447637D01*
X207151458Y-130494928D01*
X207210473Y-130676556D01*
X207213776Y-130682278D01*
X207213777Y-130682279D01*
X207236314Y-130721314D01*
X207305960Y-130841944D01*
X207310378Y-130846851D01*
X207310379Y-130846852D01*
X207427816Y-130977279D01*
X207433747Y-130983866D01*
X207489770Y-131024569D01*
X207579068Y-131089448D01*
X207588248Y-131096118D01*
X207594276Y-131098802D01*
X207594278Y-131098803D01*
X207738594Y-131163056D01*
X207762712Y-131173794D01*
X207842375Y-131190727D01*
X207943056Y-131212128D01*
X207943061Y-131212128D01*
X207949513Y-131213500D01*
X208140487Y-131213500D01*
X208146939Y-131212128D01*
X208146944Y-131212128D01*
X208247625Y-131190727D01*
X208327288Y-131173794D01*
X208351406Y-131163056D01*
X208495722Y-131098803D01*
X208495724Y-131098802D01*
X208501752Y-131096118D01*
X208510933Y-131089448D01*
X208600230Y-131024569D01*
X208656253Y-130983866D01*
X208662184Y-130977279D01*
X208779621Y-130846852D01*
X208779622Y-130846851D01*
X208784040Y-130841944D01*
X208853686Y-130721314D01*
X208876223Y-130682279D01*
X208876224Y-130682278D01*
X208879527Y-130676556D01*
X208938542Y-130494928D01*
X208943513Y-130447637D01*
X208958504Y-130305000D01*
X208960541Y-130305214D01*
X208977816Y-130246379D01*
X209031472Y-130199886D01*
X209083814Y-130188500D01*
X213261544Y-130188500D01*
X213330537Y-130209068D01*
X213426790Y-130272054D01*
X213433159Y-130276222D01*
X213439763Y-130278678D01*
X213439765Y-130278679D01*
X213596558Y-130336990D01*
X213596560Y-130336990D01*
X213603168Y-130339448D01*
X213686995Y-130350633D01*
X213775980Y-130362507D01*
X213775984Y-130362507D01*
X213782961Y-130363438D01*
X213789972Y-130362800D01*
X213789976Y-130362800D01*
X213932459Y-130349832D01*
X213963600Y-130346998D01*
X213970302Y-130344820D01*
X213970304Y-130344820D01*
X214129409Y-130293124D01*
X214129412Y-130293123D01*
X214136108Y-130290947D01*
X214291912Y-130198069D01*
X214423266Y-130072982D01*
X214523643Y-129921902D01*
X214575355Y-129785771D01*
X214585555Y-129758920D01*
X214585556Y-129758918D01*
X214588055Y-129752338D01*
X214593925Y-129710570D01*
X214612748Y-129576639D01*
X214612748Y-129576636D01*
X214613299Y-129572717D01*
X214613616Y-129550000D01*
X214593397Y-129369745D01*
X214572518Y-129309788D01*
X214536064Y-129205106D01*
X214536062Y-129205103D01*
X214533745Y-129198448D01*
X214437626Y-129044624D01*
X214424796Y-129031704D01*
X214314778Y-128920915D01*
X214314774Y-128920912D01*
X214309815Y-128915918D01*
X214302928Y-128911547D01*
X214213237Y-128854628D01*
X214156666Y-128818727D01*
X214127463Y-128808328D01*
X213992425Y-128760243D01*
X213992420Y-128760242D01*
X213985790Y-128757881D01*
X213978802Y-128757048D01*
X213978799Y-128757047D01*
X213855698Y-128742368D01*
X213805680Y-128736404D01*
X213798677Y-128737140D01*
X213798676Y-128737140D01*
X213632288Y-128754628D01*
X213632286Y-128754629D01*
X213625288Y-128755364D01*
X213453579Y-128813818D01*
X213447575Y-128817512D01*
X213305095Y-128905166D01*
X213305092Y-128905168D01*
X213299088Y-128908862D01*
X213231014Y-128975525D01*
X213168350Y-129008894D01*
X213142858Y-129011500D01*
X209817748Y-129011500D01*
X209749627Y-128991498D01*
X209703134Y-128937842D01*
X209692533Y-128899546D01*
X209687859Y-128857881D01*
X209675036Y-128743563D01*
X209687320Y-128673639D01*
X209735458Y-128621455D01*
X209804168Y-128603580D01*
X209816915Y-128604626D01*
X209875979Y-128612507D01*
X209875984Y-128612507D01*
X209882961Y-128613438D01*
X209889972Y-128612800D01*
X209889976Y-128612800D01*
X210032459Y-128599832D01*
X210063600Y-128596998D01*
X210070302Y-128594820D01*
X210070304Y-128594820D01*
X210229409Y-128543124D01*
X210229412Y-128543123D01*
X210236108Y-128540947D01*
X210391912Y-128448069D01*
X210523266Y-128322982D01*
X210623643Y-128171902D01*
X210671391Y-128046206D01*
X210685555Y-128008920D01*
X210685556Y-128008918D01*
X210688055Y-128002338D01*
X210713299Y-127822717D01*
X210713452Y-127811738D01*
X210713561Y-127803962D01*
X210713561Y-127803957D01*
X210713616Y-127800000D01*
X210693397Y-127619745D01*
X210691080Y-127613091D01*
X210636064Y-127455106D01*
X210636062Y-127455103D01*
X210633745Y-127448448D01*
X210554191Y-127321134D01*
X210541359Y-127300598D01*
X210537626Y-127294624D01*
X210496826Y-127253538D01*
X210414778Y-127170915D01*
X210414774Y-127170912D01*
X210409815Y-127165918D01*
X210398697Y-127158862D01*
X210321885Y-127110116D01*
X210256666Y-127068727D01*
X210202134Y-127049309D01*
X210092425Y-127010243D01*
X210092420Y-127010242D01*
X210085790Y-127007881D01*
X210078802Y-127007048D01*
X210078799Y-127007047D01*
X209955698Y-126992368D01*
X209905680Y-126986404D01*
X209898677Y-126987140D01*
X209898676Y-126987140D01*
X209732288Y-127004628D01*
X209732286Y-127004629D01*
X209725288Y-127005364D01*
X209553579Y-127063818D01*
X209507170Y-127092369D01*
X209405095Y-127155166D01*
X209405092Y-127155168D01*
X209399088Y-127158862D01*
X209394053Y-127163793D01*
X209394050Y-127163795D01*
X209311866Y-127244276D01*
X209269493Y-127285771D01*
X209171235Y-127438238D01*
X209168826Y-127444858D01*
X209168824Y-127444861D01*
X209128617Y-127555328D01*
X209109197Y-127608685D01*
X209086463Y-127788640D01*
X209103678Y-127964216D01*
X209103678Y-127964219D01*
X209104163Y-127969160D01*
X209103295Y-127969245D01*
X209098341Y-128034190D01*
X209055525Y-128090823D01*
X208988888Y-128115318D01*
X208965576Y-128114712D01*
X208918371Y-128109083D01*
X208886769Y-128105315D01*
X208879766Y-128106051D01*
X208879765Y-128106051D01*
X208713377Y-128123539D01*
X208713375Y-128123540D01*
X208706377Y-128124275D01*
X208534668Y-128182729D01*
X208512762Y-128196206D01*
X208386184Y-128274077D01*
X208386181Y-128274079D01*
X208380177Y-128277773D01*
X208375142Y-128282704D01*
X208375139Y-128282706D01*
X208258518Y-128396910D01*
X208250582Y-128404682D01*
X208152324Y-128557149D01*
X208149915Y-128563769D01*
X208149913Y-128563772D01*
X208120784Y-128643803D01*
X208090286Y-128727596D01*
X208068564Y-128899546D01*
X208068343Y-128901292D01*
X208039961Y-128966369D01*
X207980902Y-129005770D01*
X207943337Y-129011500D01*
X206339459Y-129011500D01*
X206271953Y-128991890D01*
X206270377Y-128990890D01*
X206223574Y-128937504D01*
X206213064Y-128867290D01*
X206242183Y-128802540D01*
X206301686Y-128763811D01*
X206337883Y-128758500D01*
X206495487Y-128758500D01*
X206501939Y-128757128D01*
X206501944Y-128757128D01*
X206599440Y-128736404D01*
X206682288Y-128718794D01*
X206763247Y-128682749D01*
X206850722Y-128643803D01*
X206850724Y-128643802D01*
X206856752Y-128641118D01*
X206874808Y-128628000D01*
X206989850Y-128544416D01*
X207011253Y-128528866D01*
X207053977Y-128481416D01*
X207134621Y-128391852D01*
X207134622Y-128391851D01*
X207139040Y-128386944D01*
X207222998Y-128241525D01*
X207231223Y-128227279D01*
X207231224Y-128227278D01*
X207234527Y-128221556D01*
X207293542Y-128039928D01*
X207301586Y-127963399D01*
X207312814Y-127856565D01*
X207313504Y-127850000D01*
X207311049Y-127826639D01*
X207294232Y-127666635D01*
X207294232Y-127666633D01*
X207293542Y-127660072D01*
X207234527Y-127478444D01*
X207139040Y-127313056D01*
X207117945Y-127289627D01*
X207015675Y-127176045D01*
X207015674Y-127176044D01*
X207011253Y-127171134D01*
X206903535Y-127092872D01*
X206862094Y-127062763D01*
X206862093Y-127062762D01*
X206856752Y-127058882D01*
X206850724Y-127056198D01*
X206850722Y-127056197D01*
X206688319Y-126983891D01*
X206688318Y-126983891D01*
X206682288Y-126981206D01*
X206588888Y-126961353D01*
X206501944Y-126942872D01*
X206501939Y-126942872D01*
X206495487Y-126941500D01*
X206304513Y-126941500D01*
X206298061Y-126942872D01*
X206298056Y-126942872D01*
X206211112Y-126961353D01*
X206117712Y-126981206D01*
X206111682Y-126983891D01*
X206111681Y-126983891D01*
X205949278Y-127056197D01*
X205949276Y-127056198D01*
X205943248Y-127058882D01*
X205937907Y-127062762D01*
X205937906Y-127062763D01*
X205896465Y-127092872D01*
X205788747Y-127171134D01*
X205784326Y-127176044D01*
X205784325Y-127176045D01*
X205682056Y-127289627D01*
X205660960Y-127313056D01*
X205565473Y-127478444D01*
X205506458Y-127660072D01*
X205505768Y-127666633D01*
X205505768Y-127666635D01*
X205488951Y-127826639D01*
X205486496Y-127850000D01*
X205487186Y-127856565D01*
X205498415Y-127963399D01*
X205506458Y-128039928D01*
X205565473Y-128221556D01*
X205568776Y-128227278D01*
X205568777Y-128227279D01*
X205577002Y-128241525D01*
X205660960Y-128386944D01*
X205665378Y-128391851D01*
X205665379Y-128391852D01*
X205746023Y-128481416D01*
X205788747Y-128528866D01*
X205810150Y-128544416D01*
X205900485Y-128610049D01*
X205943839Y-128666272D01*
X205949914Y-128737008D01*
X205916782Y-128799799D01*
X205854962Y-128834711D01*
X205819724Y-128836646D01*
X205819720Y-128837287D01*
X205812672Y-128837238D01*
X205805680Y-128836404D01*
X205798677Y-128837140D01*
X205798676Y-128837140D01*
X205632288Y-128854628D01*
X205632286Y-128854629D01*
X205625288Y-128855364D01*
X205453579Y-128913818D01*
X205442043Y-128920915D01*
X205305095Y-129005166D01*
X205305092Y-129005168D01*
X205299088Y-129008862D01*
X205294053Y-129013793D01*
X205294050Y-129013795D01*
X205184567Y-129121009D01*
X205169493Y-129135771D01*
X205071235Y-129288238D01*
X205068826Y-129294858D01*
X205068824Y-129294861D01*
X205016639Y-129438238D01*
X205009197Y-129458685D01*
X204986463Y-129638640D01*
X201183003Y-129638640D01*
X201183324Y-129638054D01*
X201228478Y-129517606D01*
X201232105Y-129502351D01*
X201237631Y-129451486D01*
X201238000Y-129444672D01*
X201238000Y-128772115D01*
X201233525Y-128756876D01*
X201232135Y-128755671D01*
X201224452Y-128754000D01*
X200652115Y-128754000D01*
X200636876Y-128758475D01*
X200635671Y-128759865D01*
X200634000Y-128767548D01*
X200634000Y-129889884D01*
X200126000Y-129889884D01*
X200126000Y-128428688D01*
X200146002Y-128360567D01*
X200160150Y-128342435D01*
X200165170Y-128337090D01*
X200165173Y-128337086D01*
X200170597Y-128331310D01*
X200174416Y-128324364D01*
X200174418Y-128324361D01*
X200180359Y-128313555D01*
X200191207Y-128297040D01*
X200192959Y-128294781D01*
X200250512Y-128253210D01*
X200292524Y-128246000D01*
X201219884Y-128246000D01*
X201235123Y-128241525D01*
X201236328Y-128240135D01*
X201237999Y-128232452D01*
X201237999Y-127555331D01*
X201237629Y-127548510D01*
X201232105Y-127497648D01*
X201228479Y-127482396D01*
X201183324Y-127361946D01*
X201174786Y-127346351D01*
X201093063Y-127237308D01*
X201068215Y-127170801D01*
X201083268Y-127101419D01*
X201120633Y-127061149D01*
X201126000Y-127049309D01*
X201126000Y-127043558D01*
X201634000Y-127043558D01*
X201637973Y-127057089D01*
X201645871Y-127058224D01*
X201771784Y-127021643D01*
X201786220Y-127015396D01*
X201913499Y-126940124D01*
X201925926Y-126930484D01*
X202030484Y-126825926D01*
X202040124Y-126813499D01*
X202115396Y-126686220D01*
X202121643Y-126671784D01*
X202163312Y-126528359D01*
X202164768Y-126520391D01*
X202161948Y-126506969D01*
X202150487Y-126504000D01*
X201652115Y-126504000D01*
X201636876Y-126508475D01*
X201635671Y-126509865D01*
X201634000Y-126517548D01*
X201634000Y-127043558D01*
X201126000Y-127043558D01*
X201126000Y-126771379D01*
X201143546Y-126707240D01*
X201155859Y-126686420D01*
X201155859Y-126686419D01*
X201159894Y-126679597D01*
X201205606Y-126522254D01*
X201206582Y-126509865D01*
X201208307Y-126487940D01*
X201208307Y-126487932D01*
X201208500Y-126485484D01*
X201208500Y-126014516D01*
X201207043Y-125996000D01*
X201206111Y-125984156D01*
X201206110Y-125984151D01*
X201205617Y-125977885D01*
X201634000Y-125977885D01*
X201638475Y-125993124D01*
X201639865Y-125994329D01*
X201647548Y-125996000D01*
X202148424Y-125996000D01*
X202163219Y-125991656D01*
X202165063Y-125981225D01*
X202163312Y-125971641D01*
X202121643Y-125828216D01*
X202115396Y-125813780D01*
X202040124Y-125686501D01*
X202030484Y-125674074D01*
X201925928Y-125569518D01*
X201916260Y-125562018D01*
X201874696Y-125504460D01*
X201870849Y-125433568D01*
X201905939Y-125371849D01*
X201935115Y-125350800D01*
X202007413Y-125313003D01*
X202017671Y-125306290D01*
X202164414Y-125188305D01*
X202173180Y-125179722D01*
X202294216Y-125035476D01*
X202301142Y-125025362D01*
X202391859Y-124860348D01*
X202396687Y-124849084D01*
X202423233Y-124765400D01*
X208126500Y-124765400D01*
X208126837Y-124768646D01*
X208126837Y-124768650D01*
X208136352Y-124860348D01*
X208137474Y-124871166D01*
X208139655Y-124877702D01*
X208139655Y-124877704D01*
X208169211Y-124966294D01*
X208193450Y-125038946D01*
X208286522Y-125189348D01*
X208291704Y-125194521D01*
X208311523Y-125214305D01*
X208411697Y-125314305D01*
X208417927Y-125318145D01*
X208417928Y-125318146D01*
X208555090Y-125402694D01*
X208562262Y-125407115D01*
X208632480Y-125430405D01*
X208723611Y-125460632D01*
X208723613Y-125460632D01*
X208730139Y-125462797D01*
X208736975Y-125463497D01*
X208736978Y-125463498D01*
X208774869Y-125467380D01*
X208834600Y-125473500D01*
X209465400Y-125473500D01*
X209468646Y-125473163D01*
X209468650Y-125473163D01*
X209564308Y-125463238D01*
X209564312Y-125463237D01*
X209571166Y-125462526D01*
X209577702Y-125460345D01*
X209577704Y-125460345D01*
X209709806Y-125416272D01*
X209738946Y-125406550D01*
X209889348Y-125313478D01*
X209894522Y-125308295D01*
X209894527Y-125308291D01*
X209898138Y-125304674D01*
X209960421Y-125270595D01*
X210031241Y-125275600D01*
X210067625Y-125296609D01*
X210074897Y-125302625D01*
X210251459Y-125398092D01*
X210347330Y-125427769D01*
X210437314Y-125455624D01*
X210437317Y-125455625D01*
X210443201Y-125457446D01*
X210449326Y-125458090D01*
X210449327Y-125458090D01*
X210636692Y-125477783D01*
X210636693Y-125477783D01*
X210642820Y-125478427D01*
X210725838Y-125470872D01*
X210836574Y-125460794D01*
X210836577Y-125460793D01*
X210842713Y-125460235D01*
X210848619Y-125458497D01*
X210848623Y-125458496D01*
X211015371Y-125409419D01*
X211035265Y-125403564D01*
X211213142Y-125310572D01*
X211262864Y-125270595D01*
X211321382Y-125223545D01*
X211387005Y-125196449D01*
X211456859Y-125209132D01*
X211480649Y-125224657D01*
X211570147Y-125298697D01*
X211570157Y-125298704D01*
X211574897Y-125302625D01*
X211751459Y-125398092D01*
X211847330Y-125427769D01*
X211937314Y-125455624D01*
X211937317Y-125455625D01*
X211943201Y-125457446D01*
X211949326Y-125458090D01*
X211949327Y-125458090D01*
X212136692Y-125477783D01*
X212136693Y-125477783D01*
X212142820Y-125478427D01*
X212225838Y-125470872D01*
X212336574Y-125460794D01*
X212336577Y-125460793D01*
X212342713Y-125460235D01*
X212348619Y-125458497D01*
X212348623Y-125458496D01*
X212515371Y-125409419D01*
X212535265Y-125403564D01*
X212713142Y-125310572D01*
X212762864Y-125270595D01*
X212821780Y-125223225D01*
X212887403Y-125196129D01*
X212957257Y-125208812D01*
X212981047Y-125224337D01*
X213070428Y-125298280D01*
X213080599Y-125305140D01*
X213246235Y-125394699D01*
X213257540Y-125399451D01*
X213378692Y-125436954D01*
X213392795Y-125437160D01*
X213396000Y-125430405D01*
X213396000Y-125423562D01*
X213904000Y-125423562D01*
X213907973Y-125437093D01*
X213915768Y-125438213D01*
X214029168Y-125404838D01*
X214040536Y-125400245D01*
X214207409Y-125313006D01*
X214217671Y-125306290D01*
X214364414Y-125188305D01*
X214373180Y-125179722D01*
X214494216Y-125035476D01*
X214501142Y-125025362D01*
X214591859Y-124860348D01*
X214596687Y-124849084D01*
X214653625Y-124669593D01*
X214656173Y-124657604D01*
X214672607Y-124511091D01*
X214673000Y-124504067D01*
X214673000Y-124372115D01*
X214668525Y-124356876D01*
X214667135Y-124355671D01*
X214659452Y-124354000D01*
X213922115Y-124354000D01*
X213906876Y-124358475D01*
X213905671Y-124359865D01*
X213904000Y-124367548D01*
X213904000Y-125423562D01*
X213396000Y-125423562D01*
X213396000Y-123827885D01*
X213904000Y-123827885D01*
X213908475Y-123843124D01*
X213909865Y-123844329D01*
X213917548Y-123846000D01*
X214654885Y-123846000D01*
X214670124Y-123841525D01*
X214671329Y-123840135D01*
X214673000Y-123832452D01*
X214673000Y-123702599D01*
X214672699Y-123696451D01*
X214658974Y-123556470D01*
X214656591Y-123544435D01*
X214602168Y-123364179D01*
X214597493Y-123352837D01*
X214509095Y-123186583D01*
X214502308Y-123176367D01*
X214383298Y-123030446D01*
X214374654Y-123021742D01*
X214229572Y-122901720D01*
X214219401Y-122894860D01*
X214053765Y-122805301D01*
X214042460Y-122800549D01*
X213921308Y-122763046D01*
X213907205Y-122762840D01*
X213904000Y-122769595D01*
X213904000Y-123827885D01*
X213396000Y-123827885D01*
X213396000Y-122776438D01*
X213392027Y-122762907D01*
X213384232Y-122761787D01*
X213270832Y-122795162D01*
X213259464Y-122799755D01*
X213092591Y-122886994D01*
X213082329Y-122893710D01*
X212979011Y-122976780D01*
X212913389Y-123003877D01*
X212843534Y-122991194D01*
X212819743Y-122975668D01*
X212729853Y-122901304D01*
X212729849Y-122901302D01*
X212725103Y-122897375D01*
X212548541Y-122801908D01*
X212446558Y-122770339D01*
X212362686Y-122744376D01*
X212362683Y-122744375D01*
X212356799Y-122742554D01*
X212350674Y-122741910D01*
X212350673Y-122741910D01*
X212163308Y-122722217D01*
X212163307Y-122722217D01*
X212157180Y-122721573D01*
X212074162Y-122729128D01*
X211963426Y-122739206D01*
X211963423Y-122739207D01*
X211957287Y-122739765D01*
X211951381Y-122741503D01*
X211951377Y-122741504D01*
X211811515Y-122782668D01*
X211764735Y-122796436D01*
X211586858Y-122889428D01*
X211582058Y-122893288D01*
X211582057Y-122893288D01*
X211478618Y-122976455D01*
X211412995Y-123003551D01*
X211343141Y-122990868D01*
X211319351Y-122975343D01*
X211229853Y-122901303D01*
X211229843Y-122901296D01*
X211225103Y-122897375D01*
X211048541Y-122801908D01*
X210946558Y-122770339D01*
X210862686Y-122744376D01*
X210862683Y-122744375D01*
X210856799Y-122742554D01*
X210850674Y-122741910D01*
X210850673Y-122741910D01*
X210663308Y-122722217D01*
X210663307Y-122722217D01*
X210657180Y-122721573D01*
X210574162Y-122729128D01*
X210463426Y-122739206D01*
X210463423Y-122739207D01*
X210457287Y-122739765D01*
X210451381Y-122741503D01*
X210451377Y-122741504D01*
X210311515Y-122782668D01*
X210264735Y-122796436D01*
X210086858Y-122889428D01*
X210072089Y-122901303D01*
X210066983Y-122905408D01*
X210001361Y-122932505D01*
X209931506Y-122919822D01*
X209899014Y-122896387D01*
X209893484Y-122890867D01*
X209888303Y-122885695D01*
X209869668Y-122874208D01*
X209743968Y-122796725D01*
X209743966Y-122796724D01*
X209737738Y-122792885D01*
X209643980Y-122761787D01*
X209576389Y-122739368D01*
X209576387Y-122739368D01*
X209569861Y-122737203D01*
X209563025Y-122736503D01*
X209563022Y-122736502D01*
X209519969Y-122732091D01*
X209465400Y-122726500D01*
X208834600Y-122726500D01*
X208831354Y-122726837D01*
X208831350Y-122726837D01*
X208735692Y-122736762D01*
X208735688Y-122736763D01*
X208728834Y-122737474D01*
X208722298Y-122739655D01*
X208722296Y-122739655D01*
X208595811Y-122781854D01*
X208561054Y-122793450D01*
X208410652Y-122886522D01*
X208405479Y-122891704D01*
X208401138Y-122896053D01*
X208285695Y-123011697D01*
X208192885Y-123162262D01*
X208172537Y-123223611D01*
X208143796Y-123310263D01*
X208137203Y-123330139D01*
X208126500Y-123434600D01*
X208126500Y-124765400D01*
X202423233Y-124765400D01*
X202453625Y-124669593D01*
X202456173Y-124657604D01*
X202472607Y-124511091D01*
X202473000Y-124504067D01*
X202473000Y-124372115D01*
X202468525Y-124356876D01*
X202467135Y-124355671D01*
X202459452Y-124354000D01*
X201722115Y-124354000D01*
X201706876Y-124358475D01*
X201705671Y-124359865D01*
X201704000Y-124367548D01*
X201704000Y-125403443D01*
X201683998Y-125471564D01*
X201654540Y-125497090D01*
X201635671Y-125518865D01*
X201634000Y-125526548D01*
X201634000Y-125977885D01*
X201205617Y-125977885D01*
X201205606Y-125977746D01*
X201159894Y-125820403D01*
X201143546Y-125792760D01*
X201126000Y-125728621D01*
X201126000Y-125501557D01*
X201146002Y-125433436D01*
X201175460Y-125407910D01*
X201194329Y-125386135D01*
X201196000Y-125378452D01*
X201196000Y-123827885D01*
X201704000Y-123827885D01*
X201708475Y-123843124D01*
X201709865Y-123844329D01*
X201717548Y-123846000D01*
X202454885Y-123846000D01*
X202470124Y-123841525D01*
X202471329Y-123840135D01*
X202473000Y-123832452D01*
X202473000Y-123702599D01*
X202472699Y-123696451D01*
X202458974Y-123556470D01*
X202456591Y-123544435D01*
X202402168Y-123364179D01*
X202397493Y-123352837D01*
X202309095Y-123186583D01*
X202302308Y-123176367D01*
X202183298Y-123030446D01*
X202174654Y-123021742D01*
X202029572Y-122901720D01*
X202019401Y-122894860D01*
X201853765Y-122805301D01*
X201842460Y-122800549D01*
X201721308Y-122763046D01*
X201707205Y-122762840D01*
X201704000Y-122769595D01*
X201704000Y-123827885D01*
X201196000Y-123827885D01*
X201196000Y-122776438D01*
X201192027Y-122762907D01*
X201184232Y-122761787D01*
X201070832Y-122795162D01*
X201059464Y-122799755D01*
X200892591Y-122886994D01*
X200882329Y-122893710D01*
X200779011Y-122976780D01*
X200713389Y-123003877D01*
X200643534Y-122991194D01*
X200619743Y-122975668D01*
X200529853Y-122901304D01*
X200529849Y-122901302D01*
X200525103Y-122897375D01*
X200348541Y-122801908D01*
X200246558Y-122770339D01*
X200162686Y-122744376D01*
X200162683Y-122744375D01*
X200156799Y-122742554D01*
X200150674Y-122741910D01*
X200150673Y-122741910D01*
X199963308Y-122722217D01*
X199963307Y-122722217D01*
X199957180Y-122721573D01*
X199874162Y-122729128D01*
X199763426Y-122739206D01*
X199763423Y-122739207D01*
X199757287Y-122739765D01*
X199751381Y-122741503D01*
X199751377Y-122741504D01*
X199611515Y-122782668D01*
X199564735Y-122796436D01*
X199386858Y-122889428D01*
X199382058Y-122893288D01*
X199382057Y-122893288D01*
X199278618Y-122976455D01*
X199212995Y-123003551D01*
X199143141Y-122990868D01*
X199119351Y-122975343D01*
X199029853Y-122901303D01*
X199029843Y-122901296D01*
X199025103Y-122897375D01*
X198848541Y-122801908D01*
X198746558Y-122770339D01*
X198662686Y-122744376D01*
X198662683Y-122744375D01*
X198656799Y-122742554D01*
X198650674Y-122741910D01*
X198650673Y-122741910D01*
X198463308Y-122722217D01*
X198463307Y-122722217D01*
X198457180Y-122721573D01*
X198374162Y-122729128D01*
X198263426Y-122739206D01*
X198263423Y-122739207D01*
X198257287Y-122739765D01*
X198251381Y-122741503D01*
X198251377Y-122741504D01*
X198111515Y-122782668D01*
X198064735Y-122796436D01*
X197886858Y-122889428D01*
X197872089Y-122901303D01*
X197866983Y-122905408D01*
X197801361Y-122932505D01*
X197731506Y-122919822D01*
X197699014Y-122896387D01*
X197693484Y-122890867D01*
X197688303Y-122885695D01*
X197669668Y-122874208D01*
X197543968Y-122796725D01*
X197543966Y-122796724D01*
X197537738Y-122792885D01*
X197443980Y-122761787D01*
X197376389Y-122739368D01*
X197376387Y-122739368D01*
X197369861Y-122737203D01*
X197363025Y-122736503D01*
X197363022Y-122736502D01*
X197319969Y-122732091D01*
X197265400Y-122726500D01*
X196634600Y-122726500D01*
X196631354Y-122726837D01*
X196631350Y-122726837D01*
X196535692Y-122736762D01*
X196535688Y-122736763D01*
X196528834Y-122737474D01*
X196522298Y-122739655D01*
X196522296Y-122739655D01*
X196395811Y-122781854D01*
X196361054Y-122793450D01*
X196210652Y-122886522D01*
X196205479Y-122891704D01*
X196201138Y-122896053D01*
X196085695Y-123011697D01*
X195992885Y-123162262D01*
X195972537Y-123223611D01*
X195943796Y-123310263D01*
X195937203Y-123330139D01*
X195926500Y-123434600D01*
X195926500Y-124765400D01*
X195926837Y-124768646D01*
X195926837Y-124768650D01*
X195936352Y-124860348D01*
X195937474Y-124871166D01*
X195939655Y-124877702D01*
X195939655Y-124877704D01*
X195969211Y-124966294D01*
X195993450Y-125038946D01*
X196086522Y-125189348D01*
X196091704Y-125194521D01*
X196111523Y-125214305D01*
X196211697Y-125314305D01*
X196217927Y-125318145D01*
X196217928Y-125318146D01*
X196355090Y-125402694D01*
X196362262Y-125407115D01*
X196432480Y-125430405D01*
X196523611Y-125460632D01*
X196523613Y-125460632D01*
X196530139Y-125462797D01*
X196536975Y-125463497D01*
X196536978Y-125463498D01*
X196574869Y-125467380D01*
X196634600Y-125473500D01*
X197265400Y-125473500D01*
X197268646Y-125473163D01*
X197268650Y-125473163D01*
X197364308Y-125463238D01*
X197364312Y-125463237D01*
X197371166Y-125462526D01*
X197377702Y-125460345D01*
X197377704Y-125460345D01*
X197509806Y-125416272D01*
X197538946Y-125406550D01*
X197689348Y-125313478D01*
X197694522Y-125308295D01*
X197694527Y-125308291D01*
X197698138Y-125304674D01*
X197760421Y-125270595D01*
X197831241Y-125275600D01*
X197867625Y-125296609D01*
X197874897Y-125302625D01*
X198051459Y-125398092D01*
X198147330Y-125427769D01*
X198237314Y-125455624D01*
X198237317Y-125455625D01*
X198243201Y-125457446D01*
X198249326Y-125458090D01*
X198249327Y-125458090D01*
X198436692Y-125477783D01*
X198436693Y-125477783D01*
X198442820Y-125478427D01*
X198525838Y-125470872D01*
X198636574Y-125460794D01*
X198636577Y-125460793D01*
X198642713Y-125460235D01*
X198648619Y-125458497D01*
X198648623Y-125458496D01*
X198815371Y-125409419D01*
X198835265Y-125403564D01*
X198929803Y-125354141D01*
X198999438Y-125340306D01*
X199013379Y-125345795D01*
X199013449Y-125338426D01*
X199055050Y-125276877D01*
X199056639Y-125275600D01*
X199121382Y-125223545D01*
X199187005Y-125196449D01*
X199256859Y-125209132D01*
X199280648Y-125224656D01*
X199299351Y-125240128D01*
X199339090Y-125298961D01*
X199340713Y-125369939D01*
X199303705Y-125430527D01*
X199270286Y-125452321D01*
X199185251Y-125490181D01*
X199114884Y-125499615D01*
X199109493Y-125497091D01*
X199075648Y-125556494D01*
X199062240Y-125567738D01*
X198988747Y-125621134D01*
X198860960Y-125763056D01*
X198765473Y-125928444D01*
X198706458Y-126110072D01*
X198686496Y-126300000D01*
X198706458Y-126489928D01*
X198765473Y-126671556D01*
X198860960Y-126836944D01*
X198900801Y-126881192D01*
X198931517Y-126945198D01*
X198922752Y-127015651D01*
X198877289Y-127070182D01*
X198807163Y-127091500D01*
X198711866Y-127091500D01*
X198649684Y-127098255D01*
X198642288Y-127101027D01*
X198642282Y-127101029D01*
X198519229Y-127147160D01*
X198448422Y-127152343D01*
X198430771Y-127147160D01*
X198307718Y-127101029D01*
X198307712Y-127101027D01*
X198300316Y-127098255D01*
X198238134Y-127091500D01*
X197441866Y-127091500D01*
X197379684Y-127098255D01*
X197372288Y-127101027D01*
X197372282Y-127101029D01*
X197249229Y-127147160D01*
X197178422Y-127152343D01*
X197160771Y-127147160D01*
X197037718Y-127101029D01*
X197037712Y-127101027D01*
X197030316Y-127098255D01*
X196968134Y-127091500D01*
X196171866Y-127091500D01*
X196109684Y-127098255D01*
X196102288Y-127101027D01*
X196102282Y-127101029D01*
X195979229Y-127147160D01*
X195908422Y-127152343D01*
X195890771Y-127147160D01*
X195767718Y-127101029D01*
X195767712Y-127101027D01*
X195760316Y-127098255D01*
X195698134Y-127091500D01*
X194901866Y-127091500D01*
X194839684Y-127098255D01*
X194744625Y-127133891D01*
X194708518Y-127147427D01*
X194637710Y-127152610D01*
X194620058Y-127147427D01*
X194497606Y-127101522D01*
X194482351Y-127097895D01*
X194431486Y-127092369D01*
X194424672Y-127092000D01*
X194302115Y-127092000D01*
X194286876Y-127096475D01*
X194285671Y-127097865D01*
X194284000Y-127105548D01*
X194284000Y-128628000D01*
X194263998Y-128696121D01*
X194210342Y-128742614D01*
X194158000Y-128754000D01*
X193032115Y-128754000D01*
X193016876Y-128758475D01*
X193015671Y-128759865D01*
X193014000Y-128767548D01*
X193014000Y-129889884D01*
X192506000Y-129889884D01*
X192506000Y-128772115D01*
X192501525Y-128756876D01*
X192500135Y-128755671D01*
X192492452Y-128754000D01*
X191762115Y-128754000D01*
X191746876Y-128758475D01*
X191745671Y-128759865D01*
X191744000Y-128767548D01*
X191744000Y-129889884D01*
X191236000Y-129889884D01*
X191236000Y-128772115D01*
X191231525Y-128756876D01*
X191230135Y-128755671D01*
X191222452Y-128754000D01*
X190650116Y-128754000D01*
X190634877Y-128758475D01*
X190633672Y-128759865D01*
X190632001Y-128767548D01*
X190632001Y-129444669D01*
X185076098Y-129444669D01*
X184977922Y-129346493D01*
X184967055Y-129334102D01*
X184953424Y-129316338D01*
X184948398Y-129309788D01*
X184825464Y-129215457D01*
X184756178Y-129186758D01*
X184682305Y-129156158D01*
X184674118Y-129155080D01*
X184674117Y-129155080D01*
X184536864Y-129137011D01*
X184528675Y-129135933D01*
X184498329Y-129139928D01*
X184498291Y-129139933D01*
X184481845Y-129141011D01*
X183250420Y-129141011D01*
X183182299Y-129121009D01*
X183135806Y-129067353D01*
X183125702Y-128997079D01*
X183155196Y-128932499D01*
X183214922Y-128894115D01*
X183224223Y-128891764D01*
X183332288Y-128868794D01*
X183338319Y-128866109D01*
X183500722Y-128793803D01*
X183500724Y-128793802D01*
X183506752Y-128791118D01*
X183661253Y-128678866D01*
X183665675Y-128673955D01*
X183784621Y-128541852D01*
X183784622Y-128541851D01*
X183789040Y-128536944D01*
X183884527Y-128371556D01*
X183931209Y-128227885D01*
X190632000Y-128227885D01*
X190636475Y-128243124D01*
X190637865Y-128244329D01*
X190645548Y-128246000D01*
X191217885Y-128246000D01*
X191233124Y-128241525D01*
X191234329Y-128240135D01*
X191236000Y-128232452D01*
X191236000Y-128227885D01*
X191744000Y-128227885D01*
X191748475Y-128243124D01*
X191749865Y-128244329D01*
X191757548Y-128246000D01*
X192487885Y-128246000D01*
X192503124Y-128241525D01*
X192504329Y-128240135D01*
X192506000Y-128232452D01*
X192506000Y-128227885D01*
X193014000Y-128227885D01*
X193018475Y-128243124D01*
X193019865Y-128244329D01*
X193027548Y-128246000D01*
X193757885Y-128246000D01*
X193773124Y-128241525D01*
X193774329Y-128240135D01*
X193776000Y-128232452D01*
X193776000Y-127110116D01*
X193771525Y-127094877D01*
X193770135Y-127093672D01*
X193762452Y-127092001D01*
X193635331Y-127092001D01*
X193628510Y-127092371D01*
X193577648Y-127097895D01*
X193562396Y-127101521D01*
X193439230Y-127147694D01*
X193368422Y-127152877D01*
X193350770Y-127147694D01*
X193227606Y-127101522D01*
X193212351Y-127097895D01*
X193161486Y-127092369D01*
X193154672Y-127092000D01*
X193032115Y-127092000D01*
X193016876Y-127096475D01*
X193015671Y-127097865D01*
X193014000Y-127105548D01*
X193014000Y-128227885D01*
X192506000Y-128227885D01*
X192506000Y-127110116D01*
X192501525Y-127094877D01*
X192500135Y-127093672D01*
X192492452Y-127092001D01*
X192365331Y-127092001D01*
X192358510Y-127092371D01*
X192307648Y-127097895D01*
X192292396Y-127101521D01*
X192169230Y-127147694D01*
X192098422Y-127152877D01*
X192080770Y-127147694D01*
X191957606Y-127101522D01*
X191942351Y-127097895D01*
X191891486Y-127092369D01*
X191884672Y-127092000D01*
X191762115Y-127092000D01*
X191746876Y-127096475D01*
X191745671Y-127097865D01*
X191744000Y-127105548D01*
X191744000Y-128227885D01*
X191236000Y-128227885D01*
X191236000Y-127110116D01*
X191231525Y-127094877D01*
X191230135Y-127093672D01*
X191222452Y-127092001D01*
X191095331Y-127092001D01*
X191088510Y-127092371D01*
X191037648Y-127097895D01*
X191022396Y-127101521D01*
X190901946Y-127146676D01*
X190886351Y-127155214D01*
X190784276Y-127231715D01*
X190771715Y-127244276D01*
X190695214Y-127346351D01*
X190686676Y-127361946D01*
X190641522Y-127482394D01*
X190637895Y-127497649D01*
X190632369Y-127548514D01*
X190632000Y-127555328D01*
X190632000Y-128227885D01*
X183931209Y-128227885D01*
X183943542Y-128189928D01*
X183944538Y-128180458D01*
X183962814Y-128006565D01*
X183963504Y-128000000D01*
X183943542Y-127810072D01*
X183884527Y-127628444D01*
X183789040Y-127463056D01*
X183770504Y-127442469D01*
X183665675Y-127326045D01*
X183665674Y-127326044D01*
X183661253Y-127321134D01*
X183562157Y-127249136D01*
X183512094Y-127212763D01*
X183512093Y-127212762D01*
X183506752Y-127208882D01*
X183500724Y-127206198D01*
X183500722Y-127206197D01*
X183338319Y-127133891D01*
X183338318Y-127133891D01*
X183332288Y-127131206D01*
X183233068Y-127110116D01*
X183151944Y-127092872D01*
X183151939Y-127092872D01*
X183145487Y-127091500D01*
X182954513Y-127091500D01*
X182948061Y-127092872D01*
X182948056Y-127092872D01*
X182866932Y-127110116D01*
X182767712Y-127131206D01*
X182761682Y-127133891D01*
X182761681Y-127133891D01*
X182599278Y-127206197D01*
X182599276Y-127206198D01*
X182593248Y-127208882D01*
X182587907Y-127212762D01*
X182587906Y-127212763D01*
X182537843Y-127249136D01*
X182438747Y-127321134D01*
X182434326Y-127326044D01*
X182434325Y-127326045D01*
X182329497Y-127442469D01*
X182310960Y-127463056D01*
X182215473Y-127628444D01*
X182156458Y-127810072D01*
X182136496Y-128000000D01*
X182137186Y-128006565D01*
X182155463Y-128180458D01*
X182156458Y-128189928D01*
X182215473Y-128371556D01*
X182310960Y-128536944D01*
X182315378Y-128541851D01*
X182315379Y-128541852D01*
X182434325Y-128673955D01*
X182438747Y-128678866D01*
X182593248Y-128791118D01*
X182599276Y-128793802D01*
X182599278Y-128793803D01*
X182761681Y-128866109D01*
X182767712Y-128868794D01*
X182875777Y-128891764D01*
X182938250Y-128925493D01*
X182972572Y-128987642D01*
X182967844Y-129058481D01*
X182925568Y-129115519D01*
X182859167Y-129140646D01*
X182849580Y-129141011D01*
X181274000Y-129141011D01*
X181205879Y-129121009D01*
X181159386Y-129067353D01*
X181148000Y-129015011D01*
X181148000Y-128772115D01*
X181143525Y-128756876D01*
X181142135Y-128755671D01*
X181134452Y-128754000D01*
X177622000Y-128754000D01*
X177553879Y-128733998D01*
X177507386Y-128680342D01*
X177496000Y-128628000D01*
X177496000Y-128227885D01*
X178004000Y-128227885D01*
X178008475Y-128243124D01*
X178009865Y-128244329D01*
X178017548Y-128246000D01*
X178747885Y-128246000D01*
X178763124Y-128241525D01*
X178764329Y-128240135D01*
X178766000Y-128232452D01*
X178766000Y-128227885D01*
X179274000Y-128227885D01*
X179278475Y-128243124D01*
X179279865Y-128244329D01*
X179287548Y-128246000D01*
X180017885Y-128246000D01*
X180033124Y-128241525D01*
X180034329Y-128240135D01*
X180036000Y-128232452D01*
X180036000Y-128227885D01*
X180544000Y-128227885D01*
X180548475Y-128243124D01*
X180549865Y-128244329D01*
X180557548Y-128246000D01*
X181129884Y-128246000D01*
X181145123Y-128241525D01*
X181146328Y-128240135D01*
X181147999Y-128232452D01*
X181147999Y-127555331D01*
X181147629Y-127548510D01*
X181142105Y-127497648D01*
X181138479Y-127482396D01*
X181093324Y-127361946D01*
X181084786Y-127346351D01*
X181008285Y-127244276D01*
X180995724Y-127231715D01*
X180893649Y-127155214D01*
X180878054Y-127146676D01*
X180757606Y-127101522D01*
X180742351Y-127097895D01*
X180691486Y-127092369D01*
X180684672Y-127092000D01*
X180562115Y-127092000D01*
X180546876Y-127096475D01*
X180545671Y-127097865D01*
X180544000Y-127105548D01*
X180544000Y-128227885D01*
X180036000Y-128227885D01*
X180036000Y-127110116D01*
X180031525Y-127094877D01*
X180030135Y-127093672D01*
X180022452Y-127092001D01*
X179895331Y-127092001D01*
X179888510Y-127092371D01*
X179837648Y-127097895D01*
X179822396Y-127101521D01*
X179699230Y-127147694D01*
X179628422Y-127152877D01*
X179610770Y-127147694D01*
X179487606Y-127101522D01*
X179472351Y-127097895D01*
X179421486Y-127092369D01*
X179414672Y-127092000D01*
X179292115Y-127092000D01*
X179276876Y-127096475D01*
X179275671Y-127097865D01*
X179274000Y-127105548D01*
X179274000Y-128227885D01*
X178766000Y-128227885D01*
X178766000Y-127110116D01*
X178761525Y-127094877D01*
X178760135Y-127093672D01*
X178752452Y-127092001D01*
X178625331Y-127092001D01*
X178618510Y-127092371D01*
X178567648Y-127097895D01*
X178552396Y-127101521D01*
X178429230Y-127147694D01*
X178358422Y-127152877D01*
X178340770Y-127147694D01*
X178217606Y-127101522D01*
X178202351Y-127097895D01*
X178151486Y-127092369D01*
X178144672Y-127092000D01*
X178022115Y-127092000D01*
X178006876Y-127096475D01*
X178005671Y-127097865D01*
X178004000Y-127105548D01*
X178004000Y-128227885D01*
X177496000Y-128227885D01*
X177496000Y-127110116D01*
X177491525Y-127094877D01*
X177490135Y-127093672D01*
X177469217Y-127089122D01*
X177469546Y-127087610D01*
X177416379Y-127071999D01*
X177369886Y-127018343D01*
X177358500Y-126966001D01*
X177358500Y-124548390D01*
X177359285Y-124534345D01*
X177373107Y-124411115D01*
X177373500Y-124407615D01*
X177373500Y-124097500D01*
X193003996Y-124097500D01*
X193023958Y-124287428D01*
X193082973Y-124469056D01*
X193178460Y-124634444D01*
X193182878Y-124639351D01*
X193182879Y-124639352D01*
X193206333Y-124665400D01*
X193306247Y-124776366D01*
X193460748Y-124888618D01*
X193466776Y-124891302D01*
X193466778Y-124891303D01*
X193573787Y-124938946D01*
X193635212Y-124966294D01*
X193728612Y-124986147D01*
X193815556Y-125004628D01*
X193815561Y-125004628D01*
X193822013Y-125006000D01*
X194012987Y-125006000D01*
X194019439Y-125004628D01*
X194019444Y-125004628D01*
X194106388Y-124986147D01*
X194199788Y-124966294D01*
X194261213Y-124938946D01*
X194368222Y-124891303D01*
X194368224Y-124891302D01*
X194374252Y-124888618D01*
X194528753Y-124776366D01*
X194628667Y-124665400D01*
X194652121Y-124639352D01*
X194652122Y-124639351D01*
X194656540Y-124634444D01*
X194752027Y-124469056D01*
X194811042Y-124287428D01*
X194831004Y-124097500D01*
X194811042Y-123907572D01*
X194752027Y-123725944D01*
X194656540Y-123560556D01*
X194546026Y-123437817D01*
X194533175Y-123423545D01*
X194533174Y-123423544D01*
X194528753Y-123418634D01*
X194374252Y-123306382D01*
X194368224Y-123303698D01*
X194368222Y-123303697D01*
X194205819Y-123231391D01*
X194205818Y-123231391D01*
X194199788Y-123228706D01*
X194106388Y-123208853D01*
X194019444Y-123190372D01*
X194019439Y-123190372D01*
X194012987Y-123189000D01*
X193822013Y-123189000D01*
X193815561Y-123190372D01*
X193815556Y-123190372D01*
X193728612Y-123208853D01*
X193635212Y-123228706D01*
X193629182Y-123231391D01*
X193629181Y-123231391D01*
X193466778Y-123303697D01*
X193466776Y-123303698D01*
X193460748Y-123306382D01*
X193306247Y-123418634D01*
X193301826Y-123423544D01*
X193301825Y-123423545D01*
X193288975Y-123437817D01*
X193178460Y-123560556D01*
X193082973Y-123725944D01*
X193023958Y-123907572D01*
X193003996Y-124097500D01*
X177373500Y-124097500D01*
X177373500Y-123599496D01*
X177358865Y-123450239D01*
X177354144Y-123434600D01*
X177324923Y-123337817D01*
X177300851Y-123258087D01*
X177206620Y-123080863D01*
X177079759Y-122925318D01*
X176925103Y-122797375D01*
X176748541Y-122701908D01*
X176652670Y-122672231D01*
X176562686Y-122644376D01*
X176562683Y-122644375D01*
X176556799Y-122642554D01*
X176550674Y-122641910D01*
X176550673Y-122641910D01*
X176363308Y-122622217D01*
X176363307Y-122622217D01*
X176357180Y-122621573D01*
X176274162Y-122629128D01*
X176163426Y-122639206D01*
X176163423Y-122639207D01*
X176157287Y-122639765D01*
X176151381Y-122641503D01*
X176151377Y-122641504D01*
X176009121Y-122683373D01*
X175964735Y-122696436D01*
X175786858Y-122789428D01*
X175782056Y-122793289D01*
X175766983Y-122805408D01*
X175701361Y-122832505D01*
X175631506Y-122819822D01*
X175599014Y-122796387D01*
X175593484Y-122790867D01*
X175588303Y-122785695D01*
X175582072Y-122781854D01*
X175443968Y-122696725D01*
X175443966Y-122696724D01*
X175437738Y-122692885D01*
X175357995Y-122666436D01*
X175276389Y-122639368D01*
X175276387Y-122639368D01*
X175269861Y-122637203D01*
X175263025Y-122636503D01*
X175263022Y-122636502D01*
X175219969Y-122632091D01*
X175165400Y-122626500D01*
X174534600Y-122626500D01*
X174531354Y-122626837D01*
X174531350Y-122626837D01*
X174435692Y-122636762D01*
X174435688Y-122636763D01*
X174428834Y-122637474D01*
X174422298Y-122639655D01*
X174422296Y-122639655D01*
X174413607Y-122642554D01*
X174261054Y-122693450D01*
X174110652Y-122786522D01*
X173985695Y-122911697D01*
X173981855Y-122917927D01*
X173981854Y-122917928D01*
X173915658Y-123025318D01*
X173892885Y-123062262D01*
X173837203Y-123230139D01*
X173826500Y-123334600D01*
X173826500Y-124665400D01*
X173826837Y-124668646D01*
X173826837Y-124668650D01*
X173836537Y-124762134D01*
X173837474Y-124771166D01*
X173839655Y-124777702D01*
X173839655Y-124777704D01*
X173868549Y-124864308D01*
X173893450Y-124938946D01*
X173986522Y-125089348D01*
X174111697Y-125214305D01*
X174117927Y-125218145D01*
X174117928Y-125218146D01*
X174249034Y-125298961D01*
X174262262Y-125307115D01*
X174295520Y-125318146D01*
X174423611Y-125360632D01*
X174423613Y-125360632D01*
X174430139Y-125362797D01*
X174436975Y-125363497D01*
X174436978Y-125363498D01*
X174480031Y-125367909D01*
X174534600Y-125373500D01*
X175165400Y-125373500D01*
X175168646Y-125373163D01*
X175168650Y-125373163D01*
X175202496Y-125369651D01*
X175272318Y-125382516D01*
X175324100Y-125431087D01*
X175341500Y-125494978D01*
X175341500Y-126780075D01*
X175321498Y-126848196D01*
X175304595Y-126869170D01*
X171179219Y-130994547D01*
X171169418Y-131003372D01*
X171138453Y-131028447D01*
X171126225Y-131043124D01*
X171106157Y-131067210D01*
X171103500Y-131070266D01*
X171101691Y-131072075D01*
X171099744Y-131074445D01*
X171099737Y-131074453D01*
X171073061Y-131106930D01*
X171072634Y-131107446D01*
X171011854Y-131180396D01*
X171010155Y-131183512D01*
X171007897Y-131186261D01*
X170993292Y-131213500D01*
X170963055Y-131269890D01*
X170962637Y-131270663D01*
X170917178Y-131354041D01*
X170916113Y-131357439D01*
X170914438Y-131360563D01*
X170912637Y-131366454D01*
X170886726Y-131451204D01*
X170886466Y-131452043D01*
X170859473Y-131538179D01*
X170820016Y-131597201D01*
X170754912Y-131625521D01*
X170684833Y-131614148D01*
X170650144Y-131589595D01*
X170145405Y-131084856D01*
X170111379Y-131022544D01*
X170108500Y-130995761D01*
X170108500Y-130630788D01*
X170128502Y-130562667D01*
X170140864Y-130546478D01*
X170234621Y-130442350D01*
X170234622Y-130442349D01*
X170239040Y-130437442D01*
X170334527Y-130272054D01*
X170393542Y-130090426D01*
X170395376Y-130072982D01*
X170412814Y-129907063D01*
X170413504Y-129900498D01*
X170404917Y-129818794D01*
X170394232Y-129717133D01*
X170394232Y-129717131D01*
X170393542Y-129710570D01*
X170334527Y-129528942D01*
X170321357Y-129506130D01*
X170293964Y-129458685D01*
X170239040Y-129363554D01*
X170203219Y-129323770D01*
X170115675Y-129226543D01*
X170115674Y-129226542D01*
X170111253Y-129221632D01*
X169999786Y-129140646D01*
X169962094Y-129113261D01*
X169962093Y-129113260D01*
X169956752Y-129109380D01*
X169950724Y-129106696D01*
X169950722Y-129106695D01*
X169788319Y-129034389D01*
X169788318Y-129034389D01*
X169782288Y-129031704D01*
X169674976Y-129008894D01*
X169601944Y-128993370D01*
X169601939Y-128993370D01*
X169595487Y-128991998D01*
X169404513Y-128991998D01*
X169398061Y-128993370D01*
X169398056Y-128993370D01*
X169325024Y-129008894D01*
X169217712Y-129031704D01*
X169211682Y-129034389D01*
X169211681Y-129034389D01*
X169049278Y-129106695D01*
X169049276Y-129106696D01*
X169043248Y-129109380D01*
X169037907Y-129113260D01*
X169037906Y-129113261D01*
X169000214Y-129140646D01*
X168888747Y-129221632D01*
X168830311Y-129286532D01*
X168769868Y-129323770D01*
X168698884Y-129322418D01*
X168639899Y-129282905D01*
X168611641Y-129217774D01*
X168610677Y-129202257D01*
X168608566Y-122073448D01*
X168628548Y-122005322D01*
X168682190Y-121958813D01*
X168734052Y-121947412D01*
X174272613Y-121924806D01*
X174334336Y-121940673D01*
X174530232Y-122049556D01*
X174533381Y-122050883D01*
X174533385Y-122050885D01*
X174807991Y-122166611D01*
X174841268Y-122180635D01*
X175164665Y-122277275D01*
X175168010Y-122277890D01*
X175168017Y-122277892D01*
X175493257Y-122337721D01*
X175496622Y-122338340D01*
X175500029Y-122338591D01*
X175500039Y-122338592D01*
X175700245Y-122353325D01*
X175803186Y-122360901D01*
X175812318Y-122362092D01*
X175815907Y-122362484D01*
X175820680Y-122363381D01*
X175825532Y-122363533D01*
X175825538Y-122363534D01*
X175827407Y-122363592D01*
X175833227Y-122363775D01*
X175867129Y-122359583D01*
X175882549Y-122358632D01*
X198180707Y-122353915D01*
X209028994Y-122351620D01*
X209049055Y-122353273D01*
X209053129Y-122354279D01*
X209057976Y-122354704D01*
X209057981Y-122354705D01*
X209059923Y-122354875D01*
X209065634Y-122355376D01*
X209070484Y-122355051D01*
X209074339Y-122355091D01*
X209078654Y-122354992D01*
X209399724Y-122361766D01*
X209399725Y-122361766D01*
X209403138Y-122361838D01*
X209739380Y-122332389D01*
X210070458Y-122266715D01*
X210073716Y-122265692D01*
X210389229Y-122166611D01*
X210389236Y-122166608D01*
X210392482Y-122165589D01*
X210395600Y-122164223D01*
X210395607Y-122164221D01*
X210602901Y-122073448D01*
X210701667Y-122030199D01*
X210704627Y-122028500D01*
X210704632Y-122028497D01*
X210991408Y-121863842D01*
X210991410Y-121863840D01*
X210994379Y-121862136D01*
X210997149Y-121860118D01*
X211081823Y-121798426D01*
X211155506Y-121774264D01*
X216464986Y-121752592D01*
X216533188Y-121772316D01*
G37*
%TD.AperFunction*%
%TA.AperFunction,Conductor*%
G36*
X175116061Y-131378613D02*
G01*
X175169589Y-131428686D01*
X175257658Y-131581226D01*
X175257661Y-131581231D01*
X175260960Y-131586944D01*
X175265378Y-131591851D01*
X175265379Y-131591852D01*
X175301370Y-131631824D01*
X175388747Y-131728866D01*
X175543248Y-131841118D01*
X175549276Y-131843802D01*
X175549278Y-131843803D01*
X175711681Y-131916109D01*
X175717712Y-131918794D01*
X175832086Y-131943105D01*
X175898057Y-131957128D01*
X175898060Y-131957128D01*
X175904513Y-131958500D01*
X175907588Y-131958500D01*
X175972035Y-131985013D01*
X176012666Y-132043233D01*
X176015371Y-132114179D01*
X176002329Y-132146312D01*
X175947503Y-132241273D01*
X175940481Y-132253436D01*
X175881466Y-132435064D01*
X175880776Y-132441625D01*
X175880776Y-132441627D01*
X175871408Y-132530760D01*
X175861504Y-132624992D01*
X175862194Y-132631557D01*
X175878649Y-132788113D01*
X175881466Y-132814920D01*
X175940481Y-132996548D01*
X176035968Y-133161936D01*
X176040386Y-133166843D01*
X176040387Y-133166844D01*
X176159333Y-133298947D01*
X176163755Y-133303858D01*
X176318256Y-133416110D01*
X176324284Y-133418794D01*
X176324286Y-133418795D01*
X176480546Y-133488366D01*
X176492720Y-133493786D01*
X176583378Y-133513056D01*
X176673064Y-133532120D01*
X176673069Y-133532120D01*
X176679521Y-133533492D01*
X176870495Y-133533492D01*
X176876947Y-133532120D01*
X176876952Y-133532120D01*
X176966638Y-133513056D01*
X177057296Y-133493786D01*
X177069470Y-133488366D01*
X177225730Y-133418795D01*
X177225732Y-133418794D01*
X177231760Y-133416110D01*
X177293664Y-133371134D01*
X177380917Y-133307741D01*
X177380919Y-133307739D01*
X177386261Y-133303858D01*
X177390680Y-133298951D01*
X177395588Y-133294531D01*
X177396468Y-133295508D01*
X177450882Y-133261990D01*
X177521866Y-133263347D01*
X177573158Y-133294448D01*
X179469790Y-135191080D01*
X179503816Y-135253392D01*
X179498751Y-135324207D01*
X179456204Y-135381043D01*
X179403201Y-135400813D01*
X179401722Y-135401722D01*
X179400000Y-135400000D01*
X179390980Y-135408326D01*
X176920440Y-137688823D01*
X176856818Y-137720331D01*
X176786261Y-137712439D01*
X176745882Y-137685333D01*
X172834438Y-133773889D01*
X172800412Y-133711577D01*
X172805477Y-133640762D01*
X172848024Y-133583926D01*
X172887536Y-133564045D01*
X173051996Y-133515018D01*
X173051997Y-133515017D01*
X173057896Y-133513259D01*
X173232846Y-133421018D01*
X173243700Y-133412229D01*
X173381757Y-133300432D01*
X173381758Y-133300431D01*
X173386547Y-133296553D01*
X173421478Y-133254628D01*
X173509205Y-133149335D01*
X173509208Y-133149330D01*
X173513146Y-133144604D01*
X173607821Y-132970959D01*
X173666965Y-132782232D01*
X173671754Y-132738155D01*
X173687659Y-132591736D01*
X173687659Y-132591732D01*
X173688324Y-132585611D01*
X173671087Y-132388587D01*
X173615909Y-132198663D01*
X173572117Y-132114179D01*
X173566041Y-132102458D01*
X173552450Y-132032775D01*
X173578690Y-131966805D01*
X173636431Y-131925495D01*
X173707339Y-131921959D01*
X173729155Y-131929366D01*
X173793473Y-131958002D01*
X173817712Y-131968794D01*
X173894016Y-131985013D01*
X173998056Y-132007128D01*
X173998061Y-132007128D01*
X174004513Y-132008500D01*
X174195487Y-132008500D01*
X174201939Y-132007128D01*
X174201944Y-132007128D01*
X174305984Y-131985013D01*
X174382288Y-131968794D01*
X174405409Y-131958500D01*
X174550722Y-131893803D01*
X174550724Y-131893802D01*
X174556752Y-131891118D01*
X174711253Y-131778866D01*
X174766519Y-131717487D01*
X174834621Y-131641852D01*
X174834622Y-131641851D01*
X174839040Y-131636944D01*
X174897314Y-131536010D01*
X174931223Y-131477279D01*
X174931224Y-131477278D01*
X174934527Y-131471556D01*
X174940638Y-131452750D01*
X174980708Y-131394146D01*
X175046104Y-131366508D01*
X175116061Y-131378613D01*
G37*
%TD.AperFunction*%
%TD*%
M02*
