M48
; DRILL file {KiCad (6.0.4)} date Sun Mar 26 23:07:18 2023
; FORMAT={-:-/ absolute / metric / decimal}
; #@! TF.CreationDate,2023-03-26T23:07:18+09:00
; #@! TF.GenerationSoftware,Kicad,Pcbnew,(6.0.4)
; #@! TF.FileFunction,Plated,1,2,Blind
FMAT,2
METRIC
; #@! TA.AperFunction,Plated,Buried,ViaDrill
T1C0.350
; #@! TA.AperFunction,Plated,Buried,ViaDrill
T2C0.400
%
G90
G05
T1
X193.243Y-125.15
T2
X169.1Y-128.45
X170.4Y-130.8
X170.4Y-143.8
X172.1Y-126.05
X172.2Y-122.4
X174.0Y-125.8
X174.0Y-142.6
X174.0Y-145.4
X176.9Y-133.975
X177.25Y-146.2
X178.8Y-123.4
X184.0Y-130.409
X184.7Y-136.0
X185.3Y-141.15
X187.5Y-141.75
X190.8Y-130.6
X191.0Y-129.0
X192.4Y-144.8
X193.6Y-131.8
X194.15Y-143.0
X195.2Y-126.4
X197.4Y-145.0
X199.1Y-143.0
X200.4Y-144.05
X205.48Y-132.67
X207.4Y-128.85
X207.6Y-126.2
X208.2Y-145.6
X210.7Y-142.6
X211.0Y-141.6
X211.4Y-122.2
X211.8Y-133.6
X212.2Y-126.8
X212.97Y-131.92
X214.4Y-141.8
X215.2Y-126.2
X216.2Y-124.6
T0
M30
