%TF.GenerationSoftware,KiCad,Pcbnew,(6.0.4)*%
%TF.CreationDate,2023-04-22T21:53:26+09:00*%
%TF.ProjectId,kaguya-elec,6b616775-7961-42d6-956c-65632e6b6963,rev?*%
%TF.SameCoordinates,Original*%
%TF.FileFunction,Paste,Bot*%
%TF.FilePolarity,Positive*%
%FSLAX46Y46*%
G04 Gerber Fmt 4.6, Leading zero omitted, Abs format (unit mm)*
G04 Created by KiCad (PCBNEW (6.0.4)) date 2023-04-22 21:53:26*
%MOMM*%
%LPD*%
G01*
G04 APERTURE LIST*
G04 Aperture macros list*
%AMRoundRect*
0 Rectangle with rounded corners*
0 $1 Rounding radius*
0 $2 $3 $4 $5 $6 $7 $8 $9 X,Y pos of 4 corners*
0 Add a 4 corners polygon primitive as box body*
4,1,4,$2,$3,$4,$5,$6,$7,$8,$9,$2,$3,0*
0 Add four circle primitives for the rounded corners*
1,1,$1+$1,$2,$3*
1,1,$1+$1,$4,$5*
1,1,$1+$1,$6,$7*
1,1,$1+$1,$8,$9*
0 Add four rect primitives between the rounded corners*
20,1,$1+$1,$2,$3,$4,$5,0*
20,1,$1+$1,$4,$5,$6,$7,0*
20,1,$1+$1,$6,$7,$8,$9,0*
20,1,$1+$1,$8,$9,$2,$3,0*%
G04 Aperture macros list end*
%ADD10R,2.000000X1.500000*%
%ADD11R,1.500000X2.000000*%
%ADD12RoundRect,0.140000X0.170000X-0.140000X0.170000X0.140000X-0.170000X0.140000X-0.170000X-0.140000X0*%
%ADD13RoundRect,0.218750X-0.256250X0.218750X-0.256250X-0.218750X0.256250X-0.218750X0.256250X0.218750X0*%
%ADD14RoundRect,0.135000X-0.185000X0.135000X-0.185000X-0.135000X0.185000X-0.135000X0.185000X0.135000X0*%
%ADD15RoundRect,0.140000X-0.140000X-0.170000X0.140000X-0.170000X0.140000X0.170000X-0.140000X0.170000X0*%
%ADD16RoundRect,0.135000X0.135000X0.185000X-0.135000X0.185000X-0.135000X-0.185000X0.135000X-0.185000X0*%
%ADD17RoundRect,0.200000X-0.275000X0.200000X-0.275000X-0.200000X0.275000X-0.200000X0.275000X0.200000X0*%
%ADD18RoundRect,0.135000X-0.135000X-0.185000X0.135000X-0.185000X0.135000X0.185000X-0.135000X0.185000X0*%
%ADD19R,0.700000X1.800000*%
G04 APERTURE END LIST*
D10*
%TO.C,J19*%
X172730000Y-137486656D03*
X172730000Y-139486656D03*
X172730000Y-141486656D03*
X172730000Y-143486656D03*
X172730000Y-145486656D03*
%TD*%
D11*
%TO.C,J17*%
X173000000Y-128000000D03*
X170500000Y-128000000D03*
X173000000Y-125460000D03*
X170500000Y-125460000D03*
X173000000Y-122920000D03*
X170500000Y-122920000D03*
%TD*%
D12*
%TO.C,C17*%
X205400000Y-125255000D03*
X205400000Y-124295000D03*
%TD*%
D13*
%TO.C,D2*%
X179650000Y-143817500D03*
X179650000Y-145392500D03*
%TD*%
D14*
%TO.C,R10*%
X178150000Y-144445000D03*
X178150000Y-145465000D03*
%TD*%
D15*
%TO.C,C6*%
X212020000Y-133055000D03*
X212980000Y-133055000D03*
%TD*%
D16*
%TO.C,R30*%
X202860000Y-126505000D03*
X201840000Y-126505000D03*
%TD*%
D17*
%TO.C,R5*%
X210800000Y-141580000D03*
X210800000Y-143230000D03*
%TD*%
D18*
%TO.C,R22*%
X199240000Y-126505000D03*
X200260000Y-126505000D03*
%TD*%
D19*
%TO.C,U2*%
X182410000Y-128655000D03*
X183680000Y-128655000D03*
X184950000Y-128655000D03*
X196150000Y-128655000D03*
X197420000Y-128655000D03*
X198690000Y-128655000D03*
X199960000Y-128655000D03*
X201230000Y-128655000D03*
X202500000Y-128655000D03*
X203770000Y-128655000D03*
X205040000Y-128655000D03*
X205010000Y-144655000D03*
X203740000Y-144655000D03*
X202470000Y-144655000D03*
X201200000Y-144655000D03*
X199930000Y-144655000D03*
X198660000Y-144655000D03*
X197390000Y-144655000D03*
X196120000Y-144655000D03*
X184920000Y-144655000D03*
X183650000Y-144655000D03*
X182380000Y-144655000D03*
%TD*%
D17*
%TO.C,R6*%
X213800000Y-141580000D03*
X213800000Y-143230000D03*
%TD*%
M02*
