%TF.GenerationSoftware,KiCad,Pcbnew,(6.0.4)*%
%TF.CreationDate,2023-04-22T21:53:27+09:00*%
%TF.ProjectId,kaguya-elec,6b616775-7961-42d6-956c-65632e6b6963,rev?*%
%TF.SameCoordinates,Original*%
%TF.FileFunction,Soldermask,Bot*%
%TF.FilePolarity,Negative*%
%FSLAX46Y46*%
G04 Gerber Fmt 4.6, Leading zero omitted, Abs format (unit mm)*
G04 Created by KiCad (PCBNEW (6.0.4)) date 2023-04-22 21:53:27*
%MOMM*%
%LPD*%
G01*
G04 APERTURE LIST*
G04 Aperture macros list*
%AMRoundRect*
0 Rectangle with rounded corners*
0 $1 Rounding radius*
0 $2 $3 $4 $5 $6 $7 $8 $9 X,Y pos of 4 corners*
0 Add a 4 corners polygon primitive as box body*
4,1,4,$2,$3,$4,$5,$6,$7,$8,$9,$2,$3,0*
0 Add four circle primitives for the rounded corners*
1,1,$1+$1,$2,$3*
1,1,$1+$1,$4,$5*
1,1,$1+$1,$6,$7*
1,1,$1+$1,$8,$9*
0 Add four rect primitives between the rounded corners*
20,1,$1+$1,$2,$3,$4,$5,0*
20,1,$1+$1,$4,$5,$6,$7,0*
20,1,$1+$1,$6,$7,$8,$9,0*
20,1,$1+$1,$8,$9,$2,$3,0*%
G04 Aperture macros list end*
%ADD10O,1.030000X1.730000*%
%ADD11O,1.100000X8.400000*%
%ADD12C,1.200000*%
%ADD13C,0.900000*%
%ADD14R,2.000000X1.500000*%
%ADD15C,1.630000*%
%ADD16O,3.500000X2.000000*%
%ADD17R,1.500000X2.000000*%
%ADD18R,1.000000X1.000000*%
%ADD19O,1.000000X1.000000*%
%ADD20C,0.650000*%
%ADD21O,1.000000X1.800000*%
%ADD22O,1.000000X2.100000*%
%ADD23RoundRect,0.140000X0.170000X-0.140000X0.170000X0.140000X-0.170000X0.140000X-0.170000X-0.140000X0*%
%ADD24RoundRect,0.218750X-0.256250X0.218750X-0.256250X-0.218750X0.256250X-0.218750X0.256250X0.218750X0*%
%ADD25RoundRect,0.135000X-0.185000X0.135000X-0.185000X-0.135000X0.185000X-0.135000X0.185000X0.135000X0*%
%ADD26RoundRect,0.140000X-0.140000X-0.170000X0.140000X-0.170000X0.140000X0.170000X-0.140000X0.170000X0*%
%ADD27RoundRect,0.135000X0.135000X0.185000X-0.135000X0.185000X-0.135000X-0.185000X0.135000X-0.185000X0*%
%ADD28RoundRect,0.200000X-0.275000X0.200000X-0.275000X-0.200000X0.275000X-0.200000X0.275000X0.200000X0*%
%ADD29RoundRect,0.135000X-0.135000X-0.185000X0.135000X-0.185000X0.135000X0.185000X-0.135000X0.185000X0*%
%ADD30R,0.700000X1.800000*%
G04 APERTURE END LIST*
D10*
%TO.C,J3*%
X180187500Y-141855000D03*
X178687500Y-141855000D03*
%TD*%
D11*
%TO.C,J8*%
X235692989Y-127547500D03*
%TD*%
D12*
%TO.C,S2*%
X185000000Y-144755000D03*
D13*
X188000000Y-144755000D03*
%TD*%
D14*
%TO.C,J19*%
X172730000Y-137486656D03*
X172730000Y-139486656D03*
X172730000Y-141486656D03*
X172730000Y-143486656D03*
X172730000Y-145486656D03*
%TD*%
D10*
%TO.C,J15*%
X223832500Y-139130000D03*
X225332500Y-139130000D03*
%TD*%
D15*
%TO.C,M1*%
X245861758Y-127566269D03*
D16*
X245861758Y-124166269D03*
X245861758Y-130966269D03*
%TD*%
D17*
%TO.C,J17*%
X173000000Y-128000000D03*
X170500000Y-128000000D03*
X173000000Y-125460000D03*
X170500000Y-125460000D03*
X173000000Y-122920000D03*
X170500000Y-122920000D03*
%TD*%
D18*
%TO.C,J1*%
X192975000Y-139805000D03*
D19*
X194245000Y-139805000D03*
X195515000Y-139805000D03*
%TD*%
D10*
%TO.C,J2*%
X178842500Y-126270000D03*
X180342500Y-126270000D03*
%TD*%
%TO.C,J10*%
X225370489Y-128902500D03*
X223870489Y-128902500D03*
%TD*%
D11*
%TO.C,J9*%
X235740000Y-140400000D03*
%TD*%
D15*
%TO.C,M2*%
X245845620Y-140418594D03*
D16*
X245845620Y-143818594D03*
X245845620Y-137018594D03*
%TD*%
D20*
%TO.C,U1*%
X209160000Y-140125000D03*
X214940000Y-140125000D03*
D21*
X207730000Y-143805000D03*
D22*
X207730000Y-139625000D03*
X216370000Y-139625000D03*
D21*
X216370000Y-143805000D03*
%TD*%
D23*
%TO.C,C17*%
X205400000Y-125255000D03*
X205400000Y-124295000D03*
%TD*%
D24*
%TO.C,D2*%
X179650000Y-143817500D03*
X179650000Y-145392500D03*
%TD*%
D25*
%TO.C,R10*%
X178150000Y-144445000D03*
X178150000Y-145465000D03*
%TD*%
D26*
%TO.C,C6*%
X212020000Y-133055000D03*
X212980000Y-133055000D03*
%TD*%
D27*
%TO.C,R30*%
X202860000Y-126505000D03*
X201840000Y-126505000D03*
%TD*%
D28*
%TO.C,R5*%
X210800000Y-141580000D03*
X210800000Y-143230000D03*
%TD*%
D29*
%TO.C,R22*%
X199240000Y-126505000D03*
X200260000Y-126505000D03*
%TD*%
D30*
%TO.C,U2*%
X182410000Y-128655000D03*
X183680000Y-128655000D03*
X184950000Y-128655000D03*
X196150000Y-128655000D03*
X197420000Y-128655000D03*
X198690000Y-128655000D03*
X199960000Y-128655000D03*
X201230000Y-128655000D03*
X202500000Y-128655000D03*
X203770000Y-128655000D03*
X205040000Y-128655000D03*
X205010000Y-144655000D03*
X203740000Y-144655000D03*
X202470000Y-144655000D03*
X201200000Y-144655000D03*
X199930000Y-144655000D03*
X198660000Y-144655000D03*
X197390000Y-144655000D03*
X196120000Y-144655000D03*
X184920000Y-144655000D03*
X183650000Y-144655000D03*
X182380000Y-144655000D03*
%TD*%
D28*
%TO.C,R6*%
X213800000Y-141580000D03*
X213800000Y-143230000D03*
%TD*%
M02*
