%TF.GenerationSoftware,KiCad,Pcbnew,(6.0.4)*%
%TF.CreationDate,2023-03-27T11:43:34+09:00*%
%TF.ProjectId,kaguya-elec,6b616775-7961-42d6-956c-65632e6b6963,rev?*%
%TF.SameCoordinates,Original*%
%TF.FileFunction,Paste,Top*%
%TF.FilePolarity,Positive*%
%FSLAX46Y46*%
G04 Gerber Fmt 4.6, Leading zero omitted, Abs format (unit mm)*
G04 Created by KiCad (PCBNEW (6.0.4)) date 2023-03-27 11:43:34*
%MOMM*%
%LPD*%
G01*
G04 APERTURE LIST*
G04 Aperture macros list*
%AMRoundRect*
0 Rectangle with rounded corners*
0 $1 Rounding radius*
0 $2 $3 $4 $5 $6 $7 $8 $9 X,Y pos of 4 corners*
0 Add a 4 corners polygon primitive as box body*
4,1,4,$2,$3,$4,$5,$6,$7,$8,$9,$2,$3,0*
0 Add four circle primitives for the rounded corners*
1,1,$1+$1,$2,$3*
1,1,$1+$1,$4,$5*
1,1,$1+$1,$6,$7*
1,1,$1+$1,$8,$9*
0 Add four rect primitives between the rounded corners*
20,1,$1+$1,$2,$3,$4,$5,0*
20,1,$1+$1,$4,$5,$6,$7,0*
20,1,$1+$1,$6,$7,$8,$9,0*
20,1,$1+$1,$8,$9,$2,$3,0*%
%AMRotRect*
0 Rectangle, with rotation*
0 The origin of the aperture is its center*
0 $1 length*
0 $2 width*
0 $3 Rotation angle, in degrees counterclockwise*
0 Add horizontal line*
21,1,$1,$2,0,0,$3*%
G04 Aperture macros list end*
%ADD10R,0.300000X0.650000*%
%ADD11R,0.500000X1.150000*%
%ADD12R,1.200000X1.400000*%
%ADD13RoundRect,0.135000X-0.135000X-0.185000X0.135000X-0.185000X0.135000X0.185000X-0.135000X0.185000X0*%
%ADD14R,1.000000X1.800000*%
%ADD15RoundRect,0.225000X-0.225000X-0.250000X0.225000X-0.250000X0.225000X0.250000X-0.225000X0.250000X0*%
%ADD16RoundRect,0.135000X0.185000X-0.135000X0.185000X0.135000X-0.185000X0.135000X-0.185000X-0.135000X0*%
%ADD17R,1.200000X0.450000*%
%ADD18R,1.250000X0.600000*%
%ADD19RoundRect,0.140000X0.170000X-0.140000X0.170000X0.140000X-0.170000X0.140000X-0.170000X-0.140000X0*%
%ADD20RoundRect,0.140000X-0.140000X-0.170000X0.140000X-0.170000X0.140000X0.170000X-0.140000X0.170000X0*%
%ADD21RoundRect,0.140000X-0.170000X0.140000X-0.170000X-0.140000X0.170000X-0.140000X0.170000X0.140000X0*%
%ADD22R,1.500000X0.600000*%
%ADD23R,0.700000X0.300000*%
%ADD24R,1.000000X1.700000*%
%ADD25RoundRect,0.135000X0.135000X0.185000X-0.135000X0.185000X-0.135000X-0.185000X0.135000X-0.185000X0*%
%ADD26RoundRect,0.218750X-0.218750X-0.256250X0.218750X-0.256250X0.218750X0.256250X-0.218750X0.256250X0*%
%ADD27R,0.700000X1.500000*%
%ADD28R,1.000000X0.800000*%
%ADD29RotRect,0.600000X1.250000X135.000000*%
%ADD30RoundRect,0.225000X0.225000X0.250000X-0.225000X0.250000X-0.225000X-0.250000X0.225000X-0.250000X0*%
%ADD31R,1.200000X0.600000*%
%ADD32RotRect,0.600000X1.250000X45.000000*%
%ADD33RoundRect,0.218750X0.256250X-0.218750X0.256250X0.218750X-0.256250X0.218750X-0.256250X-0.218750X0*%
%ADD34RoundRect,0.250000X-0.625000X0.312500X-0.625000X-0.312500X0.625000X-0.312500X0.625000X0.312500X0*%
%ADD35R,0.600000X1.250000*%
%ADD36RoundRect,0.135000X-0.185000X0.135000X-0.185000X-0.135000X0.185000X-0.135000X0.185000X0.135000X0*%
%ADD37R,0.350000X0.500000*%
%ADD38RoundRect,0.225000X0.250000X-0.225000X0.250000X0.225000X-0.250000X0.225000X-0.250000X-0.225000X0*%
%ADD39R,4.000000X0.600000*%
%ADD40RoundRect,0.140000X0.140000X0.170000X-0.140000X0.170000X-0.140000X-0.170000X0.140000X-0.170000X0*%
%ADD41R,0.450000X0.600000*%
%ADD42R,0.900000X0.800000*%
%ADD43R,0.600000X1.200000*%
%ADD44R,0.200000X0.875000*%
%ADD45R,0.875000X0.200000*%
%ADD46R,3.200000X3.200000*%
%ADD47RoundRect,0.250000X0.325000X0.650000X-0.325000X0.650000X-0.325000X-0.650000X0.325000X-0.650000X0*%
%ADD48R,0.650000X1.050000*%
%ADD49R,1.150000X0.600000*%
%ADD50R,0.700000X1.550000*%
%ADD51R,0.300000X0.900000*%
%ADD52R,1.650000X0.250000*%
%ADD53RoundRect,0.218750X0.218750X0.256250X-0.218750X0.256250X-0.218750X-0.256250X0.218750X-0.256250X0*%
%ADD54R,0.250000X1.274500*%
%ADD55R,1.174500X0.250000*%
%ADD56RoundRect,0.250000X-0.325000X-0.650000X0.325000X-0.650000X0.325000X0.650000X-0.325000X0.650000X0*%
%ADD57R,0.600000X1.140000*%
%ADD58R,0.300000X1.140000*%
G04 APERTURE END LIST*
D10*
%TO.C,J6*%
X191547500Y-143043211D03*
X192047500Y-143043211D03*
X192547500Y-143043211D03*
X193047500Y-143043211D03*
X193547500Y-143043211D03*
D11*
X194532500Y-145853211D03*
X190562500Y-145853211D03*
%TD*%
D12*
%TO.C,Y1*%
X189400000Y-137050000D03*
X189400000Y-134850000D03*
X187700000Y-134850000D03*
X187700000Y-137050000D03*
%TD*%
D13*
%TO.C,R15*%
X208990000Y-129200000D03*
X210010000Y-129200000D03*
%TD*%
D14*
%TO.C,Y2*%
X185600000Y-123550000D03*
X188100000Y-123550000D03*
%TD*%
D15*
%TO.C,C34*%
X221870000Y-121750000D03*
X223420000Y-121750000D03*
%TD*%
D16*
%TO.C,R14*%
X182700000Y-129450000D03*
X182700000Y-128430000D03*
%TD*%
D13*
%TO.C,R26*%
X225790000Y-143040000D03*
X226810000Y-143040000D03*
%TD*%
D17*
%TO.C,IC6*%
X223755000Y-124930000D03*
X223755000Y-124280000D03*
X223755000Y-123630000D03*
X221955000Y-123630000D03*
X221955000Y-124930000D03*
%TD*%
D18*
%TO.C,Q2*%
X178437500Y-139750000D03*
X178437500Y-137850000D03*
X176337500Y-138800000D03*
%TD*%
D19*
%TO.C,C13*%
X205900000Y-134180000D03*
X205900000Y-133220000D03*
%TD*%
%TO.C,C28*%
X248055620Y-143438594D03*
X248055620Y-142478594D03*
%TD*%
D20*
%TO.C,C11*%
X200620000Y-142400000D03*
X201580000Y-142400000D03*
%TD*%
D21*
%TO.C,C20*%
X248023769Y-123893769D03*
X248023769Y-124853769D03*
%TD*%
D22*
%TO.C,J8*%
X232855000Y-129010000D03*
X235455000Y-129010000D03*
X235455000Y-128010000D03*
X232855000Y-128010000D03*
X235455000Y-127010000D03*
X232855000Y-127010000D03*
X232855000Y-126010000D03*
X235455000Y-126010000D03*
X232855000Y-125010000D03*
X235455000Y-125010000D03*
X235455000Y-124010000D03*
X232855000Y-124010000D03*
%TD*%
D20*
%TO.C,C14*%
X186470000Y-132400000D03*
X187430000Y-132400000D03*
%TD*%
D23*
%TO.C,IC14*%
X230750000Y-143477500D03*
X230750000Y-142977500D03*
X230750000Y-142477500D03*
X230750000Y-141977500D03*
X228650000Y-141977500D03*
X228650000Y-142477500D03*
X228650000Y-142977500D03*
X228650000Y-143477500D03*
D24*
X229700000Y-142727500D03*
%TD*%
D25*
%TO.C,R13*%
X170610000Y-137450000D03*
X169590000Y-137450000D03*
%TD*%
D26*
%TO.C,F1*%
X182450000Y-138100000D03*
X184025000Y-138100000D03*
%TD*%
D27*
%TO.C,S2*%
X180550000Y-142500000D03*
X183550000Y-142500000D03*
X185050000Y-142500000D03*
D28*
X179150000Y-143150000D03*
X179150000Y-145350000D03*
X186450000Y-143150000D03*
X186450000Y-145350000D03*
%TD*%
D13*
%TO.C,R28*%
X246963769Y-131503769D03*
X247983769Y-131503769D03*
%TD*%
D19*
%TO.C,C17*%
X192600000Y-124080000D03*
X192600000Y-123120000D03*
%TD*%
D10*
%TO.C,J14*%
X227672500Y-128813211D03*
X228172500Y-128813211D03*
X228672500Y-128813211D03*
X229172500Y-128813211D03*
X229672500Y-128813211D03*
D11*
X230657500Y-131623211D03*
X226687500Y-131623211D03*
%TD*%
D13*
%TO.C,R25*%
X246963769Y-121503769D03*
X247983769Y-121503769D03*
%TD*%
D25*
%TO.C,R24*%
X229545000Y-126680000D03*
X228525000Y-126680000D03*
%TD*%
D20*
%TO.C,C9*%
X202370000Y-141000000D03*
X203330000Y-141000000D03*
%TD*%
D23*
%TO.C,IC12*%
X230715000Y-125260000D03*
X230715000Y-124760000D03*
X230715000Y-124260000D03*
X230715000Y-123760000D03*
X228615000Y-123760000D03*
X228615000Y-124260000D03*
X228615000Y-124760000D03*
X228615000Y-125260000D03*
D24*
X229665000Y-124510000D03*
%TD*%
D29*
%TO.C,IC7*%
X240091406Y-143979305D03*
X241434909Y-145322808D03*
X242248082Y-143166132D03*
%TD*%
D25*
%TO.C,R9*%
X190060000Y-141950000D03*
X189040000Y-141950000D03*
%TD*%
D30*
%TO.C,C16*%
X184012500Y-139800000D03*
X182462500Y-139800000D03*
%TD*%
D25*
%TO.C,R11*%
X194610000Y-129250000D03*
X193590000Y-129250000D03*
%TD*%
D31*
%TO.C,IC4*%
X169350000Y-129850000D03*
X169350000Y-130800000D03*
X169350000Y-131750000D03*
X171850000Y-131750000D03*
X171850000Y-129850000D03*
%TD*%
D25*
%TO.C,R19*%
X174760000Y-127350000D03*
X173740000Y-127350000D03*
%TD*%
D32*
%TO.C,IC8*%
X241434909Y-136394380D03*
X240091406Y-137737883D03*
X242248082Y-138551056D03*
%TD*%
D21*
%TO.C,C22*%
X182950000Y-132120000D03*
X182950000Y-133080000D03*
%TD*%
D33*
%TO.C,D2*%
X176600000Y-145827500D03*
X176600000Y-144252500D03*
%TD*%
D16*
%TO.C,R2*%
X205100000Y-142460000D03*
X205100000Y-141440000D03*
%TD*%
D20*
%TO.C,C10*%
X203320000Y-136200000D03*
X204280000Y-136200000D03*
%TD*%
D21*
%TO.C,C5*%
X207700000Y-127620000D03*
X207700000Y-128580000D03*
%TD*%
D34*
%TO.C,R17*%
X173700000Y-133437500D03*
X173700000Y-136362500D03*
%TD*%
D35*
%TO.C,Q3*%
X169250000Y-135800000D03*
X171150000Y-135800000D03*
X170200000Y-133700000D03*
%TD*%
%TO.C,Q4*%
X174100000Y-131050000D03*
X176000000Y-131050000D03*
X175050000Y-128950000D03*
%TD*%
%TO.C,Q6*%
X204300000Y-126200000D03*
X206200000Y-126200000D03*
X205250000Y-124100000D03*
%TD*%
D19*
%TO.C,C7*%
X184500000Y-133680000D03*
X184500000Y-132720000D03*
%TD*%
D13*
%TO.C,R16*%
X210090000Y-127800000D03*
X211110000Y-127800000D03*
%TD*%
D25*
%TO.C,R21*%
X215250000Y-131700000D03*
X214230000Y-131700000D03*
%TD*%
D17*
%TO.C,IC11*%
X222050000Y-142440000D03*
X222050000Y-143090000D03*
X222050000Y-143740000D03*
X223850000Y-143740000D03*
X223850000Y-142440000D03*
%TD*%
D36*
%TO.C,R10*%
X176600000Y-141640000D03*
X176600000Y-142660000D03*
%TD*%
D13*
%TO.C,R7*%
X202390000Y-137350000D03*
X203410000Y-137350000D03*
%TD*%
D20*
%TO.C,C6*%
X202420000Y-139850000D03*
X203380000Y-139850000D03*
%TD*%
D19*
%TO.C,C2*%
X200010000Y-131160000D03*
X200010000Y-130200000D03*
%TD*%
D20*
%TO.C,C12*%
X202820000Y-142450000D03*
X203780000Y-142450000D03*
%TD*%
D13*
%TO.C,R8*%
X202390000Y-138450000D03*
X203410000Y-138450000D03*
%TD*%
D25*
%TO.C,R18*%
X177360000Y-127350000D03*
X176340000Y-127350000D03*
%TD*%
D16*
%TO.C,R3*%
X190950000Y-137560000D03*
X190950000Y-136540000D03*
%TD*%
D37*
%TO.C,U3*%
X193907500Y-127350000D03*
X193257500Y-127350000D03*
X192607500Y-127350000D03*
X191957500Y-127350000D03*
X191967500Y-125750000D03*
X192617500Y-125750000D03*
X193267500Y-125750000D03*
X193917500Y-125750000D03*
%TD*%
D25*
%TO.C,R1*%
X172410000Y-127850000D03*
X171390000Y-127850000D03*
%TD*%
D35*
%TO.C,Q5*%
X213750000Y-129900000D03*
X215650000Y-129900000D03*
X214700000Y-127800000D03*
%TD*%
D38*
%TO.C,C26*%
X178250000Y-131675000D03*
X178250000Y-130125000D03*
%TD*%
D19*
%TO.C,C24*%
X193900000Y-124080000D03*
X193900000Y-123120000D03*
%TD*%
D21*
%TO.C,C4*%
X186050000Y-136640000D03*
X186050000Y-137600000D03*
%TD*%
D10*
%TO.C,J7*%
X196497500Y-143043211D03*
X196997500Y-143043211D03*
X197497500Y-143043211D03*
X197997500Y-143043211D03*
X198497500Y-143043211D03*
D11*
X195512500Y-145853211D03*
X199482500Y-145853211D03*
%TD*%
D38*
%TO.C,C29*%
X180550000Y-129875000D03*
X180550000Y-128325000D03*
%TD*%
D22*
%TO.C,J9*%
X235500000Y-138315000D03*
X232900000Y-138315000D03*
X235500000Y-139315000D03*
X232900000Y-139315000D03*
X235500000Y-140315000D03*
X232900000Y-140315000D03*
X235500000Y-141315000D03*
X232900000Y-141315000D03*
X235500000Y-142315000D03*
X232900000Y-142315000D03*
X235500000Y-143315000D03*
X232900000Y-143315000D03*
%TD*%
D33*
%TO.C,D1*%
X189050000Y-145187500D03*
X189050000Y-143612500D03*
%TD*%
D19*
%TO.C,C1*%
X216200000Y-126300000D03*
X216200000Y-125340000D03*
%TD*%
D39*
%TO.C,Je*%
X250823769Y-124003769D03*
X250823769Y-124003769D03*
X250823769Y-125003769D03*
X250823769Y-125003769D03*
X250823769Y-126003769D03*
X250823769Y-126003769D03*
X250823769Y-127003769D03*
X250823769Y-127003769D03*
X250823769Y-128003769D03*
X250823769Y-128003769D03*
X250823769Y-129003769D03*
X250823769Y-129003769D03*
%TD*%
D40*
%TO.C,C21*%
X184130000Y-123500000D03*
X183170000Y-123500000D03*
%TD*%
D41*
%TO.C,D3*%
X180587500Y-137850000D03*
X180587500Y-139950000D03*
%TD*%
D10*
%TO.C,J13*%
X229692500Y-138586790D03*
X229192500Y-138586790D03*
X228692500Y-138586790D03*
X228192500Y-138586790D03*
X227692500Y-138586790D03*
D11*
X226707500Y-135776790D03*
X230677500Y-135776790D03*
%TD*%
D42*
%TO.C,SW1*%
X204500000Y-144100000D03*
X201100000Y-144100000D03*
D43*
X200500000Y-146100000D03*
X205100000Y-146100000D03*
%TD*%
D13*
%TO.C,R20*%
X183040000Y-134750000D03*
X184060000Y-134750000D03*
%TD*%
D44*
%TO.C,IC1*%
X199110000Y-133182000D03*
X198710000Y-133182000D03*
X198310000Y-133182000D03*
X197910000Y-133182000D03*
X197510000Y-133182000D03*
X197110000Y-133182000D03*
X196710000Y-133182000D03*
X196310000Y-133182000D03*
X195910000Y-133182000D03*
X195510000Y-133182000D03*
X195110000Y-133182000D03*
X194710000Y-133182000D03*
X194310000Y-133182000D03*
X193910000Y-133182000D03*
D45*
X193072000Y-134020000D03*
X193072000Y-134420000D03*
X193072000Y-134820000D03*
X193072000Y-135220000D03*
X193072000Y-135620000D03*
X193072000Y-136020000D03*
X193072000Y-136420000D03*
X193072000Y-136820000D03*
X193072000Y-137220000D03*
X193072000Y-137620000D03*
X193072000Y-138020000D03*
X193072000Y-138420000D03*
X193072000Y-138820000D03*
X193072000Y-139220000D03*
D44*
X193910000Y-140058000D03*
X194310000Y-140058000D03*
X194710000Y-140058000D03*
X195110000Y-140058000D03*
X195510000Y-140058000D03*
X195910000Y-140058000D03*
X196310000Y-140058000D03*
X196710000Y-140058000D03*
X197110000Y-140058000D03*
X197510000Y-140058000D03*
X197910000Y-140058000D03*
X198310000Y-140058000D03*
X198710000Y-140058000D03*
X199110000Y-140058000D03*
D45*
X199948000Y-139220000D03*
X199948000Y-138820000D03*
X199948000Y-138420000D03*
X199948000Y-138020000D03*
X199948000Y-137620000D03*
X199948000Y-137220000D03*
X199948000Y-136820000D03*
X199948000Y-136420000D03*
X199948000Y-136020000D03*
X199948000Y-135620000D03*
X199948000Y-135220000D03*
X199948000Y-134820000D03*
X199948000Y-134420000D03*
X199948000Y-134020000D03*
D46*
X196510000Y-136620000D03*
%TD*%
D47*
%TO.C,C30*%
X228675000Y-145290000D03*
X225725000Y-145290000D03*
%TD*%
D48*
%TO.C,S1*%
X213975000Y-137604685D03*
X213975000Y-133454685D03*
X216125000Y-137604685D03*
X216125000Y-133454685D03*
%TD*%
D25*
%TO.C,R4*%
X170160000Y-127850000D03*
X169140000Y-127850000D03*
%TD*%
%TO.C,R23*%
X184060000Y-135950000D03*
X183040000Y-135950000D03*
%TD*%
%TO.C,R27*%
X247965620Y-145808594D03*
X246945620Y-145808594D03*
%TD*%
D13*
%TO.C,R12*%
X189695000Y-132400000D03*
X190715000Y-132400000D03*
%TD*%
D49*
%TO.C,IC5*%
X178900000Y-133500000D03*
X178900000Y-134450000D03*
X178900000Y-135400000D03*
X181500000Y-135400000D03*
X181500000Y-134450000D03*
X181500000Y-133500000D03*
%TD*%
D25*
%TO.C,R22*%
X205860000Y-127800000D03*
X204840000Y-127800000D03*
%TD*%
D50*
%TO.C,IC3*%
X208045000Y-136325000D03*
X209315000Y-136325000D03*
X210585000Y-136325000D03*
X211855000Y-136325000D03*
X211855000Y-130875000D03*
X210585000Y-130875000D03*
X209315000Y-130875000D03*
X208045000Y-130875000D03*
%TD*%
D35*
%TO.C,Q1*%
X169550000Y-126050000D03*
X171450000Y-126050000D03*
X170500000Y-123950000D03*
%TD*%
D32*
%TO.C,IC9*%
X241453058Y-122039555D03*
X240109555Y-123383058D03*
X242266231Y-124196231D03*
%TD*%
D51*
%TO.C,IC2*%
X203890000Y-131390000D03*
X203390000Y-131390000D03*
X202890000Y-131390000D03*
X202390000Y-131390000D03*
X202390000Y-134190000D03*
X202890000Y-134190000D03*
X203390000Y-134190000D03*
X203890000Y-134190000D03*
D52*
X203140000Y-132790000D03*
%TD*%
D21*
%TO.C,C8*%
X185600000Y-139170000D03*
X185600000Y-140130000D03*
%TD*%
D53*
%TO.C,L1*%
X181375000Y-131650000D03*
X179800000Y-131650000D03*
%TD*%
D30*
%TO.C,C27*%
X223825000Y-145590000D03*
X222275000Y-145590000D03*
%TD*%
D29*
%TO.C,IC10*%
X240109555Y-129624480D03*
X241453058Y-130967983D03*
X242266231Y-128811307D03*
%TD*%
D40*
%TO.C,C25*%
X176650000Y-132600000D03*
X175690000Y-132600000D03*
%TD*%
D39*
%TO.C,J12*%
X250755620Y-143358594D03*
X250755620Y-143358594D03*
X250755620Y-142358594D03*
X250755620Y-142358594D03*
X250755620Y-141358594D03*
X250755620Y-141358594D03*
X250755620Y-140358594D03*
X250755620Y-140358594D03*
X250755620Y-139358594D03*
X250755620Y-139358594D03*
X250755620Y-138358594D03*
X250755620Y-138358594D03*
%TD*%
D19*
%TO.C,C3*%
X186000000Y-135210000D03*
X186000000Y-134250000D03*
%TD*%
D54*
%TO.C,AC1*%
X184887000Y-126837250D03*
D55*
X184524250Y-127950000D03*
X184524250Y-128450000D03*
X184524250Y-128950000D03*
X184524250Y-129450000D03*
D54*
X184887000Y-130562750D03*
X185387000Y-130562750D03*
X185887000Y-130562750D03*
X186387000Y-130562750D03*
X186887000Y-130562750D03*
X187387000Y-130562750D03*
X187887000Y-130562750D03*
X188387000Y-130562750D03*
X188887000Y-130562750D03*
X189387000Y-130562750D03*
D55*
X189749750Y-129450000D03*
X189749750Y-128950000D03*
X189749750Y-128450000D03*
X189749750Y-127950000D03*
D54*
X189387000Y-126837250D03*
X188887000Y-126837250D03*
X188387000Y-126837250D03*
X187887000Y-126837250D03*
X187387000Y-126837250D03*
X186887000Y-126837250D03*
X186387000Y-126837250D03*
X185887000Y-126837250D03*
X185387000Y-126837250D03*
%TD*%
D21*
%TO.C,C35*%
X248005620Y-138858594D03*
X248005620Y-139818594D03*
%TD*%
D38*
%TO.C,C15*%
X176900000Y-135525000D03*
X176900000Y-133975000D03*
%TD*%
D56*
%TO.C,C19*%
X225830000Y-121960000D03*
X228780000Y-121960000D03*
%TD*%
D25*
%TO.C,R29*%
X247915620Y-135858594D03*
X246895620Y-135858594D03*
%TD*%
D19*
%TO.C,C36*%
X248073769Y-128453769D03*
X248073769Y-127493769D03*
%TD*%
D57*
%TO.C,U1*%
X207500000Y-139520000D03*
X208300000Y-139520000D03*
D58*
X208950000Y-139520000D03*
X209450000Y-139520000D03*
X209950000Y-139520000D03*
X210450000Y-139520000D03*
X210950000Y-139520000D03*
X211450000Y-139520000D03*
X211950000Y-139520000D03*
X212450000Y-139520000D03*
D57*
X213100000Y-139520000D03*
X213900000Y-139520000D03*
%TD*%
D20*
%TO.C,C23*%
X189620000Y-123550000D03*
X190580000Y-123550000D03*
%TD*%
M02*
