M48
; DRILL file {KiCad (6.0.4)} date Mon Mar 27 11:43:37 2023
; FORMAT={-:-/ absolute / metric / decimal}
; #@! TF.CreationDate,2023-03-27T11:43:37+09:00
; #@! TF.GenerationSoftware,Kicad,Pcbnew,(6.0.4)
; #@! TF.FileFunction,MixedPlating,1,4
FMAT,2
METRIC
; #@! TA.AperFunction,Plated,PTH,ViaDrill
T1C0.350
; #@! TA.AperFunction,Plated,PTH,ViaDrill
T2C0.400
; #@! TA.AperFunction,Plated,PTH,ComponentDrill
T3C0.600
; #@! TA.AperFunction,Plated,PTH,ComponentDrill
T4C0.650
; #@! TA.AperFunction,Plated,PTH,ComponentDrill
T5C0.730
; #@! TA.AperFunction,Plated,PTH,ComponentDrill
T6C0.750
; #@! TA.AperFunction,Plated,PTH,ComponentDrill
T7C1.020
; #@! TA.AperFunction,NonPlated,NPTH,ComponentDrill
T8C0.650
; #@! TA.AperFunction,NonPlated,NPTH,ComponentDrill
T9C0.700
; #@! TA.AperFunction,NonPlated,NPTH,ComponentDrill
T10C0.900
; #@! TA.AperFunction,NonPlated,NPTH,ComponentDrill
T11C1.100
; #@! TA.AperFunction,NonPlated,NPTH,ComponentDrill
T12C1.630
; #@! TA.AperFunction,NonPlated,NPTH,ComponentDrill
T13C2.200
%
G90
G05
T1
X176.5Y-129.8
X179.2Y-132.6
X182.6Y-130.6
X182.8Y-123.45
X184.5Y-132.2
X186.05Y-135.9
X188.0Y-136.6
X188.265Y-133.466
X189.2Y-135.15
X189.7Y-131.9
X191.0Y-123.55
X191.558Y-135.44
X192.6Y-122.75
X193.243Y-125.15
X193.9Y-122.75
X194.5Y-127.1
X194.6Y-138.75
X194.7Y-130.3
X197.889Y-128.837
X198.492Y-131.57
X198.91Y-138.22
X199.0Y-134.05
X199.082Y-130.98
X200.4Y-129.9
X201.01Y-136.619
X205.8Y-129.65
X208.8Y-140.59
X208.881Y-128.919
X209.4Y-142.2
X209.9Y-127.8
X212.4Y-142.2
X213.1Y-141.4
X213.8Y-129.55
X221.9Y-121.75
X224.185Y-121.72
X228.545Y-125.45
X229.975Y-129.076
X232.425Y-126.03
X235.575Y-126.0
X245.956Y-136.04
X246.594Y-121.134
X246.956Y-145.109
X247.557Y-125.87
X247.906Y-141.959
X248.306Y-136.059
X248.881Y-124.803
X249.456Y-138.359
X249.506Y-140.309
X249.656Y-143.359
X249.874Y-123.954
X250.024Y-128.004
X250.106Y-139.359
X250.156Y-142.359
X250.524Y-125.004
X250.524Y-127.004
X250.524Y-129.004
X250.706Y-141.359
X250.706Y-143.359
X250.756Y-138.359
X250.806Y-140.359
X251.124Y-124.004
X251.124Y-126.004
X251.124Y-128.004
X251.256Y-139.359
X251.624Y-127.004
X251.724Y-129.004
T2
X169.1Y-122.4
X169.1Y-128.45
X169.1Y-134.4
X169.2Y-141.4
X169.5Y-129.9
X169.5Y-145.7
X170.4Y-130.8
X170.4Y-143.8
X171.85Y-131.75
X172.1Y-126.05
X172.2Y-122.4
X172.675Y-132.575
X173.99Y-137.91
X174.0Y-125.8
X174.0Y-132.275
X174.0Y-142.6
X174.0Y-145.4
X174.1Y-131.1
X175.4Y-139.8
X175.409Y-133.591
X175.75Y-141.6
X176.0Y-131.05
X176.775Y-132.625
X176.8Y-137.2
X176.9Y-134.0
X177.25Y-146.2
X177.8Y-129.0
X178.3Y-131.7
X178.8Y-123.4
X179.85Y-130.6
X180.4Y-123.6
X180.5Y-127.15
X180.65Y-139.95
X183.05Y-128.0
X183.2Y-146.2
X183.5Y-127.0
X184.0Y-130.409
X184.15Y-134.05
X184.7Y-136.0
X185.3Y-141.15
X185.6Y-138.8
X187.1Y-128.75
X189.0Y-145.75
X190.8Y-130.6
X191.278Y-129.0
X191.5Y-144.5
X191.8Y-139.5
X193.6Y-131.8
X193.917Y-124.097
X194.31Y-137.324
X195.35Y-135.45
X195.35Y-136.6
X195.35Y-137.75
X195.7Y-125.9
X196.5Y-135.45
X196.5Y-136.6
X196.5Y-137.75
X197.65Y-135.45
X197.65Y-136.6
X197.65Y-137.75
X197.874Y-141.034
X198.85Y-141.25
X199.1Y-144.6
X199.6Y-126.3
X201.5Y-144.05
X202.8Y-144.6
X202.8Y-146.3
X203.0Y-127.2
X203.0Y-143.6
X205.0Y-136.25
X205.48Y-132.67
X205.9Y-134.8
X206.4Y-127.85
X206.6Y-123.2
X207.5Y-128.7
X207.6Y-126.2
X208.045Y-130.305
X208.2Y-142.9
X208.2Y-145.6
X208.8Y-133.6
X209.3Y-130.75
X210.8Y-145.8
X211.0Y-141.6
X211.4Y-122.2
X211.8Y-133.6
X211.9Y-136.925
X212.2Y-126.8
X212.97Y-131.92
X214.636Y-137.8
X215.0Y-126.2
X216.0Y-145.8
X216.05Y-128.95
X216.1Y-122.3
X216.125Y-135.475
X216.2Y-124.6
X220.75Y-143.14
X220.95Y-140.54
X220.95Y-145.74
X221.15Y-136.14
X221.375Y-131.1
X221.85Y-141.89
X222.95Y-144.54
X223.1Y-136.24
X223.6Y-141.915
X224.575Y-131.3
X225.35Y-145.94
X225.55Y-135.74
X225.715Y-121.95
X225.975Y-127.3
X226.35Y-138.74
X226.775Y-121.95
X227.55Y-139.74
X228.392Y-137.39
X228.575Y-131.0
X228.64Y-143.79
X228.675Y-145.29
X228.7Y-136.29
X228.895Y-121.48
X229.55Y-135.74
X229.6Y-145.29
X229.709Y-142.368
X229.75Y-141.14
X230.475Y-126.65
X230.49Y-140.03
X230.725Y-125.85
X230.765Y-123.22
X231.119Y-146.129
X231.175Y-121.7
X231.35Y-137.74
X231.85Y-140.227
X232.35Y-135.74
X232.375Y-131.1
X232.5Y-144.74
X232.85Y-138.29
X232.875Y-129.025
X232.951Y-141.317
X235.175Y-121.7
X235.35Y-145.94
X235.5Y-141.29
X235.55Y-135.74
X235.55Y-144.54
X235.575Y-122.9
X249.09Y-126.903
T4
X187.475Y-139.85
X188.745Y-139.85
X190.015Y-139.85
T5
X174.85Y-124.0
X176.35Y-124.0
X196.95Y-124.1
X198.45Y-124.1
X199.95Y-124.1
X201.45Y-124.1
X209.15Y-124.1
X210.65Y-124.1
X212.15Y-124.1
X213.65Y-124.1
X222.292Y-139.57
X222.332Y-127.84
X223.792Y-139.57
X223.832Y-127.84
T6
X171.0Y-140.1
X173.0Y-140.1
T8
X207.81Y-140.59
X213.59Y-140.59
T9
X201.95Y-145.5
X203.65Y-145.5
T10
X181.3Y-144.25
X184.3Y-144.25
T12
X244.306Y-140.859
X244.324Y-126.504
T13
X170.7Y-119.2
X214.5Y-119.35
T3
G00X206.38Y-140.64
M15
G01X206.38Y-139.54
M16
G05
G00X206.38Y-144.67
M15
G01X206.38Y-143.87
M16
G05
G00X215.02Y-140.64
M15
G01X215.02Y-139.54
M16
G05
G00X215.02Y-144.67
M15
G01X215.02Y-143.87
M16
G05
T7
G00X243.546Y-137.459
M15
G01X245.066Y-137.459
M16
G05
G00X243.546Y-144.259
M15
G01X245.066Y-144.259
M16
G05
G00X245.084Y-123.104
M15
G01X243.564Y-123.104
M16
G05
G00X245.084Y-129.904
M15
G01X243.564Y-129.904
M16
G05
T11
G00X234.155Y-130.135
M15
G01X234.155Y-122.835
M16
G05
G00X234.2Y-137.19
M15
G01X234.2Y-144.49
M16
G05
T0
M30
