%TF.GenerationSoftware,KiCad,Pcbnew,(6.0.4)*%
%TF.CreationDate,2023-04-22T21:53:26+09:00*%
%TF.ProjectId,kaguya-elec,6b616775-7961-42d6-956c-65632e6b6963,rev?*%
%TF.SameCoordinates,Original*%
%TF.FileFunction,Copper,L4,Bot*%
%TF.FilePolarity,Positive*%
%FSLAX46Y46*%
G04 Gerber Fmt 4.6, Leading zero omitted, Abs format (unit mm)*
G04 Created by KiCad (PCBNEW (6.0.4)) date 2023-04-22 21:53:26*
%MOMM*%
%LPD*%
G01*
G04 APERTURE LIST*
G04 Aperture macros list*
%AMRoundRect*
0 Rectangle with rounded corners*
0 $1 Rounding radius*
0 $2 $3 $4 $5 $6 $7 $8 $9 X,Y pos of 4 corners*
0 Add a 4 corners polygon primitive as box body*
4,1,4,$2,$3,$4,$5,$6,$7,$8,$9,$2,$3,0*
0 Add four circle primitives for the rounded corners*
1,1,$1+$1,$2,$3*
1,1,$1+$1,$4,$5*
1,1,$1+$1,$6,$7*
1,1,$1+$1,$8,$9*
0 Add four rect primitives between the rounded corners*
20,1,$1+$1,$2,$3,$4,$5,0*
20,1,$1+$1,$4,$5,$6,$7,0*
20,1,$1+$1,$6,$7,$8,$9,0*
20,1,$1+$1,$8,$9,$2,$3,0*%
G04 Aperture macros list end*
%TA.AperFunction,ComponentPad*%
%ADD10O,1.030000X1.730000*%
%TD*%
%TA.AperFunction,ComponentPad*%
%ADD11C,1.200000*%
%TD*%
%TA.AperFunction,SMDPad,CuDef*%
%ADD12R,2.000000X1.500000*%
%TD*%
%TA.AperFunction,ComponentPad*%
%ADD13O,3.500000X2.000000*%
%TD*%
%TA.AperFunction,SMDPad,CuDef*%
%ADD14R,1.500000X2.000000*%
%TD*%
%TA.AperFunction,ComponentPad*%
%ADD15R,1.000000X1.000000*%
%TD*%
%TA.AperFunction,ComponentPad*%
%ADD16O,1.000000X1.000000*%
%TD*%
%TA.AperFunction,SMDPad,CuDef*%
%ADD17R,4.000000X0.600000*%
%TD*%
%TA.AperFunction,ComponentPad*%
%ADD18O,1.000000X1.800000*%
%TD*%
%TA.AperFunction,ComponentPad*%
%ADD19O,1.000000X2.100000*%
%TD*%
%TA.AperFunction,SMDPad,CuDef*%
%ADD20RoundRect,0.140000X0.170000X-0.140000X0.170000X0.140000X-0.170000X0.140000X-0.170000X-0.140000X0*%
%TD*%
%TA.AperFunction,SMDPad,CuDef*%
%ADD21RoundRect,0.218750X-0.256250X0.218750X-0.256250X-0.218750X0.256250X-0.218750X0.256250X0.218750X0*%
%TD*%
%TA.AperFunction,SMDPad,CuDef*%
%ADD22RoundRect,0.135000X-0.185000X0.135000X-0.185000X-0.135000X0.185000X-0.135000X0.185000X0.135000X0*%
%TD*%
%TA.AperFunction,SMDPad,CuDef*%
%ADD23RoundRect,0.140000X-0.140000X-0.170000X0.140000X-0.170000X0.140000X0.170000X-0.140000X0.170000X0*%
%TD*%
%TA.AperFunction,SMDPad,CuDef*%
%ADD24RoundRect,0.135000X0.135000X0.185000X-0.135000X0.185000X-0.135000X-0.185000X0.135000X-0.185000X0*%
%TD*%
%TA.AperFunction,SMDPad,CuDef*%
%ADD25RoundRect,0.200000X-0.275000X0.200000X-0.275000X-0.200000X0.275000X-0.200000X0.275000X0.200000X0*%
%TD*%
%TA.AperFunction,SMDPad,CuDef*%
%ADD26RoundRect,0.135000X-0.135000X-0.185000X0.135000X-0.185000X0.135000X0.185000X-0.135000X0.185000X0*%
%TD*%
%TA.AperFunction,SMDPad,CuDef*%
%ADD27R,0.700000X1.800000*%
%TD*%
%TA.AperFunction,ViaPad*%
%ADD28C,0.600000*%
%TD*%
%TA.AperFunction,ViaPad*%
%ADD29C,0.800000*%
%TD*%
%TA.AperFunction,ViaPad*%
%ADD30C,0.500000*%
%TD*%
%TA.AperFunction,Conductor*%
%ADD31C,0.350000*%
%TD*%
%TA.AperFunction,Conductor*%
%ADD32C,0.200000*%
%TD*%
%TA.AperFunction,Conductor*%
%ADD33C,0.500000*%
%TD*%
%TA.AperFunction,Conductor*%
%ADD34C,0.250000*%
%TD*%
%TA.AperFunction,Conductor*%
%ADD35C,0.160000*%
%TD*%
%TA.AperFunction,Conductor*%
%ADD36C,1.500000*%
%TD*%
%TA.AperFunction,Conductor*%
%ADD37C,0.800000*%
%TD*%
G04 APERTURE END LIST*
D10*
%TO.P,J3,1,Pin_1*%
%TO.N,GND*%
X180187500Y-141855000D03*
%TO.P,J3,2,Pin_2*%
%TO.N,Net-(J3-Pad2)*%
X178687500Y-141855000D03*
%TD*%
D11*
%TO.P,S2,*%
%TO.N,*%
X185000000Y-144755000D03*
%TD*%
D12*
%TO.P,J19,1,Pin_1*%
%TO.N,/C_GNSS_TX*%
X172730000Y-137486656D03*
%TO.P,J19,2,Pin_2*%
%TO.N,/C_GNSS_RX*%
X172730000Y-139486656D03*
%TO.P,J19,3,Pin_3*%
%TO.N,unconnected-(J19-Pad3)*%
X172730000Y-141486656D03*
%TO.P,J19,4,Pin_4*%
%TO.N,/C_GNSS_VCC*%
X172730000Y-143486656D03*
%TO.P,J19,5,Pin_5*%
%TO.N,GND*%
X172730000Y-145486656D03*
%TD*%
D10*
%TO.P,J15,1,Pin_1*%
%TO.N,GND*%
X223832500Y-139130000D03*
%TO.P,J15,2,Pin_2*%
%TO.N,+BATT*%
X225332500Y-139130000D03*
%TD*%
D13*
%TO.P,M1,1,+*%
%TO.N,/motor_R1*%
X245861758Y-124166269D03*
%TO.P,M1,2,-*%
%TO.N,/motor_R2*%
X245861758Y-130966269D03*
%TD*%
D14*
%TO.P,J17,1,Pin_1*%
%TO.N,unconnected-(J17-Pad1)*%
X173000000Y-128000000D03*
%TO.P,J17,2,Pin_2*%
%TO.N,/C_TOF_SCL*%
X170500000Y-128000000D03*
%TO.P,J17,3,Pin_3*%
%TO.N,unconnected-(J17-Pad3)*%
X173000000Y-125460000D03*
%TO.P,J17,4,Pin_4*%
%TO.N,/C_TOF_SDA*%
X170500000Y-125460000D03*
%TO.P,J17,5,Pin_5*%
%TO.N,/C_TOF_VCC*%
X173000000Y-122920000D03*
%TO.P,J17,6,Pin_6*%
%TO.N,GND*%
X170500000Y-122920000D03*
%TD*%
D15*
%TO.P,J1,1,Pin_1*%
%TO.N,SWCLK*%
X192975000Y-139805000D03*
D16*
%TO.P,J1,2,Pin_2*%
%TO.N,GND*%
X194245000Y-139805000D03*
%TO.P,J1,3,Pin_3*%
%TO.N,SWDIO*%
X195515000Y-139805000D03*
%TD*%
D10*
%TO.P,J2,1,Pin_1*%
%TO.N,Net-(J2-Pad1)*%
X178842500Y-126270000D03*
%TO.P,J2,2,Pin_2*%
%TO.N,+BATT*%
X180342500Y-126270000D03*
%TD*%
%TO.P,J10,1,Pin_1*%
%TO.N,GND*%
X225370489Y-128902500D03*
%TO.P,J10,2,Pin_2*%
%TO.N,+BATT*%
X223870489Y-128902500D03*
%TD*%
D17*
%TO.P,J11,1,Pin_1*%
%TO.N,/3V3A*%
X252361758Y-125066269D03*
%TO.P,J11,2,Pin_2*%
%TO.N,MOE_RA*%
X252361758Y-126066269D03*
%TO.P,J11,3,Pin_3*%
%TO.N,MOE_RB*%
X252361758Y-127066269D03*
%TO.P,J11,4,Pin_4*%
%TO.N,GND*%
X252361758Y-128066269D03*
%TO.P,J11,5,Pin_5*%
%TO.N,/motor_R1*%
X252361758Y-129066269D03*
%TO.P,J11,6,Pin_6*%
%TO.N,/motor_R2*%
X252361758Y-130066269D03*
%TD*%
D13*
%TO.P,M2,1,+*%
%TO.N,/motor_L1*%
X245845620Y-143818594D03*
%TO.P,M2,2,-*%
%TO.N,/motor_L2*%
X245845620Y-137018594D03*
%TD*%
D17*
%TO.P,J12,1,Pin_1*%
%TO.N,/3V3A*%
X252295620Y-142918594D03*
%TO.P,J12,2,Pin_2*%
%TO.N,MOE_LA*%
X252295620Y-141918594D03*
%TO.P,J12,3,Pin_3*%
%TO.N,MOE_LB*%
X252295620Y-140918594D03*
%TO.P,J12,4,Pin_4*%
%TO.N,GND*%
X252295620Y-139918594D03*
%TO.P,J12,5,Pin_5*%
%TO.N,/motor_L1*%
X252295620Y-138918594D03*
%TO.P,J12,6,Pin_6*%
%TO.N,/motor_L2*%
X252295620Y-137918594D03*
%TD*%
D18*
%TO.P,U1,SHIELD,SHIELD*%
%TO.N,GND*%
X207730000Y-143805000D03*
D19*
X207730000Y-139625000D03*
X216370000Y-139625000D03*
D18*
X216370000Y-143805000D03*
%TD*%
D20*
%TO.P,C17,1*%
%TO.N,+3V3*%
X205400000Y-125255000D03*
%TO.P,C17,2*%
%TO.N,GND*%
X205400000Y-124295000D03*
%TD*%
D21*
%TO.P,D2,1,K*%
%TO.N,GND*%
X179650000Y-143817500D03*
%TO.P,D2,2,A*%
%TO.N,Net-(D2-Pad2)*%
X179650000Y-145392500D03*
%TD*%
D22*
%TO.P,R10,1*%
%TO.N,+3V3*%
X178150000Y-144445000D03*
%TO.P,R10,2*%
%TO.N,Net-(D2-Pad2)*%
X178150000Y-145465000D03*
%TD*%
D23*
%TO.P,C6,1*%
%TO.N,+1V1*%
X212020000Y-133055000D03*
%TO.P,C6,2*%
%TO.N,GND*%
X212980000Y-133055000D03*
%TD*%
D24*
%TO.P,R30,1*%
%TO.N,GNSS_VCC*%
X202860000Y-126505000D03*
%TO.P,R30,2*%
%TO.N,Net-(Q6-Pad1)*%
X201840000Y-126505000D03*
%TD*%
D25*
%TO.P,R5,1*%
%TO.N,Net-(R5-Pad1)*%
X210800000Y-141580000D03*
%TO.P,R5,2*%
%TO.N,GND*%
X210800000Y-143230000D03*
%TD*%
D26*
%TO.P,R22,1*%
%TO.N,+3V3*%
X199240000Y-126505000D03*
%TO.P,R22,2*%
%TO.N,Net-(Q6-Pad1)*%
X200260000Y-126505000D03*
%TD*%
D27*
%TO.P,U2,1,GND*%
%TO.N,GND*%
X182410000Y-128655000D03*
%TO.P,U2,2,GND*%
X183680000Y-128655000D03*
%TO.P,U2,3,GND*%
X184950000Y-128655000D03*
%TO.P,U2,4,GND*%
X196150000Y-128655000D03*
%TO.P,U2,5,M0*%
%TO.N,LORA_M0*%
X197420000Y-128655000D03*
%TO.P,U2,6,M1*%
%TO.N,LORA_M1*%
X198690000Y-128655000D03*
%TO.P,U2,7,RXD*%
%TO.N,LORA_RX*%
X199960000Y-128655000D03*
%TO.P,U2,8,TXD*%
%TO.N,LORA_TX*%
X201230000Y-128655000D03*
%TO.P,U2,9,AUX*%
%TO.N,LORA_AUX*%
X202500000Y-128655000D03*
%TO.P,U2,10,VCC*%
%TO.N,+3V3*%
X203770000Y-128655000D03*
%TO.P,U2,11,GND*%
%TO.N,GND*%
X205040000Y-128655000D03*
%TO.P,U2,12,NC*%
%TO.N,unconnected-(U2-Pad12)*%
X205010000Y-144655000D03*
%TO.P,U2,13,GND*%
%TO.N,GND*%
X203740000Y-144655000D03*
%TO.P,U2,14,NC*%
%TO.N,unconnected-(U2-Pad14)*%
X202470000Y-144655000D03*
%TO.P,U2,15,NC*%
%TO.N,unconnected-(U2-Pad15)*%
X201200000Y-144655000D03*
%TO.P,U2,16,NC*%
%TO.N,unconnected-(U2-Pad16)*%
X199930000Y-144655000D03*
%TO.P,U2,17,NC*%
%TO.N,unconnected-(U2-Pad17)*%
X198660000Y-144655000D03*
%TO.P,U2,18,NC*%
%TO.N,unconnected-(U2-Pad18)*%
X197390000Y-144655000D03*
%TO.P,U2,19,GND*%
%TO.N,GND*%
X196120000Y-144655000D03*
%TO.P,U2,20,GND*%
X184920000Y-144655000D03*
%TO.P,U2,21,ANT*%
%TO.N,unconnected-(U2-Pad21)*%
X183650000Y-144655000D03*
%TO.P,U2,22,GND*%
%TO.N,GND*%
X182380000Y-144655000D03*
%TD*%
D25*
%TO.P,R6,1*%
%TO.N,Net-(R6-Pad1)*%
X213800000Y-141580000D03*
%TO.P,R6,2*%
%TO.N,GND*%
X213800000Y-143230000D03*
%TD*%
D28*
%TO.N,GND*%
X192550000Y-130955000D03*
D29*
X204450000Y-132305000D03*
X231248932Y-141928434D03*
D28*
X195975000Y-130530000D03*
X187900480Y-134955480D03*
D29*
X232659057Y-145689425D03*
X206010000Y-144540000D03*
D28*
X205400000Y-123755000D03*
D30*
X198800000Y-122255000D03*
D28*
X211290000Y-125680000D03*
D29*
X182700000Y-142130000D03*
D28*
X206500000Y-143000000D03*
X252061758Y-128066269D03*
X181280000Y-138370000D03*
X237112989Y-127062020D03*
X194800000Y-135055000D03*
D29*
X232712989Y-122762020D03*
D28*
X179050000Y-130550000D03*
D29*
X233890000Y-135300000D03*
D28*
X204783700Y-129079998D03*
X193761101Y-137755011D03*
D29*
X232030000Y-139590000D03*
D28*
X206209500Y-125205000D03*
X177450000Y-145880000D03*
X213870000Y-123425000D03*
X200475000Y-142355500D03*
D29*
X234040000Y-144300000D03*
D28*
X187000000Y-131300000D03*
D29*
X234491189Y-140876811D03*
X190800000Y-127355000D03*
X222912989Y-132162020D03*
D28*
X179450000Y-128600000D03*
X185990000Y-128810000D03*
D29*
X231290000Y-140700000D03*
D30*
X208850000Y-137950000D03*
X212234200Y-129626400D03*
D28*
X184800000Y-125150000D03*
X212980000Y-133775000D03*
X206125000Y-141055000D03*
D29*
X230112989Y-132062020D03*
X205600000Y-134605000D03*
X207132002Y-145750000D03*
D28*
X197750000Y-142350000D03*
X198450000Y-133655000D03*
X216320000Y-132470000D03*
D29*
X178075000Y-122030000D03*
X224490000Y-144100000D03*
X216420000Y-122530000D03*
D28*
X196250000Y-136555000D03*
D29*
X207500000Y-122605000D03*
X250628422Y-127965770D03*
X205600000Y-133455000D03*
D28*
X231512989Y-130138000D03*
D29*
X236890000Y-145500000D03*
D28*
X185600000Y-122700000D03*
D29*
X206750000Y-133455000D03*
X226112989Y-132362020D03*
D28*
X192260000Y-143650000D03*
D29*
X170500000Y-122920000D03*
X222490000Y-140100000D03*
X237112989Y-123962020D03*
D28*
X178350000Y-133000000D03*
D29*
X205600000Y-132305000D03*
X202350000Y-123055000D03*
X237040000Y-140850000D03*
X222290000Y-142700000D03*
X230432989Y-122542500D03*
D28*
X177850000Y-136540000D03*
D29*
X229090000Y-139300000D03*
D28*
X200950000Y-125255000D03*
X202700000Y-141005500D03*
X252345620Y-139918594D03*
D29*
X206750000Y-132305000D03*
X224640000Y-135800000D03*
D28*
X192900000Y-133255000D03*
D30*
X196745039Y-132773827D03*
D28*
X203750000Y-144850000D03*
X198050000Y-141055000D03*
D29*
X173090000Y-130370000D03*
D28*
X190200000Y-131250000D03*
D29*
X236712989Y-122762020D03*
X204450000Y-134605000D03*
D28*
X189125000Y-140600000D03*
D29*
X206750000Y-134605000D03*
D28*
X251045620Y-139868594D03*
X249445620Y-141518594D03*
X253161758Y-128066269D03*
X233962989Y-127092500D03*
D29*
X231090000Y-135300000D03*
X230240000Y-135850000D03*
D28*
X198300000Y-124355000D03*
D29*
X204450000Y-133455000D03*
D30*
X187200000Y-122655000D03*
D29*
X222490000Y-145300000D03*
X227090000Y-135300000D03*
X232890000Y-137300000D03*
X227890000Y-138300000D03*
X227512989Y-128362020D03*
D28*
X195950000Y-145292500D03*
D29*
X226890000Y-145500000D03*
D28*
X188750000Y-143005000D03*
X185750000Y-137550000D03*
X208339445Y-127725500D03*
D29*
X233912989Y-132162020D03*
X237090000Y-135300000D03*
D28*
X184600000Y-133955000D03*
X172730000Y-145486656D03*
D29*
X222690000Y-135700000D03*
D28*
X225722989Y-122782500D03*
D29*
X232302989Y-124282500D03*
D30*
X195000000Y-122755000D03*
D29*
X237090000Y-144100000D03*
D28*
X198800000Y-137650000D03*
D30*
%TO.N,+3V3*%
X192900000Y-134755000D03*
D28*
X208100000Y-130905000D03*
X197300000Y-122705000D03*
X210030000Y-125920000D03*
D29*
X186375000Y-134055000D03*
D28*
X206100000Y-140005000D03*
X186650000Y-124955000D03*
X199250000Y-126755000D03*
X202708349Y-140013349D03*
D29*
X187500000Y-133450000D03*
D28*
X209000000Y-136805000D03*
X203350000Y-135555000D03*
D30*
X213450000Y-131055000D03*
D28*
X216150000Y-125630000D03*
X205409769Y-126495231D03*
D30*
X178150000Y-144455000D03*
D28*
X216180000Y-129960000D03*
D30*
X195300000Y-128265000D03*
D28*
X180850000Y-132050000D03*
X183500000Y-132805000D03*
D29*
X188650000Y-132800000D03*
D28*
%TO.N,+1V1*%
X203504698Y-134105000D03*
D29*
X200020500Y-137350000D03*
D30*
X201312790Y-133925500D03*
D28*
X210100000Y-133434500D03*
X208010000Y-135075000D03*
D29*
%TO.N,+BATT*%
X223390000Y-141450000D03*
X230215000Y-144850000D03*
X227252989Y-123012500D03*
X225139511Y-141475489D03*
X232262989Y-126912500D03*
X228312989Y-123012500D03*
X232012989Y-127712500D03*
X231140000Y-144850000D03*
D28*
%TO.N,VBUS*%
X187500000Y-140805000D03*
X214450498Y-139255000D03*
X186700000Y-140800000D03*
X209650000Y-139255000D03*
%TO.N,/QSPI_SS*%
X196450000Y-142405000D03*
X213630000Y-128660000D03*
%TO.N,MOE_RA*%
X250419310Y-125865771D03*
X252061758Y-126066269D03*
X248131758Y-122196269D03*
%TO.N,MOE_RB*%
X252661758Y-127066269D03*
X249095288Y-126932739D03*
%TO.N,MOE_LA*%
X251695620Y-141918594D03*
X248495620Y-144668594D03*
D29*
%TO.N,MOE_LB*%
X233390141Y-139787224D03*
D28*
X252245620Y-140918594D03*
D29*
X229932000Y-136950000D03*
D28*
%TO.N,Imonitor_Main*%
X178350000Y-132050000D03*
X207755945Y-137864568D03*
%TO.N,/3V3A*%
X230082969Y-126512500D03*
X252245620Y-142918594D03*
X223437989Y-122812500D03*
D29*
X230179614Y-143350500D03*
D28*
X247495620Y-135600286D03*
D29*
X234412989Y-130087500D03*
D28*
X251411758Y-125016269D03*
X249845620Y-135618594D03*
D29*
X234390000Y-137850000D03*
D28*
X251195620Y-142918594D03*
X252661758Y-125066269D03*
%TO.N,/motor_R1*%
X252661758Y-129066269D03*
X251561758Y-129066269D03*
%TO.N,/motor_R2*%
X253261758Y-130066269D03*
X252061758Y-130066269D03*
%TO.N,/motor_L1*%
X252795620Y-138918594D03*
X251645620Y-138918594D03*
%TO.N,/motor_L2*%
X252295620Y-137918594D03*
X250995620Y-137918594D03*
%TO.N,I2C1_SCL*%
X208728335Y-123778335D03*
X211280000Y-123254500D03*
%TO.N,ToF_VCC*%
X214841411Y-128898589D03*
D30*
X206074700Y-127616022D03*
%TO.N,GNSS_VCC*%
X203950000Y-126455000D03*
D28*
%TO.N,Vmonitor*%
X206782488Y-137913585D03*
X185350000Y-132750000D03*
%TO.N,Nichrome*%
X186920000Y-128860000D03*
X193050000Y-132105000D03*
D30*
%TO.N,RUN*%
X201750000Y-136705000D03*
X214050000Y-136355000D03*
%TO.N,LORA_RX*%
X208172175Y-129129999D03*
%TO.N,LORA_TX*%
X207535425Y-128840425D03*
%TO.N,LORA_AUX*%
X203944500Y-127154481D03*
D29*
%TO.N,Net-(R5-Pad1)*%
X210800000Y-141580000D03*
%TO.N,Net-(R6-Pad1)*%
X213800000Y-141580000D03*
D30*
%TO.N,LORA_M0*%
X200200000Y-130325500D03*
%TO.N,LORA_M1*%
X198850000Y-129355000D03*
%TO.N,Net-(Q6-Pad1)*%
X201150000Y-126505000D03*
D28*
%TO.N,Net-(J4-Pad3)*%
X214050000Y-126580000D03*
X207493512Y-124425253D03*
%TO.N,/C_TOF_SDA*%
X170500000Y-125460000D03*
%TO.N,/C_TOF_SCL*%
X170500000Y-128000000D03*
D29*
%TO.N,/C_TOF_VCC*%
X173000000Y-122920000D03*
X171526287Y-131356072D03*
D28*
%TO.N,unconnected-(J17-Pad1)*%
X173000000Y-128000000D03*
%TO.N,unconnected-(J17-Pad3)*%
X173000000Y-125460000D03*
%TO.N,/C_GNSS_RX*%
X172730000Y-139486656D03*
%TO.N,/C_GNSS_TX*%
X172730000Y-137486656D03*
%TO.N,/C_GNSS_VCC*%
X172730000Y-143486656D03*
%TO.N,unconnected-(J19-Pad3)*%
X172730000Y-141486656D03*
%TD*%
D31*
%TO.N,GND*%
X203750000Y-144850000D02*
X203740000Y-144840000D01*
X203740000Y-144840000D02*
X203740000Y-144655000D01*
X202749500Y-141055000D02*
X202700000Y-141005500D01*
X208305000Y-143230000D02*
X207730000Y-143805000D01*
X189900000Y-141055000D02*
X189400000Y-140555000D01*
X249445620Y-140719572D02*
X249445620Y-141518594D01*
X198099500Y-141005500D02*
X198050000Y-141055000D01*
D32*
X179650000Y-143817500D02*
X180187500Y-143280000D01*
D31*
X251045620Y-139868594D02*
X250296598Y-139868594D01*
X207305000Y-143805000D02*
X206500000Y-143000000D01*
X207730000Y-139625000D02*
X207555000Y-139625000D01*
X207555000Y-139625000D02*
X206125000Y-141055000D01*
X198050000Y-141055000D02*
X189900000Y-141055000D01*
X196120000Y-145122500D02*
X195950000Y-145292500D01*
X196120000Y-144655000D02*
X196120000Y-145122500D01*
D33*
X252061758Y-128066269D02*
X250728921Y-128066269D01*
D34*
X205400000Y-124295000D02*
X205400000Y-123755000D01*
X170500000Y-122930000D02*
X170500000Y-122920000D01*
D32*
X180187500Y-143280000D02*
X180187500Y-141855000D01*
D31*
X210800000Y-143230000D02*
X208305000Y-143230000D01*
X206125000Y-141055000D02*
X202749500Y-141055000D01*
D33*
X250728921Y-128066269D02*
X250628422Y-127965770D01*
D31*
X208850000Y-138505000D02*
X207730000Y-139625000D01*
X207730000Y-143805000D02*
X207305000Y-143805000D01*
X250296598Y-139868594D02*
X249445620Y-140719572D01*
X202700000Y-141005500D02*
X198099500Y-141005500D01*
X204783700Y-129079998D02*
X204783700Y-128911300D01*
X213800000Y-143230000D02*
X210800000Y-143230000D01*
X208850000Y-137950000D02*
X208850000Y-138505000D01*
X204783700Y-128911300D02*
X205040000Y-128655000D01*
D34*
%TO.N,+3V3*%
X205400000Y-126485462D02*
X205409769Y-126495231D01*
X204519011Y-127392452D02*
X204182471Y-127728992D01*
X204182471Y-127728992D02*
X204176008Y-127728992D01*
D35*
X199240000Y-126505000D02*
X199240000Y-126745000D01*
D34*
X204176008Y-127728992D02*
X203770000Y-128135000D01*
X204519011Y-127385989D02*
X204519011Y-127392452D01*
X205400000Y-125255000D02*
X205400000Y-126485462D01*
X205409769Y-126495231D02*
X204519011Y-127385989D01*
D32*
X178150000Y-144445000D02*
X178150000Y-144455000D01*
D35*
X199240000Y-126745000D02*
X199250000Y-126755000D01*
D34*
X203770000Y-128135000D02*
X203770000Y-128655000D01*
D31*
%TO.N,+1V1*%
X212020000Y-133055000D02*
X210479500Y-133055000D01*
X200020500Y-137350000D02*
X200055000Y-137350000D01*
X209070500Y-133434500D02*
X210100000Y-133434500D01*
D32*
X201492290Y-134105000D02*
X201312790Y-133925500D01*
D31*
X208010000Y-134495000D02*
X209070500Y-133434500D01*
D32*
X203504698Y-134105000D02*
X201492290Y-134105000D01*
D31*
X200055000Y-137350000D02*
X203300000Y-134105000D01*
X208010000Y-135075000D02*
X208010000Y-134495000D01*
X203300000Y-134105000D02*
X203504698Y-134105000D01*
X210479500Y-133055000D02*
X210100000Y-133434500D01*
D36*
%TO.N,+BATT*%
X225139511Y-141549511D02*
X228440000Y-144850000D01*
X230215000Y-144850000D02*
X231140000Y-144850000D01*
X228440000Y-144850000D02*
X230215000Y-144850000D01*
X225139511Y-141475489D02*
X225139511Y-141549511D01*
X227252989Y-123012500D02*
X227312988Y-123012500D01*
X225114022Y-141450000D02*
X225139511Y-141475489D01*
X232012989Y-126675444D02*
X232012989Y-127712500D01*
X227312988Y-123012500D02*
X227508569Y-122816919D01*
X228154464Y-122816919D02*
X232012989Y-126675444D01*
X227508569Y-122816919D02*
X228154464Y-122816919D01*
X223390000Y-141450000D02*
X225114022Y-141450000D01*
D31*
%TO.N,VBUS*%
X188375000Y-141680000D02*
X187500000Y-140805000D01*
X208594273Y-141680000D02*
X188375000Y-141680000D01*
X214450498Y-139255000D02*
X213850498Y-139855000D01*
X210250000Y-139855000D02*
X209650000Y-139255000D01*
X210250000Y-139855000D02*
X210250000Y-140024273D01*
X210250000Y-140024273D02*
X208594273Y-141680000D01*
X213850498Y-139855000D02*
X210250000Y-139855000D01*
D32*
%TO.N,Net-(D2-Pad2)*%
X179577500Y-145465000D02*
X179650000Y-145392500D01*
X178150000Y-145465000D02*
X179577500Y-145465000D01*
%TO.N,/QSPI_SS*%
X197000000Y-142955000D02*
X196450000Y-142405000D01*
X205349308Y-142955000D02*
X197000000Y-142955000D01*
X207398828Y-145004520D02*
X205349308Y-142955000D01*
X213630000Y-128660000D02*
X215564521Y-130594521D01*
X213600480Y-145004520D02*
X207398828Y-145004520D01*
X215564521Y-130594521D02*
X215564521Y-143040479D01*
X215564521Y-143040479D02*
X213600480Y-145004520D01*
D34*
%TO.N,MOE_RA*%
X248131758Y-123785291D02*
X248131758Y-122196269D01*
X250419310Y-125865771D02*
X250212238Y-125865771D01*
X250212238Y-125865771D02*
X248131758Y-123785291D01*
%TO.N,MOE_RB*%
X252661758Y-127066269D02*
X249228818Y-127066269D01*
X249228818Y-127066269D02*
X249095288Y-126932739D01*
%TO.N,MOE_LA*%
X248495620Y-144668594D02*
X248495620Y-143769572D01*
X248495620Y-143769572D02*
X250346598Y-141918594D01*
X250346598Y-141918594D02*
X251695620Y-141918594D01*
D32*
%TO.N,MOE_LB*%
X233390141Y-139610882D02*
X233390141Y-139787224D01*
X230729259Y-136950000D02*
X233390141Y-139610882D01*
X229932000Y-136950000D02*
X230729259Y-136950000D01*
D34*
%TO.N,Imonitor_Main*%
X207755945Y-137864568D02*
X206615513Y-139005000D01*
X195856525Y-138980489D02*
X185980489Y-138980489D01*
X195881036Y-139005000D02*
X195856525Y-138980489D01*
X185980489Y-138980489D02*
X179000000Y-132000000D01*
X178400000Y-132000000D02*
X178350000Y-132050000D01*
X206615513Y-139005000D02*
X195881036Y-139005000D01*
X179000000Y-132000000D02*
X178400000Y-132000000D01*
D31*
%TO.N,/3V3A*%
X230922175Y-143350500D02*
X230179614Y-143350500D01*
X234390000Y-137850000D02*
X234390000Y-139950000D01*
X223437989Y-122812500D02*
X227137989Y-126512500D01*
X232437989Y-130087500D02*
X234412989Y-130087500D01*
X227137989Y-126512500D02*
X230082969Y-126512500D01*
X230082969Y-126512500D02*
X230082969Y-127732480D01*
X234390000Y-139950000D02*
X234237700Y-140102300D01*
X247927312Y-135600286D02*
X247495620Y-135600286D01*
X247495620Y-135600286D02*
X249827312Y-135600286D01*
X230082969Y-127732480D02*
X232437989Y-130087500D01*
D34*
X249827312Y-135600286D02*
X247927312Y-135600286D01*
D31*
X234170375Y-140102300D02*
X230922175Y-143350500D01*
X234237700Y-140102300D02*
X234170375Y-140102300D01*
X249827312Y-135600286D02*
X249845620Y-135618594D01*
D36*
%TO.N,/motor_R1*%
X245861758Y-124166269D02*
X247676279Y-125980790D01*
X247676279Y-127280806D02*
X249161742Y-128766269D01*
D33*
X250061758Y-129066269D02*
X249961758Y-128966269D01*
D36*
X247676279Y-125980790D02*
X247676279Y-127280806D01*
D33*
X252661758Y-129066269D02*
X250061758Y-129066269D01*
D36*
X249161742Y-128766269D02*
X249412247Y-128766269D01*
%TO.N,/motor_R2*%
X249461758Y-130966269D02*
X249961758Y-130466269D01*
X245861758Y-130966269D02*
X249461758Y-130966269D01*
D33*
X250061758Y-130066269D02*
X249961758Y-130166269D01*
X252061758Y-130066269D02*
X250061758Y-130066269D01*
D36*
%TO.N,/motor_L1*%
X245845620Y-143818594D02*
X247660141Y-142004073D01*
X247660141Y-142004073D02*
X247660141Y-140804073D01*
D37*
X249545620Y-138918594D02*
X249445620Y-139018594D01*
X249445620Y-139018594D02*
X250245620Y-139018594D01*
D36*
X247660141Y-140804073D02*
X249445620Y-139018594D01*
%TO.N,/motor_L2*%
X250095620Y-137018594D02*
X250595620Y-137518594D01*
D31*
X250995620Y-137918594D02*
X250595620Y-137518594D01*
D36*
X245845620Y-137018594D02*
X250095620Y-137018594D01*
D31*
X252295620Y-137918594D02*
X250995620Y-137918594D01*
D35*
%TO.N,I2C1_SCL*%
X210756165Y-123778335D02*
X208728335Y-123778335D01*
X211280000Y-123254500D02*
X210756165Y-123778335D01*
%TO.N,ToF_VCC*%
X207282757Y-128305000D02*
X208800000Y-128305000D01*
X210650000Y-126455000D02*
X212505000Y-126455000D01*
D34*
X214880000Y-128860000D02*
X214841411Y-128898589D01*
X214880000Y-128830000D02*
X214880000Y-128860000D01*
D35*
X212505000Y-126455000D02*
X214880000Y-128830000D01*
X208800000Y-128305000D02*
X210650000Y-126455000D01*
X206593779Y-127616022D02*
X207282757Y-128305000D01*
X206074700Y-127616022D02*
X206593779Y-127616022D01*
%TO.N,GNSS_VCC*%
X203950000Y-126455000D02*
X202910000Y-126455000D01*
X202910000Y-126455000D02*
X202860000Y-126505000D01*
D34*
%TO.N,Vmonitor*%
X185350000Y-132750000D02*
X185350000Y-134054614D01*
X185350000Y-134054614D02*
X189674897Y-138379511D01*
X206316562Y-138379511D02*
X206782488Y-137913585D01*
X189674897Y-138379511D02*
X206316562Y-138379511D01*
D35*
%TO.N,Nichrome*%
X186920000Y-128860000D02*
X186920000Y-128890000D01*
X186920000Y-128890000D02*
X190135000Y-132105000D01*
X190135000Y-132105000D02*
X193050000Y-132105000D01*
%TO.N,RUN*%
X202950000Y-136205000D02*
X213900000Y-136205000D01*
X201750000Y-136705000D02*
X202450000Y-136705000D01*
X213900000Y-136205000D02*
X214050000Y-136355000D01*
X202450000Y-136705000D02*
X202950000Y-136205000D01*
%TO.N,LORA_RX*%
X199960000Y-129194022D02*
X199960000Y-128655000D01*
X208172175Y-129129999D02*
X206397174Y-130905000D01*
X206397174Y-130905000D02*
X201670978Y-130905000D01*
X201670978Y-130905000D02*
X199960000Y-129194022D01*
%TO.N,LORA_TX*%
X206070850Y-130305000D02*
X202150000Y-130305000D01*
X207535425Y-128840425D02*
X206070850Y-130305000D01*
X201230000Y-129385000D02*
X201230000Y-128655000D01*
X202150000Y-130305000D02*
X201230000Y-129385000D01*
%TO.N,LORA_AUX*%
X203944500Y-127154481D02*
X203461497Y-127154481D01*
X203461497Y-127154481D02*
X202500000Y-128115978D01*
X202500000Y-128115978D02*
X202500000Y-128655000D01*
%TO.N,LORA_M0*%
X200200000Y-130325500D02*
X198551478Y-130325500D01*
X198551478Y-130325500D02*
X197420000Y-129194022D01*
X197420000Y-129194022D02*
X197420000Y-128655000D01*
%TO.N,LORA_M1*%
X198850000Y-128815000D02*
X198690000Y-128655000D01*
X198850000Y-129355000D02*
X198850000Y-128815000D01*
%TO.N,Net-(Q6-Pad1)*%
X201150000Y-126655000D02*
X201150000Y-126505000D01*
X201840000Y-126505000D02*
X200260000Y-126505000D01*
X201200000Y-126705000D02*
X201150000Y-126655000D01*
D34*
%TO.N,Net-(J4-Pad3)*%
X214030000Y-126560000D02*
X214050000Y-126580000D01*
X213860000Y-126560000D02*
X214030000Y-126560000D01*
X207768259Y-124700000D02*
X212000000Y-124700000D01*
X212000000Y-124700000D02*
X213860000Y-126560000D01*
X207493512Y-124425253D02*
X207768259Y-124700000D01*
%TD*%
%TA.AperFunction,Conductor*%
%TO.N,GND*%
G36*
X236917518Y-134952500D02*
G01*
X236932352Y-134954810D01*
X236932355Y-134954810D01*
X236941224Y-134956191D01*
X236950126Y-134955027D01*
X236950250Y-134955011D01*
X236980692Y-134954740D01*
X236988121Y-134955577D01*
X237042764Y-134961734D01*
X237070271Y-134968013D01*
X237147353Y-134994985D01*
X237172774Y-135007227D01*
X237241926Y-135050678D01*
X237263985Y-135068270D01*
X237321730Y-135126015D01*
X237339322Y-135148074D01*
X237382773Y-135217226D01*
X237395015Y-135242647D01*
X237421987Y-135319728D01*
X237428267Y-135347243D01*
X237428592Y-135350129D01*
X237427883Y-135383610D01*
X237427691Y-135384846D01*
X237426309Y-135393724D01*
X237427130Y-135400000D01*
X237426846Y-135400000D01*
X237427405Y-135408218D01*
X237427405Y-135408224D01*
X237430591Y-135455052D01*
X237445454Y-135673525D01*
X237446318Y-135677707D01*
X237446319Y-135677713D01*
X237485685Y-135868217D01*
X237500934Y-135942010D01*
X237519582Y-135994790D01*
X237576759Y-136156622D01*
X237592264Y-136200508D01*
X237594222Y-136204310D01*
X237594222Y-136204311D01*
X237704643Y-136418774D01*
X237717762Y-136444255D01*
X237720220Y-136447762D01*
X237816219Y-136584729D01*
X237875115Y-136668760D01*
X237956437Y-136756550D01*
X237988054Y-136820115D01*
X237990000Y-136842173D01*
X237990000Y-144010785D01*
X237969998Y-144078906D01*
X237956085Y-144096787D01*
X237947422Y-144106063D01*
X237885843Y-144171998D01*
X237727389Y-144396477D01*
X237600977Y-144640442D01*
X237508962Y-144899347D01*
X237508088Y-144903555D01*
X237508087Y-144903557D01*
X237468234Y-145095341D01*
X237453058Y-145168370D01*
X237452765Y-145172656D01*
X237452764Y-145172662D01*
X237446769Y-145260312D01*
X237438111Y-145386898D01*
X237435834Y-145420183D01*
X237435211Y-145425752D01*
X237435191Y-145427347D01*
X237433809Y-145436224D01*
X237434418Y-145440880D01*
X237434307Y-145442500D01*
X237434630Y-145442500D01*
X237434974Y-145445132D01*
X237434974Y-145445133D01*
X237434991Y-145445266D01*
X237435063Y-145453370D01*
X237436550Y-145458685D01*
X237435763Y-145471226D01*
X237435575Y-145472890D01*
X237435242Y-145473681D01*
X237435260Y-145475689D01*
X237428266Y-145537763D01*
X237421987Y-145565271D01*
X237395015Y-145642353D01*
X237382773Y-145667774D01*
X237339322Y-145736926D01*
X237321730Y-145758985D01*
X237263985Y-145816730D01*
X237241926Y-145834322D01*
X237172774Y-145877773D01*
X237147353Y-145890015D01*
X237070272Y-145916987D01*
X237042764Y-145923266D01*
X236987274Y-145929518D01*
X236971632Y-145929423D01*
X236971621Y-145930300D01*
X236962651Y-145930191D01*
X236953776Y-145928809D01*
X236922262Y-145932930D01*
X236905919Y-145933993D01*
X233420405Y-145933385D01*
X232140475Y-145933162D01*
X232072358Y-145913148D01*
X232025874Y-145859484D01*
X232015783Y-145789209D01*
X232050013Y-145719477D01*
X232056143Y-145713152D01*
X232109851Y-145657730D01*
X232118089Y-145649229D01*
X232118091Y-145649226D01*
X232121992Y-145645201D01*
X232247290Y-145458738D01*
X232337588Y-145253033D01*
X232339709Y-145244202D01*
X232388722Y-145040046D01*
X232388722Y-145040045D01*
X232390032Y-145034589D01*
X232397587Y-144903557D01*
X232402640Y-144815917D01*
X232402640Y-144815914D01*
X232402963Y-144810310D01*
X232375975Y-144587285D01*
X232309918Y-144372565D01*
X232219403Y-144197194D01*
X232209454Y-144177919D01*
X232209454Y-144177918D01*
X232206882Y-144172936D01*
X232070123Y-143994708D01*
X231903964Y-143843515D01*
X231899209Y-143840532D01*
X231899206Y-143840530D01*
X231725621Y-143731640D01*
X231678543Y-143678497D01*
X231667671Y-143608338D01*
X231696455Y-143543438D01*
X231703482Y-143535808D01*
X234466405Y-140772885D01*
X234528717Y-140738859D01*
X234599532Y-140743924D01*
X234656368Y-140786471D01*
X234681179Y-140852991D01*
X234681500Y-140861980D01*
X234681500Y-144102237D01*
X234681800Y-144105293D01*
X234681800Y-144105300D01*
X234688340Y-144171998D01*
X234696635Y-144256592D01*
X234756632Y-144455315D01*
X234759527Y-144460760D01*
X234759528Y-144460762D01*
X234826803Y-144587285D01*
X234854087Y-144638599D01*
X234902917Y-144698471D01*
X234981390Y-144794689D01*
X234981393Y-144794692D01*
X234985285Y-144799464D01*
X234990033Y-144803392D01*
X234990034Y-144803393D01*
X235005173Y-144815917D01*
X235145230Y-144931783D01*
X235150647Y-144934712D01*
X235150650Y-144934714D01*
X235322410Y-145027584D01*
X235322415Y-145027586D01*
X235327830Y-145030514D01*
X235526129Y-145091898D01*
X235532254Y-145092542D01*
X235532255Y-145092542D01*
X235726446Y-145112952D01*
X235726448Y-145112952D01*
X235732575Y-145113596D01*
X235818485Y-145105777D01*
X235933164Y-145095341D01*
X235933167Y-145095340D01*
X235939303Y-145094782D01*
X235945209Y-145093044D01*
X235945213Y-145093043D01*
X236093068Y-145049527D01*
X236138440Y-145036173D01*
X236322400Y-144940001D01*
X236484177Y-144809929D01*
X236489662Y-144803393D01*
X236613650Y-144655629D01*
X236617609Y-144650911D01*
X236620573Y-144645519D01*
X236620576Y-144645515D01*
X236714646Y-144474402D01*
X236717613Y-144469005D01*
X236780379Y-144271139D01*
X236781350Y-144262489D01*
X236798107Y-144113087D01*
X236798500Y-144109587D01*
X236798500Y-136697763D01*
X236797780Y-136690413D01*
X236783966Y-136549534D01*
X236783965Y-136549531D01*
X236783365Y-136543408D01*
X236723368Y-136344685D01*
X236684260Y-136271134D01*
X236628809Y-136166847D01*
X236628808Y-136166845D01*
X236625913Y-136161401D01*
X236550835Y-136069346D01*
X236498610Y-136005311D01*
X236498607Y-136005308D01*
X236494715Y-136000536D01*
X236487770Y-135994790D01*
X236339518Y-135872145D01*
X236339519Y-135872145D01*
X236334770Y-135868217D01*
X236329353Y-135865288D01*
X236329350Y-135865286D01*
X236157590Y-135772416D01*
X236157585Y-135772414D01*
X236152170Y-135769486D01*
X235953871Y-135708102D01*
X235947746Y-135707458D01*
X235947745Y-135707458D01*
X235753554Y-135687048D01*
X235753552Y-135687048D01*
X235747425Y-135686404D01*
X235661515Y-135694223D01*
X235546836Y-135704659D01*
X235546833Y-135704660D01*
X235540697Y-135705218D01*
X235534791Y-135706956D01*
X235534787Y-135706957D01*
X235386932Y-135750473D01*
X235341560Y-135763827D01*
X235157600Y-135859999D01*
X234995823Y-135990071D01*
X234991865Y-135994788D01*
X234991863Y-135994790D01*
X234987042Y-136000536D01*
X234862391Y-136149089D01*
X234859427Y-136154481D01*
X234859424Y-136154485D01*
X234769776Y-136317554D01*
X234762387Y-136330995D01*
X234699621Y-136528861D01*
X234698935Y-136534978D01*
X234698934Y-136534982D01*
X234697302Y-136549534D01*
X234681500Y-136690413D01*
X234681500Y-136827566D01*
X234661498Y-136895687D01*
X234607842Y-136942180D01*
X234537568Y-136952284D01*
X234529304Y-136950813D01*
X234491946Y-136942873D01*
X234491947Y-136942873D01*
X234485487Y-136941500D01*
X234294513Y-136941500D01*
X234288061Y-136942872D01*
X234288056Y-136942872D01*
X234223638Y-136956565D01*
X234107712Y-136981206D01*
X234101682Y-136983891D01*
X234101681Y-136983891D01*
X233939278Y-137056197D01*
X233939276Y-137056198D01*
X233933248Y-137058882D01*
X233778747Y-137171134D01*
X233774326Y-137176044D01*
X233774325Y-137176045D01*
X233664082Y-137298483D01*
X233650960Y-137313056D01*
X233555473Y-137478444D01*
X233496458Y-137660072D01*
X233476496Y-137850000D01*
X233477186Y-137856565D01*
X233492974Y-138006775D01*
X233496458Y-138039928D01*
X233555473Y-138221556D01*
X233650960Y-138386944D01*
X233655380Y-138391853D01*
X233655383Y-138391857D01*
X233674135Y-138412683D01*
X233704853Y-138476690D01*
X233706500Y-138496994D01*
X233706500Y-138762502D01*
X233686498Y-138830623D01*
X233632842Y-138877116D01*
X233562568Y-138887220D01*
X233497988Y-138857726D01*
X233491405Y-138851597D01*
X231193574Y-136553766D01*
X231182707Y-136541375D01*
X231168272Y-136522563D01*
X231163246Y-136516013D01*
X231131334Y-136491526D01*
X231131331Y-136491523D01*
X231036135Y-136418476D01*
X230888110Y-136357162D01*
X230879923Y-136356084D01*
X230879922Y-136356084D01*
X230868717Y-136354609D01*
X230837521Y-136350502D01*
X230769144Y-136341500D01*
X230769141Y-136341500D01*
X230769133Y-136341499D01*
X230737448Y-136337328D01*
X230729259Y-136336250D01*
X230697566Y-136340422D01*
X230681123Y-136341500D01*
X230662710Y-136341500D01*
X230594589Y-136321498D01*
X230569074Y-136299811D01*
X230547668Y-136276037D01*
X230547666Y-136276036D01*
X230543253Y-136271134D01*
X230474572Y-136221234D01*
X230394094Y-136162763D01*
X230394093Y-136162762D01*
X230388752Y-136158882D01*
X230382724Y-136156198D01*
X230382722Y-136156197D01*
X230220319Y-136083891D01*
X230220318Y-136083891D01*
X230214288Y-136081206D01*
X230120887Y-136061353D01*
X230033944Y-136042872D01*
X230033939Y-136042872D01*
X230027487Y-136041500D01*
X229836513Y-136041500D01*
X229830061Y-136042872D01*
X229830056Y-136042872D01*
X229743113Y-136061353D01*
X229649712Y-136081206D01*
X229643682Y-136083891D01*
X229643681Y-136083891D01*
X229481278Y-136156197D01*
X229481276Y-136156198D01*
X229475248Y-136158882D01*
X229320747Y-136271134D01*
X229192960Y-136413056D01*
X229097473Y-136578444D01*
X229038458Y-136760072D01*
X229018496Y-136950000D01*
X229038458Y-137139928D01*
X229097473Y-137321556D01*
X229192960Y-137486944D01*
X229320747Y-137628866D01*
X229475248Y-137741118D01*
X229481276Y-137743802D01*
X229481278Y-137743803D01*
X229643681Y-137816109D01*
X229649712Y-137818794D01*
X229725193Y-137834838D01*
X229830056Y-137857128D01*
X229830061Y-137857128D01*
X229836513Y-137858500D01*
X230027487Y-137858500D01*
X230033939Y-137857128D01*
X230033944Y-137857128D01*
X230138807Y-137834838D01*
X230214288Y-137818794D01*
X230220319Y-137816109D01*
X230382722Y-137743803D01*
X230382724Y-137743802D01*
X230388752Y-137741118D01*
X230394094Y-137737237D01*
X230458696Y-137690301D01*
X230525564Y-137666442D01*
X230594716Y-137682523D01*
X230621852Y-137703142D01*
X232455948Y-139537238D01*
X232489974Y-139599550D01*
X232492163Y-139639503D01*
X232476637Y-139787224D01*
X232477327Y-139793789D01*
X232487497Y-139890547D01*
X232496599Y-139977152D01*
X232555614Y-140158780D01*
X232651101Y-140324168D01*
X232711656Y-140391421D01*
X232727822Y-140409375D01*
X232758539Y-140473383D01*
X232749774Y-140543836D01*
X232723280Y-140582780D01*
X230773928Y-142532132D01*
X230711616Y-142566158D01*
X230640801Y-142561093D01*
X230633601Y-142558151D01*
X230461902Y-142481706D01*
X230357267Y-142459465D01*
X230281558Y-142443372D01*
X230281553Y-142443372D01*
X230275101Y-142442000D01*
X230084127Y-142442000D01*
X230077675Y-142443372D01*
X230077670Y-142443372D01*
X230001961Y-142459465D01*
X229897326Y-142481706D01*
X229891296Y-142484391D01*
X229891295Y-142484391D01*
X229728892Y-142556697D01*
X229728890Y-142556698D01*
X229722862Y-142559382D01*
X229717521Y-142563262D01*
X229717520Y-142563263D01*
X229697296Y-142577957D01*
X229568361Y-142671634D01*
X229440574Y-142813556D01*
X229345087Y-142978944D01*
X229286072Y-143160572D01*
X229266110Y-143350500D01*
X229266800Y-143357064D01*
X229276813Y-143452329D01*
X229264041Y-143522168D01*
X229215539Y-143574014D01*
X229151503Y-143591500D01*
X229013478Y-143591500D01*
X228945357Y-143571498D01*
X228924383Y-143554595D01*
X226270767Y-140900979D01*
X226253699Y-140877998D01*
X226253114Y-140878382D01*
X226253114Y-140878381D01*
X226243267Y-140863391D01*
X226234854Y-140848460D01*
X226229548Y-140837335D01*
X226227133Y-140832271D01*
X226223861Y-140827718D01*
X226223859Y-140827714D01*
X226178501Y-140764592D01*
X226175512Y-140760242D01*
X226137395Y-140702214D01*
X226129776Y-140690615D01*
X226111254Y-140669827D01*
X226103017Y-140659545D01*
X226099310Y-140654386D01*
X226096040Y-140649835D01*
X226065263Y-140620010D01*
X226052988Y-140606232D01*
X226047563Y-140599162D01*
X226047562Y-140599160D01*
X226044145Y-140594708D01*
X225983857Y-140539850D01*
X225979562Y-140535752D01*
X225963612Y-140519802D01*
X225954352Y-140512060D01*
X225947499Y-140505889D01*
X225934710Y-140493495D01*
X225936184Y-140491974D01*
X225901094Y-140441186D01*
X225898723Y-140370229D01*
X225935090Y-140309254D01*
X225941785Y-140303472D01*
X225988810Y-140265663D01*
X226052070Y-140214801D01*
X226181090Y-140061041D01*
X226184054Y-140055649D01*
X226184057Y-140055645D01*
X226274820Y-139890547D01*
X226277787Y-139885150D01*
X226338478Y-139693827D01*
X226356000Y-139537615D01*
X226356000Y-138729496D01*
X226341365Y-138580239D01*
X226335378Y-138560407D01*
X226285132Y-138393987D01*
X226283351Y-138388087D01*
X226189120Y-138210863D01*
X226062259Y-138055318D01*
X225907603Y-137927375D01*
X225731041Y-137831908D01*
X225635170Y-137802231D01*
X225545186Y-137774376D01*
X225545183Y-137774375D01*
X225539299Y-137772554D01*
X225533174Y-137771910D01*
X225533173Y-137771910D01*
X225345808Y-137752217D01*
X225345807Y-137752217D01*
X225339680Y-137751573D01*
X225256662Y-137759128D01*
X225145926Y-137769206D01*
X225145923Y-137769207D01*
X225139787Y-137769765D01*
X225133881Y-137771503D01*
X225133877Y-137771504D01*
X224991621Y-137813373D01*
X224947235Y-137826436D01*
X224769358Y-137919428D01*
X224764558Y-137923288D01*
X224764557Y-137923288D01*
X224660720Y-138006775D01*
X224595097Y-138033871D01*
X224525243Y-138021188D01*
X224501453Y-138005663D01*
X224412072Y-137931720D01*
X224401901Y-137924860D01*
X224236265Y-137835301D01*
X224224960Y-137830549D01*
X224103808Y-137793046D01*
X224089705Y-137792840D01*
X224086500Y-137799595D01*
X224086500Y-139258000D01*
X224066498Y-139326121D01*
X224012842Y-139372614D01*
X223960500Y-139384000D01*
X222827615Y-139384000D01*
X222812376Y-139388475D01*
X222811171Y-139389865D01*
X222809500Y-139397548D01*
X222809500Y-139527401D01*
X222809801Y-139533549D01*
X222823526Y-139673530D01*
X222825909Y-139685565D01*
X222880332Y-139865821D01*
X222885007Y-139877163D01*
X222973405Y-140043417D01*
X222980192Y-140053633D01*
X222994843Y-140071596D01*
X223022397Y-140137027D01*
X223010202Y-140206969D01*
X222962130Y-140259214D01*
X222949397Y-140265345D01*
X222949549Y-140265663D01*
X222746782Y-140362378D01*
X222564346Y-140493471D01*
X222536896Y-140521797D01*
X222416599Y-140645934D01*
X222408008Y-140654799D01*
X222282710Y-140841262D01*
X222192412Y-141046967D01*
X222139968Y-141265411D01*
X222127037Y-141489690D01*
X222154025Y-141712715D01*
X222220082Y-141927435D01*
X222323118Y-142127064D01*
X222459877Y-142305292D01*
X222626036Y-142456485D01*
X222630783Y-142459463D01*
X222630786Y-142459465D01*
X222785789Y-142556697D01*
X222816344Y-142575864D01*
X223024783Y-142659656D01*
X223244767Y-142705213D01*
X223249378Y-142705479D01*
X223249379Y-142705479D01*
X223299952Y-142708395D01*
X223299956Y-142708395D01*
X223301775Y-142708500D01*
X224466523Y-142708500D01*
X224534644Y-142728502D01*
X224555618Y-142745405D01*
X226041388Y-144231176D01*
X227485475Y-145675263D01*
X227496342Y-145687653D01*
X227509877Y-145705292D01*
X227514017Y-145709059D01*
X227514028Y-145709071D01*
X227518513Y-145713152D01*
X227555433Y-145773793D01*
X227553707Y-145844769D01*
X227513883Y-145903544D01*
X227448604Y-145931459D01*
X227433695Y-145932342D01*
X222659396Y-145931509D01*
X222640044Y-145930010D01*
X222616276Y-145926309D01*
X222607374Y-145927473D01*
X222607250Y-145927489D01*
X222576808Y-145927760D01*
X222556130Y-145925430D01*
X222514736Y-145920766D01*
X222487229Y-145914487D01*
X222410147Y-145887515D01*
X222384726Y-145875273D01*
X222315574Y-145831822D01*
X222293515Y-145814230D01*
X222235770Y-145756485D01*
X222218178Y-145734426D01*
X222174727Y-145665274D01*
X222162485Y-145639853D01*
X222135513Y-145562772D01*
X222129234Y-145535266D01*
X222124429Y-145492625D01*
X222123170Y-145481447D01*
X222122888Y-145456640D01*
X222123576Y-145452552D01*
X222123665Y-145445266D01*
X222123670Y-145444860D01*
X222123670Y-145444857D01*
X222123729Y-145440000D01*
X222117830Y-145398812D01*
X222116699Y-145386898D01*
X222110169Y-145248529D01*
X222109965Y-145244202D01*
X222059062Y-144971722D01*
X222003313Y-144804732D01*
X221972652Y-144712892D01*
X221972651Y-144712889D01*
X221971283Y-144708792D01*
X221939953Y-144645515D01*
X221855229Y-144474402D01*
X221848286Y-144460380D01*
X221711814Y-144259729D01*
X221690000Y-144188868D01*
X221690000Y-138857885D01*
X222809500Y-138857885D01*
X222813975Y-138873124D01*
X222815365Y-138874329D01*
X222823048Y-138876000D01*
X223560385Y-138876000D01*
X223575624Y-138871525D01*
X223576829Y-138870135D01*
X223578500Y-138862452D01*
X223578500Y-137806438D01*
X223574527Y-137792907D01*
X223566732Y-137791787D01*
X223453332Y-137825162D01*
X223441964Y-137829755D01*
X223275091Y-137916994D01*
X223264829Y-137923710D01*
X223118086Y-138041695D01*
X223109320Y-138050278D01*
X222988284Y-138194524D01*
X222981358Y-138204638D01*
X222890641Y-138369652D01*
X222885813Y-138380916D01*
X222828875Y-138560407D01*
X222826327Y-138572396D01*
X222809893Y-138718909D01*
X222809500Y-138725933D01*
X222809500Y-138857885D01*
X221690000Y-138857885D01*
X221690000Y-136757007D01*
X221713062Y-136684346D01*
X221857620Y-136479553D01*
X221857625Y-136479545D01*
X221860111Y-136476023D01*
X221966276Y-136271134D01*
X221984547Y-136235872D01*
X221984548Y-136235869D01*
X221986523Y-136232058D01*
X222078538Y-135973153D01*
X222120861Y-135769486D01*
X222133568Y-135708338D01*
X222133569Y-135708332D01*
X222134442Y-135704130D01*
X222135611Y-135687048D01*
X222141626Y-135599100D01*
X222144482Y-135557356D01*
X222145932Y-135545069D01*
X222161076Y-135455052D01*
X222161229Y-135442500D01*
X222160540Y-135437688D01*
X222160223Y-135432827D01*
X222160508Y-135432808D01*
X222160107Y-135406049D01*
X222166734Y-135347236D01*
X222173013Y-135319729D01*
X222199985Y-135242647D01*
X222212227Y-135217226D01*
X222255678Y-135148074D01*
X222273270Y-135126015D01*
X222331015Y-135068270D01*
X222353074Y-135050678D01*
X222422226Y-135007227D01*
X222447647Y-134994985D01*
X222524728Y-134968013D01*
X222552236Y-134961734D01*
X222607726Y-134955482D01*
X222623368Y-134955577D01*
X222623379Y-134954700D01*
X222632351Y-134954810D01*
X222641224Y-134956191D01*
X222650126Y-134955027D01*
X222650128Y-134955027D01*
X222665451Y-134953023D01*
X222672786Y-134952064D01*
X222689121Y-134951000D01*
X236898133Y-134951000D01*
X236917518Y-134952500D01*
G37*
%TD.AperFunction*%
%TD*%
%TA.AperFunction,Conductor*%
%TO.N,GND*%
G36*
X222780306Y-122111003D02*
G01*
X222826799Y-122164659D01*
X222836903Y-122234933D01*
X222810341Y-122295472D01*
X222807482Y-122298271D01*
X222709224Y-122450738D01*
X222706815Y-122457358D01*
X222706813Y-122457361D01*
X222653415Y-122604070D01*
X222647186Y-122621185D01*
X222624452Y-122801140D01*
X222642152Y-122981660D01*
X222699407Y-123153773D01*
X222703054Y-123159795D01*
X222703055Y-123159797D01*
X222789167Y-123301985D01*
X222793369Y-123308924D01*
X222919371Y-123439402D01*
X222925267Y-123443260D01*
X223062204Y-123532869D01*
X223071148Y-123538722D01*
X223077752Y-123541178D01*
X223077754Y-123541179D01*
X223241157Y-123601948D01*
X223240552Y-123603576D01*
X223290984Y-123632110D01*
X226634833Y-126975959D01*
X226640687Y-126982224D01*
X226677279Y-127024170D01*
X226727644Y-127059566D01*
X226732909Y-127063478D01*
X226781317Y-127101435D01*
X226788241Y-127104561D01*
X226792550Y-127107171D01*
X226801965Y-127112542D01*
X226806413Y-127114927D01*
X226812628Y-127119295D01*
X226819705Y-127122054D01*
X226869946Y-127141642D01*
X226876018Y-127144194D01*
X226932094Y-127169514D01*
X226939571Y-127170900D01*
X226944391Y-127172410D01*
X226954824Y-127175382D01*
X226959685Y-127176630D01*
X226966761Y-127179389D01*
X227027008Y-127187320D01*
X227027751Y-127187418D01*
X227034267Y-127188450D01*
X227070905Y-127195240D01*
X227094756Y-127199661D01*
X227102336Y-127199224D01*
X227102337Y-127199224D01*
X227154631Y-127196209D01*
X227161883Y-127196000D01*
X229273469Y-127196000D01*
X229341590Y-127216002D01*
X229388083Y-127269658D01*
X229399469Y-127322000D01*
X229399469Y-127704435D01*
X229399177Y-127713003D01*
X229395393Y-127768514D01*
X229396698Y-127775991D01*
X229396698Y-127775994D01*
X229405971Y-127829127D01*
X229406934Y-127835651D01*
X229414324Y-127896715D01*
X229417011Y-127903825D01*
X229418215Y-127908728D01*
X229421083Y-127919214D01*
X229422530Y-127924006D01*
X229423835Y-127931484D01*
X229426887Y-127938436D01*
X229426887Y-127938437D01*
X229448564Y-127987821D01*
X229451055Y-127993926D01*
X229470114Y-128044362D01*
X229472800Y-128051469D01*
X229477100Y-128057726D01*
X229479436Y-128062194D01*
X229484694Y-128071640D01*
X229487276Y-128076006D01*
X229490331Y-128082965D01*
X229527792Y-128131784D01*
X229531655Y-128137103D01*
X229547796Y-128160587D01*
X229566503Y-128187806D01*
X229572172Y-128192857D01*
X229611292Y-128227712D01*
X229616567Y-128232693D01*
X231934833Y-130550959D01*
X231940687Y-130557224D01*
X231977279Y-130599170D01*
X232027644Y-130634566D01*
X232032909Y-130638478D01*
X232081317Y-130676435D01*
X232088241Y-130679561D01*
X232092550Y-130682171D01*
X232101965Y-130687542D01*
X232106413Y-130689927D01*
X232112628Y-130694295D01*
X232169941Y-130716640D01*
X232176023Y-130719197D01*
X232200357Y-130730184D01*
X232232093Y-130744514D01*
X232239565Y-130745899D01*
X232244416Y-130747419D01*
X232254754Y-130750364D01*
X232259685Y-130751630D01*
X232266761Y-130754389D01*
X232274290Y-130755380D01*
X232274293Y-130755381D01*
X232327755Y-130762419D01*
X232334270Y-130763451D01*
X232376130Y-130771209D01*
X232394756Y-130774661D01*
X232402336Y-130774224D01*
X232402337Y-130774224D01*
X232454631Y-130771209D01*
X232461883Y-130771000D01*
X233767174Y-130771000D01*
X233835295Y-130791002D01*
X233841235Y-130795064D01*
X233956237Y-130878618D01*
X233962265Y-130881302D01*
X233962267Y-130881303D01*
X234004895Y-130900282D01*
X234130701Y-130956294D01*
X234224101Y-130976147D01*
X234311045Y-130994628D01*
X234311050Y-130994628D01*
X234317502Y-130996000D01*
X234508476Y-130996000D01*
X234508476Y-130998415D01*
X234568279Y-131011089D01*
X234618751Y-131061020D01*
X234634489Y-131121999D01*
X234634489Y-131249737D01*
X234634789Y-131252793D01*
X234634789Y-131252800D01*
X234635553Y-131260587D01*
X234649624Y-131404092D01*
X234677208Y-131495455D01*
X234706160Y-131591350D01*
X234709621Y-131602815D01*
X234712516Y-131608260D01*
X234712517Y-131608262D01*
X234786282Y-131746991D01*
X234807076Y-131786099D01*
X234855906Y-131845971D01*
X234934379Y-131942189D01*
X234934382Y-131942192D01*
X234938274Y-131946964D01*
X234943022Y-131950892D01*
X234943023Y-131950893D01*
X234999715Y-131997793D01*
X235098219Y-132079283D01*
X235103636Y-132082212D01*
X235103639Y-132082214D01*
X235275399Y-132175084D01*
X235275404Y-132175086D01*
X235280819Y-132178014D01*
X235479118Y-132239398D01*
X235485243Y-132240042D01*
X235485244Y-132240042D01*
X235679435Y-132260452D01*
X235679437Y-132260452D01*
X235685564Y-132261096D01*
X235771474Y-132253277D01*
X235886153Y-132242841D01*
X235886156Y-132242840D01*
X235892292Y-132242282D01*
X235898198Y-132240544D01*
X235898202Y-132240543D01*
X236046057Y-132197027D01*
X236091429Y-132183673D01*
X236275389Y-132087501D01*
X236437166Y-131957429D01*
X236442651Y-131950893D01*
X236566639Y-131803129D01*
X236570598Y-131798411D01*
X236573562Y-131793019D01*
X236573565Y-131793015D01*
X236667635Y-131621902D01*
X236670602Y-131616505D01*
X236733368Y-131418639D01*
X236734339Y-131409989D01*
X236748299Y-131285525D01*
X236751489Y-131257087D01*
X236751489Y-123845263D01*
X236750769Y-123837913D01*
X236736955Y-123697034D01*
X236736954Y-123697031D01*
X236736354Y-123690908D01*
X236696515Y-123558954D01*
X236678141Y-123498093D01*
X236678140Y-123498090D01*
X236676357Y-123492185D01*
X236666208Y-123473098D01*
X236581798Y-123314347D01*
X236581797Y-123314345D01*
X236578902Y-123308901D01*
X236466000Y-123170469D01*
X236451599Y-123152811D01*
X236451596Y-123152808D01*
X236447704Y-123148036D01*
X236440759Y-123142290D01*
X236292507Y-123019645D01*
X236292508Y-123019645D01*
X236287759Y-123015717D01*
X236282342Y-123012788D01*
X236282339Y-123012786D01*
X236110579Y-122919916D01*
X236110574Y-122919914D01*
X236105159Y-122916986D01*
X235906860Y-122855602D01*
X235900735Y-122854958D01*
X235900734Y-122854958D01*
X235706543Y-122834548D01*
X235706541Y-122834548D01*
X235700414Y-122833904D01*
X235614504Y-122841723D01*
X235499825Y-122852159D01*
X235499822Y-122852160D01*
X235493686Y-122852718D01*
X235487780Y-122854456D01*
X235487776Y-122854457D01*
X235339921Y-122897973D01*
X235294549Y-122911327D01*
X235110589Y-123007499D01*
X234948812Y-123137571D01*
X234944854Y-123142288D01*
X234944852Y-123142290D01*
X234940031Y-123148036D01*
X234815380Y-123296589D01*
X234812416Y-123301981D01*
X234812413Y-123301985D01*
X234734747Y-123443260D01*
X234715376Y-123478495D01*
X234652610Y-123676361D01*
X234651924Y-123682478D01*
X234651923Y-123682482D01*
X234651129Y-123689564D01*
X234634489Y-123837913D01*
X234634489Y-129053001D01*
X234614487Y-129121122D01*
X234560831Y-129167615D01*
X234508476Y-129176916D01*
X234508476Y-129179000D01*
X234317502Y-129179000D01*
X234311050Y-129180372D01*
X234311045Y-129180372D01*
X234224101Y-129198853D01*
X234130701Y-129218706D01*
X234124671Y-129221391D01*
X234124670Y-129221391D01*
X233962267Y-129293697D01*
X233962265Y-129293698D01*
X233956237Y-129296382D01*
X233950896Y-129300262D01*
X233950895Y-129300263D01*
X233841235Y-129379936D01*
X233774367Y-129403795D01*
X233767174Y-129404000D01*
X232773294Y-129404000D01*
X232705173Y-129383998D01*
X232684199Y-129367095D01*
X232415948Y-129098844D01*
X232381922Y-129036532D01*
X232386987Y-128965717D01*
X232429534Y-128908881D01*
X232467991Y-128889320D01*
X232481156Y-128885269D01*
X232490424Y-128882418D01*
X232495404Y-128879848D01*
X232495408Y-128879846D01*
X232685070Y-128781954D01*
X232685071Y-128781954D01*
X232690053Y-128779382D01*
X232868281Y-128642623D01*
X233019474Y-128476464D01*
X233105910Y-128338673D01*
X233135874Y-128290905D01*
X233138853Y-128286156D01*
X233222645Y-128077717D01*
X233268202Y-127857733D01*
X233269631Y-127832946D01*
X233271384Y-127802548D01*
X233271384Y-127802544D01*
X233271489Y-127800725D01*
X233271489Y-126766839D01*
X233272567Y-126750392D01*
X233274735Y-126733927D01*
X233274735Y-126733923D01*
X233275468Y-126728357D01*
X233271629Y-126646954D01*
X233271489Y-126641019D01*
X233271489Y-126618445D01*
X233269170Y-126592457D01*
X233268811Y-126587194D01*
X233265149Y-126509556D01*
X233264885Y-126503955D01*
X233263634Y-126498492D01*
X233263633Y-126498486D01*
X233260882Y-126486476D01*
X233258200Y-126469543D01*
X233257105Y-126457276D01*
X233256606Y-126451682D01*
X233234613Y-126371292D01*
X233233330Y-126366183D01*
X233215983Y-126290442D01*
X233214731Y-126284974D01*
X233207695Y-126268477D01*
X233202062Y-126252302D01*
X233198807Y-126240405D01*
X233198806Y-126240401D01*
X233197326Y-126234993D01*
X233161450Y-126159777D01*
X233159279Y-126154968D01*
X233128793Y-126083495D01*
X233128793Y-126083494D01*
X233126592Y-126078335D01*
X233116738Y-126063334D01*
X233108332Y-126048414D01*
X233103024Y-126037285D01*
X233100611Y-126032226D01*
X233097343Y-126027678D01*
X233097340Y-126027673D01*
X233051987Y-125964558D01*
X233048998Y-125960209D01*
X233003254Y-125890569D01*
X232984736Y-125869785D01*
X232976487Y-125859489D01*
X232972793Y-125854348D01*
X232969518Y-125849790D01*
X232892766Y-125775412D01*
X232891356Y-125774023D01*
X229423429Y-122306096D01*
X229389403Y-122243784D01*
X229394468Y-122172969D01*
X229437015Y-122116133D01*
X229503535Y-122091322D01*
X229512524Y-122091001D01*
X236903627Y-122091001D01*
X236923011Y-122092501D01*
X236937845Y-122094811D01*
X236937848Y-122094811D01*
X236946718Y-122096192D01*
X236955743Y-122095012D01*
X236986178Y-122094740D01*
X237025311Y-122099149D01*
X237048257Y-122101734D01*
X237075763Y-122108012D01*
X237152851Y-122134985D01*
X237178274Y-122147228D01*
X237247421Y-122190676D01*
X237269480Y-122208267D01*
X237327229Y-122266015D01*
X237344820Y-122288073D01*
X237350180Y-122296602D01*
X237388273Y-122357226D01*
X237400512Y-122382639D01*
X237427489Y-122459735D01*
X237433765Y-122487232D01*
X237433766Y-122487240D01*
X237434576Y-122494431D01*
X237431226Y-122494808D01*
X237433346Y-122502599D01*
X237434796Y-122502500D01*
X237436134Y-122522060D01*
X237439673Y-122573806D01*
X237438012Y-122573920D01*
X237438602Y-122576313D01*
X237439296Y-122576222D01*
X237439929Y-122581063D01*
X237440033Y-122582112D01*
X237440105Y-122582403D01*
X237440433Y-122584913D01*
X237440458Y-122585279D01*
X237440446Y-122586261D01*
X237440697Y-122588776D01*
X237453547Y-122776630D01*
X237454420Y-122780832D01*
X237454421Y-122780838D01*
X237502621Y-123012786D01*
X237509451Y-123045653D01*
X237601466Y-123304558D01*
X237727878Y-123548523D01*
X237730363Y-123552044D01*
X237730364Y-123552045D01*
X237767727Y-123604976D01*
X237884899Y-123770972D01*
X237884900Y-123770974D01*
X237886332Y-123773002D01*
X237885884Y-123773318D01*
X237912203Y-123836033D01*
X237912989Y-123850083D01*
X237912989Y-131207368D01*
X237889927Y-131280030D01*
X237787941Y-131424512D01*
X237735378Y-131498977D01*
X237608966Y-131742942D01*
X237516951Y-132001847D01*
X237516077Y-132006055D01*
X237516076Y-132006057D01*
X237466872Y-132242841D01*
X237461047Y-132270870D01*
X237460754Y-132275156D01*
X237460753Y-132275162D01*
X237443823Y-132522683D01*
X237443200Y-132528252D01*
X237443180Y-132529847D01*
X237441798Y-132538724D01*
X237442407Y-132543380D01*
X237442296Y-132545000D01*
X237442619Y-132545000D01*
X237442810Y-132546464D01*
X237441514Y-132561979D01*
X237440678Y-132567347D01*
X237440678Y-132567356D01*
X237439297Y-132576224D01*
X237440461Y-132585127D01*
X237440461Y-132585130D01*
X237440476Y-132585247D01*
X237440748Y-132615692D01*
X237433754Y-132677764D01*
X237427475Y-132705271D01*
X237400505Y-132782347D01*
X237388263Y-132807769D01*
X237344812Y-132876920D01*
X237327220Y-132898979D01*
X237269474Y-132956724D01*
X237247414Y-132974316D01*
X237178267Y-133017763D01*
X237152847Y-133030004D01*
X237075760Y-133056978D01*
X237048253Y-133063256D01*
X236998955Y-133068810D01*
X236992679Y-133069517D01*
X236977033Y-133070300D01*
X236968141Y-133070191D01*
X236959270Y-133068810D01*
X236931048Y-133072500D01*
X236927698Y-133072938D01*
X236911363Y-133074001D01*
X222702359Y-133074001D01*
X222682971Y-133072500D01*
X222668145Y-133070191D01*
X222668138Y-133070191D01*
X222659270Y-133068810D01*
X222650368Y-133069974D01*
X222650366Y-133069974D01*
X222650250Y-133069989D01*
X222619804Y-133070261D01*
X222557730Y-133063266D01*
X222530228Y-133056989D01*
X222453139Y-133030013D01*
X222427724Y-133017773D01*
X222358571Y-132974321D01*
X222336513Y-132956730D01*
X222278765Y-132898981D01*
X222261174Y-132876922D01*
X222217727Y-132807777D01*
X222205485Y-132782356D01*
X222178511Y-132705268D01*
X222172232Y-132677759D01*
X222165972Y-132622195D01*
X222165189Y-132606552D01*
X222165298Y-132597646D01*
X222166679Y-132588776D01*
X222161658Y-132550375D01*
X222148957Y-132453252D01*
X222147793Y-132444349D01*
X222144177Y-132436132D01*
X222141763Y-132427484D01*
X222143221Y-132427077D01*
X222136683Y-132400535D01*
X222132725Y-132342664D01*
X222132724Y-132342660D01*
X222132431Y-132338370D01*
X222119297Y-132275162D01*
X222077402Y-132073557D01*
X222077401Y-132073555D01*
X222076527Y-132069347D01*
X221984512Y-131810442D01*
X221951635Y-131746991D01*
X221939990Y-131724519D01*
X221858100Y-131566477D01*
X221699646Y-131341998D01*
X221646904Y-131285525D01*
X221615026Y-131222087D01*
X221612989Y-131199523D01*
X221612989Y-129303004D01*
X222846989Y-129303004D01*
X222861624Y-129452261D01*
X222863406Y-129458162D01*
X222863406Y-129458164D01*
X222885782Y-129532276D01*
X222919638Y-129644413D01*
X223013869Y-129821637D01*
X223140730Y-129977182D01*
X223295386Y-130105125D01*
X223471948Y-130200592D01*
X223567819Y-130230269D01*
X223657803Y-130258124D01*
X223657806Y-130258125D01*
X223663690Y-130259946D01*
X223669815Y-130260590D01*
X223669816Y-130260590D01*
X223857181Y-130280283D01*
X223857182Y-130280283D01*
X223863309Y-130280927D01*
X223946327Y-130273372D01*
X224057063Y-130263294D01*
X224057066Y-130263293D01*
X224063202Y-130262735D01*
X224069108Y-130260997D01*
X224069112Y-130260996D01*
X224249845Y-130207803D01*
X224249844Y-130207803D01*
X224255754Y-130206064D01*
X224433631Y-130113072D01*
X224542269Y-130025725D01*
X224607892Y-129998629D01*
X224677746Y-130011312D01*
X224701536Y-130026837D01*
X224790917Y-130100780D01*
X224801088Y-130107640D01*
X224966724Y-130197199D01*
X224978029Y-130201951D01*
X225099181Y-130239454D01*
X225113284Y-130239660D01*
X225116489Y-130232905D01*
X225116489Y-130226062D01*
X225624489Y-130226062D01*
X225628462Y-130239593D01*
X225636257Y-130240713D01*
X225749657Y-130207338D01*
X225761025Y-130202745D01*
X225927898Y-130115506D01*
X225938160Y-130108790D01*
X226084903Y-129990805D01*
X226093669Y-129982222D01*
X226214705Y-129837976D01*
X226221631Y-129827862D01*
X226312348Y-129662848D01*
X226317176Y-129651584D01*
X226374114Y-129472093D01*
X226376662Y-129460104D01*
X226393096Y-129313591D01*
X226393489Y-129306567D01*
X226393489Y-129174615D01*
X226389014Y-129159376D01*
X226387624Y-129158171D01*
X226379941Y-129156500D01*
X225642604Y-129156500D01*
X225627365Y-129160975D01*
X225626160Y-129162365D01*
X225624489Y-129170048D01*
X225624489Y-130226062D01*
X225116489Y-130226062D01*
X225116489Y-128630385D01*
X225624489Y-128630385D01*
X225628964Y-128645624D01*
X225630354Y-128646829D01*
X225638037Y-128648500D01*
X226375374Y-128648500D01*
X226390613Y-128644025D01*
X226391818Y-128642635D01*
X226393489Y-128634952D01*
X226393489Y-128505099D01*
X226393188Y-128498951D01*
X226379463Y-128358970D01*
X226377080Y-128346935D01*
X226322657Y-128166679D01*
X226317982Y-128155337D01*
X226229584Y-127989083D01*
X226222797Y-127978867D01*
X226103787Y-127832946D01*
X226095143Y-127824242D01*
X225950061Y-127704220D01*
X225939890Y-127697360D01*
X225774254Y-127607801D01*
X225762949Y-127603049D01*
X225641797Y-127565546D01*
X225627694Y-127565340D01*
X225624489Y-127572095D01*
X225624489Y-128630385D01*
X225116489Y-128630385D01*
X225116489Y-127578938D01*
X225112516Y-127565407D01*
X225104721Y-127564287D01*
X224991321Y-127597662D01*
X224979953Y-127602255D01*
X224813080Y-127689494D01*
X224802818Y-127696210D01*
X224699500Y-127779280D01*
X224633878Y-127806377D01*
X224564023Y-127793694D01*
X224540232Y-127778168D01*
X224450342Y-127703804D01*
X224450338Y-127703802D01*
X224445592Y-127699875D01*
X224269030Y-127604408D01*
X224173159Y-127574731D01*
X224083175Y-127546876D01*
X224083172Y-127546875D01*
X224077288Y-127545054D01*
X224071163Y-127544410D01*
X224071162Y-127544410D01*
X223883797Y-127524717D01*
X223883796Y-127524717D01*
X223877669Y-127524073D01*
X223794651Y-127531628D01*
X223683915Y-127541706D01*
X223683912Y-127541707D01*
X223677776Y-127542265D01*
X223671870Y-127544003D01*
X223671866Y-127544004D01*
X223529610Y-127585873D01*
X223485224Y-127598936D01*
X223307347Y-127691928D01*
X223150919Y-127817699D01*
X223146961Y-127822416D01*
X223146959Y-127822418D01*
X223138609Y-127832369D01*
X223021899Y-127971459D01*
X223018935Y-127976851D01*
X223018932Y-127976855D01*
X222960598Y-128082965D01*
X222925202Y-128147350D01*
X222864511Y-128338673D01*
X222846989Y-128494885D01*
X222846989Y-129303004D01*
X221612989Y-129303004D01*
X221612989Y-124002711D01*
X221632991Y-123934590D01*
X221647548Y-123916024D01*
X221700416Y-123860257D01*
X221700417Y-123860256D01*
X221703367Y-123857144D01*
X221818219Y-123697034D01*
X221861453Y-123636763D01*
X221861454Y-123636761D01*
X221863962Y-123633265D01*
X221992610Y-123389621D01*
X222086920Y-123130742D01*
X222128523Y-122938298D01*
X222144231Y-122865637D01*
X222144232Y-122865633D01*
X222145138Y-122861440D01*
X222147707Y-122827911D01*
X222163811Y-122617675D01*
X222165366Y-122605372D01*
X222165596Y-122604070D01*
X222166443Y-122599277D01*
X222166655Y-122588931D01*
X222166679Y-122588776D01*
X222166661Y-122588637D01*
X222166700Y-122586727D01*
X222166050Y-122581904D01*
X222166049Y-122581892D01*
X222165685Y-122579194D01*
X222165347Y-122548254D01*
X222172221Y-122487240D01*
X222178500Y-122459731D01*
X222205475Y-122382641D01*
X222217716Y-122357220D01*
X222220808Y-122352300D01*
X222261168Y-122288067D01*
X222278758Y-122266010D01*
X222336505Y-122208262D01*
X222358565Y-122190670D01*
X222427718Y-122147218D01*
X222453136Y-122134977D01*
X222530221Y-122108002D01*
X222557727Y-122101723D01*
X222613171Y-122095475D01*
X222628857Y-122095845D01*
X222628871Y-122094701D01*
X222637845Y-122094810D01*
X222646718Y-122096192D01*
X222678275Y-122092065D01*
X222694614Y-122091001D01*
X222712185Y-122091001D01*
X222780306Y-122111003D01*
G37*
%TD.AperFunction*%
%TA.AperFunction,Conductor*%
G36*
X226187513Y-122111003D02*
G01*
X226234006Y-122164659D01*
X226244110Y-122234933D01*
X226223973Y-122287277D01*
X226148830Y-122399101D01*
X226148825Y-122399110D01*
X226145699Y-122403762D01*
X226055401Y-122609467D01*
X226054092Y-122614918D01*
X226054091Y-122614922D01*
X226014258Y-122780838D01*
X226002957Y-122827911D01*
X226001068Y-122860671D01*
X225990646Y-123041443D01*
X225990026Y-123052190D01*
X226017014Y-123275215D01*
X226083071Y-123489935D01*
X226085641Y-123494915D01*
X226085643Y-123494919D01*
X226113310Y-123548523D01*
X226186107Y-123689564D01*
X226322866Y-123867792D01*
X226489025Y-124018985D01*
X226493772Y-124021963D01*
X226493775Y-124021965D01*
X226674584Y-124135385D01*
X226679333Y-124138364D01*
X226887772Y-124222156D01*
X227107756Y-124267713D01*
X227112367Y-124267979D01*
X227112368Y-124267979D01*
X227162941Y-124270895D01*
X227162945Y-124270895D01*
X227164764Y-124271000D01*
X227221592Y-124271000D01*
X227238039Y-124272078D01*
X227254504Y-124274246D01*
X227254508Y-124274246D01*
X227260074Y-124274979D01*
X227341477Y-124271140D01*
X227347412Y-124271000D01*
X227369987Y-124271000D01*
X227395977Y-124268681D01*
X227401236Y-124268322D01*
X227484476Y-124264396D01*
X227489935Y-124263146D01*
X227489940Y-124263145D01*
X227501958Y-124260392D01*
X227518887Y-124257711D01*
X227536750Y-124256117D01*
X227542166Y-124254635D01*
X227542168Y-124254635D01*
X227617121Y-124234130D01*
X227622228Y-124232846D01*
X227691289Y-124217029D01*
X227762153Y-124221318D01*
X227808512Y-124250754D01*
X229171662Y-125613905D01*
X229205688Y-125676217D01*
X229200623Y-125747033D01*
X229158076Y-125803868D01*
X229091556Y-125828679D01*
X229082567Y-125829000D01*
X227473294Y-125829000D01*
X227405173Y-125808998D01*
X227384199Y-125792095D01*
X224255552Y-122663448D01*
X224225656Y-122615790D01*
X224174053Y-122467606D01*
X224174051Y-122467603D01*
X224171734Y-122460948D01*
X224075615Y-122307124D01*
X224070653Y-122302128D01*
X224066274Y-122296602D01*
X224068402Y-122294915D01*
X224040481Y-122243369D01*
X224045784Y-122172571D01*
X224088523Y-122115879D01*
X224155126Y-122091292D01*
X224163691Y-122091001D01*
X226119392Y-122091001D01*
X226187513Y-122111003D01*
G37*
%TD.AperFunction*%
%TD*%
%TA.AperFunction,Conductor*%
%TO.N,GND*%
G36*
X188405168Y-121852547D02*
G01*
X197011525Y-121854039D01*
X197079641Y-121874053D01*
X197126125Y-121927717D01*
X197136216Y-121997992D01*
X197106712Y-122062568D01*
X197069292Y-122092005D01*
X197049631Y-122102153D01*
X196931679Y-122163032D01*
X196925957Y-122168024D01*
X196925955Y-122168025D01*
X196818759Y-122261538D01*
X196818756Y-122261541D01*
X196813034Y-122266533D01*
X196722501Y-122395348D01*
X196665309Y-122542039D01*
X196664318Y-122549568D01*
X196651912Y-122643801D01*
X196644758Y-122698138D01*
X196662035Y-122854633D01*
X196716143Y-123002490D01*
X196720380Y-123008796D01*
X196720382Y-123008799D01*
X196760709Y-123068811D01*
X196803958Y-123133172D01*
X196920410Y-123239135D01*
X196941143Y-123250392D01*
X197052099Y-123310637D01*
X197052101Y-123310638D01*
X197058776Y-123314262D01*
X197066125Y-123316190D01*
X197203719Y-123352287D01*
X197203721Y-123352287D01*
X197211069Y-123354215D01*
X197294380Y-123355524D01*
X197360898Y-123356569D01*
X197360901Y-123356569D01*
X197368495Y-123356688D01*
X197521968Y-123321538D01*
X197662625Y-123250795D01*
X197759992Y-123167636D01*
X197776574Y-123153474D01*
X197776576Y-123153471D01*
X197782348Y-123148542D01*
X197874224Y-123020683D01*
X197932950Y-122874598D01*
X197955134Y-122718723D01*
X197955278Y-122705000D01*
X197936363Y-122548694D01*
X197880710Y-122401412D01*
X197791531Y-122271657D01*
X197736264Y-122222416D01*
X197679648Y-122171972D01*
X197679645Y-122171970D01*
X197673976Y-122166919D01*
X197534831Y-122093245D01*
X197535785Y-122091444D01*
X197487638Y-122054676D01*
X197463468Y-121987921D01*
X197479224Y-121918695D01*
X197529906Y-121868977D01*
X197589248Y-121854139D01*
X216974023Y-121857501D01*
X217042139Y-121877515D01*
X217088623Y-121931179D01*
X217100000Y-121983501D01*
X217100000Y-131090293D01*
X217079998Y-131158414D01*
X217026342Y-131204907D01*
X217004378Y-131212577D01*
X216958875Y-131223880D01*
X216902320Y-131260397D01*
X216888752Y-131269158D01*
X216860848Y-131287175D01*
X216788608Y-131378811D01*
X216785158Y-131388635D01*
X216785157Y-131388637D01*
X216767365Y-131439301D01*
X216749945Y-131488906D01*
X216749500Y-131494044D01*
X216749500Y-135899115D01*
X216750354Y-135904244D01*
X216750354Y-135904248D01*
X216755348Y-135934253D01*
X216763812Y-135985103D01*
X216819222Y-136087794D01*
X216904907Y-136167001D01*
X216935360Y-136180464D01*
X217002101Y-136209970D01*
X217002102Y-136209970D01*
X217011629Y-136214182D01*
X217011501Y-136214472D01*
X217066338Y-136247112D01*
X217098029Y-136310643D01*
X217100000Y-136332842D01*
X217100000Y-138112381D01*
X217079998Y-138180502D01*
X217026342Y-138226995D01*
X216956068Y-138237099D01*
X216914071Y-138223217D01*
X216767924Y-138144196D01*
X216756619Y-138139444D01*
X216641308Y-138103750D01*
X216627205Y-138103544D01*
X216624000Y-138110299D01*
X216624000Y-141132924D01*
X216627973Y-141146455D01*
X216635768Y-141147575D01*
X216743521Y-141115862D01*
X216754889Y-141111269D01*
X216915625Y-141027238D01*
X216985260Y-141013404D01*
X217051321Y-141039414D01*
X217092833Y-141097010D01*
X217100000Y-141138900D01*
X217100000Y-142442381D01*
X217079998Y-142510502D01*
X217026342Y-142556995D01*
X216956068Y-142567099D01*
X216914071Y-142553217D01*
X216767924Y-142474196D01*
X216756619Y-142469444D01*
X216641308Y-142433750D01*
X216627205Y-142433544D01*
X216624000Y-142440299D01*
X216624000Y-145162924D01*
X216627973Y-145176455D01*
X216635768Y-145177575D01*
X216743521Y-145145862D01*
X216754889Y-145141269D01*
X216915625Y-145057238D01*
X216985260Y-145043404D01*
X217051321Y-145069414D01*
X217092833Y-145127010D01*
X217100000Y-145168900D01*
X217100000Y-146031424D01*
X217079998Y-146099545D01*
X217026342Y-146146038D01*
X216974006Y-146157424D01*
X204510682Y-146158065D01*
X204442561Y-146138066D01*
X204396065Y-146084413D01*
X204385958Y-146014140D01*
X204415447Y-145949557D01*
X204435111Y-145931238D01*
X204452904Y-145917903D01*
X204454811Y-145920447D01*
X204503380Y-145893945D01*
X204558370Y-145896307D01*
X204558482Y-145895536D01*
X204566021Y-145896636D01*
X204566023Y-145896636D01*
X204568154Y-145896947D01*
X204622256Y-145904840D01*
X204622260Y-145904840D01*
X204626782Y-145905500D01*
X205393218Y-145905500D01*
X205397768Y-145904830D01*
X205397771Y-145904830D01*
X205452426Y-145896784D01*
X205452427Y-145896784D01*
X205462112Y-145895358D01*
X205556804Y-145848867D01*
X205557507Y-145848522D01*
X205557509Y-145848521D01*
X205566855Y-145843932D01*
X205649293Y-145761350D01*
X205700536Y-145656518D01*
X205704984Y-145626027D01*
X205709840Y-145592744D01*
X205709840Y-145592740D01*
X205710500Y-145588218D01*
X205710500Y-144257485D01*
X205730502Y-144189364D01*
X205784158Y-144142871D01*
X205854432Y-144132767D01*
X205919012Y-144162261D01*
X205925595Y-144168390D01*
X207056075Y-145298870D01*
X207065929Y-145309959D01*
X207080261Y-145328138D01*
X207086956Y-145336630D01*
X207094704Y-145341985D01*
X207094706Y-145341987D01*
X207135228Y-145369994D01*
X207138447Y-145372294D01*
X207173563Y-145398230D01*
X207185645Y-145407154D01*
X207192459Y-145409547D01*
X207198397Y-145413651D01*
X207207374Y-145416490D01*
X207207376Y-145416491D01*
X207254345Y-145431345D01*
X207258094Y-145432596D01*
X207313459Y-145452039D01*
X207320646Y-145452321D01*
X207320708Y-145452333D01*
X207327558Y-145454500D01*
X207334165Y-145455020D01*
X207386844Y-145455020D01*
X207391790Y-145455117D01*
X207448822Y-145457358D01*
X207455928Y-145455474D01*
X207464175Y-145455020D01*
X213566260Y-145455020D01*
X213581069Y-145455893D01*
X213614790Y-145459884D01*
X213624054Y-145458192D01*
X213624055Y-145458192D01*
X213672481Y-145449348D01*
X213676384Y-145448698D01*
X213725125Y-145441370D01*
X213725126Y-145441370D01*
X213734442Y-145439969D01*
X213740955Y-145436841D01*
X213748053Y-145435545D01*
X213800127Y-145408495D01*
X213803617Y-145406752D01*
X213856559Y-145381329D01*
X213861845Y-145376443D01*
X213861893Y-145376410D01*
X213868268Y-145373099D01*
X213873308Y-145368795D01*
X213910535Y-145331568D01*
X213914101Y-145328138D01*
X213949121Y-145295766D01*
X213956036Y-145289374D01*
X213959729Y-145283015D01*
X213965246Y-145276857D01*
X215146905Y-144095198D01*
X215209217Y-144061172D01*
X215280032Y-144066237D01*
X215336868Y-144108784D01*
X215361679Y-144175304D01*
X215362000Y-144184293D01*
X215362000Y-144251657D01*
X215362301Y-144257805D01*
X215375812Y-144395603D01*
X215378195Y-144407638D01*
X215431767Y-144585076D01*
X215436441Y-144596416D01*
X215523460Y-144760077D01*
X215530249Y-144770294D01*
X215647397Y-144913933D01*
X215656041Y-144922637D01*
X215798856Y-145040784D01*
X215809027Y-145047644D01*
X215972076Y-145135804D01*
X215983381Y-145140556D01*
X216098692Y-145176250D01*
X216112795Y-145176456D01*
X216116000Y-145169701D01*
X216116000Y-142447076D01*
X216111525Y-142431837D01*
X216106690Y-142427648D01*
X216058509Y-142405644D01*
X216020125Y-142345918D01*
X216015021Y-142310419D01*
X216015021Y-141272882D01*
X216035023Y-141204761D01*
X216088679Y-141158268D01*
X216099175Y-141156065D01*
X216112032Y-141148065D01*
X216116000Y-141139701D01*
X216116000Y-138117076D01*
X216111525Y-138101837D01*
X216106690Y-138097648D01*
X216058509Y-138075644D01*
X216020125Y-138015918D01*
X216015021Y-137980419D01*
X216015021Y-130736015D01*
X216035023Y-130667894D01*
X216088679Y-130621401D01*
X216143000Y-130610031D01*
X216240897Y-130611569D01*
X216240900Y-130611569D01*
X216248495Y-130611688D01*
X216401968Y-130576538D01*
X216542625Y-130505795D01*
X216608751Y-130449318D01*
X216656574Y-130408474D01*
X216656576Y-130408471D01*
X216662348Y-130403542D01*
X216754224Y-130275683D01*
X216812950Y-130129598D01*
X216824356Y-130049452D01*
X216834553Y-129977807D01*
X216834553Y-129977804D01*
X216835134Y-129973723D01*
X216835278Y-129960000D01*
X216816363Y-129803694D01*
X216802012Y-129765715D01*
X216763394Y-129663514D01*
X216763393Y-129663511D01*
X216760710Y-129656412D01*
X216671531Y-129526657D01*
X216624398Y-129484663D01*
X216559648Y-129426972D01*
X216559645Y-129426970D01*
X216553976Y-129421919D01*
X216414831Y-129348245D01*
X216405177Y-129345820D01*
X216269498Y-129311740D01*
X216269496Y-129311740D01*
X216262128Y-129309889D01*
X216254530Y-129309849D01*
X216254528Y-129309849D01*
X216187319Y-129309497D01*
X216104684Y-129309065D01*
X216097299Y-129310838D01*
X216052573Y-129321575D01*
X215981665Y-129318027D01*
X215923932Y-129276707D01*
X215897702Y-129210733D01*
X215902870Y-129161555D01*
X215904138Y-129157490D01*
X215981214Y-128910260D01*
X215999957Y-128850139D01*
X215999957Y-128850138D01*
X216005349Y-128832843D01*
X215500000Y-128250000D01*
X215492133Y-128255210D01*
X215343212Y-128353833D01*
X215275372Y-128374769D01*
X215214684Y-128360136D01*
X215076242Y-128286834D01*
X215068877Y-128284984D01*
X214935623Y-128251513D01*
X214877223Y-128218404D01*
X214094056Y-127435237D01*
X214060030Y-127372925D01*
X214065095Y-127302110D01*
X214107642Y-127245274D01*
X214155021Y-127223322D01*
X214226625Y-127206923D01*
X214264564Y-127198234D01*
X214264566Y-127198233D01*
X214271968Y-127196538D01*
X214412625Y-127125795D01*
X214452796Y-127091486D01*
X214526574Y-127028474D01*
X214526576Y-127028471D01*
X214532348Y-127023542D01*
X214624224Y-126895683D01*
X214682950Y-126749598D01*
X214705134Y-126593723D01*
X214705278Y-126580000D01*
X214703042Y-126561518D01*
X214696981Y-126511436D01*
X214686363Y-126423694D01*
X214680022Y-126406913D01*
X214633394Y-126283514D01*
X214633393Y-126283511D01*
X214630710Y-126276412D01*
X214541531Y-126146657D01*
X214471716Y-126084454D01*
X214429648Y-126046972D01*
X214429645Y-126046970D01*
X214423976Y-126041919D01*
X214395947Y-126027078D01*
X214365118Y-126010755D01*
X214284831Y-125968245D01*
X214277466Y-125966395D01*
X214139498Y-125931740D01*
X214139496Y-125931740D01*
X214132128Y-125929889D01*
X214124530Y-125929849D01*
X214124528Y-125929849D01*
X214054225Y-125929481D01*
X213974684Y-125929065D01*
X213969492Y-125930312D01*
X213900472Y-125918435D01*
X213866863Y-125894405D01*
X213595596Y-125623138D01*
X215494758Y-125623138D01*
X215512035Y-125779633D01*
X215566143Y-125927490D01*
X215570380Y-125933796D01*
X215570382Y-125933799D01*
X215596838Y-125973169D01*
X215653958Y-126058172D01*
X215712184Y-126111154D01*
X215758082Y-126152917D01*
X215770410Y-126164135D01*
X215809553Y-126185388D01*
X215902099Y-126235637D01*
X215902101Y-126235638D01*
X215908776Y-126239262D01*
X215916125Y-126241190D01*
X216053719Y-126277287D01*
X216053721Y-126277287D01*
X216061069Y-126279215D01*
X216144380Y-126280524D01*
X216210898Y-126281569D01*
X216210901Y-126281569D01*
X216218495Y-126281688D01*
X216371968Y-126246538D01*
X216512625Y-126175795D01*
X216546741Y-126146657D01*
X216626574Y-126078474D01*
X216626576Y-126078471D01*
X216632348Y-126073542D01*
X216724224Y-125945683D01*
X216730905Y-125929065D01*
X216754801Y-125869620D01*
X216782950Y-125799598D01*
X216805134Y-125643723D01*
X216805278Y-125630000D01*
X216786363Y-125473694D01*
X216775456Y-125444830D01*
X216733394Y-125333514D01*
X216733393Y-125333511D01*
X216730710Y-125326412D01*
X216641531Y-125196657D01*
X216587782Y-125148768D01*
X216529648Y-125096972D01*
X216529645Y-125096970D01*
X216523976Y-125091919D01*
X216509024Y-125084002D01*
X216391543Y-125021799D01*
X216391544Y-125021799D01*
X216384831Y-125018245D01*
X216346389Y-125008589D01*
X216239498Y-124981740D01*
X216239496Y-124981740D01*
X216232128Y-124979889D01*
X216224530Y-124979849D01*
X216224528Y-124979849D01*
X216157319Y-124979497D01*
X216074684Y-124979065D01*
X216067305Y-124980837D01*
X216067301Y-124980837D01*
X215928967Y-125014048D01*
X215928963Y-125014049D01*
X215921588Y-125015820D01*
X215851746Y-125051868D01*
X215794399Y-125081467D01*
X215781679Y-125088032D01*
X215775957Y-125093024D01*
X215775955Y-125093025D01*
X215668759Y-125186538D01*
X215668756Y-125186541D01*
X215663034Y-125191533D01*
X215655033Y-125202917D01*
X215615759Y-125258799D01*
X215572501Y-125320348D01*
X215515309Y-125467039D01*
X215511515Y-125495860D01*
X215496442Y-125610348D01*
X215494758Y-125623138D01*
X213595596Y-125623138D01*
X212383872Y-124411414D01*
X212376900Y-124402688D01*
X212376442Y-124403077D01*
X212370626Y-124396243D01*
X212365835Y-124388650D01*
X212328293Y-124355494D01*
X212322606Y-124350148D01*
X212312085Y-124339627D01*
X212304513Y-124333952D01*
X212296682Y-124327576D01*
X212270994Y-124304889D01*
X212263745Y-124298487D01*
X212255618Y-124294671D01*
X212250281Y-124291166D01*
X212243463Y-124287070D01*
X212237880Y-124284013D01*
X212230695Y-124278628D01*
X212222290Y-124275477D01*
X212222288Y-124275476D01*
X212189546Y-124263202D01*
X212180226Y-124259275D01*
X212177010Y-124257765D01*
X212140452Y-124240601D01*
X212131582Y-124239220D01*
X212125502Y-124237361D01*
X212117781Y-124235335D01*
X212111568Y-124233969D01*
X212103157Y-124230816D01*
X212076120Y-124228807D01*
X212059324Y-124227559D01*
X212049277Y-124226405D01*
X212041855Y-124225249D01*
X212041853Y-124225249D01*
X212037044Y-124224500D01*
X212022838Y-124224500D01*
X212013501Y-124224154D01*
X211999329Y-124223101D01*
X211967326Y-124220723D01*
X211958550Y-124222596D01*
X211949593Y-124223207D01*
X211949586Y-124223101D01*
X211936333Y-124224500D01*
X211223009Y-124224500D01*
X211154888Y-124204498D01*
X211108395Y-124150842D01*
X211098291Y-124080568D01*
X211127785Y-124015988D01*
X211133914Y-124009405D01*
X211201126Y-123942193D01*
X211263438Y-123908167D01*
X211292199Y-123905304D01*
X211340897Y-123906069D01*
X211340900Y-123906069D01*
X211348495Y-123906188D01*
X211501968Y-123871038D01*
X211642625Y-123800295D01*
X211702597Y-123749074D01*
X211756574Y-123702974D01*
X211756576Y-123702971D01*
X211762348Y-123698042D01*
X211854224Y-123570183D01*
X211912950Y-123424098D01*
X211924938Y-123339868D01*
X211934553Y-123272307D01*
X211934553Y-123272304D01*
X211935134Y-123268223D01*
X211935278Y-123254500D01*
X211934233Y-123245860D01*
X211931000Y-123219152D01*
X211916363Y-123098194D01*
X211887074Y-123020683D01*
X211863394Y-122958014D01*
X211863393Y-122958011D01*
X211860710Y-122950912D01*
X211771531Y-122821157D01*
X211661146Y-122722807D01*
X211659648Y-122721472D01*
X211659645Y-122721470D01*
X211653976Y-122716419D01*
X211632410Y-122705000D01*
X211521543Y-122646299D01*
X211521544Y-122646299D01*
X211514831Y-122642745D01*
X211498122Y-122638548D01*
X211369498Y-122606240D01*
X211369496Y-122606240D01*
X211362128Y-122604389D01*
X211354530Y-122604349D01*
X211354528Y-122604349D01*
X211287319Y-122603997D01*
X211204684Y-122603565D01*
X211197305Y-122605337D01*
X211197301Y-122605337D01*
X211058967Y-122638548D01*
X211058963Y-122638549D01*
X211051588Y-122640320D01*
X210911679Y-122712532D01*
X210905957Y-122717524D01*
X210905955Y-122717525D01*
X210798759Y-122811038D01*
X210798756Y-122811041D01*
X210793034Y-122816033D01*
X210702501Y-122944848D01*
X210645309Y-123091539D01*
X210626550Y-123234025D01*
X210625990Y-123238281D01*
X210597268Y-123303209D01*
X210538002Y-123342300D01*
X210501068Y-123347835D01*
X209271045Y-123347835D01*
X209202924Y-123327833D01*
X209187226Y-123315911D01*
X209185376Y-123314262D01*
X209162343Y-123293741D01*
X209107983Y-123245307D01*
X209107980Y-123245305D01*
X209102311Y-123240254D01*
X208963166Y-123166580D01*
X208946457Y-123162383D01*
X208817833Y-123130075D01*
X208817831Y-123130075D01*
X208810463Y-123128224D01*
X208802865Y-123128184D01*
X208802863Y-123128184D01*
X208735654Y-123127832D01*
X208653019Y-123127400D01*
X208645640Y-123129172D01*
X208645636Y-123129172D01*
X208507302Y-123162383D01*
X208507298Y-123162384D01*
X208499923Y-123164155D01*
X208360014Y-123236367D01*
X208354292Y-123241359D01*
X208354290Y-123241360D01*
X208247094Y-123334873D01*
X208247091Y-123334876D01*
X208241369Y-123339868D01*
X208150836Y-123468683D01*
X208093644Y-123615374D01*
X208089807Y-123644516D01*
X208074406Y-123761501D01*
X208073093Y-123771473D01*
X208073926Y-123779022D01*
X208073847Y-123786618D01*
X208072093Y-123786600D01*
X208061328Y-123847230D01*
X208013095Y-123899327D01*
X207944353Y-123917077D01*
X207876588Y-123894609D01*
X207873164Y-123892229D01*
X207867488Y-123887172D01*
X207860774Y-123883617D01*
X207860771Y-123883615D01*
X207735055Y-123817052D01*
X207735056Y-123817052D01*
X207728343Y-123813498D01*
X207689367Y-123803708D01*
X207583010Y-123776993D01*
X207583008Y-123776993D01*
X207575640Y-123775142D01*
X207568042Y-123775102D01*
X207568040Y-123775102D01*
X207500831Y-123774750D01*
X207418196Y-123774318D01*
X207410817Y-123776090D01*
X207410813Y-123776090D01*
X207272479Y-123809301D01*
X207272475Y-123809302D01*
X207265100Y-123811073D01*
X207125191Y-123883285D01*
X207119469Y-123888277D01*
X207119467Y-123888278D01*
X207012271Y-123981791D01*
X207012268Y-123981794D01*
X207006546Y-123986786D01*
X206981175Y-124022885D01*
X206940635Y-124080568D01*
X206916013Y-124115601D01*
X206858821Y-124262292D01*
X206857830Y-124269821D01*
X206842186Y-124388650D01*
X206838270Y-124418391D01*
X206855547Y-124574886D01*
X206909655Y-124722743D01*
X206997470Y-124853425D01*
X207113922Y-124959388D01*
X207150236Y-124979105D01*
X207245611Y-125030890D01*
X207245613Y-125030891D01*
X207252288Y-125034515D01*
X207259637Y-125036443D01*
X207397230Y-125072540D01*
X207397234Y-125072541D01*
X207404581Y-125074468D01*
X207430555Y-125074876D01*
X207497750Y-125095547D01*
X207497784Y-125095569D01*
X207504514Y-125101513D01*
X207512641Y-125105329D01*
X207517978Y-125108834D01*
X207524796Y-125112930D01*
X207530379Y-125115987D01*
X207537564Y-125121372D01*
X207545969Y-125124523D01*
X207545971Y-125124524D01*
X207578713Y-125136798D01*
X207588033Y-125140725D01*
X207627807Y-125159399D01*
X207636677Y-125160780D01*
X207642757Y-125162639D01*
X207650478Y-125164665D01*
X207656691Y-125166031D01*
X207665102Y-125169184D01*
X207692139Y-125171193D01*
X207708935Y-125172441D01*
X207718982Y-125173595D01*
X207726404Y-125174751D01*
X207726406Y-125174751D01*
X207731215Y-125175500D01*
X207745421Y-125175500D01*
X207754759Y-125175846D01*
X207800933Y-125179277D01*
X207809709Y-125177404D01*
X207818666Y-125176793D01*
X207818673Y-125176899D01*
X207831926Y-125175500D01*
X209557738Y-125175500D01*
X209625859Y-125195502D01*
X209672352Y-125249158D01*
X209682456Y-125319432D01*
X209652962Y-125384012D01*
X209640573Y-125396444D01*
X209543034Y-125481533D01*
X209527098Y-125504208D01*
X209486978Y-125561293D01*
X209452501Y-125610348D01*
X209395309Y-125757039D01*
X209390697Y-125792072D01*
X209376436Y-125900396D01*
X209374758Y-125913138D01*
X209392035Y-126069633D01*
X209446143Y-126217490D01*
X209450380Y-126223796D01*
X209450382Y-126223799D01*
X209481534Y-126270157D01*
X209533958Y-126348172D01*
X209650410Y-126454135D01*
X209755947Y-126511437D01*
X209806267Y-126561518D01*
X209821524Y-126630856D01*
X209796872Y-126697435D01*
X209784919Y-126711262D01*
X208658586Y-127837595D01*
X208596274Y-127871621D01*
X208569491Y-127874500D01*
X207513266Y-127874500D01*
X207445145Y-127854498D01*
X207424171Y-127837595D01*
X206921545Y-127334969D01*
X206911690Y-127323880D01*
X206905528Y-127316064D01*
X206891805Y-127298656D01*
X206845716Y-127266802D01*
X206842579Y-127264560D01*
X206797499Y-127231263D01*
X206790987Y-127228976D01*
X206785312Y-127225054D01*
X206731938Y-127208174D01*
X206728188Y-127206923D01*
X206684243Y-127191490D01*
X206684236Y-127191489D01*
X206675358Y-127188371D01*
X206668465Y-127188100D01*
X206661885Y-127186019D01*
X206655570Y-127185522D01*
X206605350Y-127185522D01*
X206600402Y-127185425D01*
X206555117Y-127183645D01*
X206555116Y-127183645D01*
X206546005Y-127183287D01*
X206546054Y-127182037D01*
X206485369Y-127171268D01*
X206464746Y-127158400D01*
X206377541Y-127091486D01*
X206231462Y-127030978D01*
X206074700Y-127010340D01*
X206074970Y-127008293D01*
X206017492Y-126991416D01*
X205970999Y-126937760D01*
X205960895Y-126867486D01*
X205978046Y-126824919D01*
X205975901Y-126823740D01*
X205979562Y-126817080D01*
X205983993Y-126810914D01*
X205988315Y-126800164D01*
X206039883Y-126671883D01*
X206042719Y-126664829D01*
X206050271Y-126611762D01*
X206064322Y-126513038D01*
X206064322Y-126513035D01*
X206064903Y-126508954D01*
X206065047Y-126495231D01*
X206046132Y-126338925D01*
X206022841Y-126277287D01*
X205993163Y-126198745D01*
X205993162Y-126198742D01*
X205990479Y-126191643D01*
X205901300Y-126061888D01*
X205902836Y-126060832D01*
X205876940Y-126005387D01*
X205875500Y-125986391D01*
X205875500Y-125840697D01*
X205895502Y-125772576D01*
X205912405Y-125751602D01*
X205913223Y-125750784D01*
X205920403Y-125745403D01*
X205993547Y-125647807D01*
X205999283Y-125640154D01*
X205999285Y-125640151D01*
X206004665Y-125632972D01*
X206053984Y-125501411D01*
X206056144Y-125481533D01*
X206060131Y-125444828D01*
X206060131Y-125444827D01*
X206060500Y-125441431D01*
X206060499Y-125068570D01*
X206060130Y-125065170D01*
X206054838Y-125016447D01*
X206054837Y-125016443D01*
X206053984Y-125008589D01*
X206043970Y-124981876D01*
X206038787Y-124911071D01*
X206072857Y-124848553D01*
X206080484Y-124840926D01*
X206090124Y-124828499D01*
X206165396Y-124701220D01*
X206171643Y-124686784D01*
X206206619Y-124566395D01*
X206206579Y-124552295D01*
X206199309Y-124549000D01*
X204606442Y-124549000D01*
X204592911Y-124552973D01*
X204591776Y-124560871D01*
X204628357Y-124686784D01*
X204634604Y-124701220D01*
X204709876Y-124828499D01*
X204719516Y-124840926D01*
X204727143Y-124848553D01*
X204761169Y-124910865D01*
X204756030Y-124981876D01*
X204746016Y-125008589D01*
X204745163Y-125016439D01*
X204745163Y-125016440D01*
X204739869Y-125065170D01*
X204739500Y-125068569D01*
X204739501Y-125441430D01*
X204739870Y-125444824D01*
X204739870Y-125444830D01*
X204744683Y-125489135D01*
X204746016Y-125501411D01*
X204795335Y-125632972D01*
X204800715Y-125640151D01*
X204800717Y-125640154D01*
X204806453Y-125647807D01*
X204879597Y-125745403D01*
X204886777Y-125750784D01*
X204887595Y-125751602D01*
X204921621Y-125813914D01*
X204924500Y-125840697D01*
X204924500Y-126014500D01*
X204901587Y-126086951D01*
X204836748Y-126179208D01*
X204832270Y-126185579D01*
X204782308Y-126313727D01*
X204777178Y-126326884D01*
X204733798Y-126383086D01*
X204666919Y-126406913D01*
X204597775Y-126390800D01*
X204548319Y-126339862D01*
X204538078Y-126313727D01*
X204536122Y-126306427D01*
X204535044Y-126298238D01*
X204528140Y-126281569D01*
X204501597Y-126217490D01*
X204474536Y-126152159D01*
X204378282Y-126026718D01*
X204252841Y-125930464D01*
X204106762Y-125869956D01*
X203950000Y-125849318D01*
X203793238Y-125869956D01*
X203647159Y-125930464D01*
X203558540Y-125998464D01*
X203492321Y-126024063D01*
X203481838Y-126024500D01*
X203443329Y-126024500D01*
X203375208Y-126004498D01*
X203354775Y-125985488D01*
X203353563Y-125986700D01*
X203347212Y-125980349D01*
X203341831Y-125973169D01*
X203300952Y-125942532D01*
X203237728Y-125895148D01*
X203237725Y-125895146D01*
X203230546Y-125889766D01*
X203125526Y-125850396D01*
X203107721Y-125843721D01*
X203107719Y-125843721D01*
X203100326Y-125840949D01*
X203092478Y-125840096D01*
X203092476Y-125840096D01*
X203044359Y-125834869D01*
X203044358Y-125834869D01*
X203040962Y-125834500D01*
X202679038Y-125834500D01*
X202675642Y-125834869D01*
X202675641Y-125834869D01*
X202627524Y-125840096D01*
X202627522Y-125840096D01*
X202619674Y-125840949D01*
X202612281Y-125843721D01*
X202612279Y-125843721D01*
X202594474Y-125850396D01*
X202489454Y-125889766D01*
X202482275Y-125895146D01*
X202482272Y-125895148D01*
X202425565Y-125937648D01*
X202359058Y-125962496D01*
X202289676Y-125947443D01*
X202274435Y-125937648D01*
X202217728Y-125895148D01*
X202217725Y-125895146D01*
X202210546Y-125889766D01*
X202105526Y-125850396D01*
X202087721Y-125843721D01*
X202087719Y-125843721D01*
X202080326Y-125840949D01*
X202072478Y-125840096D01*
X202072476Y-125840096D01*
X202024359Y-125834869D01*
X202024358Y-125834869D01*
X202020962Y-125834500D01*
X201659038Y-125834500D01*
X201655642Y-125834869D01*
X201655641Y-125834869D01*
X201607524Y-125840096D01*
X201607522Y-125840096D01*
X201599674Y-125840949D01*
X201592281Y-125843721D01*
X201592279Y-125843721D01*
X201574474Y-125850396D01*
X201469454Y-125889766D01*
X201462273Y-125895148D01*
X201462267Y-125895151D01*
X201443049Y-125909554D01*
X201376542Y-125934401D01*
X201319269Y-125925136D01*
X201314395Y-125923117D01*
X201314391Y-125923116D01*
X201306762Y-125919956D01*
X201150000Y-125899318D01*
X200993238Y-125919956D01*
X200851922Y-125978491D01*
X200781334Y-125986080D01*
X200728142Y-125962910D01*
X200630546Y-125889766D01*
X200525526Y-125850396D01*
X200507721Y-125843721D01*
X200507719Y-125843721D01*
X200500326Y-125840949D01*
X200492478Y-125840096D01*
X200492476Y-125840096D01*
X200444359Y-125834869D01*
X200444358Y-125834869D01*
X200440962Y-125834500D01*
X200079038Y-125834500D01*
X200075642Y-125834869D01*
X200075641Y-125834869D01*
X200027524Y-125840096D01*
X200027522Y-125840096D01*
X200019674Y-125840949D01*
X200012281Y-125843721D01*
X200012279Y-125843721D01*
X199994474Y-125850396D01*
X199889454Y-125889766D01*
X199882275Y-125895146D01*
X199882272Y-125895148D01*
X199825565Y-125937648D01*
X199759058Y-125962496D01*
X199689676Y-125947443D01*
X199674435Y-125937648D01*
X199617728Y-125895148D01*
X199617725Y-125895146D01*
X199610546Y-125889766D01*
X199505526Y-125850396D01*
X199487721Y-125843721D01*
X199487719Y-125843721D01*
X199480326Y-125840949D01*
X199472478Y-125840096D01*
X199472476Y-125840096D01*
X199424359Y-125834869D01*
X199424358Y-125834869D01*
X199420962Y-125834500D01*
X199059038Y-125834500D01*
X199055642Y-125834869D01*
X199055641Y-125834869D01*
X199007524Y-125840096D01*
X199007522Y-125840096D01*
X198999674Y-125840949D01*
X198992281Y-125843721D01*
X198992279Y-125843721D01*
X198974474Y-125850396D01*
X198869454Y-125889766D01*
X198862275Y-125895146D01*
X198862272Y-125895148D01*
X198799048Y-125942532D01*
X198758169Y-125973169D01*
X198748493Y-125986080D01*
X198680148Y-126077272D01*
X198680146Y-126077275D01*
X198674766Y-126084454D01*
X198671616Y-126092858D01*
X198639245Y-126179208D01*
X198625949Y-126214674D01*
X198625096Y-126222522D01*
X198625096Y-126222524D01*
X198623672Y-126235637D01*
X198619500Y-126274038D01*
X198619500Y-126563468D01*
X198616170Y-126589831D01*
X198615309Y-126592039D01*
X198614318Y-126599568D01*
X198614317Y-126599571D01*
X198598852Y-126717045D01*
X198594758Y-126748138D01*
X198612035Y-126904633D01*
X198666143Y-127052490D01*
X198670380Y-127058796D01*
X198670382Y-127058799D01*
X198701131Y-127104557D01*
X198753958Y-127183172D01*
X198759575Y-127188283D01*
X198764542Y-127194038D01*
X198762627Y-127195691D01*
X198793227Y-127245953D01*
X198791500Y-127316928D01*
X198751675Y-127375703D01*
X198686396Y-127403617D01*
X198671503Y-127404500D01*
X198306782Y-127404500D01*
X198302232Y-127405170D01*
X198302229Y-127405170D01*
X198247574Y-127413216D01*
X198247573Y-127413216D01*
X198237888Y-127414642D01*
X198214178Y-127426283D01*
X198142493Y-127461478D01*
X198142491Y-127461479D01*
X198133145Y-127466068D01*
X198127233Y-127471991D01*
X198061325Y-127494989D01*
X197992288Y-127478425D01*
X197983343Y-127472688D01*
X197976350Y-127465707D01*
X197871518Y-127414464D01*
X197841027Y-127410016D01*
X197807744Y-127405160D01*
X197807740Y-127405160D01*
X197803218Y-127404500D01*
X197036782Y-127404500D01*
X197032232Y-127405170D01*
X197032229Y-127405170D01*
X196977572Y-127413216D01*
X196977570Y-127413217D01*
X196977432Y-127413237D01*
X196977430Y-127413237D01*
X196967888Y-127414642D01*
X196967704Y-127413390D01*
X196906522Y-127414354D01*
X196864553Y-127389896D01*
X196862904Y-127392096D01*
X196753649Y-127310214D01*
X196738054Y-127301676D01*
X196617606Y-127256522D01*
X196602351Y-127252895D01*
X196551486Y-127247369D01*
X196544672Y-127247000D01*
X196422115Y-127247000D01*
X196406876Y-127251475D01*
X196405671Y-127252865D01*
X196404000Y-127260548D01*
X196404000Y-130044884D01*
X196408475Y-130060123D01*
X196409865Y-130061328D01*
X196417548Y-130062999D01*
X196544669Y-130062999D01*
X196551490Y-130062629D01*
X196602352Y-130057105D01*
X196617604Y-130053479D01*
X196738054Y-130008324D01*
X196753649Y-129999786D01*
X196862904Y-129917904D01*
X196864810Y-129920447D01*
X196913380Y-129893945D01*
X196968370Y-129896307D01*
X196968482Y-129895536D01*
X196976021Y-129896636D01*
X196976023Y-129896636D01*
X196978154Y-129896947D01*
X197032256Y-129904840D01*
X197032260Y-129904840D01*
X197036782Y-129905500D01*
X197470469Y-129905500D01*
X197538590Y-129925502D01*
X197559564Y-129942405D01*
X198223712Y-130606553D01*
X198233567Y-130617642D01*
X198253452Y-130642866D01*
X198299499Y-130674691D01*
X198302719Y-130676993D01*
X198340180Y-130704662D01*
X198340184Y-130704664D01*
X198347759Y-130710259D01*
X198354269Y-130712545D01*
X198359945Y-130716468D01*
X198368928Y-130719309D01*
X198413339Y-130733355D01*
X198417091Y-130734607D01*
X198448419Y-130745608D01*
X198469899Y-130753151D01*
X198476792Y-130753422D01*
X198483372Y-130755503D01*
X198489687Y-130756000D01*
X198539907Y-130756000D01*
X198544855Y-130756097D01*
X198599253Y-130758235D01*
X198606114Y-130756416D01*
X198613669Y-130756000D01*
X199731838Y-130756000D01*
X199799959Y-130776002D01*
X199808531Y-130782029D01*
X199897159Y-130850036D01*
X200043238Y-130910544D01*
X200200000Y-130931182D01*
X200208188Y-130930104D01*
X200348574Y-130911622D01*
X200356762Y-130910544D01*
X200502841Y-130850036D01*
X200628282Y-130753782D01*
X200633305Y-130747236D01*
X200633308Y-130747233D01*
X200663541Y-130707832D01*
X200720879Y-130665964D01*
X200791750Y-130661742D01*
X200852599Y-130695440D01*
X201343212Y-131186053D01*
X201353067Y-131197142D01*
X201372952Y-131222366D01*
X201380696Y-131227718D01*
X201380700Y-131227722D01*
X201419002Y-131254194D01*
X201422221Y-131256495D01*
X201459680Y-131284163D01*
X201459686Y-131284166D01*
X201467258Y-131289759D01*
X201473770Y-131292046D01*
X201479445Y-131295968D01*
X201531877Y-131312550D01*
X201532813Y-131312846D01*
X201536569Y-131314099D01*
X201580511Y-131329531D01*
X201580518Y-131329532D01*
X201589399Y-131332651D01*
X201596291Y-131332922D01*
X201602872Y-131335003D01*
X201609187Y-131335500D01*
X201659422Y-131335500D01*
X201664370Y-131335597D01*
X201718752Y-131337734D01*
X201725610Y-131335915D01*
X201733160Y-131335500D01*
X206364145Y-131335500D01*
X206378955Y-131336373D01*
X206410849Y-131340148D01*
X206420113Y-131338456D01*
X206420114Y-131338456D01*
X206465914Y-131330091D01*
X206469820Y-131329441D01*
X206515871Y-131322518D01*
X206515873Y-131322517D01*
X206525188Y-131321117D01*
X206531410Y-131318129D01*
X206538196Y-131316890D01*
X206546549Y-131312551D01*
X206546552Y-131312550D01*
X206587886Y-131291078D01*
X206591427Y-131289309D01*
X206592752Y-131288673D01*
X206641884Y-131265080D01*
X206646950Y-131260397D01*
X206653074Y-131257216D01*
X206657891Y-131253102D01*
X206693405Y-131217588D01*
X206696972Y-131214158D01*
X206708422Y-131203574D01*
X206736945Y-131177208D01*
X206740510Y-131171070D01*
X206745558Y-131165435D01*
X207247774Y-130663219D01*
X207310086Y-130629193D01*
X207380901Y-130634258D01*
X207437737Y-130676805D01*
X207462548Y-130743325D01*
X207461791Y-130768760D01*
X207450675Y-130853196D01*
X207444758Y-130898138D01*
X207462035Y-131054633D01*
X207516143Y-131202490D01*
X207520380Y-131208796D01*
X207520382Y-131208799D01*
X207533098Y-131227722D01*
X207603958Y-131333172D01*
X207622684Y-131350211D01*
X207676418Y-131399105D01*
X207720410Y-131439135D01*
X207749425Y-131454889D01*
X207852099Y-131510637D01*
X207852101Y-131510638D01*
X207858776Y-131514262D01*
X207866125Y-131516190D01*
X208003719Y-131552287D01*
X208003721Y-131552287D01*
X208011069Y-131554215D01*
X208094380Y-131555524D01*
X208160898Y-131556569D01*
X208160901Y-131556569D01*
X208168495Y-131556688D01*
X208321968Y-131521538D01*
X208462625Y-131450795D01*
X208520061Y-131401740D01*
X208576574Y-131353474D01*
X208576576Y-131353471D01*
X208582348Y-131348542D01*
X208674224Y-131220683D01*
X208683688Y-131197142D01*
X208699256Y-131158414D01*
X208732950Y-131074598D01*
X208735739Y-131055000D01*
X212844318Y-131055000D01*
X212864956Y-131211762D01*
X212925464Y-131357841D01*
X213021718Y-131483282D01*
X213147159Y-131579536D01*
X213293238Y-131640044D01*
X213301426Y-131641122D01*
X213369986Y-131650148D01*
X213450000Y-131660682D01*
X213458188Y-131659604D01*
X213598574Y-131641122D01*
X213606762Y-131640044D01*
X213752841Y-131579536D01*
X213878282Y-131483282D01*
X213974536Y-131357841D01*
X214035044Y-131211762D01*
X214055682Y-131055000D01*
X214036664Y-130910544D01*
X214036122Y-130906426D01*
X214035044Y-130898238D01*
X213974536Y-130752159D01*
X213878282Y-130626718D01*
X213858695Y-130611688D01*
X213830728Y-130590229D01*
X213752841Y-130530464D01*
X213606762Y-130469956D01*
X213450000Y-130449318D01*
X213293238Y-130469956D01*
X213147159Y-130530464D01*
X213069272Y-130590229D01*
X213041306Y-130611688D01*
X213021718Y-130626718D01*
X212925464Y-130752159D01*
X212864956Y-130898238D01*
X212863878Y-130906426D01*
X212863336Y-130910544D01*
X212844318Y-131055000D01*
X208735739Y-131055000D01*
X208755134Y-130918723D01*
X208755278Y-130905000D01*
X208736363Y-130748694D01*
X208722929Y-130713141D01*
X208683394Y-130608514D01*
X208683393Y-130608511D01*
X208680710Y-130601412D01*
X208591531Y-130471657D01*
X208515081Y-130403542D01*
X208479648Y-130371972D01*
X208479645Y-130371970D01*
X208473976Y-130366919D01*
X208334831Y-130293245D01*
X208325177Y-130290820D01*
X208189498Y-130256740D01*
X208189496Y-130256740D01*
X208182128Y-130254889D01*
X208174530Y-130254849D01*
X208174528Y-130254849D01*
X208107319Y-130254497D01*
X208024684Y-130254065D01*
X208017305Y-130255837D01*
X208017301Y-130255837D01*
X207975162Y-130265954D01*
X207904254Y-130262407D01*
X207846520Y-130221087D01*
X207820290Y-130155113D01*
X207833893Y-130085432D01*
X207856653Y-130054340D01*
X208145544Y-129765449D01*
X208207856Y-129731423D01*
X208218188Y-129729623D01*
X208328937Y-129715043D01*
X208475016Y-129654535D01*
X208600457Y-129558281D01*
X208696711Y-129432840D01*
X208757219Y-129286761D01*
X208777857Y-129129999D01*
X208757219Y-128973237D01*
X208731135Y-128910265D01*
X208723546Y-128839676D01*
X208755325Y-128776189D01*
X208816383Y-128739961D01*
X208824905Y-128738097D01*
X208839124Y-128735500D01*
X208868753Y-128730089D01*
X208872646Y-128729441D01*
X208918697Y-128722518D01*
X208918699Y-128722517D01*
X208928014Y-128721117D01*
X208934236Y-128718129D01*
X208941022Y-128716890D01*
X208949375Y-128712551D01*
X208949378Y-128712550D01*
X208990712Y-128691078D01*
X208994253Y-128689309D01*
X209036218Y-128669158D01*
X209036219Y-128669157D01*
X209044710Y-128665080D01*
X209049776Y-128660397D01*
X209055900Y-128657216D01*
X209060717Y-128653102D01*
X209096231Y-128617588D01*
X209099798Y-128614158D01*
X209124513Y-128591312D01*
X209139771Y-128577208D01*
X209143336Y-128571070D01*
X209148384Y-128565435D01*
X209968328Y-127745491D01*
X210791413Y-126922405D01*
X210853725Y-126888380D01*
X210880508Y-126885500D01*
X212274491Y-126885500D01*
X212342612Y-126905502D01*
X212363586Y-126922405D01*
X213335967Y-127894786D01*
X213369993Y-127957098D01*
X213364928Y-128027913D01*
X213322381Y-128084749D01*
X213304661Y-128095847D01*
X213268430Y-128114547D01*
X213268427Y-128114549D01*
X213261679Y-128118032D01*
X213255957Y-128123024D01*
X213255955Y-128123025D01*
X213148759Y-128216538D01*
X213148756Y-128216541D01*
X213143034Y-128221533D01*
X213113408Y-128263687D01*
X213058287Y-128342116D01*
X213052501Y-128350348D01*
X212995309Y-128497039D01*
X212994318Y-128504568D01*
X212979806Y-128614797D01*
X212974758Y-128653138D01*
X212992035Y-128809633D01*
X213046143Y-128957490D01*
X213050380Y-128963796D01*
X213050382Y-128963799D01*
X213076109Y-129002084D01*
X213133958Y-129088172D01*
X213250410Y-129194135D01*
X213257085Y-129197759D01*
X213382099Y-129265637D01*
X213382101Y-129265638D01*
X213388776Y-129269262D01*
X213396125Y-129271190D01*
X213533718Y-129307287D01*
X213533722Y-129307288D01*
X213541069Y-129309215D01*
X213592697Y-129310026D01*
X213660494Y-129331095D01*
X213679812Y-129346915D01*
X215077116Y-130744219D01*
X215111142Y-130806531D01*
X215114021Y-130833314D01*
X215114021Y-138693878D01*
X215094019Y-138761999D01*
X215040363Y-138808492D01*
X214970089Y-138818596D01*
X214904202Y-138787954D01*
X214830146Y-138721972D01*
X214830143Y-138721970D01*
X214824474Y-138716919D01*
X214685329Y-138643245D01*
X214668620Y-138639048D01*
X214539996Y-138606740D01*
X214539994Y-138606740D01*
X214532626Y-138604889D01*
X214525028Y-138604849D01*
X214525026Y-138604849D01*
X214457817Y-138604497D01*
X214375182Y-138604065D01*
X214367803Y-138605837D01*
X214367799Y-138605837D01*
X214229465Y-138639048D01*
X214229461Y-138639049D01*
X214222086Y-138640820D01*
X214082177Y-138713032D01*
X214076455Y-138718024D01*
X214076453Y-138718025D01*
X213969257Y-138811538D01*
X213969254Y-138811541D01*
X213963532Y-138816533D01*
X213872999Y-138945348D01*
X213815807Y-139092039D01*
X213814816Y-139099567D01*
X213813129Y-139112380D01*
X213784405Y-139177307D01*
X213777302Y-139185027D01*
X213669734Y-139292595D01*
X213607422Y-139326621D01*
X213580639Y-139329500D01*
X210519859Y-139329500D01*
X210451738Y-139309498D01*
X210430764Y-139292595D01*
X210323943Y-139185774D01*
X210289917Y-139123462D01*
X210287951Y-139111816D01*
X210287276Y-139106235D01*
X210287275Y-139106232D01*
X210286363Y-139098694D01*
X210230710Y-138951412D01*
X210141531Y-138821657D01*
X210074573Y-138761999D01*
X210029648Y-138721972D01*
X210029645Y-138721970D01*
X210023976Y-138716919D01*
X209884831Y-138643245D01*
X209868122Y-138639048D01*
X209739498Y-138606740D01*
X209739496Y-138606740D01*
X209732128Y-138604889D01*
X209724530Y-138604849D01*
X209724528Y-138604849D01*
X209657319Y-138604497D01*
X209574684Y-138604065D01*
X209567305Y-138605837D01*
X209567301Y-138605837D01*
X209428967Y-138639048D01*
X209428963Y-138639049D01*
X209421588Y-138640820D01*
X209281679Y-138713032D01*
X209275957Y-138718024D01*
X209275955Y-138718025D01*
X209168759Y-138811538D01*
X209168756Y-138811541D01*
X209163034Y-138816533D01*
X209072501Y-138945348D01*
X209015309Y-139092039D01*
X208994758Y-139248138D01*
X208999583Y-139291839D01*
X209007046Y-139359447D01*
X208994640Y-139429351D01*
X208946410Y-139481451D01*
X208926347Y-139491138D01*
X208908540Y-139497867D01*
X208837746Y-139503236D01*
X208775288Y-139469480D01*
X208740996Y-139407314D01*
X208738000Y-139380002D01*
X208738000Y-139028343D01*
X208737699Y-139022195D01*
X208724188Y-138884397D01*
X208721805Y-138872362D01*
X208668233Y-138694924D01*
X208663559Y-138683584D01*
X208576540Y-138519923D01*
X208569751Y-138509706D01*
X208452603Y-138366067D01*
X208443959Y-138357363D01*
X208376063Y-138301195D01*
X208336324Y-138242361D01*
X208334702Y-138171383D01*
X208339471Y-138157114D01*
X208386059Y-138041223D01*
X208386061Y-138041216D01*
X208388895Y-138034166D01*
X208407419Y-137904011D01*
X208410498Y-137882375D01*
X208410498Y-137882372D01*
X208411079Y-137878291D01*
X208411223Y-137864568D01*
X208392308Y-137708262D01*
X208378912Y-137672810D01*
X208339339Y-137568082D01*
X208339338Y-137568079D01*
X208336655Y-137560980D01*
X208247476Y-137431225D01*
X208132052Y-137328385D01*
X208094496Y-137268136D01*
X208090014Y-137240303D01*
X208086466Y-137165786D01*
X208067499Y-136767492D01*
X208084238Y-136698498D01*
X208135621Y-136649506D01*
X208193356Y-136635500D01*
X208222494Y-136635500D01*
X208290615Y-136655502D01*
X208337108Y-136709158D01*
X208347416Y-136777944D01*
X208345749Y-136790604D01*
X208345749Y-136790611D01*
X208344758Y-136798138D01*
X208362035Y-136954633D01*
X208416143Y-137102490D01*
X208420380Y-137108796D01*
X208420382Y-137108799D01*
X208458676Y-137165786D01*
X208503958Y-137233172D01*
X208620410Y-137339135D01*
X208641885Y-137350795D01*
X208752099Y-137410637D01*
X208752101Y-137410638D01*
X208758776Y-137414262D01*
X208766125Y-137416190D01*
X208903719Y-137452287D01*
X208903721Y-137452287D01*
X208911069Y-137454215D01*
X208994380Y-137455524D01*
X209060898Y-137456569D01*
X209060901Y-137456569D01*
X209068495Y-137456688D01*
X209221968Y-137421538D01*
X209362625Y-137350795D01*
X209413856Y-137307040D01*
X209476574Y-137253474D01*
X209476576Y-137253471D01*
X209482348Y-137248542D01*
X209574224Y-137120683D01*
X209632950Y-136974598D01*
X209639953Y-136925393D01*
X209654553Y-136822807D01*
X209654553Y-136822804D01*
X209655134Y-136818723D01*
X209655278Y-136805000D01*
X209651845Y-136776634D01*
X209663520Y-136706606D01*
X209711202Y-136654004D01*
X209776933Y-136635500D01*
X213446184Y-136635500D01*
X213514305Y-136655502D01*
X213546147Y-136684796D01*
X213564841Y-136709158D01*
X213621718Y-136783282D01*
X213628264Y-136788305D01*
X213650918Y-136805688D01*
X213747159Y-136879536D01*
X213893238Y-136940044D01*
X214050000Y-136960682D01*
X214058188Y-136959604D01*
X214198574Y-136941122D01*
X214206762Y-136940044D01*
X214352841Y-136879536D01*
X214449082Y-136805688D01*
X214471736Y-136788305D01*
X214478282Y-136783282D01*
X214574536Y-136657841D01*
X214635044Y-136511762D01*
X214655682Y-136355000D01*
X214635044Y-136198238D01*
X214574536Y-136052159D01*
X214478282Y-135926718D01*
X214352841Y-135830464D01*
X214206762Y-135769956D01*
X214050000Y-135749318D01*
X213893238Y-135769956D01*
X213893194Y-135769618D01*
X213865012Y-135772767D01*
X213852226Y-135772265D01*
X213845365Y-135774084D01*
X213837810Y-135774500D01*
X208534197Y-135774500D01*
X208466076Y-135754498D01*
X208419583Y-135700842D01*
X208409479Y-135630568D01*
X208438973Y-135565988D01*
X208452367Y-135552689D01*
X208486574Y-135523474D01*
X208486576Y-135523471D01*
X208492348Y-135518542D01*
X208584224Y-135390683D01*
X208642950Y-135244598D01*
X208665134Y-135088723D01*
X208665278Y-135075000D01*
X208646363Y-134918694D01*
X208590710Y-134771412D01*
X208592126Y-134770877D01*
X208579958Y-134709653D01*
X208605964Y-134643590D01*
X208616360Y-134631809D01*
X208918065Y-134330105D01*
X209251266Y-133996904D01*
X209313578Y-133962879D01*
X209340361Y-133960000D01*
X209672506Y-133960000D01*
X209732628Y-133975269D01*
X209852099Y-134040137D01*
X209852101Y-134040138D01*
X209858776Y-134043762D01*
X209866125Y-134045690D01*
X210003719Y-134081787D01*
X210003721Y-134081787D01*
X210011069Y-134083715D01*
X210094380Y-134085024D01*
X210160898Y-134086069D01*
X210160901Y-134086069D01*
X210168495Y-134086188D01*
X210321968Y-134051038D01*
X210462625Y-133980295D01*
X210507942Y-133941591D01*
X210576574Y-133882974D01*
X210576576Y-133882971D01*
X210582348Y-133878042D01*
X210674224Y-133750183D01*
X210688316Y-133715130D01*
X210710677Y-133659504D01*
X210754643Y-133603759D01*
X210827584Y-133580500D01*
X211494423Y-133580500D01*
X211562544Y-133600502D01*
X211569988Y-133605674D01*
X211634846Y-133654283D01*
X211634849Y-133654285D01*
X211642028Y-133659665D01*
X211650431Y-133662815D01*
X211766194Y-133706212D01*
X211766195Y-133706212D01*
X211773589Y-133708984D01*
X211781439Y-133709837D01*
X211781440Y-133709837D01*
X211830163Y-133715130D01*
X211833569Y-133715500D01*
X212019945Y-133715500D01*
X212206430Y-133715499D01*
X212209824Y-133715130D01*
X212209830Y-133715130D01*
X212258553Y-133709838D01*
X212258557Y-133709837D01*
X212266411Y-133708984D01*
X212293124Y-133698970D01*
X212363929Y-133693787D01*
X212426447Y-133727857D01*
X212434074Y-133735484D01*
X212446501Y-133745124D01*
X212573780Y-133820396D01*
X212588216Y-133826643D01*
X212708605Y-133861619D01*
X212722705Y-133861579D01*
X212726000Y-133854309D01*
X212726000Y-133848558D01*
X213234000Y-133848558D01*
X213237973Y-133862089D01*
X213245871Y-133863224D01*
X213371784Y-133826643D01*
X213386220Y-133820396D01*
X213513499Y-133745124D01*
X213525926Y-133735484D01*
X213630484Y-133630926D01*
X213640124Y-133618499D01*
X213715396Y-133491220D01*
X213721643Y-133476784D01*
X213763312Y-133333359D01*
X213764768Y-133325391D01*
X213761948Y-133311969D01*
X213750487Y-133309000D01*
X213252115Y-133309000D01*
X213236876Y-133313475D01*
X213235671Y-133314865D01*
X213234000Y-133322548D01*
X213234000Y-133848558D01*
X212726000Y-133848558D01*
X212726000Y-132782885D01*
X213234000Y-132782885D01*
X213238475Y-132798124D01*
X213239865Y-132799329D01*
X213247548Y-132801000D01*
X213748424Y-132801000D01*
X213763219Y-132796656D01*
X213765063Y-132786225D01*
X213763312Y-132776641D01*
X213721643Y-132633216D01*
X213715396Y-132618780D01*
X213640124Y-132491501D01*
X213630484Y-132479074D01*
X213525926Y-132374516D01*
X213513499Y-132364876D01*
X213386220Y-132289604D01*
X213371784Y-132283357D01*
X213251395Y-132248381D01*
X213237295Y-132248421D01*
X213234000Y-132255691D01*
X213234000Y-132782885D01*
X212726000Y-132782885D01*
X212726000Y-132261442D01*
X212722027Y-132247911D01*
X212714129Y-132246776D01*
X212588216Y-132283357D01*
X212573780Y-132289604D01*
X212446501Y-132364876D01*
X212434074Y-132374516D01*
X212426447Y-132382143D01*
X212364135Y-132416169D01*
X212293124Y-132411030D01*
X212275784Y-132404530D01*
X212273803Y-132403787D01*
X212273802Y-132403787D01*
X212266411Y-132401016D01*
X212258561Y-132400163D01*
X212258560Y-132400163D01*
X212209828Y-132394869D01*
X212209827Y-132394869D01*
X212206431Y-132394500D01*
X212020055Y-132394500D01*
X211833570Y-132394501D01*
X211830176Y-132394870D01*
X211830170Y-132394870D01*
X211781447Y-132400162D01*
X211781443Y-132400163D01*
X211773589Y-132401016D01*
X211642028Y-132450335D01*
X211634849Y-132455715D01*
X211634846Y-132455717D01*
X211593431Y-132486756D01*
X211580604Y-132496370D01*
X211569988Y-132504326D01*
X211503482Y-132529174D01*
X211494423Y-132529500D01*
X210493935Y-132529500D01*
X210488659Y-132529389D01*
X210476394Y-132528875D01*
X210429581Y-132526913D01*
X210421215Y-132528875D01*
X210421216Y-132528875D01*
X210389408Y-132536335D01*
X210377738Y-132538498D01*
X210336854Y-132544099D01*
X210328974Y-132547509D01*
X210324149Y-132549597D01*
X210302880Y-132556631D01*
X210297771Y-132557829D01*
X210297769Y-132557830D01*
X210289407Y-132559791D01*
X210281881Y-132563929D01*
X210281877Y-132563930D01*
X210253247Y-132579670D01*
X210242602Y-132584886D01*
X210204717Y-132601280D01*
X210198040Y-132606687D01*
X210193960Y-132609991D01*
X210175370Y-132622483D01*
X210163237Y-132629153D01*
X210155495Y-132635836D01*
X210132291Y-132659040D01*
X210122491Y-132667865D01*
X210092825Y-132691888D01*
X210082694Y-132706144D01*
X210069087Y-132722244D01*
X210027550Y-132763781D01*
X209967869Y-132797205D01*
X209878967Y-132818548D01*
X209878963Y-132818549D01*
X209871588Y-132820320D01*
X209731679Y-132892532D01*
X209730604Y-132890448D01*
X209670308Y-132909000D01*
X209084925Y-132909000D01*
X209079648Y-132908889D01*
X209020581Y-132906413D01*
X209012215Y-132908375D01*
X209012216Y-132908375D01*
X208980408Y-132915835D01*
X208968738Y-132917998D01*
X208927854Y-132923599D01*
X208919974Y-132927009D01*
X208915149Y-132929097D01*
X208893880Y-132936131D01*
X208888771Y-132937329D01*
X208888769Y-132937330D01*
X208880407Y-132939291D01*
X208872881Y-132943429D01*
X208872877Y-132943430D01*
X208844247Y-132959170D01*
X208833602Y-132964386D01*
X208795717Y-132980780D01*
X208789040Y-132986187D01*
X208784960Y-132989491D01*
X208766370Y-133001983D01*
X208754237Y-133008653D01*
X208746495Y-133015336D01*
X208723291Y-133038540D01*
X208713491Y-133047365D01*
X208683825Y-133071388D01*
X208673694Y-133085644D01*
X208660087Y-133101744D01*
X207648636Y-134113195D01*
X207644827Y-134116848D01*
X207601288Y-134156884D01*
X207596760Y-134164187D01*
X207596759Y-134164188D01*
X207579543Y-134191955D01*
X207572820Y-134201737D01*
X207547872Y-134234604D01*
X207544710Y-134242591D01*
X207544708Y-134242594D01*
X207542772Y-134247483D01*
X207532713Y-134267484D01*
X207525418Y-134279250D01*
X207520612Y-134295792D01*
X207513905Y-134318877D01*
X207510060Y-134330105D01*
X207498033Y-134360484D01*
X207498032Y-134360487D01*
X207494871Y-134368472D01*
X207493974Y-134377009D01*
X207493972Y-134377016D01*
X207493423Y-134382239D01*
X207489112Y-134404215D01*
X207485249Y-134417512D01*
X207484500Y-134427712D01*
X207484500Y-134460539D01*
X207483810Y-134473710D01*
X207479821Y-134511662D01*
X207481253Y-134520128D01*
X207481253Y-134520131D01*
X207482736Y-134528898D01*
X207484500Y-134549910D01*
X207484500Y-134651512D01*
X207461587Y-134723963D01*
X207439774Y-134755000D01*
X207432501Y-134765348D01*
X207375309Y-134912039D01*
X207374318Y-134919568D01*
X207356114Y-135057841D01*
X207354758Y-135068138D01*
X207372035Y-135224633D01*
X207426143Y-135372490D01*
X207430380Y-135378796D01*
X207430382Y-135378799D01*
X207443751Y-135398694D01*
X207513958Y-135503172D01*
X207519577Y-135508285D01*
X207519578Y-135508286D01*
X207571252Y-135555306D01*
X207608175Y-135615946D01*
X207606452Y-135686922D01*
X207566630Y-135745699D01*
X207501353Y-135773616D01*
X207486453Y-135774500D01*
X204121050Y-135774500D01*
X204052929Y-135754498D01*
X204006436Y-135700842D01*
X203996307Y-135630747D01*
X204004553Y-135572808D01*
X204004553Y-135572802D01*
X204005134Y-135568723D01*
X204005278Y-135555000D01*
X203986363Y-135398694D01*
X203971592Y-135359604D01*
X203933394Y-135258514D01*
X203933393Y-135258511D01*
X203930710Y-135251412D01*
X203841531Y-135121657D01*
X203789937Y-135075688D01*
X203729648Y-135021972D01*
X203729645Y-135021970D01*
X203723976Y-135016919D01*
X203634782Y-134969693D01*
X203583942Y-134920143D01*
X203567960Y-134850968D01*
X203591914Y-134784135D01*
X203648198Y-134740861D01*
X203665614Y-134735521D01*
X203719263Y-134723234D01*
X203719267Y-134723233D01*
X203726666Y-134721538D01*
X203867323Y-134650795D01*
X203893567Y-134628381D01*
X203981272Y-134553474D01*
X203981274Y-134553471D01*
X203987046Y-134548542D01*
X204078922Y-134420683D01*
X204089793Y-134393642D01*
X204099911Y-134368472D01*
X204137648Y-134274598D01*
X204150578Y-134183747D01*
X204159251Y-134122807D01*
X204159251Y-134122804D01*
X204159832Y-134118723D01*
X204159976Y-134105000D01*
X204141061Y-133948694D01*
X204114364Y-133878042D01*
X204088092Y-133808514D01*
X204088091Y-133808511D01*
X204085408Y-133801412D01*
X203996229Y-133671657D01*
X203936566Y-133618499D01*
X203884346Y-133571972D01*
X203884343Y-133571970D01*
X203878674Y-133566919D01*
X203837685Y-133545216D01*
X203759396Y-133503764D01*
X203739529Y-133493245D01*
X203722820Y-133489048D01*
X203594196Y-133456740D01*
X203594194Y-133456740D01*
X203586826Y-133454889D01*
X203579228Y-133454849D01*
X203579226Y-133454849D01*
X203512017Y-133454497D01*
X203429382Y-133454065D01*
X203422003Y-133455837D01*
X203421999Y-133455837D01*
X203283665Y-133489048D01*
X203283661Y-133489049D01*
X203276286Y-133490820D01*
X203136377Y-133563032D01*
X203068026Y-133622659D01*
X203067120Y-133623449D01*
X203002638Y-133653157D01*
X202984291Y-133654500D01*
X201923895Y-133654500D01*
X201855774Y-133634498D01*
X201823932Y-133605204D01*
X201823084Y-133604098D01*
X201741072Y-133497218D01*
X201615631Y-133400964D01*
X201469552Y-133340456D01*
X201420704Y-133334025D01*
X201334985Y-133322740D01*
X201312790Y-133319818D01*
X201290595Y-133322740D01*
X201204877Y-133334025D01*
X201156028Y-133340456D01*
X201009949Y-133400964D01*
X200884508Y-133497218D01*
X200788254Y-133622659D01*
X200727746Y-133768738D01*
X200707108Y-133925500D01*
X200727746Y-134082262D01*
X200788254Y-134228341D01*
X200799893Y-134243509D01*
X200879095Y-134346727D01*
X200884508Y-134353782D01*
X201009949Y-134450036D01*
X201156028Y-134510544D01*
X201312790Y-134531182D01*
X201320978Y-134530104D01*
X201321610Y-134530104D01*
X201363358Y-134537221D01*
X201398030Y-134549397D01*
X201398032Y-134549397D01*
X201406921Y-134552519D01*
X201414109Y-134552801D01*
X201414168Y-134552812D01*
X201421020Y-134554980D01*
X201427627Y-134555500D01*
X201480306Y-134555500D01*
X201485252Y-134555597D01*
X201542284Y-134557838D01*
X201549390Y-134555954D01*
X201557634Y-134555500D01*
X201802141Y-134555500D01*
X201870262Y-134575502D01*
X201916755Y-134629158D01*
X201926859Y-134699432D01*
X201897365Y-134764012D01*
X201891236Y-134770595D01*
X200103266Y-136558565D01*
X200040954Y-136592591D01*
X200025711Y-136594176D01*
X200025773Y-136594769D01*
X199858321Y-136612369D01*
X199851655Y-136614638D01*
X199851652Y-136614639D01*
X199705598Y-136664360D01*
X199705595Y-136664361D01*
X199698931Y-136666630D01*
X199692936Y-136670318D01*
X199692932Y-136670320D01*
X199561521Y-136751165D01*
X199561519Y-136751167D01*
X199555522Y-136754856D01*
X199435224Y-136872661D01*
X199344015Y-137014190D01*
X199286427Y-137172409D01*
X199265325Y-137339455D01*
X199266012Y-137346462D01*
X199266012Y-137346465D01*
X199272304Y-137410637D01*
X199281755Y-137507025D01*
X199334902Y-137666791D01*
X199362731Y-137712742D01*
X199380909Y-137781369D01*
X199359099Y-137848932D01*
X199304223Y-137893979D01*
X199254954Y-137904011D01*
X189924045Y-137904011D01*
X189855924Y-137884009D01*
X189834950Y-137867106D01*
X186815403Y-134847559D01*
X186781377Y-134785247D01*
X186783540Y-134755000D01*
X192294318Y-134755000D01*
X192314956Y-134911762D01*
X192318116Y-134919391D01*
X192322532Y-134930053D01*
X192375464Y-135057841D01*
X192471718Y-135183282D01*
X192597159Y-135279536D01*
X192743238Y-135340044D01*
X192900000Y-135360682D01*
X192908188Y-135359604D01*
X193048574Y-135341122D01*
X193056762Y-135340044D01*
X193202841Y-135279536D01*
X193328282Y-135183282D01*
X193424536Y-135057841D01*
X193477468Y-134930053D01*
X193481884Y-134919391D01*
X193485044Y-134911762D01*
X193505682Y-134755000D01*
X193485044Y-134598238D01*
X193424536Y-134452159D01*
X193328282Y-134326718D01*
X193202841Y-134230464D01*
X193056762Y-134169956D01*
X193019095Y-134164997D01*
X192908188Y-134150396D01*
X192900000Y-134149318D01*
X192891812Y-134150396D01*
X192780906Y-134164997D01*
X192743238Y-134169956D01*
X192597159Y-134230464D01*
X192471718Y-134326718D01*
X192375464Y-134452159D01*
X192314956Y-134598238D01*
X192294318Y-134755000D01*
X186783540Y-134755000D01*
X186786442Y-134714432D01*
X186827720Y-134658905D01*
X186831623Y-134656578D01*
X186836720Y-134651725D01*
X186836723Y-134651722D01*
X186948454Y-134545322D01*
X186948455Y-134545320D01*
X186953554Y-134540465D01*
X186972718Y-134511622D01*
X187023050Y-134435866D01*
X187046731Y-134400223D01*
X187053563Y-134382239D01*
X187106521Y-134242823D01*
X187108327Y-134243509D01*
X187139731Y-134190753D01*
X187203263Y-134159065D01*
X187269376Y-134164997D01*
X187310686Y-134180360D01*
X187310691Y-134180361D01*
X187317289Y-134182815D01*
X187324270Y-134183746D01*
X187324272Y-134183747D01*
X187366964Y-134189443D01*
X187484183Y-134205083D01*
X187491194Y-134204445D01*
X187491198Y-134204445D01*
X187644843Y-134190462D01*
X187651864Y-134189823D01*
X187658566Y-134187645D01*
X187658568Y-134187645D01*
X187805298Y-134139970D01*
X187805301Y-134139969D01*
X187811997Y-134137793D01*
X187956623Y-134051578D01*
X187961717Y-134046727D01*
X187961721Y-134046724D01*
X188073454Y-133940322D01*
X188073455Y-133940320D01*
X188078554Y-133935465D01*
X188171731Y-133795223D01*
X188231521Y-133637823D01*
X188232501Y-133630847D01*
X188232503Y-133630841D01*
X188235448Y-133609890D01*
X188264737Y-133545216D01*
X188324342Y-133506644D01*
X188395338Y-133506421D01*
X188404142Y-133509331D01*
X188460684Y-133530359D01*
X188460687Y-133530360D01*
X188467289Y-133532815D01*
X188474270Y-133533746D01*
X188474272Y-133533747D01*
X188519812Y-133539823D01*
X188634183Y-133555083D01*
X188641194Y-133554445D01*
X188641198Y-133554445D01*
X188794843Y-133540462D01*
X188801864Y-133539823D01*
X188808566Y-133537645D01*
X188808568Y-133537645D01*
X188955298Y-133489970D01*
X188955301Y-133489969D01*
X188961997Y-133487793D01*
X189106623Y-133401578D01*
X189111717Y-133396727D01*
X189111721Y-133396724D01*
X189223454Y-133290322D01*
X189223455Y-133290320D01*
X189228554Y-133285465D01*
X189237229Y-133272409D01*
X189289628Y-133193542D01*
X189321731Y-133145223D01*
X189381521Y-132987823D01*
X189402498Y-132838570D01*
X189404404Y-132825010D01*
X189404404Y-132825006D01*
X189404955Y-132821088D01*
X189405249Y-132800000D01*
X189401251Y-132764360D01*
X189387266Y-132639672D01*
X189387265Y-132639669D01*
X189386481Y-132632676D01*
X189331108Y-132473668D01*
X189241884Y-132330879D01*
X189236920Y-132325880D01*
X189128205Y-132216403D01*
X189128201Y-132216400D01*
X189123242Y-132211406D01*
X189092796Y-132192084D01*
X189034122Y-132154849D01*
X188981079Y-132121187D01*
X188822462Y-132064706D01*
X188815474Y-132063873D01*
X188815471Y-132063872D01*
X188722300Y-132052762D01*
X188655273Y-132044769D01*
X188648270Y-132045505D01*
X188648269Y-132045505D01*
X188605504Y-132050000D01*
X188487821Y-132062369D01*
X188481155Y-132064638D01*
X188481152Y-132064639D01*
X188335098Y-132114360D01*
X188335095Y-132114361D01*
X188328431Y-132116630D01*
X188322436Y-132120318D01*
X188322432Y-132120320D01*
X188191021Y-132201165D01*
X188191019Y-132201167D01*
X188185022Y-132204856D01*
X188176680Y-132213025D01*
X188098481Y-132289604D01*
X188064724Y-132322661D01*
X187973515Y-132464190D01*
X187971105Y-132470810D01*
X187971104Y-132470813D01*
X187947283Y-132536261D01*
X187915927Y-132622409D01*
X187915044Y-132629399D01*
X187915042Y-132629407D01*
X187913929Y-132638218D01*
X187885547Y-132703295D01*
X187826488Y-132742696D01*
X187755502Y-132743913D01*
X187746657Y-132741125D01*
X187679101Y-132717070D01*
X187672462Y-132714706D01*
X187665474Y-132713873D01*
X187665471Y-132713872D01*
X187549072Y-132699992D01*
X187505273Y-132694769D01*
X187498270Y-132695505D01*
X187498269Y-132695505D01*
X187466074Y-132698889D01*
X187337821Y-132712369D01*
X187331155Y-132714638D01*
X187331152Y-132714639D01*
X187185098Y-132764360D01*
X187185095Y-132764361D01*
X187178431Y-132766630D01*
X187172436Y-132770318D01*
X187172432Y-132770320D01*
X187041021Y-132851165D01*
X187041019Y-132851167D01*
X187035022Y-132854856D01*
X186982006Y-132906773D01*
X186925851Y-132961765D01*
X186914724Y-132972661D01*
X186823515Y-133114190D01*
X186821105Y-133120810D01*
X186821104Y-133120813D01*
X186810086Y-133151085D01*
X186775124Y-133247143D01*
X186768417Y-133265569D01*
X186726322Y-133322740D01*
X186660001Y-133348078D01*
X186607750Y-133341173D01*
X186554101Y-133322070D01*
X186547462Y-133319706D01*
X186540474Y-133318873D01*
X186540471Y-133318872D01*
X186447300Y-133307762D01*
X186380273Y-133299769D01*
X186373270Y-133300505D01*
X186373269Y-133300505D01*
X186327712Y-133305293D01*
X186212821Y-133317369D01*
X186206155Y-133319638D01*
X186206152Y-133319639D01*
X186060098Y-133369360D01*
X186060095Y-133369361D01*
X186053431Y-133371630D01*
X186047432Y-133375321D01*
X186047427Y-133375323D01*
X186017521Y-133393721D01*
X185949020Y-133412379D01*
X185881306Y-133391040D01*
X185835878Y-133336479D01*
X185825500Y-133286403D01*
X185825500Y-133243648D01*
X185849177Y-133170122D01*
X185897775Y-133102490D01*
X185924224Y-133065683D01*
X185935136Y-133038540D01*
X185948429Y-133005471D01*
X185982950Y-132919598D01*
X185997079Y-132820320D01*
X186004553Y-132767807D01*
X186004553Y-132767804D01*
X186005134Y-132763723D01*
X186005278Y-132750000D01*
X186004542Y-132743913D01*
X185998246Y-132691888D01*
X185986363Y-132593694D01*
X185967623Y-132544099D01*
X185933394Y-132453514D01*
X185933393Y-132453511D01*
X185930710Y-132446412D01*
X185841531Y-132316657D01*
X185785878Y-132267072D01*
X185729648Y-132216972D01*
X185729645Y-132216970D01*
X185723976Y-132211919D01*
X185715878Y-132207631D01*
X185614785Y-132154105D01*
X185584831Y-132138245D01*
X185531965Y-132124966D01*
X185439498Y-132101740D01*
X185439496Y-132101740D01*
X185432128Y-132099889D01*
X185424530Y-132099849D01*
X185424528Y-132099849D01*
X185357319Y-132099497D01*
X185274684Y-132099065D01*
X185267305Y-132100837D01*
X185267301Y-132100837D01*
X185128967Y-132134048D01*
X185128963Y-132134049D01*
X185121588Y-132135820D01*
X185114843Y-132139301D01*
X185114844Y-132139301D01*
X184994984Y-132201165D01*
X184981679Y-132208032D01*
X184975957Y-132213024D01*
X184975955Y-132213025D01*
X184868759Y-132306538D01*
X184868756Y-132306541D01*
X184863034Y-132311533D01*
X184848489Y-132332229D01*
X184791275Y-132413636D01*
X184772501Y-132440348D01*
X184715309Y-132587039D01*
X184710176Y-132626026D01*
X184697379Y-132723233D01*
X184694758Y-132743138D01*
X184712035Y-132899633D01*
X184766143Y-133047490D01*
X184770380Y-133053796D01*
X184770382Y-133053799D01*
X184853081Y-133176867D01*
X184874500Y-133247143D01*
X184874500Y-133987241D01*
X184873261Y-133998337D01*
X184873859Y-133998385D01*
X184873139Y-134007331D01*
X184871158Y-134016087D01*
X184874258Y-134066054D01*
X184874500Y-134073856D01*
X184874500Y-134088759D01*
X184875841Y-134098122D01*
X184876871Y-134108180D01*
X184879592Y-134152031D01*
X184882641Y-134160476D01*
X184883932Y-134166712D01*
X184885865Y-134174463D01*
X184887646Y-134180552D01*
X184888919Y-134189443D01*
X184892636Y-134197618D01*
X184907108Y-134229450D01*
X184910920Y-134238815D01*
X184922791Y-134271697D01*
X184922793Y-134271700D01*
X184925841Y-134280144D01*
X184931136Y-134287391D01*
X184934129Y-134293021D01*
X184938132Y-134299871D01*
X184941577Y-134305258D01*
X184945294Y-134313434D01*
X184951154Y-134320234D01*
X184951154Y-134320235D01*
X184973981Y-134346727D01*
X184980266Y-134354643D01*
X184984702Y-134360715D01*
X184984708Y-134360722D01*
X184987577Y-134364649D01*
X184997618Y-134374690D01*
X185003976Y-134381537D01*
X185034204Y-134416618D01*
X185041739Y-134421502D01*
X185048501Y-134427401D01*
X185048431Y-134427481D01*
X185058794Y-134435866D01*
X187163809Y-136540881D01*
X187197835Y-136603193D01*
X187192770Y-136674008D01*
X187159471Y-136723208D01*
X185800662Y-137958489D01*
X185736802Y-137989512D01*
X185666307Y-137981085D01*
X185626810Y-137954352D01*
X180562245Y-132889787D01*
X180528219Y-132827475D01*
X180530317Y-132798138D01*
X182844758Y-132798138D01*
X182862035Y-132954633D01*
X182916143Y-133102490D01*
X182920380Y-133108796D01*
X182920382Y-133108799D01*
X182960709Y-133168811D01*
X183003958Y-133233172D01*
X183026270Y-133253474D01*
X183105306Y-133325391D01*
X183120410Y-133339135D01*
X183127085Y-133342759D01*
X183252099Y-133410637D01*
X183252101Y-133410638D01*
X183258776Y-133414262D01*
X183266125Y-133416190D01*
X183403719Y-133452287D01*
X183403721Y-133452287D01*
X183411069Y-133454215D01*
X183494380Y-133455524D01*
X183560898Y-133456569D01*
X183560901Y-133456569D01*
X183568495Y-133456688D01*
X183721968Y-133421538D01*
X183862625Y-133350795D01*
X183897632Y-133320896D01*
X183976574Y-133253474D01*
X183976576Y-133253471D01*
X183982348Y-133248542D01*
X184074224Y-133120683D01*
X184079217Y-133108264D01*
X184101111Y-133053799D01*
X184132950Y-132974598D01*
X184150517Y-132851165D01*
X184154553Y-132822807D01*
X184154553Y-132822804D01*
X184155134Y-132818723D01*
X184155278Y-132805000D01*
X184136363Y-132648694D01*
X184127777Y-132625971D01*
X184083394Y-132508514D01*
X184083393Y-132508511D01*
X184080710Y-132501412D01*
X183991531Y-132371657D01*
X183924050Y-132311533D01*
X183879648Y-132271972D01*
X183879645Y-132271970D01*
X183873976Y-132266919D01*
X183734831Y-132193245D01*
X183718122Y-132189048D01*
X183589498Y-132156740D01*
X183589496Y-132156740D01*
X183582128Y-132154889D01*
X183574530Y-132154849D01*
X183574528Y-132154849D01*
X183507319Y-132154497D01*
X183424684Y-132154065D01*
X183417305Y-132155837D01*
X183417301Y-132155837D01*
X183278967Y-132189048D01*
X183278963Y-132189049D01*
X183271588Y-132190820D01*
X183222022Y-132216403D01*
X183160976Y-132247911D01*
X183131679Y-132263032D01*
X183125957Y-132268024D01*
X183125955Y-132268025D01*
X183018759Y-132361538D01*
X183018756Y-132361541D01*
X183013034Y-132366533D01*
X182991522Y-132397142D01*
X182927194Y-132488671D01*
X182922501Y-132495348D01*
X182865309Y-132642039D01*
X182860968Y-132675013D01*
X182845973Y-132788910D01*
X182844758Y-132798138D01*
X180530317Y-132798138D01*
X180533284Y-132756660D01*
X180575831Y-132699824D01*
X180642351Y-132675013D01*
X180683311Y-132678816D01*
X180761069Y-132699215D01*
X180844380Y-132700524D01*
X180910898Y-132701569D01*
X180910901Y-132701569D01*
X180918495Y-132701688D01*
X181071968Y-132666538D01*
X181212625Y-132595795D01*
X181271698Y-132545342D01*
X181326574Y-132498474D01*
X181326576Y-132498471D01*
X181332348Y-132493542D01*
X181424224Y-132365683D01*
X181437673Y-132332229D01*
X181463482Y-132268025D01*
X181482950Y-132219598D01*
X181497292Y-132118822D01*
X181504553Y-132067807D01*
X181504553Y-132067804D01*
X181505134Y-132063723D01*
X181505278Y-132050000D01*
X181486363Y-131893694D01*
X181481175Y-131879963D01*
X181433394Y-131753514D01*
X181433393Y-131753511D01*
X181430710Y-131746412D01*
X181341531Y-131616657D01*
X181291378Y-131571972D01*
X181229648Y-131516972D01*
X181229645Y-131516970D01*
X181223976Y-131511919D01*
X181195420Y-131496799D01*
X181116190Y-131454849D01*
X181084831Y-131438245D01*
X181068122Y-131434048D01*
X180939498Y-131401740D01*
X180939496Y-131401740D01*
X180932128Y-131399889D01*
X180924530Y-131399849D01*
X180924528Y-131399849D01*
X180857319Y-131399497D01*
X180774684Y-131399065D01*
X180767305Y-131400837D01*
X180767301Y-131400837D01*
X180628967Y-131434048D01*
X180628963Y-131434049D01*
X180621588Y-131435820D01*
X180586239Y-131454065D01*
X180529632Y-131483282D01*
X180481679Y-131508032D01*
X180475957Y-131513024D01*
X180475955Y-131513025D01*
X180368759Y-131606538D01*
X180368756Y-131606541D01*
X180363034Y-131611533D01*
X180332838Y-131654498D01*
X180298696Y-131703077D01*
X180272501Y-131740348D01*
X180215309Y-131887039D01*
X180194758Y-132043138D01*
X180212035Y-132199633D01*
X180214645Y-132206765D01*
X180216380Y-132214163D01*
X180213111Y-132214930D01*
X180216711Y-132270781D01*
X180182249Y-132332853D01*
X180119700Y-132366440D01*
X180048921Y-132360877D01*
X180004687Y-132332229D01*
X179383872Y-131711414D01*
X179376900Y-131702688D01*
X179376442Y-131703077D01*
X179370626Y-131696243D01*
X179365835Y-131688650D01*
X179328293Y-131655494D01*
X179322606Y-131650148D01*
X179312085Y-131639627D01*
X179304513Y-131633952D01*
X179296682Y-131627576D01*
X179270474Y-131604430D01*
X179270475Y-131604430D01*
X179263745Y-131598487D01*
X179255618Y-131594671D01*
X179250281Y-131591166D01*
X179243463Y-131587070D01*
X179237880Y-131584013D01*
X179230695Y-131578628D01*
X179222290Y-131575477D01*
X179222288Y-131575476D01*
X179189546Y-131563202D01*
X179180226Y-131559275D01*
X179169702Y-131554334D01*
X179140452Y-131540601D01*
X179131582Y-131539220D01*
X179125502Y-131537361D01*
X179117781Y-131535335D01*
X179111568Y-131533969D01*
X179103157Y-131530816D01*
X179076120Y-131528807D01*
X179059324Y-131527559D01*
X179049277Y-131526405D01*
X179041855Y-131525249D01*
X179041853Y-131525249D01*
X179037044Y-131524500D01*
X179022838Y-131524500D01*
X179013501Y-131524154D01*
X179004880Y-131523513D01*
X178967326Y-131520723D01*
X178958550Y-131522596D01*
X178949593Y-131523207D01*
X178949586Y-131523101D01*
X178936333Y-131524500D01*
X178779035Y-131524500D01*
X178720076Y-131509854D01*
X178616190Y-131454849D01*
X178584831Y-131438245D01*
X178568122Y-131434048D01*
X178439498Y-131401740D01*
X178439496Y-131401740D01*
X178432128Y-131399889D01*
X178424530Y-131399849D01*
X178424528Y-131399849D01*
X178357319Y-131399497D01*
X178274684Y-131399065D01*
X178267305Y-131400837D01*
X178267301Y-131400837D01*
X178128967Y-131434048D01*
X178128963Y-131434049D01*
X178121588Y-131435820D01*
X178086239Y-131454065D01*
X178029632Y-131483282D01*
X177981679Y-131508032D01*
X177975957Y-131513024D01*
X177975955Y-131513025D01*
X177868759Y-131606538D01*
X177868756Y-131606541D01*
X177863034Y-131611533D01*
X177832838Y-131654498D01*
X177798696Y-131703077D01*
X177772501Y-131740348D01*
X177715309Y-131887039D01*
X177694758Y-132043138D01*
X177712035Y-132199633D01*
X177766143Y-132347490D01*
X177770380Y-132353796D01*
X177770382Y-132353799D01*
X177797733Y-132394501D01*
X177853958Y-132478172D01*
X177892074Y-132512855D01*
X177920256Y-132538498D01*
X177970410Y-132584135D01*
X178018031Y-132609991D01*
X178102099Y-132655637D01*
X178102101Y-132655638D01*
X178108776Y-132659262D01*
X178116125Y-132661190D01*
X178253719Y-132697287D01*
X178253721Y-132697287D01*
X178261069Y-132699215D01*
X178344380Y-132700524D01*
X178410898Y-132701569D01*
X178410901Y-132701569D01*
X178418495Y-132701688D01*
X178571968Y-132666538D01*
X178712625Y-132595795D01*
X178737708Y-132574372D01*
X178802493Y-132545342D01*
X178872693Y-132555946D01*
X178908631Y-132581089D01*
X185596617Y-139269075D01*
X185603589Y-139277801D01*
X185604047Y-139277412D01*
X185609863Y-139284246D01*
X185614654Y-139291839D01*
X185621383Y-139297781D01*
X185621383Y-139297782D01*
X185652196Y-139324995D01*
X185657883Y-139330341D01*
X185668404Y-139340862D01*
X185675976Y-139346537D01*
X185683807Y-139352913D01*
X185716744Y-139382002D01*
X185724871Y-139385818D01*
X185730208Y-139389323D01*
X185737026Y-139393419D01*
X185742609Y-139396476D01*
X185749794Y-139401861D01*
X185758199Y-139405012D01*
X185758201Y-139405013D01*
X185790943Y-139417287D01*
X185800263Y-139421214D01*
X185840037Y-139439888D01*
X185848907Y-139441269D01*
X185854987Y-139443128D01*
X185862708Y-139445154D01*
X185868921Y-139446520D01*
X185877332Y-139449673D01*
X185904369Y-139451682D01*
X185921165Y-139452930D01*
X185931212Y-139454084D01*
X185938634Y-139455240D01*
X185938636Y-139455240D01*
X185943445Y-139455989D01*
X185957651Y-139455989D01*
X185966989Y-139456335D01*
X186013163Y-139459766D01*
X186021939Y-139457893D01*
X186030896Y-139457282D01*
X186030903Y-139457388D01*
X186044156Y-139455989D01*
X191998500Y-139455989D01*
X192066621Y-139475991D01*
X192113114Y-139529647D01*
X192124500Y-139581989D01*
X192124500Y-140338218D01*
X192125170Y-140342768D01*
X192125170Y-140342771D01*
X192130344Y-140377917D01*
X192134642Y-140407112D01*
X192151536Y-140441521D01*
X192180941Y-140501412D01*
X192186068Y-140511855D01*
X192268650Y-140594293D01*
X192373482Y-140645536D01*
X192395239Y-140648710D01*
X192437256Y-140654840D01*
X192437260Y-140654840D01*
X192441782Y-140655500D01*
X193508218Y-140655500D01*
X193512768Y-140654830D01*
X193512771Y-140654830D01*
X193567428Y-140646784D01*
X193567430Y-140646783D01*
X193577112Y-140645358D01*
X193585899Y-140641044D01*
X193591298Y-140639366D01*
X193662286Y-140638252D01*
X193690159Y-140649702D01*
X193834116Y-140730156D01*
X193845356Y-140735067D01*
X193973768Y-140776790D01*
X193987867Y-140777193D01*
X193991000Y-140770821D01*
X193991000Y-139677000D01*
X194011002Y-139608879D01*
X194064658Y-139562386D01*
X194117000Y-139551000D01*
X194373000Y-139551000D01*
X194441121Y-139571002D01*
X194487614Y-139624658D01*
X194499000Y-139677000D01*
X194499000Y-140762564D01*
X194502973Y-140776095D01*
X194511188Y-140777276D01*
X194605337Y-140750989D01*
X194616787Y-140746548D01*
X194782226Y-140662979D01*
X194792585Y-140656404D01*
X194933302Y-140546464D01*
X194999296Y-140520286D01*
X195068966Y-140533943D01*
X195076312Y-140538485D01*
X195076345Y-140538429D01*
X195082070Y-140541734D01*
X195087407Y-140545612D01*
X195093434Y-140548295D01*
X195093435Y-140548296D01*
X195195936Y-140593932D01*
X195250733Y-140618329D01*
X195308845Y-140630681D01*
X195419152Y-140654128D01*
X195419156Y-140654128D01*
X195425609Y-140655500D01*
X195604391Y-140655500D01*
X195610844Y-140654128D01*
X195610848Y-140654128D01*
X195721155Y-140630681D01*
X195779267Y-140618329D01*
X195834064Y-140593932D01*
X195936563Y-140548297D01*
X195936565Y-140548296D01*
X195942593Y-140545612D01*
X195952403Y-140538485D01*
X196081891Y-140444405D01*
X196087230Y-140440526D01*
X196101711Y-140424444D01*
X196202440Y-140312573D01*
X196202441Y-140312572D01*
X196206859Y-140307665D01*
X196235515Y-140258032D01*
X196292946Y-140158558D01*
X196292947Y-140158557D01*
X196296250Y-140152835D01*
X196340229Y-140017483D01*
X196349457Y-139989082D01*
X196349457Y-139989080D01*
X196351497Y-139982803D01*
X196365415Y-139850388D01*
X196369495Y-139811565D01*
X196370185Y-139805000D01*
X196363001Y-139736652D01*
X196352188Y-139633768D01*
X196352187Y-139633765D01*
X196351497Y-139627197D01*
X196352388Y-139627103D01*
X196357361Y-139561911D01*
X196400175Y-139505276D01*
X196466812Y-139480780D01*
X196475207Y-139480500D01*
X202045155Y-139480500D01*
X202113276Y-139500502D01*
X202159769Y-139554158D01*
X202169873Y-139624432D01*
X202148241Y-139678951D01*
X202135222Y-139697474D01*
X202135217Y-139697484D01*
X202130850Y-139703697D01*
X202073658Y-139850388D01*
X202072667Y-139857917D01*
X202055198Y-139990607D01*
X202053107Y-140006487D01*
X202070384Y-140162982D01*
X202124492Y-140310839D01*
X202128729Y-140317145D01*
X202128731Y-140317148D01*
X202161963Y-140366602D01*
X202212307Y-140441521D01*
X202234619Y-140461823D01*
X202322437Y-140541731D01*
X202328759Y-140547484D01*
X202343613Y-140555549D01*
X202460448Y-140618986D01*
X202460450Y-140618987D01*
X202467125Y-140622611D01*
X202474474Y-140624539D01*
X202612068Y-140660636D01*
X202612070Y-140660636D01*
X202619418Y-140662564D01*
X202702729Y-140663873D01*
X202769247Y-140664918D01*
X202769250Y-140664918D01*
X202776844Y-140665037D01*
X202930317Y-140629887D01*
X203070974Y-140559144D01*
X203116471Y-140520286D01*
X203184923Y-140461823D01*
X203184925Y-140461820D01*
X203190697Y-140456891D01*
X203282573Y-140329032D01*
X203289190Y-140312573D01*
X203315837Y-140246285D01*
X203341299Y-140182947D01*
X203363483Y-140027072D01*
X203363627Y-140013349D01*
X203344712Y-139857043D01*
X203322566Y-139798435D01*
X203291743Y-139716863D01*
X203291742Y-139716860D01*
X203289059Y-139709761D01*
X203284761Y-139703507D01*
X203284757Y-139703500D01*
X203267140Y-139677868D01*
X203245039Y-139610399D01*
X203262924Y-139541692D01*
X203315115Y-139493561D01*
X203370979Y-139480500D01*
X205430938Y-139480500D01*
X205499059Y-139500502D01*
X205545552Y-139554158D01*
X205555656Y-139624432D01*
X205534025Y-139678951D01*
X205522501Y-139695348D01*
X205465309Y-139842039D01*
X205464318Y-139849568D01*
X205446777Y-139982803D01*
X205444758Y-139998138D01*
X205462035Y-140154633D01*
X205516143Y-140302490D01*
X205520380Y-140308796D01*
X205520382Y-140308799D01*
X205537056Y-140333612D01*
X205603958Y-140433172D01*
X205720410Y-140539135D01*
X205750641Y-140555549D01*
X205852099Y-140610637D01*
X205852101Y-140610638D01*
X205858776Y-140614262D01*
X205866125Y-140616190D01*
X206003719Y-140652287D01*
X206003721Y-140652287D01*
X206011069Y-140654215D01*
X206094380Y-140655524D01*
X206160898Y-140656569D01*
X206160901Y-140656569D01*
X206168495Y-140656688D01*
X206321968Y-140621538D01*
X206462625Y-140550795D01*
X206576572Y-140453475D01*
X206641361Y-140424444D01*
X206711561Y-140435049D01*
X206764884Y-140481924D01*
X206779024Y-140512868D01*
X206791768Y-140555077D01*
X206796441Y-140566416D01*
X206883460Y-140730077D01*
X206890249Y-140740294D01*
X207007397Y-140883933D01*
X207016041Y-140892637D01*
X207062916Y-140931415D01*
X207102655Y-140990249D01*
X207104277Y-141061227D01*
X207067268Y-141121814D01*
X207003377Y-141152775D01*
X206982601Y-141154500D01*
X188644860Y-141154500D01*
X188576739Y-141134498D01*
X188555765Y-141117595D01*
X188173943Y-140735773D01*
X188139917Y-140673461D01*
X188137951Y-140661816D01*
X188137276Y-140656235D01*
X188137275Y-140656232D01*
X188136363Y-140648694D01*
X188133679Y-140641590D01*
X188083394Y-140508514D01*
X188083393Y-140508511D01*
X188080710Y-140501412D01*
X187991531Y-140371657D01*
X187919708Y-140307665D01*
X187879648Y-140271972D01*
X187879645Y-140271970D01*
X187873976Y-140266919D01*
X187857192Y-140258032D01*
X187741543Y-140196799D01*
X187741544Y-140196799D01*
X187734831Y-140193245D01*
X187693833Y-140182947D01*
X187589498Y-140156740D01*
X187589496Y-140156740D01*
X187582128Y-140154889D01*
X187574530Y-140154849D01*
X187574528Y-140154849D01*
X187507319Y-140154497D01*
X187424684Y-140154065D01*
X187417305Y-140155837D01*
X187417301Y-140155837D01*
X187278967Y-140189048D01*
X187278963Y-140189049D01*
X187271588Y-140190820D01*
X187264846Y-140194300D01*
X187264840Y-140194302D01*
X187162057Y-140247352D01*
X187092350Y-140260821D01*
X187045311Y-140246742D01*
X186934831Y-140188245D01*
X186829409Y-140161765D01*
X186789498Y-140151740D01*
X186789496Y-140151740D01*
X186782128Y-140149889D01*
X186774530Y-140149849D01*
X186774528Y-140149849D01*
X186707319Y-140149497D01*
X186624684Y-140149065D01*
X186617305Y-140150837D01*
X186617301Y-140150837D01*
X186478967Y-140184048D01*
X186478963Y-140184049D01*
X186471588Y-140185820D01*
X186409023Y-140218112D01*
X186340181Y-140253644D01*
X186331679Y-140258032D01*
X186325957Y-140263024D01*
X186325955Y-140263025D01*
X186218759Y-140356538D01*
X186218756Y-140356541D01*
X186213034Y-140361533D01*
X186208667Y-140367747D01*
X186128422Y-140481924D01*
X186122501Y-140490348D01*
X186065309Y-140637039D01*
X186061435Y-140666467D01*
X186045771Y-140785446D01*
X186044758Y-140793138D01*
X186062035Y-140949633D01*
X186116143Y-141097490D01*
X186120380Y-141103796D01*
X186120382Y-141103799D01*
X186129653Y-141117595D01*
X186203958Y-141228172D01*
X186320410Y-141334135D01*
X186341885Y-141345795D01*
X186452099Y-141405637D01*
X186452101Y-141405638D01*
X186458776Y-141409262D01*
X186466125Y-141411190D01*
X186603719Y-141447287D01*
X186603721Y-141447287D01*
X186611069Y-141449215D01*
X186694380Y-141450524D01*
X186760898Y-141451569D01*
X186760901Y-141451569D01*
X186768495Y-141451688D01*
X186921968Y-141416538D01*
X187040144Y-141357102D01*
X187109987Y-141344364D01*
X187156879Y-141358936D01*
X187252099Y-141410637D01*
X187252101Y-141410638D01*
X187258776Y-141414262D01*
X187371262Y-141443772D01*
X187428384Y-141476553D01*
X187993195Y-142041364D01*
X187996848Y-142045173D01*
X188036884Y-142088712D01*
X188044187Y-142093240D01*
X188044188Y-142093241D01*
X188071955Y-142110457D01*
X188081737Y-142117180D01*
X188114604Y-142142128D01*
X188122591Y-142145290D01*
X188122594Y-142145292D01*
X188127483Y-142147228D01*
X188147484Y-142157287D01*
X188159250Y-142164582D01*
X188198892Y-142176099D01*
X188210101Y-142179937D01*
X188248473Y-142195130D01*
X188257018Y-142196028D01*
X188262242Y-142196577D01*
X188284222Y-142200890D01*
X188297512Y-142204751D01*
X188304093Y-142205234D01*
X188304097Y-142205235D01*
X188305404Y-142205331D01*
X188305417Y-142205331D01*
X188307712Y-142205500D01*
X188340529Y-142205500D01*
X188353700Y-142206190D01*
X188391662Y-142210180D01*
X188400134Y-142208747D01*
X188400135Y-142208747D01*
X188408896Y-142207265D01*
X188429909Y-142205500D01*
X195676444Y-142205500D01*
X195744565Y-142225502D01*
X195791058Y-142279158D01*
X195801366Y-142347946D01*
X195794758Y-142398138D01*
X195812035Y-142554633D01*
X195866143Y-142702490D01*
X195870380Y-142708796D01*
X195870382Y-142708799D01*
X195885547Y-142731366D01*
X195953958Y-142833172D01*
X196070410Y-142939135D01*
X196127004Y-142969863D01*
X196202099Y-143010637D01*
X196202101Y-143010638D01*
X196208776Y-143014262D01*
X196317380Y-143042753D01*
X196378194Y-143079386D01*
X196409550Y-143143084D01*
X196401491Y-143213621D01*
X196380631Y-143247141D01*
X196375671Y-143252865D01*
X196374000Y-143260548D01*
X196374000Y-144783000D01*
X196353998Y-144851121D01*
X196300342Y-144897614D01*
X196248000Y-144909000D01*
X195280116Y-144909000D01*
X195264877Y-144913475D01*
X195263672Y-144914865D01*
X195262001Y-144922548D01*
X195262001Y-145599669D01*
X195262371Y-145606490D01*
X195267895Y-145657352D01*
X195271521Y-145672604D01*
X195316676Y-145793054D01*
X195325214Y-145808649D01*
X195401715Y-145910724D01*
X195414274Y-145923283D01*
X195425518Y-145931710D01*
X195468032Y-145988570D01*
X195473057Y-146059389D01*
X195438997Y-146121682D01*
X195376666Y-146155672D01*
X195349959Y-146158536D01*
X192526809Y-146158681D01*
X185689391Y-146159032D01*
X185621270Y-146139033D01*
X185574774Y-146085380D01*
X185564667Y-146015107D01*
X185594156Y-145950524D01*
X185613822Y-145932204D01*
X185625727Y-145923282D01*
X185638285Y-145910724D01*
X185714786Y-145808649D01*
X185723324Y-145793054D01*
X185768478Y-145672606D01*
X185772105Y-145657351D01*
X185777631Y-145606486D01*
X185778000Y-145599672D01*
X185778000Y-145343160D01*
X185794444Y-145280923D01*
X185806461Y-145259770D01*
X185872526Y-145143474D01*
X185931364Y-144966601D01*
X185951509Y-144807142D01*
X185954285Y-144785170D01*
X185954286Y-144785163D01*
X185954727Y-144781668D01*
X185955099Y-144755000D01*
X185954548Y-144749376D01*
X187194455Y-144749376D01*
X187195191Y-144756379D01*
X187195191Y-144756380D01*
X187211232Y-144909000D01*
X187213227Y-144927983D01*
X187215498Y-144934654D01*
X187251628Y-145040784D01*
X187271103Y-145097993D01*
X187274793Y-145103991D01*
X187274794Y-145103993D01*
X187294756Y-145136440D01*
X187365206Y-145250955D01*
X187370132Y-145255986D01*
X187370135Y-145255989D01*
X187414618Y-145301413D01*
X187490859Y-145379268D01*
X187496784Y-145383087D01*
X187496786Y-145383088D01*
X187615950Y-145459884D01*
X187641817Y-145476554D01*
X187648437Y-145478963D01*
X187648440Y-145478965D01*
X187803961Y-145535570D01*
X187803964Y-145535571D01*
X187810578Y-145537978D01*
X187837121Y-145541331D01*
X187945355Y-145555004D01*
X187945358Y-145555004D01*
X187949283Y-145555500D01*
X188045155Y-145555500D01*
X188178472Y-145540546D01*
X188185847Y-145537978D01*
X188272245Y-145507891D01*
X188348073Y-145481485D01*
X188355965Y-145476554D01*
X188494401Y-145390049D01*
X188500375Y-145386316D01*
X188577267Y-145309959D01*
X188622810Y-145264733D01*
X188622813Y-145264729D01*
X188627807Y-145259770D01*
X188724037Y-145108136D01*
X188751659Y-145030565D01*
X188781919Y-144945586D01*
X188781920Y-144945581D01*
X188784281Y-144938951D01*
X188785114Y-144931965D01*
X188785115Y-144931961D01*
X188804392Y-144770294D01*
X188805545Y-144760624D01*
X188804809Y-144753620D01*
X188787510Y-144589025D01*
X188787509Y-144589021D01*
X188786773Y-144582017D01*
X188728897Y-144412007D01*
X188722126Y-144401000D01*
X188710981Y-144382885D01*
X195262000Y-144382885D01*
X195266475Y-144398124D01*
X195267865Y-144399329D01*
X195275548Y-144401000D01*
X195847885Y-144401000D01*
X195863124Y-144396525D01*
X195864329Y-144395135D01*
X195866000Y-144387452D01*
X195866000Y-143265116D01*
X195861525Y-143249877D01*
X195860135Y-143248672D01*
X195852452Y-143247001D01*
X195725331Y-143247001D01*
X195718510Y-143247371D01*
X195667648Y-143252895D01*
X195652396Y-143256521D01*
X195531946Y-143301676D01*
X195516351Y-143310214D01*
X195414276Y-143386715D01*
X195401715Y-143399276D01*
X195325214Y-143501351D01*
X195316676Y-143516946D01*
X195271522Y-143637394D01*
X195267895Y-143652649D01*
X195262369Y-143703514D01*
X195262000Y-143710328D01*
X195262000Y-144382885D01*
X188710981Y-144382885D01*
X188638485Y-144265045D01*
X188634794Y-144259045D01*
X188629868Y-144254014D01*
X188629865Y-144254011D01*
X188568313Y-144191157D01*
X188509141Y-144130732D01*
X188492413Y-144119951D01*
X188364109Y-144037265D01*
X188358183Y-144033446D01*
X188351563Y-144031037D01*
X188351560Y-144031035D01*
X188196039Y-143974430D01*
X188196036Y-143974429D01*
X188189422Y-143972022D01*
X188119484Y-143963187D01*
X188054645Y-143954996D01*
X188054642Y-143954996D01*
X188050717Y-143954500D01*
X187954845Y-143954500D01*
X187821528Y-143969454D01*
X187814875Y-143971771D01*
X187814874Y-143971771D01*
X187746549Y-143995564D01*
X187651927Y-144028515D01*
X187645953Y-144032248D01*
X187645951Y-144032249D01*
X187578534Y-144074376D01*
X187499625Y-144123684D01*
X187480304Y-144142871D01*
X187377190Y-144245267D01*
X187377187Y-144245271D01*
X187372193Y-144250230D01*
X187368419Y-144256176D01*
X187368418Y-144256178D01*
X187335442Y-144308140D01*
X187275963Y-144401864D01*
X187273598Y-144408506D01*
X187218081Y-144564414D01*
X187218080Y-144564419D01*
X187215719Y-144571049D01*
X187214886Y-144578035D01*
X187214885Y-144578039D01*
X187203028Y-144677476D01*
X187194455Y-144749376D01*
X185954548Y-144749376D01*
X185936909Y-144569487D01*
X185935128Y-144563588D01*
X185935127Y-144563583D01*
X185884814Y-144396939D01*
X185883033Y-144391040D01*
X185795522Y-144226456D01*
X185796899Y-144225724D01*
X185777999Y-144163128D01*
X185777999Y-143710331D01*
X185777629Y-143703510D01*
X185772105Y-143652648D01*
X185768479Y-143637396D01*
X185723324Y-143516946D01*
X185714786Y-143501351D01*
X185638285Y-143399276D01*
X185625724Y-143386715D01*
X185523649Y-143310214D01*
X185508054Y-143301676D01*
X185387606Y-143256522D01*
X185372351Y-143252895D01*
X185321486Y-143247369D01*
X185314672Y-143247000D01*
X185192115Y-143247000D01*
X185176876Y-143251475D01*
X185175671Y-143252865D01*
X185174000Y-143260548D01*
X185174000Y-143677574D01*
X185153998Y-143745695D01*
X185100342Y-143792188D01*
X185034829Y-143802884D01*
X185026826Y-143802043D01*
X185012796Y-143800568D01*
X185012795Y-143800568D01*
X185006668Y-143799924D01*
X184821032Y-143816818D01*
X184815480Y-143818452D01*
X184744950Y-143811583D01*
X184689226Y-143767590D01*
X184666000Y-143694697D01*
X184666000Y-143265116D01*
X184661525Y-143249877D01*
X184660135Y-143248672D01*
X184652452Y-143247001D01*
X184525331Y-143247001D01*
X184518510Y-143247371D01*
X184467648Y-143252895D01*
X184452396Y-143256521D01*
X184331946Y-143301676D01*
X184316351Y-143310214D01*
X184207096Y-143392096D01*
X184205190Y-143389553D01*
X184156620Y-143416055D01*
X184101630Y-143413693D01*
X184101518Y-143414464D01*
X184093979Y-143413364D01*
X184093977Y-143413364D01*
X184090442Y-143412848D01*
X184037744Y-143405160D01*
X184037740Y-143405160D01*
X184033218Y-143404500D01*
X183266782Y-143404500D01*
X183262232Y-143405170D01*
X183262229Y-143405170D01*
X183207572Y-143413216D01*
X183207570Y-143413217D01*
X183207432Y-143413237D01*
X183207430Y-143413237D01*
X183197888Y-143414642D01*
X183197704Y-143413390D01*
X183136522Y-143414354D01*
X183094553Y-143389896D01*
X183092904Y-143392096D01*
X182983649Y-143310214D01*
X182968054Y-143301676D01*
X182847606Y-143256522D01*
X182832351Y-143252895D01*
X182781486Y-143247369D01*
X182774672Y-143247000D01*
X182652115Y-143247000D01*
X182636876Y-143251475D01*
X182635671Y-143252865D01*
X182634000Y-143260548D01*
X182634000Y-144783000D01*
X182613998Y-144851121D01*
X182560342Y-144897614D01*
X182508000Y-144909000D01*
X181540116Y-144909000D01*
X181524877Y-144913475D01*
X181523672Y-144914865D01*
X181522001Y-144922548D01*
X181522001Y-145599669D01*
X181522371Y-145606490D01*
X181527895Y-145657352D01*
X181531521Y-145672604D01*
X181576676Y-145793054D01*
X181585214Y-145808649D01*
X181661715Y-145910724D01*
X181674274Y-145923283D01*
X181686460Y-145932416D01*
X181728974Y-145989276D01*
X181733999Y-146060095D01*
X181699939Y-146122388D01*
X181637608Y-146156378D01*
X181610901Y-146159242D01*
X180776948Y-146159285D01*
X180458749Y-146159301D01*
X180390628Y-146139302D01*
X180344132Y-146085649D01*
X180334025Y-146015376D01*
X180358780Y-145956597D01*
X180377876Y-145931710D01*
X180403489Y-145898331D01*
X180460848Y-145759854D01*
X180472335Y-145672604D01*
X180474962Y-145652648D01*
X180474962Y-145652647D01*
X180475500Y-145648561D01*
X180475499Y-145136440D01*
X180471079Y-145102858D01*
X180461926Y-145033333D01*
X180461926Y-145033331D01*
X180460848Y-145025146D01*
X180403489Y-144886669D01*
X180330151Y-144791093D01*
X180304551Y-144724873D01*
X180318816Y-144655324D01*
X180351847Y-144615646D01*
X180365909Y-144604500D01*
X180475298Y-144494920D01*
X180484310Y-144483509D01*
X180546336Y-144382885D01*
X181522000Y-144382885D01*
X181526475Y-144398124D01*
X181527865Y-144399329D01*
X181535548Y-144401000D01*
X182107885Y-144401000D01*
X182123124Y-144396525D01*
X182124329Y-144395135D01*
X182126000Y-144387452D01*
X182126000Y-143265116D01*
X182121525Y-143249877D01*
X182120135Y-143248672D01*
X182112452Y-143247001D01*
X181985331Y-143247001D01*
X181978510Y-143247371D01*
X181927648Y-143252895D01*
X181912396Y-143256521D01*
X181791946Y-143301676D01*
X181776351Y-143310214D01*
X181674276Y-143386715D01*
X181661715Y-143399276D01*
X181585214Y-143501351D01*
X181576676Y-143516946D01*
X181531522Y-143637394D01*
X181527895Y-143652649D01*
X181522369Y-143703514D01*
X181522000Y-143710328D01*
X181522000Y-144382885D01*
X180546336Y-144382885D01*
X180565553Y-144351709D01*
X180571697Y-144338532D01*
X180620579Y-144191157D01*
X180623445Y-144177790D01*
X180632614Y-144088300D01*
X180628525Y-144074376D01*
X180627135Y-144073171D01*
X180619452Y-144071500D01*
X178826047Y-144071500D01*
X178757926Y-144051498D01*
X178725222Y-144021066D01*
X178681831Y-143963169D01*
X178662831Y-143948929D01*
X178577728Y-143885148D01*
X178577725Y-143885146D01*
X178570546Y-143879766D01*
X178485343Y-143847825D01*
X178447721Y-143833721D01*
X178447719Y-143833721D01*
X178440326Y-143830949D01*
X178432478Y-143830096D01*
X178432476Y-143830096D01*
X178384359Y-143824869D01*
X178384358Y-143824869D01*
X178380962Y-143824500D01*
X177919038Y-143824500D01*
X177915642Y-143824869D01*
X177915641Y-143824869D01*
X177867524Y-143830096D01*
X177867522Y-143830096D01*
X177859674Y-143830949D01*
X177852281Y-143833721D01*
X177852279Y-143833721D01*
X177814657Y-143847825D01*
X177729454Y-143879766D01*
X177722275Y-143885146D01*
X177722272Y-143885148D01*
X177637169Y-143948929D01*
X177618169Y-143963169D01*
X177612789Y-143970348D01*
X177612788Y-143970349D01*
X177540148Y-144067272D01*
X177540146Y-144067275D01*
X177534766Y-144074454D01*
X177485949Y-144204674D01*
X177479500Y-144264038D01*
X177479500Y-144625962D01*
X177485949Y-144685326D01*
X177534766Y-144815546D01*
X177540146Y-144822725D01*
X177540148Y-144822728D01*
X177582648Y-144879435D01*
X177607496Y-144945942D01*
X177592443Y-145015324D01*
X177582648Y-145030565D01*
X177540148Y-145087272D01*
X177540146Y-145087275D01*
X177534766Y-145094454D01*
X177485949Y-145224674D01*
X177485096Y-145232522D01*
X177485096Y-145232524D01*
X177482547Y-145255989D01*
X177479500Y-145284038D01*
X177479500Y-145645962D01*
X177485949Y-145705326D01*
X177534766Y-145835546D01*
X177540146Y-145842725D01*
X177540148Y-145842728D01*
X177596491Y-145917906D01*
X177618169Y-145946831D01*
X177619313Y-145947689D01*
X177651520Y-146006669D01*
X177646455Y-146077484D01*
X177603908Y-146134320D01*
X177537388Y-146159131D01*
X177528416Y-146159452D01*
X177321035Y-146159462D01*
X177226006Y-146159467D01*
X177157885Y-146139468D01*
X177111389Y-146085815D01*
X177100000Y-146033467D01*
X177100000Y-142251983D01*
X177822000Y-142251983D01*
X177837205Y-142391949D01*
X177897185Y-142570177D01*
X177900700Y-142576027D01*
X177900701Y-142576029D01*
X177924327Y-142615348D01*
X177994038Y-142731366D01*
X177998725Y-142736322D01*
X178084348Y-142826866D01*
X178123244Y-142867998D01*
X178278776Y-142973698D01*
X178453377Y-143043533D01*
X178460105Y-143044647D01*
X178460109Y-143044648D01*
X178632165Y-143073132D01*
X178632168Y-143073132D01*
X178638902Y-143074247D01*
X178645206Y-143073917D01*
X178711916Y-143097622D01*
X178755343Y-143153789D01*
X178761510Y-143224517D01*
X178745248Y-143265769D01*
X178734446Y-143283293D01*
X178728303Y-143296468D01*
X178679421Y-143443843D01*
X178676555Y-143457210D01*
X178667386Y-143546700D01*
X178671475Y-143560624D01*
X178672865Y-143561829D01*
X178680548Y-143563500D01*
X180614885Y-143563500D01*
X180630124Y-143559025D01*
X180631329Y-143557635D01*
X180632842Y-143550679D01*
X180632663Y-143547218D01*
X180623196Y-143455979D01*
X180620303Y-143442583D01*
X180571168Y-143295308D01*
X180570981Y-143294908D01*
X180570935Y-143294609D01*
X180568852Y-143288365D01*
X180569921Y-143288008D01*
X180560199Y-143224735D01*
X180589067Y-143159872D01*
X180626709Y-143129799D01*
X180744909Y-143068006D01*
X180755171Y-143061290D01*
X180901914Y-142943305D01*
X180910680Y-142934722D01*
X181031716Y-142790476D01*
X181038642Y-142780362D01*
X181129359Y-142615348D01*
X181134187Y-142604084D01*
X181191125Y-142424593D01*
X181193673Y-142412604D01*
X181210107Y-142266091D01*
X181210500Y-142259067D01*
X181210500Y-142127115D01*
X181206025Y-142111876D01*
X181204635Y-142110671D01*
X181196952Y-142109000D01*
X180059500Y-142109000D01*
X179991379Y-142088998D01*
X179944886Y-142035342D01*
X179933500Y-141983000D01*
X179933500Y-141582885D01*
X180441500Y-141582885D01*
X180445975Y-141598124D01*
X180447365Y-141599329D01*
X180455048Y-141601000D01*
X181192385Y-141601000D01*
X181207624Y-141596525D01*
X181208829Y-141595135D01*
X181210500Y-141587452D01*
X181210500Y-141457599D01*
X181210199Y-141451451D01*
X181196474Y-141311470D01*
X181194091Y-141299435D01*
X181139668Y-141119179D01*
X181134993Y-141107837D01*
X181046595Y-140941583D01*
X181039808Y-140931367D01*
X180920798Y-140785446D01*
X180912154Y-140776742D01*
X180767072Y-140656720D01*
X180756901Y-140649860D01*
X180591265Y-140560301D01*
X180579960Y-140555549D01*
X180458808Y-140518046D01*
X180444705Y-140517840D01*
X180441500Y-140524595D01*
X180441500Y-141582885D01*
X179933500Y-141582885D01*
X179933500Y-140531438D01*
X179929527Y-140517907D01*
X179921732Y-140516787D01*
X179808332Y-140550162D01*
X179796964Y-140554755D01*
X179630091Y-140641994D01*
X179619829Y-140648710D01*
X179473086Y-140766695D01*
X179464320Y-140775278D01*
X179424186Y-140823109D01*
X179365077Y-140862435D01*
X179294089Y-140863562D01*
X179252196Y-140841355D01*
X179251756Y-140842002D01*
X179101867Y-140740137D01*
X179096224Y-140736302D01*
X178921623Y-140666467D01*
X178914895Y-140665353D01*
X178914891Y-140665352D01*
X178742835Y-140636868D01*
X178742832Y-140636868D01*
X178736098Y-140635753D01*
X178729281Y-140636110D01*
X178729277Y-140636110D01*
X178575668Y-140644161D01*
X178548307Y-140645595D01*
X178541735Y-140647405D01*
X178541730Y-140647406D01*
X178373591Y-140693720D01*
X178367009Y-140695533D01*
X178360970Y-140698717D01*
X178206702Y-140780053D01*
X178206699Y-140780055D01*
X178200664Y-140783237D01*
X178057033Y-140904614D01*
X178017161Y-140956765D01*
X177946960Y-141048583D01*
X177946957Y-141048587D01*
X177942816Y-141054004D01*
X177939934Y-141060184D01*
X177939933Y-141060186D01*
X177872517Y-141204761D01*
X177863343Y-141224434D01*
X177861858Y-141231079D01*
X177861856Y-141231084D01*
X177838822Y-141334135D01*
X177822322Y-141407955D01*
X177822000Y-141413714D01*
X177822000Y-142251983D01*
X177100000Y-142251983D01*
X177100000Y-129599669D01*
X181552001Y-129599669D01*
X181552371Y-129606490D01*
X181557895Y-129657352D01*
X181561521Y-129672604D01*
X181606676Y-129793054D01*
X181615214Y-129808649D01*
X181691715Y-129910724D01*
X181704276Y-129923285D01*
X181806351Y-129999786D01*
X181821946Y-130008324D01*
X181942394Y-130053478D01*
X181957649Y-130057105D01*
X182008514Y-130062631D01*
X182015328Y-130063000D01*
X182137885Y-130063000D01*
X182153124Y-130058525D01*
X182154329Y-130057135D01*
X182156000Y-130049452D01*
X182156000Y-130044884D01*
X182664000Y-130044884D01*
X182668475Y-130060123D01*
X182669865Y-130061328D01*
X182677548Y-130062999D01*
X182804669Y-130062999D01*
X182811490Y-130062629D01*
X182862352Y-130057105D01*
X182877604Y-130053479D01*
X183000770Y-130007306D01*
X183071578Y-130002123D01*
X183089230Y-130007306D01*
X183212394Y-130053478D01*
X183227649Y-130057105D01*
X183278514Y-130062631D01*
X183285328Y-130063000D01*
X183407885Y-130063000D01*
X183423124Y-130058525D01*
X183424329Y-130057135D01*
X183426000Y-130049452D01*
X183426000Y-130044884D01*
X183934000Y-130044884D01*
X183938475Y-130060123D01*
X183939865Y-130061328D01*
X183947548Y-130062999D01*
X184074669Y-130062999D01*
X184081490Y-130062629D01*
X184132352Y-130057105D01*
X184147604Y-130053479D01*
X184270770Y-130007306D01*
X184341578Y-130002123D01*
X184359230Y-130007306D01*
X184482394Y-130053478D01*
X184497649Y-130057105D01*
X184548514Y-130062631D01*
X184555328Y-130063000D01*
X184677885Y-130063000D01*
X184693124Y-130058525D01*
X184694329Y-130057135D01*
X184696000Y-130049452D01*
X184696000Y-130044884D01*
X185204000Y-130044884D01*
X185208475Y-130060123D01*
X185209865Y-130061328D01*
X185217548Y-130062999D01*
X185344669Y-130062999D01*
X185351490Y-130062629D01*
X185402352Y-130057105D01*
X185417604Y-130053479D01*
X185538054Y-130008324D01*
X185553649Y-129999786D01*
X185655724Y-129923285D01*
X185668285Y-129910724D01*
X185744786Y-129808649D01*
X185753324Y-129793054D01*
X185798478Y-129672606D01*
X185802105Y-129657351D01*
X185807631Y-129606486D01*
X185808000Y-129599672D01*
X185808000Y-128927115D01*
X185803525Y-128911876D01*
X185802135Y-128910671D01*
X185794452Y-128909000D01*
X185222115Y-128909000D01*
X185206876Y-128913475D01*
X185205671Y-128914865D01*
X185204000Y-128922548D01*
X185204000Y-130044884D01*
X184696000Y-130044884D01*
X184696000Y-128927115D01*
X184691525Y-128911876D01*
X184690135Y-128910671D01*
X184682452Y-128909000D01*
X183952115Y-128909000D01*
X183936876Y-128913475D01*
X183935671Y-128914865D01*
X183934000Y-128922548D01*
X183934000Y-130044884D01*
X183426000Y-130044884D01*
X183426000Y-128927115D01*
X183421525Y-128911876D01*
X183420135Y-128910671D01*
X183412452Y-128909000D01*
X182682115Y-128909000D01*
X182666876Y-128913475D01*
X182665671Y-128914865D01*
X182664000Y-128922548D01*
X182664000Y-130044884D01*
X182156000Y-130044884D01*
X182156000Y-128927115D01*
X182151525Y-128911876D01*
X182150135Y-128910671D01*
X182142452Y-128909000D01*
X181570116Y-128909000D01*
X181554877Y-128913475D01*
X181553672Y-128914865D01*
X181552001Y-128922548D01*
X181552001Y-129599669D01*
X177100000Y-129599669D01*
X177100000Y-128853138D01*
X186264758Y-128853138D01*
X186282035Y-129009633D01*
X186336143Y-129157490D01*
X186340380Y-129163796D01*
X186340382Y-129163799D01*
X186363203Y-129197759D01*
X186423958Y-129288172D01*
X186540410Y-129394135D01*
X186597643Y-129425210D01*
X186672099Y-129465637D01*
X186672101Y-129465638D01*
X186678776Y-129469262D01*
X186686125Y-129471190D01*
X186823719Y-129507287D01*
X186823721Y-129507287D01*
X186831069Y-129509215D01*
X186857798Y-129509635D01*
X186880954Y-129509999D01*
X186948752Y-129531069D01*
X186968069Y-129546888D01*
X189807234Y-132386053D01*
X189817089Y-132397142D01*
X189836974Y-132422366D01*
X189877442Y-132450335D01*
X189883021Y-132454191D01*
X189886241Y-132456493D01*
X189923702Y-132484162D01*
X189923706Y-132484164D01*
X189931281Y-132489759D01*
X189937791Y-132492045D01*
X189943467Y-132495968D01*
X189952450Y-132498809D01*
X189996861Y-132512855D01*
X190000613Y-132514107D01*
X190044132Y-132529389D01*
X190053421Y-132532651D01*
X190060314Y-132532922D01*
X190066894Y-132535003D01*
X190073209Y-132535500D01*
X190123429Y-132535500D01*
X190128377Y-132535597D01*
X190182775Y-132537735D01*
X190189636Y-132535916D01*
X190197191Y-132535500D01*
X192507771Y-132535500D01*
X192575892Y-132555502D01*
X192592569Y-132568305D01*
X192620471Y-132593694D01*
X192663312Y-132632676D01*
X192670410Y-132639135D01*
X192717952Y-132664948D01*
X192802099Y-132710637D01*
X192802101Y-132710638D01*
X192808776Y-132714262D01*
X192816125Y-132716190D01*
X192953719Y-132752287D01*
X192953721Y-132752287D01*
X192961069Y-132754215D01*
X193044380Y-132755524D01*
X193110898Y-132756569D01*
X193110901Y-132756569D01*
X193118495Y-132756688D01*
X193271968Y-132721538D01*
X193412625Y-132650795D01*
X193450110Y-132618780D01*
X193526574Y-132553474D01*
X193526576Y-132553471D01*
X193532348Y-132548542D01*
X193624224Y-132420683D01*
X193628105Y-132411030D01*
X193651111Y-132353799D01*
X193682950Y-132274598D01*
X193695125Y-132189048D01*
X193704553Y-132122807D01*
X193704553Y-132122804D01*
X193705134Y-132118723D01*
X193705278Y-132105000D01*
X193686363Y-131948694D01*
X193682289Y-131937911D01*
X193633394Y-131808514D01*
X193633393Y-131808511D01*
X193630710Y-131801412D01*
X193541531Y-131671657D01*
X193474050Y-131611533D01*
X193429648Y-131571972D01*
X193429645Y-131571970D01*
X193423976Y-131566919D01*
X193404429Y-131556569D01*
X193343861Y-131524500D01*
X193284831Y-131493245D01*
X193265164Y-131488305D01*
X193139498Y-131456740D01*
X193139496Y-131456740D01*
X193132128Y-131454889D01*
X193124530Y-131454849D01*
X193124528Y-131454849D01*
X193057319Y-131454497D01*
X192974684Y-131454065D01*
X192967305Y-131455837D01*
X192967301Y-131455837D01*
X192828967Y-131489048D01*
X192828963Y-131489049D01*
X192821588Y-131490820D01*
X192776170Y-131514262D01*
X192725139Y-131540601D01*
X192681679Y-131563032D01*
X192589494Y-131643450D01*
X192525015Y-131673157D01*
X192506667Y-131674500D01*
X190365509Y-131674500D01*
X190297388Y-131654498D01*
X190276414Y-131637595D01*
X187611391Y-128972572D01*
X187577365Y-128910260D01*
X187574933Y-128875137D01*
X187575134Y-128873723D01*
X187575278Y-128860000D01*
X187556363Y-128703694D01*
X187541076Y-128663238D01*
X187503394Y-128563514D01*
X187503393Y-128563511D01*
X187500710Y-128556412D01*
X187411531Y-128426657D01*
X187333833Y-128357430D01*
X187299648Y-128326972D01*
X187299645Y-128326970D01*
X187293976Y-128321919D01*
X187186475Y-128265000D01*
X194694318Y-128265000D01*
X194697660Y-128290387D01*
X194711634Y-128396525D01*
X194714956Y-128421762D01*
X194775464Y-128567841D01*
X194871718Y-128693282D01*
X194997159Y-128789536D01*
X195143238Y-128850044D01*
X195170036Y-128853572D01*
X195182447Y-128855206D01*
X195247375Y-128883928D01*
X195286466Y-128943194D01*
X195292001Y-128980128D01*
X195292001Y-129599669D01*
X195292371Y-129606490D01*
X195297895Y-129657352D01*
X195301521Y-129672604D01*
X195346676Y-129793054D01*
X195355214Y-129808649D01*
X195431715Y-129910724D01*
X195444276Y-129923285D01*
X195546351Y-129999786D01*
X195561946Y-130008324D01*
X195682394Y-130053478D01*
X195697649Y-130057105D01*
X195748514Y-130062631D01*
X195755328Y-130063000D01*
X195877885Y-130063000D01*
X195893124Y-130058525D01*
X195894329Y-130057135D01*
X195896000Y-130049452D01*
X195896000Y-128346800D01*
X195897078Y-128330354D01*
X195898043Y-128323025D01*
X195905682Y-128265000D01*
X195897078Y-128199646D01*
X195896000Y-128183200D01*
X195896000Y-127265116D01*
X195891525Y-127249877D01*
X195890135Y-127248672D01*
X195882452Y-127247001D01*
X195755331Y-127247001D01*
X195748510Y-127247371D01*
X195697648Y-127252895D01*
X195682396Y-127256521D01*
X195561946Y-127301676D01*
X195546351Y-127310214D01*
X195444276Y-127386715D01*
X195431715Y-127399276D01*
X195355214Y-127501351D01*
X195346676Y-127516946D01*
X195319504Y-127589426D01*
X195276862Y-127646190D01*
X195217969Y-127670117D01*
X195143238Y-127679956D01*
X194997159Y-127740464D01*
X194871718Y-127836718D01*
X194775464Y-127962159D01*
X194714956Y-128108238D01*
X194694318Y-128265000D01*
X187186475Y-128265000D01*
X187154831Y-128248245D01*
X187138122Y-128244048D01*
X187009498Y-128211740D01*
X187009496Y-128211740D01*
X187002128Y-128209889D01*
X186994530Y-128209849D01*
X186994528Y-128209849D01*
X186927319Y-128209497D01*
X186844684Y-128209065D01*
X186837305Y-128210837D01*
X186837301Y-128210837D01*
X186698967Y-128244048D01*
X186698963Y-128244049D01*
X186691588Y-128245820D01*
X186551679Y-128318032D01*
X186545957Y-128323024D01*
X186545955Y-128323025D01*
X186438759Y-128416538D01*
X186438756Y-128416541D01*
X186433034Y-128421533D01*
X186342501Y-128550348D01*
X186285309Y-128697039D01*
X186279904Y-128738097D01*
X186267101Y-128835342D01*
X186264758Y-128853138D01*
X177100000Y-128853138D01*
X177100000Y-128382885D01*
X181552000Y-128382885D01*
X181556475Y-128398124D01*
X181557865Y-128399329D01*
X181565548Y-128401000D01*
X182137885Y-128401000D01*
X182153124Y-128396525D01*
X182154329Y-128395135D01*
X182156000Y-128387452D01*
X182156000Y-128382885D01*
X182664000Y-128382885D01*
X182668475Y-128398124D01*
X182669865Y-128399329D01*
X182677548Y-128401000D01*
X183407885Y-128401000D01*
X183423124Y-128396525D01*
X183424329Y-128395135D01*
X183426000Y-128387452D01*
X183426000Y-128382885D01*
X183934000Y-128382885D01*
X183938475Y-128398124D01*
X183939865Y-128399329D01*
X183947548Y-128401000D01*
X184677885Y-128401000D01*
X184693124Y-128396525D01*
X184694329Y-128395135D01*
X184696000Y-128387452D01*
X184696000Y-128382885D01*
X185204000Y-128382885D01*
X185208475Y-128398124D01*
X185209865Y-128399329D01*
X185217548Y-128401000D01*
X185789884Y-128401000D01*
X185805123Y-128396525D01*
X185806328Y-128395135D01*
X185807999Y-128387452D01*
X185807999Y-127710331D01*
X185807629Y-127703510D01*
X185802105Y-127652648D01*
X185798479Y-127637396D01*
X185753324Y-127516946D01*
X185744786Y-127501351D01*
X185668285Y-127399276D01*
X185655724Y-127386715D01*
X185553649Y-127310214D01*
X185538054Y-127301676D01*
X185417606Y-127256522D01*
X185402351Y-127252895D01*
X185351486Y-127247369D01*
X185344672Y-127247000D01*
X185222115Y-127247000D01*
X185206876Y-127251475D01*
X185205671Y-127252865D01*
X185204000Y-127260548D01*
X185204000Y-128382885D01*
X184696000Y-128382885D01*
X184696000Y-127265116D01*
X184691525Y-127249877D01*
X184690135Y-127248672D01*
X184682452Y-127247001D01*
X184555331Y-127247001D01*
X184548510Y-127247371D01*
X184497648Y-127252895D01*
X184482396Y-127256521D01*
X184359230Y-127302694D01*
X184288422Y-127307877D01*
X184270770Y-127302694D01*
X184147606Y-127256522D01*
X184132351Y-127252895D01*
X184081486Y-127247369D01*
X184074672Y-127247000D01*
X183952115Y-127247000D01*
X183936876Y-127251475D01*
X183935671Y-127252865D01*
X183934000Y-127260548D01*
X183934000Y-128382885D01*
X183426000Y-128382885D01*
X183426000Y-127265116D01*
X183421525Y-127249877D01*
X183420135Y-127248672D01*
X183412452Y-127247001D01*
X183285331Y-127247001D01*
X183278510Y-127247371D01*
X183227648Y-127252895D01*
X183212396Y-127256521D01*
X183089230Y-127302694D01*
X183018422Y-127307877D01*
X183000770Y-127302694D01*
X182877606Y-127256522D01*
X182862351Y-127252895D01*
X182811486Y-127247369D01*
X182804672Y-127247000D01*
X182682115Y-127247000D01*
X182666876Y-127251475D01*
X182665671Y-127252865D01*
X182664000Y-127260548D01*
X182664000Y-128382885D01*
X182156000Y-128382885D01*
X182156000Y-127265116D01*
X182151525Y-127249877D01*
X182150135Y-127248672D01*
X182142452Y-127247001D01*
X182015331Y-127247001D01*
X182008510Y-127247371D01*
X181957648Y-127252895D01*
X181942396Y-127256521D01*
X181821946Y-127301676D01*
X181806351Y-127310214D01*
X181704276Y-127386715D01*
X181691715Y-127399276D01*
X181615214Y-127501351D01*
X181606676Y-127516946D01*
X181561522Y-127637394D01*
X181557895Y-127652649D01*
X181552369Y-127703514D01*
X181552000Y-127710328D01*
X181552000Y-128382885D01*
X177100000Y-128382885D01*
X177100000Y-126666983D01*
X177977000Y-126666983D01*
X177992205Y-126806949D01*
X178052185Y-126985177D01*
X178055700Y-126991027D01*
X178055701Y-126991029D01*
X178079705Y-127030978D01*
X178149038Y-127146366D01*
X178192548Y-127192377D01*
X178265689Y-127269721D01*
X178278244Y-127282998D01*
X178433776Y-127388698D01*
X178608377Y-127458533D01*
X178615105Y-127459647D01*
X178615109Y-127459648D01*
X178787165Y-127488132D01*
X178787168Y-127488132D01*
X178793902Y-127489247D01*
X178800719Y-127488890D01*
X178800723Y-127488890D01*
X178954332Y-127480839D01*
X178981693Y-127479405D01*
X178988265Y-127477595D01*
X178988270Y-127477594D01*
X179156409Y-127431280D01*
X179162991Y-127429467D01*
X179206195Y-127406688D01*
X179323298Y-127344947D01*
X179323301Y-127344945D01*
X179329336Y-127341763D01*
X179472967Y-127220386D01*
X179493053Y-127194115D01*
X179550315Y-127152149D01*
X179621179Y-127147804D01*
X179684695Y-127184073D01*
X179702822Y-127203241D01*
X179765689Y-127269721D01*
X179778244Y-127282998D01*
X179933776Y-127388698D01*
X180108377Y-127458533D01*
X180115105Y-127459647D01*
X180115109Y-127459648D01*
X180287165Y-127488132D01*
X180287168Y-127488132D01*
X180293902Y-127489247D01*
X180300719Y-127488890D01*
X180300723Y-127488890D01*
X180454332Y-127480839D01*
X180481693Y-127479405D01*
X180488265Y-127477595D01*
X180488270Y-127477594D01*
X180656409Y-127431280D01*
X180662991Y-127429467D01*
X180706195Y-127406688D01*
X180823298Y-127344947D01*
X180823301Y-127344945D01*
X180829336Y-127341763D01*
X180972967Y-127220386D01*
X181029137Y-127146919D01*
X181083040Y-127076417D01*
X181083043Y-127076413D01*
X181087184Y-127070996D01*
X181099141Y-127045354D01*
X181163777Y-126906743D01*
X181163778Y-126906740D01*
X181166657Y-126900566D01*
X181168142Y-126893921D01*
X181168144Y-126893916D01*
X181206552Y-126722083D01*
X181206552Y-126722082D01*
X181207678Y-126717045D01*
X181208000Y-126711286D01*
X181208000Y-125873017D01*
X181205426Y-125849318D01*
X181193532Y-125739836D01*
X181192795Y-125733051D01*
X181132815Y-125554823D01*
X181035962Y-125393634D01*
X180952921Y-125305820D01*
X180911443Y-125261958D01*
X180911441Y-125261956D01*
X180906756Y-125257002D01*
X180751224Y-125151302D01*
X180576623Y-125081467D01*
X180569895Y-125080353D01*
X180569891Y-125080352D01*
X180397835Y-125051868D01*
X180397832Y-125051868D01*
X180391098Y-125050753D01*
X180384281Y-125051110D01*
X180384277Y-125051110D01*
X180230668Y-125059161D01*
X180203307Y-125060595D01*
X180196735Y-125062405D01*
X180196730Y-125062406D01*
X180043429Y-125104633D01*
X180022009Y-125110533D01*
X180015970Y-125113717D01*
X179861702Y-125195053D01*
X179861699Y-125195055D01*
X179855664Y-125198237D01*
X179712033Y-125319614D01*
X179691947Y-125345885D01*
X179634685Y-125387851D01*
X179563821Y-125392196D01*
X179500304Y-125355927D01*
X179479110Y-125333514D01*
X179452921Y-125305820D01*
X179411443Y-125261958D01*
X179411441Y-125261956D01*
X179406756Y-125257002D01*
X179251224Y-125151302D01*
X179076623Y-125081467D01*
X179069895Y-125080353D01*
X179069891Y-125080352D01*
X178897835Y-125051868D01*
X178897832Y-125051868D01*
X178891098Y-125050753D01*
X178884281Y-125051110D01*
X178884277Y-125051110D01*
X178730668Y-125059161D01*
X178703307Y-125060595D01*
X178696735Y-125062405D01*
X178696730Y-125062406D01*
X178543429Y-125104633D01*
X178522009Y-125110533D01*
X178515970Y-125113717D01*
X178361702Y-125195053D01*
X178361699Y-125195055D01*
X178355664Y-125198237D01*
X178212033Y-125319614D01*
X178191949Y-125345883D01*
X178101960Y-125463583D01*
X178101957Y-125463587D01*
X178097816Y-125469004D01*
X178094934Y-125475184D01*
X178094933Y-125475186D01*
X178024658Y-125625892D01*
X178018343Y-125639434D01*
X178016858Y-125646079D01*
X178016856Y-125646084D01*
X177990568Y-125763694D01*
X177977322Y-125822955D01*
X177977000Y-125828714D01*
X177977000Y-126666983D01*
X177100000Y-126666983D01*
X177100000Y-124948138D01*
X185994758Y-124948138D01*
X186012035Y-125104633D01*
X186066143Y-125252490D01*
X186070380Y-125258796D01*
X186070382Y-125258799D01*
X186101979Y-125305820D01*
X186153958Y-125383172D01*
X186171884Y-125399483D01*
X186253441Y-125473694D01*
X186270410Y-125489135D01*
X186330369Y-125521690D01*
X186402099Y-125560637D01*
X186402101Y-125560638D01*
X186408776Y-125564262D01*
X186416125Y-125566190D01*
X186553719Y-125602287D01*
X186553721Y-125602287D01*
X186561069Y-125604215D01*
X186644380Y-125605524D01*
X186710898Y-125606569D01*
X186710901Y-125606569D01*
X186718495Y-125606688D01*
X186871968Y-125571538D01*
X187012625Y-125500795D01*
X187078154Y-125444828D01*
X187126574Y-125403474D01*
X187126576Y-125403471D01*
X187132348Y-125398542D01*
X187224224Y-125270683D01*
X187227732Y-125261958D01*
X187261968Y-125176793D01*
X187282950Y-125124598D01*
X187295771Y-125034515D01*
X187304553Y-124972807D01*
X187304553Y-124972804D01*
X187305134Y-124968723D01*
X187305278Y-124955000D01*
X187286363Y-124798694D01*
X187230710Y-124651412D01*
X187141531Y-124521657D01*
X187094971Y-124480174D01*
X187029648Y-124421972D01*
X187029645Y-124421970D01*
X187023976Y-124416919D01*
X186884831Y-124343245D01*
X186868122Y-124339048D01*
X186739498Y-124306740D01*
X186739496Y-124306740D01*
X186732128Y-124304889D01*
X186724530Y-124304849D01*
X186724528Y-124304849D01*
X186657319Y-124304497D01*
X186574684Y-124304065D01*
X186567305Y-124305837D01*
X186567301Y-124305837D01*
X186428967Y-124339048D01*
X186428963Y-124339049D01*
X186421588Y-124340820D01*
X186340433Y-124382707D01*
X186300967Y-124403077D01*
X186281679Y-124413032D01*
X186275957Y-124418024D01*
X186275955Y-124418025D01*
X186168759Y-124511538D01*
X186168756Y-124511541D01*
X186163034Y-124516533D01*
X186131873Y-124560871D01*
X186082574Y-124631016D01*
X186072501Y-124645348D01*
X186015309Y-124792039D01*
X186014318Y-124799568D01*
X186006555Y-124858535D01*
X185994758Y-124948138D01*
X177100000Y-124948138D01*
X177100000Y-124023605D01*
X204593381Y-124023605D01*
X204593421Y-124037705D01*
X204600691Y-124041000D01*
X205127885Y-124041000D01*
X205143124Y-124036525D01*
X205144329Y-124035135D01*
X205146000Y-124027452D01*
X205146000Y-124022885D01*
X205654000Y-124022885D01*
X205658475Y-124038124D01*
X205659865Y-124039329D01*
X205667548Y-124041000D01*
X206193558Y-124041000D01*
X206207089Y-124037027D01*
X206208224Y-124029129D01*
X206171643Y-123903216D01*
X206165396Y-123888780D01*
X206090124Y-123761501D01*
X206080484Y-123749074D01*
X205975926Y-123644516D01*
X205963499Y-123634876D01*
X205836220Y-123559604D01*
X205821784Y-123553357D01*
X205678359Y-123511688D01*
X205670391Y-123510232D01*
X205656969Y-123513052D01*
X205654000Y-123524513D01*
X205654000Y-124022885D01*
X205146000Y-124022885D01*
X205146000Y-123526576D01*
X205141656Y-123511781D01*
X205131225Y-123509937D01*
X205121641Y-123511688D01*
X204978216Y-123553357D01*
X204963780Y-123559604D01*
X204836501Y-123634876D01*
X204824074Y-123644516D01*
X204719516Y-123749074D01*
X204709876Y-123761501D01*
X204634604Y-123888780D01*
X204628357Y-123903216D01*
X204593381Y-124023605D01*
X177100000Y-124023605D01*
X177100000Y-121976608D01*
X177120002Y-121908487D01*
X177173658Y-121861994D01*
X177226022Y-121850608D01*
X188405168Y-121852547D01*
G37*
%TD.AperFunction*%
%TA.AperFunction,Conductor*%
G36*
X207428995Y-142225502D02*
G01*
X207475488Y-142279158D01*
X207485592Y-142349432D01*
X207456098Y-142414012D01*
X207396449Y-142452374D01*
X207356479Y-142464138D01*
X207345111Y-142468731D01*
X207180846Y-142554607D01*
X207170585Y-142561321D01*
X207026127Y-142677468D01*
X207017368Y-142686046D01*
X206898222Y-142828039D01*
X206891292Y-142838159D01*
X206801998Y-143000585D01*
X206797166Y-143011858D01*
X206741120Y-143188538D01*
X206738570Y-143200532D01*
X206722393Y-143344761D01*
X206722000Y-143351785D01*
X206722000Y-143386399D01*
X206701998Y-143454520D01*
X206648342Y-143501013D01*
X206578068Y-143511117D01*
X206513488Y-143481623D01*
X206506905Y-143475494D01*
X205692061Y-142660650D01*
X205682207Y-142649561D01*
X205667015Y-142630291D01*
X205667013Y-142630289D01*
X205661180Y-142622890D01*
X205653433Y-142617535D01*
X205653431Y-142617534D01*
X205612933Y-142589545D01*
X205609711Y-142587243D01*
X205570066Y-142557960D01*
X205570065Y-142557959D01*
X205562492Y-142552366D01*
X205555676Y-142549973D01*
X205549739Y-142545869D01*
X205540759Y-142543029D01*
X205540757Y-142543028D01*
X205520591Y-142536650D01*
X205493789Y-142528174D01*
X205490058Y-142526929D01*
X205443571Y-142510604D01*
X205443569Y-142510604D01*
X205434677Y-142507481D01*
X205427489Y-142507199D01*
X205427430Y-142507188D01*
X205420578Y-142505020D01*
X205413971Y-142504500D01*
X205361292Y-142504500D01*
X205356345Y-142504403D01*
X205299314Y-142502162D01*
X205292208Y-142504046D01*
X205283961Y-142504500D01*
X197238793Y-142504500D01*
X197170672Y-142484498D01*
X197149698Y-142467595D01*
X197138545Y-142456442D01*
X197104519Y-142394130D01*
X197102553Y-142382484D01*
X197098215Y-142346636D01*
X197109888Y-142276607D01*
X197157569Y-142224005D01*
X197223302Y-142205500D01*
X207360874Y-142205500D01*
X207428995Y-142225502D01*
G37*
%TD.AperFunction*%
%TA.AperFunction,Conductor*%
G36*
X206512760Y-128146290D02*
G01*
X206528773Y-128159835D01*
X206921423Y-128552485D01*
X206955449Y-128614797D01*
X206954035Y-128674189D01*
X206953540Y-128676036D01*
X206950381Y-128683663D01*
X206949303Y-128691849D01*
X206949303Y-128691850D01*
X206944269Y-128730091D01*
X206937304Y-128783000D01*
X206935802Y-128794406D01*
X206907080Y-128859334D01*
X206899975Y-128867056D01*
X206113095Y-129653936D01*
X206050783Y-129687962D01*
X205979968Y-129682897D01*
X205923132Y-129640350D01*
X205898321Y-129573830D01*
X205898000Y-129564841D01*
X205898000Y-128927115D01*
X205893525Y-128911876D01*
X205892135Y-128910671D01*
X205884452Y-128909000D01*
X204912000Y-128909000D01*
X204843879Y-128888998D01*
X204797386Y-128835342D01*
X204786000Y-128783000D01*
X204786000Y-128527000D01*
X204806002Y-128458879D01*
X204859658Y-128412386D01*
X204912000Y-128401000D01*
X205879884Y-128401000D01*
X205895123Y-128396525D01*
X205896328Y-128395135D01*
X205897999Y-128387452D01*
X205897999Y-128342116D01*
X205918001Y-128273995D01*
X205971657Y-128227502D01*
X206040445Y-128217194D01*
X206074700Y-128221704D01*
X206082888Y-128220626D01*
X206223274Y-128202144D01*
X206231462Y-128201066D01*
X206377541Y-128140558D01*
X206379361Y-128139162D01*
X206445667Y-128123072D01*
X206512760Y-128146290D01*
G37*
%TD.AperFunction*%
%TA.AperFunction,Conductor*%
G36*
X211818973Y-125195502D02*
G01*
X211839947Y-125212405D01*
X212436947Y-125809405D01*
X212470973Y-125871717D01*
X212465908Y-125942532D01*
X212423361Y-125999368D01*
X212356841Y-126024179D01*
X212347852Y-126024500D01*
X210809595Y-126024500D01*
X210741474Y-126004498D01*
X210694981Y-125950842D01*
X210684508Y-125913637D01*
X210679181Y-125869620D01*
X210666363Y-125763694D01*
X210621030Y-125643723D01*
X210613394Y-125623514D01*
X210613393Y-125623511D01*
X210610710Y-125616412D01*
X210521531Y-125486657D01*
X210419304Y-125395576D01*
X210381748Y-125335326D01*
X210382728Y-125264336D01*
X210421933Y-125205146D01*
X210486915Y-125176547D01*
X210503123Y-125175500D01*
X211750852Y-125175500D01*
X211818973Y-125195502D01*
G37*
%TD.AperFunction*%
%TD*%
%TA.AperFunction,Conductor*%
%TO.N,GND*%
G36*
X172153258Y-121531438D02*
G01*
X172199768Y-121585079D01*
X172209894Y-121655349D01*
X172180421Y-121719940D01*
X172155173Y-121742222D01*
X172115763Y-121768555D01*
X172115761Y-121768557D01*
X172105448Y-121775448D01*
X172061133Y-121841769D01*
X172049500Y-121900252D01*
X172049500Y-123939748D01*
X172061133Y-123998231D01*
X172105448Y-124064552D01*
X172115761Y-124071443D01*
X172115763Y-124071445D01*
X172136401Y-124085235D01*
X172181929Y-124139712D01*
X172190776Y-124210155D01*
X172160135Y-124274199D01*
X172136401Y-124294765D01*
X172115763Y-124308555D01*
X172115761Y-124308557D01*
X172105448Y-124315448D01*
X172061133Y-124381769D01*
X172049500Y-124440252D01*
X172049500Y-126479748D01*
X172061133Y-126538231D01*
X172105448Y-126604552D01*
X172115761Y-126611443D01*
X172115763Y-126611445D01*
X172136401Y-126625235D01*
X172181929Y-126679712D01*
X172190776Y-126750155D01*
X172160135Y-126814199D01*
X172136401Y-126834765D01*
X172115763Y-126848555D01*
X172115761Y-126848557D01*
X172105448Y-126855448D01*
X172061133Y-126921769D01*
X172049500Y-126980252D01*
X172049500Y-129019748D01*
X172061133Y-129078231D01*
X172105448Y-129144552D01*
X172171769Y-129188867D01*
X172183938Y-129191288D01*
X172183939Y-129191288D01*
X172217779Y-129198019D01*
X172230252Y-129200500D01*
X173769748Y-129200500D01*
X173797921Y-129194896D01*
X173868634Y-129201224D01*
X173924702Y-129244778D01*
X173948502Y-129318742D01*
X173943046Y-131880608D01*
X173939018Y-133771872D01*
X173937940Y-133788051D01*
X173926206Y-133877176D01*
X173917693Y-133908948D01*
X173886533Y-133984174D01*
X173870087Y-134012658D01*
X173820518Y-134077259D01*
X173797258Y-134100519D01*
X173768567Y-134122534D01*
X173702347Y-134148134D01*
X173691864Y-134148571D01*
X169318136Y-134148571D01*
X169250015Y-134128569D01*
X169241433Y-134122534D01*
X169212742Y-134100519D01*
X169189482Y-134077259D01*
X169139913Y-134012658D01*
X169123467Y-133984174D01*
X169092307Y-133908948D01*
X169083794Y-133877176D01*
X169072078Y-133788187D01*
X169071000Y-133771740D01*
X169071000Y-131356072D01*
X170920605Y-131356072D01*
X170941243Y-131512834D01*
X171001751Y-131658913D01*
X171098005Y-131784354D01*
X171223446Y-131880608D01*
X171369525Y-131941116D01*
X171526287Y-131961754D01*
X171534475Y-131960676D01*
X171674861Y-131942194D01*
X171683049Y-131941116D01*
X171829128Y-131880608D01*
X171954569Y-131784354D01*
X172050823Y-131658913D01*
X172111331Y-131512834D01*
X172131969Y-131356072D01*
X172111331Y-131199310D01*
X172050823Y-131053231D01*
X171954569Y-130927790D01*
X171829128Y-130831536D01*
X171683049Y-130771028D01*
X171526287Y-130750390D01*
X171369525Y-130771028D01*
X171223446Y-130831536D01*
X171098005Y-130927790D01*
X171001751Y-131053231D01*
X170941243Y-131199310D01*
X170920605Y-131356072D01*
X169071000Y-131356072D01*
X169071000Y-130285422D01*
X169075137Y-130271332D01*
X169072146Y-130270986D01*
X169083868Y-130169602D01*
X169089114Y-130145407D01*
X169116665Y-130059962D01*
X169126541Y-130037259D01*
X169170272Y-129958843D01*
X169184390Y-129938517D01*
X169221023Y-129895508D01*
X169256161Y-129866842D01*
X169268977Y-129859784D01*
X169268925Y-129859879D01*
X169269154Y-129860675D01*
X169269879Y-129861075D01*
X169270675Y-129860846D01*
X169272214Y-129862775D01*
X169284056Y-129851481D01*
X169284057Y-129851480D01*
X169353463Y-129785282D01*
X169353464Y-129785281D01*
X169357492Y-129781439D01*
X169399831Y-129723663D01*
X169423860Y-129690873D01*
X169423862Y-129690871D01*
X169427150Y-129686383D01*
X169479019Y-129580565D01*
X169511487Y-129467279D01*
X169520382Y-129380773D01*
X169521127Y-129381082D01*
X169521577Y-129380896D01*
X169522643Y-129381005D01*
X169522591Y-129380198D01*
X169522127Y-129380198D01*
X169522127Y-129367780D01*
X169522298Y-129366920D01*
X169522788Y-129357373D01*
X169523541Y-129350050D01*
X169524939Y-129350194D01*
X169524956Y-129350030D01*
X169522127Y-129350030D01*
X169522127Y-129312633D01*
X169542129Y-129244512D01*
X169595785Y-129198019D01*
X169672708Y-129189054D01*
X169717779Y-129198019D01*
X169730252Y-129200500D01*
X171269748Y-129200500D01*
X171282221Y-129198019D01*
X171316061Y-129191288D01*
X171316062Y-129191288D01*
X171328231Y-129188867D01*
X171394552Y-129144552D01*
X171438867Y-129078231D01*
X171450500Y-129019748D01*
X171450500Y-126980252D01*
X171438867Y-126921769D01*
X171394552Y-126855448D01*
X171384239Y-126848557D01*
X171384237Y-126848555D01*
X171363599Y-126834765D01*
X171318071Y-126780288D01*
X171309224Y-126709845D01*
X171339865Y-126645801D01*
X171363599Y-126625235D01*
X171384237Y-126611445D01*
X171384239Y-126611443D01*
X171394552Y-126604552D01*
X171438867Y-126538231D01*
X171450500Y-126479748D01*
X171450500Y-124467646D01*
X171470502Y-124399525D01*
X171500935Y-124366820D01*
X171605724Y-124288285D01*
X171618285Y-124275724D01*
X171694786Y-124173649D01*
X171703324Y-124158054D01*
X171748478Y-124037606D01*
X171752105Y-124022351D01*
X171757631Y-123971486D01*
X171758000Y-123964672D01*
X171758000Y-123192115D01*
X171753525Y-123176876D01*
X171752135Y-123175671D01*
X171744452Y-123174000D01*
X170372000Y-123174000D01*
X170303879Y-123153998D01*
X170257386Y-123100342D01*
X170246000Y-123048000D01*
X170246000Y-122792000D01*
X170266002Y-122723879D01*
X170319658Y-122677386D01*
X170372000Y-122666000D01*
X171739884Y-122666000D01*
X171755123Y-122661525D01*
X171756328Y-122660135D01*
X171757999Y-122652452D01*
X171757999Y-121875331D01*
X171757629Y-121868510D01*
X171752105Y-121817648D01*
X171748479Y-121802396D01*
X171703258Y-121681770D01*
X171698075Y-121610963D01*
X171731996Y-121548594D01*
X171794251Y-121514464D01*
X171821200Y-121511540D01*
X172085131Y-121511457D01*
X172153258Y-121531438D01*
G37*
%TD.AperFunction*%
%TD*%
%TA.AperFunction,Conductor*%
%TO.N,GND*%
G36*
X169784011Y-136550735D02*
G01*
X171408978Y-136551102D01*
X171477094Y-136571119D01*
X171523574Y-136624786D01*
X171532529Y-136701680D01*
X171529500Y-136716908D01*
X171529500Y-138256404D01*
X171541133Y-138314887D01*
X171585448Y-138381208D01*
X171595761Y-138388099D01*
X171604540Y-138396878D01*
X171601519Y-138399899D01*
X171632001Y-138436377D01*
X171640843Y-138506821D01*
X171610197Y-138570863D01*
X171604181Y-138576075D01*
X171604540Y-138576434D01*
X171595761Y-138585213D01*
X171585448Y-138592104D01*
X171541133Y-138658425D01*
X171529500Y-138716908D01*
X171529500Y-140256404D01*
X171541133Y-140314887D01*
X171585448Y-140381208D01*
X171595761Y-140388099D01*
X171604540Y-140396878D01*
X171601519Y-140399899D01*
X171632001Y-140436377D01*
X171640843Y-140506821D01*
X171610197Y-140570863D01*
X171604181Y-140576075D01*
X171604540Y-140576434D01*
X171595761Y-140585213D01*
X171585448Y-140592104D01*
X171541133Y-140658425D01*
X171529500Y-140716908D01*
X171529500Y-142256404D01*
X171541133Y-142314887D01*
X171585448Y-142381208D01*
X171595761Y-142388099D01*
X171604540Y-142396878D01*
X171601519Y-142399899D01*
X171632001Y-142436377D01*
X171640843Y-142506821D01*
X171610197Y-142570863D01*
X171604181Y-142576075D01*
X171604540Y-142576434D01*
X171595761Y-142585213D01*
X171585448Y-142592104D01*
X171541133Y-142658425D01*
X171529500Y-142716908D01*
X171529500Y-144189010D01*
X171509498Y-144257131D01*
X171479065Y-144289836D01*
X171374276Y-144368371D01*
X171361715Y-144380932D01*
X171285214Y-144483007D01*
X171276676Y-144498602D01*
X171231522Y-144619050D01*
X171227895Y-144634305D01*
X171222369Y-144685170D01*
X171222000Y-144691984D01*
X171222000Y-145214541D01*
X171226475Y-145229780D01*
X171227865Y-145230985D01*
X171235548Y-145232656D01*
X172858000Y-145232656D01*
X172926121Y-145252658D01*
X172972614Y-145306314D01*
X172984000Y-145358656D01*
X172984000Y-145614656D01*
X172963998Y-145682777D01*
X172910342Y-145729270D01*
X172858000Y-145740656D01*
X171240116Y-145740656D01*
X171224877Y-145745131D01*
X171223672Y-145746521D01*
X171222001Y-145754204D01*
X171222001Y-146270840D01*
X171201999Y-146338961D01*
X171148343Y-146385454D01*
X171095792Y-146396840D01*
X168132853Y-146391912D01*
X166882584Y-146389833D01*
X166814497Y-146369718D01*
X166806087Y-146363793D01*
X166743878Y-146316055D01*
X166720617Y-146292792D01*
X166671056Y-146228194D01*
X166654610Y-146199703D01*
X166623460Y-146124478D01*
X166614950Y-146092701D01*
X166603202Y-146003370D01*
X166602126Y-145986957D01*
X166601001Y-136994933D01*
X166602080Y-136978459D01*
X166613802Y-136889486D01*
X166622318Y-136857718D01*
X166653480Y-136782501D01*
X166669928Y-136754016D01*
X166719498Y-136689424D01*
X166742755Y-136666170D01*
X166807354Y-136616605D01*
X166835839Y-136600160D01*
X166855290Y-136592104D01*
X166911062Y-136569004D01*
X166942832Y-136560492D01*
X167013477Y-136551192D01*
X167029950Y-136550114D01*
X169784011Y-136550735D01*
G37*
%TD.AperFunction*%
%TD*%
M02*
