%TF.GenerationSoftware,KiCad,Pcbnew,(6.0.4)*%
%TF.CreationDate,2023-03-26T23:07:16+09:00*%
%TF.ProjectId,kaguya-elec,6b616775-7961-42d6-956c-65632e6b6963,rev?*%
%TF.SameCoordinates,Original*%
%TF.FileFunction,Legend,Top*%
%TF.FilePolarity,Positive*%
%FSLAX46Y46*%
G04 Gerber Fmt 4.6, Leading zero omitted, Abs format (unit mm)*
G04 Created by KiCad (PCBNEW (6.0.4)) date 2023-03-26 23:07:16*
%MOMM*%
%LPD*%
G01*
G04 APERTURE LIST*
%ADD10C,0.150000*%
%ADD11C,0.200000*%
%ADD12C,0.300000*%
%ADD13C,0.250000*%
%ADD14C,0.254000*%
%ADD15C,0.120000*%
%ADD16C,0.201421*%
%ADD17C,0.310000*%
%ADD18C,0.063060*%
%ADD19C,0.218114*%
%ADD20C,0.100000*%
G04 APERTURE END LIST*
D10*
X239410000Y-135860000D02*
X239410000Y-145800000D01*
X236400000Y-135810000D02*
X236400000Y-145750000D01*
X239420000Y-121430000D02*
X239410000Y-131260000D01*
X217080000Y-136080000D02*
X217080000Y-146020000D01*
X220100000Y-135720000D02*
X220100000Y-145660000D01*
X191500000Y-125350000D02*
X194450000Y-125350000D01*
X194450000Y-125350000D02*
X194450000Y-127900000D01*
X194450000Y-127900000D02*
X191500000Y-127900000D01*
X191500000Y-127900000D02*
X191500000Y-125350000D01*
X220085000Y-121870000D02*
X220095000Y-131450000D01*
X206400000Y-140400000D02*
X215020000Y-140400000D01*
X215020000Y-140400000D02*
X215020000Y-146690000D01*
X215020000Y-146690000D02*
X206400000Y-146690000D01*
X206400000Y-146690000D02*
X206400000Y-140400000D01*
G36*
X206400000Y-140400000D02*
G01*
X215020000Y-140400000D01*
X215020000Y-146690000D01*
X206400000Y-146690000D01*
X206400000Y-140400000D01*
G37*
X217090000Y-121890000D02*
X217100000Y-131470000D01*
X236420000Y-121610000D02*
X236430000Y-131190000D01*
D11*
X179240476Y-125735714D02*
X179192857Y-125773809D01*
X179050000Y-125811904D01*
X178954761Y-125811904D01*
X178811904Y-125773809D01*
X178716666Y-125697619D01*
X178669047Y-125621428D01*
X178621428Y-125469047D01*
X178621428Y-125354761D01*
X178669047Y-125202380D01*
X178716666Y-125126190D01*
X178811904Y-125050000D01*
X178954761Y-125011904D01*
X179050000Y-125011904D01*
X179192857Y-125050000D01*
X179240476Y-125088095D01*
X180097619Y-125811904D02*
X180097619Y-125392857D01*
X180050000Y-125316666D01*
X179954761Y-125278571D01*
X179764285Y-125278571D01*
X179669047Y-125316666D01*
X180097619Y-125773809D02*
X180002380Y-125811904D01*
X179764285Y-125811904D01*
X179669047Y-125773809D01*
X179621428Y-125697619D01*
X179621428Y-125621428D01*
X179669047Y-125545238D01*
X179764285Y-125507142D01*
X180002380Y-125507142D01*
X180097619Y-125469047D01*
X180573809Y-125278571D02*
X180573809Y-125811904D01*
X180573809Y-125354761D02*
X180621428Y-125316666D01*
X180716666Y-125278571D01*
X180859523Y-125278571D01*
X180954761Y-125316666D01*
X181002380Y-125392857D01*
X181002380Y-125811904D01*
X181430952Y-125773809D02*
X181573809Y-125811904D01*
X181811904Y-125811904D01*
X181907142Y-125773809D01*
X181954761Y-125735714D01*
X182002380Y-125659523D01*
X182002380Y-125583333D01*
X181954761Y-125507142D01*
X181907142Y-125469047D01*
X181811904Y-125430952D01*
X181621428Y-125392857D01*
X181526190Y-125354761D01*
X181478571Y-125316666D01*
X181430952Y-125240476D01*
X181430952Y-125164285D01*
X181478571Y-125088095D01*
X181526190Y-125050000D01*
X181621428Y-125011904D01*
X181859523Y-125011904D01*
X182002380Y-125050000D01*
X182859523Y-125811904D02*
X182859523Y-125392857D01*
X182811904Y-125316666D01*
X182716666Y-125278571D01*
X182526190Y-125278571D01*
X182430952Y-125316666D01*
X182859523Y-125773809D02*
X182764285Y-125811904D01*
X182526190Y-125811904D01*
X182430952Y-125773809D01*
X182383333Y-125697619D01*
X182383333Y-125621428D01*
X182430952Y-125545238D01*
X182526190Y-125507142D01*
X182764285Y-125507142D01*
X182859523Y-125469047D01*
X183192857Y-125278571D02*
X183573809Y-125278571D01*
X183335714Y-125011904D02*
X183335714Y-125697619D01*
X183383333Y-125773809D01*
X183478571Y-125811904D01*
X183573809Y-125811904D01*
D12*
X196071428Y-118628571D02*
X196642857Y-118628571D01*
X196285714Y-118128571D02*
X196285714Y-119414285D01*
X196357142Y-119557142D01*
X196500000Y-119628571D01*
X196642857Y-119628571D01*
X197142857Y-118842857D02*
X198285714Y-118842857D01*
X198285714Y-119271428D02*
X197142857Y-119271428D01*
X199785714Y-119628571D02*
X198928571Y-119628571D01*
X199357142Y-119628571D02*
X199357142Y-118128571D01*
X199214285Y-118342857D01*
X199071428Y-118485714D01*
X198928571Y-118557142D01*
X200428571Y-119628571D02*
X200428571Y-118628571D01*
X200428571Y-118771428D02*
X200500000Y-118700000D01*
X200642857Y-118628571D01*
X200857142Y-118628571D01*
X201000000Y-118700000D01*
X201071428Y-118842857D01*
X201071428Y-119628571D01*
X201071428Y-118842857D02*
X201142857Y-118700000D01*
X201285714Y-118628571D01*
X201500000Y-118628571D01*
X201642857Y-118700000D01*
X201714285Y-118842857D01*
X201714285Y-119628571D01*
X202428571Y-119628571D02*
X202428571Y-118628571D01*
X202428571Y-118771428D02*
X202500000Y-118700000D01*
X202642857Y-118628571D01*
X202857142Y-118628571D01*
X203000000Y-118700000D01*
X203071428Y-118842857D01*
X203071428Y-119628571D01*
X203071428Y-118842857D02*
X203142857Y-118700000D01*
X203285714Y-118628571D01*
X203500000Y-118628571D01*
X203642857Y-118700000D01*
X203714285Y-118842857D01*
X203714285Y-119628571D01*
X239795197Y-127018054D02*
X240509483Y-126518054D01*
X239795197Y-126160911D02*
X241295197Y-126160911D01*
X241295197Y-126732340D01*
X241223769Y-126875197D01*
X241152340Y-126946626D01*
X241009483Y-127018054D01*
X240795197Y-127018054D01*
X240652340Y-126946626D01*
X240580911Y-126875197D01*
X240509483Y-126732340D01*
X240509483Y-126160911D01*
X222214285Y-137268571D02*
X221500000Y-137268571D01*
X221500000Y-135768571D01*
X178764285Y-117121071D02*
X178764285Y-115621071D01*
X179478571Y-116121071D02*
X179478571Y-117121071D01*
X179478571Y-116263928D02*
X179550000Y-116192500D01*
X179692857Y-116121071D01*
X179907142Y-116121071D01*
X180050000Y-116192500D01*
X180121428Y-116335357D01*
X180121428Y-117121071D01*
X181621428Y-117121071D02*
X180764285Y-117121071D01*
X181192857Y-117121071D02*
X181192857Y-115621071D01*
X181050000Y-115835357D01*
X180907142Y-115978214D01*
X180764285Y-116049642D01*
X182264285Y-116978214D02*
X182335714Y-117049642D01*
X182264285Y-117121071D01*
X182192857Y-117049642D01*
X182264285Y-116978214D01*
X182264285Y-117121071D01*
X183835714Y-116978214D02*
X183764285Y-117049642D01*
X183550000Y-117121071D01*
X183407142Y-117121071D01*
X183192857Y-117049642D01*
X183050000Y-116906785D01*
X182978571Y-116763928D01*
X182907142Y-116478214D01*
X182907142Y-116263928D01*
X182978571Y-115978214D01*
X183050000Y-115835357D01*
X183192857Y-115692500D01*
X183407142Y-115621071D01*
X183550000Y-115621071D01*
X183764285Y-115692500D01*
X183835714Y-115763928D01*
X185121428Y-116121071D02*
X185121428Y-117121071D01*
X184478571Y-116121071D02*
X184478571Y-116906785D01*
X184550000Y-117049642D01*
X184692857Y-117121071D01*
X184907142Y-117121071D01*
X185050000Y-117049642D01*
X185121428Y-116978214D01*
X186978571Y-116335357D02*
X188121428Y-116335357D01*
X188121428Y-116763928D02*
X186978571Y-116763928D01*
X190764285Y-115692500D02*
X190621428Y-115621071D01*
X190407142Y-115621071D01*
X190192857Y-115692500D01*
X190050000Y-115835357D01*
X189978571Y-115978214D01*
X189907142Y-116263928D01*
X189907142Y-116478214D01*
X189978571Y-116763928D01*
X190050000Y-116906785D01*
X190192857Y-117049642D01*
X190407142Y-117121071D01*
X190550000Y-117121071D01*
X190764285Y-117049642D01*
X190835714Y-116978214D01*
X190835714Y-116478214D01*
X190550000Y-116478214D01*
X191478571Y-117121071D02*
X191478571Y-115621071D01*
X192335714Y-117121071D01*
X192335714Y-115621071D01*
X193050000Y-117121071D02*
X193050000Y-115621071D01*
X193407142Y-115621071D01*
X193621428Y-115692500D01*
X193764285Y-115835357D01*
X193835714Y-115978214D01*
X193907142Y-116263928D01*
X193907142Y-116478214D01*
X193835714Y-116763928D01*
X193764285Y-116906785D01*
X193621428Y-117049642D01*
X193407142Y-117121071D01*
X193050000Y-117121071D01*
X178978571Y-119536071D02*
X178978571Y-118036071D01*
X179692857Y-118536071D02*
X179692857Y-119536071D01*
X179692857Y-118678928D02*
X179764285Y-118607500D01*
X179907142Y-118536071D01*
X180121428Y-118536071D01*
X180264285Y-118607500D01*
X180335714Y-118750357D01*
X180335714Y-119536071D01*
X180978571Y-118178928D02*
X181050000Y-118107500D01*
X181192857Y-118036071D01*
X181550000Y-118036071D01*
X181692857Y-118107500D01*
X181764285Y-118178928D01*
X181835714Y-118321785D01*
X181835714Y-118464642D01*
X181764285Y-118678928D01*
X180907142Y-119536071D01*
X181835714Y-119536071D01*
X182478571Y-119393214D02*
X182550000Y-119464642D01*
X182478571Y-119536071D01*
X182407142Y-119464642D01*
X182478571Y-119393214D01*
X182478571Y-119536071D01*
X184050000Y-119393214D02*
X183978571Y-119464642D01*
X183764285Y-119536071D01*
X183621428Y-119536071D01*
X183407142Y-119464642D01*
X183264285Y-119321785D01*
X183192857Y-119178928D01*
X183121428Y-118893214D01*
X183121428Y-118678928D01*
X183192857Y-118393214D01*
X183264285Y-118250357D01*
X183407142Y-118107500D01*
X183621428Y-118036071D01*
X183764285Y-118036071D01*
X183978571Y-118107500D01*
X184050000Y-118178928D01*
X185335714Y-118536071D02*
X185335714Y-119536071D01*
X184692857Y-118536071D02*
X184692857Y-119321785D01*
X184764285Y-119464642D01*
X184907142Y-119536071D01*
X185121428Y-119536071D01*
X185264285Y-119464642D01*
X185335714Y-119393214D01*
X187192857Y-118750357D02*
X188335714Y-118750357D01*
X188335714Y-119178928D02*
X187192857Y-119178928D01*
X190050000Y-118036071D02*
X190978571Y-118036071D01*
X190478571Y-118607500D01*
X190692857Y-118607500D01*
X190835714Y-118678928D01*
X190907142Y-118750357D01*
X190978571Y-118893214D01*
X190978571Y-119250357D01*
X190907142Y-119393214D01*
X190835714Y-119464642D01*
X190692857Y-119536071D01*
X190264285Y-119536071D01*
X190121428Y-119464642D01*
X190050000Y-119393214D01*
X191407142Y-118036071D02*
X191907142Y-119536071D01*
X192407142Y-118036071D01*
X192764285Y-118036071D02*
X193692857Y-118036071D01*
X193192857Y-118607500D01*
X193407142Y-118607500D01*
X193550000Y-118678928D01*
X193621428Y-118750357D01*
X193692857Y-118893214D01*
X193692857Y-119250357D01*
X193621428Y-119393214D01*
X193550000Y-119464642D01*
X193407142Y-119536071D01*
X192978571Y-119536071D01*
X192835714Y-119464642D01*
X192764285Y-119393214D01*
X239827048Y-141372879D02*
X239827048Y-140658594D01*
X241327048Y-140658594D01*
D10*
X187273809Y-138935714D02*
X187235714Y-138973809D01*
X187121428Y-139011904D01*
X187045238Y-139011904D01*
X186930952Y-138973809D01*
X186854761Y-138897619D01*
X186816666Y-138821428D01*
X186778571Y-138669047D01*
X186778571Y-138554761D01*
X186816666Y-138402380D01*
X186854761Y-138326190D01*
X186930952Y-138250000D01*
X187045238Y-138211904D01*
X187121428Y-138211904D01*
X187235714Y-138250000D01*
X187273809Y-138288095D01*
X187997619Y-139011904D02*
X187616666Y-139011904D01*
X187616666Y-138211904D01*
X188264285Y-139011904D02*
X188264285Y-138211904D01*
X188721428Y-139011904D02*
X188378571Y-138554761D01*
X188721428Y-138211904D02*
X188264285Y-138669047D01*
X189580952Y-139061904D02*
X189580952Y-138261904D01*
X190114285Y-138261904D02*
X190266666Y-138261904D01*
X190342857Y-138300000D01*
X190419047Y-138376190D01*
X190457142Y-138528571D01*
X190457142Y-138795238D01*
X190419047Y-138947619D01*
X190342857Y-139023809D01*
X190266666Y-139061904D01*
X190114285Y-139061904D01*
X190038095Y-139023809D01*
X189961904Y-138947619D01*
X189923809Y-138795238D01*
X189923809Y-138528571D01*
X189961904Y-138376190D01*
X190038095Y-138300000D01*
X190114285Y-138261904D01*
D11*
X178547619Y-122961904D02*
X178547619Y-122161904D01*
X179119047Y-122961904D02*
X178690476Y-122504761D01*
X179119047Y-122161904D02*
X178547619Y-122619047D01*
X179976190Y-122961904D02*
X179976190Y-122542857D01*
X179928571Y-122466666D01*
X179833333Y-122428571D01*
X179642857Y-122428571D01*
X179547619Y-122466666D01*
X179976190Y-122923809D02*
X179880952Y-122961904D01*
X179642857Y-122961904D01*
X179547619Y-122923809D01*
X179500000Y-122847619D01*
X179500000Y-122771428D01*
X179547619Y-122695238D01*
X179642857Y-122657142D01*
X179880952Y-122657142D01*
X179976190Y-122619047D01*
X180880952Y-122428571D02*
X180880952Y-123076190D01*
X180833333Y-123152380D01*
X180785714Y-123190476D01*
X180690476Y-123228571D01*
X180547619Y-123228571D01*
X180452380Y-123190476D01*
X180880952Y-122923809D02*
X180785714Y-122961904D01*
X180595238Y-122961904D01*
X180500000Y-122923809D01*
X180452380Y-122885714D01*
X180404761Y-122809523D01*
X180404761Y-122580952D01*
X180452380Y-122504761D01*
X180500000Y-122466666D01*
X180595238Y-122428571D01*
X180785714Y-122428571D01*
X180880952Y-122466666D01*
X181785714Y-122428571D02*
X181785714Y-122961904D01*
X181357142Y-122428571D02*
X181357142Y-122847619D01*
X181404761Y-122923809D01*
X181500000Y-122961904D01*
X181642857Y-122961904D01*
X181738095Y-122923809D01*
X181785714Y-122885714D01*
X182166666Y-122428571D02*
X182404761Y-122961904D01*
X182642857Y-122428571D02*
X182404761Y-122961904D01*
X182309523Y-123152380D01*
X182261904Y-123190476D01*
X182166666Y-123228571D01*
X183452380Y-122961904D02*
X183452380Y-122542857D01*
X183404761Y-122466666D01*
X183309523Y-122428571D01*
X183119047Y-122428571D01*
X183023809Y-122466666D01*
X183452380Y-122923809D02*
X183357142Y-122961904D01*
X183119047Y-122961904D01*
X183023809Y-122923809D01*
X182976190Y-122847619D01*
X182976190Y-122771428D01*
X183023809Y-122695238D01*
X183119047Y-122657142D01*
X183357142Y-122657142D01*
X183452380Y-122619047D01*
X178635714Y-124661904D02*
X178635714Y-123861904D01*
X178873809Y-123861904D01*
X179016666Y-123900000D01*
X179111904Y-123976190D01*
X179159523Y-124052380D01*
X179207142Y-124204761D01*
X179207142Y-124319047D01*
X179159523Y-124471428D01*
X179111904Y-124547619D01*
X179016666Y-124623809D01*
X178873809Y-124661904D01*
X178635714Y-124661904D01*
X179635714Y-124242857D02*
X179969047Y-124242857D01*
X180111904Y-124661904D02*
X179635714Y-124661904D01*
X179635714Y-123861904D01*
X180111904Y-123861904D01*
X181111904Y-124661904D02*
X180778571Y-124280952D01*
X180540476Y-124661904D02*
X180540476Y-123861904D01*
X180921428Y-123861904D01*
X181016666Y-123900000D01*
X181064285Y-123938095D01*
X181111904Y-124014285D01*
X181111904Y-124128571D01*
X181064285Y-124204761D01*
X181016666Y-124242857D01*
X180921428Y-124280952D01*
X180540476Y-124280952D01*
X182111904Y-124585714D02*
X182064285Y-124623809D01*
X181921428Y-124661904D01*
X181826190Y-124661904D01*
X181683333Y-124623809D01*
X181588095Y-124547619D01*
X181540476Y-124471428D01*
X181492857Y-124319047D01*
X181492857Y-124204761D01*
X181540476Y-124052380D01*
X181588095Y-123976190D01*
X181683333Y-123900000D01*
X181826190Y-123861904D01*
X181921428Y-123861904D01*
X182064285Y-123900000D01*
X182111904Y-123938095D01*
D10*
X161188095Y-138045238D02*
X161150000Y-138007142D01*
X161111904Y-137930952D01*
X161111904Y-137740476D01*
X161150000Y-137664285D01*
X161188095Y-137626190D01*
X161264285Y-137588095D01*
X161340476Y-137588095D01*
X161454761Y-137626190D01*
X161911904Y-138083333D01*
X161911904Y-137588095D01*
X161111904Y-136864285D02*
X161111904Y-137245238D01*
X161492857Y-137283333D01*
X161454761Y-137245238D01*
X161416666Y-137169047D01*
X161416666Y-136978571D01*
X161454761Y-136902380D01*
X161492857Y-136864285D01*
X161569047Y-136826190D01*
X161759523Y-136826190D01*
X161835714Y-136864285D01*
X161873809Y-136902380D01*
X161911904Y-136978571D01*
X161911904Y-137169047D01*
X161873809Y-137245238D01*
X161835714Y-137283333D01*
X161835714Y-136483333D02*
X161873809Y-136445238D01*
X161911904Y-136483333D01*
X161873809Y-136521428D01*
X161835714Y-136483333D01*
X161911904Y-136483333D01*
X161111904Y-135950000D02*
X161111904Y-135873809D01*
X161150000Y-135797619D01*
X161188095Y-135759523D01*
X161264285Y-135721428D01*
X161416666Y-135683333D01*
X161607142Y-135683333D01*
X161759523Y-135721428D01*
X161835714Y-135759523D01*
X161873809Y-135797619D01*
X161911904Y-135873809D01*
X161911904Y-135950000D01*
X161873809Y-136026190D01*
X161835714Y-136064285D01*
X161759523Y-136102380D01*
X161607142Y-136140476D01*
X161416666Y-136140476D01*
X161264285Y-136102380D01*
X161188095Y-136064285D01*
X161150000Y-136026190D01*
X161111904Y-135950000D01*
X161111904Y-135188095D02*
X161111904Y-135111904D01*
X161150000Y-135035714D01*
X161188095Y-134997619D01*
X161264285Y-134959523D01*
X161416666Y-134921428D01*
X161607142Y-134921428D01*
X161759523Y-134959523D01*
X161835714Y-134997619D01*
X161873809Y-135035714D01*
X161911904Y-135111904D01*
X161911904Y-135188095D01*
X161873809Y-135264285D01*
X161835714Y-135302380D01*
X161759523Y-135340476D01*
X161607142Y-135378571D01*
X161416666Y-135378571D01*
X161264285Y-135340476D01*
X161188095Y-135302380D01*
X161150000Y-135264285D01*
X161111904Y-135188095D01*
X161111904Y-134426190D02*
X161111904Y-134350000D01*
X161150000Y-134273809D01*
X161188095Y-134235714D01*
X161264285Y-134197619D01*
X161416666Y-134159523D01*
X161607142Y-134159523D01*
X161759523Y-134197619D01*
X161835714Y-134235714D01*
X161873809Y-134273809D01*
X161911904Y-134350000D01*
X161911904Y-134426190D01*
X161873809Y-134502380D01*
X161835714Y-134540476D01*
X161759523Y-134578571D01*
X161607142Y-134616666D01*
X161416666Y-134616666D01*
X161264285Y-134578571D01*
X161188095Y-134540476D01*
X161150000Y-134502380D01*
X161111904Y-134426190D01*
X161111904Y-133664285D02*
X161111904Y-133588095D01*
X161150000Y-133511904D01*
X161188095Y-133473809D01*
X161264285Y-133435714D01*
X161416666Y-133397619D01*
X161607142Y-133397619D01*
X161759523Y-133435714D01*
X161835714Y-133473809D01*
X161873809Y-133511904D01*
X161911904Y-133588095D01*
X161911904Y-133664285D01*
X161873809Y-133740476D01*
X161835714Y-133778571D01*
X161759523Y-133816666D01*
X161607142Y-133854761D01*
X161416666Y-133854761D01*
X161264285Y-133816666D01*
X161188095Y-133778571D01*
X161150000Y-133740476D01*
X161111904Y-133664285D01*
X161911904Y-132445238D02*
X161378571Y-132445238D01*
X161454761Y-132445238D02*
X161416666Y-132407142D01*
X161378571Y-132330952D01*
X161378571Y-132216666D01*
X161416666Y-132140476D01*
X161492857Y-132102380D01*
X161911904Y-132102380D01*
X161492857Y-132102380D02*
X161416666Y-132064285D01*
X161378571Y-131988095D01*
X161378571Y-131873809D01*
X161416666Y-131797619D01*
X161492857Y-131759523D01*
X161911904Y-131759523D01*
X161911904Y-131378571D02*
X161378571Y-131378571D01*
X161454761Y-131378571D02*
X161416666Y-131340476D01*
X161378571Y-131264285D01*
X161378571Y-131150000D01*
X161416666Y-131073809D01*
X161492857Y-131035714D01*
X161911904Y-131035714D01*
X161492857Y-131035714D02*
X161416666Y-130997619D01*
X161378571Y-130921428D01*
X161378571Y-130807142D01*
X161416666Y-130730952D01*
X161492857Y-130692857D01*
X161911904Y-130692857D01*
X163200000Y-146850000D02*
X161913580Y-146850000D01*
X163200000Y-121850000D02*
X161913580Y-121850000D01*
X162500000Y-146850000D02*
X162500000Y-121850000D01*
X162500000Y-146850000D02*
X162500000Y-121850000D01*
X162500000Y-146850000D02*
X163086421Y-145723496D01*
X162500000Y-146850000D02*
X161913579Y-145723496D01*
X162500000Y-121850000D02*
X161913579Y-122976504D01*
X162500000Y-121850000D02*
X163086421Y-122976504D01*
X171111904Y-150461904D02*
X170654761Y-150461904D01*
X170883333Y-150461904D02*
X170883333Y-149661904D01*
X170807142Y-149776190D01*
X170730952Y-149852380D01*
X170654761Y-149890476D01*
X171416666Y-149738095D02*
X171454761Y-149700000D01*
X171530952Y-149661904D01*
X171721428Y-149661904D01*
X171797619Y-149700000D01*
X171835714Y-149738095D01*
X171873809Y-149814285D01*
X171873809Y-149890476D01*
X171835714Y-150004761D01*
X171378571Y-150461904D01*
X171873809Y-150461904D01*
X172216666Y-150385714D02*
X172254761Y-150423809D01*
X172216666Y-150461904D01*
X172178571Y-150423809D01*
X172216666Y-150385714D01*
X172216666Y-150461904D01*
X172978571Y-149661904D02*
X172597619Y-149661904D01*
X172559523Y-150042857D01*
X172597619Y-150004761D01*
X172673809Y-149966666D01*
X172864285Y-149966666D01*
X172940476Y-150004761D01*
X172978571Y-150042857D01*
X173016666Y-150119047D01*
X173016666Y-150309523D01*
X172978571Y-150385714D01*
X172940476Y-150423809D01*
X172864285Y-150461904D01*
X172673809Y-150461904D01*
X172597619Y-150423809D01*
X172559523Y-150385714D01*
X173511904Y-149661904D02*
X173588095Y-149661904D01*
X173664285Y-149700000D01*
X173702380Y-149738095D01*
X173740476Y-149814285D01*
X173778571Y-149966666D01*
X173778571Y-150157142D01*
X173740476Y-150309523D01*
X173702380Y-150385714D01*
X173664285Y-150423809D01*
X173588095Y-150461904D01*
X173511904Y-150461904D01*
X173435714Y-150423809D01*
X173397619Y-150385714D01*
X173359523Y-150309523D01*
X173321428Y-150157142D01*
X173321428Y-149966666D01*
X173359523Y-149814285D01*
X173397619Y-149738095D01*
X173435714Y-149700000D01*
X173511904Y-149661904D01*
X174273809Y-149661904D02*
X174350000Y-149661904D01*
X174426190Y-149700000D01*
X174464285Y-149738095D01*
X174502380Y-149814285D01*
X174540476Y-149966666D01*
X174540476Y-150157142D01*
X174502380Y-150309523D01*
X174464285Y-150385714D01*
X174426190Y-150423809D01*
X174350000Y-150461904D01*
X174273809Y-150461904D01*
X174197619Y-150423809D01*
X174159523Y-150385714D01*
X174121428Y-150309523D01*
X174083333Y-150157142D01*
X174083333Y-149966666D01*
X174121428Y-149814285D01*
X174159523Y-149738095D01*
X174197619Y-149700000D01*
X174273809Y-149661904D01*
X175035714Y-149661904D02*
X175111904Y-149661904D01*
X175188095Y-149700000D01*
X175226190Y-149738095D01*
X175264285Y-149814285D01*
X175302380Y-149966666D01*
X175302380Y-150157142D01*
X175264285Y-150309523D01*
X175226190Y-150385714D01*
X175188095Y-150423809D01*
X175111904Y-150461904D01*
X175035714Y-150461904D01*
X174959523Y-150423809D01*
X174921428Y-150385714D01*
X174883333Y-150309523D01*
X174845238Y-150157142D01*
X174845238Y-149966666D01*
X174883333Y-149814285D01*
X174921428Y-149738095D01*
X174959523Y-149700000D01*
X175035714Y-149661904D01*
X176254761Y-150461904D02*
X176254761Y-149928571D01*
X176254761Y-150004761D02*
X176292857Y-149966666D01*
X176369047Y-149928571D01*
X176483333Y-149928571D01*
X176559523Y-149966666D01*
X176597619Y-150042857D01*
X176597619Y-150461904D01*
X176597619Y-150042857D02*
X176635714Y-149966666D01*
X176711904Y-149928571D01*
X176826190Y-149928571D01*
X176902380Y-149966666D01*
X176940476Y-150042857D01*
X176940476Y-150461904D01*
X177321428Y-150461904D02*
X177321428Y-149928571D01*
X177321428Y-150004761D02*
X177359523Y-149966666D01*
X177435714Y-149928571D01*
X177550000Y-149928571D01*
X177626190Y-149966666D01*
X177664285Y-150042857D01*
X177664285Y-150461904D01*
X177664285Y-150042857D02*
X177702380Y-149966666D01*
X177778571Y-149928571D01*
X177892857Y-149928571D01*
X177969047Y-149966666D01*
X178007142Y-150042857D01*
X178007142Y-150461904D01*
X168100000Y-147350000D02*
X168100000Y-151636420D01*
X180600000Y-147350000D02*
X180600000Y-151636420D01*
X168100000Y-151050000D02*
X180600000Y-151050000D01*
X168100000Y-151050000D02*
X180600000Y-151050000D01*
X168100000Y-151050000D02*
X169226504Y-151636421D01*
X168100000Y-151050000D02*
X169226504Y-150463579D01*
X180600000Y-151050000D02*
X179473496Y-150463579D01*
X180600000Y-151050000D02*
X179473496Y-151636421D01*
X161111906Y-122144997D02*
X161111906Y-122525949D01*
X161492859Y-122564044D01*
X161454763Y-122525949D01*
X161416668Y-122449759D01*
X161416668Y-122259282D01*
X161454763Y-122183092D01*
X161492859Y-122144997D01*
X161569049Y-122106901D01*
X161759525Y-122106901D01*
X161835716Y-122144997D01*
X161873811Y-122183092D01*
X161911906Y-122259282D01*
X161911906Y-122449759D01*
X161873811Y-122525949D01*
X161835716Y-122564044D01*
X161835716Y-121764044D02*
X161873811Y-121725949D01*
X161911906Y-121764044D01*
X161873811Y-121802139D01*
X161835716Y-121764044D01*
X161911906Y-121764044D01*
X161188097Y-121421187D02*
X161150002Y-121383092D01*
X161111906Y-121306901D01*
X161111906Y-121116425D01*
X161150002Y-121040235D01*
X161188097Y-121002139D01*
X161264287Y-120964044D01*
X161340478Y-120964044D01*
X161454763Y-121002139D01*
X161911906Y-121459282D01*
X161911906Y-120964044D01*
X161111906Y-120468806D02*
X161111906Y-120392616D01*
X161150002Y-120316425D01*
X161188097Y-120278330D01*
X161264287Y-120240235D01*
X161416668Y-120202139D01*
X161607144Y-120202139D01*
X161759525Y-120240235D01*
X161835716Y-120278330D01*
X161873811Y-120316425D01*
X161911906Y-120392616D01*
X161911906Y-120468806D01*
X161873811Y-120544997D01*
X161835716Y-120583092D01*
X161759525Y-120621187D01*
X161607144Y-120659282D01*
X161416668Y-120659282D01*
X161264287Y-120621187D01*
X161188097Y-120583092D01*
X161150002Y-120544997D01*
X161111906Y-120468806D01*
X161111906Y-119706901D02*
X161111906Y-119630711D01*
X161150002Y-119554520D01*
X161188097Y-119516425D01*
X161264287Y-119478330D01*
X161416668Y-119440235D01*
X161607144Y-119440235D01*
X161759525Y-119478330D01*
X161835716Y-119516425D01*
X161873811Y-119554520D01*
X161911906Y-119630711D01*
X161911906Y-119706901D01*
X161873811Y-119783092D01*
X161835716Y-119821187D01*
X161759525Y-119859282D01*
X161607144Y-119897378D01*
X161416668Y-119897378D01*
X161264287Y-119859282D01*
X161188097Y-119821187D01*
X161150002Y-119783092D01*
X161111906Y-119706901D01*
X161111906Y-118716425D02*
X161111906Y-119097378D01*
X161492859Y-119135473D01*
X161454763Y-119097378D01*
X161416668Y-119021187D01*
X161416668Y-118830711D01*
X161454763Y-118754520D01*
X161492859Y-118716425D01*
X161569049Y-118678330D01*
X161759525Y-118678330D01*
X161835716Y-118716425D01*
X161873811Y-118754520D01*
X161911906Y-118830711D01*
X161911906Y-119021187D01*
X161873811Y-119097378D01*
X161835716Y-119135473D01*
X161911906Y-117725949D02*
X161378573Y-117725949D01*
X161454763Y-117725949D02*
X161416668Y-117687854D01*
X161378573Y-117611663D01*
X161378573Y-117497378D01*
X161416668Y-117421187D01*
X161492859Y-117383092D01*
X161911906Y-117383092D01*
X161492859Y-117383092D02*
X161416668Y-117344997D01*
X161378573Y-117268806D01*
X161378573Y-117154520D01*
X161416668Y-117078330D01*
X161492859Y-117040235D01*
X161911906Y-117040235D01*
X161911906Y-116659282D02*
X161378573Y-116659282D01*
X161454763Y-116659282D02*
X161416668Y-116621187D01*
X161378573Y-116544997D01*
X161378573Y-116430711D01*
X161416668Y-116354520D01*
X161492859Y-116316425D01*
X161911906Y-116316425D01*
X161492859Y-116316425D02*
X161416668Y-116278330D01*
X161378573Y-116202139D01*
X161378573Y-116087854D01*
X161416668Y-116011663D01*
X161492859Y-115973568D01*
X161911906Y-115973568D01*
X170200001Y-116649520D02*
X161913582Y-116649518D01*
X170200000Y-121850000D02*
X161913581Y-121849998D01*
X162500002Y-116649519D02*
X162500001Y-121849999D01*
X162500002Y-116649519D02*
X162500001Y-121849999D01*
X162500002Y-116649519D02*
X161913581Y-117776023D01*
X162500002Y-116649519D02*
X163086423Y-117776023D01*
X162500001Y-121849999D02*
X163086422Y-120723495D01*
X162500001Y-121849999D02*
X161913580Y-120723495D01*
X189285714Y-151228571D02*
X189285714Y-151761904D01*
X189095238Y-150923809D02*
X188904761Y-151495238D01*
X189400000Y-151495238D01*
X189742857Y-151761904D02*
X189895238Y-151761904D01*
X189971428Y-151723809D01*
X190009523Y-151685714D01*
X190085714Y-151571428D01*
X190123809Y-151419047D01*
X190123809Y-151114285D01*
X190085714Y-151038095D01*
X190047619Y-151000000D01*
X189971428Y-150961904D01*
X189819047Y-150961904D01*
X189742857Y-151000000D01*
X189704761Y-151038095D01*
X189666666Y-151114285D01*
X189666666Y-151304761D01*
X189704761Y-151380952D01*
X189742857Y-151419047D01*
X189819047Y-151457142D01*
X189971428Y-151457142D01*
X190047619Y-151419047D01*
X190085714Y-151380952D01*
X190123809Y-151304761D01*
X190466666Y-151685714D02*
X190504761Y-151723809D01*
X190466666Y-151761904D01*
X190428571Y-151723809D01*
X190466666Y-151685714D01*
X190466666Y-151761904D01*
X191000000Y-150961904D02*
X191076190Y-150961904D01*
X191152380Y-151000000D01*
X191190476Y-151038095D01*
X191228571Y-151114285D01*
X191266666Y-151266666D01*
X191266666Y-151457142D01*
X191228571Y-151609523D01*
X191190476Y-151685714D01*
X191152380Y-151723809D01*
X191076190Y-151761904D01*
X191000000Y-151761904D01*
X190923809Y-151723809D01*
X190885714Y-151685714D01*
X190847619Y-151609523D01*
X190809523Y-151457142D01*
X190809523Y-151266666D01*
X190847619Y-151114285D01*
X190885714Y-151038095D01*
X190923809Y-151000000D01*
X191000000Y-150961904D01*
X191761904Y-150961904D02*
X191838095Y-150961904D01*
X191914285Y-151000000D01*
X191952380Y-151038095D01*
X191990476Y-151114285D01*
X192028571Y-151266666D01*
X192028571Y-151457142D01*
X191990476Y-151609523D01*
X191952380Y-151685714D01*
X191914285Y-151723809D01*
X191838095Y-151761904D01*
X191761904Y-151761904D01*
X191685714Y-151723809D01*
X191647619Y-151685714D01*
X191609523Y-151609523D01*
X191571428Y-151457142D01*
X191571428Y-151266666D01*
X191609523Y-151114285D01*
X191647619Y-151038095D01*
X191685714Y-151000000D01*
X191761904Y-150961904D01*
X192523809Y-150961904D02*
X192600000Y-150961904D01*
X192676190Y-151000000D01*
X192714285Y-151038095D01*
X192752380Y-151114285D01*
X192790476Y-151266666D01*
X192790476Y-151457142D01*
X192752380Y-151609523D01*
X192714285Y-151685714D01*
X192676190Y-151723809D01*
X192600000Y-151761904D01*
X192523809Y-151761904D01*
X192447619Y-151723809D01*
X192409523Y-151685714D01*
X192371428Y-151609523D01*
X192333333Y-151457142D01*
X192333333Y-151266666D01*
X192371428Y-151114285D01*
X192409523Y-151038095D01*
X192447619Y-151000000D01*
X192523809Y-150961904D01*
X193285714Y-150961904D02*
X193361904Y-150961904D01*
X193438095Y-151000000D01*
X193476190Y-151038095D01*
X193514285Y-151114285D01*
X193552380Y-151266666D01*
X193552380Y-151457142D01*
X193514285Y-151609523D01*
X193476190Y-151685714D01*
X193438095Y-151723809D01*
X193361904Y-151761904D01*
X193285714Y-151761904D01*
X193209523Y-151723809D01*
X193171428Y-151685714D01*
X193133333Y-151609523D01*
X193095238Y-151457142D01*
X193095238Y-151266666D01*
X193133333Y-151114285D01*
X193171428Y-151038095D01*
X193209523Y-151000000D01*
X193285714Y-150961904D01*
X194504761Y-151761904D02*
X194504761Y-151228571D01*
X194504761Y-151304761D02*
X194542857Y-151266666D01*
X194619047Y-151228571D01*
X194733333Y-151228571D01*
X194809523Y-151266666D01*
X194847619Y-151342857D01*
X194847619Y-151761904D01*
X194847619Y-151342857D02*
X194885714Y-151266666D01*
X194961904Y-151228571D01*
X195076190Y-151228571D01*
X195152380Y-151266666D01*
X195190476Y-151342857D01*
X195190476Y-151761904D01*
X195571428Y-151761904D02*
X195571428Y-151228571D01*
X195571428Y-151304761D02*
X195609523Y-151266666D01*
X195685714Y-151228571D01*
X195800000Y-151228571D01*
X195876190Y-151266666D01*
X195914285Y-151342857D01*
X195914285Y-151761904D01*
X195914285Y-151342857D02*
X195952380Y-151266666D01*
X196028571Y-151228571D01*
X196142857Y-151228571D01*
X196219047Y-151266666D01*
X196257142Y-151342857D01*
X196257142Y-151761904D01*
X168100000Y-147350000D02*
X168100000Y-152936420D01*
X217100000Y-147350000D02*
X217100000Y-152936420D01*
X168100000Y-152350000D02*
X217100000Y-152350000D01*
X168100000Y-152350000D02*
X217100000Y-152350000D01*
X168100000Y-152350000D02*
X169226504Y-152936421D01*
X168100000Y-152350000D02*
X169226504Y-151763579D01*
X217100000Y-152350000D02*
X215973496Y-151763579D01*
X217100000Y-152350000D02*
X215973496Y-152936421D01*
X168619328Y-113161807D02*
X169152662Y-113161816D01*
X168809790Y-113961810D01*
X169457411Y-113885631D02*
X169495505Y-113923727D01*
X169457409Y-113961822D01*
X169419315Y-113923726D01*
X169457411Y-113885631D01*
X169457409Y-113961822D01*
X169762186Y-113161827D02*
X170295519Y-113161837D01*
X169952647Y-113961831D01*
X170943133Y-113428515D02*
X170943124Y-113961849D01*
X170752662Y-113123750D02*
X170562176Y-113695175D01*
X171057414Y-113695184D01*
X171285995Y-113161855D02*
X171781233Y-113161864D01*
X171514561Y-113466621D01*
X171628847Y-113466623D01*
X171705037Y-113504720D01*
X171743131Y-113542816D01*
X171781225Y-113619007D01*
X171781222Y-113809483D01*
X171743125Y-113885673D01*
X171705029Y-113923767D01*
X171628838Y-113961861D01*
X171400266Y-113961857D01*
X171324077Y-113923760D01*
X171285982Y-113885664D01*
X172543124Y-113961878D02*
X172085981Y-113961869D01*
X172314552Y-113961873D02*
X172314567Y-113161873D01*
X172238374Y-113276158D01*
X172162182Y-113352347D01*
X172085991Y-113390441D01*
X173495504Y-113961895D02*
X173495514Y-113428561D01*
X173495513Y-113504752D02*
X173533609Y-113466657D01*
X173609800Y-113428564D01*
X173724086Y-113428566D01*
X173800275Y-113466662D01*
X173838369Y-113542853D01*
X173838362Y-113961901D01*
X173838369Y-113542853D02*
X173876466Y-113466664D01*
X173952657Y-113428570D01*
X174066943Y-113428572D01*
X174143132Y-113466668D01*
X174181226Y-113542860D01*
X174181219Y-113961907D01*
X174562171Y-113961914D02*
X174562181Y-113428581D01*
X174562179Y-113504771D02*
X174600275Y-113466677D01*
X174676467Y-113428583D01*
X174790752Y-113428585D01*
X174866942Y-113466682D01*
X174905036Y-113542873D01*
X174905028Y-113961920D01*
X174905036Y-113542873D02*
X174943132Y-113466683D01*
X175019324Y-113428589D01*
X175133609Y-113428591D01*
X175209799Y-113466688D01*
X175247893Y-113542879D01*
X175247885Y-113961926D01*
X168100009Y-121350000D02*
X168100144Y-113963473D01*
X175843113Y-121350141D02*
X175843248Y-113963614D01*
X168100133Y-114549893D02*
X175843237Y-114550034D01*
X168100133Y-114549893D02*
X175843237Y-114550034D01*
X168100133Y-114549893D02*
X169226626Y-115136334D01*
X168100133Y-114549893D02*
X169226647Y-113963493D01*
X175843237Y-114550034D02*
X174716744Y-113963593D01*
X175843237Y-114550034D02*
X174716723Y-115136434D01*
X164687318Y-151461799D02*
X164649230Y-151423696D01*
X164611151Y-151347498D01*
X164611189Y-151157022D01*
X164649300Y-151080839D01*
X164687403Y-151042752D01*
X164763601Y-151004672D01*
X164839792Y-151004688D01*
X164954070Y-151042806D01*
X165411120Y-151500042D01*
X165411221Y-151004804D01*
X165335100Y-150661931D02*
X165373203Y-150623844D01*
X165411290Y-150661947D01*
X165373187Y-150700034D01*
X165335100Y-150661931D01*
X165411290Y-150661947D01*
X164611446Y-149899879D02*
X164611368Y-150280831D01*
X164992313Y-150319004D01*
X164954225Y-150280901D01*
X164916146Y-150204703D01*
X164916184Y-150014227D01*
X164954295Y-149938044D01*
X164992398Y-149899957D01*
X165068596Y-149861877D01*
X165259073Y-149861916D01*
X165335255Y-149900027D01*
X165373343Y-149938130D01*
X165411423Y-150014328D01*
X165411384Y-150204804D01*
X165373273Y-150280987D01*
X165335170Y-150319074D01*
X164611555Y-149366546D02*
X164611570Y-149290355D01*
X164649681Y-149214173D01*
X164687784Y-149176085D01*
X164763982Y-149138005D01*
X164916371Y-149099941D01*
X165106847Y-149099980D01*
X165259220Y-149138106D01*
X165335403Y-149176217D01*
X165373490Y-149214320D01*
X165411570Y-149290518D01*
X165411555Y-149366709D01*
X165373444Y-149442892D01*
X165335341Y-149480979D01*
X165259143Y-149519059D01*
X165106754Y-149557123D01*
X164916278Y-149557084D01*
X164763905Y-149518958D01*
X164687722Y-149480847D01*
X164649634Y-149442744D01*
X164611555Y-149366546D01*
X164611710Y-148604641D02*
X164611726Y-148528451D01*
X164649836Y-148452268D01*
X164687939Y-148414180D01*
X164764138Y-148376101D01*
X164916526Y-148338036D01*
X165107003Y-148338075D01*
X165259376Y-148376202D01*
X165335558Y-148414312D01*
X165373646Y-148452415D01*
X165411726Y-148528614D01*
X165411710Y-148604804D01*
X165373599Y-148680987D01*
X165335496Y-148719074D01*
X165259298Y-148757154D01*
X165106909Y-148795218D01*
X164916433Y-148795179D01*
X164764060Y-148757053D01*
X164687877Y-148718942D01*
X164649790Y-148680839D01*
X164611710Y-148604641D01*
X164611912Y-147614165D02*
X164611834Y-147995117D01*
X164992779Y-148033290D01*
X164954691Y-147995187D01*
X164916612Y-147918989D01*
X164916651Y-147728513D01*
X164954761Y-147652330D01*
X164992864Y-147614243D01*
X165069063Y-147576163D01*
X165259539Y-147576202D01*
X165335722Y-147614312D01*
X165373809Y-147652415D01*
X165411889Y-147728614D01*
X165411850Y-147919090D01*
X165373739Y-147995273D01*
X165335636Y-148033360D01*
X165412114Y-146623852D02*
X164878781Y-146623743D01*
X164954971Y-146623759D02*
X164916884Y-146585656D01*
X164878804Y-146509457D01*
X164878827Y-146395172D01*
X164916938Y-146318989D01*
X164993136Y-146280909D01*
X165412184Y-146280995D01*
X164993136Y-146280909D02*
X164916954Y-146242798D01*
X164878874Y-146166600D01*
X164878897Y-146052314D01*
X164917008Y-145976132D01*
X164993206Y-145938052D01*
X165412254Y-145938138D01*
X165412332Y-145557185D02*
X164878998Y-145557076D01*
X164955189Y-145557092D02*
X164917101Y-145518989D01*
X164879022Y-145442791D01*
X164879045Y-145328505D01*
X164917156Y-145252322D01*
X164993354Y-145214243D01*
X165412402Y-145214328D01*
X164993354Y-145214243D02*
X164917171Y-145176132D01*
X164879092Y-145099934D01*
X164879115Y-144985648D01*
X164917226Y-144909465D01*
X164993424Y-144871385D01*
X165412471Y-144871471D01*
X182599468Y-149401417D02*
X165413224Y-149397912D01*
X182599978Y-146900918D02*
X165413734Y-146897413D01*
X165999644Y-149398031D02*
X166000154Y-146897532D01*
X165999644Y-149398031D02*
X166000154Y-146897532D01*
X165999644Y-149398031D02*
X166586294Y-148271647D01*
X165999644Y-149398031D02*
X165413453Y-148271408D01*
X166000154Y-146897532D02*
X165413504Y-148023916D01*
X166000154Y-146897532D02*
X166586345Y-148024155D01*
X180204176Y-149660640D02*
X179823223Y-149660562D01*
X179785051Y-150041507D01*
X179823154Y-150003419D01*
X179899352Y-149965339D01*
X180089828Y-149965378D01*
X180166011Y-150003489D01*
X180204098Y-150041592D01*
X180242178Y-150117790D01*
X180242139Y-150308266D01*
X180204028Y-150384449D01*
X180165925Y-150422537D01*
X180089727Y-150460616D01*
X179899251Y-150460577D01*
X179823068Y-150422467D01*
X179784981Y-150384364D01*
X180584981Y-150384527D02*
X180623068Y-150422630D01*
X180584965Y-150460717D01*
X180546878Y-150422614D01*
X180584981Y-150384527D01*
X180584965Y-150460717D01*
X181118462Y-149660826D02*
X181194652Y-149660842D01*
X181270835Y-149698952D01*
X181308922Y-149737055D01*
X181347002Y-149813254D01*
X181385066Y-149965642D01*
X181385027Y-150156119D01*
X181346901Y-150308492D01*
X181308790Y-150384675D01*
X181270687Y-150422762D01*
X181194489Y-150460842D01*
X181118298Y-150460826D01*
X181042116Y-150422715D01*
X181004028Y-150384612D01*
X180965948Y-150308414D01*
X180927884Y-150156025D01*
X180927923Y-149965549D01*
X180966049Y-149813176D01*
X181004160Y-149736993D01*
X181042263Y-149698906D01*
X181118462Y-149660826D01*
X181880366Y-149660982D02*
X181956557Y-149660997D01*
X182032739Y-149699108D01*
X182070827Y-149737211D01*
X182108907Y-149813409D01*
X182146971Y-149965798D01*
X182146932Y-150156274D01*
X182108806Y-150308647D01*
X182070695Y-150384830D01*
X182032592Y-150422917D01*
X181956394Y-150460997D01*
X181880203Y-150460982D01*
X181804020Y-150422871D01*
X181765933Y-150384768D01*
X181727853Y-150308570D01*
X181689789Y-150156181D01*
X181689828Y-149965705D01*
X181727954Y-149813331D01*
X181766065Y-149737149D01*
X181804168Y-149699061D01*
X181880366Y-149660982D01*
X182642271Y-149661137D02*
X182718461Y-149661153D01*
X182794644Y-149699263D01*
X182832732Y-149737366D01*
X182870811Y-149813565D01*
X182908876Y-149965953D01*
X182908837Y-150156429D01*
X182870710Y-150308803D01*
X182832600Y-150384985D01*
X182794497Y-150423073D01*
X182718298Y-150461153D01*
X182642108Y-150461137D01*
X182565925Y-150423026D01*
X182527838Y-150384923D01*
X182489758Y-150308725D01*
X182451694Y-150156336D01*
X182451733Y-149965860D01*
X182489859Y-149813487D01*
X182527970Y-149737304D01*
X182566073Y-149699217D01*
X182642271Y-149661137D01*
X183404176Y-149661292D02*
X183480366Y-149661308D01*
X183556549Y-149699419D01*
X183594636Y-149737522D01*
X183632716Y-149813720D01*
X183670780Y-149966109D01*
X183670741Y-150156585D01*
X183632615Y-150308958D01*
X183594504Y-150385141D01*
X183556401Y-150423228D01*
X183480203Y-150461308D01*
X183404013Y-150461292D01*
X183327830Y-150423182D01*
X183289742Y-150385079D01*
X183251663Y-150308880D01*
X183213599Y-150156492D01*
X183213637Y-149966015D01*
X183251764Y-149813642D01*
X183289875Y-149737460D01*
X183327978Y-149699372D01*
X183404176Y-149661292D01*
X184623060Y-150461541D02*
X184623169Y-149928208D01*
X184623153Y-150004398D02*
X184661256Y-149966311D01*
X184737455Y-149928231D01*
X184851740Y-149928254D01*
X184927923Y-149966365D01*
X184966003Y-150042563D01*
X184965917Y-150461611D01*
X184966003Y-150042563D02*
X185004114Y-149966381D01*
X185080312Y-149928301D01*
X185194598Y-149928324D01*
X185270780Y-149966435D01*
X185308860Y-150042633D01*
X185308774Y-150461681D01*
X185689727Y-150461759D02*
X185689836Y-149928425D01*
X185689820Y-150004616D02*
X185727923Y-149966528D01*
X185804121Y-149928449D01*
X185918407Y-149928472D01*
X185994590Y-149966583D01*
X186032669Y-150042781D01*
X186032584Y-150461829D01*
X186032669Y-150042781D02*
X186070780Y-149966598D01*
X186146978Y-149928519D01*
X186261264Y-149928542D01*
X186337447Y-149966653D01*
X186375527Y-150042851D01*
X186375441Y-150461899D01*
X180599898Y-147350000D02*
X180599024Y-151635236D01*
X185599875Y-147351020D02*
X185599001Y-151636256D01*
X180599143Y-151048816D02*
X185599120Y-151049836D01*
X180599143Y-151048816D02*
X185599120Y-151049836D01*
X180599143Y-151048816D02*
X181725527Y-151635467D01*
X180599143Y-151048816D02*
X181725766Y-150462625D01*
X185599120Y-151049836D02*
X184472736Y-150463185D01*
X185599120Y-151049836D02*
X184472497Y-151636027D01*
%TO.C,Y1*%
X190780952Y-134130952D02*
X191161904Y-134130952D01*
X190361904Y-134397619D02*
X190780952Y-134130952D01*
X190361904Y-133864285D01*
X191161904Y-133178571D02*
X191161904Y-133635714D01*
X191161904Y-133407142D02*
X190361904Y-133407142D01*
X190476190Y-133483333D01*
X190552380Y-133559523D01*
X190590476Y-133635714D01*
%TO.C,R15*%
X210616666Y-128838095D02*
X210654761Y-128800000D01*
X210730952Y-128761904D01*
X210921428Y-128761904D01*
X210997619Y-128800000D01*
X211035714Y-128838095D01*
X211073809Y-128914285D01*
X211073809Y-128990476D01*
X211035714Y-129104761D01*
X210578571Y-129561904D01*
X211073809Y-129561904D01*
X211416666Y-129561904D02*
X211416666Y-128761904D01*
X211492857Y-129257142D02*
X211721428Y-129561904D01*
X211721428Y-129028571D02*
X211416666Y-129333333D01*
X212026190Y-128838095D02*
X212064285Y-128800000D01*
X212140476Y-128761904D01*
X212330952Y-128761904D01*
X212407142Y-128800000D01*
X212445238Y-128838095D01*
X212483333Y-128914285D01*
X212483333Y-128990476D01*
X212445238Y-129104761D01*
X211988095Y-129561904D01*
X212483333Y-129561904D01*
%TO.C,Y2*%
X186419047Y-123580952D02*
X186419047Y-123961904D01*
X186152380Y-123161904D02*
X186419047Y-123580952D01*
X186685714Y-123161904D01*
X186914285Y-123238095D02*
X186952380Y-123200000D01*
X187028571Y-123161904D01*
X187219047Y-123161904D01*
X187295238Y-123200000D01*
X187333333Y-123238095D01*
X187371428Y-123314285D01*
X187371428Y-123390476D01*
X187333333Y-123504761D01*
X186876190Y-123961904D01*
X187371428Y-123961904D01*
%TO.C,C34*%
X220413095Y-122670948D02*
X220375000Y-122632853D01*
X220336904Y-122556662D01*
X220336904Y-122366186D01*
X220375000Y-122289996D01*
X220413095Y-122251900D01*
X220489285Y-122213805D01*
X220565476Y-122213805D01*
X220679761Y-122251900D01*
X221136904Y-122709043D01*
X221136904Y-122213805D01*
X220413095Y-121909043D02*
X220375000Y-121870948D01*
X220336904Y-121794758D01*
X220336904Y-121604281D01*
X220375000Y-121528091D01*
X220413095Y-121489996D01*
X220489285Y-121451900D01*
X220565476Y-121451900D01*
X220679761Y-121489996D01*
X221136904Y-121947139D01*
X221136904Y-121451900D01*
X220603571Y-120766186D02*
X221136904Y-120766186D01*
X220603571Y-121109043D02*
X221022619Y-121109043D01*
X221098809Y-121070948D01*
X221136904Y-120994758D01*
X221136904Y-120880472D01*
X221098809Y-120804281D01*
X221060714Y-120766186D01*
%TO.C,R14*%
X182961904Y-127476190D02*
X182961904Y-127933333D01*
X182961904Y-127704761D02*
X182161904Y-127704761D01*
X182276190Y-127780952D01*
X182352380Y-127857142D01*
X182390476Y-127933333D01*
X182161904Y-126980952D02*
X182161904Y-126904761D01*
X182200000Y-126828571D01*
X182238095Y-126790476D01*
X182314285Y-126752380D01*
X182466666Y-126714285D01*
X182657142Y-126714285D01*
X182809523Y-126752380D01*
X182885714Y-126790476D01*
X182923809Y-126828571D01*
X182961904Y-126904761D01*
X182961904Y-126980952D01*
X182923809Y-127057142D01*
X182885714Y-127095238D01*
X182809523Y-127133333D01*
X182657142Y-127171428D01*
X182466666Y-127171428D01*
X182314285Y-127133333D01*
X182238095Y-127095238D01*
X182200000Y-127057142D01*
X182161904Y-126980952D01*
X182961904Y-126371428D02*
X182161904Y-126371428D01*
X182657142Y-126295238D02*
X182961904Y-126066666D01*
X182428571Y-126066666D02*
X182733333Y-126371428D01*
%TO.C,J2*%
X175266666Y-120952380D02*
X175266666Y-121666666D01*
X175219047Y-121809523D01*
X175123809Y-121904761D01*
X174980952Y-121952380D01*
X174885714Y-121952380D01*
X175695238Y-121047619D02*
X175742857Y-121000000D01*
X175838095Y-120952380D01*
X176076190Y-120952380D01*
X176171428Y-121000000D01*
X176219047Y-121047619D01*
X176266666Y-121142857D01*
X176266666Y-121238095D01*
X176219047Y-121380952D01*
X175647619Y-121952380D01*
X176266666Y-121952380D01*
%TO.C,R26*%
X225823809Y-142501904D02*
X225366666Y-142501904D01*
X225595238Y-142501904D02*
X225595238Y-141701904D01*
X225519047Y-141816190D01*
X225442857Y-141892380D01*
X225366666Y-141930476D01*
X226319047Y-141701904D02*
X226395238Y-141701904D01*
X226471428Y-141740000D01*
X226509523Y-141778095D01*
X226547619Y-141854285D01*
X226585714Y-142006666D01*
X226585714Y-142197142D01*
X226547619Y-142349523D01*
X226509523Y-142425714D01*
X226471428Y-142463809D01*
X226395238Y-142501904D01*
X226319047Y-142501904D01*
X226242857Y-142463809D01*
X226204761Y-142425714D01*
X226166666Y-142349523D01*
X226128571Y-142197142D01*
X226128571Y-142006666D01*
X226166666Y-141854285D01*
X226204761Y-141778095D01*
X226242857Y-141740000D01*
X226319047Y-141701904D01*
X226928571Y-142501904D02*
X226928571Y-141701904D01*
X227004761Y-142197142D02*
X227233333Y-142501904D01*
X227233333Y-141968571D02*
X226928571Y-142273333D01*
D11*
%TO.C,Q2*%
X176223809Y-138088095D02*
X176147619Y-138050000D01*
X176071428Y-137973809D01*
X175957142Y-137859523D01*
X175880952Y-137821428D01*
X175804761Y-137821428D01*
X175842857Y-138011904D02*
X175766666Y-137973809D01*
X175690476Y-137897619D01*
X175652380Y-137745238D01*
X175652380Y-137478571D01*
X175690476Y-137326190D01*
X175766666Y-137250000D01*
X175842857Y-137211904D01*
X175995238Y-137211904D01*
X176071428Y-137250000D01*
X176147619Y-137326190D01*
X176185714Y-137478571D01*
X176185714Y-137745238D01*
X176147619Y-137897619D01*
X176071428Y-137973809D01*
X175995238Y-138011904D01*
X175842857Y-138011904D01*
X176490476Y-137288095D02*
X176528571Y-137250000D01*
X176604761Y-137211904D01*
X176795238Y-137211904D01*
X176871428Y-137250000D01*
X176909523Y-137288095D01*
X176947619Y-137364285D01*
X176947619Y-137440476D01*
X176909523Y-137554761D01*
X176452380Y-138011904D01*
X176947619Y-138011904D01*
D10*
%TO.C,C13*%
X206235714Y-132592857D02*
X206273809Y-132554761D01*
X206311904Y-132592857D01*
X206273809Y-132630952D01*
X206235714Y-132592857D01*
X206311904Y-132592857D01*
X206311904Y-131792857D02*
X206311904Y-132250000D01*
X206311904Y-132021428D02*
X205511904Y-132021428D01*
X205626190Y-132097619D01*
X205702380Y-132173809D01*
X205740476Y-132250000D01*
X205778571Y-131107142D02*
X206311904Y-131107142D01*
X205778571Y-131450000D02*
X206197619Y-131450000D01*
X206273809Y-131411904D01*
X206311904Y-131335714D01*
X206311904Y-131221428D01*
X206273809Y-131145238D01*
X206235714Y-131107142D01*
%TO.C,C28*%
X247241334Y-143651451D02*
X247279429Y-143613355D01*
X247317524Y-143651451D01*
X247279429Y-143689546D01*
X247241334Y-143651451D01*
X247317524Y-143651451D01*
X247317524Y-142851451D02*
X247317524Y-143308594D01*
X247317524Y-143080022D02*
X246517524Y-143080022D01*
X246631810Y-143156213D01*
X246708000Y-143232403D01*
X246746096Y-143308594D01*
X246784191Y-142165736D02*
X247317524Y-142165736D01*
X246784191Y-142508594D02*
X247203239Y-142508594D01*
X247279429Y-142470498D01*
X247317524Y-142394308D01*
X247317524Y-142280022D01*
X247279429Y-142203832D01*
X247241334Y-142165736D01*
%TO.C,C11*%
X200407142Y-143585714D02*
X200445238Y-143623809D01*
X200407142Y-143661904D01*
X200369047Y-143623809D01*
X200407142Y-143585714D01*
X200407142Y-143661904D01*
X201207142Y-143661904D02*
X200750000Y-143661904D01*
X200978571Y-143661904D02*
X200978571Y-142861904D01*
X200902380Y-142976190D01*
X200826190Y-143052380D01*
X200750000Y-143090476D01*
X201892857Y-143128571D02*
X201892857Y-143661904D01*
X201550000Y-143128571D02*
X201550000Y-143547619D01*
X201588095Y-143623809D01*
X201664285Y-143661904D01*
X201778571Y-143661904D01*
X201854761Y-143623809D01*
X201892857Y-143585714D01*
%TO.C,C20*%
X247209483Y-125116626D02*
X247247578Y-125078530D01*
X247285673Y-125116626D01*
X247247578Y-125154721D01*
X247209483Y-125116626D01*
X247285673Y-125116626D01*
X247285673Y-124316626D02*
X247285673Y-124773769D01*
X247285673Y-124545197D02*
X246485673Y-124545197D01*
X246599959Y-124621388D01*
X246676149Y-124697578D01*
X246714245Y-124773769D01*
X246752340Y-123630911D02*
X247285673Y-123630911D01*
X246752340Y-123973769D02*
X247171388Y-123973769D01*
X247247578Y-123935673D01*
X247285673Y-123859483D01*
X247285673Y-123745197D01*
X247247578Y-123669007D01*
X247209483Y-123630911D01*
%TO.C,C14*%
X187607142Y-132785714D02*
X187645238Y-132823809D01*
X187607142Y-132861904D01*
X187569047Y-132823809D01*
X187607142Y-132785714D01*
X187607142Y-132861904D01*
X188407142Y-132861904D02*
X187950000Y-132861904D01*
X188178571Y-132861904D02*
X188178571Y-132061904D01*
X188102380Y-132176190D01*
X188026190Y-132252380D01*
X187950000Y-132290476D01*
X189092857Y-132328571D02*
X189092857Y-132861904D01*
X188750000Y-132328571D02*
X188750000Y-132747619D01*
X188788095Y-132823809D01*
X188864285Y-132861904D01*
X188978571Y-132861904D01*
X189054761Y-132823809D01*
X189092857Y-132785714D01*
%TO.C,R13*%
X171642857Y-137811904D02*
X171185714Y-137811904D01*
X171414285Y-137811904D02*
X171414285Y-137011904D01*
X171338095Y-137126190D01*
X171261904Y-137202380D01*
X171185714Y-137240476D01*
X172138095Y-137011904D02*
X172214285Y-137011904D01*
X172290476Y-137050000D01*
X172328571Y-137088095D01*
X172366666Y-137164285D01*
X172404761Y-137316666D01*
X172404761Y-137507142D01*
X172366666Y-137659523D01*
X172328571Y-137735714D01*
X172290476Y-137773809D01*
X172214285Y-137811904D01*
X172138095Y-137811904D01*
X172061904Y-137773809D01*
X172023809Y-137735714D01*
X171985714Y-137659523D01*
X171947619Y-137507142D01*
X171947619Y-137316666D01*
X171985714Y-137164285D01*
X172023809Y-137088095D01*
X172061904Y-137050000D01*
X172138095Y-137011904D01*
X172900000Y-137011904D02*
X172976190Y-137011904D01*
X173052380Y-137050000D01*
X173090476Y-137088095D01*
X173128571Y-137164285D01*
X173166666Y-137316666D01*
X173166666Y-137507142D01*
X173128571Y-137659523D01*
X173090476Y-137735714D01*
X173052380Y-137773809D01*
X172976190Y-137811904D01*
X172900000Y-137811904D01*
X172823809Y-137773809D01*
X172785714Y-137735714D01*
X172747619Y-137659523D01*
X172709523Y-137507142D01*
X172709523Y-137316666D01*
X172747619Y-137164285D01*
X172785714Y-137088095D01*
X172823809Y-137050000D01*
X172900000Y-137011904D01*
X173509523Y-137811904D02*
X173509523Y-137011904D01*
X173585714Y-137507142D02*
X173814285Y-137811904D01*
X173814285Y-137278571D02*
X173509523Y-137583333D01*
%TO.C,F1*%
X182083333Y-136842857D02*
X181816666Y-136842857D01*
X181816666Y-137261904D02*
X181816666Y-136461904D01*
X182197619Y-136461904D01*
X182921428Y-137261904D02*
X182464285Y-137261904D01*
X182692857Y-137261904D02*
X182692857Y-136461904D01*
X182616666Y-136576190D01*
X182540476Y-136652380D01*
X182464285Y-136690476D01*
D13*
%TO.C,S2*%
X182088095Y-144654761D02*
X182230952Y-144702380D01*
X182469047Y-144702380D01*
X182564285Y-144654761D01*
X182611904Y-144607142D01*
X182659523Y-144511904D01*
X182659523Y-144416666D01*
X182611904Y-144321428D01*
X182564285Y-144273809D01*
X182469047Y-144226190D01*
X182278571Y-144178571D01*
X182183333Y-144130952D01*
X182135714Y-144083333D01*
X182088095Y-143988095D01*
X182088095Y-143892857D01*
X182135714Y-143797619D01*
X182183333Y-143750000D01*
X182278571Y-143702380D01*
X182516666Y-143702380D01*
X182659523Y-143750000D01*
X183040476Y-143797619D02*
X183088095Y-143750000D01*
X183183333Y-143702380D01*
X183421428Y-143702380D01*
X183516666Y-143750000D01*
X183564285Y-143797619D01*
X183611904Y-143892857D01*
X183611904Y-143988095D01*
X183564285Y-144130952D01*
X182992857Y-144702380D01*
X183611904Y-144702380D01*
D10*
%TO.C,R28*%
X244947578Y-132015673D02*
X244490435Y-132015673D01*
X244719007Y-132015673D02*
X244719007Y-131215673D01*
X244642816Y-131329959D01*
X244566626Y-131406149D01*
X244490435Y-131444245D01*
X245442816Y-131215673D02*
X245519007Y-131215673D01*
X245595197Y-131253769D01*
X245633292Y-131291864D01*
X245671388Y-131368054D01*
X245709483Y-131520435D01*
X245709483Y-131710911D01*
X245671388Y-131863292D01*
X245633292Y-131939483D01*
X245595197Y-131977578D01*
X245519007Y-132015673D01*
X245442816Y-132015673D01*
X245366626Y-131977578D01*
X245328530Y-131939483D01*
X245290435Y-131863292D01*
X245252340Y-131710911D01*
X245252340Y-131520435D01*
X245290435Y-131368054D01*
X245328530Y-131291864D01*
X245366626Y-131253769D01*
X245442816Y-131215673D01*
X246052340Y-132015673D02*
X246052340Y-131215673D01*
X246128530Y-131710911D02*
X246357102Y-132015673D01*
X246357102Y-131482340D02*
X246052340Y-131787102D01*
%TO.C,C17*%
X191935714Y-124342857D02*
X191973809Y-124304761D01*
X192011904Y-124342857D01*
X191973809Y-124380952D01*
X191935714Y-124342857D01*
X192011904Y-124342857D01*
X192011904Y-123542857D02*
X192011904Y-124000000D01*
X192011904Y-123771428D02*
X191211904Y-123771428D01*
X191326190Y-123847619D01*
X191402380Y-123923809D01*
X191440476Y-124000000D01*
X191478571Y-122857142D02*
X192011904Y-122857142D01*
X191478571Y-123200000D02*
X191897619Y-123200000D01*
X191973809Y-123161904D01*
X192011904Y-123085714D01*
X192011904Y-122971428D01*
X191973809Y-122895238D01*
X191935714Y-122857142D01*
%TO.C,R25*%
X244947578Y-121815673D02*
X244490435Y-121815673D01*
X244719007Y-121815673D02*
X244719007Y-121015673D01*
X244642816Y-121129959D01*
X244566626Y-121206149D01*
X244490435Y-121244245D01*
X245442816Y-121015673D02*
X245519007Y-121015673D01*
X245595197Y-121053769D01*
X245633292Y-121091864D01*
X245671388Y-121168054D01*
X245709483Y-121320435D01*
X245709483Y-121510911D01*
X245671388Y-121663292D01*
X245633292Y-121739483D01*
X245595197Y-121777578D01*
X245519007Y-121815673D01*
X245442816Y-121815673D01*
X245366626Y-121777578D01*
X245328530Y-121739483D01*
X245290435Y-121663292D01*
X245252340Y-121510911D01*
X245252340Y-121320435D01*
X245290435Y-121168054D01*
X245328530Y-121091864D01*
X245366626Y-121053769D01*
X245442816Y-121015673D01*
X246052340Y-121815673D02*
X246052340Y-121015673D01*
X246128530Y-121510911D02*
X246357102Y-121815673D01*
X246357102Y-121282340D02*
X246052340Y-121587102D01*
%TO.C,R24*%
X228558809Y-128061424D02*
X228101666Y-128061424D01*
X228330238Y-128061424D02*
X228330238Y-127261424D01*
X228254047Y-127375710D01*
X228177857Y-127451900D01*
X228101666Y-127489996D01*
X229054047Y-127261424D02*
X229130238Y-127261424D01*
X229206428Y-127299520D01*
X229244523Y-127337615D01*
X229282619Y-127413805D01*
X229320714Y-127566186D01*
X229320714Y-127756662D01*
X229282619Y-127909043D01*
X229244523Y-127985234D01*
X229206428Y-128023329D01*
X229130238Y-128061424D01*
X229054047Y-128061424D01*
X228977857Y-128023329D01*
X228939761Y-127985234D01*
X228901666Y-127909043D01*
X228863571Y-127756662D01*
X228863571Y-127566186D01*
X228901666Y-127413805D01*
X228939761Y-127337615D01*
X228977857Y-127299520D01*
X229054047Y-127261424D01*
X229663571Y-128061424D02*
X229663571Y-127261424D01*
X229739761Y-127756662D02*
X229968333Y-128061424D01*
X229968333Y-127528091D02*
X229663571Y-127832853D01*
%TO.C,C9*%
X201016666Y-141411904D02*
X200559523Y-141411904D01*
X200788095Y-141411904D02*
X200788095Y-140611904D01*
X200711904Y-140726190D01*
X200635714Y-140802380D01*
X200559523Y-140840476D01*
X201702380Y-140878571D02*
X201702380Y-141411904D01*
X201359523Y-140878571D02*
X201359523Y-141297619D01*
X201397619Y-141373809D01*
X201473809Y-141411904D01*
X201588095Y-141411904D01*
X201664285Y-141373809D01*
X201702380Y-141335714D01*
%TO.C,R9*%
X191104761Y-142261904D02*
X190647619Y-142261904D01*
X190876190Y-142261904D02*
X190876190Y-141461904D01*
X190800000Y-141576190D01*
X190723809Y-141652380D01*
X190647619Y-141690476D01*
X191447619Y-142261904D02*
X191447619Y-141461904D01*
X191523809Y-141957142D02*
X191752380Y-142261904D01*
X191752380Y-141728571D02*
X191447619Y-142033333D01*
%TO.C,C16*%
X182278571Y-140788095D02*
X182316666Y-140750000D01*
X182392857Y-140711904D01*
X182583333Y-140711904D01*
X182659523Y-140750000D01*
X182697619Y-140788095D01*
X182735714Y-140864285D01*
X182735714Y-140940476D01*
X182697619Y-141054761D01*
X182240476Y-141511904D01*
X182735714Y-141511904D01*
X183040476Y-140788095D02*
X183078571Y-140750000D01*
X183154761Y-140711904D01*
X183345238Y-140711904D01*
X183421428Y-140750000D01*
X183459523Y-140788095D01*
X183497619Y-140864285D01*
X183497619Y-140940476D01*
X183459523Y-141054761D01*
X183002380Y-141511904D01*
X183497619Y-141511904D01*
X184183333Y-140978571D02*
X184183333Y-141511904D01*
X183840476Y-140978571D02*
X183840476Y-141397619D01*
X183878571Y-141473809D01*
X183954761Y-141511904D01*
X184069047Y-141511904D01*
X184145238Y-141473809D01*
X184183333Y-141435714D01*
%TO.C,R11*%
X195166666Y-128888095D02*
X195204761Y-128850000D01*
X195280952Y-128811904D01*
X195471428Y-128811904D01*
X195547619Y-128850000D01*
X195585714Y-128888095D01*
X195623809Y-128964285D01*
X195623809Y-129040476D01*
X195585714Y-129154761D01*
X195128571Y-129611904D01*
X195623809Y-129611904D01*
X195966666Y-129611904D02*
X195966666Y-128811904D01*
X196042857Y-129307142D02*
X196271428Y-129611904D01*
X196271428Y-129078571D02*
X195966666Y-129383333D01*
X196576190Y-128888095D02*
X196614285Y-128850000D01*
X196690476Y-128811904D01*
X196880952Y-128811904D01*
X196957142Y-128850000D01*
X196995238Y-128888095D01*
X197033333Y-128964285D01*
X197033333Y-129040476D01*
X196995238Y-129154761D01*
X196538095Y-129611904D01*
X197033333Y-129611904D01*
%TO.C,R19*%
X173723809Y-128761904D02*
X173266666Y-128761904D01*
X173495238Y-128761904D02*
X173495238Y-127961904D01*
X173419047Y-128076190D01*
X173342857Y-128152380D01*
X173266666Y-128190476D01*
X174219047Y-127961904D02*
X174295238Y-127961904D01*
X174371428Y-128000000D01*
X174409523Y-128038095D01*
X174447619Y-128114285D01*
X174485714Y-128266666D01*
X174485714Y-128457142D01*
X174447619Y-128609523D01*
X174409523Y-128685714D01*
X174371428Y-128723809D01*
X174295238Y-128761904D01*
X174219047Y-128761904D01*
X174142857Y-128723809D01*
X174104761Y-128685714D01*
X174066666Y-128609523D01*
X174028571Y-128457142D01*
X174028571Y-128266666D01*
X174066666Y-128114285D01*
X174104761Y-128038095D01*
X174142857Y-128000000D01*
X174219047Y-127961904D01*
X174828571Y-128761904D02*
X174828571Y-127961904D01*
X174904761Y-128457142D02*
X175133333Y-128761904D01*
X175133333Y-128228571D02*
X174828571Y-128533333D01*
%TO.C,H3*%
X169938095Y-116452380D02*
X169938095Y-115452380D01*
X169938095Y-115928571D02*
X170509523Y-115928571D01*
X170509523Y-116452380D02*
X170509523Y-115452380D01*
X170890476Y-115452380D02*
X171509523Y-115452380D01*
X171176190Y-115833333D01*
X171319047Y-115833333D01*
X171414285Y-115880952D01*
X171461904Y-115928571D01*
X171509523Y-116023809D01*
X171509523Y-116261904D01*
X171461904Y-116357142D01*
X171414285Y-116404761D01*
X171319047Y-116452380D01*
X171033333Y-116452380D01*
X170938095Y-116404761D01*
X170890476Y-116357142D01*
%TO.C,C22*%
X183685714Y-131892857D02*
X183723809Y-131854761D01*
X183761904Y-131892857D01*
X183723809Y-131930952D01*
X183685714Y-131892857D01*
X183761904Y-131892857D01*
X183761904Y-131092857D02*
X183761904Y-131550000D01*
X183761904Y-131321428D02*
X182961904Y-131321428D01*
X183076190Y-131397619D01*
X183152380Y-131473809D01*
X183190476Y-131550000D01*
X183228571Y-130407142D02*
X183761904Y-130407142D01*
X183228571Y-130750000D02*
X183647619Y-130750000D01*
X183723809Y-130711904D01*
X183761904Y-130635714D01*
X183761904Y-130521428D01*
X183723809Y-130445238D01*
X183685714Y-130407142D01*
%TO.C,D2*%
X175711904Y-145564285D02*
X175711904Y-145945238D01*
X174911904Y-145945238D01*
X175292857Y-145297619D02*
X175292857Y-145030952D01*
X175711904Y-144916666D02*
X175711904Y-145297619D01*
X174911904Y-145297619D01*
X174911904Y-144916666D01*
X175711904Y-144573809D02*
X174911904Y-144573809D01*
X174911904Y-144383333D01*
X174950000Y-144269047D01*
X175026190Y-144192857D01*
X175102380Y-144154761D01*
X175254761Y-144116666D01*
X175369047Y-144116666D01*
X175521428Y-144154761D01*
X175597619Y-144192857D01*
X175673809Y-144269047D01*
X175711904Y-144383333D01*
X175711904Y-144573809D01*
%TO.C,R2*%
X205461904Y-140345238D02*
X205461904Y-140802380D01*
X205461904Y-140573809D02*
X204661904Y-140573809D01*
X204776190Y-140650000D01*
X204852380Y-140726190D01*
X204890476Y-140802380D01*
X205461904Y-140002380D02*
X204661904Y-140002380D01*
X205157142Y-139926190D02*
X205461904Y-139697619D01*
X204928571Y-139697619D02*
X205233333Y-140002380D01*
%TO.C,C10*%
X205516666Y-136461904D02*
X205059523Y-136461904D01*
X205288095Y-136461904D02*
X205288095Y-135661904D01*
X205211904Y-135776190D01*
X205135714Y-135852380D01*
X205059523Y-135890476D01*
X206202380Y-135928571D02*
X206202380Y-136461904D01*
X205859523Y-135928571D02*
X205859523Y-136347619D01*
X205897619Y-136423809D01*
X205973809Y-136461904D01*
X206088095Y-136461904D01*
X206164285Y-136423809D01*
X206202380Y-136385714D01*
%TO.C,C5*%
X208935714Y-128292857D02*
X208973809Y-128254761D01*
X209011904Y-128292857D01*
X208973809Y-128330952D01*
X208935714Y-128292857D01*
X209011904Y-128292857D01*
X209011904Y-127492857D02*
X209011904Y-127950000D01*
X209011904Y-127721428D02*
X208211904Y-127721428D01*
X208326190Y-127797619D01*
X208402380Y-127873809D01*
X208440476Y-127950000D01*
X208478571Y-126807142D02*
X209011904Y-126807142D01*
X208478571Y-127150000D02*
X208897619Y-127150000D01*
X208973809Y-127111904D01*
X209011904Y-127035714D01*
X209011904Y-126921428D01*
X208973809Y-126845238D01*
X208935714Y-126807142D01*
%TO.C,R17*%
X172938095Y-135285714D02*
X172976190Y-135323809D01*
X172938095Y-135361904D01*
X172900000Y-135323809D01*
X172938095Y-135285714D01*
X172938095Y-135361904D01*
X173471428Y-134561904D02*
X173547619Y-134561904D01*
X173623809Y-134600000D01*
X173661904Y-134638095D01*
X173700000Y-134714285D01*
X173738095Y-134866666D01*
X173738095Y-135057142D01*
X173700000Y-135209523D01*
X173661904Y-135285714D01*
X173623809Y-135323809D01*
X173547619Y-135361904D01*
X173471428Y-135361904D01*
X173395238Y-135323809D01*
X173357142Y-135285714D01*
X173319047Y-135209523D01*
X173280952Y-135057142D01*
X173280952Y-134866666D01*
X173319047Y-134714285D01*
X173357142Y-134638095D01*
X173395238Y-134600000D01*
X173471428Y-134561904D01*
X174500000Y-135361904D02*
X174042857Y-135361904D01*
X174271428Y-135361904D02*
X174271428Y-134561904D01*
X174195238Y-134676190D01*
X174119047Y-134752380D01*
X174042857Y-134790476D01*
D11*
%TO.C,Q3*%
X171838095Y-133726190D02*
X171800000Y-133802380D01*
X171723809Y-133878571D01*
X171609523Y-133992857D01*
X171571428Y-134069047D01*
X171571428Y-134145238D01*
X171761904Y-134107142D02*
X171723809Y-134183333D01*
X171647619Y-134259523D01*
X171495238Y-134297619D01*
X171228571Y-134297619D01*
X171076190Y-134259523D01*
X171000000Y-134183333D01*
X170961904Y-134107142D01*
X170961904Y-133954761D01*
X171000000Y-133878571D01*
X171076190Y-133802380D01*
X171228571Y-133764285D01*
X171495238Y-133764285D01*
X171647619Y-133802380D01*
X171723809Y-133878571D01*
X171761904Y-133954761D01*
X171761904Y-134107142D01*
X170961904Y-133497619D02*
X170961904Y-133002380D01*
X171266666Y-133269047D01*
X171266666Y-133154761D01*
X171304761Y-133078571D01*
X171342857Y-133040476D01*
X171419047Y-133002380D01*
X171609523Y-133002380D01*
X171685714Y-133040476D01*
X171723809Y-133078571D01*
X171761904Y-133154761D01*
X171761904Y-133383333D01*
X171723809Y-133459523D01*
X171685714Y-133497619D01*
%TO.C,Q4*%
X176688095Y-128976190D02*
X176650000Y-129052380D01*
X176573809Y-129128571D01*
X176459523Y-129242857D01*
X176421428Y-129319047D01*
X176421428Y-129395238D01*
X176611904Y-129357142D02*
X176573809Y-129433333D01*
X176497619Y-129509523D01*
X176345238Y-129547619D01*
X176078571Y-129547619D01*
X175926190Y-129509523D01*
X175850000Y-129433333D01*
X175811904Y-129357142D01*
X175811904Y-129204761D01*
X175850000Y-129128571D01*
X175926190Y-129052380D01*
X176078571Y-129014285D01*
X176345238Y-129014285D01*
X176497619Y-129052380D01*
X176573809Y-129128571D01*
X176611904Y-129204761D01*
X176611904Y-129357142D01*
X176078571Y-128328571D02*
X176611904Y-128328571D01*
X175773809Y-128519047D02*
X176345238Y-128709523D01*
X176345238Y-128214285D01*
%TO.C,Q6*%
X206888095Y-124126190D02*
X206850000Y-124202380D01*
X206773809Y-124278571D01*
X206659523Y-124392857D01*
X206621428Y-124469047D01*
X206621428Y-124545238D01*
X206811904Y-124507142D02*
X206773809Y-124583333D01*
X206697619Y-124659523D01*
X206545238Y-124697619D01*
X206278571Y-124697619D01*
X206126190Y-124659523D01*
X206050000Y-124583333D01*
X206011904Y-124507142D01*
X206011904Y-124354761D01*
X206050000Y-124278571D01*
X206126190Y-124202380D01*
X206278571Y-124164285D01*
X206545238Y-124164285D01*
X206697619Y-124202380D01*
X206773809Y-124278571D01*
X206811904Y-124354761D01*
X206811904Y-124507142D01*
X206011904Y-123478571D02*
X206011904Y-123630952D01*
X206050000Y-123707142D01*
X206088095Y-123745238D01*
X206202380Y-123821428D01*
X206354761Y-123859523D01*
X206659523Y-123859523D01*
X206735714Y-123821428D01*
X206773809Y-123783333D01*
X206811904Y-123707142D01*
X206811904Y-123554761D01*
X206773809Y-123478571D01*
X206735714Y-123440476D01*
X206659523Y-123402380D01*
X206469047Y-123402380D01*
X206392857Y-123440476D01*
X206354761Y-123478571D01*
X206316666Y-123554761D01*
X206316666Y-123707142D01*
X206354761Y-123783333D01*
X206392857Y-123821428D01*
X206469047Y-123859523D01*
D10*
%TO.C,C7*%
X185485714Y-132942857D02*
X185523809Y-132904761D01*
X185561904Y-132942857D01*
X185523809Y-132980952D01*
X185485714Y-132942857D01*
X185561904Y-132942857D01*
X185561904Y-132142857D02*
X185561904Y-132600000D01*
X185561904Y-132371428D02*
X184761904Y-132371428D01*
X184876190Y-132447619D01*
X184952380Y-132523809D01*
X184990476Y-132600000D01*
X185028571Y-131457142D02*
X185561904Y-131457142D01*
X185028571Y-131800000D02*
X185447619Y-131800000D01*
X185523809Y-131761904D01*
X185561904Y-131685714D01*
X185561904Y-131571428D01*
X185523809Y-131495238D01*
X185485714Y-131457142D01*
%TO.C,R16*%
X211716666Y-127438095D02*
X211754761Y-127400000D01*
X211830952Y-127361904D01*
X212021428Y-127361904D01*
X212097619Y-127400000D01*
X212135714Y-127438095D01*
X212173809Y-127514285D01*
X212173809Y-127590476D01*
X212135714Y-127704761D01*
X211678571Y-128161904D01*
X212173809Y-128161904D01*
X212516666Y-128161904D02*
X212516666Y-127361904D01*
X212592857Y-127857142D02*
X212821428Y-128161904D01*
X212821428Y-127628571D02*
X212516666Y-127933333D01*
X213126190Y-127438095D02*
X213164285Y-127400000D01*
X213240476Y-127361904D01*
X213430952Y-127361904D01*
X213507142Y-127400000D01*
X213545238Y-127438095D01*
X213583333Y-127514285D01*
X213583333Y-127590476D01*
X213545238Y-127704761D01*
X213088095Y-128161904D01*
X213583333Y-128161904D01*
%TO.C,R21*%
X215861904Y-132671428D02*
X215861904Y-132176190D01*
X216166666Y-132442857D01*
X216166666Y-132328571D01*
X216204761Y-132252380D01*
X216242857Y-132214285D01*
X216319047Y-132176190D01*
X216509523Y-132176190D01*
X216585714Y-132214285D01*
X216623809Y-132252380D01*
X216661904Y-132328571D01*
X216661904Y-132557142D01*
X216623809Y-132633333D01*
X216585714Y-132671428D01*
X215861904Y-131680952D02*
X215861904Y-131604761D01*
X215900000Y-131528571D01*
X215938095Y-131490476D01*
X216014285Y-131452380D01*
X216166666Y-131414285D01*
X216357142Y-131414285D01*
X216509523Y-131452380D01*
X216585714Y-131490476D01*
X216623809Y-131528571D01*
X216661904Y-131604761D01*
X216661904Y-131680952D01*
X216623809Y-131757142D01*
X216585714Y-131795238D01*
X216509523Y-131833333D01*
X216357142Y-131871428D01*
X216166666Y-131871428D01*
X216014285Y-131833333D01*
X215938095Y-131795238D01*
X215900000Y-131757142D01*
X215861904Y-131680952D01*
X216661904Y-131071428D02*
X215861904Y-131071428D01*
X216357142Y-130995238D02*
X216661904Y-130766666D01*
X216128571Y-130766666D02*
X216433333Y-131071428D01*
%TO.C,R10*%
X178011904Y-142245238D02*
X178011904Y-142702380D01*
X178011904Y-142473809D02*
X177211904Y-142473809D01*
X177326190Y-142550000D01*
X177402380Y-142626190D01*
X177440476Y-142702380D01*
X178011904Y-141902380D02*
X177211904Y-141902380D01*
X177707142Y-141826190D02*
X178011904Y-141597619D01*
X177478571Y-141597619D02*
X177783333Y-141902380D01*
%TO.C,R7*%
X204040476Y-137038095D02*
X204078571Y-137000000D01*
X204154761Y-136961904D01*
X204345238Y-136961904D01*
X204421428Y-137000000D01*
X204459523Y-137038095D01*
X204497619Y-137114285D01*
X204497619Y-137190476D01*
X204459523Y-137304761D01*
X204002380Y-137761904D01*
X204497619Y-137761904D01*
X204764285Y-136961904D02*
X205297619Y-136961904D01*
X204954761Y-137761904D01*
%TO.C,C6*%
X200407142Y-140235714D02*
X200445238Y-140273809D01*
X200407142Y-140311904D01*
X200369047Y-140273809D01*
X200407142Y-140235714D01*
X200407142Y-140311904D01*
X201207142Y-140311904D02*
X200750000Y-140311904D01*
X200978571Y-140311904D02*
X200978571Y-139511904D01*
X200902380Y-139626190D01*
X200826190Y-139702380D01*
X200750000Y-139740476D01*
X201892857Y-139778571D02*
X201892857Y-140311904D01*
X201550000Y-139778571D02*
X201550000Y-140197619D01*
X201588095Y-140273809D01*
X201664285Y-140311904D01*
X201778571Y-140311904D01*
X201854761Y-140273809D01*
X201892857Y-140235714D01*
%TO.C,C2*%
X201295714Y-131422857D02*
X201333809Y-131384761D01*
X201371904Y-131422857D01*
X201333809Y-131460952D01*
X201295714Y-131422857D01*
X201371904Y-131422857D01*
X201371904Y-130622857D02*
X201371904Y-131080000D01*
X201371904Y-130851428D02*
X200571904Y-130851428D01*
X200686190Y-130927619D01*
X200762380Y-131003809D01*
X200800476Y-131080000D01*
X200838571Y-129937142D02*
X201371904Y-129937142D01*
X200838571Y-130280000D02*
X201257619Y-130280000D01*
X201333809Y-130241904D01*
X201371904Y-130165714D01*
X201371904Y-130051428D01*
X201333809Y-129975238D01*
X201295714Y-129937142D01*
%TO.C,C12*%
X202507142Y-143535714D02*
X202545238Y-143573809D01*
X202507142Y-143611904D01*
X202469047Y-143573809D01*
X202507142Y-143535714D01*
X202507142Y-143611904D01*
X203307142Y-143611904D02*
X202850000Y-143611904D01*
X203078571Y-143611904D02*
X203078571Y-142811904D01*
X203002380Y-142926190D01*
X202926190Y-143002380D01*
X202850000Y-143040476D01*
X203992857Y-143078571D02*
X203992857Y-143611904D01*
X203650000Y-143078571D02*
X203650000Y-143497619D01*
X203688095Y-143573809D01*
X203764285Y-143611904D01*
X203878571Y-143611904D01*
X203954761Y-143573809D01*
X203992857Y-143535714D01*
%TO.C,R8*%
X204040476Y-138138095D02*
X204078571Y-138100000D01*
X204154761Y-138061904D01*
X204345238Y-138061904D01*
X204421428Y-138100000D01*
X204459523Y-138138095D01*
X204497619Y-138214285D01*
X204497619Y-138290476D01*
X204459523Y-138404761D01*
X204002380Y-138861904D01*
X204497619Y-138861904D01*
X204764285Y-138061904D02*
X205297619Y-138061904D01*
X204954761Y-138861904D01*
%TO.C,R18*%
X177878571Y-126961904D02*
X178373809Y-126961904D01*
X178107142Y-127266666D01*
X178221428Y-127266666D01*
X178297619Y-127304761D01*
X178335714Y-127342857D01*
X178373809Y-127419047D01*
X178373809Y-127609523D01*
X178335714Y-127685714D01*
X178297619Y-127723809D01*
X178221428Y-127761904D01*
X177992857Y-127761904D01*
X177916666Y-127723809D01*
X177878571Y-127685714D01*
X178869047Y-126961904D02*
X178945238Y-126961904D01*
X179021428Y-127000000D01*
X179059523Y-127038095D01*
X179097619Y-127114285D01*
X179135714Y-127266666D01*
X179135714Y-127457142D01*
X179097619Y-127609523D01*
X179059523Y-127685714D01*
X179021428Y-127723809D01*
X178945238Y-127761904D01*
X178869047Y-127761904D01*
X178792857Y-127723809D01*
X178754761Y-127685714D01*
X178716666Y-127609523D01*
X178678571Y-127457142D01*
X178678571Y-127266666D01*
X178716666Y-127114285D01*
X178754761Y-127038095D01*
X178792857Y-127000000D01*
X178869047Y-126961904D01*
X179478571Y-127761904D02*
X179478571Y-126961904D01*
X179554761Y-127457142D02*
X179783333Y-127761904D01*
X179783333Y-127228571D02*
X179478571Y-127533333D01*
%TO.C,R3*%
X191311904Y-135445238D02*
X191311904Y-135902380D01*
X191311904Y-135673809D02*
X190511904Y-135673809D01*
X190626190Y-135750000D01*
X190702380Y-135826190D01*
X190740476Y-135902380D01*
X191311904Y-135102380D02*
X190511904Y-135102380D01*
X191007142Y-135026190D02*
X191311904Y-134797619D01*
X190778571Y-134797619D02*
X191083333Y-135102380D01*
%TO.C,R1*%
X171804761Y-129161904D02*
X171347619Y-129161904D01*
X171576190Y-129161904D02*
X171576190Y-128361904D01*
X171500000Y-128476190D01*
X171423809Y-128552380D01*
X171347619Y-128590476D01*
X172147619Y-129161904D02*
X172147619Y-128361904D01*
X172223809Y-128857142D02*
X172452380Y-129161904D01*
X172452380Y-128628571D02*
X172147619Y-128933333D01*
D11*
%TO.C,Q5*%
X216338095Y-127776190D02*
X216300000Y-127852380D01*
X216223809Y-127928571D01*
X216109523Y-128042857D01*
X216071428Y-128119047D01*
X216071428Y-128195238D01*
X216261904Y-128157142D02*
X216223809Y-128233333D01*
X216147619Y-128309523D01*
X215995238Y-128347619D01*
X215728571Y-128347619D01*
X215576190Y-128309523D01*
X215500000Y-128233333D01*
X215461904Y-128157142D01*
X215461904Y-128004761D01*
X215500000Y-127928571D01*
X215576190Y-127852380D01*
X215728571Y-127814285D01*
X215995238Y-127814285D01*
X216147619Y-127852380D01*
X216223809Y-127928571D01*
X216261904Y-128004761D01*
X216261904Y-128157142D01*
X215461904Y-127090476D02*
X215461904Y-127471428D01*
X215842857Y-127509523D01*
X215804761Y-127471428D01*
X215766666Y-127395238D01*
X215766666Y-127204761D01*
X215804761Y-127128571D01*
X215842857Y-127090476D01*
X215919047Y-127052380D01*
X216109523Y-127052380D01*
X216185714Y-127090476D01*
X216223809Y-127128571D01*
X216261904Y-127204761D01*
X216261904Y-127395238D01*
X216223809Y-127471428D01*
X216185714Y-127509523D01*
D10*
%TO.C,C26*%
X176688095Y-131721428D02*
X176650000Y-131683333D01*
X176611904Y-131607142D01*
X176611904Y-131416666D01*
X176650000Y-131340476D01*
X176688095Y-131302380D01*
X176764285Y-131264285D01*
X176840476Y-131264285D01*
X176954761Y-131302380D01*
X177411904Y-131759523D01*
X177411904Y-131264285D01*
X176688095Y-130959523D02*
X176650000Y-130921428D01*
X176611904Y-130845238D01*
X176611904Y-130654761D01*
X176650000Y-130578571D01*
X176688095Y-130540476D01*
X176764285Y-130502380D01*
X176840476Y-130502380D01*
X176954761Y-130540476D01*
X177411904Y-130997619D01*
X177411904Y-130502380D01*
X176878571Y-129816666D02*
X177411904Y-129816666D01*
X176878571Y-130159523D02*
X177297619Y-130159523D01*
X177373809Y-130121428D01*
X177411904Y-130045238D01*
X177411904Y-129930952D01*
X177373809Y-129854761D01*
X177335714Y-129816666D01*
%TO.C,H1*%
X213738095Y-116602380D02*
X213738095Y-115602380D01*
X213738095Y-116078571D02*
X214309523Y-116078571D01*
X214309523Y-116602380D02*
X214309523Y-115602380D01*
X215309523Y-116602380D02*
X214738095Y-116602380D01*
X215023809Y-116602380D02*
X215023809Y-115602380D01*
X214928571Y-115745238D01*
X214833333Y-115840476D01*
X214738095Y-115888095D01*
%TO.C,C24*%
X194935714Y-124342857D02*
X194973809Y-124304761D01*
X195011904Y-124342857D01*
X194973809Y-124380952D01*
X194935714Y-124342857D01*
X195011904Y-124342857D01*
X195011904Y-123542857D02*
X195011904Y-124000000D01*
X195011904Y-123771428D02*
X194211904Y-123771428D01*
X194326190Y-123847619D01*
X194402380Y-123923809D01*
X194440476Y-124000000D01*
X194478571Y-122857142D02*
X195011904Y-122857142D01*
X194478571Y-123200000D02*
X194897619Y-123200000D01*
X194973809Y-123161904D01*
X195011904Y-123085714D01*
X195011904Y-122971428D01*
X194973809Y-122895238D01*
X194935714Y-122857142D01*
%TO.C,C4*%
X184590476Y-137761904D02*
X185085714Y-137761904D01*
X184819047Y-138066666D01*
X184933333Y-138066666D01*
X185009523Y-138104761D01*
X185047619Y-138142857D01*
X185085714Y-138219047D01*
X185085714Y-138409523D01*
X185047619Y-138485714D01*
X185009523Y-138523809D01*
X184933333Y-138561904D01*
X184704761Y-138561904D01*
X184628571Y-138523809D01*
X184590476Y-138485714D01*
X185580952Y-137761904D02*
X185657142Y-137761904D01*
X185733333Y-137800000D01*
X185771428Y-137838095D01*
X185809523Y-137914285D01*
X185847619Y-138066666D01*
X185847619Y-138257142D01*
X185809523Y-138409523D01*
X185771428Y-138485714D01*
X185733333Y-138523809D01*
X185657142Y-138561904D01*
X185580952Y-138561904D01*
X185504761Y-138523809D01*
X185466666Y-138485714D01*
X185428571Y-138409523D01*
X185390476Y-138257142D01*
X185390476Y-138066666D01*
X185428571Y-137914285D01*
X185466666Y-137838095D01*
X185504761Y-137800000D01*
X185580952Y-137761904D01*
X186190476Y-138028571D02*
X186190476Y-138828571D01*
X186190476Y-138066666D02*
X186266666Y-138028571D01*
X186419047Y-138028571D01*
X186495238Y-138066666D01*
X186533333Y-138104761D01*
X186571428Y-138180952D01*
X186571428Y-138409523D01*
X186533333Y-138485714D01*
X186495238Y-138523809D01*
X186419047Y-138561904D01*
X186266666Y-138561904D01*
X186190476Y-138523809D01*
%TO.C,C29*%
X179038095Y-129971428D02*
X179000000Y-129933333D01*
X178961904Y-129857142D01*
X178961904Y-129666666D01*
X179000000Y-129590476D01*
X179038095Y-129552380D01*
X179114285Y-129514285D01*
X179190476Y-129514285D01*
X179304761Y-129552380D01*
X179761904Y-130009523D01*
X179761904Y-129514285D01*
X179038095Y-129209523D02*
X179000000Y-129171428D01*
X178961904Y-129095238D01*
X178961904Y-128904761D01*
X179000000Y-128828571D01*
X179038095Y-128790476D01*
X179114285Y-128752380D01*
X179190476Y-128752380D01*
X179304761Y-128790476D01*
X179761904Y-129247619D01*
X179761904Y-128752380D01*
X179228571Y-128066666D02*
X179761904Y-128066666D01*
X179228571Y-128409523D02*
X179647619Y-128409523D01*
X179723809Y-128371428D01*
X179761904Y-128295238D01*
X179761904Y-128180952D01*
X179723809Y-128104761D01*
X179685714Y-128066666D01*
%TO.C,D1*%
X188061904Y-144964285D02*
X188061904Y-145345238D01*
X187261904Y-145345238D01*
X187642857Y-144697619D02*
X187642857Y-144430952D01*
X188061904Y-144316666D02*
X188061904Y-144697619D01*
X187261904Y-144697619D01*
X187261904Y-144316666D01*
X188061904Y-143973809D02*
X187261904Y-143973809D01*
X187261904Y-143783333D01*
X187300000Y-143669047D01*
X187376190Y-143592857D01*
X187452380Y-143554761D01*
X187604761Y-143516666D01*
X187719047Y-143516666D01*
X187871428Y-143554761D01*
X187947619Y-143592857D01*
X188023809Y-143669047D01*
X188061904Y-143783333D01*
X188061904Y-143973809D01*
%TO.C,C1*%
X216485714Y-124842857D02*
X216523809Y-124804761D01*
X216561904Y-124842857D01*
X216523809Y-124880952D01*
X216485714Y-124842857D01*
X216561904Y-124842857D01*
X216561904Y-124042857D02*
X216561904Y-124500000D01*
X216561904Y-124271428D02*
X215761904Y-124271428D01*
X215876190Y-124347619D01*
X215952380Y-124423809D01*
X215990476Y-124500000D01*
X216028571Y-123357142D02*
X216561904Y-123357142D01*
X216028571Y-123700000D02*
X216447619Y-123700000D01*
X216523809Y-123661904D01*
X216561904Y-123585714D01*
X216561904Y-123471428D01*
X216523809Y-123395238D01*
X216485714Y-123357142D01*
%TO.C,C21*%
X182678571Y-124138095D02*
X182716666Y-124100000D01*
X182792857Y-124061904D01*
X182983333Y-124061904D01*
X183059523Y-124100000D01*
X183097619Y-124138095D01*
X183135714Y-124214285D01*
X183135714Y-124290476D01*
X183097619Y-124404761D01*
X182640476Y-124861904D01*
X183135714Y-124861904D01*
X183440476Y-124138095D02*
X183478571Y-124100000D01*
X183554761Y-124061904D01*
X183745238Y-124061904D01*
X183821428Y-124100000D01*
X183859523Y-124138095D01*
X183897619Y-124214285D01*
X183897619Y-124290476D01*
X183859523Y-124404761D01*
X183402380Y-124861904D01*
X183897619Y-124861904D01*
X184240476Y-124328571D02*
X184240476Y-125128571D01*
X184240476Y-124366666D02*
X184316666Y-124328571D01*
X184469047Y-124328571D01*
X184545238Y-124366666D01*
X184583333Y-124404761D01*
X184621428Y-124480952D01*
X184621428Y-124709523D01*
X184583333Y-124785714D01*
X184545238Y-124823809D01*
X184469047Y-124861904D01*
X184316666Y-124861904D01*
X184240476Y-124823809D01*
%TO.C,D3*%
X180009523Y-139261904D02*
X180009523Y-138461904D01*
X180200000Y-138461904D01*
X180314285Y-138500000D01*
X180390476Y-138576190D01*
X180428571Y-138652380D01*
X180466666Y-138804761D01*
X180466666Y-138919047D01*
X180428571Y-139071428D01*
X180390476Y-139147619D01*
X180314285Y-139223809D01*
X180200000Y-139261904D01*
X180009523Y-139261904D01*
X180733333Y-138461904D02*
X181228571Y-138461904D01*
X180961904Y-138766666D01*
X181076190Y-138766666D01*
X181152380Y-138804761D01*
X181190476Y-138842857D01*
X181228571Y-138919047D01*
X181228571Y-139109523D01*
X181190476Y-139185714D01*
X181152380Y-139223809D01*
X181076190Y-139261904D01*
X180847619Y-139261904D01*
X180771428Y-139223809D01*
X180733333Y-139185714D01*
%TO.C,SW1*%
X209733333Y-143795238D02*
X209590476Y-143747619D01*
X209352380Y-143747619D01*
X209257142Y-143795238D01*
X209209523Y-143842857D01*
X209161904Y-143938095D01*
X209161904Y-144033333D01*
X209209523Y-144128571D01*
X209257142Y-144176190D01*
X209352380Y-144223809D01*
X209542857Y-144271428D01*
X209638095Y-144319047D01*
X209685714Y-144366666D01*
X209733333Y-144461904D01*
X209733333Y-144557142D01*
X209685714Y-144652380D01*
X209638095Y-144700000D01*
X209542857Y-144747619D01*
X209304761Y-144747619D01*
X209161904Y-144700000D01*
X208828571Y-144747619D02*
X208590476Y-143747619D01*
X208400000Y-144461904D01*
X208209523Y-143747619D01*
X207971428Y-144747619D01*
X207066666Y-143747619D02*
X207638095Y-143747619D01*
X207352380Y-143747619D02*
X207352380Y-144747619D01*
X207447619Y-144604761D01*
X207542857Y-144509523D01*
X207638095Y-144461904D01*
%TO.C,R20*%
X184711904Y-135471428D02*
X184711904Y-134976190D01*
X185016666Y-135242857D01*
X185016666Y-135128571D01*
X185054761Y-135052380D01*
X185092857Y-135014285D01*
X185169047Y-134976190D01*
X185359523Y-134976190D01*
X185435714Y-135014285D01*
X185473809Y-135052380D01*
X185511904Y-135128571D01*
X185511904Y-135357142D01*
X185473809Y-135433333D01*
X185435714Y-135471428D01*
X184711904Y-134709523D02*
X184711904Y-134214285D01*
X185016666Y-134480952D01*
X185016666Y-134366666D01*
X185054761Y-134290476D01*
X185092857Y-134252380D01*
X185169047Y-134214285D01*
X185359523Y-134214285D01*
X185435714Y-134252380D01*
X185473809Y-134290476D01*
X185511904Y-134366666D01*
X185511904Y-134595238D01*
X185473809Y-134671428D01*
X185435714Y-134709523D01*
X185511904Y-133871428D02*
X184711904Y-133871428D01*
X185207142Y-133795238D02*
X185511904Y-133566666D01*
X184978571Y-133566666D02*
X185283333Y-133871428D01*
%TO.C,C30*%
X229954761Y-145651904D02*
X229497619Y-145651904D01*
X229726190Y-145651904D02*
X229726190Y-144851904D01*
X229650000Y-144966190D01*
X229573809Y-145042380D01*
X229497619Y-145080476D01*
X230450000Y-144851904D02*
X230526190Y-144851904D01*
X230602380Y-144890000D01*
X230640476Y-144928095D01*
X230678571Y-145004285D01*
X230716666Y-145156666D01*
X230716666Y-145347142D01*
X230678571Y-145499523D01*
X230640476Y-145575714D01*
X230602380Y-145613809D01*
X230526190Y-145651904D01*
X230450000Y-145651904D01*
X230373809Y-145613809D01*
X230335714Y-145575714D01*
X230297619Y-145499523D01*
X230259523Y-145347142D01*
X230259523Y-145156666D01*
X230297619Y-145004285D01*
X230335714Y-144928095D01*
X230373809Y-144890000D01*
X230450000Y-144851904D01*
X231211904Y-144851904D02*
X231288095Y-144851904D01*
X231364285Y-144890000D01*
X231402380Y-144928095D01*
X231440476Y-145004285D01*
X231478571Y-145156666D01*
X231478571Y-145347142D01*
X231440476Y-145499523D01*
X231402380Y-145575714D01*
X231364285Y-145613809D01*
X231288095Y-145651904D01*
X231211904Y-145651904D01*
X231135714Y-145613809D01*
X231097619Y-145575714D01*
X231059523Y-145499523D01*
X231021428Y-145347142D01*
X231021428Y-145156666D01*
X231059523Y-145004285D01*
X231097619Y-144928095D01*
X231135714Y-144890000D01*
X231211904Y-144851904D01*
X232164285Y-145118571D02*
X232164285Y-145651904D01*
X231821428Y-145118571D02*
X231821428Y-145537619D01*
X231859523Y-145613809D01*
X231935714Y-145651904D01*
X232050000Y-145651904D01*
X232126190Y-145613809D01*
X232164285Y-145575714D01*
D14*
%TO.C,S1*%
X215513347Y-136730634D02*
X215573823Y-136549205D01*
X215573823Y-136246824D01*
X215513347Y-136125872D01*
X215452871Y-136065395D01*
X215331919Y-136004919D01*
X215210966Y-136004919D01*
X215090014Y-136065395D01*
X215029538Y-136125872D01*
X214969061Y-136246824D01*
X214908585Y-136488729D01*
X214848109Y-136609681D01*
X214787633Y-136670157D01*
X214666680Y-136730634D01*
X214545728Y-136730634D01*
X214424776Y-136670157D01*
X214364300Y-136609681D01*
X214303823Y-136488729D01*
X214303823Y-136186348D01*
X214364300Y-136004919D01*
X215573823Y-134795395D02*
X215573823Y-135521110D01*
X215573823Y-135158253D02*
X214303823Y-135158253D01*
X214485252Y-135279205D01*
X214606204Y-135400157D01*
X214666680Y-135521110D01*
D10*
%TO.C,R4*%
X169123809Y-129111904D02*
X168666666Y-129111904D01*
X168895238Y-129111904D02*
X168895238Y-128311904D01*
X168819047Y-128426190D01*
X168742857Y-128502380D01*
X168666666Y-128540476D01*
X169619047Y-128311904D02*
X169695238Y-128311904D01*
X169771428Y-128350000D01*
X169809523Y-128388095D01*
X169847619Y-128464285D01*
X169885714Y-128616666D01*
X169885714Y-128807142D01*
X169847619Y-128959523D01*
X169809523Y-129035714D01*
X169771428Y-129073809D01*
X169695238Y-129111904D01*
X169619047Y-129111904D01*
X169542857Y-129073809D01*
X169504761Y-129035714D01*
X169466666Y-128959523D01*
X169428571Y-128807142D01*
X169428571Y-128616666D01*
X169466666Y-128464285D01*
X169504761Y-128388095D01*
X169542857Y-128350000D01*
X169619047Y-128311904D01*
X170228571Y-129111904D02*
X170228571Y-128311904D01*
X170304761Y-128807142D02*
X170533333Y-129111904D01*
X170533333Y-128578571D02*
X170228571Y-128883333D01*
%TO.C,R23*%
X183823809Y-137311904D02*
X183366666Y-137311904D01*
X183595238Y-137311904D02*
X183595238Y-136511904D01*
X183519047Y-136626190D01*
X183442857Y-136702380D01*
X183366666Y-136740476D01*
X184319047Y-136511904D02*
X184395238Y-136511904D01*
X184471428Y-136550000D01*
X184509523Y-136588095D01*
X184547619Y-136664285D01*
X184585714Y-136816666D01*
X184585714Y-137007142D01*
X184547619Y-137159523D01*
X184509523Y-137235714D01*
X184471428Y-137273809D01*
X184395238Y-137311904D01*
X184319047Y-137311904D01*
X184242857Y-137273809D01*
X184204761Y-137235714D01*
X184166666Y-137159523D01*
X184128571Y-137007142D01*
X184128571Y-136816666D01*
X184166666Y-136664285D01*
X184204761Y-136588095D01*
X184242857Y-136550000D01*
X184319047Y-136511904D01*
X184928571Y-137311904D02*
X184928571Y-136511904D01*
X185004761Y-137007142D02*
X185233333Y-137311904D01*
X185233333Y-136778571D02*
X184928571Y-137083333D01*
%TO.C,R27*%
X244979429Y-146270498D02*
X244522286Y-146270498D01*
X244750858Y-146270498D02*
X244750858Y-145470498D01*
X244674667Y-145584784D01*
X244598477Y-145660974D01*
X244522286Y-145699070D01*
X245474667Y-145470498D02*
X245550858Y-145470498D01*
X245627048Y-145508594D01*
X245665143Y-145546689D01*
X245703239Y-145622879D01*
X245741334Y-145775260D01*
X245741334Y-145965736D01*
X245703239Y-146118117D01*
X245665143Y-146194308D01*
X245627048Y-146232403D01*
X245550858Y-146270498D01*
X245474667Y-146270498D01*
X245398477Y-146232403D01*
X245360381Y-146194308D01*
X245322286Y-146118117D01*
X245284191Y-145965736D01*
X245284191Y-145775260D01*
X245322286Y-145622879D01*
X245360381Y-145546689D01*
X245398477Y-145508594D01*
X245474667Y-145470498D01*
X246084191Y-146270498D02*
X246084191Y-145470498D01*
X246160381Y-145965736D02*
X246388953Y-146270498D01*
X246388953Y-145737165D02*
X246084191Y-146041927D01*
%TO.C,R12*%
X191266666Y-132038095D02*
X191304761Y-132000000D01*
X191380952Y-131961904D01*
X191571428Y-131961904D01*
X191647619Y-132000000D01*
X191685714Y-132038095D01*
X191723809Y-132114285D01*
X191723809Y-132190476D01*
X191685714Y-132304761D01*
X191228571Y-132761904D01*
X191723809Y-132761904D01*
X192066666Y-132761904D02*
X192066666Y-131961904D01*
X192142857Y-132457142D02*
X192371428Y-132761904D01*
X192371428Y-132228571D02*
X192066666Y-132533333D01*
X192676190Y-132038095D02*
X192714285Y-132000000D01*
X192790476Y-131961904D01*
X192980952Y-131961904D01*
X193057142Y-132000000D01*
X193095238Y-132038095D01*
X193133333Y-132114285D01*
X193133333Y-132190476D01*
X193095238Y-132304761D01*
X192638095Y-132761904D01*
X193133333Y-132761904D01*
%TO.C,R22*%
X202278571Y-127411904D02*
X202773809Y-127411904D01*
X202507142Y-127716666D01*
X202621428Y-127716666D01*
X202697619Y-127754761D01*
X202735714Y-127792857D01*
X202773809Y-127869047D01*
X202773809Y-128059523D01*
X202735714Y-128135714D01*
X202697619Y-128173809D01*
X202621428Y-128211904D01*
X202392857Y-128211904D01*
X202316666Y-128173809D01*
X202278571Y-128135714D01*
X203269047Y-127411904D02*
X203345238Y-127411904D01*
X203421428Y-127450000D01*
X203459523Y-127488095D01*
X203497619Y-127564285D01*
X203535714Y-127716666D01*
X203535714Y-127907142D01*
X203497619Y-128059523D01*
X203459523Y-128135714D01*
X203421428Y-128173809D01*
X203345238Y-128211904D01*
X203269047Y-128211904D01*
X203192857Y-128173809D01*
X203154761Y-128135714D01*
X203116666Y-128059523D01*
X203078571Y-127907142D01*
X203078571Y-127716666D01*
X203116666Y-127564285D01*
X203154761Y-127488095D01*
X203192857Y-127450000D01*
X203269047Y-127411904D01*
X203878571Y-128211904D02*
X203878571Y-127411904D01*
X203954761Y-127907142D02*
X204183333Y-128211904D01*
X204183333Y-127678571D02*
X203878571Y-127983333D01*
%TO.C,IC3*%
X207690476Y-133542857D02*
X207957142Y-133542857D01*
X208071428Y-133961904D02*
X207690476Y-133961904D01*
X207690476Y-133161904D01*
X208071428Y-133161904D01*
X208414285Y-133542857D02*
X208680952Y-133542857D01*
X208795238Y-133961904D02*
X208414285Y-133961904D01*
X208414285Y-133161904D01*
X208795238Y-133161904D01*
X209138095Y-133961904D02*
X209138095Y-133161904D01*
X209442857Y-133161904D01*
X209519047Y-133200000D01*
X209557142Y-133238095D01*
X209595238Y-133314285D01*
X209595238Y-133428571D01*
X209557142Y-133504761D01*
X209519047Y-133542857D01*
X209442857Y-133580952D01*
X209138095Y-133580952D01*
X210395238Y-133961904D02*
X210128571Y-133580952D01*
X209938095Y-133961904D02*
X209938095Y-133161904D01*
X210242857Y-133161904D01*
X210319047Y-133200000D01*
X210357142Y-133238095D01*
X210395238Y-133314285D01*
X210395238Y-133428571D01*
X210357142Y-133504761D01*
X210319047Y-133542857D01*
X210242857Y-133580952D01*
X209938095Y-133580952D01*
X210890476Y-133161904D02*
X211042857Y-133161904D01*
X211119047Y-133200000D01*
X211195238Y-133276190D01*
X211233333Y-133428571D01*
X211233333Y-133695238D01*
X211195238Y-133847619D01*
X211119047Y-133923809D01*
X211042857Y-133961904D01*
X210890476Y-133961904D01*
X210814285Y-133923809D01*
X210738095Y-133847619D01*
X210700000Y-133695238D01*
X210700000Y-133428571D01*
X210738095Y-133276190D01*
X210814285Y-133200000D01*
X210890476Y-133161904D01*
X211576190Y-133961904D02*
X211576190Y-133161904D01*
X211842857Y-133733333D01*
X212109523Y-133161904D01*
X212109523Y-133961904D01*
D11*
%TO.C,Q1*%
X172138095Y-123926190D02*
X172100000Y-124002380D01*
X172023809Y-124078571D01*
X171909523Y-124192857D01*
X171871428Y-124269047D01*
X171871428Y-124345238D01*
X172061904Y-124307142D02*
X172023809Y-124383333D01*
X171947619Y-124459523D01*
X171795238Y-124497619D01*
X171528571Y-124497619D01*
X171376190Y-124459523D01*
X171300000Y-124383333D01*
X171261904Y-124307142D01*
X171261904Y-124154761D01*
X171300000Y-124078571D01*
X171376190Y-124002380D01*
X171528571Y-123964285D01*
X171795238Y-123964285D01*
X171947619Y-124002380D01*
X172023809Y-124078571D01*
X172061904Y-124154761D01*
X172061904Y-124307142D01*
X172061904Y-123202380D02*
X172061904Y-123659523D01*
X172061904Y-123430952D02*
X171261904Y-123430952D01*
X171376190Y-123507142D01*
X171452380Y-123583333D01*
X171490476Y-123659523D01*
D10*
%TO.C,C8*%
X184757142Y-141385714D02*
X184795238Y-141423809D01*
X184757142Y-141461904D01*
X184719047Y-141423809D01*
X184757142Y-141385714D01*
X184757142Y-141461904D01*
X185557142Y-141461904D02*
X185100000Y-141461904D01*
X185328571Y-141461904D02*
X185328571Y-140661904D01*
X185252380Y-140776190D01*
X185176190Y-140852380D01*
X185100000Y-140890476D01*
X186242857Y-140928571D02*
X186242857Y-141461904D01*
X185900000Y-140928571D02*
X185900000Y-141347619D01*
X185938095Y-141423809D01*
X186014285Y-141461904D01*
X186128571Y-141461904D01*
X186204761Y-141423809D01*
X186242857Y-141385714D01*
%TO.C,L1*%
X181816666Y-130811904D02*
X181435714Y-130811904D01*
X181435714Y-130011904D01*
X182502380Y-130811904D02*
X182045238Y-130811904D01*
X182273809Y-130811904D02*
X182273809Y-130011904D01*
X182197619Y-130126190D01*
X182121428Y-130202380D01*
X182045238Y-130240476D01*
%TO.C,C27*%
X220688095Y-146311428D02*
X220650000Y-146273333D01*
X220611904Y-146197142D01*
X220611904Y-146006666D01*
X220650000Y-145930476D01*
X220688095Y-145892380D01*
X220764285Y-145854285D01*
X220840476Y-145854285D01*
X220954761Y-145892380D01*
X221411904Y-146349523D01*
X221411904Y-145854285D01*
X220688095Y-145549523D02*
X220650000Y-145511428D01*
X220611904Y-145435238D01*
X220611904Y-145244761D01*
X220650000Y-145168571D01*
X220688095Y-145130476D01*
X220764285Y-145092380D01*
X220840476Y-145092380D01*
X220954761Y-145130476D01*
X221411904Y-145587619D01*
X221411904Y-145092380D01*
X220878571Y-144406666D02*
X221411904Y-144406666D01*
X220878571Y-144749523D02*
X221297619Y-144749523D01*
X221373809Y-144711428D01*
X221411904Y-144635238D01*
X221411904Y-144520952D01*
X221373809Y-144444761D01*
X221335714Y-144406666D01*
%TO.C,C25*%
X173657142Y-132585714D02*
X173695238Y-132623809D01*
X173657142Y-132661904D01*
X173619047Y-132623809D01*
X173657142Y-132585714D01*
X173657142Y-132661904D01*
X174457142Y-132661904D02*
X174000000Y-132661904D01*
X174228571Y-132661904D02*
X174228571Y-131861904D01*
X174152380Y-131976190D01*
X174076190Y-132052380D01*
X174000000Y-132090476D01*
X175142857Y-132128571D02*
X175142857Y-132661904D01*
X174800000Y-132128571D02*
X174800000Y-132547619D01*
X174838095Y-132623809D01*
X174914285Y-132661904D01*
X175028571Y-132661904D01*
X175104761Y-132623809D01*
X175142857Y-132585714D01*
%TO.C,C3*%
X185490476Y-132961904D02*
X185985714Y-132961904D01*
X185719047Y-133266666D01*
X185833333Y-133266666D01*
X185909523Y-133304761D01*
X185947619Y-133342857D01*
X185985714Y-133419047D01*
X185985714Y-133609523D01*
X185947619Y-133685714D01*
X185909523Y-133723809D01*
X185833333Y-133761904D01*
X185604761Y-133761904D01*
X185528571Y-133723809D01*
X185490476Y-133685714D01*
X186480952Y-132961904D02*
X186557142Y-132961904D01*
X186633333Y-133000000D01*
X186671428Y-133038095D01*
X186709523Y-133114285D01*
X186747619Y-133266666D01*
X186747619Y-133457142D01*
X186709523Y-133609523D01*
X186671428Y-133685714D01*
X186633333Y-133723809D01*
X186557142Y-133761904D01*
X186480952Y-133761904D01*
X186404761Y-133723809D01*
X186366666Y-133685714D01*
X186328571Y-133609523D01*
X186290476Y-133457142D01*
X186290476Y-133266666D01*
X186328571Y-133114285D01*
X186366666Y-133038095D01*
X186404761Y-133000000D01*
X186480952Y-132961904D01*
X187090476Y-133228571D02*
X187090476Y-134028571D01*
X187090476Y-133266666D02*
X187166666Y-133228571D01*
X187319047Y-133228571D01*
X187395238Y-133266666D01*
X187433333Y-133304761D01*
X187471428Y-133380952D01*
X187471428Y-133609523D01*
X187433333Y-133685714D01*
X187395238Y-133723809D01*
X187319047Y-133761904D01*
X187166666Y-133761904D01*
X187090476Y-133723809D01*
D14*
%TO.C,AC1*%
X185707857Y-128911666D02*
X186312619Y-128911666D01*
X185586904Y-129274523D02*
X186010238Y-128004523D01*
X186433571Y-129274523D01*
X187582619Y-129153571D02*
X187522142Y-129214047D01*
X187340714Y-129274523D01*
X187219761Y-129274523D01*
X187038333Y-129214047D01*
X186917380Y-129093095D01*
X186856904Y-128972142D01*
X186796428Y-128730238D01*
X186796428Y-128548809D01*
X186856904Y-128306904D01*
X186917380Y-128185952D01*
X187038333Y-128065000D01*
X187219761Y-128004523D01*
X187340714Y-128004523D01*
X187522142Y-128065000D01*
X187582619Y-128125476D01*
X188792142Y-129274523D02*
X188066428Y-129274523D01*
X188429285Y-129274523D02*
X188429285Y-128004523D01*
X188308333Y-128185952D01*
X188187380Y-128306904D01*
X188066428Y-128367380D01*
D10*
%TO.C,C35*%
X247241334Y-140051451D02*
X247279429Y-140013355D01*
X247317524Y-140051451D01*
X247279429Y-140089546D01*
X247241334Y-140051451D01*
X247317524Y-140051451D01*
X247317524Y-139251451D02*
X247317524Y-139708594D01*
X247317524Y-139480022D02*
X246517524Y-139480022D01*
X246631810Y-139556213D01*
X246708000Y-139632403D01*
X246746096Y-139708594D01*
X246784191Y-138565736D02*
X247317524Y-138565736D01*
X246784191Y-138908594D02*
X247203239Y-138908594D01*
X247279429Y-138870498D01*
X247317524Y-138794308D01*
X247317524Y-138680022D01*
X247279429Y-138603832D01*
X247241334Y-138565736D01*
%TO.C,C15*%
X175288095Y-135821428D02*
X175250000Y-135783333D01*
X175211904Y-135707142D01*
X175211904Y-135516666D01*
X175250000Y-135440476D01*
X175288095Y-135402380D01*
X175364285Y-135364285D01*
X175440476Y-135364285D01*
X175554761Y-135402380D01*
X176011904Y-135859523D01*
X176011904Y-135364285D01*
X175288095Y-135059523D02*
X175250000Y-135021428D01*
X175211904Y-134945238D01*
X175211904Y-134754761D01*
X175250000Y-134678571D01*
X175288095Y-134640476D01*
X175364285Y-134602380D01*
X175440476Y-134602380D01*
X175554761Y-134640476D01*
X176011904Y-135097619D01*
X176011904Y-134602380D01*
X175478571Y-133916666D02*
X176011904Y-133916666D01*
X175478571Y-134259523D02*
X175897619Y-134259523D01*
X175973809Y-134221428D01*
X176011904Y-134145238D01*
X176011904Y-134030952D01*
X175973809Y-133954761D01*
X175935714Y-133916666D01*
%TO.C,C19*%
X230079761Y-122661424D02*
X229622619Y-122661424D01*
X229851190Y-122661424D02*
X229851190Y-121861424D01*
X229775000Y-121975710D01*
X229698809Y-122051900D01*
X229622619Y-122089996D01*
X230575000Y-121861424D02*
X230651190Y-121861424D01*
X230727380Y-121899520D01*
X230765476Y-121937615D01*
X230803571Y-122013805D01*
X230841666Y-122166186D01*
X230841666Y-122356662D01*
X230803571Y-122509043D01*
X230765476Y-122585234D01*
X230727380Y-122623329D01*
X230651190Y-122661424D01*
X230575000Y-122661424D01*
X230498809Y-122623329D01*
X230460714Y-122585234D01*
X230422619Y-122509043D01*
X230384523Y-122356662D01*
X230384523Y-122166186D01*
X230422619Y-122013805D01*
X230460714Y-121937615D01*
X230498809Y-121899520D01*
X230575000Y-121861424D01*
X231336904Y-121861424D02*
X231413095Y-121861424D01*
X231489285Y-121899520D01*
X231527380Y-121937615D01*
X231565476Y-122013805D01*
X231603571Y-122166186D01*
X231603571Y-122356662D01*
X231565476Y-122509043D01*
X231527380Y-122585234D01*
X231489285Y-122623329D01*
X231413095Y-122661424D01*
X231336904Y-122661424D01*
X231260714Y-122623329D01*
X231222619Y-122585234D01*
X231184523Y-122509043D01*
X231146428Y-122356662D01*
X231146428Y-122166186D01*
X231184523Y-122013805D01*
X231222619Y-121937615D01*
X231260714Y-121899520D01*
X231336904Y-121861424D01*
X232289285Y-122128091D02*
X232289285Y-122661424D01*
X231946428Y-122128091D02*
X231946428Y-122547139D01*
X231984523Y-122623329D01*
X232060714Y-122661424D01*
X232175000Y-122661424D01*
X232251190Y-122623329D01*
X232289285Y-122585234D01*
%TO.C,R29*%
X244979429Y-136220498D02*
X244522286Y-136220498D01*
X244750858Y-136220498D02*
X244750858Y-135420498D01*
X244674667Y-135534784D01*
X244598477Y-135610974D01*
X244522286Y-135649070D01*
X245474667Y-135420498D02*
X245550858Y-135420498D01*
X245627048Y-135458594D01*
X245665143Y-135496689D01*
X245703239Y-135572879D01*
X245741334Y-135725260D01*
X245741334Y-135915736D01*
X245703239Y-136068117D01*
X245665143Y-136144308D01*
X245627048Y-136182403D01*
X245550858Y-136220498D01*
X245474667Y-136220498D01*
X245398477Y-136182403D01*
X245360381Y-136144308D01*
X245322286Y-136068117D01*
X245284191Y-135915736D01*
X245284191Y-135725260D01*
X245322286Y-135572879D01*
X245360381Y-135496689D01*
X245398477Y-135458594D01*
X245474667Y-135420498D01*
X246084191Y-136220498D02*
X246084191Y-135420498D01*
X246160381Y-135915736D02*
X246388953Y-136220498D01*
X246388953Y-135687165D02*
X246084191Y-135991927D01*
%TO.C,C36*%
X247309483Y-128716626D02*
X247347578Y-128678530D01*
X247385673Y-128716626D01*
X247347578Y-128754721D01*
X247309483Y-128716626D01*
X247385673Y-128716626D01*
X247385673Y-127916626D02*
X247385673Y-128373769D01*
X247385673Y-128145197D02*
X246585673Y-128145197D01*
X246699959Y-128221388D01*
X246776149Y-128297578D01*
X246814245Y-128373769D01*
X246852340Y-127230911D02*
X247385673Y-127230911D01*
X246852340Y-127573769D02*
X247271388Y-127573769D01*
X247347578Y-127535673D01*
X247385673Y-127459483D01*
X247385673Y-127345197D01*
X247347578Y-127269007D01*
X247309483Y-127230911D01*
%TO.C,C23*%
X189178571Y-124238095D02*
X189216666Y-124200000D01*
X189292857Y-124161904D01*
X189483333Y-124161904D01*
X189559523Y-124200000D01*
X189597619Y-124238095D01*
X189635714Y-124314285D01*
X189635714Y-124390476D01*
X189597619Y-124504761D01*
X189140476Y-124961904D01*
X189635714Y-124961904D01*
X189940476Y-124238095D02*
X189978571Y-124200000D01*
X190054761Y-124161904D01*
X190245238Y-124161904D01*
X190321428Y-124200000D01*
X190359523Y-124238095D01*
X190397619Y-124314285D01*
X190397619Y-124390476D01*
X190359523Y-124504761D01*
X189902380Y-124961904D01*
X190397619Y-124961904D01*
X190740476Y-124428571D02*
X190740476Y-125228571D01*
X190740476Y-124466666D02*
X190816666Y-124428571D01*
X190969047Y-124428571D01*
X191045238Y-124466666D01*
X191083333Y-124504761D01*
X191121428Y-124580952D01*
X191121428Y-124809523D01*
X191083333Y-124885714D01*
X191045238Y-124923809D01*
X190969047Y-124961904D01*
X190816666Y-124961904D01*
X190740476Y-124923809D01*
D15*
%TO.C,J6*%
X194712500Y-145143211D02*
X194712500Y-143043211D01*
X191212500Y-143043211D02*
X191282500Y-143043211D01*
X190412500Y-143043211D02*
X191212500Y-143043211D01*
X194712500Y-143043211D02*
X193812500Y-143043211D01*
X190412500Y-145143211D02*
X190412500Y-143043211D01*
D16*
X191643210Y-142433211D02*
G75*
G03*
X191643210Y-142433211I-100710J0D01*
G01*
D15*
%TO.C,Y1*%
X186900000Y-137950000D02*
X190200000Y-137950000D01*
X190200000Y-137950000D02*
X190200000Y-133950000D01*
%TO.C,R15*%
X209346359Y-128820000D02*
X209653641Y-128820000D01*
X209346359Y-129580000D02*
X209653641Y-129580000D01*
%TO.C,Y2*%
X187525000Y-124425000D02*
X186175000Y-124425000D01*
X187525000Y-122675000D02*
X186175000Y-122675000D01*
%TO.C,C34*%
X222504420Y-122260000D02*
X222785580Y-122260000D01*
X222504420Y-121240000D02*
X222785580Y-121240000D01*
%TO.C,R14*%
X182320000Y-129093641D02*
X182320000Y-128786359D01*
X183080000Y-129093641D02*
X183080000Y-128786359D01*
%TO.C,J2*%
X173240000Y-126310000D02*
X177960000Y-126310000D01*
X174550000Y-122390000D02*
X174250000Y-122390000D01*
X174550000Y-122590000D02*
X174550000Y-122390000D01*
X173040000Y-122390000D02*
X173040000Y-123190000D01*
X174550000Y-122490000D02*
X174250000Y-122490000D01*
X175500000Y-125510000D02*
X175700000Y-125510000D01*
X177960000Y-124500000D02*
X177560000Y-124500000D01*
X177960000Y-122590000D02*
X173240000Y-122590000D01*
X173640000Y-125910000D02*
X177560000Y-125910000D01*
X173240000Y-122590000D02*
X173240000Y-126310000D01*
X177560000Y-125910000D02*
X177560000Y-122990000D01*
X173240000Y-123500000D02*
X173640000Y-123500000D01*
X175700000Y-125510000D02*
X175700000Y-125910000D01*
X177560000Y-122990000D02*
X173640000Y-122990000D01*
X174250000Y-122390000D02*
X174250000Y-122590000D01*
X177960000Y-123500000D02*
X177560000Y-123500000D01*
X173240000Y-124500000D02*
X173640000Y-124500000D01*
X177960000Y-126310000D02*
X177960000Y-122590000D01*
X175500000Y-125910000D02*
X175500000Y-125510000D01*
X175600000Y-125910000D02*
X175600000Y-125510000D01*
X173840000Y-122390000D02*
X173040000Y-122390000D01*
X173640000Y-122990000D02*
X173640000Y-125910000D01*
%TO.C,R26*%
X226146359Y-143420000D02*
X226453641Y-143420000D01*
X226146359Y-142660000D02*
X226453641Y-142660000D01*
D11*
%TO.C,IC6*%
X224355000Y-125405000D02*
X223155000Y-125405000D01*
%TO.C,Q2*%
X177462500Y-137340000D02*
X177462500Y-140260000D01*
X177312500Y-140260000D02*
X177312500Y-137340000D01*
X177312500Y-137340000D02*
X177462500Y-137340000D01*
X177462500Y-140260000D02*
X177312500Y-140260000D01*
X179062500Y-140300000D02*
X177812500Y-140300000D01*
D15*
%TO.C,C13*%
X206260000Y-133807836D02*
X206260000Y-133592164D01*
X205540000Y-133807836D02*
X205540000Y-133592164D01*
%TO.C,C28*%
X247695620Y-143066430D02*
X247695620Y-142850758D01*
X248415620Y-143066430D02*
X248415620Y-142850758D01*
%TO.C,C11*%
X200992164Y-142760000D02*
X201207836Y-142760000D01*
X200992164Y-142040000D02*
X201207836Y-142040000D01*
%TO.C,C20*%
X247663769Y-124265933D02*
X247663769Y-124481605D01*
X248383769Y-124265933D02*
X248383769Y-124481605D01*
%TO.C,J8*%
D17*
X235585000Y-129735000D02*
G75*
G03*
X235585000Y-129735000I-155000J0D01*
G01*
D15*
%TO.C,C14*%
X186842164Y-132760000D02*
X187057836Y-132760000D01*
X186842164Y-132040000D02*
X187057836Y-132040000D01*
D13*
%TO.C,IC14*%
X231225000Y-144127500D02*
G75*
G03*
X231225000Y-144127500I-125000J0D01*
G01*
D15*
%TO.C,R13*%
X170253641Y-137070000D02*
X169946359Y-137070000D01*
X170253641Y-137830000D02*
X169946359Y-137830000D01*
%TO.C,F1*%
X183074721Y-138610000D02*
X183400279Y-138610000D01*
X183074721Y-137590000D02*
X183400279Y-137590000D01*
D18*
%TO.C,S2*%
X180530000Y-141192000D02*
X180530000Y-141192000D01*
D11*
X179450000Y-143850000D02*
X179450000Y-144650000D01*
X180052000Y-145550000D02*
X185548000Y-145550000D01*
X186150000Y-143850000D02*
X186150000Y-144650000D01*
D18*
X180594000Y-141192000D02*
X180594000Y-141192000D01*
X180530000Y-141192000D02*
G75*
G03*
X180594000Y-141192000I32000J0D01*
G01*
X180594000Y-141192000D02*
G75*
G03*
X180530000Y-141192000I-32000J0D01*
G01*
D15*
%TO.C,R28*%
X247320128Y-131883769D02*
X247627410Y-131883769D01*
X247320128Y-131123769D02*
X247627410Y-131123769D01*
%TO.C,C17*%
X192960000Y-123707836D02*
X192960000Y-123492164D01*
X192240000Y-123707836D02*
X192240000Y-123492164D01*
%TO.C,J14*%
X230837500Y-130913211D02*
X230837500Y-128813211D01*
X226537500Y-128813211D02*
X227337500Y-128813211D01*
X227337500Y-128813211D02*
X227407500Y-128813211D01*
X226537500Y-130913211D02*
X226537500Y-128813211D01*
X230837500Y-128813211D02*
X229937500Y-128813211D01*
D16*
X227768210Y-128203211D02*
G75*
G03*
X227768210Y-128203211I-100710J0D01*
G01*
D15*
%TO.C,R25*%
X247320128Y-121123769D02*
X247627410Y-121123769D01*
X247320128Y-121883769D02*
X247627410Y-121883769D01*
%TO.C,R24*%
X229188641Y-126300000D02*
X228881359Y-126300000D01*
X229188641Y-127060000D02*
X228881359Y-127060000D01*
%TO.C,C9*%
X202742164Y-141360000D02*
X202957836Y-141360000D01*
X202742164Y-140640000D02*
X202957836Y-140640000D01*
D13*
%TO.C,IC12*%
X231190000Y-125910000D02*
G75*
G03*
X231190000Y-125910000I-125000J0D01*
G01*
D11*
%TO.C,IC7*%
X239260556Y-144032338D02*
X240144439Y-143148454D01*
X240526277Y-142823185D02*
X242591029Y-144887937D01*
X242591029Y-144887937D02*
X242484963Y-144994003D01*
X240420211Y-142929251D02*
X240526277Y-142823185D01*
X242484963Y-144994003D02*
X240420211Y-142929251D01*
D15*
%TO.C,R9*%
X189703641Y-142330000D02*
X189396359Y-142330000D01*
X189703641Y-141570000D02*
X189396359Y-141570000D01*
%TO.C,C16*%
X183378080Y-139290000D02*
X183096920Y-139290000D01*
X183378080Y-140310000D02*
X183096920Y-140310000D01*
%TO.C,R11*%
X194253641Y-128870000D02*
X193946359Y-128870000D01*
X194253641Y-129630000D02*
X193946359Y-129630000D01*
D11*
%TO.C,IC4*%
X170900000Y-129350000D02*
X170900000Y-132250000D01*
X168750000Y-129300000D02*
X169950000Y-129300000D01*
X170900000Y-132250000D02*
X170300000Y-132250000D01*
X170300000Y-132250000D02*
X170300000Y-129350000D01*
X170300000Y-129350000D02*
X170900000Y-129350000D01*
D15*
%TO.C,J3*%
X170700000Y-144200000D02*
X170700000Y-146460000D01*
X169700000Y-142600000D02*
X169700000Y-144200000D01*
X171500000Y-146460000D02*
X171500000Y-142100000D01*
X170140000Y-140240000D02*
X169860000Y-140240000D01*
X170700000Y-144200000D02*
X170700000Y-142600000D01*
X170140000Y-140240000D02*
X170140000Y-139025000D01*
X168940000Y-138640000D02*
X168940000Y-146460000D01*
X174300000Y-144200000D02*
X173300000Y-144200000D01*
X170700000Y-142600000D02*
X169700000Y-142600000D01*
X173300000Y-142600000D02*
X174300000Y-142600000D01*
X169860000Y-138640000D02*
X168940000Y-138640000D01*
X175060000Y-138640000D02*
X174140000Y-138640000D01*
X171500000Y-142100000D02*
X172500000Y-142100000D01*
X174140000Y-138640000D02*
X174140000Y-140240000D01*
X172500000Y-142100000D02*
X172500000Y-146460000D01*
X174140000Y-140240000D02*
X173860000Y-140240000D01*
X174300000Y-142600000D02*
X174300000Y-144200000D01*
X168940000Y-146460000D02*
X175060000Y-146460000D01*
X168940000Y-140240000D02*
X169860000Y-140240000D01*
X170200000Y-144200000D02*
X170200000Y-146460000D01*
X173300000Y-144200000D02*
X173300000Y-142600000D01*
X175060000Y-146460000D02*
X175060000Y-138640000D01*
X169860000Y-140240000D02*
X169860000Y-138640000D01*
X175060000Y-140240000D02*
X174140000Y-140240000D01*
X169700000Y-144200000D02*
X170700000Y-144200000D01*
%TO.C,R19*%
X174403641Y-126970000D02*
X174096359Y-126970000D01*
X174403641Y-127730000D02*
X174096359Y-127730000D01*
D11*
%TO.C,IC8*%
X241381876Y-135563530D02*
X242265760Y-136447413D01*
X240526277Y-138894003D02*
X240420211Y-138787937D01*
X242591029Y-136829251D02*
X240526277Y-138894003D01*
X242484963Y-136723185D02*
X242591029Y-136829251D01*
X240420211Y-138787937D02*
X242484963Y-136723185D01*
D15*
%TO.C,J15*%
X224992500Y-135370000D02*
X224992500Y-139570000D01*
X221092500Y-135370000D02*
X221092500Y-139570000D01*
X220792500Y-134970000D02*
X225292500Y-134970000D01*
X225292500Y-134970000D02*
X225292500Y-140970000D01*
X225292500Y-140970000D02*
X220792500Y-140970000D01*
X220792500Y-140970000D02*
X220792500Y-134970000D01*
%TO.C,C22*%
X183310000Y-132492164D02*
X183310000Y-132707836D01*
X182590000Y-132492164D02*
X182590000Y-132707836D01*
%TO.C,D2*%
X175865000Y-144240000D02*
X175865000Y-146525000D01*
X177335000Y-146525000D02*
X177335000Y-144240000D01*
X175865000Y-146525000D02*
X177335000Y-146525000D01*
%TO.C,R2*%
X204720000Y-142103641D02*
X204720000Y-141796359D01*
X205480000Y-142103641D02*
X205480000Y-141796359D01*
%TO.C,C10*%
X203692164Y-136560000D02*
X203907836Y-136560000D01*
X203692164Y-135840000D02*
X203907836Y-135840000D01*
%TO.C,C5*%
X207340000Y-127992164D02*
X207340000Y-128207836D01*
X208060000Y-127992164D02*
X208060000Y-128207836D01*
%TO.C,R17*%
X174610000Y-134172936D02*
X174610000Y-135627064D01*
X172790000Y-134172936D02*
X172790000Y-135627064D01*
D11*
%TO.C,Q3*%
X171660000Y-134825000D02*
X168740000Y-134825000D01*
X168740000Y-134675000D02*
X171660000Y-134675000D01*
X168700000Y-136425000D02*
X168700000Y-135175000D01*
X171660000Y-134675000D02*
X171660000Y-134825000D01*
X168740000Y-134825000D02*
X168740000Y-134675000D01*
%TO.C,Q4*%
X176510000Y-130075000D02*
X173590000Y-130075000D01*
X176510000Y-129925000D02*
X176510000Y-130075000D01*
X173550000Y-131675000D02*
X173550000Y-130425000D01*
X173590000Y-129925000D02*
X176510000Y-129925000D01*
X173590000Y-130075000D02*
X173590000Y-129925000D01*
%TO.C,Q6*%
X203750000Y-126825000D02*
X203750000Y-125575000D01*
X206710000Y-125225000D02*
X203790000Y-125225000D01*
X206710000Y-125075000D02*
X206710000Y-125225000D01*
X203790000Y-125225000D02*
X203790000Y-125075000D01*
X203790000Y-125075000D02*
X206710000Y-125075000D01*
D15*
%TO.C,C7*%
X184140000Y-133307836D02*
X184140000Y-133092164D01*
X184860000Y-133307836D02*
X184860000Y-133092164D01*
%TO.C,R16*%
X210446359Y-128180000D02*
X210753641Y-128180000D01*
X210446359Y-127420000D02*
X210753641Y-127420000D01*
%TO.C,R21*%
X214893641Y-132080000D02*
X214586359Y-132080000D01*
X214893641Y-131320000D02*
X214586359Y-131320000D01*
%TO.C,J1*%
X188235000Y-139286529D02*
X188235000Y-138740000D01*
X188235000Y-140960000D02*
X188235000Y-140413471D01*
X188235000Y-138740000D02*
X190710000Y-138740000D01*
X190710000Y-139542470D02*
X190710000Y-138740000D01*
X187475000Y-140960000D02*
X186715000Y-140960000D01*
X186715000Y-140960000D02*
X186715000Y-139850000D01*
X188235000Y-140960000D02*
X190710000Y-140960000D01*
X190710000Y-140960000D02*
X190710000Y-140157530D01*
D11*
%TO.C,IC11*%
X221450000Y-141965000D02*
X222650000Y-141965000D01*
D15*
%TO.C,R10*%
X176980000Y-141996359D02*
X176980000Y-142303641D01*
X176220000Y-141996359D02*
X176220000Y-142303641D01*
%TO.C,R7*%
X202746359Y-137730000D02*
X203053641Y-137730000D01*
X202746359Y-136970000D02*
X203053641Y-136970000D01*
%TO.C,C6*%
X202792164Y-140210000D02*
X203007836Y-140210000D01*
X202792164Y-139490000D02*
X203007836Y-139490000D01*
%TO.C,C2*%
X200370000Y-130787836D02*
X200370000Y-130572164D01*
X199650000Y-130787836D02*
X199650000Y-130572164D01*
%TO.C,C12*%
X203192164Y-142090000D02*
X203407836Y-142090000D01*
X203192164Y-142810000D02*
X203407836Y-142810000D01*
%TO.C,R8*%
X202746359Y-138070000D02*
X203053641Y-138070000D01*
X202746359Y-138830000D02*
X203053641Y-138830000D01*
%TO.C,R18*%
X177003641Y-127730000D02*
X176696359Y-127730000D01*
X177003641Y-126970000D02*
X176696359Y-126970000D01*
%TO.C,R3*%
X190570000Y-137203641D02*
X190570000Y-136896359D01*
X191330000Y-137203641D02*
X191330000Y-136896359D01*
%TO.C,U3*%
X193787500Y-126550000D02*
X193787500Y-126150000D01*
X193687500Y-126350000D02*
X193587500Y-126350000D01*
X193987500Y-126350000D02*
X193687500Y-126350000D01*
D19*
X194516557Y-127350000D02*
G75*
G03*
X194516557Y-127350000I-109057J0D01*
G01*
D15*
%TO.C,R1*%
X172053641Y-127470000D02*
X171746359Y-127470000D01*
X172053641Y-128230000D02*
X171746359Y-128230000D01*
D11*
%TO.C,Q5*%
X216160000Y-128775000D02*
X216160000Y-128925000D01*
X216160000Y-128925000D02*
X213240000Y-128925000D01*
X213200000Y-130525000D02*
X213200000Y-129275000D01*
X213240000Y-128775000D02*
X216160000Y-128775000D01*
X213240000Y-128925000D02*
X213240000Y-128775000D01*
D15*
%TO.C,C26*%
X178760000Y-131040580D02*
X178760000Y-130759420D01*
X177740000Y-131040580D02*
X177740000Y-130759420D01*
%TO.C,C24*%
X193540000Y-123707836D02*
X193540000Y-123492164D01*
X194260000Y-123707836D02*
X194260000Y-123492164D01*
%TO.C,C4*%
X185690000Y-137012164D02*
X185690000Y-137227836D01*
X186410000Y-137012164D02*
X186410000Y-137227836D01*
%TO.C,J7*%
X199662500Y-145143211D02*
X199662500Y-143043211D01*
X196162500Y-143043211D02*
X196232500Y-143043211D01*
X199662500Y-143043211D02*
X198762500Y-143043211D01*
X195362500Y-143043211D02*
X196162500Y-143043211D01*
X195362500Y-145143211D02*
X195362500Y-143043211D01*
D16*
X196593210Y-142433211D02*
G75*
G03*
X196593210Y-142433211I-100710J0D01*
G01*
D15*
%TO.C,C29*%
X180040000Y-129240580D02*
X180040000Y-128959420D01*
X181060000Y-129240580D02*
X181060000Y-128959420D01*
%TO.C,J10*%
X221132500Y-132040000D02*
X221132500Y-127840000D01*
X225032500Y-132040000D02*
X225032500Y-127840000D01*
X225332500Y-132440000D02*
X220832500Y-132440000D01*
X220832500Y-132440000D02*
X220832500Y-126440000D01*
X220832500Y-126440000D02*
X225332500Y-126440000D01*
X225332500Y-126440000D02*
X225332500Y-132440000D01*
%TO.C,J9*%
D17*
X233080000Y-137590000D02*
G75*
G03*
X233080000Y-137590000I-155000J0D01*
G01*
D15*
%TO.C,D1*%
X189785000Y-145885000D02*
X189785000Y-143600000D01*
X188315000Y-143600000D02*
X188315000Y-145885000D01*
X188315000Y-145885000D02*
X189785000Y-145885000D01*
%TO.C,C1*%
X216560000Y-125927836D02*
X216560000Y-125712164D01*
X215840000Y-125927836D02*
X215840000Y-125712164D01*
%TO.C,Je*%
D17*
X250978769Y-123303769D02*
G75*
G03*
X250978769Y-123303769I-155000J0D01*
G01*
D15*
%TO.C,C21*%
X183757836Y-123860000D02*
X183542164Y-123860000D01*
X183757836Y-123140000D02*
X183542164Y-123140000D01*
%TO.C,D3*%
X181437500Y-137400000D02*
X181437500Y-139950000D01*
X181437500Y-137400000D02*
X179737500Y-137400000D01*
X179737500Y-137400000D02*
X179737500Y-139950000D01*
%TO.C,J13*%
X230027500Y-138586790D02*
X229957500Y-138586790D01*
X226527500Y-136486790D02*
X226527500Y-138586790D01*
X230827500Y-136486790D02*
X230827500Y-138586790D01*
X230827500Y-138586790D02*
X230027500Y-138586790D01*
X226527500Y-138586790D02*
X227427500Y-138586790D01*
D16*
X229798210Y-139196790D02*
G75*
G03*
X229798210Y-139196790I-100710J0D01*
G01*
D15*
%TO.C,SW1*%
X203950000Y-143900000D02*
X201650000Y-143900000D01*
X205200000Y-145400000D02*
X205200000Y-143900000D01*
X200400000Y-143900000D02*
X200400000Y-145400000D01*
X200550000Y-143900000D02*
X200400000Y-143900000D01*
X204700000Y-146600000D02*
X200900000Y-146600000D01*
X205200000Y-143900000D02*
X205050000Y-143900000D01*
%TO.C,R20*%
X183396359Y-135130000D02*
X183703641Y-135130000D01*
X183396359Y-134370000D02*
X183703641Y-134370000D01*
D11*
%TO.C,IC1*%
X193010000Y-133120000D02*
X193010000Y-133620000D01*
X193010000Y-139620000D02*
X193010000Y-140120000D01*
D20*
X199110000Y-132220000D02*
X199110000Y-132220000D01*
D11*
X193010000Y-140120000D02*
X193510000Y-140120000D01*
X200010000Y-133120000D02*
X199510000Y-133120000D01*
X200010000Y-140120000D02*
X199510000Y-140120000D01*
X200010000Y-133620000D02*
X200010000Y-133120000D01*
X200010000Y-139620000D02*
X200010000Y-140120000D01*
X193510000Y-133120000D02*
X193010000Y-133120000D01*
D20*
X199110000Y-132120000D02*
X199110000Y-132120000D01*
X199110000Y-132120000D02*
G75*
G03*
X199110000Y-132220000I0J-50000D01*
G01*
X199110000Y-132220000D02*
G75*
G03*
X199110000Y-132120000I0J50000D01*
G01*
D15*
%TO.C,C30*%
X227911252Y-146200000D02*
X226488748Y-146200000D01*
X227911252Y-144380000D02*
X226488748Y-144380000D01*
D11*
%TO.C,S1*%
X214550000Y-133429685D02*
X215550000Y-133429685D01*
X214550000Y-137629685D02*
X215550000Y-137629685D01*
X213450000Y-137629685D02*
X213450000Y-133429685D01*
X216650000Y-133429685D02*
X216650000Y-137629685D01*
X214014370Y-138435685D02*
G75*
G03*
X214014370Y-138435685I-53370J0D01*
G01*
D15*
%TO.C,R4*%
X169803641Y-128230000D02*
X169496359Y-128230000D01*
X169803641Y-127470000D02*
X169496359Y-127470000D01*
%TO.C,J5*%
X199100000Y-126010000D02*
X199100000Y-125610000D01*
X195340000Y-124600000D02*
X195740000Y-124600000D01*
X200700000Y-126010000D02*
X200700000Y-125610000D01*
X199200000Y-126010000D02*
X199200000Y-125610000D01*
X196350000Y-122490000D02*
X196350000Y-122690000D01*
X200600000Y-126010000D02*
X200600000Y-125610000D01*
X195140000Y-122490000D02*
X195140000Y-123290000D01*
X202660000Y-126010000D02*
X202660000Y-123090000D01*
X202660000Y-123090000D02*
X195740000Y-123090000D01*
X197600000Y-126010000D02*
X197600000Y-125610000D01*
X195340000Y-126410000D02*
X203060000Y-126410000D01*
X195340000Y-122690000D02*
X195340000Y-126410000D01*
X199100000Y-125610000D02*
X199300000Y-125610000D01*
X195940000Y-122490000D02*
X195140000Y-122490000D01*
X200800000Y-125610000D02*
X200800000Y-126010000D01*
X197700000Y-126010000D02*
X197700000Y-125610000D01*
X203060000Y-124600000D02*
X202660000Y-124600000D01*
X199300000Y-125610000D02*
X199300000Y-126010000D01*
X195740000Y-123090000D02*
X195740000Y-126010000D01*
X195340000Y-123600000D02*
X195740000Y-123600000D01*
X203060000Y-123600000D02*
X202660000Y-123600000D01*
X196650000Y-122690000D02*
X196650000Y-122490000D01*
X197800000Y-125610000D02*
X197800000Y-126010000D01*
X195740000Y-126010000D02*
X202660000Y-126010000D01*
X197600000Y-125610000D02*
X197800000Y-125610000D01*
X196650000Y-122590000D02*
X196350000Y-122590000D01*
X203060000Y-126410000D02*
X203060000Y-122690000D01*
X200600000Y-125610000D02*
X200800000Y-125610000D01*
X203060000Y-122690000D02*
X195340000Y-122690000D01*
X196650000Y-122490000D02*
X196350000Y-122490000D01*
%TO.C,R23*%
X183703641Y-136330000D02*
X183396359Y-136330000D01*
X183703641Y-135570000D02*
X183396359Y-135570000D01*
%TO.C,R27*%
X247609261Y-146188594D02*
X247301979Y-146188594D01*
X247609261Y-145428594D02*
X247301979Y-145428594D01*
%TO.C,R12*%
X190051359Y-132780000D02*
X190358641Y-132780000D01*
X190051359Y-132020000D02*
X190358641Y-132020000D01*
D11*
%TO.C,IC5*%
X180575000Y-135900000D02*
X179825000Y-135900000D01*
X179825000Y-135900000D02*
X179825000Y-133000000D01*
X178325000Y-132850000D02*
X179475000Y-132850000D01*
X180575000Y-133000000D02*
X180575000Y-135900000D01*
X179825000Y-133000000D02*
X180575000Y-133000000D01*
D15*
%TO.C,R22*%
X205503641Y-127420000D02*
X205196359Y-127420000D01*
X205503641Y-128180000D02*
X205196359Y-128180000D01*
%TO.C,J4*%
X214860000Y-126010000D02*
X214860000Y-123090000D01*
X211400000Y-126010000D02*
X211400000Y-125610000D01*
X207940000Y-126010000D02*
X214860000Y-126010000D01*
X207340000Y-122490000D02*
X207340000Y-123290000D01*
X215260000Y-126410000D02*
X215260000Y-122690000D01*
X215260000Y-123600000D02*
X214860000Y-123600000D01*
X207540000Y-123600000D02*
X207940000Y-123600000D01*
X211500000Y-125610000D02*
X211500000Y-126010000D01*
X207540000Y-126410000D02*
X215260000Y-126410000D01*
X212800000Y-126010000D02*
X212800000Y-125610000D01*
X210000000Y-125610000D02*
X210000000Y-126010000D01*
X207540000Y-122690000D02*
X207540000Y-126410000D01*
X211300000Y-126010000D02*
X211300000Y-125610000D01*
X207540000Y-124600000D02*
X207940000Y-124600000D01*
X212800000Y-125610000D02*
X213000000Y-125610000D01*
X208550000Y-122490000D02*
X208550000Y-122690000D01*
X208850000Y-122590000D02*
X208550000Y-122590000D01*
X208140000Y-122490000D02*
X207340000Y-122490000D01*
X207940000Y-123090000D02*
X207940000Y-126010000D01*
X208850000Y-122490000D02*
X208550000Y-122490000D01*
X211300000Y-125610000D02*
X211500000Y-125610000D01*
X213000000Y-125610000D02*
X213000000Y-126010000D01*
X212900000Y-126010000D02*
X212900000Y-125610000D01*
X209900000Y-126010000D02*
X209900000Y-125610000D01*
X208850000Y-122690000D02*
X208850000Y-122490000D01*
X215260000Y-124600000D02*
X214860000Y-124600000D01*
X215260000Y-122690000D02*
X207540000Y-122690000D01*
X209800000Y-126010000D02*
X209800000Y-125610000D01*
X209800000Y-125610000D02*
X210000000Y-125610000D01*
X214860000Y-123090000D02*
X207940000Y-123090000D01*
D11*
%TO.C,IC3*%
X212400000Y-135200000D02*
X207500000Y-135200000D01*
X207500000Y-135200000D02*
X207500000Y-132000000D01*
X212400000Y-132000000D02*
X212400000Y-135200000D01*
X207345000Y-137100000D02*
X207345000Y-135550000D01*
X207500000Y-132000000D02*
X212400000Y-132000000D01*
%TO.C,Q1*%
X171960000Y-125075000D02*
X169040000Y-125075000D01*
X169040000Y-125075000D02*
X169040000Y-124925000D01*
X171960000Y-124925000D02*
X171960000Y-125075000D01*
X169040000Y-124925000D02*
X171960000Y-124925000D01*
X169000000Y-126675000D02*
X169000000Y-125425000D01*
%TO.C,IC9*%
X240438360Y-124433112D02*
X242503112Y-122368360D01*
X240544426Y-124539178D02*
X240438360Y-124433112D01*
X242609178Y-122474426D02*
X240544426Y-124539178D01*
X241400025Y-121208705D02*
X242283909Y-122092588D01*
X242503112Y-122368360D02*
X242609178Y-122474426D01*
D13*
%TO.C,IC2*%
X204665000Y-130940000D02*
G75*
G03*
X204665000Y-130940000I-125000J0D01*
G01*
D15*
%TO.C,C8*%
X185240000Y-139542164D02*
X185240000Y-139757836D01*
X185960000Y-139542164D02*
X185960000Y-139757836D01*
%TO.C,L1*%
X180750279Y-132160000D02*
X180424721Y-132160000D01*
X180750279Y-131140000D02*
X180424721Y-131140000D01*
%TO.C,C27*%
X223190580Y-145080000D02*
X222909420Y-145080000D01*
X223190580Y-146100000D02*
X222909420Y-146100000D01*
D11*
%TO.C,IC10*%
X240438360Y-128574426D02*
X240544426Y-128468360D01*
X240544426Y-128468360D02*
X242609178Y-130533112D01*
X242503112Y-130639178D02*
X240438360Y-128574426D01*
X242609178Y-130533112D02*
X242503112Y-130639178D01*
X239278705Y-129677513D02*
X240162588Y-128793629D01*
D15*
%TO.C,C25*%
X176277836Y-132240000D02*
X176062164Y-132240000D01*
X176277836Y-132960000D02*
X176062164Y-132960000D01*
%TO.C,J12*%
D17*
X250910620Y-144058594D02*
G75*
G03*
X250910620Y-144058594I-155000J0D01*
G01*
D15*
%TO.C,C3*%
X185640000Y-134837836D02*
X185640000Y-134622164D01*
X186360000Y-134837836D02*
X186360000Y-134622164D01*
D11*
%TO.C,AC1*%
X184937000Y-125850000D02*
X184937000Y-125850000D01*
X184937000Y-125950000D02*
X184937000Y-125950000D01*
X184937000Y-125950000D02*
X184937000Y-125950000D01*
X184937000Y-125850000D02*
G75*
G03*
X184937000Y-125950000I0J-50000D01*
G01*
X184937000Y-125950000D02*
G75*
G03*
X184937000Y-125850000I0J50000D01*
G01*
X184937000Y-125950000D02*
G75*
G03*
X184937000Y-125850000I0J50000D01*
G01*
D15*
%TO.C,C35*%
X247645620Y-139230758D02*
X247645620Y-139446430D01*
X248365620Y-139230758D02*
X248365620Y-139446430D01*
%TO.C,C15*%
X177410000Y-134890580D02*
X177410000Y-134609420D01*
X176390000Y-134890580D02*
X176390000Y-134609420D01*
%TO.C,C19*%
X226593748Y-121050000D02*
X228016252Y-121050000D01*
X226593748Y-122870000D02*
X228016252Y-122870000D01*
%TO.C,R29*%
X247559261Y-135478594D02*
X247251979Y-135478594D01*
X247559261Y-136238594D02*
X247251979Y-136238594D01*
%TO.C,C36*%
X248433769Y-128081605D02*
X248433769Y-127865933D01*
X247713769Y-128081605D02*
X247713769Y-127865933D01*
%TO.C,U1*%
X206380000Y-139540000D02*
X215020000Y-139540000D01*
X215020000Y-139540000D02*
X215020000Y-146890000D01*
X215020000Y-146890000D02*
X206380000Y-146890000D01*
X206380000Y-146890000D02*
X206380000Y-139540000D01*
%TO.C,C23*%
X189992164Y-123910000D02*
X190207836Y-123910000D01*
X189992164Y-123190000D02*
X190207836Y-123190000D01*
%TD*%
M02*
